999
dxflib 2.0.4.8
  0
SECTION
  2
HEADER
  9
$ACADVER
  1
AC1015
  9
$HANDSEED
  5
FFFF
  9
$USERR4
 40
0.0
  9
$DIMTAD
 70
0
  9
$VISRETAIN
 70
1
  9
$TILEMODE
 70
1
  9
$SHADEDIF
 70
70
  9
$USERR5
 40
0.0
  9
$UCSYDIR
 10
0.0
 20
1.0
 30
0.0
  9
$ATTREQ
 70
1
  9
$CHAMFERA
 40
0.5
  9
$MENU
  1
.
  9
$CLAYER
  8
0
  9
$UCSXDIR
 10
1.0
 20
0.0
 30
0.0
  9
$CHAMFERB
 40
0.5
  9
$DIMASZ
 40
0.18
  9
$TRACEWID
 40
0.05
  9
$REGENMODE
 70
1
  9
$ORTHOMODE
 70
0
  9
$EXTMIN
 10
11.745667727405831
 20
26.926388447804761
 30
0.0
  9
$PUCSYDIR
 10
0.0
 20
1.0
 30
0.0
  9
$ANGBASE
 50
0.0
  9
$USRTIMER
 70
1
  9
$SKETCHINC
 40
0.1
  9
$DIMGAP
 40
0.09
  9
$DIMTFAC
 40
1.0
  9
$DIMSAH
 70
0
  9
$DIMALT
 70
0
  9
$DIMSHO
 70
1
  9
$PUCSXDIR
 10
1.0
 20
0.0
 30
0.0
  9
$SURFTYPE
 70
6
  9
$SPLFRAME
 70
0
  9
$DIMTSZ
 40
0.0
  9
$LIMMIN
 10
0.0
 20
0.0
  9
$SURFTAB1
 70
6
  9
$SPLINESEGS
 70
8
  9
$AUPREC
 70
0
  9
$LUNITS
 70
2
  9
$DWGCODEPAGE
  3
ansi_1252
  9
$UNITMODE
 70
0
  9
$USERI1
 70
0
  9
$SURFTAB2
 70
6
  9
$SKPOLY
 70
0
  9
$ELEVATION
 40
0.0
  9
$DIMCEN
 40
0.09
  9
$DIMRND
 40
0.0
  9
$INSBASE
 10
0.0
 20
0.0
 30
0.0
  9
$USERI2
 70
0
  9
$UCSORG
 10
0.0
 20
0.0
 30
0.0
  9
$PELEVATION
 40
0.0
  9
$DIMEXO
 40
0.0625
  9
$TEXTSIZE
 40
0.2
  9
$DRAGMODE
 70
2
  9
$FILLMODE
 70
1
  9
$EXTMAX
 10
50.874686574412493
 20
49.621094656230483
 30
0.0
  9
$INSUNITS
 70
4
  9
$USERI3
 70
0
  9
$SURFU
 70
6
  9
$ANGDIR
 70
0
  9
$TDUSRTIMER
 40
0.0000000116
  9
$DIMZIN
 70
0
  9
$DIMDLE
 40
0.0
  9
$DIMSCALE
 40
1.0
  9
$WORLDVIEW
 70
1
  9
$USERI4
 70
0
  9
$SURFV
 70
6
  9
$OSMODE
 70
37
  9
$QTEXTMODE
 70
0
  9
$LIMMAX
 10
12.0
 20
9.0
  9
$USERI5
 70
0
  9
$HANDLING
 70
1
  9
$PDMODE
 70
0
  9
$LIMCHECK
 70
0
  9
$THICKNESS
 40
0.0
  9
$DIMSE1
 70
0
  9
$DIMLIM
 70
0
  9
$DIMTXT
 40
0.18
  9
$ATTMODE
 70
1
  9
$PEXTMAX
 10
-100000000000000000000.0
 20
-100000000000000000000.0
 30
-100000000000000000000.0
  9
$PEXTMIN
 10
100000000000000000000.0
 20
100000000000000000000.0
 30
100000000000000000000.0
  9
$PUCSORG
 10
0.0
 20
0.0
 30
0.0
  9
$SPLINETYPE
 70
6
  9
$TDINDWG
 40
0.0000000116
  9
$LUPREC
 70
4
  9
$DIMSOXD
 70
0
  9
$DIMLFAC
 40
1.0
  9
$DIMSE2
 70
0
  9
$DIMTOH
 70
1
  9
$CELTYPE
  6
BYLAYER
  9
$PLIMCHECK
 70
0
  9
$PLINEWID
 40
0.0
  9
$DIMSTYLE
  2
STANDARD
  9
$DIMTVP
 40
0.0
  9
$DIMASO
 70
1
  9
$DIMTM
 40
0.0
  9
$DIMDLI
 40
0.38
  9
$CECOLOR
 62
256
  9
$PLIMMAX
 10
12.0
 20
9.0
  9
$PLIMMIN
 10
0.0
 20
0.0
  9
$MAXACTVP
 70
64
  9
$TDUPDATE
 40
2456250.8024804401
  9
$FILLETRAD
 40
0.5
  9
$DIMCLRT
 70
0
  9
$DIMALTD
 70
2
  9
$DIMTIH
 70
1
  9
$LTSCALE
 40
1.0
  9
$USERR1
 40
0.0
  9
$ATTDIA
 70
0
  9
$PDSIZE
 40
0.0
  9
$DIMCLRD
 70
0
  9
$DIMEXE
 40
0.18
  9
$PSLTSCALE
 70
1
  9
$PLINEGEN
 70
0
  9
$SHADEDGE
 70
3
  9
$USERR2
 40
0.0
  9
$COORDS
 70
1
  9
$TDCREATE
 40
2454910.5
  9
$DIMCLRE
 70
0
  9
$DIMTOFL
 70
0
  9
$DIMALTF
 40
25.399999999999999
  9
$DIMTOL
 70
0
  9
$DIMTP
 40
0.0
  9
$TEXTSTYLE
  7
STANDARD
  9
$USERR3
 40
0.0
  9
$AUNITS
 70
0
  9
$DIMTIX
 70
0
  9
$MIRRTEXT
 70
1
  0
ENDSEC
  0
SECTION
  2
TABLES
  0
TABLE
  2
VPORT
  5
8
100
AcDbSymbolTable
 70
1
  0
VPORT
  5
30
100
AcDbSymbolTableRecord
100
AcDbViewportTableRecord
  2
*Active
 70
0
 10
0.0
 20
0.0
 11
1.0
 21
1.0
 12
286.30555555555549
 22
148.5
 13
0.0
 23
0.0
 14
10.0
 24
10.0
 15
10.0
 25
10.0
 16
0.0
 26
0.0
 36
1.0
 17
0.0
 27
0.0
 37
0.0
 40
297.0
 41
1.92798353909465
 42
50.0
 43
0.0
 44
0.0
 50
0.0
 51
0.0
 71
0
 72
100
 73
1
 74
3
 75
1
 76
1
 77
0
 78
0
281
0
 65
1
110
0.0
120
0.0
130
0.0
111
1.0
121
0.0
131
0.0
112
0.0
122
1.0
132
0.0
 79
0
146
0.0
  0
ENDTAB
  0
TABLE
  2
LTYPE
  5
5
100
AcDbSymbolTable
 70
21
  0
LTYPE
  5
14
100
AcDbSymbolTableRecord
100
AcDbLinetypeTableRecord
  2
ByBlock
 70
0
  3

 72
65
 73
0
 40
0.0
  0
LTYPE
  5
15
100
AcDbSymbolTableRecord
100
AcDbLinetypeTableRecord
  2
ByLayer
 70
0
  3

 72
65
 73
0
 40
0.0
  0
LTYPE
  5
16
100
AcDbSymbolTableRecord
100
AcDbLinetypeTableRecord
  2
CONTINUOUS
 70
0
  3
Solid line
 72
65
 73
0
 40
0.0
  0
LTYPE
  5
31
100
AcDbSymbolTableRecord
100
AcDbLinetypeTableRecord
  2
DOT
 70
0
  3
Dot . . . . . . . . . . . . . . . . . . . . . .
 72
65
 73
2
 40
6.3499999999999996
 49
0.0
 74
0
 49
-6.3499999999999996
 74
0
  0
LTYPE
  5
32
100
AcDbSymbolTableRecord
100
AcDbLinetypeTableRecord
  2
DOT2
 70
0
  3
Dot (.5x) .....................................
 72
65
 73
2
 40
3.1749999999999998
 49
0.0
 74
0
 49
-3.1749999999999998
 74
0
  0
LTYPE
  5
33
100
AcDbSymbolTableRecord
100
AcDbLinetypeTableRecord
  2
DOTX2
 70
0
  3
Dot (2x) .  .  .  .  .  .  .  .  .  .  .  .  .
 72
65
 73
2
 40
12.699999999999999
 49
0.0
 74
0
 49
-12.699999999999999
 74
0
  0
LTYPE
  5
34
100
AcDbSymbolTableRecord
100
AcDbLinetypeTableRecord
  2
DASHED
 70
0
  3
Dashed __ __ __ __ __ __ __ __ __ __ __ __ __ _
 72
65
 73
2
 40
19.050000000000001
 49
12.699999999999999
 74
0
 49
-6.3499999999999996
 74
0
  0
LTYPE
  5
35
100
AcDbSymbolTableRecord
100
AcDbLinetypeTableRecord
  2
DASHED2
 70
0
  3
Dashed (.5x) _ _ _ _ _ _ _ _ _ _ _ _ _ _ _ _ _
 72
65
 73
2
 40
9.5250000000000004
 49
6.3499999999999996
 74
0
 49
-3.1749999999999998
 74
0
  0
LTYPE
  5
36
100
AcDbSymbolTableRecord
100
AcDbLinetypeTableRecord
  2
DASHEDX2
 70
0
  3
Dashed (2x) ____  ____  ____  ____  ____  ___
 72
65
 73
2
 40
38.100000000000001
 49
25.399999999999999
 74
0
 49
-12.699999999999999
 74
0
  0
LTYPE
  5
37
100
AcDbSymbolTableRecord
100
AcDbLinetypeTableRecord
  2
DASHDOT
 70
0
  3
Dash dot __ . __ . __ . __ . __ . __ . __ . __
 72
65
 73
4
 40
25.399999999999999
 49
12.699999999999999
 74
0
 49
-6.3499999999999996
 74
0
 49
0.0
 74
0
 49
-6.3499999999999996
 74
0
  0
LTYPE
  5
38
100
AcDbSymbolTableRecord
100
AcDbLinetypeTableRecord
  2
DASHDOT2
 70
0
  3
Dash dot (.5x) _._._._._._._._._._._._._._._.
 72
65
 73
4
 40
12.699999999999999
 49
6.3499999999999996
 74
0
 49
-3.1749999999999998
 74
0
 49
0.0
 74
0
 49
-3.1749999999999998
 74
0
  0
LTYPE
  5
39
100
AcDbSymbolTableRecord
100
AcDbLinetypeTableRecord
  2
DASHDOTX2
 70
0
  3
Dash dot (2x) ____  .  ____  .  ____  .  ___
 72
65
 73
4
 40
50.799999999999997
 49
25.399999999999999
 74
0
 49
-12.699999999999999
 74
0
 49
0.0
 74
0
 49
-12.699999999999999
 74
0
  0
LTYPE
  5
3A
100
AcDbSymbolTableRecord
100
AcDbLinetypeTableRecord
  2
DIVIDE
 70
0
  3
Divide ____ . . ____ . . ____ . . ____ . . ____
 72
65
 73
6
 40
31.75
 49
12.699999999999999
 74
0
 49
-6.3499999999999996
 74
0
 49
0.0
 74
0
 49
-6.3499999999999996
 74
0
 49
0.0
 74
0
 49
-6.3499999999999996
 74
0
  0
LTYPE
  5
3B
100
AcDbSymbolTableRecord
100
AcDbLinetypeTableRecord
  2
DIVIDE2
 70
0
  3
Divide (.5x) __..__..__..__..__..__..__..__.._
 72
65
 73
6
 40
15.875
 49
6.3499999999999996
 74
0
 49
-3.1749999999999998
 74
0
 49
0.0
 74
0
 49
-3.1749999999999998
 74
0
 49
0.0
 74
0
 49
-3.1749999999999998
 74
0
  0
LTYPE
  5
3C
100
AcDbSymbolTableRecord
100
AcDbLinetypeTableRecord
  2
DIVIDEX2
 70
0
  3
Divide (2x) ________  .  .  ________  .  .  _
 72
65
 73
6
 40
63.5
 49
25.399999999999999
 74
0
 49
-12.699999999999999
 74
0
 49
0.0
 74
0
 49
-12.699999999999999
 74
0
 49
0.0
 74
0
 49
-12.699999999999999
 74
0
  0
LTYPE
  5
3D
100
AcDbSymbolTableRecord
100
AcDbLinetypeTableRecord
  2
CENTER
 70
0
  3
Center ____ _ ____ _ ____ _ ____ _ ____ _ ____
 72
65
 73
4
 40
50.799999999999997
 49
31.75
 74
0
 49
-6.3499999999999996
 74
0
 49
6.3499999999999996
 74
0
 49
-6.3499999999999996
 74
0
  0
LTYPE
  5
3E
100
AcDbSymbolTableRecord
100
AcDbLinetypeTableRecord
  2
CENTER2
 70
0
  3
Center (.5x) ___ _ ___ _ ___ _ ___ _ ___ _ ___
 72
65
 73
4
 40
28.574999999999999
 49
19.050000000000001
 74
0
 49
-3.1749999999999998
 74
0
 49
3.1749999999999998
 74
0
 49
-3.1749999999999998
 74
0
  0
LTYPE
  5
3F
100
AcDbSymbolTableRecord
100
AcDbLinetypeTableRecord
  2
CENTERX2
 70
0
  3
Center (2x) ________  __  ________  __  _____
 72
65
 73
4
 40
101.59999999999999
 49
63.5
 74
0
 49
-12.699999999999999
 74
0
 49
12.699999999999999
 74
0
 49
-12.699999999999999
 74
0
  0
LTYPE
  5
40
100
AcDbSymbolTableRecord
100
AcDbLinetypeTableRecord
  2
BORDER
 70
0
  3
Border __ __ . __ __ . __ __ . __ __ . __ __ .
 72
65
 73
6
 40
44.450000000000003
 49
12.699999999999999
 74
0
 49
-6.3499999999999996
 74
0
 49
12.699999999999999
 74
0
 49
-6.3499999999999996
 74
0
 49
0.0
 74
0
 49
-6.3499999999999996
 74
0
  0
LTYPE
  5
41
100
AcDbSymbolTableRecord
100
AcDbLinetypeTableRecord
  2
BORDER2
 70
0
  3
Border (.5x) __.__.__.__.__.__.__.__.__.__.__.
 72
65
 73
6
 40
22.225000000000001
 49
6.3499999999999996
 74
0
 49
-3.1749999999999998
 74
0
 49
6.3499999999999996
 74
0
 49
-3.1749999999999998
 74
0
 49
0.0
 74
0
 49
-3.1749999999999998
 74
0
  0
LTYPE
  5
42
100
AcDbSymbolTableRecord
100
AcDbLinetypeTableRecord
  2
BORDERX2
 70
0
  3
Border (2x) ____  ____  .  ____  ____  .  ___
 72
65
 73
6
 40
88.900000000000006
 49
25.399999999999999
 74
0
 49
-12.699999999999999
 74
0
 49
25.399999999999999
 74
0
 49
-12.699999999999999
 74
0
 49
0.0
 74
0
 49
-12.699999999999999
 74
0
  0
ENDTAB
  0
TABLE
  2
LAYER
  5
2
100
AcDbSymbolTable
 70
2
  0
LAYER
  5
10
100
AcDbSymbolTableRecord
100
AcDbLayerTableRecord
  2
0
 70
0
 62
7
  6
CONTINUOUS
390
F
  0
LAYER
  5
43
100
AcDbSymbolTableRecord
100
AcDbLayerTableRecord
  2
LAYER_1
 70
0
 62
18
  6
CONTINUOUS
390
F
  0
ENDTAB
  0
TABLE
  2
STYLE
  5
3
100
AcDbSymbolTable
 70
1
  0
STYLE
  5
11
100
AcDbSymbolTableRecord
100
AcDbTextStyleTableRecord
  2
Standard
 70
0
 40
0.0
 41
0.75
 50
0.0
 71
0
 42
2.5
  3
txt
  4

  0
ENDTAB
  0
TABLE
  2
VIEW
  5
6
100
AcDbSymbolTable
 70
0
  0
ENDTAB
  0
TABLE
  2
UCS
  5
7
100
AcDbSymbolTable
 70
0
  0
ENDTAB
  0
TABLE
  2
APPID
  5
9
100
AcDbSymbolTable
 70
1
  0
APPID
  5
12
100
AcDbSymbolTableRecord
100
AcDbRegAppTableRecord
  2
ACAD
 70
0
  0
ENDTAB
  0
TABLE
  2
DIMSTYLE
  5
A
100
AcDbSymbolTable
 70
1
100
AcDbDimStyleTable
 71
0
  0
DIMSTYLE
105
27
100
AcDbSymbolTableRecord
100
AcDbDimStyleTableRecord
  2
Standard
 41
0.18
 42
0.0625
 43
3.75
 44
0.18
 70
0
 73
0
 74
0
 77
1
 78
8
140
0.18
141
2.5
143
0.03937007874016
147
0.09
171
3
172
1
271
2
272
2
274
3
278
44
283
0
284
8
340
11
  0
ENDTAB
  0
TABLE
  2
BLOCK_RECORD
  5
1
100
AcDbSymbolTable
 70
1
  0
BLOCK_RECORD
  5
1F
100
AcDbSymbolTableRecord
100
AcDbBlockTableRecord
  2
*Model_Space
340
22
  0
BLOCK_RECORD
  5
1B
100
AcDbSymbolTableRecord
100
AcDbBlockTableRecord
  2
*Paper_Space
340
1E
  0
BLOCK_RECORD
  5
23
100
AcDbSymbolTableRecord
100
AcDbBlockTableRecord
  2
*Paper_Space0
340
26
  0
ENDTAB
  0
ENDSEC
  0
SECTION
  2
BLOCKS
  0
BLOCK
  5
20
100
AcDbEntity
  8
0
100
AcDbBlockBegin
  2
*Model_Space
 70
0
 10
0.0
 20
0.0
 30
0.0
  3
*Model_Space
  1

  0
ENDBLK
  5
21
100
AcDbEntity
  8
0
100
AcDbBlockEnd
  0
BLOCK
  5
1C
100
AcDbEntity
 67
1
  8
0
100
AcDbBlockBegin
  2
*Paper_Space
 70
0
 10
0.0
 20
0.0
 30
0.0
  3
*Paper_Space
  1

  0
ENDBLK
  5
1D
100
AcDbEntity
 67
1
  8
0
100
AcDbBlockEnd
  0
BLOCK
  5
24
100
AcDbEntity
  8
0
100
AcDbBlockBegin
  2
*Paper_Space0
 70
0
 10
0.0
 20
0.0
 30
0.0
  3
*Paper_Space0
  1

  0
ENDBLK
  5
25
100
AcDbEntity
  8
0
100
AcDbBlockEnd
  0
ENDSEC
  0
SECTION
  2
ENTITIES
  0
LWPOLYLINE
  5
44
  8
LAYER_1
 62
256
370
-1
  6
ByLayer
100
AcDbEntity
100
AcDbPolyline
 90
91
 70
1
 10
6.1089010280790816
 20
2.1982903228038637
 10
6.1380030236445009
 20
2.3562725844446604
 10
6.158790163334082
 20
2.5197980833360205
 10
6.1712624471478321
 20
2.6888668194779299
 10
6.1754198750857441
 20
2.8634787928703744
 10
6.1691837331788761
 20
3.0394765755754776
 10
6.1504753074582439
 20
3.2127027396553061
 10
6.1192945979238758
 20
3.3831572851098599
 10
6.0756416045757646
 20
3.5508402119391178
 10
6.0202092320702221
 20
3.7129799015178335
 10
5.9536903850635667
 20
3.866804735220704
 10
5.8760850635558128
 20
4.0123147130477577
 10
5.787393267546932
 20
4.1495098349989803
 10
5.6869220923806409
 20
4.2742326731364599
 10
5.573978633400607
 20
4.3823257995222704
 10
5.4485628906068158
 20
4.4737892141564046
 10
5.3106748639992674
 20
4.5486229170388981
 10
5.1513067930458334
 20
4.6113307884357937
 10
4.994710340717667
 20
4.6553302341120641
 10
4.8408855070147823
 20
4.6806212540677237
 10
4.6898322919371864
 20
4.687203848302758
 10
4.541550695484851
 20
4.6750780168171744
 10
4.3960407176578045
 20
4.6442437596109585
 10
4.2533023584560326
 20
4.5947010766841245
 10
4.1133356178795353
 20
4.5264499680366796
 10
3.9775263052409571
 20
4.4457265755754776
 10
3.847260229852921
 20
4.3587670412074146
 10
3.7225373917154414
 20
4.2655713649324696
 10
3.6033577908285324
 20
4.1661395467506495
 10
3.4897214271921726
 20
4.0604715866619543
 10
3.3816283008063621
 20
3.9485674846663983
 10
3.2790784116711151
 20
3.8304272407639601
 10
3.1820717597864174
 20
3.7060508549546398
 10
2.9547990325136837
 20
3.3686062873271467
 10
2.7386127797420627
 20
3.0214610545111782
 10
2.5335130014715546
 20
2.6646151565067484
 10
2.339499697702152
 20
2.2980685933138503
 10
1.9791892764161219
 20
1.5580464203648248
 10
1.6521382786334158
 20
0.8235674846663841
 10
1.4789121145535873
 20
0.4237614979701547
 10
1.3140008063495969
 20
0.022569701961288
 10
1.1574043540214376
 20
-0.380007903360216
 10
1.0091227575691022
 20
-0.7839713179943644
 10
0.7319608950413965
 20
-1.6015988124511225
 10
0.476971981515895
 20
-2.4358560186595497
 10
0.3716504737553521
 20
-2.812796151697242
 10
0.2774154404959432
 20
-3.1897362847349413
 10
0.1942668817376259
 20
-3.5666764177726336
 10
0.1222047974804212
 20
-3.9436165508103258
 10
0.0418278573473714
 20
-4.3371863955996801
 10
-0.0219193710339951
 20
-4.7640156638923727
 10
-0.0317932623865431
 20
-4.8734945995908134
 10
-0.0336987501914265
 20
-4.980201916663983
 10
-0.0276358344486241
 20
-5.0841376151118816
 10
-0.0136045151581641
 20
-5.1853016949344912
 10
0.0083952076799676
 20
-5.2836941561318334
 10
0.038363334065771
 20
-5.3793149987038937
 10
0.0762998639992674
 20
-5.472164222650683
 10
0.1222047974804212
 20
-5.5622418279721941
 10
0.1736529682121315
 20
-5.6407132803003535
 10
0.2282192098972615
 20
-5.7098305197682038
 10
0.2859035225358539
 20
-5.7695935463757415
 10
0.3467059061278732
 20
-5.8200023601229738
 10
0.4106263606733265
 20
-5.8610569610098935
 10
0.4776648861722137
 20
-5.8927573490364935
 10
0.547821482624542
 20
-5.9151035242027916
 10
0.6210961500303114
 20
-5.9280954865087736
 10
0.7721493651079143
 20
-5.9343316284156522
 10
0.9259741988107919
 20
-5.9197806306329426
 10
1.0825706511389512
 20
-5.8844424931606625
 10
1.2419387220923923
 20
-5.8283172159987942
 10
1.4013067930458334
 20
-5.7569480363979117
 10
1.5579032453739927
 20
-5.6758781916085539
 10
1.7117280790768774
 20
-5.5851076816307312
 10
1.8627812941544875
 20
-5.4846365064644331
 10
2.1316283008063621
 20
-5.2823083468191925
 10
2.339499697702152
 20
-5.0966098989256317
 10
2.6319054626688967
 20
-4.8007396106772937
 10
2.9104531345092468
 20
-4.4896254199899204
 10
3.1751427132232166
 20
-4.1632673268635401
 10
3.4259741988107919
 20
-3.821665331298135
 10
3.9026926023584636
 20
-3.1204458191030113
 10
4.357238056903924
 20
-2.4136830696573455
 10
5.0224265269704418
 20
-1.2163438235376063
 10
5.1166615602298648
 20
-0.7749635574622147
 10
5.2219830679904078
 20
-0.3377407193247421
 10
5.3383910502520351
 20
0.0953246908748184
 10
5.4658855070147965
 20
0.5242326731364599
 10
5.6058522475912866
 20
0.9489832274601753
 10
5.7596770812941642
 20
1.3695763538459858
 10
5.9273600081234363
 20
1.7860120522938843
  0
LWPOLYLINE
  5
45
  8
LAYER_1
 62
256
370
-1
  6
ByLayer
100
AcDbEntity
100
AcDbPolyline
 90
769
 70
1
 10
-16.651631122696955
 20
13.018689435885904
 10
-16.551159947530657
 20
13.053334668701879
 10
-16.438216488550616
 20
13.06857857114089
 10
-16.312800745756824
 20
13.064421143202978
 10
-16.174912719149287
 20
13.040862384888115
 10
-16.039796311167027
 20
13.002059724134234
 10
-15.922695424249067
 20
12.952170588879248
 10
-15.823610058395406
 20
12.891194979123156
 10
-15.742540213606045
 20
12.819132894865945
 10
-15.676021366599397
 20
12.73806305007659
 10
-15.620588994093854
 20
12.650064158724049
 10
-15.576243096089417
 20
12.555136220808308
 10
-15.542983672586097
 20
12.453279236329365
 10
-15.520117818927556
 20
12.346571919256185
 10
-15.506952630457494
 20
12.237092983557744
 10
-15.503488107175887
 20
12.124842429234015
 10
-15.509724249082765
 20
12.009820256285018
 10
-15.542983672586097
 20
11.779775910387016
 10
-15.598416045091636
 20
11.555274801739557
 10
-16.707063495202505
 20
7.1650308993005396
 10
-19.123914936444187
 20
-2.3693371716529015
 10
-18.406065712497405
 20
-0.5760999210985744
 10
-17.671586776798954
 20
1.2115940922051891
 10
-17.293953739104946
 20
2.1019765755754776
 10
-16.903848417597185
 20
2.9882016310078541
 10
-16.501270812275674
 20
3.8702692585023044
 10
-16.086220923140417
 20
4.7481794580588499
 10
-15.714131122696966
 20
5.5207681498548666
 10
-15.329569038439747
 20
6.2864277950876897
 10
-14.932534670368806
 20
7.0451583937573048
 10
-14.523028018484094
 20
7.7969599458637404
 10
-14.311518872142635
 20
8.1688765201431153
 10
-14.092734226909815
 20
8.5362892141564188
 10
-13.866674082785647
 20
8.899198027903644
 10
-13.633338439770124
 20
9.2576029613847837
 10
-13.392727297863257
 20
9.6115040145998663
 10
-13.144840657065025
 20
9.9609011875488704
 10
-12.889678517375454
 20
10.305794480231796
 10
-12.627240878794517
 20
10.646183892648644
 10
-12.150522475246845
 20
11.222680566706295
 10
-11.887218705845516
 20
11.52201537823624
 10
-11.607285224692525
 20
11.79917724076396
 10
-11.459696532896515
 20
11.9266716975267
 10
-11.305178794537316
 20
12.043079679788335
 10
-11.143732009614915
 20
12.14840118754887
 10
-10.975356178129335
 20
12.242636220808301
 10
-10.801437109393184
 20
12.321627351628699
 10
-10.623360612719136
 20
12.381217152072161
 10
-10.441126688107165
 20
12.421405622138678
 10
-10.254735335557264
 20
12.44219276182826
 10
-10.146295756843294
 20
12.443925023469049
 10
-10.042706510723566
 20
12.43803533389034
 10
-9.943967597198057
 20
12.424523693092119
 10
-9.8500790162667968
 20
12.403390101074379
 10
-9.7610407679297744
 20
12.374634557837126
 10
-9.6768528521869754
 20
12.338257063380368
 10
-9.5975152690384142
 20
12.294257617704091
 10
-9.5230280184840943
 20
12.242636220808301
 10
-9.3858328965328752
 20
12.123456619921384
 10
-9.2624958677080471
 20
11.987647307282799
 10
-9.1530169320095958
 20
11.835208282892559
 10
-9.0573960894375354
 20
11.666139546750649
 10
-8.9749404353355366
 20
11.485291431451316
 10
-8.9049570650472845
 20
11.297514269588788
 10
-8.8474459785727859
 20
11.10280806116306
 10
-8.8024071759120339
 20
10.901172806174159
 10
-8.7331167102801039
 20
10.51037458001008
 10
-8.680455956399836
 20
10.15837901459988
 10
-8.6428658787945167
 20
9.7426362208083006
 10
-8.6187874419874255
 20
9.3268934270167279
 10
-8.6082206459785446
 20
8.911150633225148
 10
-8.611165490767906
 20
8.4954078394335752
 10
-8.6276219763554955
 20
8.0796650456420096
 10
-8.657590102741306
 20
7.6639222518504297
 10
-8.7010698699253339
 20
7.248179458058857
 10
-8.758061277907597
 20
6.8324366642672771
 10
-8.8931776858898566
 20
6.0037226953094063
 10
-9.0435379963111444
 20
5.1805519636020847
 10
-9.209142209171457
 20
4.3629244691453266
 10
-9.3899903244707943
 20
3.5508402119391178
 10
-9.5673739164885347
 20
2.7969599458637404
 10
-9.1571743599475148
 20
3.6727914314513157
 10
-8.7248018544042765
 20
4.5486229170388981
 10
-8.3430113887723465
 20
5.3101251343338092
 10
-7.9515202579519446
 20
6.0646983050655052
 10
-7.550328461943085
 20
6.8123424292340147
 10
-7.1394360007457358
 20
7.5530575068393375
 10
-6.7119138277967352
 20
8.2840719192561849
 10
-6.2608328965328752
 20
9.0026140478592964
 10
-5.7861932069541666
 20
9.7086838926486436
 10
-5.2879947590605951
 20
10.402281453624255
 10
-5.0745801249142453
 20
10.7016162651542
 10
-4.8334493045151348
 20
11.02312402568635
 10
-4.7031832291271165
 20
11.186649524577696
 10
-4.5673739164885347
 20
11.3446317862185
 10
-4.4260213665993966
 20
11.497070810608747
 10
-4.2791255794597056
 20
11.643966597748424
 10
-4.1266865550694654
 20
11.782547529012284
 10
-3.9687042934286652
 20
11.910041985775038
 10
-3.8051787945373157
 20
12.02644996803668
 10
-3.6361100583954062
 20
12.131771475797208
 10
-3.4621909896592662
 20
12.220463271806089
 10
-3.2841144929852071
 20
12.28698211881273
 10
-3.101880568373236
 20
12.331328016817167
 10
-2.9154892158233459
 20
12.353500965819386
 10
-2.8073960894375354
 20
12.35506000129611
 10
-2.7048462003022742
 20
12.348650633225155
 10
-2.6078395484175765
 20
12.334272861606529
 10
-2.5163761337834352
 20
12.311926686440231
 10
-2.430455956399836
 20
12.281612107726254
 10
-2.3500790162667968
 20
12.243329125464626
 10
-2.275245313384314
 20
12.19707773965532
 10
-2.205954847752384
 20
12.142857950298314
 10
-2.0805391049585964
 20
12.018828016817167
 10
-1.9703672646038264
 20
11.879554180896989
 10
-1.8754393266880847
 20
11.725036442537785
 10
-1.7957552912113641
 20
11.555274801739557
 10
-1.7292364442047159
 20
11.374426686440231
 10
-1.6738040716991769
 20
11.18664952457771
 10
-1.6294581736947364
 20
10.991943316151975
 10
-1.5961987501914123
 20
10.79030806116306
 10
-1.5546244708122572
 20
10.39950983499898
 10
-1.5407663776858627
 20
10.047514269588788
 10
-1.5416325085062681
 20
9.6317714757972084
 10
-1.5553173754685758
 20
9.2160286820056498
 10
-1.5818209785727859
 20
8.80028588821407
 10
-1.6211433178189054
 20
8.3845430944224901
 10
-1.6732843932069343
 20
7.9688003006309174
 10
-1.7382442047368656
 20
7.5530575068393375
 10
-1.8160227524087063
 20
7.1373147130477648
 10
-1.9066200362224563
 20
6.7215719192561849
 10
-2.1068694818987268
 20
5.8956295689235958
 10
-2.3195912113887545
 20
5.0807736930921195
 10
-2.5447852246925144
 20
4.2770042917617346
 10
-2.7824515218100352
 20
3.4843213649324696
 10
-3.1677065107235656
 20
2.2343213649324696
 10
-3.5695912113887545
 20
1.0120375511852373
 10
-3.9881056238056054
 20
-0.2047030253114315
 10
-4.4232497479741149
 20
-1.4380733135597694
 10
-4.9193694818987268
 20
-2.7850799654444742
 10
-5.4321189275750044
 20
-4.1210001428280663
 10
-5.6864149364441872
 20
-4.7903460408325031
 10
-5.9282386614996163
 20
-5.4680067947127746
 10
-6.157590102741306
 20
-6.1539824044688629
 10
-6.3744692601692456
 20
-6.8482728701007929
 10
-6.4853340051803272
 20
-7.214126528637383
 10
-6.5629393266880847
 20
-7.494060009790374
 10
-6.6183716991936343
 20
-7.7795367281939214
 10
-6.635694315601615
 20
-7.9188105641141036
 10
-6.6433162668211274
 20
-8.0483837348458032
 10
-6.6412375528521643
 20
-8.1682562403890415
 10
-6.6294581736947364
 20
-8.2784280807438115
 10
-6.6024348920982874
 20
-8.3691985907216342
 10
-6.5811280739164673
 20
-8.4036705973735231
 10
-6.5546244708122572
 20
-8.4308671051340518
 10
-6.5229240827856465
 20
-8.4507881140032346
 10
-6.4860269098366459
 20
-8.4634336239810644
 10
-6.396642209171457
 20
-8.4668981472626541
 10
-6.2206444264663574
 20
-8.4343316284156522
 10
-6.047418262386536
 20
-8.3809779698790621
 10
-5.8769637169319857
 20
-8.3068371716529015
 10
-5.7092807901027243
 20
-8.2119092337371526
 10
-5.5457552912113748
 20
-8.1010444887260746
 10
-5.3877730295705746
 20
-7.9790932692138732
 10
-5.2353340051803272
 20
-7.8460555752005732
 10
-5.0884382180406362
 20
-7.7019314066861639
 10
-4.811276355512927
 20
-7.3970533579056728
 10
-4.5562874419874255
 20
-7.0810888346240723
 10
-4.1128284619430744
 20
-6.493505686065312
 10
-3.8730834508566048
 20
-6.1380455973735231
 10
-3.6416532956459662
 20
-5.7811996993690826
 10
-3.4185379963111444
 20
-5.422967992052012
 10
-3.2037375528521643
 20
-5.063350475422304
 10
-2.7879947590605951
 20
-4.3344147769744126
 10
-2.3833384397701245
 20
-3.588849366774852
 10
-1.9842253577302174
 20
-2.8017096771961363
 10
-1.7902120539608148
 20
-2.4109114510320495
 10
-1.6072852246925251
 20
-2.0145699876174206
 10
-1.5019637169319822
 20
-1.8150134465974617
 10
-1.4077286836725662
 20
-1.6154569055775099
 10
-1.2303450916548329
 20
-1.2163438235376063
 10
-1.1194803466437335
 20
-0.8504901650010197
 10
-1.0869049976865881
 20
-0.7663576623204733
 10
-1.0451378884869058
 20
-0.6940512210856653
 10
-1.0197020761337683
 20
-0.6065877259766239
 10
-0.8887430960894278
 20
-0.2081675485930319
 10
-0.7508550694818723
 20
0.1777803449768101
 10
-0.6060379963111586
 20
0.551255954732909
 10
-0.4542918765772228
 20
0.9122592806752579
 10
-0.2921521869985142
 20
1.2476251343337879
 10
-0.1161544042934182
 20
1.5885342252428742
 10
0.0737014715380653
 20
1.9349865534025241
 10
0.2774154404959432
 20
2.2869821188127304
 10
0.4956804072365131
 20
2.6348202562850105
 10
0.7291892764161219
 20
2.9688003006309103
 10
0.9779420480347412
 20
3.2889222518504297
 10
1.2419387220923923
 20
3.5951861099435547
 10
1.5211792985890611
 20
3.8834344469723874
 10
1.8156637775247617
 20
4.1495098349989803
 10
2.1253921588994871
 20
4.3934122740233761
 10
2.4503644427132372
 20
4.6151417640455463
 10
2.6187402741988208
 20
4.7159593915400038
 10
2.7912735336223378
 20
4.8077692585023044
 10
2.9679642209837525
 20
4.8905713649324696
 10
3.1488123362830862
 20
4.9643657108304637
 10
3.3338178795203319
 20
5.0291522961963295
 10
3.5229808506954967
 20
5.0849311210300243
 10
3.7163012498085735
 20
5.1317021853315765
 10
3.9137790768595764
 20
5.169465489100979
 10
4.1219969260835256
 20
5.1944100567284792
 10
4.3253644427132372
 20
5.202724912604296
 10
4.523881626748711
 20
5.1944100567284792
 10
4.717548478189947
 20
5.1694654891009648
 10
4.9063649970369525
 20
5.1278912097218239
 10
5.0903311832897273
 20
5.0696872185909996
 10
5.2694470369482715
 20
4.9948535157085274
 10
5.4437125580125709
 20
4.9033901010743648
 10
5.6086238662165613
 20
4.7970292363293581
 10
5.7596770812941642
 20
4.6775031831142897
 10
5.8968722032453869
 20
4.5448119414291241
 10
6.0202092320702221
 20
4.3989555112739254
 10
6.129688167768677
 20
4.2399338926486436
 10
6.2253090103407374
 20
4.0677470855533073
 10
6.3070717597864174
 20
3.8823950899878952
 10
6.3749764161056959
 20
3.6838779059524143
 10
6.4137790768595764
 20
3.5064943139346738
 10
6.4414952631123512
 20
3.3291107219169476
 10
6.485841161116781
 20
2.9743435378814667
 10
6.7519165491433952
 20
3.4178025179258142
 10
6.9265285225358539
 20
3.7005076177040905
 10
7.1399431566821931
 20
4.0164721409856838
 10
7.2598156622254209
 20
4.1799976398770369
 10
7.3866172143318636
 20
4.3379799015178335
 10
7.5203478130014858
 20
4.4904189259080738
 10
7.6610074582343017
 20
4.6373147130477648
 10
7.8079032453739856
 20
4.7752027396553203
 10
7.960342269764233
 20
4.9006184824490973
 10
8.1183245314050367
 20
5.0135619414291455
 10
8.2818500302963827
 20
5.1140331165954365
 10
8.4509187664382921
 20
5.1951029613847979
 10
8.6255307398307508
 20
5.2498424292340147
 10
8.8056859504737659
 20
5.2782515201431153
 10
8.9913843983673374
 20
5.2803302341120641
 10
9.0580764715380653
 20
5.2714956997439941
 10
9.1140285225358539
 20
5.2560785711408897
 10
9.159240551360682
 20
5.2340788483027438
 10
9.1937125580125709
 20
5.2054965312295849
 10
9.2174445424915064
 20
5.1703316199213845
 10
9.2304365047974954
 20
5.1285841143781496
 10
9.2326884449305311
 20
5.0802540145998805
 10
9.2242003628906275
 20
5.0253413205865698
 10
9.1659963717597961
 20
4.8119266864402306
 10
9.1022491433784225
 20
4.6373147130477648
 10
8.8250872808507168
 20
3.9832127174823597
 10
8.6892779682121315
 20
3.6644765755754776
 10
8.5700983673252011
 20
3.3512836709191589
 10
8.2236460391655655
 20
2.4006184824490902
 10
7.8938234227575848
 20
1.4554965312295849
 10
7.5806305181012519
 20
0.4992881055089669
 10
7.2840673251966166
 20
-0.4846365064644331
 10
6.9293001411611215
 20
-1.6819757525841652
 10
6.7630030236444938
 20
-2.2861886128945912
 10
6.6188788551300917
 20
-2.9014879477061157
 10
6.4636682121145768
 20
-3.5555899432715208
 10
6.3805196533562523
 20
-3.899270652805896
 10
6.3084575690990476
 20
-4.2429513623402642
 10
6.2530251965935051
 20
-4.5866320718746323
 10
6.2197657730901739
 20
-4.9303127814089933
 10
6.2128367265269873
 20
-5.1014602315198623
 10
6.2142225358396175
 20
-5.2712218723180939
 10
6.2239232010280929
 20
-5.439597703803674
 10
6.2419387220923923
 20
-5.6065877259766239
 10
6.2622061832897344
 20
-5.6902559632271839
 10
6.2897491433784225
 20
-5.7638770829611019
 10
6.3245676023584636
 20
-5.8274510851784029
 10
6.3666615602298648
 20
-5.8809779698790621
 10
6.416031016992612
 20
-5.9244577370631042
 10
6.4726759726467122
 20
-5.9578903867305044
 10
6.5365964271921655
 20
-5.9812759188812841
 10
6.6077923806289718
 20
-5.9946143335154325
 10
6.7567668817376259
 20
-6.000850475422304
 10
6.9043555735336426
 20
-5.9862994776395944
 10
7.0505584560170078
 20
-5.9509613401673143
 10
7.1953755291877357
 20
-5.894836063005453
 10
7.3216574028019252
 20
-5.8350730363979117
 10
7.4455141101190065
 20
-5.766648701586373
 10
7.5669456511389512
 20
-5.6895630585708616
 10
7.6859520258617948
 20
-5.6038161073513528
 10
7.802533234287516
 20
-5.509407847927843
 10
7.9166892764161148
 20
-5.4063382803003428
 10
8.0284201522476053
 20
-5.2946074044688629
 10
8.1377258617819734
 20
-5.1742152204333927
 10
8.5451537996977152
 20
-4.6947251982604428
 10
8.9026926023584778
 20
-4.2540378368413698
 10
9.2907192098972615
 20
-3.7357451539145501
 10
9.6565728684338552
 20
-3.2008227592360399
 10
10.000253577968238
 20
-2.649270652805896
 10
10.321761338500387
 20
-2.0810888346240759
 10
10.665442048034741
 20
-1.4824192115642063
 10
10.890362126434525
 20
-1.09062294596459
 10
10.966686351905487
 20
-0.7409019184838854
 10
11.052922876187772
 20
-0.3922163730800605
 10
11.148544793133198
 20
-0.0444525818487733
 10
11.253025196593512
 20
0.3025031831142897
 10
11.530187059121225
 20
1.1443823405422293
 10
11.829521870651156
 20
1.9737892141564046
 10
12.151029631183313
 20
2.7907238039568583
 10
12.494710340717681
 20
3.5951861099435547
 10
12.716439830739851
 20
4.1384233604978746
 10
12.797509675529206
 20
4.3289721409856838
 10
12.885508566881761
 20
4.5125918749102993
 10
12.980436504797503
 20
4.689282562271714
 10
13.082293489276431
 20
4.8590442030699492
 10
13.187158511944595
 20
5.0086605411442591
 10
13.112644185339597
 20
5.0805070427425676
 10
13.043449055604547
 20
5.1593166717356596
 10
12.937702219533712
 20
5.2996715632478697
 10
12.846054961605631
 20
5.4438717942535604
 10
12.768507281820355
 20
5.5919173647527458
 10
12.705059180177841
 20
5.7438082747454047
 10
12.655710656678117
 20
5.8995445242315654
 10
12.620461711321177
 20
6.0591261132111995
 10
12.599312344107005
 20
6.2225530416843284
 10
12.592262555035617
 20
6.3898253096509379
 10
12.599312344107005
 20
6.5574180225753338
 10
12.620461711321177
 20
6.7218062859218293
 10
12.655710656678117
 20
6.8829900996904172
 10
12.705059180177841
 20
7.0409694638810976
 10
12.768507281820355
 20
7.1957443784938846
 10
12.846054961605631
 20
7.347314843528757
 10
12.937702219533712
 20
7.4956808589857289
 10
13.043449055604547
 20
7.6408424248648004
 10
13.162654579902586
 20
7.7754293071367897
 10
13.294677902512255
 20
7.8920712717724939
 10
13.439519023433526
 20
7.9907683187719556
 10
13.597177942666427
 20
8.0715204481351464
 10
13.767654660210937
 20
8.1343276598620804
 10
13.950949176067063
 20
8.1791899539527293
 10
14.147061490234812
 20
8.2061073304071286
 10
14.355991602714177
 20
8.2150797892252641
 10
14.564921715193542
 20
8.2061073304071286
 10
14.761034029361277
 20
8.1791899539527293
 10
14.944328545217417
 20
8.1343276598620804
 10
15.114805262761926
 20
8.0715204481351464
 10
15.272464181994827
 20
7.9907683187719556
 10
15.417305302916091
 20
7.8920712717724939
 10
15.549328625525767
 20
7.7754293071367897
 10
15.668534149823792
 20
7.6408424248648004
 10
15.774280985894642
 20
7.4956808589857289
 10
15.865928243822715
 20
7.347314843528757
 10
15.943475923607991
 20
7.1957443784938846
 10
16.006924025250505
 20
7.0409694638810976
 10
16.056272548750236
 20
6.8829900996904172
 10
16.091521494107184
 20
6.7218062859218293
 10
16.112670861321341
 20
6.5574180225753338
 10
16.119720650392743
 20
6.3898253096509379
 10
16.112670861321341
 20
6.2225530416843284
 10
16.091521494107184
 20
6.0591261132111995
 10
16.056272548750236
 20
5.8995445242315654
 10
16.006924025250505
 20
5.7438082747454047
 10
15.943475923607991
 20
5.5919173647527458
 10
15.865928243822715
 20
5.4438717942535604
 10
15.774280985894642
 20
5.2996715632478697
 10
15.668534149823792
 20
5.1593166717356596
 10
15.549328625525767
 20
5.0295364638305387
 10
15.417305302916091
 20
4.9170602836460944
 10
15.272464181994827
 20
4.8218881311823338
 10
15.114805262761926
 20
4.744020006439257
 10
14.944328545217417
 20
4.683455909416864
 10
14.761034029361277
 20
4.6401958401151546
 10
14.564921715193542
 20
4.614239798534129
 10
14.355991602714177
 20
4.60558778467378
 10
14.244592500684547
 20
4.6102009376719337
 10
14.235286837391733
 20
4.5264499680366796
 10
14.157681515883972
 20
4.1716827840011987
 10
14.091162668877324
 20
3.8612614979701547
 10
13.985841161116781
 20
3.4427470855533073
 10
13.891606127857365
 20
3.0297759103870092
 10
13.797371094597942
 20
2.616804735220704
 10
13.692049586837413
 20
2.1982903228038637
 10
12.893823422757592
 20
-1.0833061295242956
 10
12.339499697702152
 20
-3.3892928257548931
 10
12.206462003688856
 20
-3.9990489233158755
 10
12.145486393932757
 20
-4.3011553534710814
 10
12.095597258677763
 20
-4.6088050208768436
 10
12.006905462668897
 20
-5.1853016949345019
 10
11.994433178855147
 20
-5.3363549100121013
 10
12.001362225418347
 20
-5.4790932692138732
 10
12.027692602358478
 20
-5.6135167725398212
 10
12.073424309675552
 20
-5.7396254199899239
 10
12.112226970429425
 20
-5.8206952647792924
 10
12.162116105684412
 20
-5.886521207129622
 10
12.223091715440518
 20
-5.937103247040934
 10
12.295153799697722
 20
-5.972441384513214
 10
12.374837835174432
 20
-5.9946143335154325
 10
12.458679298589061
 20
-6.0057008080165346
 10
12.546678189941623
 20
-6.0057008080165346
 10
12.638834509232098
 20
-5.9946143335154325
 10
12.824532957125662
 20
-5.950268435510992
 10
13.004688167768677
 20
-5.8837495885043438
 10
13.165442048034755
 20
-5.8089158856218539
 10
13.292936504797503
 20
-5.7396254199899239
 10
13.511201471538087
 20
-5.5566985907216342
 10
13.722537391715477
 20
-5.3626852869522317
 10
13.926944265329666
 20
-5.1575855086817235
 10
14.124422092380641
 20
-4.9413992559101025
 10
14.498590606793066
 20
-4.4979402758657656
 10
14.845042934952701
 20
-4.0544812958214251
 10
15.213668212114577
 20
-3.5389602315198658
 10
15.565663777524776
 20
-3.0123526927172009
 10
15.901029631183313
 20
-2.4746586794134302
 10
16.219765773090181
 20
-1.9258781916085539
 10
16.818435396150058
 20
-0.8837495885043438
 10
16.847537391715463
 20
-0.8387107858435954
 10
16.879411005906157
 20
-0.8033726483713153
 10
16.914056238722111
 20
-0.7777351760874964
 10
16.951473090163354
 20
-0.7617983689921459
 10
16.991661560229865
 20
-0.7555622270852851
 10
17.034621648921664
 20
-0.7590267503668713
 10
17.080353356238732
 20
-0.7721919388369329
 10
17.128856682181095
 20
-0.79505779249547
 10
17.173895484841857
 20
-0.8241597880608822
 10
17.209233622314137
 20
-0.8560334022515761
 10
17.234871094597942
 20
-0.8906786350675304
 10
17.250807901693285
 20
-0.9280954865087736
 10
17.257044043600168
 20
-0.9682839565752914
 10
17.253579520318567
 20
-1.011244045267091
 10
17.240414331848491
 20
-1.0569757525841652
 10
17.217548478189961
 20
-1.1054790785265141
 10
16.832293489276431
 20
-1.8177850652227505
 10
16.430408788611246
 20
-2.5356342891695363
 10
16.220458677746507
 20
-2.8931730918302847
 10
16.000807901693285
 20
-3.2451686572404839
 10
15.771456460451596
 20
-3.5916209854001195
 10
15.532404354021445
 20
-3.9325300763092201
 10
15.284344487059144
 20
-4.2651243113424755
 10
15.027969764221005
 20
-4.5866320718746323
 10
14.763280185507035
 20
-4.8970533579056728
 10
14.490275750917235
 20
-5.196388169435604
 10
14.204799032513691
 20
-5.4811719831828327
 10
13.902692602358478
 20
-5.7479402758657621
 10
13.583956460451617
 20
-5.9966930474843814
 10
13.248590606793066
 20
-6.227430298038712
 10
12.976971981515902
 20
-6.3909557969300614
 10
12.694266881737633
 20
-6.5267651095686432
 10
12.550835617879535
 20
-6.580811672761552
 10
12.408790163334082
 20
-6.6210001428280627
 10
12.268130518101266
 20
-6.6473305197682038
 10
12.128856682181095
 20
-6.6598028035819432
 10
11.991661560229872
 20
-6.6563382803003535
 10
11.857238056903931
 20
-6.6348582359544537
 10
11.725586172203272
 20
-6.5953626705442545
 10
11.596705906127887
 20
-6.5378515840697524
 10
11.471290163334082
 20
-6.4602462625619914
 10
11.350031848478217
 20
-6.360467992052012
 10
11.232930961560257
 20
-6.2385167725398141
 10
11.119987502580202
 20
-6.0943926040254013
 10
11.015012447147832
 20
-5.9362371162205214
 10
10.921816770872887
 20
-5.7721919388369329
 10
10.840400473755373
 20
-5.6022570718746323
 10
10.770763555795284
 20
-5.4264325153336124
 10
10.712906016992626
 20
-5.2447182692138732
 10
10.666827857347393
 20
-5.0571143335154325
 10
10.632529076859583
 20
-4.8636207082382619
 10
10.610009675529206
 20
-4.6642373933823933
 10
10.583679298589075
 20
-4.2644314066861497
 10
10.571207014775332
 20
-3.8743260851784029
 10
10.572592824087977
 20
-3.4939214288591103
 10
10.587836726526987
 20
-3.123217437728286
 10
10.656829641973026
 20
-2.4724888034077495
 10
10.621096150030311
 20
-2.5356342891695363
 10
10.411146039165573
 20
-2.8931730918302847
 10
10.191495263112351
 20
-3.2451686572404839
 10
9.9621438218706615
 20
-3.5916209854001195
 10
9.7230917154405176
 20
-3.9325300763092201
 10
9.4750318484782028
 20
-4.2651243113424755
 10
9.2186571256400711
 20
-4.5866320718746323
 10
8.9539675469261013
 20
-4.8970533579056728
 10
8.6809631123362934
 20
-5.196388169435604
 10
8.3954863939327566
 20
-5.4811719831828327
 10
8.0933799637775365
 20
-5.7479402758657621
 10
7.7746438218706615
 20
-5.9966930474843814
 10
7.4392779682121315
 20
-6.227430298038712
 10
7.1898322919371864
 20
-6.3909557969300614
 10
6.9293001411611215
 20
-6.5267651095686432
 10
6.7969553518041508
 20
-6.5815045774178635
 10
6.6659963717597961
 20
-6.6237717614533445
 10
6.5364232010280929
 20
-6.6535666616750717
 10
6.4082358396090271
 20
-6.6708892780830524
 10
6.2814342875025915
 20
-6.6743538013646528
 10
6.1560185447088074
 20
-6.6625744222072214
 10
6.0319886112276464
 20
-6.6355511406107723
 10
5.909344487059137
 20
-6.5932839565752914
 10
5.7887790768595835
 20
-6.5316154421628738
 10
5.6709852852853047
 20
-6.446388169435604
 10
5.5559631123363076
 20
-6.337602138393482
 10
5.4437125580125709
 20
-6.2052573490364935
 10
5.327997480407241
 20
-6.0555899432715243
 10
5.2247546866156753
 20
-5.894836063005453
 10
5.1339841766378456
 20
-5.7229957082382725
 10
5.0556859504737659
 20
-5.5400688789699721
 10
4.9884741988107919
 20
-5.3495200984821629
 10
4.9309631123362934
 20
-5.1548138900564524
 10
4.8831526910502632
 20
-4.9559502536928122
 10
4.8450429349527013
 20
-4.7529291893912635
 10
4.7923821810724334
 20
-4.3427296328502294
 10
4.7674376134449474
 20
-3.9325300763092201
 10
4.7646659948196728
 20
-3.5306453756440206
 10
4.7785240879460531
 20
-3.1453903867305044
 10
4.7896105624471517
 20
-2.8460555752005732
 10
4.8228699859504971
 20
-2.5245478146684235
 10
4.512448699919446
 20
-3.0040378368413698
 10
4.202027413888402
 20
-3.4668981472626541
 10
3.8860628906068015
 20
-3.9186719831828327
 10
3.5590118928241026
 20
-4.3649025818524549
 10
3.3684631123363076
 20
-4.6018759743136535
 10
3.1515839549083537
 20
-4.847164222650683
 10
2.9083744205402837
 20
-5.1007673268635436
 10
2.6388345092320833
 20
-5.3626852869522317
 10
2.351971981515895
 20
-5.6135167725398141
 10
2.0567945979238829
 20
-5.8338604532493541
 10
1.9060878351744321
 20
-5.932599366774852
 10
1.7533023584560326
 20
-6.023716329080834
 10
1.598438167768677
 20
-6.1072113401673143
 10
1.4414952631123512
 20
-6.1830844000342715
 10
1.2838594537997139
 20
-6.2490835685486843
 10
1.1269165491433952
 20
-6.3029569055775134
 10
0.9706665491433952
 20
-6.3447044111207518
 10
0.8151094537997139
 20
-6.3743260851783923
 10
0.6602452631123512
 20
-6.3918219277504633
 10
0.5060739770813072
 20
-6.3971919388369329
 10
0.3525955957065818
 20
-6.3904361184378224
 10
0.1998101189881822
 20
-6.3715544665531212
 10
0.0496230347309776
 20
-6.3356966505886021
 10
-0.0960601692601628
 20
-6.2780123379500132
 10
-0.2372394929852177
 20
-6.198501528637383
 10
-0.3739149364441943
 20
-6.097164222650683
 10
-0.5060864996370924
 20
-5.9740004199899239
 10
-0.6337541825639264
 20
-5.8290101206551128
 10
-0.756917985224689
 20
-5.6621933246462426
 10
-0.8755779076193591
 20
-5.4735500319633239
 10
-0.9758758566215775
 20
-5.2944341783047832
 10
-1.0661266881071683
 20
-5.1118538013646528
 10
-1.1463304020761242
 20
-4.925808901142922
 10
-1.2164869985284525
 20
-4.7362994776395944
 10
-1.2765964774641461
 20
-4.5433255308546734
 10
-1.326658838883219
 20
-4.3468870607881556
 10
-1.3666740827856572
 20
-4.1469840674400302
 10
-1.3966422091714676
 20
-3.9436165508103258
 10
-1.4265378966527322
 20
-3.6363412877899606
 10
-1.4417518670859053
 20
-3.3267519252090523
 10
-1.4422661141948083
 20
-3.0148496862605327
 10
-1.4280626317032485
 20
-2.7006357941373054
 10
-1.5185934286836584
 20
-2.8793149987038902
 10
-1.9038484175971746
 20
-3.6137939344023451
 10
-2.305733118262367
 20
-4.3538161073513564
 10
-2.7242475306792144
 20
-5.0882950430497935
 10
-3.1593916548477345
 20
-5.8061442669965828
 10
-3.608393872142635
 20
-6.4685611184378224
 10
-4.0684825639386446
 20
-7.1254347326285128
 10
-4.3082275750251142
 20
-7.4476353978169847
 10
-4.5618306792379748
 20
-7.7601353978169847
 10
-4.8292918765772264
 20
-8.0629347326285128
 10
-5.1106111670428547
 20
-8.3560334022515725
 10
-5.3323406570650249
 20
-8.5583615618968025
 10
-5.5984160450916356
 20
-8.7662329587925925
 10
-5.7446189275750044
 20
-8.8653183246462426
 10
-5.8949792379962958
 20
-8.9519314066861533
 10
-6.0494969763554955
 20
-9.0260722049123245
 10
-6.2081721426526144
 20
-9.0877407193247421
 10
-6.3668473089497262
 20
-9.1327795219854941
 10
-6.521365047308926
 20
-9.1570311849566615
 10
-6.6717253577302174
 20
-9.1604957082382619
 10
-6.8179282402135861
 20
-9.1431730918302847
 10
-6.8882580628299941
 20
-9.1242914399455834
 10
-6.9551233621648052
 20
-9.0953626705442545
 10
-7.0185241382180266
 20
-9.0563867836262943
 10
-7.0784603909896369
 20
-9.0073637791917029
 10
-7.1349321204796645
 20
-8.9482936572404839
 10
-7.1879393266880953
 20
-8.8791764177726336
 10
-7.2374820096149257
 20
-8.800012060788152
 10
-7.2835601692601557
 20
-8.7108005862870428
 10
-7.3618583954242354
 20
-8.5521254199899239
 10
-7.4193694818987339
 20
-8.386521207129622
 10
-7.4560934286836549
 20
-8.2139879477061122
 10
-7.4720302357789947
 20
-8.0345256417194229
 10
-7.4831167102801039
 20
-7.3360777481495738
 10
-7.4554005240273362
 20
-6.8981620053557826
 10
-7.4165978632734557
 20
-6.4713327370631042
 10
-7.366708728018466
 20
-6.0500467060209715
 10
-7.305733118262367
 20
-5.6287606749788424
 10
-7.1588373311226761
 20
-4.7640156638923621
 10
-6.9842253577302174
 20
-3.899270652805896
 10
-6.7818971980849874
 20
-3.0400688789699757
 10
-6.5518528521869754
 20
-2.191953579635161
 10
-6.185999193650396
 20
-0.8546475929389246
 10
-5.7979725861115945
 20
0.4743435378814738
 10
-5.3877730295705746
 20
1.795019812826034
 10
-4.9554005240273362
 20
3.1073812318947702
 10
-4.516098971920897
 20
4.4183568416508692
 10
-4.0851122756903067
 20
5.7348756886575174
 10
-3.6624404353355366
 20
7.0569377729147291
 10
-3.2480834508566048
 20
8.3845430944224901
 10
-3.1192031847812167
 20
8.7781129392118444
 10
-2.9986377745816561
 20
9.1827692585023044
 10
-2.8863872202579266
 20
9.5985120522938843
 10
-2.7824515218100352
 20
10.02534132058657
 10
-2.638327353295626
 20
10.768135112160849
 10
-2.6229102246925251
 20
10.87432275074179
 10
-2.615461499637096
 20
10.97669941371295
 10
-2.6159811781293349
 20
11.075265101074365
 10
-2.6244692601692456
 20
11.170019812826027
 10
-2.6409257457568245
 20
11.260963548967936
 10
-2.6653506348920857
 20
11.3480963095001
 10
-2.6977439275750044
 20
11.43141809442249
 10
-2.7381056238056054
 20
11.51092890373512
 10
-2.7623572867767763
 20
11.551637052293884
 10
-2.7907663776858662
 20
11.585069701961288
 10
-2.8233328965328752
 20
11.611226852737339
 10
-2.8600568433177962
 20
11.630108504622044
 10
-2.9009382180406362
 20
11.641714657615395
 10
-2.9459770207013953
 20
11.646045311717387
 10
-3.0485269098366459
 20
11.632880123247318
 10
-3.2425402136060448
 20
11.580219369367057
 10
-3.3811211448699048
 20
11.533101852737346
 10
-3.5654337834508354
 20
11.448567484666384
 10
-3.741431566155935
 20
11.350175023469049
 10
-3.9091144929852071
 20
11.237924469145327
 10
-4.0684825639386446
 20
11.111815821695217
 10
-4.2209215883288849
 20
10.976006509056624
 10
-4.3678173754685758
 20
10.834653959167497
 10
-4.5091699253577069
 20
10.68775817202782
 10
-4.6449792379962958
 20
10.535319147637566
 10
-4.9249127191492867
 20
10.208961054511178
 10
-5.1882164885506157
 20
9.8729022961963295
 10
-5.4348905462002861
 20
9.5271428726929983
 10
-5.6649348920982874
 20
9.1716827840011987
 10
-6.1028506348920857
 20
8.4482903228038637
 10
-6.5296799031847641
 20
7.7193546243559794
 10
-6.9675956459785553
 20
6.9433014092783694
 10
-7.3944249142712373
 20
6.1672481942007593
 10
-7.8101677080628065
 20
5.3856517418726
 10
-8.2148240273532771
 20
4.592968815043335
 10
-8.7830058455350972
 20
3.437203848302758
 10
-9.3345579519652553
 20
2.2758956443116247
 10
-9.8694803466437442
 20
1.1035009658193999
 10
-10.387773029570575
 20
-0.0855234244245224
 10
-10.908837331122676
 20
-1.6819757525841652
 10
-11.452074581677007
 20
-3.2784280807438151
 10
-11.743094537331107
 20
-4.1154569055775099
 10
-12.039657730235756
 20
-4.9413992559101025
 10
-12.352850634892075
 20
-5.7617983689921424
 10
-12.693759725801176
 20
-6.5821974820741822
 10
-13.004181011832216
 20
-7.3249912736484646
 10
-13.164934892098287
 20
-7.6936165508103223
 10
-13.336775246865475
 20
-8.0677850652227434
 10
-13.508615601632656
 20
-8.4142373933823933
 10
-13.669369481898727
 20
-8.7884059077948038
 10
-13.752518040657044
 20
-8.9761830696573419
 10
-13.846753073916474
 20
-9.1514879477061122
 10
-13.952074581677007
 20
-9.3143205419411537
 10
-14.068482563938645
 20
-9.4646808523624344
 10
-14.126686555069465
 20
-9.5242706528058925
 10
-14.190433783450835
 20
-9.5700023601229738
 10
-14.259724249082765
 20
-9.6018759743136535
 10
-14.334557951965255
 20
-9.6198914953779529
 10
-14.411470368816694
 20
-9.6261276372848315
 10
-14.486996976355496
 20
-9.6226631140032346
 10
-14.561137774581656
 20
-9.6094979255331729
 10
-14.633892763495187
 20
-9.5866320718746323
 10
-14.703183229127117
 20
-9.5554513623402642
 10
-14.766930457508487
 20
-9.5173416062427023
 10
-14.825134448639307
 20
-9.4723028035819432
 10
-14.877795202519575
 20
-9.4203349543580046
 10
-14.921448195867697
 20
-9.360745153914543
 10
-14.952628905402054
 20
-9.2928404975952539
 10
-14.971337331122676
 20
-9.2166209854001337
 10
-14.977573473029555
 20
-9.1320866173291719
 10
-14.969258617153717
 20
-8.9290655530276233
 10
-14.944314049526227
 20
-8.7191154421628738
 10
-14.902739770147075
 20
-8.5022362847349413
 10
-14.844535779016244
 20
-8.2784280807438115
 10
-14.600633339991855
 20
-7.4469424931606625
 10
-14.417706510723566
 20
-6.7401797437149824
 10
-14.223693206954167
 20
-6.0389602315198623
 10
-14.018593428683655
 20
-5.3377407193247421
 10
-13.802407175912034
 20
-4.6309779698790621
 10
-13.345090102741306
 20
-3.1675633357327229
 10
-12.904402741322237
 20
-1.7041487015863837
 10
-12.028571255734654
 20
1.2448535157085203
 10
-11.374469260169246
 20
3.4510619414291384
 10
-11.061276355512916
 20
4.5569377729147149
 10
-10.764713162608267
 20
5.6794433161519748
 10
-10.166043539548397
 20
8.0076029613847837
 10
-9.8001898810118142
 20
9.6040552895444335
 10
-9.7587888277967352
 20
9.8136589480810201
 10
-9.7288207014109247
 20
10.021183892648644
 10
-9.7102855018543863
 20
10.226630123247325
 10
-9.7031832291271165
 20
10.429997639877037
 10
-9.7075138832291046
 20
10.631286442537785
 10
-9.7232774641603648
 20
10.830496531229585
 10
-9.750473971920897
 20
11.027627905952428
 10
-9.789103406510705
 20
11.222680566706295
 10
-9.8142212003022742
 20
11.332852407061068
 10
-9.8452286836725662
 20
11.430551963602085
 10
-9.8821258566215668
 20
11.515779236329365
 10
-9.9249127191492867
 20
11.588534225242888
 10
-9.9735892712557153
 20
11.648816930342655
 10
-10.028155512940856
 20
11.696627351628685
 10
-10.088611444204716
 20
11.731965489100979
 10
-10.154957065047295
 20
11.754831342759516
 10
-10.297002519592745
 20
11.775618482449104
 10
-10.445977020701395
 20
11.771461054511178
 10
-10.601880568373236
 20
11.74235905894578
 10
-10.764713162608267
 20
11.688312495752868
 10
-10.929624470812257
 20
11.6141716975267
 10
-11.091764160390976
 20
11.524786996861508
 10
-11.251132231344407
 20
11.420158393757305
 10
-11.407728683672566
 20
11.30028588821407
 10
-11.684890546200286
 20
11.064698305065505
 10
-11.895533561721347
 20
10.867913382670814
 10
-12.154679903184764
 20
10.595601852737346
 10
-12.399968151521787
 20
10.310818038990114
 10
-12.631398306732436
 20
10.013561941429145
 10
-12.848970368816687
 20
9.7038335600544201
 10
-13.259169925357707
 20
9.0691328948659446
 10
-13.647196532896515
 20
8.4288889924269199
 10
-14.071947087220245
 20
7.6833235822273735
 10
-14.481453739104946
 20
6.9322149347772637
 10
-14.875716488550616
 20
6.1755630500765903
 10
-15.254735335557264
 20
5.4133679281253677
 10
-15.989214271255715
 20
3.8723479724712746
 10
-16.707063495202505
 20
2.3091550678149488
 10
-17.363937109393184
 20
0.7570486376597359
 10
-18.004181011832216
 20
-0.79505779249547
 10
-18.622251965269015
 20
-2.3527074599012394
 10
-19.212606732453054
 20
-3.9214436018081003
 10
-19.492540213606045
 20
-4.6476076816307312
 10
-19.755843983007374
 20
-5.3626852869522317
 10
-20.276908284559486
 20
-6.7817540230941447
 10
-20.698194315601615
 20
-8.4890710962648726
 10
-20.831232009614915
 20
-8.9768759743136535
 10
-20.872113384337755
 20
-9.0898194332937017
 10
-20.928238661499616
 20
-9.1847473712094434
 10
-20.999607841100506
 20
-9.2616597880608822
 10
-21.086220923140417
 20
-9.3205566838480216
 10
-21.180455956399836
 20
-9.3621309632271839
 10
-21.274690989659266
 20
-9.3870755308546734
 10
-21.368926022918686
 20
-9.3953903867305044
 10
-21.463161056178105
 20
-9.3870755308546734
 10
-21.553931566155935
 20
-9.3628238678835025
 10
-21.637773029570575
 20
-9.3233283024733034
 10
-21.714685446422017
 20
-9.2685888346240723
 10
-21.784668816710255
 20
-9.1986054643358237
 10
-21.838715379903164
 20
-9.1140710962648832
 10
-21.867817375468576
 20
-9.015678635067534
 10
-21.871974803406495
 20
-8.9034280807438115
 10
-21.851187663716914
 20
-8.7773194332937017
 10
-19.833449304515135
 20
0.4909732496331287
 10
-17.305733118262367
 20
11.954387883779475
 10
-17.253072364382106
 20
12.173345755176364
 10
-17.183781898750176
 20
12.38676038932271
 10
-17.141514714714695
 20
12.489310278457964
 10
-17.092318484116024
 20
12.586316930342655
 10
-17.036193206954167
 20
12.67778034497681
 10
-16.973138883229105
 20
12.763700522360409
 10
-16.903155512940867
 20
12.841998748524489
 10
-16.826243096089424
 20
12.9105963095001
 10
-16.742401632674785
 20
12.969493205287236
  0
ENDSEC
  0
SECTION
  2
OBJECTS
  0
DICTIONARY
  5
C
100
AcDbDictionary
280
0
281
1
  3
ACAD_GROUP
350
D
  3
ACAD_LAYOUT
350
1A
  3
ACAD_MLINESTYLE
350
17
  3
ACAD_PLOTSETTINGS
350
19
  3
ACAD_PLOTSTYLENAME
350
E
  3
AcDbVariableDictionary
350
46
  0
DICTIONARY
  5
D
100
AcDbDictionary
280
0
281
1
  0
ACDBDICTIONARYWDFLT
  5
E
100
AcDbDictionary
281
1
  3
Normal
350
F
100
AcDbDictionaryWithDefault
340
F
  0
ACDBPLACEHOLDER
  5
F
  0
DICTIONARY
  5
17
100
AcDbDictionary
280
0
281
1
  3
Standard
350
18
  0
MLINESTYLE
  5
18
100
AcDbMlineStyle
  2
STANDARD
 70
0
  3

 62
256
 51
90.0
 52
90.0
 71
2
 49
0.5
 62
256
  6
BYLAYER
 49
-0.5
 62
256
  6
BYLAYER
  0
DICTIONARY
  5
19
100
AcDbDictionary
280
0
281
1
  0
DICTIONARY
  5
1A
100
AcDbDictionary
281
1
  3
Layout1
350
1E
  3
Layout2
350
26
  3
Model
350
22
  0
LAYOUT
  5
1E
100
AcDbPlotSettings
  1

  2
C:\Program Files\AutoCAD 2002\plotters\DWF ePlot (optimized for plotting).pc3
  4

  6

 40
0.0
 41
0.0
 42
0.0
 43
0.0
 44
0.0
 45
0.0
 46
0.0
 47
0.0
 48
0.0
 49
0.0
140
0.0
141
0.0
142
1.0
143
1.0
 70
688
 72
0
 73
0
 74
5
  7

 75
16
147
1.0
148
0.0
149
0.0
100
AcDbLayout
  1
Layout1
 70
1
 71
1
 10
0.0
 20
0.0
 11
420.0
 21
297.0
 12
0.0
 22
0.0
 32
0.0
 14
100000000000000000000.0
 24
100000000000000000000.0
 34
100000000000000000000.0
 15
-100000000000000000000.0
 25
-100000000000000000000.0
 35
-100000000000000000000.0
146
0.0
 13
0.0
 23
0.0
 33
0.0
 16
1.0
 26
0.0
 36
0.0
 17
0.0
 27
1.0
 37
0.0
 76
0
330
1B
  0
LAYOUT
  5
22
100
AcDbPlotSettings
  1

  2
C:\Program Files\AutoCAD 2002\plotters\DWF ePlot (optimized for plotting).pc3
  4

  6

 40
0.0
 41
0.0
 42
0.0
 43
0.0
 44
0.0
 45
0.0
 46
0.0
 47
0.0
 48
0.0
 49
0.0
140
0.0
141
0.0
142
1.0
143
1.0
 70
1712
 72
0
 73
0
 74
0
  7

 75
0
147
1.0
148
0.0
149
0.0
100
AcDbLayout
  1
Model
 70
1
 71
0
 10
0.0
 20
0.0
 11
12.0
 21
9.0
 12
0.0
 22
0.0
 32
0.0
 14
0.0
 24
0.0
 34
0.0
 15
0.0
 25
0.0
 35
0.0
146
0.0
 13
0.0
 23
0.0
 33
0.0
 16
1.0
 26
0.0
 36
0.0
 17
0.0
 27
1.0
 37
0.0
 76
0
330
1F
  0
LAYOUT
  5
26
100
AcDbPlotSettings
  1

  2
C:\Program Files\AutoCAD 2002\plotters\DWF ePlot (optimized for plotting).pc3
  4

  6

 40
0.0
 41
0.0
 42
0.0
 43
0.0
 44
0.0
 45
0.0
 46
0.0
 47
0.0
 48
0.0
 49
0.0
140
0.0
141
0.0
142
1.0
143
1.0
 70
688
 72
0
 73
0
 74
5
  7

 75
16
147
1.0
148
0.0
149
0.0
100
AcDbLayout
  1
Layout2
 70
1
 71
2
 10
0.0
 20
0.0
 11
12.0
 21
9.0
 12
0.0
 22
0.0
 32
0.0
 14
0.0
 24
0.0
 34
0.0
 15
0.0
 25
0.0
 35
0.0
146
0.0
 13
0.0
 23
0.0
 33
0.0
 16
1.0
 26
0.0
 36
0.0
 17
0.0
 27
1.0
 37
0.0
 76
0
330
23
  0
DICTIONARY
  5
46
100
AcDbDictionary
281
1
  3
DIMASSOC
350
48
  3
HIDETEXT
350
47
  0
DICTIONARYVAR
  5
47
100
DictionaryVariables
280
0
  1
2
  0
DICTIONARYVAR
  5
48
100
DictionaryVariables
280
0
  1
1
  0
ENDSEC
  0
EOF
