  0
SECTION
  2
HEADER
  9
$ACADVER
  1
AC1009
  9
$EXTMIN
 10
0.0
 20
0.0
 30
0.0
  9
$EXTMAX
 10
1000.0
 20
1000.0
 30
0.0
  9
$FILLMODE
 70
 0
  9
$SPLFRAME
 70
 1
  0
ENDSEC
  0
SECTION
  2
TABLES
  0
TABLE
  2
LAYER
 70
1
  0
LAYER
  2
0
 70
     0
 62
     7
  6
CONTINUOUS
  0
ENDTAB
  0
ENDSEC
  0
SECTION
  2
ENTITIES
  0
LINE
  8
0
 62
     0
 10
0.228896
 20
0.0711262
 30
0.0
 11
0.220432
 21
0.0929363
 31
0.0
  0
LINE
  8
0
 62
     0
 10
0.220432
 20
0.0929363
 30
0.0
 11
0.198676
 21
0.101346
 31
0.0
  0
LINE
  8
0
 62
     0
 10
0.198676
 20
0.101346
 30
0.0
 11
0.186686
 21
0.101346
 31
0.0
  0
LINE
  8
0
 62
     0
 10
0.186686
 20
0.101346
 30
0.0
 11
0.186686
 21
0.207086
 31
0.0
  0
LINE
  8
0
 62
     0
 10
0.186686
 20
0.207086
 30
0.0
 11
0.198676
 21
0.207086
 31
0.0
  0
LINE
  8
0
 62
     0
 10
0.198676
 20
0.207086
 30
0.0
 11
0.220432
 21
0.215332
 31
0.0
  0
LINE
  8
0
 62
     0
 10
0.220432
 20
0.215332
 30
0.0
 11
0.228896
 21
0.236871
 31
0.0
  0
LINE
  8
0
 62
     0
 10
0.228896
 20
0.236871
 30
0.0
 11
0.220432
 21
0.258681
 31
0.0
  0
LINE
  8
0
 62
     0
 10
0.220432
 20
0.258681
 30
0.0
 11
0.198676
 21
0.26709
 31
0.0
  0
LINE
  8
0
 62
     0
 10
0.198676
 20
0.26709
 30
0.0
 11
0.186686
 21
0.26709
 31
0.0
  0
LINE
  8
0
 62
     0
 10
0.186686
 20
0.26709
 30
0.0
 11
0.186686
 21
0.278211
 31
0.0
  0
LINE
  8
0
 62
     0
 10
0.186686
 20
0.278211
 30
0.0
 11
0.178168
 21
0.300185
 31
0.0
  0
LINE
  8
0
 62
     0
 10
0.178168
 20
0.300185
 30
0.0
 11
0.155979
 21
0.308431
 31
0.0
  0
LINE
  8
0
 62
     0
 10
0.155979
 20
0.308431
 30
0.0
 11
0.13444
 21
0.300022
 31
0.0
  0
LINE
  8
0
 62
     0
 10
0.13444
 20
0.300022
 30
0.0
 11
0.126248
 21
0.278211
 31
0.0
  0
LINE
  8
0
 62
     0
 10
0.126248
 20
0.278211
 30
0.0
 11
0.126248
 21
0.26709
 31
0.0
  0
LINE
  8
0
 62
     0
 10
0.126248
 20
0.26709
 30
0.0
 11
0.102648
 21
0.26709
 31
0.0
  0
LINE
  8
0
 62
     0
 10
0.102648
 20
0.26709
 30
0.0
 11
0.102648
 21
0.278211
 31
0.0
  0
LINE
  8
0
 62
     0
 10
0.102648
 20
0.278211
 30
0.0
 11
0.0941297
 21
0.300185
 31
0.0
  0
LINE
  8
0
 62
     0
 10
0.0941297
 20
0.300185
 30
0.0
 11
0.0719943
 21
0.308431
 31
0.0
  0
LINE
  8
0
 62
     0
 10
0.0719943
 20
0.308431
 30
0.0
 11
0.0504015
 21
0.300022
 31
0.0
  0
LINE
  8
0
 62
     0
 10
0.0504015
 20
0.300022
 30
0.0
 11
0.0422092
 21
0.278211
 31
0.0
  0
LINE
  8
0
 62
     0
 10
0.0422092
 20
0.278211
 30
0.0
 11
0.0422092
 21
0.26709
 31
0.0
  0
LINE
  8
0
 62
     0
 10
0.0422092
 20
0.26709
 30
0.0
 11
0.0302192
 21
0.26709
 31
0.0
  0
LINE
  8
0
 62
     0
 10
0.0302192
 20
0.26709
 30
0.0
 11
0.00824653
 21
0.258843
 31
0.0
  0
LINE
  8
0
 62
     0
 10
0.00824653
 20
0.258843
 30
0.0
 11
0
 21
0.236871
 31
0.0
  0
LINE
  8
0
 62
     0
 10
0
 20
0.236871
 30
0.0
 11
0.00824653
 21
0.215332
 31
0.0
  0
LINE
  8
0
 62
     0
 10
0.00824653
 20
0.215332
 30
0.0
 11
0.0302192
 21
0.207086
 31
0.0
  0
LINE
  8
0
 62
     0
 10
0.0302192
 20
0.207086
 30
0.0
 11
0.0422092
 21
0.207086
 31
0.0
  0
LINE
  8
0
 62
     0
 10
0.0422092
 20
0.207086
 30
0.0
 11
0.0422092
 21
0.101346
 31
0.0
  0
LINE
  8
0
 62
     0
 10
0.0422092
 20
0.101346
 30
0.0
 11
0.0302192
 21
0.101346
 31
0.0
  0
LINE
  8
0
 62
     0
 10
0.0302192
 20
0.101346
 30
0.0
 11
0.00824653
 21
0.0929363
 31
0.0
  0
LINE
  8
0
 62
     0
 10
0.00824653
 20
0.0929363
 30
0.0
 11
0
 21
0.0711262
 31
0.0
  0
LINE
  8
0
 62
     0
 10
0
 20
0.0711262
 30
0.0
 11
0.00840929
 21
0.0495876
 31
0.0
  0
LINE
  8
0
 62
     0
 10
0.00840929
 20
0.0495876
 30
0.0
 11
0.0302192
 21
0.0413411
 31
0.0
  0
LINE
  8
0
 62
     0
 10
0.0302192
 20
0.0413411
 30
0.0
 11
0.0422092
 21
0.0413411
 31
0.0
  0
LINE
  8
0
 62
     0
 10
0.0422092
 20
0.0413411
 30
0.0
 11
0.0422092
 21
0.0297851
 31
0.0
  0
LINE
  8
0
 62
     0
 10
0.0422092
 20
0.0297851
 30
0.0
 11
0.0504015
 21
0.00824653
 31
0.0
  0
LINE
  8
0
 62
     0
 10
0.0504015
 20
0.00824653
 30
0.0
 11
0.0719943
 21
-0
 31
0.0
  0
LINE
  8
0
 62
     0
 10
0.0719943
 20
-0
 30
0.0
 11
0.0941297
 21
0.00808376
 31
0.0
  0
LINE
  8
0
 62
     0
 10
0.0941297
 20
0.00808376
 30
0.0
 11
0.102648
 21
0.0297851
 31
0.0
  0
LINE
  8
0
 62
     0
 10
0.102648
 20
0.0297851
 30
0.0
 11
0.102648
 21
0.0413411
 31
0.0
  0
LINE
  8
0
 62
     0
 10
0.102648
 20
0.0413411
 30
0.0
 11
0.126248
 21
0.0413411
 31
0.0
  0
LINE
  8
0
 62
     0
 10
0.126248
 20
0.0413411
 30
0.0
 11
0.126248
 21
0.0297851
 31
0.0
  0
LINE
  8
0
 62
     0
 10
0.126248
 20
0.0297851
 30
0.0
 11
0.13444
 21
0.00824653
 31
0.0
  0
LINE
  8
0
 62
     0
 10
0.13444
 20
0.00824653
 30
0.0
 11
0.155979
 21
-0
 31
0.0
  0
LINE
  8
0
 62
     0
 10
0.155979
 20
-0
 30
0.0
 11
0.178168
 21
0.00808376
 31
0.0
  0
LINE
  8
0
 62
     0
 10
0.178168
 20
0.00808376
 30
0.0
 11
0.186686
 21
0.0297851
 31
0.0
  0
LINE
  8
0
 62
     0
 10
0.186686
 20
0.0297851
 30
0.0
 11
0.186686
 21
0.0413411
 31
0.0
  0
LINE
  8
0
 62
     0
 10
0.186686
 20
0.0413411
 30
0.0
 11
0.198676
 21
0.0413411
 31
0.0
  0
LINE
  8
0
 62
     0
 10
0.198676
 20
0.0413411
 30
0.0
 11
0.220432
 21
0.0495876
 31
0.0
  0
LINE
  8
0
 62
     0
 10
0.220432
 20
0.0495876
 30
0.0
 11
0.228896
 21
0.0711262
 31
0.0
  0
LINE
  8
0
 62
     0
 10
0.100423
 20
0.0991211
 30
0.0
 11
0.100423
 21
0.20931
 31
0.0
  0
LINE
  8
0
 62
     0
 10
0.100423
 20
0.20931
 30
0.0
 11
0.128418
 21
0.20931
 31
0.0
  0
LINE
  8
0
 62
     0
 10
0.128418
 20
0.20931
 30
0.0
 11
0.128418
 21
0.0991211
 31
0.0
  0
LINE
  8
0
 62
     0
 10
0.128418
 20
0.0991211
 30
0.0
 11
0.100423
 21
0.0991211
 31
0.0
  0
ENDSEC
  0
EOF
