  0
SECTION
  2
HEADER
  9
$ACADVER
  1
AC1009
  9
$EXTMIN
 10
0.0
 20
0.0
 30
0.0
  9
$EXTMAX
 10
1000.0
 20
1000.0
 30
0.0
  9
$FILLMODE
 70
 0
  9
$SPLFRAME
 70
 1
  0
ENDSEC
  0
SECTION
  2
TABLES
  0
TABLE
  2
LAYER
 70
1
  0
LAYER
  2
0
 70
     0
 62
     7
  6
CONTINUOUS
  0
ENDTAB
  0
ENDSEC
  0
SECTION
  2
ENTITIES
  0
LINE
  8
0
 62
     0
 10
0.228896
 20
0.114692
 30
0.0
 11
0.224935
 21
0.137641
 31
0.0
  0
LINE
  8
0
 62
     0
 10
0.224935
 20
0.137641
 30
0.0
 11
0.213325
 21
0.154243
 31
0.0
  0
LINE
  8
0
 62
     0
 10
0.213325
 20
0.154243
 30
0.0
 11
0.228896
 21
0.189779
 31
0.0
  0
LINE
  8
0
 62
     0
 10
0.228896
 20
0.189779
 30
0.0
 11
0.228896
 21
0.241319
 31
0.0
  0
LINE
  8
0
 62
     0
 10
0.228896
 20
0.241319
 30
0.0
 11
0.22385
 21
0.267469
 31
0.0
  0
LINE
  8
0
 62
     0
 10
0.22385
 20
0.267469
 30
0.0
 11
0.208876
 21
0.2889
 31
0.0
  0
LINE
  8
0
 62
     0
 10
0.208876
 20
0.2889
 30
0.0
 11
0.186794
 21
0.303494
 31
0.0
  0
LINE
  8
0
 62
     0
 10
0.186794
 20
0.303494
 30
0.0
 11
0.160428
 21
0.308431
 31
0.0
  0
LINE
  8
0
 62
     0
 10
0.160428
 20
0.308431
 30
0.0
 11
0.0302192
 21
0.308431
 31
0.0
  0
LINE
  8
0
 62
     0
 10
0.0302192
 20
0.308431
 30
0.0
 11
0.00824653
 21
0.300401
 31
0.0
  0
LINE
  8
0
 62
     0
 10
0.00824653
 20
0.300401
 30
0.0
 11
0
 21
0.278646
 31
0.0
  0
LINE
  8
0
 62
     0
 10
0
 20
0.278646
 30
0.0
 11
0.00824653
 21
0.257107
 31
0.0
  0
LINE
  8
0
 62
     0
 10
0.00824653
 20
0.257107
 30
0.0
 11
0.0302192
 21
0.248861
 31
0.0
  0
LINE
  8
0
 62
     0
 10
0.0302192
 20
0.248861
 30
0.0
 11
0.168024
 21
0.248861
 31
0.0
  0
LINE
  8
0
 62
     0
 10
0.168024
 20
0.248861
 30
0.0
 11
0.168024
 21
0.183974
 31
0.0
  0
LINE
  8
0
 62
     0
 10
0.168024
 20
0.183974
 30
0.0
 11
0.0302192
 21
0.183974
 31
0.0
  0
LINE
  8
0
 62
     0
 10
0.0302192
 20
0.183974
 30
0.0
 11
0.00824653
 21
0.175781
 31
0.0
  0
LINE
  8
0
 62
     0
 10
0.00824653
 20
0.175781
 30
0.0
 11
0
 21
0.154243
 31
0.0
  0
LINE
  8
0
 62
     0
 10
0
 20
0.154243
 30
0.0
 11
0.00824653
 21
0.132704
 31
0.0
  0
LINE
  8
0
 62
     0
 10
0.00824653
 20
0.132704
 30
0.0
 11
0.0302192
 21
0.124458
 31
0.0
  0
LINE
  8
0
 62
     0
 10
0.0302192
 20
0.124458
 30
0.0
 11
0.168024
 21
0.124458
 31
0.0
  0
LINE
  8
0
 62
     0
 10
0.168024
 20
0.124458
 30
0.0
 11
0.168024
 21
0.0604383
 31
0.0
  0
LINE
  8
0
 62
     0
 10
0.168024
 20
0.0604383
 30
0.0
 11
0.0302192
 21
0.0604383
 31
0.0
  0
LINE
  8
0
 62
     0
 10
0.0302192
 20
0.0604383
 30
0.0
 11
0.00840929
 21
0.0518121
 31
0.0
  0
LINE
  8
0
 62
     0
 10
0.00840929
 20
0.0518121
 30
0.0
 11
0
 21
0.0297851
 31
0.0
  0
LINE
  8
0
 62
     0
 10
0
 20
0.0297851
 30
0.0
 11
0.00840929
 21
0.00824653
 31
0.0
  0
LINE
  8
0
 62
     0
 10
0.00840929
 20
0.00824653
 30
0.0
 11
0.0302192
 21
-0
 31
0.0
  0
LINE
  8
0
 62
     0
 10
0.0302192
 20
-0
 30
0.0
 11
0.160428
 21
-0
 31
0.0
  0
LINE
  8
0
 62
     0
 10
0.160428
 20
-0
 30
0.0
 11
0.186794
 21
0.00499132
 31
0.0
  0
LINE
  8
0
 62
     0
 10
0.186794
 20
0.00499132
 30
0.0
 11
0.208876
 21
0.0195313
 31
0.0
  0
LINE
  8
0
 62
     0
 10
0.208876
 20
0.0195313
 30
0.0
 11
0.22385
 21
0.0412326
 31
0.0
  0
LINE
  8
0
 62
     0
 10
0.22385
 20
0.0412326
 30
0.0
 11
0.228896
 21
0.0675456
 31
0.0
  0
LINE
  8
0
 62
     0
 10
0.228896
 20
0.0675456
 30
0.0
 11
0.228896
 21
0.114692
 31
0.0
  0
ENDSEC
  0
EOF
