  0
SECTION
  2
HEADER
  9
$ACADVER
  1
AC1009
  9
$EXTMIN
 10
0.0
 20
0.0
 30
0.0
  9
$EXTMAX
 10
1000.0
 20
1000.0
 30
0.0
  9
$FILLMODE
 70
 0
  9
$SPLFRAME
 70
 1
  0
ENDSEC
  0
SECTION
  2
TABLES
  0
TABLE
  2
LAYER
 70
1
  0
LAYER
  2
0
 70
     0
 62
     7
  6
CONTINUOUS
  0
ENDTAB
  0
ENDSEC
  0
SECTION
  2
ENTITIES
  0
LINE
  8
0
 62
     0
 10
0.228896
 20
0.11735
 30
0.0
 11
0.22385
 21
0.1435
 31
0.0
  0
LINE
  8
0
 62
     0
 10
0.22385
 20
0.1435
 30
0.0
 11
0.208876
 21
0.164876
 31
0.0
  0
LINE
  8
0
 62
     0
 10
0.208876
 20
0.164876
 30
0.0
 11
0.186794
 21
0.179525
 31
0.0
  0
LINE
  8
0
 62
     0
 10
0.186794
 20
0.179525
 30
0.0
 11
0.160428
 21
0.184461
 31
0.0
  0
LINE
  8
0
 62
     0
 10
0.160428
 20
0.184461
 30
0.0
 11
0.0608724
 21
0.184461
 31
0.0
  0
LINE
  8
0
 62
     0
 10
0.0608724
 20
0.184461
 30
0.0
 11
0.0608724
 21
0.248426
 31
0.0
  0
LINE
  8
0
 62
     0
 10
0.0608724
 20
0.248426
 30
0.0
 11
0.198676
 21
0.248426
 31
0.0
  0
LINE
  8
0
 62
     0
 10
0.198676
 20
0.248426
 30
0.0
 11
0.220594
 21
0.25689
 31
0.0
  0
LINE
  8
0
 62
     0
 10
0.220594
 20
0.25689
 30
0.0
 11
0.228896
 21
0.278646
 31
0.0
  0
LINE
  8
0
 62
     0
 10
0.228896
 20
0.278646
 30
0.0
 11
0.220594
 21
0.300401
 31
0.0
  0
LINE
  8
0
 62
     0
 10
0.220594
 20
0.300401
 30
0.0
 11
0.198676
 21
0.308431
 31
0.0
  0
LINE
  8
0
 62
     0
 10
0.198676
 20
0.308431
 30
0.0
 11
0.0302192
 21
0.308431
 31
0.0
  0
LINE
  8
0
 62
     0
 10
0.0302192
 20
0.308431
 30
0.0
 11
0.00906033
 21
0.299587
 31
0.0
  0
LINE
  8
0
 62
     0
 10
0.00906033
 20
0.299587
 30
0.0
 11
0
 21
0.278646
 31
0.0
  0
LINE
  8
0
 62
     0
 10
0
 20
0.278646
 30
0.0
 11
0
 21
0.154676
 31
0.0
  0
LINE
  8
0
 62
     0
 10
0
 20
0.154676
 30
0.0
 11
0.00906033
 21
0.133789
 31
0.0
  0
LINE
  8
0
 62
     0
 10
0.00906033
 20
0.133789
 30
0.0
 11
0.0302192
 21
0.124892
 31
0.0
  0
LINE
  8
0
 62
     0
 10
0.0302192
 20
0.124892
 30
0.0
 11
0.168024
 21
0.124892
 31
0.0
  0
LINE
  8
0
 62
     0
 10
0.168024
 20
0.124892
 30
0.0
 11
0.168024
 21
0.0600043
 31
0.0
  0
LINE
  8
0
 62
     0
 10
0.168024
 20
0.0600043
 30
0.0
 11
0.0302192
 21
0.0600043
 31
0.0
  0
LINE
  8
0
 62
     0
 10
0.0302192
 20
0.0600043
 30
0.0
 11
0.00840929
 21
0.0518121
 31
0.0
  0
LINE
  8
0
 62
     0
 10
0.00840929
 20
0.0518121
 30
0.0
 11
0
 21
0.0302192
 31
0.0
  0
LINE
  8
0
 62
     0
 10
0
 20
0.0302192
 30
0.0
 11
0.00824653
 21
0.00830078
 31
0.0
  0
LINE
  8
0
 62
     0
 10
0.00824653
 20
0.00830078
 30
0.0
 11
0.0302192
 21
-0
 31
0.0
  0
LINE
  8
0
 62
     0
 10
0.0302192
 20
-0
 30
0.0
 11
0.160428
 21
-0
 31
0.0
  0
LINE
  8
0
 62
     0
 10
0.160428
 20
-0
 30
0.0
 11
0.187011
 21
0.00499132
 31
0.0
  0
LINE
  8
0
 62
     0
 10
0.187011
 20
0.00499132
 30
0.0
 11
0.208876
 21
0.0195313
 31
0.0
  0
LINE
  8
0
 62
     0
 10
0.208876
 20
0.0195313
 30
0.0
 11
0.22385
 21
0.0411783
 31
0.0
  0
LINE
  8
0
 62
     0
 10
0.22385
 20
0.0411783
 30
0.0
 11
0.228896
 21
0.0671115
 31
0.0
  0
LINE
  8
0
 62
     0
 10
0.228896
 20
0.0671115
 30
0.0
 11
0.228896
 21
0.11735
 31
0.0
  0
ENDSEC
  0
EOF
