  0
SECTION
  2
HEADER
  9
$ACADVER
  1
AC1009
  9
$EXTMIN
 10
0.0
 20
0.0
 30
0.0
  9
$EXTMAX
 10
1000.0
 20
1000.0
 30
0.0
  9
$FILLMODE
 70
 0
  9
$SPLFRAME
 70
 1
  0
ENDSEC
  0
SECTION
  2
TABLES
  0
TABLE
  2
LAYER
 70
1
  0
LAYER
  2
0
 70
     0
 62
     7
  6
CONTINUOUS
  0
ENDTAB
  0
ENDSEC
  0
SECTION
  2
ENTITIES
  0
LINE
  8
0
 62
     0
 10
0.228896
 20
0.11735
 30
0.0
 11
0.22385
 21
0.143338
 31
0.0
  0
LINE
  8
0
 62
     0
 10
0.22385
 20
0.143338
 30
0.0
 11
0.208876
 21
0.164876
 31
0.0
  0
LINE
  8
0
 62
     0
 10
0.208876
 20
0.164876
 30
0.0
 11
0.186794
 21
0.179525
 31
0.0
  0
LINE
  8
0
 62
     0
 10
0.186794
 20
0.179525
 30
0.0
 11
0.160428
 21
0.184461
 31
0.0
  0
LINE
  8
0
 62
     0
 10
0.160428
 20
0.184461
 30
0.0
 11
0.0608724
 21
0.184461
 31
0.0
  0
LINE
  8
0
 62
     0
 10
0.0608724
 20
0.184461
 30
0.0
 11
0.0608724
 21
0.248426
 31
0.0
  0
LINE
  8
0
 62
     0
 10
0.0608724
 20
0.248426
 30
0.0
 11
0.198676
 21
0.248426
 31
0.0
  0
LINE
  8
0
 62
     0
 10
0.198676
 20
0.248426
 30
0.0
 11
0.220432
 21
0.256674
 31
0.0
  0
LINE
  8
0
 62
     0
 10
0.220432
 20
0.256674
 30
0.0
 11
0.228896
 21
0.278211
 31
0.0
  0
LINE
  8
0
 62
     0
 10
0.228896
 20
0.278211
 30
0.0
 11
0.220432
 21
0.300022
 31
0.0
  0
LINE
  8
0
 62
     0
 10
0.220432
 20
0.300022
 30
0.0
 11
0.198676
 21
0.308431
 31
0.0
  0
LINE
  8
0
 62
     0
 10
0.198676
 20
0.308431
 30
0.0
 11
0.0684679
 21
0.308431
 31
0.0
  0
LINE
  8
0
 62
     0
 10
0.0684679
 20
0.308431
 30
0.0
 11
0.0420464
 21
0.303494
 31
0.0
  0
LINE
  8
0
 62
     0
 10
0.0420464
 20
0.303494
 30
0.0
 11
0.0200196
 21
0.2889
 31
0.0
  0
LINE
  8
0
 62
     0
 10
0.0200196
 20
0.2889
 30
0.0
 11
0.00499132
 21
0.267253
 31
0.0
  0
LINE
  8
0
 62
     0
 10
0.00499132
 20
0.267253
 30
0.0
 11
0
 21
0.240886
 31
0.0
  0
LINE
  8
0
 62
     0
 10
0
 20
0.240886
 30
0.0
 11
0
 21
0.0675456
 31
0.0
  0
LINE
  8
0
 62
     0
 10
0
 20
0.0675456
 30
0.0
 11
0.00499132
 21
0.0415582
 31
0.0
  0
LINE
  8
0
 62
     0
 10
0.00499132
 20
0.0415582
 30
0.0
 11
0.0200196
 21
0.0195313
 31
0.0
  0
LINE
  8
0
 62
     0
 10
0.0200196
 20
0.0195313
 30
0.0
 11
0.0419379
 21
0.00499132
 31
0.0
  0
LINE
  8
0
 62
     0
 10
0.0419379
 20
0.00499132
 30
0.0
 11
0.0679796
 21
-0
 31
0.0
  0
LINE
  8
0
 62
     0
 10
0.0679796
 20
-0
 30
0.0
 11
0.160428
 21
-0
 31
0.0
  0
LINE
  8
0
 62
     0
 10
0.160428
 20
-0
 30
0.0
 11
0.186794
 21
0.00499132
 31
0.0
  0
LINE
  8
0
 62
     0
 10
0.186794
 20
0.00499132
 30
0.0
 11
0.208876
 21
0.0195313
 31
0.0
  0
LINE
  8
0
 62
     0
 10
0.208876
 20
0.0195313
 30
0.0
 11
0.22385
 21
0.0412326
 31
0.0
  0
LINE
  8
0
 62
     0
 10
0.22385
 20
0.0412326
 30
0.0
 11
0.228896
 21
0.0675456
 31
0.0
  0
LINE
  8
0
 62
     0
 10
0.228896
 20
0.0675456
 30
0.0
 11
0.228896
 21
0.11735
 31
0.0
  0
LINE
  8
0
 62
     0
 10
0.0608724
 20
0.0600043
 30
0.0
 11
0.0608724
 21
0.124892
 31
0.0
  0
LINE
  8
0
 62
     0
 10
0.0608724
 20
0.124892
 30
0.0
 11
0.168024
 21
0.124892
 31
0.0
  0
LINE
  8
0
 62
     0
 10
0.168024
 20
0.124892
 30
0.0
 11
0.168024
 21
0.0600043
 31
0.0
  0
LINE
  8
0
 62
     0
 10
0.168024
 20
0.0600043
 30
0.0
 11
0.0608724
 21
0.0600043
 31
0.0
  0
ENDSEC
  0
EOF
