  0
SECTION
  2
HEADER
  9
$ACADVER
  1
AC1009
  9
$EXTMIN
 10
0.0
 20
0.0
 30
0.0
  9
$EXTMAX
 10
1000.0
 20
1000.0
 30
0.0
  9
$FILLMODE
 70
 0
  9
$SPLFRAME
 70
 1
  0
ENDSEC
  0
SECTION
  2
TABLES
  0
TABLE
  2
LAYER
 70
1
  0
LAYER
  2
0
 70
     0
 62
     7
  6
CONTINUOUS
  0
ENDTAB
  0
ENDSEC
  0
SECTION
  2
ENTITIES
  0
LINE
  8
0
 62
     0
 10
0.235568
 20
0.0302192
 30
0.0
 11
0.227106
 21
0.0516493
 31
0.0
  0
LINE
  8
0
 62
     0
 10
0.227106
 20
0.0516493
 30
0.0
 11
0.20535
 21
0.0600043
 31
0.0
  0
LINE
  8
0
 62
     0
 10
0.20535
 20
0.0600043
 30
0.0
 11
0.0675456
 21
0.0600043
 31
0.0
  0
LINE
  8
0
 62
     0
 10
0.0675456
 20
0.0600043
 30
0.0
 11
0.0675456
 21
0.252875
 31
0.0
  0
LINE
  8
0
 62
     0
 10
0.0675456
 20
0.252875
 30
0.0
 11
0.174642
 21
0.252875
 31
0.0
  0
LINE
  8
0
 62
     0
 10
0.174642
 20
0.252875
 30
0.0
 11
0.174208
 21
0.143121
 31
0.0
  0
LINE
  8
0
 62
     0
 10
0.174208
 20
0.143121
 30
0.0
 11
0.151531
 21
0.143121
 31
0.0
  0
LINE
  8
0
 62
     0
 10
0.151531
 20
0.143121
 30
0.0
 11
0.151531
 21
0.195529
 31
0.0
  0
LINE
  8
0
 62
     0
 10
0.151531
 20
0.195529
 30
0.0
 11
0.143012
 21
0.217339
 31
0.0
  0
LINE
  8
0
 62
     0
 10
0.143012
 20
0.217339
 30
0.0
 11
0.120877
 21
0.225803
 31
0.0
  0
LINE
  8
0
 62
     0
 10
0.120877
 20
0.225803
 30
0.0
 11
0.0990668
 21
0.217339
 31
0.0
  0
LINE
  8
0
 62
     0
 10
0.0990668
 20
0.217339
 30
0.0
 11
0.0906575
 21
0.195529
 31
0.0
  0
LINE
  8
0
 62
     0
 10
0.0906575
 20
0.195529
 30
0.0
 11
0.0906575
 21
0.149794
 31
0.0
  0
LINE
  8
0
 62
     0
 10
0.0906575
 20
0.149794
 30
0.0
 11
0.0956489
 21
0.123861
 31
0.0
  0
LINE
  8
0
 62
     0
 10
0.0956489
 20
0.123861
 30
0.0
 11
0.110677
 21
0.102214
 31
0.0
  0
LINE
  8
0
 62
     0
 10
0.110677
 20
0.102214
 30
0.0
 11
0.132704
 21
0.0878906
 31
0.0
  0
LINE
  8
0
 62
     0
 10
0.132704
 20
0.0878906
 30
0.0
 11
0.159125
 21
0.0831164
 31
0.0
  0
LINE
  8
0
 62
     0
 10
0.159125
 20
0.0831164
 30
0.0
 11
0.1671
 21
0.0831164
 31
0.0
  0
LINE
  8
0
 62
     0
 10
0.1671
 20
0.0831164
 30
0.0
 11
0.193468
 21
0.0878906
 31
0.0
  0
LINE
  8
0
 62
     0
 10
0.193468
 20
0.0878906
 30
0.0
 11
0.215549
 21
0.102214
 31
0.0
  0
LINE
  8
0
 62
     0
 10
0.215549
 20
0.102214
 30
0.0
 11
0.230524
 21
0.123861
 31
0.0
  0
LINE
  8
0
 62
     0
 10
0.230524
 20
0.123861
 30
0.0
 11
0.235568
 21
0.149794
 31
0.0
  0
LINE
  8
0
 62
     0
 10
0.235568
 20
0.149794
 30
0.0
 11
0.235568
 21
0.246203
 31
0.0
  0
LINE
  8
0
 62
     0
 10
0.235568
 20
0.246203
 30
0.0
 11
0.230524
 21
0.27219
 31
0.0
  0
LINE
  8
0
 62
     0
 10
0.230524
 20
0.27219
 30
0.0
 11
0.215549
 21
0.293782
 31
0.0
  0
LINE
  8
0
 62
     0
 10
0.215549
 20
0.293782
 30
0.0
 11
0.193468
 21
0.308376
 31
0.0
  0
LINE
  8
0
 62
     0
 10
0.193468
 20
0.308376
 30
0.0
 11
0.1671
 21
0.313314
 31
0.0
  0
LINE
  8
0
 62
     0
 10
0.1671
 20
0.313314
 30
0.0
 11
0.0746528
 21
0.313314
 31
0.0
  0
LINE
  8
0
 62
     0
 10
0.0746528
 20
0.313314
 30
0.0
 11
0.0482314
 21
0.308376
 31
0.0
  0
LINE
  8
0
 62
     0
 10
0.0482314
 20
0.308376
 30
0.0
 11
0.0262044
 21
0.293782
 31
0.0
  0
LINE
  8
0
 62
     0
 10
0.0262044
 20
0.293782
 30
0.0
 11
0.0116102
 21
0.27219
 31
0.0
  0
LINE
  8
0
 62
     0
 10
0.0116102
 20
0.27219
 30
0.0
 11
0.00667318
 21
0.246203
 31
0.0
  0
LINE
  8
0
 62
     0
 10
0.00667318
 20
0.246203
 30
0.0
 11
0.00667318
 21
0.0671115
 31
0.0
  0
LINE
  8
0
 62
     0
 10
0.00667318
 20
0.0671115
 30
0.0
 11
0.0116102
 21
0.0411783
 31
0.0
  0
LINE
  8
0
 62
     0
 10
0.0116102
 20
0.0411783
 30
0.0
 11
0.0262044
 21
0.0195313
 31
0.0
  0
LINE
  8
0
 62
     0
 10
0.0262044
 20
0.0195313
 30
0.0
 11
0.0482314
 21
0.00499132
 31
0.0
  0
LINE
  8
0
 62
     0
 10
0.0482314
 20
0.00499132
 30
0.0
 11
0.0746528
 21
-0
 31
0.0
  0
LINE
  8
0
 62
     0
 10
0.0746528
 20
-0
 30
0.0
 11
0.20535
 21
-0
 31
0.0
  0
LINE
  8
0
 62
     0
 10
0.20535
 20
-0
 30
0.0
 11
0.227106
 21
0.00846354
 31
0.0
  0
LINE
  8
0
 62
     0
 10
0.227106
 20
0.00846354
 30
0.0
 11
0.235568
 21
0.0302192
 31
0.0
  0
ENDSEC
  0
EOF
