  0
SECTION
  2
HEADER
  9
$ACADVER
  1
AC1009
  9
$EXTMIN
 10
0.0
 20
0.0
 30
0.0
  9
$EXTMAX
 10
1000.0
 20
1000.0
 30
0.0
  9
$FILLMODE
 70
 0
  9
$SPLFRAME
 70
 1
  0
ENDSEC
  0
SECTION
  2
TABLES
  0
TABLE
  2
LAYER
 70
1
  0
LAYER
  2
0
 70
     0
 62
     7
  6
CONTINUOUS
  0
ENDTAB
  0
ENDSEC
  0
SECTION
  2
ENTITIES
  0
LINE
  8
0
 62
     0
 10
0.228896
 20
0.158203
 30
0.0
 11
0.22385
 21
0.184571
 31
0.0
  0
LINE
  8
0
 62
     0
 10
0.22385
 20
0.184571
 30
0.0
 11
0.208876
 21
0.206218
 31
0.0
  0
LINE
  8
0
 62
     0
 10
0.208876
 20
0.206218
 30
0.0
 11
0.186794
 21
0.221246
 31
0.0
  0
LINE
  8
0
 62
     0
 10
0.186794
 20
0.221246
 30
0.0
 11
0.160428
 21
0.226238
 31
0.0
  0
LINE
  8
0
 62
     0
 10
0.160428
 20
0.226238
 30
0.0
 11
0.0302192
 21
0.226238
 31
0.0
  0
LINE
  8
0
 62
     0
 10
0.0302192
 20
0.226238
 30
0.0
 11
0.00824653
 21
0.21799
 31
0.0
  0
LINE
  8
0
 62
     0
 10
0.00824653
 20
0.21799
 30
0.0
 11
0
 21
0.196018
 31
0.0
  0
LINE
  8
0
 62
     0
 10
0
 20
0.196018
 30
0.0
 11
0.00824653
 21
0.1741
 31
0.0
  0
LINE
  8
0
 62
     0
 10
0.00824653
 20
0.1741
 30
0.0
 11
0.0302192
 21
0.165799
 31
0.0
  0
LINE
  8
0
 62
     0
 10
0.0302192
 20
0.165799
 30
0.0
 11
0.167535
 21
0.165799
 31
0.0
  0
LINE
  8
0
 62
     0
 10
0.167535
 20
0.165799
 30
0.0
 11
0.167535
 21
0.0608724
 31
0.0
  0
LINE
  8
0
 62
     0
 10
0.167535
 20
0.0608724
 30
0.0
 11
0.0608724
 21
0.0608724
 31
0.0
  0
LINE
  8
0
 62
     0
 10
0.0608724
 20
0.0608724
 30
0.0
 11
0.0608724
 21
0.0831164
 31
0.0
  0
LINE
  8
0
 62
     0
 10
0.0608724
 20
0.0831164
 30
0.0
 11
0.114204
 21
0.0831164
 31
0.0
  0
LINE
  8
0
 62
     0
 10
0.114204
 20
0.0831164
 30
0.0
 11
0.136393
 21
0.0916342
 31
0.0
  0
LINE
  8
0
 62
     0
 10
0.136393
 20
0.0916342
 30
0.0
 11
0.144911
 21
0.11377
 31
0.0
  0
LINE
  8
0
 62
     0
 10
0.144911
 20
0.11377
 30
0.0
 11
0.136393
 21
0.135742
 31
0.0
  0
LINE
  8
0
 62
     0
 10
0.136393
 20
0.135742
 30
0.0
 11
0.114204
 21
0.143989
 31
0.0
  0
LINE
  8
0
 62
     0
 10
0.114204
 20
0.143989
 30
0.0
 11
0.0302192
 21
0.143989
 31
0.0
  0
LINE
  8
0
 62
     0
 10
0.0302192
 20
0.143989
 30
0.0
 11
0.00889757
 21
0.135091
 31
0.0
  0
LINE
  8
0
 62
     0
 10
0.00889757
 20
0.135091
 30
0.0
 11
0
 21
0.11377
 31
0.0
  0
LINE
  8
0
 62
     0
 10
0
 20
0.11377
 30
0.0
 11
0
 21
0.0306532
 31
0.0
  0
LINE
  8
0
 62
     0
 10
0
 20
0.0306532
 30
0.0
 11
0.00906033
 21
0.0093316
 31
0.0
  0
LINE
  8
0
 62
     0
 10
0.00906033
 20
0.0093316
 30
0.0
 11
0.0302192
 21
-0
 31
0.0
  0
LINE
  8
0
 62
     0
 10
0.0302192
 20
-0
 30
0.0
 11
0.160428
 21
-0
 31
0.0
  0
LINE
  8
0
 62
     0
 10
0.160428
 20
-0
 30
0.0
 11
0.186794
 21
0.00504557
 31
0.0
  0
LINE
  8
0
 62
     0
 10
0.186794
 20
0.00504557
 30
0.0
 11
0.208876
 21
0.0200196
 31
0.0
  0
LINE
  8
0
 62
     0
 10
0.208876
 20
0.0200196
 30
0.0
 11
0.22385
 21
0.0420464
 31
0.0
  0
LINE
  8
0
 62
     0
 10
0.22385
 20
0.0420464
 30
0.0
 11
0.228896
 21
0.0684679
 31
0.0
  0
LINE
  8
0
 62
     0
 10
0.228896
 20
0.0684679
 30
0.0
 11
0.228896
 21
0.158203
 31
0.0
  0
ENDSEC
  0
EOF
