  0
SECTION
  2
HEADER
  9
$ACADVER
  1
AC1009
  9
$EXTMIN
 10
0.0
 20
0.0
 30
0.0
  9
$EXTMAX
 10
1000.0
 20
1000.0
 30
0.0
  9
$FILLMODE
 70
 0
  9
$SPLFRAME
 70
 1
  0
ENDSEC
  0
SECTION
  2
TABLES
  0
TABLE
  2
LAYER
 70
1
  0
LAYER
  2
0
 70
     0
 62
     7
  6
CONTINUOUS
  0
ENDTAB
  0
ENDSEC
  0
SECTION
  2
ENTITIES
  0
LINE
  8
0
 62
     0
 10
0.228896
 20
0.114204
 30
0.0
 11
0.220432
 21
0.13623
 31
0.0
  0
LINE
  8
0
 62
     0
 10
0.220432
 20
0.13623
 30
0.0
 11
0.198676
 21
0.144911
 31
0.0
  0
LINE
  8
0
 62
     0
 10
0.198676
 20
0.144911
 30
0.0
 11
0.176486
 21
0.136393
 31
0.0
  0
LINE
  8
0
 62
     0
 10
0.176486
 20
0.136393
 30
0.0
 11
0.168024
 21
0.114204
 31
0.0
  0
LINE
  8
0
 62
     0
 10
0.168024
 20
0.114204
 30
0.0
 11
0.168024
 21
0.0608724
 31
0.0
  0
LINE
  8
0
 62
     0
 10
0.168024
 20
0.0608724
 30
0.0
 11
0.0608724
 21
0.0608724
 31
0.0
  0
LINE
  8
0
 62
     0
 10
0.0608724
 20
0.0608724
 30
0.0
 11
0.0608724
 21
0.122667
 31
0.0
  0
LINE
  8
0
 62
     0
 10
0.0608724
 20
0.122667
 30
0.0
 11
0.114204
 21
0.122667
 31
0.0
  0
LINE
  8
0
 62
     0
 10
0.114204
 20
0.122667
 30
0.0
 11
0.13623
 21
0.131131
 31
0.0
  0
LINE
  8
0
 62
     0
 10
0.13623
 20
0.131131
 30
0.0
 11
0.144911
 21
0.152886
 31
0.0
  0
LINE
  8
0
 62
     0
 10
0.144911
 20
0.152886
 30
0.0
 11
0.136393
 21
0.175076
 31
0.0
  0
LINE
  8
0
 62
     0
 10
0.136393
 20
0.175076
 30
0.0
 11
0.114204
 21
0.183539
 31
0.0
  0
LINE
  8
0
 62
     0
 10
0.114204
 20
0.183539
 30
0.0
 11
0.0608724
 21
0.183539
 31
0.0
  0
LINE
  8
0
 62
     0
 10
0.0608724
 20
0.183539
 30
0.0
 11
0.0608724
 21
0.247993
 31
0.0
  0
LINE
  8
0
 62
     0
 10
0.0608724
 20
0.247993
 30
0.0
 11
0.114204
 21
0.247993
 31
0.0
  0
LINE
  8
0
 62
     0
 10
0.114204
 20
0.247993
 30
0.0
 11
0.136393
 21
0.256511
 31
0.0
  0
LINE
  8
0
 62
     0
 10
0.136393
 20
0.256511
 30
0.0
 11
0.144911
 21
0.278646
 31
0.0
  0
LINE
  8
0
 62
     0
 10
0.144911
 20
0.278646
 30
0.0
 11
0.13623
 21
0.300456
 31
0.0
  0
LINE
  8
0
 62
     0
 10
0.13623
 20
0.300456
 30
0.0
 11
0.114204
 21
0.308865
 31
0.0
  0
LINE
  8
0
 62
     0
 10
0.114204
 20
0.308865
 30
0.0
 11
0.0679796
 21
0.308865
 31
0.0
  0
LINE
  8
0
 62
     0
 10
0.0679796
 20
0.308865
 30
0.0
 11
0.0415582
 21
0.303928
 31
0.0
  0
LINE
  8
0
 62
     0
 10
0.0415582
 20
0.303928
 30
0.0
 11
0.0195313
 21
0.2889
 31
0.0
  0
LINE
  8
0
 62
     0
 10
0.0195313
 20
0.2889
 30
0.0
 11
0.00493707
 21
0.266872
 31
0.0
  0
LINE
  8
0
 62
     0
 10
0.00493707
 20
0.266872
 30
0.0
 11
0
 21
0.240451
 31
0.0
  0
LINE
  8
0
 62
     0
 10
0
 20
0.240451
 30
0.0
 11
0
 21
0.191135
 31
0.0
  0
LINE
  8
0
 62
     0
 10
0
 20
0.191135
 30
0.0
 11
0.0039605
 21
0.168511
 31
0.0
  0
LINE
  8
0
 62
     0
 10
0.0039605
 20
0.168511
 30
0.0
 11
0.0160047
 21
0.154243
 31
0.0
  0
LINE
  8
0
 62
     0
 10
0.0160047
 20
0.154243
 30
0.0
 11
0.0039605
 21
0.139865
 31
0.0
  0
LINE
  8
0
 62
     0
 10
0.0039605
 20
0.139865
 30
0.0
 11
0
 21
0.116428
 31
0.0
  0
LINE
  8
0
 62
     0
 10
0
 20
0.116428
 30
0.0
 11
0
 21
0.0679796
 31
0.0
  0
LINE
  8
0
 62
     0
 10
0
 20
0.0679796
 30
0.0
 11
0.00499132
 21
0.0419922
 31
0.0
  0
LINE
  8
0
 62
     0
 10
0.00499132
 20
0.0419922
 30
0.0
 11
0.0200196
 21
0.0200196
 31
0.0
  0
LINE
  8
0
 62
     0
 10
0.0200196
 20
0.0200196
 30
0.0
 11
0.0419379
 21
0.00504557
 31
0.0
  0
LINE
  8
0
 62
     0
 10
0.0419379
 20
0.00504557
 30
0.0
 11
0.0679796
 21
-0
 31
0.0
  0
LINE
  8
0
 62
     0
 10
0.0679796
 20
-0
 30
0.0
 11
0.198676
 21
-0
 31
0.0
  0
LINE
  8
0
 62
     0
 10
0.198676
 20
-0
 30
0.0
 11
0.219781
 21
0.00911458
 31
0.0
  0
LINE
  8
0
 62
     0
 10
0.219781
 20
0.00911458
 30
0.0
 11
0.228896
 21
0.0302192
 31
0.0
  0
LINE
  8
0
 62
     0
 10
0.228896
 20
0.0302192
 30
0.0
 11
0.228896
 21
0.114204
 31
0.0
  0
ENDSEC
  0
EOF
