  0
SECTION
  2
HEADER
  9
$ACADVER
  1
AC1009
  9
$EXTMIN
 10
0.0
 20
0.0
 30
0.0
  9
$EXTMAX
 10
1000.0
 20
1000.0
 30
0.0
  9
$FILLMODE
 70
 0
  9
$SPLFRAME
 70
 1
  0
ENDSEC
  0
SECTION
  2
TABLES
  0
TABLE
  2
LAYER
 70
1
  0
LAYER
  2
0
 70
     0
 62
     7
  6
CONTINUOUS
  0
ENDTAB
  0
ENDSEC
  0
SECTION
  2
ENTITIES
  0
LINE
  8
0
 62
     0
 10
0.212457
 20
0.0751953
 30
0.0
 11
0.197754
 21
0.0934244
 31
0.0
  0
LINE
  8
0
 62
     0
 10
0.197754
 20
0.0934244
 30
0.0
 11
0.170247
 21
0.108995
 31
0.0
  0
LINE
  8
0
 62
     0
 10
0.170247
 20
0.108995
 30
0.0
 11
0.197754
 21
0.125
 31
0.0
  0
LINE
  8
0
 62
     0
 10
0.197754
 20
0.125
 30
0.0
 11
0.212457
 21
0.143229
 31
0.0
  0
LINE
  8
0
 62
     0
 10
0.212457
 20
0.143229
 30
0.0
 11
0.208496
 21
0.16645
 31
0.0
  0
LINE
  8
0
 62
     0
 10
0.208496
 20
0.16645
 30
0.0
 11
0.190213
 21
0.180989
 31
0.0
  0
LINE
  8
0
 62
     0
 10
0.190213
 20
0.180989
 30
0.0
 11
0.1671
 21
0.177462
 31
0.0
  0
LINE
  8
0
 62
     0
 10
0.1671
 20
0.177462
 30
0.0
 11
0.139974
 21
0.161892
 31
0.0
  0
LINE
  8
0
 62
     0
 10
0.139974
 20
0.161892
 30
0.0
 11
0.139974
 21
0.193468
 31
0.0
  0
LINE
  8
0
 62
     0
 10
0.139974
 20
0.193468
 30
0.0
 11
0.131293
 21
0.215278
 31
0.0
  0
LINE
  8
0
 62
     0
 10
0.131293
 20
0.215278
 30
0.0
 11
0.109321
 21
0.223687
 31
0.0
  0
LINE
  8
0
 62
     0
 10
0.109321
 20
0.223687
 30
0.0
 11
0.0875108
 21
0.215278
 31
0.0
  0
LINE
  8
0
 62
     0
 10
0.0875108
 20
0.215278
 30
0.0
 11
0.0791015
 21
0.193468
 31
0.0
  0
LINE
  8
0
 62
     0
 10
0.0791015
 20
0.193468
 30
0.0
 11
0.0791015
 21
0.161892
 31
0.0
  0
LINE
  8
0
 62
     0
 10
0.0791015
 20
0.161892
 30
0.0
 11
0.0515408
 21
0.177462
 31
0.0
  0
LINE
  8
0
 62
     0
 10
0.0515408
 20
0.177462
 30
0.0
 11
0.0288628
 21
0.180989
 31
0.0
  0
LINE
  8
0
 62
     0
 10
0.0288628
 20
0.180989
 30
0.0
 11
0.0102539
 21
0.16645
 31
0.0
  0
LINE
  8
0
 62
     0
 10
0.0102539
 20
0.16645
 30
0.0
 11
0.00667318
 21
0.143229
 31
0.0
  0
LINE
  8
0
 62
     0
 10
0.00667318
 20
0.143229
 30
0.0
 11
0.0213217
 21
0.125
 31
0.0
  0
LINE
  8
0
 62
     0
 10
0.0213217
 20
0.125
 30
0.0
 11
0.0484483
 21
0.108995
 31
0.0
  0
LINE
  8
0
 62
     0
 10
0.0484483
 20
0.108995
 30
0.0
 11
0.0213217
 21
0.0934244
 31
0.0
  0
LINE
  8
0
 62
     0
 10
0.0213217
 20
0.0934244
 30
0.0
 11
0.00667318
 21
0.0751953
 31
0.0
  0
LINE
  8
0
 62
     0
 10
0.00667318
 20
0.0751953
 30
0.0
 11
0.0102539
 21
0.0516493
 31
0.0
  0
LINE
  8
0
 62
     0
 10
0.0102539
 20
0.0516493
 30
0.0
 11
0.0288628
 21
0.0370008
 31
0.0
  0
LINE
  8
0
 62
     0
 10
0.0288628
 20
0.0370008
 30
0.0
 11
0.0515408
 21
0.0405817
 31
0.0
  0
LINE
  8
0
 62
     0
 10
0.0515408
 20
0.0405817
 30
0.0
 11
0.0791015
 21
0.0565321
 31
0.0
  0
LINE
  8
0
 62
     0
 10
0.0791015
 20
0.0565321
 30
0.0
 11
0.0791015
 21
0.0250108
 31
0.0
  0
LINE
  8
0
 62
     0
 10
0.0791015
 20
0.0250108
 30
0.0
 11
0.0875108
 21
0.00325521
 31
0.0
  0
LINE
  8
0
 62
     0
 10
0.0875108
 20
0.00325521
 30
0.0
 11
0.109321
 21
-0.00520833
 31
0.0
  0
LINE
  8
0
 62
     0
 10
0.109321
 20
-0.00520833
 30
0.0
 11
0.131456
 21
0.00309244
 31
0.0
  0
LINE
  8
0
 62
     0
 10
0.131456
 20
0.00309244
 30
0.0
 11
0.139974
 21
0.0250108
 31
0.0
  0
LINE
  8
0
 62
     0
 10
0.139974
 20
0.0250108
 30
0.0
 11
0.139974
 21
0.0565321
 31
0.0
  0
LINE
  8
0
 62
     0
 10
0.139974
 20
0.0565321
 30
0.0
 11
0.1671
 21
0.0405817
 31
0.0
  0
LINE
  8
0
 62
     0
 10
0.1671
 20
0.0405817
 30
0.0
 11
0.190213
 21
0.0370008
 31
0.0
  0
LINE
  8
0
 62
     0
 10
0.190213
 20
0.0370008
 30
0.0
 11
0.208658
 21
0.0519749
 31
0.0
  0
LINE
  8
0
 62
     0
 10
0.208658
 20
0.0519749
 30
0.0
 11
0.212457
 21
0.0751953
 31
0.0
  0
ENDSEC
  0
EOF
