  0
SECTION
  2
HEADER
  9
$ACADVER
  1
AC1009
  9
$EXTMIN
 10
0.0
 20
0.0
 30
0.0
  9
$EXTMAX
 10
1000.0
 20
1000.0
 30
0.0
  9
$FILLMODE
 70
 0
  9
$SPLFRAME
 70
 1
  0
ENDSEC
  0
SECTION
  2
TABLES
  0
TABLE
  2
LAYER
 70
1
  0
LAYER
  2
0
 70
     0
 62
     7
  6
CONTINUOUS
  0
ENDTAB
  0
ENDSEC
  0
SECTION
  2
ENTITIES
  0
LINE
  8
0
 62
     0
 10
0.228896
 20
0.160428
 30
0.0
 11
0.22385
 21
0.186143
 31
0.0
  0
LINE
  8
0
 62
     0
 10
0.22385
 20
0.186143
 30
0.0
 11
0.208876
 21
0.207086
 31
0.0
  0
LINE
  8
0
 62
     0
 10
0.208876
 20
0.207086
 30
0.0
 11
0.187011
 21
0.221517
 31
0.0
  0
LINE
  8
0
 62
     0
 10
0.187011
 20
0.221517
 30
0.0
 11
0.160428
 21
0.226238
 31
0.0
  0
LINE
  8
0
 62
     0
 10
0.160428
 20
0.226238
 30
0.0
 11
0.0608724
 21
0.226238
 31
0.0
  0
LINE
  8
0
 62
     0
 10
0.0608724
 20
0.226238
 30
0.0
 11
0.0608724
 21
0.278646
 31
0.0
  0
LINE
  8
0
 62
     0
 10
0.0608724
 20
0.278646
 30
0.0
 11
0.0525717
 21
0.300401
 31
0.0
  0
LINE
  8
0
 62
     0
 10
0.0525717
 20
0.300401
 30
0.0
 11
0.0306532
 21
0.308431
 31
0.0
  0
LINE
  8
0
 62
     0
 10
0.0306532
 20
0.308431
 30
0.0
 11
0.00846354
 21
0.300401
 31
0.0
  0
LINE
  8
0
 62
     0
 10
0.00846354
 20
0.300401
 30
0.0
 11
0
 21
0.278646
 31
0.0
  0
LINE
  8
0
 62
     0
 10
0
 20
0.278646
 30
0.0
 11
0
 21
0.196451
 31
0.0
  0
LINE
  8
0
 62
     0
 10
0
 20
0.196451
 30
0.0
 11
0.00906033
 21
0.175781
 31
0.0
  0
LINE
  8
0
 62
     0
 10
0.00906033
 20
0.175781
 30
0.0
 11
0.0302192
 21
0.1671
 31
0.0
  0
LINE
  8
0
 62
     0
 10
0.0302192
 20
0.1671
 30
0.0
 11
0.167535
 21
0.1671
 31
0.0
  0
LINE
  8
0
 62
     0
 10
0.167535
 20
0.1671
 30
0.0
 11
0.167535
 21
0.0595703
 31
0.0
  0
LINE
  8
0
 62
     0
 10
0.167535
 20
0.0595703
 30
0.0
 11
0.0608724
 21
0.0595703
 31
0.0
  0
LINE
  8
0
 62
     0
 10
0.0608724
 20
0.0595703
 30
0.0
 11
0.0608724
 21
0.112468
 31
0.0
  0
LINE
  8
0
 62
     0
 10
0.0608724
 20
0.112468
 30
0.0
 11
0.0525717
 21
0.134006
 31
0.0
  0
LINE
  8
0
 62
     0
 10
0.0525717
 20
0.134006
 30
0.0
 11
0.0306532
 21
0.142199
 31
0.0
  0
LINE
  8
0
 62
     0
 10
0.0306532
 20
0.142199
 30
0.0
 11
0.00846354
 21
0.134006
 31
0.0
  0
LINE
  8
0
 62
     0
 10
0.00846354
 20
0.134006
 30
0.0
 11
0
 21
0.112468
 31
0.0
  0
LINE
  8
0
 62
     0
 10
0
 20
0.112468
 30
0.0
 11
0
 21
0.0671115
 31
0.0
  0
LINE
  8
0
 62
     0
 10
0
 20
0.0671115
 30
0.0
 11
0.00499132
 21
0.0411242
 31
0.0
  0
LINE
  8
0
 62
     0
 10
0.00499132
 20
0.0411242
 30
0.0
 11
0.0200196
 21
0.0190972
 31
0.0
  0
LINE
  8
0
 62
     0
 10
0.0200196
 20
0.0190972
 30
0.0
 11
0.0419379
 21
0.00455729
 31
0.0
  0
LINE
  8
0
 62
     0
 10
0.0419379
 20
0.00455729
 30
0.0
 11
0.0679796
 21
-0.000434028
 31
0.0
  0
LINE
  8
0
 62
     0
 10
0.0679796
 20
-0.000434028
 30
0.0
 11
0.160428
 21
-0.000434028
 31
0.0
  0
LINE
  8
0
 62
     0
 10
0.160428
 20
-0.000434028
 30
0.0
 11
0.186794
 21
0.00455729
 31
0.0
  0
LINE
  8
0
 62
     0
 10
0.186794
 20
0.00455729
 30
0.0
 11
0.208876
 21
0.0190972
 31
0.0
  0
LINE
  8
0
 62
     0
 10
0.208876
 20
0.0190972
 30
0.0
 11
0.22385
 21
0.0407986
 31
0.0
  0
LINE
  8
0
 62
     0
 10
0.22385
 20
0.0407986
 30
0.0
 11
0.228896
 21
0.0671115
 31
0.0
  0
LINE
  8
0
 62
     0
 10
0.228896
 20
0.0671115
 30
0.0
 11
0.228896
 21
0.160428
 31
0.0
  0
ENDSEC
  0
EOF
