  0
SECTION
  2
HEADER
  9
$ACADVER
  1
AC1009
  9
$EXTMIN
 10
0.0
 20
0.0
 30
0.0
  9
$EXTMAX
 10
1000.0
 20
1000.0
 30
0.0
  9
$FILLMODE
 70
 0
  9
$SPLFRAME
 70
 1
  0
ENDSEC
  0
SECTION
  2
TABLES
  0
TABLE
  2
LAYER
 70
1
  0
LAYER
  2
0
 70
     0
 62
     7
  6
CONTINUOUS
  0
ENDTAB
  0
ENDSEC
  0
SECTION
  2
ENTITIES
  0
LINE
  8
0
 62
     0
 10
0.228896
 20
0.112902
 30
0.0
 11
0.220378
 21
0.134494
 31
0.0
  0
LINE
  8
0
 62
     0
 10
0.220378
 20
0.134494
 30
0.0
 11
0.198242
 21
0.142686
 31
0.0
  0
LINE
  8
0
 62
     0
 10
0.198242
 20
0.142686
 30
0.0
 11
0.176053
 21
0.134494
 31
0.0
  0
LINE
  8
0
 62
     0
 10
0.176053
 20
0.134494
 30
0.0
 11
0.167535
 21
0.112902
 31
0.0
  0
LINE
  8
0
 62
     0
 10
0.167535
 20
0.112902
 30
0.0
 11
0.167535
 21
0.0600043
 31
0.0
  0
LINE
  8
0
 62
     0
 10
0.167535
 20
0.0600043
 30
0.0
 11
0.0608724
 21
0.0600043
 31
0.0
  0
LINE
  8
0
 62
     0
 10
0.0608724
 20
0.0600043
 30
0.0
 11
0.0608724
 21
0.1671
 31
0.0
  0
LINE
  8
0
 62
     0
 10
0.0608724
 20
0.1671
 30
0.0
 11
0.198676
 21
0.1671
 31
0.0
  0
LINE
  8
0
 62
     0
 10
0.198676
 20
0.1671
 30
0.0
 11
0.219781
 21
0.175781
 31
0.0
  0
LINE
  8
0
 62
     0
 10
0.219781
 20
0.175781
 30
0.0
 11
0.228896
 21
0.196451
 31
0.0
  0
LINE
  8
0
 62
     0
 10
0.228896
 20
0.196451
 30
0.0
 11
0.228896
 21
0.278646
 31
0.0
  0
LINE
  8
0
 62
     0
 10
0.228896
 20
0.278646
 30
0.0
 11
0.220378
 21
0.300401
 31
0.0
  0
LINE
  8
0
 62
     0
 10
0.220378
 20
0.300401
 30
0.0
 11
0.198242
 21
0.308431
 31
0.0
  0
LINE
  8
0
 62
     0
 10
0.198242
 20
0.308431
 30
0.0
 11
0.176053
 21
0.300401
 31
0.0
  0
LINE
  8
0
 62
     0
 10
0.176053
 20
0.300401
 30
0.0
 11
0.167535
 21
0.278646
 31
0.0
  0
LINE
  8
0
 62
     0
 10
0.167535
 20
0.278646
 30
0.0
 11
0.167535
 21
0.226238
 31
0.0
  0
LINE
  8
0
 62
     0
 10
0.167535
 20
0.226238
 30
0.0
 11
0.0679796
 21
0.226238
 31
0.0
  0
LINE
  8
0
 62
     0
 10
0.0679796
 20
0.226238
 30
0.0
 11
0.0415582
 21
0.221517
 31
0.0
  0
LINE
  8
0
 62
     0
 10
0.0415582
 20
0.221517
 30
0.0
 11
0.0195313
 21
0.207086
 31
0.0
  0
LINE
  8
0
 62
     0
 10
0.0195313
 20
0.207086
 30
0.0
 11
0.00493707
 21
0.186143
 31
0.0
  0
LINE
  8
0
 62
     0
 10
0.00493707
 20
0.186143
 30
0.0
 11
0
 21
0.160428
 31
0.0
  0
LINE
  8
0
 62
     0
 10
0
 20
0.160428
 30
0.0
 11
0
 21
0.0675456
 31
0.0
  0
LINE
  8
0
 62
     0
 10
0
 20
0.0675456
 30
0.0
 11
0.00499132
 21
0.0415582
 31
0.0
  0
LINE
  8
0
 62
     0
 10
0.00499132
 20
0.0415582
 30
0.0
 11
0.0200196
 21
0.0195313
 31
0.0
  0
LINE
  8
0
 62
     0
 10
0.0200196
 20
0.0195313
 30
0.0
 11
0.0419379
 21
0.00499132
 31
0.0
  0
LINE
  8
0
 62
     0
 10
0.0419379
 20
0.00499132
 30
0.0
 11
0.0679796
 21
-0
 31
0.0
  0
LINE
  8
0
 62
     0
 10
0.0679796
 20
-0
 30
0.0
 11
0.160428
 21
-0
 31
0.0
  0
LINE
  8
0
 62
     0
 10
0.160428
 20
-0
 30
0.0
 11
0.186794
 21
0.00499132
 31
0.0
  0
LINE
  8
0
 62
     0
 10
0.186794
 20
0.00499132
 30
0.0
 11
0.208876
 21
0.0195313
 31
0.0
  0
LINE
  8
0
 62
     0
 10
0.208876
 20
0.0195313
 30
0.0
 11
0.22385
 21
0.0412326
 31
0.0
  0
LINE
  8
0
 62
     0
 10
0.22385
 20
0.0412326
 30
0.0
 11
0.228896
 21
0.0675456
 31
0.0
  0
LINE
  8
0
 62
     0
 10
0.228896
 20
0.0675456
 30
0.0
 11
0.228896
 21
0.112902
 31
0.0
  0
ENDSEC
  0
EOF
