  0
SECTION
  2
HEADER
  9
$ACADVER
  1
AC1009
  9
$EXTMIN
 10
0.0
 20
0.0
 30
0.0
  9
$EXTMAX
 10
1000.0
 20
1000.0
 30
0.0
  9
$FILLMODE
 70
 0
  9
$SPLFRAME
 70
 1
  0
ENDSEC
  0
SECTION
  2
TABLES
  0
TABLE
  2
LAYER
 70
1
  0
LAYER
  2
0
 70
     0
 62
     7
  6
CONTINUOUS
  0
ENDTAB
  0
ENDSEC
  0
SECTION
  2
ENTITIES
  0
LINE
  8
0
 62
     0
 10
0.228896
 20
0.159017
 30
0.0
 11
0.22385
 21
0.184571
 31
0.0
  0
LINE
  8
0
 62
     0
 10
0.22385
 20
0.184571
 30
0.0
 11
0.208876
 21
0.206108
 31
0.0
  0
LINE
  8
0
 62
     0
 10
0.208876
 20
0.206108
 30
0.0
 11
0.187283
 21
0.219835
 31
0.0
  0
LINE
  8
0
 62
     0
 10
0.187283
 20
0.219835
 30
0.0
 11
0.159993
 21
0.225206
 31
0.0
  0
LINE
  8
0
 62
     0
 10
0.159993
 20
0.225206
 30
0.0
 11
0.144911
 21
0.226128
 31
0.0
  0
LINE
  8
0
 62
     0
 10
0.144911
 20
0.226128
 30
0.0
 11
0.144911
 21
0.288792
 31
0.0
  0
LINE
  8
0
 62
     0
 10
0.144911
 20
0.288792
 30
0.0
 11
0.198676
 21
0.288792
 31
0.0
  0
LINE
  8
0
 62
     0
 10
0.198676
 20
0.288792
 30
0.0
 11
0.220269
 21
0.297037
 31
0.0
  0
LINE
  8
0
 62
     0
 10
0.220269
 20
0.297037
 30
0.0
 11
0.228896
 21
0.318576
 31
0.0
  0
LINE
  8
0
 62
     0
 10
0.228896
 20
0.318576
 30
0.0
 11
0.220432
 21
0.339953
 31
0.0
  0
LINE
  8
0
 62
     0
 10
0.220432
 20
0.339953
 30
0.0
 11
0.198676
 21
0.348307
 31
0.0
  0
LINE
  8
0
 62
     0
 10
0.198676
 20
0.348307
 30
0.0
 11
0.144911
 21
0.348307
 31
0.0
  0
LINE
  8
0
 62
     0
 10
0.144911
 20
0.348307
 30
0.0
 11
0.144911
 21
0.359864
 31
0.0
  0
LINE
  8
0
 62
     0
 10
0.144911
 20
0.359864
 30
0.0
 11
0.13623
 21
0.381076
 31
0.0
  0
LINE
  8
0
 62
     0
 10
0.13623
 20
0.381076
 30
0.0
 11
0.114204
 21
0.389214
 31
0.0
  0
LINE
  8
0
 62
     0
 10
0.114204
 20
0.389214
 30
0.0
 11
0.0925564
 21
0.381076
 31
0.0
  0
LINE
  8
0
 62
     0
 10
0.0925564
 20
0.381076
 30
0.0
 11
0.0839844
 21
0.359864
 31
0.0
  0
LINE
  8
0
 62
     0
 10
0.0839844
 20
0.359864
 30
0.0
 11
0.0839844
 21
0.348307
 31
0.0
  0
LINE
  8
0
 62
     0
 10
0.0839844
 20
0.348307
 30
0.0
 11
0.0679796
 21
0.348307
 31
0.0
  0
LINE
  8
0
 62
     0
 10
0.0679796
 20
0.348307
 30
0.0
 11
0.0419379
 21
0.343425
 31
0.0
  0
LINE
  8
0
 62
     0
 10
0.0419379
 20
0.343425
 30
0.0
 11
0.0200196
 21
0.328776
 31
0.0
  0
LINE
  8
0
 62
     0
 10
0.0200196
 20
0.328776
 30
0.0
 11
0.00499132
 21
0.307237
 31
0.0
  0
LINE
  8
0
 62
     0
 10
0.00499132
 20
0.307237
 30
0.0
 11
0
 21
0.281683
 31
0.0
  0
LINE
  8
0
 62
     0
 10
0
 20
0.281683
 30
0.0
 11
0
 21
0.232801
 31
0.0
  0
LINE
  8
0
 62
     0
 10
0
 20
0.232801
 30
0.0
 11
0.00499132
 21
0.207086
 31
0.0
  0
LINE
  8
0
 62
     0
 10
0.00499132
 20
0.207086
 30
0.0
 11
0.0200196
 21
0.185656
 31
0.0
  0
LINE
  8
0
 62
     0
 10
0.0200196
 20
0.185656
 30
0.0
 11
0.0419379
 21
0.171332
 31
0.0
  0
LINE
  8
0
 62
     0
 10
0.0419379
 20
0.171332
 30
0.0
 11
0.0679796
 21
0.166558
 31
0.0
  0
LINE
  8
0
 62
     0
 10
0.0679796
 20
0.166558
 30
0.0
 11
0.0839844
 21
0.166558
 31
0.0
  0
LINE
  8
0
 62
     0
 10
0.0839844
 20
0.166558
 30
0.0
 11
0.0839844
 21
0.102539
 31
0.0
  0
LINE
  8
0
 62
     0
 10
0.0839844
 20
0.102539
 30
0.0
 11
0.0302192
 21
0.102539
 31
0.0
  0
LINE
  8
0
 62
     0
 10
0.0302192
 20
0.102539
 30
0.0
 11
0.00840929
 21
0.0941297
 31
0.0
  0
LINE
  8
0
 62
     0
 10
0.00840929
 20
0.0941297
 30
0.0
 11
0
 21
0.0723199
 31
0.0
  0
LINE
  8
0
 62
     0
 10
0
 20
0.0723199
 30
0.0
 11
0.00840929
 21
0.0512153
 31
0.0
  0
LINE
  8
0
 62
     0
 10
0.00840929
 20
0.0512153
 30
0.0
 11
0.0302192
 21
0.0430231
 31
0.0
  0
LINE
  8
0
 62
     0
 10
0.0302192
 20
0.0430231
 30
0.0
 11
0.0839844
 21
0.0430231
 31
0.0
  0
LINE
  8
0
 62
     0
 10
0.0839844
 20
0.0430231
 30
0.0
 11
0.0839844
 21
0.0314669
 31
0.0
  0
LINE
  8
0
 62
     0
 10
0.0839844
 20
0.0314669
 30
0.0
 11
0.0925564
 21
0.0103082
 31
0.0
  0
LINE
  8
0
 62
     0
 10
0.0925564
 20
0.0103082
 30
0.0
 11
0.114204
 21
0.00211589
 31
0.0
  0
LINE
  8
0
 62
     0
 10
0.114204
 20
0.00211589
 30
0.0
 11
0.13623
 21
0.0103082
 31
0.0
  0
LINE
  8
0
 62
     0
 10
0.13623
 20
0.0103082
 30
0.0
 11
0.144911
 21
0.0314669
 31
0.0
  0
LINE
  8
0
 62
     0
 10
0.144911
 20
0.0314669
 30
0.0
 11
0.144911
 21
0.0430231
 31
0.0
  0
LINE
  8
0
 62
     0
 10
0.144911
 20
0.0430231
 30
0.0
 11
0.160428
 21
0.0430231
 31
0.0
  0
LINE
  8
0
 62
     0
 10
0.160428
 20
0.0430231
 30
0.0
 11
0.186415
 21
0.0477431
 31
0.0
  0
LINE
  8
0
 62
     0
 10
0.186415
 20
0.0477431
 30
0.0
 11
0.208442
 21
0.0621203
 31
0.0
  0
LINE
  8
0
 62
     0
 10
0.208442
 20
0.0621203
 30
0.0
 11
0.223796
 21
0.0837131
 31
0.0
  0
LINE
  8
0
 62
     0
 10
0.223796
 20
0.0837131
 30
0.0
 11
0.228896
 21
0.109646
 31
0.0
  0
LINE
  8
0
 62
     0
 10
0.228896
 20
0.109646
 30
0.0
 11
0.228896
 21
0.159017
 31
0.0
  0
LINE
  8
0
 62
     0
 10
0.0586481
 20
0.223469
 30
0.0
 11
0.0586481
 21
0.291015
 31
0.0
  0
LINE
  8
0
 62
     0
 10
0.0586481
 20
0.291015
 30
0.0
 11
0.0862087
 21
0.291015
 31
0.0
  0
LINE
  8
0
 62
     0
 10
0.0862087
 20
0.291015
 30
0.0
 11
0.0862087
 21
0.223469
 31
0.0
  0
LINE
  8
0
 62
     0
 10
0.0862087
 20
0.223469
 30
0.0
 11
0.0586481
 21
0.223469
 31
0.0
  0
LINE
  8
0
 62
     0
 10
0.142686
 20
0.100803
 30
0.0
 11
0.142686
 21
0.168782
 31
0.0
  0
LINE
  8
0
 62
     0
 10
0.142686
 20
0.168782
 30
0.0
 11
0.16976
 21
0.168782
 31
0.0
  0
LINE
  8
0
 62
     0
 10
0.16976
 20
0.168782
 30
0.0
 11
0.16976
 21
0.100803
 31
0.0
  0
LINE
  8
0
 62
     0
 10
0.16976
 20
0.100803
 30
0.0
 11
0.142686
 21
0.100803
 31
0.0
  0
ENDSEC
  0
EOF
