  0
SECTION
  2
HEADER
  9
$ACADVER
  1
AC1009
  9
$EXTMIN
 10
0.0
 20
0.0
 30
0.0
  9
$EXTMAX
 10
1000.0
 20
1000.0
 30
0.0
  9
$FILLMODE
 70
 0
  9
$SPLFRAME
 70
 1
  0
ENDSEC
  0
SECTION
  2
TABLES
  0
TABLE
  2
LAYER
 70
1
  0
LAYER
  2
0
 70
     0
 62
     7
  6
CONTINUOUS
  0
ENDTAB
  0
ENDSEC
  0
SECTION
  2
ENTITIES
  0
LINE
  8
0
 62
     0
 10
0.228896
 20
0.0302192
 30
0.0
 11
0.220269
 21
0.0516493
 31
0.0
  0
LINE
  8
0
 62
     0
 10
0.220269
 20
0.0516493
 30
0.0
 11
0.198676
 21
0.0600043
 31
0.0
  0
LINE
  8
0
 62
     0
 10
0.198676
 20
0.0600043
 30
0.0
 11
0.0608724
 21
0.0600043
 31
0.0
  0
LINE
  8
0
 62
     0
 10
0.0608724
 20
0.0600043
 30
0.0
 11
0.0608724
 21
0.166667
 31
0.0
  0
LINE
  8
0
 62
     0
 10
0.0608724
 20
0.166667
 30
0.0
 11
0.168024
 21
0.166667
 31
0.0
  0
LINE
  8
0
 62
     0
 10
0.168024
 20
0.166667
 30
0.0
 11
0.168024
 21
0.141764
 31
0.0
  0
LINE
  8
0
 62
     0
 10
0.168024
 20
0.141764
 30
0.0
 11
0.114204
 21
0.141764
 31
0.0
  0
LINE
  8
0
 62
     0
 10
0.114204
 20
0.141764
 30
0.0
 11
0.0923936
 21
0.133301
 31
0.0
  0
LINE
  8
0
 62
     0
 10
0.0923936
 20
0.133301
 30
0.0
 11
0.0839844
 21
0.112468
 31
0.0
  0
LINE
  8
0
 62
     0
 10
0.0839844
 20
0.112468
 30
0.0
 11
0.0923936
 21
0.0910915
 31
0.0
  0
LINE
  8
0
 62
     0
 10
0.0923936
 20
0.0910915
 30
0.0
 11
0.114204
 21
0.0826822
 31
0.0
  0
LINE
  8
0
 62
     0
 10
0.114204
 20
0.0826822
 30
0.0
 11
0.198242
 21
0.0826822
 31
0.0
  0
LINE
  8
0
 62
     0
 10
0.198242
 20
0.0826822
 30
0.0
 11
0.219129
 21
0.0917426
 31
0.0
  0
LINE
  8
0
 62
     0
 10
0.219129
 20
0.0917426
 30
0.0
 11
0.228461
 21
0.112468
 31
0.0
  0
LINE
  8
0
 62
     0
 10
0.228461
 20
0.112468
 30
0.0
 11
0.228461
 21
0.158203
 31
0.0
  0
LINE
  8
0
 62
     0
 10
0.228461
 20
0.158203
 30
0.0
 11
0.223361
 21
0.184896
 31
0.0
  0
LINE
  8
0
 62
     0
 10
0.223361
 20
0.184896
 30
0.0
 11
0.20931
 21
0.206218
 31
0.0
  0
LINE
  8
0
 62
     0
 10
0.20931
 20
0.206218
 30
0.0
 11
0.186632
 21
0.221246
 31
0.0
  0
LINE
  8
0
 62
     0
 10
0.186632
 20
0.221246
 30
0.0
 11
0.158692
 21
0.226238
 31
0.0
  0
LINE
  8
0
 62
     0
 10
0.158692
 20
0.226238
 30
0.0
 11
0.0679796
 21
0.226238
 31
0.0
  0
LINE
  8
0
 62
     0
 10
0.0679796
 20
0.226238
 30
0.0
 11
0.0415582
 21
0.2213
 31
0.0
  0
LINE
  8
0
 62
     0
 10
0.0415582
 20
0.2213
 30
0.0
 11
0.0195313
 21
0.206651
 31
0.0
  0
LINE
  8
0
 62
     0
 10
0.0195313
 20
0.206651
 30
0.0
 11
0.00493707
 21
0.185058
 31
0.0
  0
LINE
  8
0
 62
     0
 10
0.00493707
 20
0.185058
 30
0.0
 11
0
 21
0.158692
 31
0.0
  0
LINE
  8
0
 62
     0
 10
0
 20
0.158692
 30
0.0
 11
0
 21
0.0684679
 31
0.0
  0
LINE
  8
0
 62
     0
 10
0
 20
0.0684679
 30
0.0
 11
0.00493707
 21
0.0420464
 31
0.0
  0
LINE
  8
0
 62
     0
 10
0.00493707
 20
0.0420464
 30
0.0
 11
0.0195313
 21
0.0200196
 31
0.0
  0
LINE
  8
0
 62
     0
 10
0.0195313
 20
0.0200196
 30
0.0
 11
0.0415582
 21
0.00504557
 31
0.0
  0
LINE
  8
0
 62
     0
 10
0.0415582
 20
0.00504557
 30
0.0
 11
0.0679796
 21
-0
 31
0.0
  0
LINE
  8
0
 62
     0
 10
0.0679796
 20
-0
 30
0.0
 11
0.198676
 21
-0
 31
0.0
  0
LINE
  8
0
 62
     0
 10
0.198676
 20
-0
 30
0.0
 11
0.220432
 21
0.00846354
 31
0.0
  0
LINE
  8
0
 62
     0
 10
0.220432
 20
0.00846354
 30
0.0
 11
0.228896
 21
0.0302192
 31
0.0
  0
ENDSEC
  0
EOF
