  0
SECTION
  2
HEADER
  9
$ACADVER
  1
AC1009
  9
$EXTMIN
 10
0.0
 20
0.0
 30
0.0
  9
$EXTMAX
 10
1000.0
 20
1000.0
 30
0.0
  9
$FILLMODE
 70
 0
  9
$SPLFRAME
 70
 1
  0
ENDSEC
  0
SECTION
  2
TABLES
  0
TABLE
  2
LAYER
 70
1
  0
LAYER
  2
0
 70
     0
 62
     7
  6
CONTINUOUS
  0
ENDTAB
  0
ENDSEC
  0
SECTION
  2
ENTITIES
  0
LINE
  8
0
 62
     0
 10
0.228896
 20
0.113987
 30
0.0
 11
0.219618
 21
0.134983
 31
0.0
  0
LINE
  8
0
 62
     0
 10
0.219618
 20
0.134983
 30
0.0
 11
0.198676
 21
0.144206
 31
0.0
  0
LINE
  8
0
 62
     0
 10
0.198676
 20
0.144206
 30
0.0
 11
0.0608724
 21
0.144206
 31
0.0
  0
LINE
  8
0
 62
     0
 10
0.0608724
 20
0.144206
 30
0.0
 11
0.0608724
 21
0.25
 31
0.0
  0
LINE
  8
0
 62
     0
 10
0.0608724
 20
0.25
 30
0.0
 11
0.168024
 21
0.25
 31
0.0
  0
LINE
  8
0
 62
     0
 10
0.168024
 20
0.25
 30
0.0
 11
0.168024
 21
0.197103
 31
0.0
  0
LINE
  8
0
 62
     0
 10
0.168024
 20
0.197103
 30
0.0
 11
0.176486
 21
0.175347
 31
0.0
  0
LINE
  8
0
 62
     0
 10
0.176486
 20
0.175347
 30
0.0
 11
0.198676
 21
0.166883
 31
0.0
  0
LINE
  8
0
 62
     0
 10
0.198676
 20
0.166883
 30
0.0
 11
0.220432
 21
0.175347
 31
0.0
  0
LINE
  8
0
 62
     0
 10
0.220432
 20
0.175347
 30
0.0
 11
0.228896
 21
0.197103
 31
0.0
  0
LINE
  8
0
 62
     0
 10
0.228896
 20
0.197103
 30
0.0
 11
0.228896
 21
0.243326
 31
0.0
  0
LINE
  8
0
 62
     0
 10
0.228896
 20
0.243326
 30
0.0
 11
0.22385
 21
0.269097
 31
0.0
  0
LINE
  8
0
 62
     0
 10
0.22385
 20
0.269097
 30
0.0
 11
0.208876
 21
0.290419
 31
0.0
  0
LINE
  8
0
 62
     0
 10
0.208876
 20
0.290419
 30
0.0
 11
0.186794
 21
0.30485
 31
0.0
  0
LINE
  8
0
 62
     0
 10
0.186794
 20
0.30485
 30
0.0
 11
0.160428
 21
0.309571
 31
0.0
  0
LINE
  8
0
 62
     0
 10
0.160428
 20
0.309571
 30
0.0
 11
0.0679796
 21
0.309571
 31
0.0
  0
LINE
  8
0
 62
     0
 10
0.0679796
 20
0.309571
 30
0.0
 11
0.0415582
 21
0.304633
 31
0.0
  0
LINE
  8
0
 62
     0
 10
0.0415582
 20
0.304633
 30
0.0
 11
0.0195313
 21
0.289985
 31
0.0
  0
LINE
  8
0
 62
     0
 10
0.0195313
 20
0.289985
 30
0.0
 11
0.00493707
 21
0.268718
 31
0.0
  0
LINE
  8
0
 62
     0
 10
0.00493707
 20
0.268718
 30
0.0
 11
0
 21
0.243326
 31
0.0
  0
LINE
  8
0
 62
     0
 10
0
 20
0.243326
 30
0.0
 11
0
 21
0.151312
 31
0.0
  0
LINE
  8
0
 62
     0
 10
0
 20
0.151312
 30
0.0
 11
0.00499132
 21
0.125326
 31
0.0
  0
LINE
  8
0
 62
     0
 10
0.00499132
 20
0.125326
 30
0.0
 11
0.0200196
 21
0.103353
 31
0.0
  0
LINE
  8
0
 62
     0
 10
0.0200196
 20
0.103353
 30
0.0
 11
0.0419379
 21
0.0887586
 31
0.0
  0
LINE
  8
0
 62
     0
 10
0.0419379
 20
0.0887586
 30
0.0
 11
0.0679796
 21
0.0837674
 31
0.0
  0
LINE
  8
0
 62
     0
 10
0.0679796
 20
0.0837674
 30
0.0
 11
0.168024
 21
0.0837674
 31
0.0
  0
LINE
  8
0
 62
     0
 10
0.168024
 20
0.0837674
 30
0.0
 11
0.168024
 21
0.0610894
 31
0.0
  0
LINE
  8
0
 62
     0
 10
0.168024
 20
0.0610894
 30
0.0
 11
0.0302192
 21
0.0610894
 31
0.0
  0
LINE
  8
0
 62
     0
 10
0.0302192
 20
0.0610894
 30
0.0
 11
0.00824653
 21
0.0526801
 31
0.0
  0
LINE
  8
0
 62
     0
 10
0.00824653
 20
0.0526801
 30
0.0
 11
0
 21
0.0308703
 31
0.0
  0
LINE
  8
0
 62
     0
 10
0
 20
0.0308703
 30
0.0
 11
0.00840929
 21
0.0093316
 31
0.0
  0
LINE
  8
0
 62
     0
 10
0.00840929
 20
0.0093316
 30
0.0
 11
0.0302192
 21
0.00108507
 31
0.0
  0
LINE
  8
0
 62
     0
 10
0.0302192
 20
0.00108507
 30
0.0
 11
0.198676
 21
0.00108507
 31
0.0
  0
LINE
  8
0
 62
     0
 10
0.198676
 20
0.00108507
 30
0.0
 11
0.219618
 21
0.0101997
 31
0.0
  0
LINE
  8
0
 62
     0
 10
0.219618
 20
0.0101997
 30
0.0
 11
0.228896
 21
0.0308703
 31
0.0
  0
LINE
  8
0
 62
     0
 10
0.228896
 20
0.0308703
 30
0.0
 11
0.228896
 21
0.113987
 31
0.0
  0
ENDSEC
  0
EOF
