  0
SECTION
  2
HEADER
  9
$ACADVER
  1
AC1009
  9
$EXTMIN
 10
0.0
 20
0.0
 30
0.0
  9
$EXTMAX
 10
1000.0
 20
1000.0
 30
0.0
  9
$FILLMODE
 70
 0
  9
$SPLFRAME
 70
 1
  0
ENDSEC
  0
SECTION
  2
TABLES
  0
TABLE
  2
LAYER
 70
1
  0
LAYER
  2
0
 70
     0
 62
     7
  6
CONTINUOUS
  0
ENDTAB
  0
ENDSEC
  0
SECTION
  2
ENTITIES
  0
LINE
  8
0
 62
     0
 10
0.228896
 20
0.242458
 30
0.0
 11
0.22385
 21
0.268608
 31
0.0
  0
LINE
  8
0
 62
     0
 10
0.22385
 20
0.268608
 30
0.0
 11
0.208876
 21
0.289985
 31
0.0
  0
LINE
  8
0
 62
     0
 10
0.208876
 20
0.289985
 30
0.0
 11
0.186794
 21
0.304633
 31
0.0
  0
LINE
  8
0
 62
     0
 10
0.186794
 20
0.304633
 30
0.0
 11
0.160428
 21
0.309571
 31
0.0
  0
LINE
  8
0
 62
     0
 10
0.160428
 20
0.309571
 30
0.0
 11
0.0679796
 21
0.309571
 31
0.0
  0
LINE
  8
0
 62
     0
 10
0.0679796
 20
0.309571
 30
0.0
 11
0.0419379
 21
0.304633
 31
0.0
  0
LINE
  8
0
 62
     0
 10
0.0419379
 20
0.304633
 30
0.0
 11
0.0200196
 21
0.289985
 31
0.0
  0
LINE
  8
0
 62
     0
 10
0.0200196
 20
0.289985
 30
0.0
 11
0.00499132
 21
0.268446
 31
0.0
  0
LINE
  8
0
 62
     0
 10
0.00499132
 20
0.268446
 30
0.0
 11
0
 21
0.242458
 31
0.0
  0
LINE
  8
0
 62
     0
 10
0
 20
0.242458
 30
0.0
 11
0
 21
0.193087
 31
0.0
  0
LINE
  8
0
 62
     0
 10
0
 20
0.193087
 30
0.0
 11
0.00824653
 21
0.171332
 31
0.0
  0
LINE
  8
0
 62
     0
 10
0.00824653
 20
0.171332
 30
0.0
 11
0.0302192
 21
0.162869
 31
0.0
  0
LINE
  8
0
 62
     0
 10
0.0302192
 20
0.162869
 30
0.0
 11
0.0523546
 21
0.171332
 31
0.0
  0
LINE
  8
0
 62
     0
 10
0.0523546
 20
0.171332
 30
0.0
 11
0.0608724
 21
0.193087
 31
0.0
  0
LINE
  8
0
 62
     0
 10
0.0608724
 20
0.193087
 30
0.0
 11
0.0608724
 21
0.25
 31
0.0
  0
LINE
  8
0
 62
     0
 10
0.0608724
 20
0.25
 30
0.0
 11
0.167535
 21
0.250433
 31
0.0
  0
LINE
  8
0
 62
     0
 10
0.167535
 20
0.250433
 30
0.0
 11
0.167535
 21
0.143338
 31
0.0
  0
LINE
  8
0
 62
     0
 10
0.167535
 20
0.143338
 30
0.0
 11
0.0302192
 21
0.143338
 31
0.0
  0
LINE
  8
0
 62
     0
 10
0.0302192
 20
0.143338
 30
0.0
 11
0.00922308
 21
0.134332
 31
0.0
  0
LINE
  8
0
 62
     0
 10
0.00922308
 20
0.134332
 30
0.0
 11
0
 21
0.113553
 31
0.0
  0
LINE
  8
0
 62
     0
 10
0
 20
0.113553
 30
0.0
 11
0
 21
0.0304363
 31
0.0
  0
LINE
  8
0
 62
     0
 10
0
 20
0.0304363
 30
0.0
 11
0.00840929
 21
0.00889757
 31
0.0
  0
LINE
  8
0
 62
     0
 10
0.00840929
 20
0.00889757
 30
0.0
 11
0.0302192
 21
0.000651042
 31
0.0
  0
LINE
  8
0
 62
     0
 10
0.0302192
 20
0.000651042
 30
0.0
 11
0.0521918
 21
0.00889757
 31
0.0
  0
LINE
  8
0
 62
     0
 10
0.0521918
 20
0.00889757
 30
0.0
 11
0.0608724
 21
0.0304363
 31
0.0
  0
LINE
  8
0
 62
     0
 10
0.0608724
 20
0.0304363
 30
0.0
 11
0.0608724
 21
0.0833333
 31
0.0
  0
LINE
  8
0
 62
     0
 10
0.0608724
 20
0.0833333
 30
0.0
 11
0.160428
 21
0.0833333
 31
0.0
  0
LINE
  8
0
 62
     0
 10
0.160428
 20
0.0833333
 30
0.0
 11
0.186794
 21
0.0883247
 31
0.0
  0
LINE
  8
0
 62
     0
 10
0.186794
 20
0.0883247
 30
0.0
 11
0.208876
 21
0.102865
 31
0.0
  0
LINE
  8
0
 62
     0
 10
0.208876
 20
0.102865
 30
0.0
 11
0.22385
 21
0.124566
 31
0.0
  0
LINE
  8
0
 62
     0
 10
0.22385
 20
0.124566
 30
0.0
 11
0.228896
 21
0.150879
 31
0.0
  0
LINE
  8
0
 62
     0
 10
0.228896
 20
0.150879
 30
0.0
 11
0.228896
 21
0.242458
 31
0.0
  0
ENDSEC
  0
EOF
