  0
SECTION
  2
HEADER
  9
$ACADVER
  1
AC1009
  9
$EXTMIN
 10
0.0
 20
0.0
 30
0.0
  9
$EXTMAX
 10
1000.0
 20
1000.0
 30
0.0
  9
$FILLMODE
 70
 0
  9
$SPLFRAME
 70
 1
  0
ENDSEC
  0
SECTION
  2
TABLES
  0
TABLE
  2
LAYER
 70
1
  0
LAYER
  2
0
 70
     0
 62
     7
  6
CONTINUOUS
  0
ENDTAB
  0
ENDSEC
  0
SECTION
  2
ENTITIES
  0
LINE
  8
0
 62
     0
 10
0.12934
 20
0.257324
 30
0.0
 11
0.113336
 21
0.296875
 31
0.0
  0
LINE
  8
0
 62
     0
 10
0.113336
 20
0.296875
 30
0.0
 11
0.0737847
 21
0.312879
 31
0.0
  0
LINE
  8
0
 62
     0
 10
0.0737847
 20
0.312879
 30
0.0
 11
0.0342339
 21
0.296875
 31
0.0
  0
LINE
  8
0
 62
     0
 10
0.0342339
 20
0.296875
 30
0.0
 11
0.0182292
 21
0.257324
 31
0.0
  0
LINE
  8
0
 62
     0
 10
0.0182292
 20
0.257324
 30
0.0
 11
0.0342339
 21
0.217774
 31
0.0
  0
LINE
  8
0
 62
     0
 10
0.0342339
 20
0.217774
 30
0.0
 11
0.0737847
 21
0.201768
 31
0.0
  0
LINE
  8
0
 62
     0
 10
0.0737847
 20
0.201768
 30
0.0
 11
0.113336
 21
0.217774
 31
0.0
  0
LINE
  8
0
 62
     0
 10
0.113336
 20
0.217774
 30
0.0
 11
0.12934
 21
0.257324
 31
0.0
  0
LINE
  8
0
 62
     0
 10
0.210667
 20
0.278211
 30
0.0
 11
0.204915
 21
0.293511
 31
0.0
  0
LINE
  8
0
 62
     0
 10
0.204915
 20
0.293511
 30
0.0
 11
0.188911
 21
0.2991
 31
0.0
  0
LINE
  8
0
 62
     0
 10
0.188911
 20
0.2991
 30
0.0
 11
0.17334
 21
0.293511
 31
0.0
  0
LINE
  8
0
 62
     0
 10
0.17334
 20
0.293511
 30
0.0
 11
0.167535
 21
0.278211
 31
0.0
  0
LINE
  8
0
 62
     0
 10
0.167535
 20
0.278211
 30
0.0
 11
0.167535
 21
0.174642
 31
0.0
  0
LINE
  8
0
 62
     0
 10
0.167535
 20
0.174642
 30
0.0
 11
0.0591363
 21
0.174642
 31
0.0
  0
LINE
  8
0
 62
     0
 10
0.0591363
 20
0.174642
 30
0.0
 11
0.0173068
 21
0.157769
 31
0.0
  0
LINE
  8
0
 62
     0
 10
0.0173068
 20
0.157769
 30
0.0
 11
0
 21
0.116428
 31
0.0
  0
LINE
  8
0
 62
     0
 10
0
 20
0.116428
 30
0.0
 11
0
 21
0.0302192
 31
0.0
  0
LINE
  8
0
 62
     0
 10
0
 20
0.0302192
 30
0.0
 11
0.00580512
 21
0.0147569
 31
0.0
  0
LINE
  8
0
 62
     0
 10
0.00580512
 20
0.0147569
 30
0.0
 11
0.0213217
 21
0.00889757
 31
0.0
  0
LINE
  8
0
 62
     0
 10
0.0213217
 20
0.00889757
 30
0.0
 11
0.0370551
 21
0.0149197
 31
0.0
  0
LINE
  8
0
 62
     0
 10
0.0370551
 20
0.0149197
 30
0.0
 11
0.0431315
 21
0.0302192
 31
0.0
  0
LINE
  8
0
 62
     0
 10
0.0431315
 20
0.0302192
 30
0.0
 11
0.0431315
 21
0.132867
 31
0.0
  0
LINE
  8
0
 62
     0
 10
0.0431315
 20
0.132867
 30
0.0
 11
0.151096
 21
0.132867
 31
0.0
  0
LINE
  8
0
 62
     0
 10
0.151096
 20
0.132867
 30
0.0
 11
0.192871
 21
0.151531
 31
0.0
  0
LINE
  8
0
 62
     0
 10
0.192871
 20
0.151531
 30
0.0
 11
0.210667
 21
0.194661
 31
0.0
  0
LINE
  8
0
 62
     0
 10
0.210667
 20
0.194661
 30
0.0
 11
0.210667
 21
0.278211
 31
0.0
  0
LINE
  8
0
 62
     0
 10
0.192003
 20
0.0502387
 30
0.0
 11
0.175999
 21
0.0897894
 31
0.0
  0
LINE
  8
0
 62
     0
 10
0.175999
 20
0.0897894
 30
0.0
 11
0.136447
 21
0.105794
 31
0.0
  0
LINE
  8
0
 62
     0
 10
0.136447
 20
0.105794
 30
0.0
 11
0.0968967
 21
0.0897894
 31
0.0
  0
LINE
  8
0
 62
     0
 10
0.0968967
 20
0.0897894
 30
0.0
 11
0.0808919
 21
0.0502387
 31
0.0
  0
LINE
  8
0
 62
     0
 10
0.0808919
 20
0.0502387
 30
0.0
 11
0.0968967
 21
0.0106879
 31
0.0
  0
LINE
  8
0
 62
     0
 10
0.0968967
 20
0.0106879
 30
0.0
 11
0.136447
 21
-0.00531683
 31
0.0
  0
LINE
  8
0
 62
     0
 10
0.136447
 20
-0.00531683
 30
0.0
 11
0.175999
 21
0.0106879
 31
0.0
  0
LINE
  8
0
 62
     0
 10
0.175999
 20
0.0106879
 30
0.0
 11
0.192003
 21
0.0502387
 31
0.0
  0
LINE
  8
0
 62
     0
 10
0.0959744
 20
0.257324
 30
0.0
 11
0.0895182
 21
0.24159
 31
0.0
  0
LINE
  8
0
 62
     0
 10
0.0895182
 20
0.24159
 30
0.0
 11
0.0737847
 21
0.235135
 31
0.0
  0
LINE
  8
0
 62
     0
 10
0.0737847
 20
0.235135
 30
0.0
 11
0.0579428
 21
0.24159
 31
0.0
  0
LINE
  8
0
 62
     0
 10
0.0579428
 20
0.24159
 30
0.0
 11
0.0515408
 21
0.257324
 31
0.0
  0
LINE
  8
0
 62
     0
 10
0.0515408
 20
0.257324
 30
0.0
 11
0.0579428
 21
0.273167
 31
0.0
  0
LINE
  8
0
 62
     0
 10
0.0579428
 20
0.273167
 30
0.0
 11
0.0737847
 21
0.279568
 31
0.0
  0
LINE
  8
0
 62
     0
 10
0.0737847
 20
0.279568
 30
0.0
 11
0.0895182
 21
0.273167
 31
0.0
  0
LINE
  8
0
 62
     0
 10
0.0895182
 20
0.273167
 30
0.0
 11
0.0959744
 21
0.257324
 31
0.0
  0
LINE
  8
0
 62
     0
 10
0.156901
 20
0.0502387
 30
0.0
 11
0.150825
 21
0.0360786
 31
0.0
  0
LINE
  8
0
 62
     0
 10
0.150825
 20
0.0360786
 30
0.0
 11
0.136447
 21
0.0302192
 31
0.0
  0
LINE
  8
0
 62
     0
 10
0.136447
 20
0.0302192
 30
0.0
 11
0.122016
 21
0.0360786
 31
0.0
  0
LINE
  8
0
 62
     0
 10
0.122016
 20
0.0360786
 30
0.0
 11
0.115994
 21
0.0502387
 31
0.0
  0
LINE
  8
0
 62
     0
 10
0.115994
 20
0.0502387
 30
0.0
 11
0.122016
 21
0.0646158
 31
0.0
  0
LINE
  8
0
 62
     0
 10
0.122016
 20
0.0646158
 30
0.0
 11
0.136447
 21
0.0706922
 31
0.0
  0
LINE
  8
0
 62
     0
 10
0.136447
 20
0.0706922
 30
0.0
 11
0.150825
 21
0.0646158
 31
0.0
  0
LINE
  8
0
 62
     0
 10
0.150825
 20
0.0646158
 30
0.0
 11
0.156901
 21
0.0502387
 31
0.0
  0
ENDSEC
  0
EOF
