  0
SECTION
  2
HEADER
  9
$ACADVER
  1
AC1009
  9
$EXTMIN
 10
0.0
 20
0.0
 30
0.0
  9
$EXTMAX
 10
1000.0
 20
1000.0
 30
0.0
  9
$FILLMODE
 70
 0
  9
$SPLFRAME
 70
 1
  0
ENDSEC
  0
SECTION
  2
TABLES
  0
TABLE
  2
LAYER
 70
1
  0
LAYER
  2
0
 70
     0
 62
     7
  6
CONTINUOUS
  0
ENDTAB
  0
ENDSEC
  0
SECTION
  2
ENTITIES
  0
LINE
  8
0
 62
     0
 10
0.228896
 20
0.113553
 30
0.0
 11
0.219618
 21
0.134332
 31
0.0
  0
LINE
  8
0
 62
     0
 10
0.219618
 20
0.134332
 30
0.0
 11
0.198676
 21
0.143338
 31
0.0
  0
LINE
  8
0
 62
     0
 10
0.198676
 20
0.143338
 30
0.0
 11
0.0608724
 21
0.143338
 31
0.0
  0
LINE
  8
0
 62
     0
 10
0.0608724
 20
0.143338
 30
0.0
 11
0.0608724
 21
0.25
 31
0.0
  0
LINE
  8
0
 62
     0
 10
0.0608724
 20
0.25
 30
0.0
 11
0.168024
 21
0.25
 31
0.0
  0
LINE
  8
0
 62
     0
 10
0.168024
 20
0.25
 30
0.0
 11
0.168024
 21
0.194011
 31
0.0
  0
LINE
  8
0
 62
     0
 10
0.168024
 20
0.194011
 30
0.0
 11
0.176486
 21
0.172254
 31
0.0
  0
LINE
  8
0
 62
     0
 10
0.176486
 20
0.172254
 30
0.0
 11
0.198676
 21
0.163792
 31
0.0
  0
LINE
  8
0
 62
     0
 10
0.198676
 20
0.163792
 30
0.0
 11
0.220432
 21
0.172254
 31
0.0
  0
LINE
  8
0
 62
     0
 10
0.220432
 20
0.172254
 30
0.0
 11
0.228896
 21
0.194011
 31
0.0
  0
LINE
  8
0
 62
     0
 10
0.228896
 20
0.194011
 30
0.0
 11
0.228896
 21
0.242893
 31
0.0
  0
LINE
  8
0
 62
     0
 10
0.228896
 20
0.242893
 30
0.0
 11
0.22385
 21
0.269043
 31
0.0
  0
LINE
  8
0
 62
     0
 10
0.22385
 20
0.269043
 30
0.0
 11
0.208876
 21
0.290419
 31
0.0
  0
LINE
  8
0
 62
     0
 10
0.208876
 20
0.290419
 30
0.0
 11
0.186794
 21
0.305067
 31
0.0
  0
LINE
  8
0
 62
     0
 10
0.186794
 20
0.305067
 30
0.0
 11
0.160428
 21
0.310004
 31
0.0
  0
LINE
  8
0
 62
     0
 10
0.160428
 20
0.310004
 30
0.0
 11
0.0679796
 21
0.310004
 31
0.0
  0
LINE
  8
0
 62
     0
 10
0.0679796
 20
0.310004
 30
0.0
 11
0.0415582
 21
0.305067
 31
0.0
  0
LINE
  8
0
 62
     0
 10
0.0415582
 20
0.305067
 30
0.0
 11
0.0195313
 21
0.290419
 31
0.0
  0
LINE
  8
0
 62
     0
 10
0.0195313
 20
0.290419
 30
0.0
 11
0.00493707
 21
0.269043
 31
0.0
  0
LINE
  8
0
 62
     0
 10
0.00493707
 20
0.269043
 30
0.0
 11
0
 21
0.242893
 31
0.0
  0
LINE
  8
0
 62
     0
 10
0
 20
0.242893
 30
0.0
 11
0
 21
0.148654
 31
0.0
  0
LINE
  8
0
 62
     0
 10
0
 20
0.148654
 30
0.0
 11
0.0195313
 21
0.102865
 31
0.0
  0
LINE
  8
0
 62
     0
 10
0.0195313
 20
0.102865
 30
0.0
 11
0.0415582
 21
0.0883247
 31
0.0
  0
LINE
  8
0
 62
     0
 10
0.0415582
 20
0.0883247
 30
0.0
 11
0.0679796
 21
0.0833333
 31
0.0
  0
LINE
  8
0
 62
     0
 10
0.0679796
 20
0.0833333
 30
0.0
 11
0.168024
 21
0.0833333
 31
0.0
  0
LINE
  8
0
 62
     0
 10
0.168024
 20
0.0833333
 30
0.0
 11
0.168024
 21
0.0304363
 31
0.0
  0
LINE
  8
0
 62
     0
 10
0.168024
 20
0.0304363
 30
0.0
 11
0.17665
 21
0.00889757
 31
0.0
  0
LINE
  8
0
 62
     0
 10
0.17665
 20
0.00889757
 30
0.0
 11
0.198676
 21
0.000651042
 31
0.0
  0
LINE
  8
0
 62
     0
 10
0.198676
 20
0.000651042
 30
0.0
 11
0.220432
 21
0.00889757
 31
0.0
  0
LINE
  8
0
 62
     0
 10
0.220432
 20
0.00889757
 30
0.0
 11
0.228896
 21
0.0304363
 31
0.0
  0
LINE
  8
0
 62
     0
 10
0.228896
 20
0.0304363
 30
0.0
 11
0.228896
 21
0.113553
 31
0.0
  0
ENDSEC
  0
EOF
