  0
SECTION
  2
HEADER
  9
$ACADVER
  1
AC1009
  9
$EXTMIN
 10
0.0
 20
0.0
 30
0.0
  9
$EXTMAX
 10
1000.0
 20
1000.0
 30
0.0
  9
$FILLMODE
 70
 0
  9
$SPLFRAME
 70
 1
  0
ENDSEC
  0
SECTION
  2
TABLES
  0
TABLE
  2
LAYER
 70
1
  0
LAYER
  2
0
 70
     0
 62
     7
  6
CONTINUOUS
  0
ENDTAB
  0
ENDSEC
  0
SECTION
  2
ENTITIES
  0
LINE
  8
0
 62
     0
 10
0.228896
 20
0.0718858
 30
0.0
 11
0.219618
 21
0.092665
 31
0.0
  0
LINE
  8
0
 62
     0
 10
0.219618
 20
0.092665
 30
0.0
 11
0.198676
 21
0.101671
 31
0.0
  0
LINE
  8
0
 62
     0
 10
0.198676
 20
0.101671
 30
0.0
 11
0.0613064
 21
0.101671
 31
0.0
  0
LINE
  8
0
 62
     0
 10
0.0613064
 20
0.101671
 30
0.0
 11
0.0613064
 21
0.290528
 31
0.0
  0
LINE
  8
0
 62
     0
 10
0.0613064
 20
0.290528
 30
0.0
 11
0.168024
 21
0.290528
 31
0.0
  0
LINE
  8
0
 62
     0
 10
0.168024
 20
0.290528
 30
0.0
 11
0.168024
 21
0.157661
 31
0.0
  0
LINE
  8
0
 62
     0
 10
0.168024
 20
0.157661
 30
0.0
 11
0.176486
 21
0.135905
 31
0.0
  0
LINE
  8
0
 62
     0
 10
0.176486
 20
0.135905
 30
0.0
 11
0.198676
 21
0.127441
 31
0.0
  0
LINE
  8
0
 62
     0
 10
0.198676
 20
0.127441
 30
0.0
 11
0.220594
 21
0.135905
 31
0.0
  0
LINE
  8
0
 62
     0
 10
0.220594
 20
0.135905
 30
0.0
 11
0.228896
 21
0.157661
 31
0.0
  0
LINE
  8
0
 62
     0
 10
0.228896
 20
0.157661
 30
0.0
 11
0.228896
 21
0.282986
 31
0.0
  0
LINE
  8
0
 62
     0
 10
0.228896
 20
0.282986
 30
0.0
 11
0.22385
 21
0.308974
 31
0.0
  0
LINE
  8
0
 62
     0
 10
0.22385
 20
0.308974
 30
0.0
 11
0.208876
 21
0.330567
 31
0.0
  0
LINE
  8
0
 62
     0
 10
0.208876
 20
0.330567
 30
0.0
 11
0.186849
 21
0.345161
 31
0.0
  0
LINE
  8
0
 62
     0
 10
0.186849
 20
0.345161
 30
0.0
 11
0.160861
 21
0.350097
 31
0.0
  0
LINE
  8
0
 62
     0
 10
0.160861
 20
0.350097
 30
0.0
 11
0.0684679
 21
0.350097
 31
0.0
  0
LINE
  8
0
 62
     0
 10
0.0684679
 20
0.350097
 30
0.0
 11
0.0420464
 21
0.345161
 31
0.0
  0
LINE
  8
0
 62
     0
 10
0.0420464
 20
0.345161
 30
0.0
 11
0.0200196
 21
0.330567
 31
0.0
  0
LINE
  8
0
 62
     0
 10
0.0200196
 20
0.330567
 30
0.0
 11
0.00499132
 21
0.309136
 31
0.0
  0
LINE
  8
0
 62
     0
 10
0.00499132
 20
0.309136
 30
0.0
 11
0
 21
0.282986
 31
0.0
  0
LINE
  8
0
 62
     0
 10
0
 20
0.282986
 30
0.0
 11
0
 21
0.109646
 31
0.0
  0
LINE
  8
0
 62
     0
 10
0
 20
0.109646
 30
0.0
 11
0.00499132
 21
0.083279
 31
0.0
  0
LINE
  8
0
 62
     0
 10
0.00499132
 20
0.083279
 30
0.0
 11
0.0200196
 21
0.0611979
 31
0.0
  0
LINE
  8
0
 62
     0
 10
0.0200196
 20
0.0611979
 30
0.0
 11
0.0420464
 21
0.0466581
 31
0.0
  0
LINE
  8
0
 62
     0
 10
0.0420464
 20
0.0466581
 30
0.0
 11
0.0684679
 21
0.0416667
 31
0.0
  0
LINE
  8
0
 62
     0
 10
0.0684679
 20
0.0416667
 30
0.0
 11
0.168024
 21
0.0416667
 31
0.0
  0
LINE
  8
0
 62
     0
 10
0.168024
 20
0.0416667
 30
0.0
 11
0.168024
 21
0.0309787
 31
0.0
  0
LINE
  8
0
 62
     0
 10
0.168024
 20
0.0309787
 30
0.0
 11
0.17665
 21
0.00949436
 31
0.0
  0
LINE
  8
0
 62
     0
 10
0.17665
 20
0.00949436
 30
0.0
 11
0.198676
 21
0.00124783
 31
0.0
  0
LINE
  8
0
 62
     0
 10
0.198676
 20
0.00124783
 30
0.0
 11
0.220432
 21
0.00949436
 31
0.0
  0
LINE
  8
0
 62
     0
 10
0.220432
 20
0.00949436
 30
0.0
 11
0.228896
 21
0.0309787
 31
0.0
  0
LINE
  8
0
 62
     0
 10
0.228896
 20
0.0309787
 30
0.0
 11
0.228896
 21
0.0718858
 31
0.0
  0
ENDSEC
  0
EOF
