  0
SECTION
  2
HEADER
  9
$ACADVER
  1
AC1009
  9
$EXTMIN
 10
0.0
 20
0.0
 30
0.0
  9
$EXTMAX
 10
1000.0
 20
1000.0
 30
0.0
  9
$FILLMODE
 70
 0
  9
$SPLFRAME
 70
 1
  0
ENDSEC
  0
SECTION
  2
TABLES
  0
TABLE
  2
LAYER
 70
1
  0
LAYER
  2
0
 70
     0
 62
     7
  6
CONTINUOUS
  0
ENDTAB
  0
ENDSEC
  0
SECTION
  2
ENTITIES
  0
LINE
  8
0
 62
     0
 10
0.228896
 20
0.0764432
 30
0.0
 11
0.223796
 21
0.102214
 31
0.0
  0
LINE
  8
0
 62
     0
 10
0.223796
 20
0.102214
 30
0.0
 11
0.208442
 21
0.123535
 31
0.0
  0
LINE
  8
0
 62
     0
 10
0.208442
 20
0.123535
 30
0.0
 11
0.186415
 21
0.137967
 31
0.0
  0
LINE
  8
0
 62
     0
 10
0.186415
 20
0.137967
 30
0.0
 11
0.160428
 21
0.142686
 31
0.0
  0
LINE
  8
0
 62
     0
 10
0.160428
 20
0.142686
 30
0.0
 11
0.0608724
 21
0.142686
 31
0.0
  0
LINE
  8
0
 62
     0
 10
0.0608724
 20
0.142686
 30
0.0
 11
0.0608724
 21
0.1671
 31
0.0
  0
LINE
  8
0
 62
     0
 10
0.0608724
 20
0.1671
 30
0.0
 11
0.198676
 21
0.1671
 31
0.0
  0
LINE
  8
0
 62
     0
 10
0.198676
 20
0.1671
 30
0.0
 11
0.220432
 21
0.175347
 31
0.0
  0
LINE
  8
0
 62
     0
 10
0.220432
 20
0.175347
 30
0.0
 11
0.228896
 21
0.196886
 31
0.0
  0
LINE
  8
0
 62
     0
 10
0.228896
 20
0.196886
 30
0.0
 11
0.220432
 21
0.218099
 31
0.0
  0
LINE
  8
0
 62
     0
 10
0.220432
 20
0.218099
 30
0.0
 11
0.198676
 21
0.226238
 31
0.0
  0
LINE
  8
0
 62
     0
 10
0.198676
 20
0.226238
 30
0.0
 11
0.0679796
 21
0.226238
 31
0.0
  0
LINE
  8
0
 62
     0
 10
0.0679796
 20
0.226238
 30
0.0
 11
0.0419379
 21
0.2213
 31
0.0
  0
LINE
  8
0
 62
     0
 10
0.0419379
 20
0.2213
 30
0.0
 11
0.0200196
 21
0.206651
 31
0.0
  0
LINE
  8
0
 62
     0
 10
0.0200196
 20
0.206651
 30
0.0
 11
0.00499132
 21
0.185385
 31
0.0
  0
LINE
  8
0
 62
     0
 10
0.00499132
 20
0.185385
 30
0.0
 11
0
 21
0.159993
 31
0.0
  0
LINE
  8
0
 62
     0
 10
0
 20
0.159993
 30
0.0
 11
0
 21
0.149794
 31
0.0
  0
LINE
  8
0
 62
     0
 10
0
 20
0.149794
 30
0.0
 11
0.00493707
 21
0.124078
 31
0.0
  0
LINE
  8
0
 62
     0
 10
0.00493707
 20
0.124078
 30
0.0
 11
0.0195313
 21
0.102648
 31
0.0
  0
LINE
  8
0
 62
     0
 10
0.0195313
 20
0.102648
 30
0.0
 11
0.0415582
 21
0.0883247
 31
0.0
  0
LINE
  8
0
 62
     0
 10
0.0415582
 20
0.0883247
 30
0.0
 11
0.0679796
 21
0.0835503
 31
0.0
  0
LINE
  8
0
 62
     0
 10
0.0679796
 20
0.0835503
 30
0.0
 11
0.168024
 21
0.0835503
 31
0.0
  0
LINE
  8
0
 62
     0
 10
0.168024
 20
0.0835503
 30
0.0
 11
0.168024
 21
0.0595703
 31
0.0
  0
LINE
  8
0
 62
     0
 10
0.168024
 20
0.0595703
 30
0.0
 11
0.0302192
 21
0.0595703
 31
0.0
  0
LINE
  8
0
 62
     0
 10
0.0302192
 20
0.0595703
 30
0.0
 11
0.00840929
 21
0.0513781
 31
0.0
  0
LINE
  8
0
 62
     0
 10
0.00840929
 20
0.0513781
 30
0.0
 11
0
 21
0.0297851
 31
0.0
  0
LINE
  8
0
 62
     0
 10
0
 20
0.0297851
 30
0.0
 11
0.00840929
 21
0.00824653
 31
0.0
  0
LINE
  8
0
 62
     0
 10
0.00840929
 20
0.00824653
 30
0.0
 11
0.0302192
 21
-0
 31
0.0
  0
LINE
  8
0
 62
     0
 10
0.0302192
 20
-0
 30
0.0
 11
0.160861
 21
-0
 31
0.0
  0
LINE
  8
0
 62
     0
 10
0.160861
 20
-0
 30
0.0
 11
0.186849
 21
0.00477431
 31
0.0
  0
LINE
  8
0
 62
     0
 10
0.186849
 20
0.00477431
 30
0.0
 11
0.208876
 21
0.0190972
 31
0.0
  0
LINE
  8
0
 62
     0
 10
0.208876
 20
0.0190972
 30
0.0
 11
0.22385
 21
0.0405274
 31
0.0
  0
LINE
  8
0
 62
     0
 10
0.22385
 20
0.0405274
 30
0.0
 11
0.228896
 21
0.0662435
 31
0.0
  0
LINE
  8
0
 62
     0
 10
0.228896
 20
0.0662435
 30
0.0
 11
0.228896
 21
0.0764432
 31
0.0
  0
ENDSEC
  0
EOF
