  0
SECTION
  2
HEADER
  9
$ACADVER
  1
AC1009
  9
$EXTMIN
 10
0.0
 20
0.0
 30
0.0
  9
$EXTMAX
 10
1000.0
 20
1000.0
 30
0.0
  9
$FILLMODE
 70
 0
  9
$SPLFRAME
 70
 1
  0
ENDSEC
  0
SECTION
  2
TABLES
  0
TABLE
  2
LAYER
 70
1
  0
LAYER
  2
0
 70
     0
 62
     7
  6
CONTINUOUS
  0
ENDTAB
  0
ENDSEC
  0
SECTION
  2
ENTITIES
  0
LINE
  8
0
 62
     0
 10
0.228896
 20
0.116862
 30
0.0
 11
0.21289
 21
0.155544
 31
0.0
  0
LINE
  8
0
 62
     0
 10
0.21289
 20
0.155544
 30
0.0
 11
0.224881
 21
0.171007
 31
0.0
  0
LINE
  8
0
 62
     0
 10
0.224881
 20
0.171007
 30
0.0
 11
0.228896
 21
0.192438
 31
0.0
  0
LINE
  8
0
 62
     0
 10
0.228896
 20
0.192438
 30
0.0
 11
0.228896
 21
0.278211
 31
0.0
  0
LINE
  8
0
 62
     0
 10
0.228896
 20
0.278211
 30
0.0
 11
0.220594
 21
0.300185
 31
0.0
  0
LINE
  8
0
 62
     0
 10
0.220594
 20
0.300185
 30
0.0
 11
0.198676
 21
0.308431
 31
0.0
  0
LINE
  8
0
 62
     0
 10
0.198676
 20
0.308431
 30
0.0
 11
0.17665
 21
0.300022
 31
0.0
  0
LINE
  8
0
 62
     0
 10
0.17665
 20
0.300022
 30
0.0
 11
0.168024
 21
0.278211
 31
0.0
  0
LINE
  8
0
 62
     0
 10
0.168024
 20
0.278211
 30
0.0
 11
0.167535
 21
0.183974
 31
0.0
  0
LINE
  8
0
 62
     0
 10
0.167535
 20
0.183974
 30
0.0
 11
0.0608724
 21
0.183974
 31
0.0
  0
LINE
  8
0
 62
     0
 10
0.0608724
 20
0.183974
 30
0.0
 11
0.0608724
 21
0.278211
 31
0.0
  0
LINE
  8
0
 62
     0
 10
0.0608724
 20
0.278211
 30
0.0
 11
0.0523546
 21
0.300185
 31
0.0
  0
LINE
  8
0
 62
     0
 10
0.0523546
 20
0.300185
 30
0.0
 11
0.0302192
 21
0.308431
 31
0.0
  0
LINE
  8
0
 62
     0
 10
0.0302192
 20
0.308431
 30
0.0
 11
0.00824653
 21
0.300185
 31
0.0
  0
LINE
  8
0
 62
     0
 10
0.00824653
 20
0.300185
 30
0.0
 11
0
 21
0.278211
 31
0.0
  0
LINE
  8
0
 62
     0
 10
0
 20
0.278211
 30
0.0
 11
0
 21
0.192438
 31
0.0
  0
LINE
  8
0
 62
     0
 10
0
 20
0.192438
 30
0.0
 11
0.0039605
 21
0.169433
 31
0.0
  0
LINE
  8
0
 62
     0
 10
0.0039605
 20
0.169433
 30
0.0
 11
0.0160047
 21
0.154676
 31
0.0
  0
LINE
  8
0
 62
     0
 10
0.0160047
 20
0.154676
 30
0.0
 11
0.0039605
 21
0.138401
 31
0.0
  0
LINE
  8
0
 62
     0
 10
0.0039605
 20
0.138401
 30
0.0
 11
0
 21
0.112468
 31
0.0
  0
LINE
  8
0
 62
     0
 10
0
 20
0.112468
 30
0.0
 11
0
 21
0.0306532
 31
0.0
  0
LINE
  8
0
 62
     0
 10
0
 20
0.0306532
 30
0.0
 11
0.00824653
 21
0.00851779
 31
0.0
  0
LINE
  8
0
 62
     0
 10
0.00824653
 20
0.00851779
 30
0.0
 11
0.0302192
 21
-0
 31
0.0
  0
LINE
  8
0
 62
     0
 10
0.0302192
 20
-0
 30
0.0
 11
0.0521918
 21
0.00868056
 31
0.0
  0
LINE
  8
0
 62
     0
 10
0.0521918
 20
0.00868056
 30
0.0
 11
0.0608724
 21
0.0306532
 31
0.0
  0
LINE
  8
0
 62
     0
 10
0.0608724
 20
0.0306532
 30
0.0
 11
0.0608724
 21
0.124023
 31
0.0
  0
LINE
  8
0
 62
     0
 10
0.0608724
 20
0.124023
 30
0.0
 11
0.168024
 21
0.124023
 31
0.0
  0
LINE
  8
0
 62
     0
 10
0.168024
 20
0.124023
 30
0.0
 11
0.168024
 21
0.0306532
 31
0.0
  0
LINE
  8
0
 62
     0
 10
0.168024
 20
0.0306532
 30
0.0
 11
0.176486
 21
0.00851779
 31
0.0
  0
LINE
  8
0
 62
     0
 10
0.176486
 20
0.00851779
 30
0.0
 11
0.198676
 21
-0
 31
0.0
  0
LINE
  8
0
 62
     0
 10
0.198676
 20
-0
 30
0.0
 11
0.220432
 21
0.00868056
 31
0.0
  0
LINE
  8
0
 62
     0
 10
0.220432
 20
0.00868056
 30
0.0
 11
0.228896
 21
0.0306532
 31
0.0
  0
LINE
  8
0
 62
     0
 10
0.228896
 20
0.0306532
 30
0.0
 11
0.228896
 21
0.116862
 31
0.0
  0
ENDSEC
  0
EOF
