  0
SECTION
  2
HEADER
  9
$ACADVER
  1
AC1009
  9
$EXTMIN
 10
0.0
 20
0.0
 30
0.0
  9
$EXTMAX
 10
1000.0
 20
1000.0
 30
0.0
  9
$FILLMODE
 70
 0
  9
$SPLFRAME
 70
 1
  0
ENDSEC
  0
SECTION
  2
TABLES
  0
TABLE
  2
LAYER
 70
1
  0
LAYER
  2
0
 70
     0
 62
     7
  6
CONTINUOUS
  0
ENDTAB
  0
ENDSEC
  0
SECTION
  2
ENTITIES
  0
LINE
  8
0
 62
     0
 10
0.228896
 20
0.0302192
 30
0.0
 11
0.220432
 21
0.0511068
 31
0.0
  0
LINE
  8
0
 62
     0
 10
0.220432
 20
0.0511068
 30
0.0
 11
0.198676
 21
0.0595703
 31
0.0
  0
LINE
  8
0
 62
     0
 10
0.198676
 20
0.0595703
 30
0.0
 11
0.0608724
 21
0.0595703
 31
0.0
  0
LINE
  8
0
 62
     0
 10
0.0608724
 20
0.0595703
 30
0.0
 11
0.0608724
 21
0.0831164
 31
0.0
  0
LINE
  8
0
 62
     0
 10
0.0608724
 20
0.0831164
 30
0.0
 11
0.160428
 21
0.0831164
 31
0.0
  0
LINE
  8
0
 62
     0
 10
0.160428
 20
0.0831164
 30
0.0
 11
0.188531
 21
0.0879449
 31
0.0
  0
LINE
  8
0
 62
     0
 10
0.188531
 20
0.0879449
 30
0.0
 11
0.210124
 21
0.101725
 31
0.0
  0
LINE
  8
0
 62
     0
 10
0.210124
 20
0.101725
 30
0.0
 11
0.223958
 21
0.123427
 31
0.0
  0
LINE
  8
0
 62
     0
 10
0.223958
 20
0.123427
 30
0.0
 11
0.228896
 21
0.152018
 31
0.0
  0
LINE
  8
0
 62
     0
 10
0.228896
 20
0.152018
 30
0.0
 11
0.228896
 21
0.196451
 31
0.0
  0
LINE
  8
0
 62
     0
 10
0.228896
 20
0.196451
 30
0.0
 11
0.219618
 21
0.217393
 31
0.0
  0
LINE
  8
0
 62
     0
 10
0.219618
 20
0.217393
 30
0.0
 11
0.198676
 21
0.226238
 31
0.0
  0
LINE
  8
0
 62
     0
 10
0.198676
 20
0.226238
 30
0.0
 11
0.0302192
 21
0.226238
 31
0.0
  0
LINE
  8
0
 62
     0
 10
0.0302192
 20
0.226238
 30
0.0
 11
0.00824653
 21
0.218099
 31
0.0
  0
LINE
  8
0
 62
     0
 10
0.00824653
 20
0.218099
 30
0.0
 11
0
 21
0.196886
 31
0.0
  0
LINE
  8
0
 62
     0
 10
0
 20
0.196886
 30
0.0
 11
0.00824653
 21
0.17551
 31
0.0
  0
LINE
  8
0
 62
     0
 10
0.00824653
 20
0.17551
 30
0.0
 11
0.0302192
 21
0.1671
 31
0.0
  0
LINE
  8
0
 62
     0
 10
0.0302192
 20
0.1671
 30
0.0
 11
0.168892
 21
0.1671
 31
0.0
  0
LINE
  8
0
 62
     0
 10
0.168892
 20
0.1671
 30
0.0
 11
0.168892
 21
0.141331
 31
0.0
  0
LINE
  8
0
 62
     0
 10
0.168892
 20
0.141331
 30
0.0
 11
0.0675456
 21
0.141331
 31
0.0
  0
LINE
  8
0
 62
     0
 10
0.0675456
 20
0.141331
 30
0.0
 11
0.0411783
 21
0.136339
 31
0.0
  0
LINE
  8
0
 62
     0
 10
0.0411783
 20
0.136339
 30
0.0
 11
0.0195313
 21
0.121311
 31
0.0
  0
LINE
  8
0
 62
     0
 10
0.0195313
 20
0.121311
 30
0.0
 11
0.00493707
 21
0.0990668
 31
0.0
  0
LINE
  8
0
 62
     0
 10
0.00493707
 20
0.0990668
 30
0.0
 11
0
 21
0.0724283
 31
0.0
  0
LINE
  8
0
 62
     0
 10
0
 20
0.0724283
 30
0.0
 11
0
 21
0.0306532
 31
0.0
  0
LINE
  8
0
 62
     0
 10
0
 20
0.0306532
 30
0.0
 11
0.00906033
 21
0.0093316
 31
0.0
  0
LINE
  8
0
 62
     0
 10
0.00906033
 20
0.0093316
 30
0.0
 11
0.0302192
 21
-0
 31
0.0
  0
LINE
  8
0
 62
     0
 10
0.0302192
 20
-0
 30
0.0
 11
0.198676
 21
-0
 31
0.0
  0
LINE
  8
0
 62
     0
 10
0.198676
 20
-0
 30
0.0
 11
0.220432
 21
0.00846354
 31
0.0
  0
LINE
  8
0
 62
     0
 10
0.220432
 20
0.00846354
 30
0.0
 11
0.228896
 21
0.0302192
 31
0.0
  0
ENDSEC
  0
EOF
