  0
SECTION
  2
HEADER
  9
$ACADVER
  1
AC1009
  9
$EXTMIN
 10
0.0
 20
0.0
 30
0.0
  9
$EXTMAX
 10
1000.0
 20
1000.0
 30
0.0
  9
$FILLMODE
 70
 0
  9
$SPLFRAME
 70
 1
  0
ENDSEC
  0
SECTION
  2
TABLES
  0
TABLE
  2
LAYER
 70
1
  0
LAYER
  2
0
 70
     0
 62
     7
  6
CONTINUOUS
  0
ENDTAB
  0
ENDSEC
  0
SECTION
  2
ENTITIES
  0
LINE
  8
0
 62
     0
 10
0.168457
 20
0.184461
 30
0.0
 11
0.0679796
 21
0.184461
 31
0.0
  0
LINE
  8
0
 62
     0
 10
0.0679796
 20
0.184461
 30
0.0
 11
0.0423178
 21
0.179417
 31
0.0
  0
LINE
  8
0
 62
     0
 10
0.0423178
 20
0.179417
 30
0.0
 11
0.0200196
 21
0.164008
 31
0.0
  0
LINE
  8
0
 62
     0
 10
0.0200196
 20
0.164008
 30
0.0
 11
0.00499132
 21
0.142036
 31
0.0
  0
LINE
  8
0
 62
     0
 10
0.00499132
 20
0.142036
 30
0.0
 11
0
 21
0.115994
 31
0.0
  0
LINE
  8
0
 62
     0
 10
0
 20
0.115994
 30
0.0
 11
0
 21
0.0306532
 31
0.0
  0
LINE
  8
0
 62
     0
 10
0
 20
0.0306532
 30
0.0
 11
0.00906033
 21
0.0093316
 31
0.0
  0
LINE
  8
0
 62
     0
 10
0.00906033
 20
0.0093316
 30
0.0
 11
0.0302192
 21
-0
 31
0.0
  0
LINE
  8
0
 62
     0
 10
0.0302192
 20
-0
 30
0.0
 11
0.198676
 21
-0
 31
0.0
  0
LINE
  8
0
 62
     0
 10
0.198676
 20
-0
 30
0.0
 11
0.220432
 21
0.00868056
 31
0.0
  0
LINE
  8
0
 62
     0
 10
0.220432
 20
0.00868056
 30
0.0
 11
0.228896
 21
0.0306532
 31
0.0
  0
LINE
  8
0
 62
     0
 10
0.228896
 20
0.0306532
 30
0.0
 11
0.220432
 21
0.0524631
 31
0.0
  0
LINE
  8
0
 62
     0
 10
0.220432
 20
0.0524631
 30
0.0
 11
0.198676
 21
0.0608724
 31
0.0
  0
LINE
  8
0
 62
     0
 10
0.198676
 20
0.0608724
 30
0.0
 11
0.0608724
 21
0.0608724
 31
0.0
  0
LINE
  8
0
 62
     0
 10
0.0608724
 20
0.0608724
 30
0.0
 11
0.0608724
 21
0.123101
 31
0.0
  0
LINE
  8
0
 62
     0
 10
0.0608724
 20
0.123101
 30
0.0
 11
0.160428
 21
0.123101
 31
0.0
  0
LINE
  8
0
 62
     0
 10
0.160428
 20
0.123101
 30
0.0
 11
0.186794
 21
0.128147
 31
0.0
  0
LINE
  8
0
 62
     0
 10
0.186794
 20
0.128147
 30
0.0
 11
0.208876
 21
0.143121
 31
0.0
  0
LINE
  8
0
 62
     0
 10
0.208876
 20
0.143121
 30
0.0
 11
0.22385
 21
0.165201
 31
0.0
  0
LINE
  8
0
 62
     0
 10
0.22385
 20
0.165201
 30
0.0
 11
0.228896
 21
0.191569
 31
0.0
  0
LINE
  8
0
 62
     0
 10
0.228896
 20
0.191569
 30
0.0
 11
0.228896
 21
0.278211
 31
0.0
  0
LINE
  8
0
 62
     0
 10
0.228896
 20
0.278211
 30
0.0
 11
0.219781
 21
0.299154
 31
0.0
  0
LINE
  8
0
 62
     0
 10
0.219781
 20
0.299154
 30
0.0
 11
0.198676
 21
0.307997
 31
0.0
  0
LINE
  8
0
 62
     0
 10
0.198676
 20
0.307997
 30
0.0
 11
0.0302192
 21
0.307997
 31
0.0
  0
LINE
  8
0
 62
     0
 10
0.0302192
 20
0.307997
 30
0.0
 11
0.00824653
 21
0.299968
 31
0.0
  0
LINE
  8
0
 62
     0
 10
0.00824653
 20
0.299968
 30
0.0
 11
0
 21
0.278211
 31
0.0
  0
LINE
  8
0
 62
     0
 10
0
 20
0.278211
 30
0.0
 11
0.00824653
 21
0.256456
 31
0.0
  0
LINE
  8
0
 62
     0
 10
0.00824653
 20
0.256456
 30
0.0
 11
0.0302192
 21
0.247993
 31
0.0
  0
LINE
  8
0
 62
     0
 10
0.0302192
 20
0.247993
 30
0.0
 11
0.168024
 21
0.247993
 31
0.0
  0
LINE
  8
0
 62
     0
 10
0.168024
 20
0.247993
 30
0.0
 11
0.168024
 21
0.183974
 31
0.0
  0
LINE
  8
0
 62
     0
 10
0.168024
 20
0.183974
 30
0.0
 11
0.168457
 21
0.184461
 31
0.0
  0
ENDSEC
  0
EOF
