solid OpenSCAD_Model
  facet normal -0.282081 0.868157 0.40833
    outer loop
      vertex -11.642 3.7827 0.681561
      vertex -12.1353 3.94298 0
      vertex -12.1373 3.94232 0
    endloop
  endfacet
  facet normal -0.808733 -0.262773 0.526214
    outer loop
      vertex -7.19512 -9.90324 0.681561
      vertex -6.3817 -8.76521 2.5
      vertex -7.50203 -10.3235 0
    endloop
  endfacet
  facet normal -0.808733 -0.262773 0.526214
    outer loop
      vertex -7.50203 -10.3235 0
      vertex -6.3817 -8.76521 2.5
      vertex -10.315 3.34014 2.5
    endloop
  endfacet
  facet normal -0.808733 -0.262773 0.526214
    outer loop
      vertex -7.50203 -10.3235 0
      vertex -10.315 3.34014 2.5
      vertex -11.642 3.7827 0.681561
    endloop
  endfacet
  facet normal -0.808733 -0.262773 0.526214
    outer loop
      vertex -7.50203 -10.3235 0
      vertex -11.642 3.7827 0.681561
      vertex -12.1373 3.94232 0
    endloop
  endfacet
  facet normal 0 0 -1
    outer loop
      vertex -12.1373 3.94232 0
      vertex -12.1353 3.94298 0
      vertex -7.50203 -10.3235 0
    endloop
  endfacet
  facet normal 0 0 -1
    outer loop
      vertex -0.00125527 12.7615 0
      vertex -12.1353 3.94298 0
      vertex -12.1365 3.94471 0
    endloop
  endfacet
  facet normal 0 0 -1
    outer loop
      vertex -7.72938 2.51143 0
      vertex -12.1353 3.94298 0
      vertex -0.00125527 12.7615 0
    endloop
  endfacet
  facet normal 0 0 -1
    outer loop
      vertex 7.72938 2.51143 0
      vertex 0.00125527 12.7615 0
      vertex 12.1365 3.94471 0
    endloop
  endfacet
  facet normal 0 0 -1
    outer loop
      vertex 7.72938 2.51143 0
      vertex 12.1373 3.94232 0
      vertex 4.77702 -6.575 0
    endloop
  endfacet
  facet normal 0 0 -1
    outer loop
      vertex 7.5 -10.3229 0
      vertex 12.1373 3.94232 0
      vertex 7.50203 -10.3235 0
    endloop
  endfacet
  facet normal 0 0 -1
    outer loop
      vertex 4.77702 -6.575 0
      vertex 12.1373 3.94232 0
      vertex 7.5 -10.3229 0
    endloop
  endfacet
  facet normal 0 0 -1
    outer loop
      vertex -7.72938 2.51143 0
      vertex 3.60122e-15 12.7598 0
      vertex -2.18757e-16 8.12715 0
    endloop
  endfacet
  facet normal 0 0 -1
    outer loop
      vertex -1.61041e-15 -6.575 0
      vertex -7.5 -10.3229 0
      vertex -7.50203 -10.3235 0
    endloop
  endfacet
  facet normal 0 0 -1
    outer loop
      vertex -1.61041e-15 -6.575 0
      vertex -7.50203 -10.3235 0
      vertex -4.77702 -6.575 0
    endloop
  endfacet
  facet normal 0 0 -1
    outer loop
      vertex -7.5 -10.3229 0
      vertex 7.5 -10.3229 0
      vertex 7.5 -10.325 0
    endloop
  endfacet
  facet normal 0 0 -1
    outer loop
      vertex 7.72938 2.51143 0
      vertex 12.1353 3.94298 0
      vertex 12.1373 3.94232 0
    endloop
  endfacet
  facet normal 0 0 -1
    outer loop
      vertex -7.72938 2.51143 0
      vertex -0.00125527 12.7615 0
      vertex 3.60122e-15 12.7598 0
    endloop
  endfacet
  facet normal 0 0 -1
    outer loop
      vertex -7.50203 -10.3235 0
      vertex -12.1353 3.94298 0
      vertex -7.72938 2.51143 0
    endloop
  endfacet
  facet normal 0 0 -1
    outer loop
      vertex -4.77702 -6.575 0
      vertex -7.50203 -10.3235 0
      vertex -7.72938 2.51143 0
    endloop
  endfacet
  facet normal 0 0 -1
    outer loop
      vertex 7.72938 2.51143 0
      vertex 12.1365 3.94471 0
      vertex 12.1353 3.94298 0
    endloop
  endfacet
  facet normal 0 0 -1
    outer loop
      vertex -7.5 -10.3229 0
      vertex -1.61041e-15 -6.575 0
      vertex 7.5 -10.3229 0
    endloop
  endfacet
  facet normal 0 0 -1
    outer loop
      vertex -1.61041e-15 -6.575 0
      vertex 4.77702 -6.575 0
      vertex 7.5 -10.3229 0
    endloop
  endfacet
  facet normal 0 0 -1
    outer loop
      vertex -2.18757e-16 8.12715 0
      vertex 0.00125527 12.7615 0
      vertex 7.72938 2.51143 0
    endloop
  endfacet
  facet normal 0 0 -1
    outer loop
      vertex 3.60122e-15 12.7598 0
      vertex 0.00125527 12.7615 0
      vertex -2.18757e-16 8.12715 0
    endloop
  endfacet
  facet normal 0 0 -1
    outer loop
      vertex -7.5 -10.3229 0
      vertex 7.5 -10.325 0
      vertex -2.5289e-15 -10.325 0
    endloop
  endfacet
  facet normal 0 0 -1
    outer loop
      vertex -7.5 -10.3229 0
      vertex -2.5289e-15 -10.325 0
      vertex -7.5 -10.325 0
    endloop
  endfacet
  facet normal -0.738498 -0.53655 0.40833
    outer loop
      vertex -12.1365 3.94471 0
      vertex -11.642 3.7827 0.681561
      vertex -10.3225 3.35045 2.5
    endloop
  endfacet
  facet normal -0.738498 -0.53655 0.40833
    outer loop
      vertex -12.1365 3.94471 0
      vertex -12.1353 3.94298 0
      vertex -11.642 3.7827 0.681561
    endloop
  endfacet
  facet normal -0.738498 -0.53655 0.40833
    outer loop
      vertex -10.315 3.34014 2.5
      vertex -10.3225 3.35045 2.5
      vertex -11.642 3.7827 0.681561
    endloop
  endfacet
  facet normal 0.282081 -0.868157 0.40833
    outer loop
      vertex -7.19512 -9.90324 0.681561
      vertex -7.50203 -10.3235 0
      vertex -7.5 -10.3229 0
    endloop
  endfacet
  facet normal 0 0 1
    outer loop
      vertex -6.3817 -8.76521 2.5
      vertex -6.36416 -8.77795 2.5
      vertex -10.315 3.34014 2.5
    endloop
  endfacet
  facet normal 0 0 1
    outer loop
      vertex -10.3191 3.35288 2.5
      vertex -10.3225 3.35045 2.5
      vertex -10.315 3.34014 2.5
    endloop
  endfacet
  facet normal 0 0 1
    outer loop
      vertex -6.3817 -8.77795 2.5
      vertex -6.37756 -8.77795 2.5
      vertex -6.3817 -8.76521 2.5
    endloop
  endfacet
  facet normal 0 0 1
    outer loop
      vertex -6.36416 -8.77795 2.5
      vertex -10.3191 3.35288 2.5
      vertex -10.315 3.34014 2.5
    endloop
  endfacet
  facet normal 0 0 1
    outer loop
      vertex -6.37756 -8.77795 2.5
      vertex -6.36416 -8.77795 2.5
      vertex -6.3817 -8.76521 2.5
    endloop
  endfacet
  facet normal 0 0 1
    outer loop
      vertex 4.77702 -6.575 2.5
      vertex -1.61041e-15 -6.575 2.5
      vertex 6.36416 -8.77795 2.5
    endloop
  endfacet
  facet normal 0 0 1
    outer loop
      vertex -6.37628 -8.78189 2.5
      vertex -6.36416 -8.77795 2.5
      vertex -6.37756 -8.77795 2.5
    endloop
  endfacet
  facet normal 0 0 1
    outer loop
      vertex 4.77702 -6.575 2.5
      vertex 6.36416 -8.77795 2.5
      vertex 6.37628 -8.78189 2.5
    endloop
  endfacet
  facet normal 0 0 1
    outer loop
      vertex 4.77702 -6.575 2.5
      vertex 6.3817 -8.77795 2.5
      vertex 6.3817 -8.76521 2.5
    endloop
  endfacet
  facet normal 0 0 1
    outer loop
      vertex -7.72938 2.51143 2.5
      vertex -2.18757e-16 8.12715 2.5
      vertex -10.3191 3.35288 2.5
    endloop
  endfacet
  facet normal 0 0 1
    outer loop
      vertex -2.18757e-16 8.12715 2.5
      vertex 10.3225 3.35045 2.5
      vertex 10.3191 3.35288 2.5
    endloop
  endfacet
  facet normal 0 0 1
    outer loop
      vertex -2.18757e-16 8.12715 2.5
      vertex 10.315 3.34014 2.5
      vertex 10.3225 3.35045 2.5
    endloop
  endfacet
  facet normal 0 0 1
    outer loop
      vertex 4.77702 -6.575 2.5
      vertex 6.37628 -8.78189 2.5
      vertex 6.37756 -8.77795 2.5
    endloop
  endfacet
  facet normal 0 0 1
    outer loop
      vertex -2.18757e-16 8.12715 2.5
      vertex 10.3191 3.35288 2.5
      vertex 10.3083 3.36075 2.5
    endloop
  endfacet
  facet normal 0 0 1
    outer loop
      vertex 4.77702 -6.575 2.5
      vertex 6.37756 -8.77795 2.5
      vertex 6.3817 -8.77795 2.5
    endloop
  endfacet
  facet normal 0 0 1
    outer loop
      vertex -2.18757e-16 8.12715 2.5
      vertex 0.010838 10.8423 2.5
      vertex -10.3191 3.35288 2.5
    endloop
  endfacet
  facet normal 0 0 1
    outer loop
      vertex -2.18757e-16 8.12715 2.5
      vertex 7.72938 2.51143 2.5
      vertex 10.315 3.34014 2.5
    endloop
  endfacet
  facet normal 0 0 1
    outer loop
      vertex 0.010838 10.8423 2.5
      vertex -2.92052e-16 10.8501 2.5
      vertex -0.010838 10.8423 2.5
    endloop
  endfacet
  facet normal 0 0 1
    outer loop
      vertex 0.010838 10.8423 2.5
      vertex 0.00334913 10.8526 2.5
      vertex -2.92052e-16 10.8501 2.5
    endloop
  endfacet
  facet normal 0 0 1
    outer loop
      vertex -1.61041e-15 -6.575 2.5
      vertex -4.77702 -6.575 2.5
      vertex -2.14998e-15 -8.77795 2.5
    endloop
  endfacet
  facet normal 0 0 1
    outer loop
      vertex 0.010838 10.8423 2.5
      vertex -0.010838 10.8423 2.5
      vertex -10.3083 3.36075 2.5
    endloop
  endfacet
  facet normal 0 0 1
    outer loop
      vertex -2.92052e-16 10.8501 2.5
      vertex -0.00334913 10.8526 2.5
      vertex -0.010838 10.8423 2.5
    endloop
  endfacet
  facet normal 0 0 1
    outer loop
      vertex 0.010838 10.8423 2.5
      vertex -10.3083 3.36075 2.5
      vertex -10.3191 3.35288 2.5
    endloop
  endfacet
  facet normal 0 0 1
    outer loop
      vertex -10.3083 3.36075 2.5
      vertex -10.3204 3.35682 2.5
      vertex -10.3191 3.35288 2.5
    endloop
  endfacet
  facet normal 0 0 1
    outer loop
      vertex -6.36416 -8.77795 2.5
      vertex -4.77702 -6.575 2.5
      vertex -10.3191 3.35288 2.5
    endloop
  endfacet
  facet normal 0 0 1
    outer loop
      vertex -6.36416 -8.77795 2.5
      vertex -2.14998e-15 -8.77795 2.5
      vertex -4.77702 -6.575 2.5
    endloop
  endfacet
  facet normal 0 0 1
    outer loop
      vertex 10.3083 3.36075 2.5
      vertex 10.3191 3.35288 2.5
      vertex 10.3204 3.35682 2.5
    endloop
  endfacet
  facet normal 0 0 1
    outer loop
      vertex 10.3083 3.36075 2.5
      vertex 0.010838 10.8423 2.5
      vertex -2.18757e-16 8.12715 2.5
    endloop
  endfacet
  facet normal 0 0 1
    outer loop
      vertex 6.3817 -8.76521 2.5
      vertex 10.315 3.34014 2.5
      vertex 7.72938 2.51143 2.5
    endloop
  endfacet
  facet normal 0 0 1
    outer loop
      vertex 6.3817 -8.76521 2.5
      vertex 7.72938 2.51143 2.5
      vertex 4.77702 -6.575 2.5
    endloop
  endfacet
  facet normal 0 0 1
    outer loop
      vertex -2.14998e-15 -8.77795 2.5
      vertex 6.36416 -8.77795 2.5
      vertex -1.61041e-15 -6.575 2.5
    endloop
  endfacet
  facet normal 0 0 1
    outer loop
      vertex -4.77702 -6.575 2.5
      vertex -7.72938 2.51143 2.5
      vertex -10.3191 3.35288 2.5
    endloop
  endfacet
  facet normal -0.912834 2.2358e-16 0.40833
    outer loop
      vertex -6.3817 -8.76521 2.5
      vertex -7.19512 -9.90324 0.681561
      vertex -6.3817 -8.77795 2.5
    endloop
  endfacet
  facet normal -0.912834 2.2358e-16 0.40833
    outer loop
      vertex -7.5 -10.325 0
      vertex -7.19512 -9.90324 0.681561
      vertex -7.5 -10.3229 0
    endloop
  endfacet
  facet normal -0.912834 2.2358e-16 0.40833
    outer loop
      vertex -6.3817 -8.77795 2.5
      vertex -7.19512 -9.90324 0.681561
      vertex -7.5 -10.325 0
    endloop
  endfacet
  facet normal -2.08276e-16 -0.850352 0.526214
    outer loop
      vertex -6.3817 -8.77795 2.5
      vertex -7.5 -10.325 0
      vertex -7.19512 -9.90324 0.681561
    endloop
  endfacet
  facet normal -0.912834 0 0.40833
    outer loop
      vertex -7.19512 -9.90324 0.681561
      vertex -7.5 -10.325 0
      vertex -6.3817 -8.77795 2.5
    endloop
  endfacet
  facet normal 0 -0.850352 0.526214
    outer loop
      vertex -2.5289e-15 -10.325 0
      vertex -2.14998e-15 -8.77795 2.5
      vertex -6.36416 -8.77795 2.5
    endloop
  endfacet
  facet normal 0 -0.850352 0.526214
    outer loop
      vertex -7.5 -10.325 0
      vertex -2.5289e-15 -10.325 0
      vertex -7.19512 -9.90324 0.681561
    endloop
  endfacet
  facet normal 0 -0.850352 0.526214
    outer loop
      vertex -7.19512 -9.90324 0.681561
      vertex -2.5289e-15 -10.325 0
      vertex -6.36416 -8.77795 2.5
    endloop
  endfacet
  facet normal 0 -0.850352 0.526214
    outer loop
      vertex -6.3817 -8.77795 2.5
      vertex -7.19512 -9.90324 0.681561
      vertex -6.37756 -8.77795 2.5
    endloop
  endfacet
  facet normal 0 -0.850352 0.526214
    outer loop
      vertex -7.5 -10.325 0
      vertex -7.19512 -9.90324 0.681561
      vertex -6.3817 -8.77795 2.5
    endloop
  endfacet
  facet normal -2.08276e-16 -0.850352 0.526214
    outer loop
      vertex 7.5 -10.325 0
      vertex 7.19512 -9.90324 0.681561
      vertex 6.36416 -8.77795 2.5
    endloop
  endfacet
  facet normal -2.08276e-16 -0.850352 0.526214
    outer loop
      vertex -2.5289e-15 -10.325 0
      vertex 7.5 -10.325 0
      vertex -2.14998e-15 -8.77795 2.5
    endloop
  endfacet
  facet normal -2.08276e-16 -0.850352 0.526214
    outer loop
      vertex -2.14998e-15 -8.77795 2.5
      vertex 7.5 -10.325 0
      vertex 6.36416 -8.77795 2.5
    endloop
  endfacet
  facet normal 0.912834 0 0.40833
    outer loop
      vertex 7.5 -10.3229 0
      vertex 7.19512 -9.90324 0.681561
      vertex 7.5 -10.325 0
    endloop
  endfacet
  facet normal -0.282081 -0.868157 0.40833
    outer loop
      vertex 7.5 -10.3229 0
      vertex 7.50203 -10.3235 0
      vertex 7.19512 -9.90324 0.681561
    endloop
  endfacet
  facet normal -0.282081 -0.868157 0.40833
    outer loop
      vertex 7.50203 -10.3235 0
      vertex 6.37628 -8.78189 2.5
      vertex 7.19512 -9.90324 0.681561
    endloop
  endfacet
  facet normal -0.282081 -0.868157 0.40833
    outer loop
      vertex 6.36416 -8.77795 2.5
      vertex 7.19512 -9.90324 0.681561
      vertex 6.37628 -8.78189 2.5
    endloop
  endfacet
  facet normal 0.808733 -0.262773 0.526214
    outer loop
      vertex 11.642 3.7827 0.681561
      vertex 12.1373 3.94232 0
      vertex 10.3204 3.35682 2.5
    endloop
  endfacet
  facet normal 0.808733 -0.262773 0.526214
    outer loop
      vertex 11.642 3.7827 0.681561
      vertex 10.315 3.34014 2.5
      vertex 7.50203 -10.3235 0
    endloop
  endfacet
  facet normal 0.808733 -0.262773 0.526214
    outer loop
      vertex 7.50203 -10.3235 0
      vertex 12.1373 3.94232 0
      vertex 11.642 3.7827 0.681561
    endloop
  endfacet
  facet normal 0.808733 -0.262773 0.526214
    outer loop
      vertex 6.3817 -8.76521 2.5
      vertex 7.50203 -10.3235 0
      vertex 10.315 3.34014 2.5
    endloop
  endfacet
  facet normal 0.808733 -0.262773 0.526214
    outer loop
      vertex 7.19512 -9.90324 0.681561
      vertex 7.50203 -10.3235 0
      vertex 6.3817 -8.76521 2.5
    endloop
  endfacet
  facet normal 0.808733 -0.262773 0.526214
    outer loop
      vertex 6.37628 -8.78189 2.5
      vertex 7.50203 -10.3235 0
      vertex 7.19512 -9.90324 0.681561
    endloop
  endfacet
  facet normal 0.808733 -0.262773 0.526214
    outer loop
      vertex 6.37628 -8.78189 2.5
      vertex 7.19512 -9.90324 0.681561
      vertex 6.37756 -8.77795 2.5
    endloop
  endfacet
  facet normal 0.808733 -0.262773 0.526214
    outer loop
      vertex 10.3191 3.35288 2.5
      vertex 11.642 3.7827 0.681561
      vertex 10.3204 3.35682 2.5
    endloop
  endfacet
  facet normal 0.282081 0.868157 0.40833
    outer loop
      vertex 10.3083 3.36075 2.5
      vertex 10.3204 3.35682 2.5
      vertex 11.642 3.7827 0.681561
    endloop
  endfacet
  facet normal 0.282081 0.868157 0.40833
    outer loop
      vertex 11.642 3.7827 0.681561
      vertex 10.3204 3.35682 2.5
      vertex 12.1373 3.94232 0
    endloop
  endfacet
  facet normal 0.282081 0.868157 0.40833
    outer loop
      vertex 11.642 3.7827 0.681561
      vertex 12.1373 3.94232 0
      vertex 12.1353 3.94298 0
    endloop
  endfacet
  facet normal 0.738498 -0.53655 0.40833
    outer loop
      vertex 12.1353 3.94298 0
      vertex 12.1365 3.94471 0
      vertex 11.642 3.7827 0.681561
    endloop
  endfacet
  facet normal 0.499824 0.687949 0.526214
    outer loop
      vertex 10.3083 3.36075 2.5
      vertex 11.642 3.7827 0.681561
      vertex 0.010838 10.8423 2.5
    endloop
  endfacet
  facet normal 0.499824 0.687949 0.526214
    outer loop
      vertex 0.010838 10.8423 2.5
      vertex 11.642 3.7827 0.681561
      vertex 12.1365 3.94471 0
    endloop
  endfacet
  facet normal 0.499824 0.687949 0.526214
    outer loop
      vertex 0.010838 10.8423 2.5
      vertex 12.1365 3.94471 0
      vertex 0.00125527 12.7615 0
    endloop
  endfacet
  facet normal 0.499824 0.687949 0.526214
    outer loop
      vertex 0.010838 10.8423 2.5
      vertex 0.00125527 12.7615 0
      vertex 3.45483e-15 12.2411 0.681561
    endloop
  endfacet
  facet normal -0.738498 0.53655 0.40833
    outer loop
      vertex 3.60122e-15 12.7598 0
      vertex 3.45483e-15 12.2411 0.681561
      vertex 0.00125527 12.7615 0
    endloop
  endfacet
  facet normal 0.738498 0.53655 0.40833
    outer loop
      vertex 0.00334913 10.8526 2.5
      vertex 0.010838 10.8423 2.5
      vertex 3.45483e-15 12.2411 0.681561
    endloop
  endfacet
  facet normal 0.738498 0.53655 0.40833
    outer loop
      vertex -0.00125527 12.7615 0
      vertex 0.00334913 10.8526 2.5
      vertex 3.45483e-15 12.2411 0.681561
    endloop
  endfacet
  facet normal 0.738498 0.53655 0.40833
    outer loop
      vertex 3.60122e-15 12.7598 0
      vertex -0.00125527 12.7615 0
      vertex 3.45483e-15 12.2411 0.681561
    endloop
  endfacet
  facet normal -0.499824 0.687949 0.526214
    outer loop
      vertex -10.3191 3.35288 2.5
      vertex -11.642 3.7827 0.681561
      vertex -10.3225 3.35045 2.5
    endloop
  endfacet
  facet normal -0.499824 0.687949 0.526214
    outer loop
      vertex -0.010838 10.8423 2.5
      vertex -11.642 3.7827 0.681561
      vertex -10.3083 3.36075 2.5
    endloop
  endfacet
  facet normal -0.499824 0.687949 0.526214
    outer loop
      vertex -3.29491e-16 12.2411 0.681561
      vertex -11.642 3.7827 0.681561
      vertex -0.010838 10.8423 2.5
    endloop
  endfacet
  facet normal -0.499824 0.687949 0.526214
    outer loop
      vertex -0.00125527 12.7615 0
      vertex -11.642 3.7827 0.681561
      vertex -3.29491e-16 12.2411 0.681561
    endloop
  endfacet
  facet normal -0.499824 0.687949 0.526214
    outer loop
      vertex 0.00334913 10.8526 2.5
      vertex -3.29491e-16 12.2411 0.681561
      vertex -2.92052e-16 10.8501 2.5
    endloop
  endfacet
  facet normal -0.499824 0.687949 0.526214
    outer loop
      vertex -0.00125527 12.7615 0
      vertex -3.29491e-16 12.2411 0.681561
      vertex 0.00334913 10.8526 2.5
    endloop
  endfacet
  facet normal -0.499824 0.687949 0.526214
    outer loop
      vertex -12.1365 3.94471 0
      vertex -11.642 3.7827 0.681561
      vertex -0.00125527 12.7615 0
    endloop
  endfacet
  facet normal -0.499824 0.687949 0.526214
    outer loop
      vertex -10.3225 3.35045 2.5
      vertex -11.642 3.7827 0.681561
      vertex -12.1365 3.94471 0
    endloop
  endfacet
  facet normal 0.587785 -0.809017 0
    outer loop
      vertex -7.72938 2.51143 2.5
      vertex -7.72938 2.51143 0
      vertex -2.18757e-16 8.12715 0
    endloop
  endfacet
  facet normal 0.587785 -0.809017 0
    outer loop
      vertex -2.18757e-16 8.12715 2.5
      vertex -7.72938 2.51143 2.5
      vertex -2.18757e-16 8.12715 0
    endloop
  endfacet
  facet normal 0.951057 0.309017 0
    outer loop
      vertex -4.77702 -6.575 0
      vertex -7.72938 2.51143 0
      vertex -7.72938 2.51143 2.5
    endloop
  endfacet
  facet normal 0.951057 0.309017 0
    outer loop
      vertex -4.77702 -6.575 2.5
      vertex -4.77702 -6.575 0
      vertex -7.72938 2.51143 2.5
    endloop
  endfacet
  facet normal -0.587785 -0.809017 0
    outer loop
      vertex -2.18757e-16 8.12715 2.5
      vertex -2.18757e-16 8.12715 0
      vertex 7.72938 2.51143 0
    endloop
  endfacet
  facet normal -0.587785 -0.809017 0
    outer loop
      vertex 7.72938 2.51143 2.5
      vertex -2.18757e-16 8.12715 2.5
      vertex 7.72938 2.51143 0
    endloop
  endfacet
  facet normal -0.951057 0.309017 0
    outer loop
      vertex 4.77702 -6.575 0
      vertex 4.77702 -6.575 2.5
      vertex 7.72938 2.51143 0
    endloop
  endfacet
  facet normal -0.951057 0.309017 0
    outer loop
      vertex 7.72938 2.51143 0
      vertex 4.77702 -6.575 2.5
      vertex 7.72938 2.51143 2.5
    endloop
  endfacet
  facet normal 0 1 0
    outer loop
      vertex -1.61041e-15 -6.575 0
      vertex -1.61041e-15 -6.575 2.5
      vertex 4.77702 -6.575 0
    endloop
  endfacet
  facet normal 0 1 0
    outer loop
      vertex 4.77702 -6.575 0
      vertex -1.61041e-15 -6.575 2.5
      vertex 4.77702 -6.575 2.5
    endloop
  endfacet
  facet normal 2.44929e-16 1 0
    outer loop
      vertex -4.77702 -6.575 0
      vertex -4.77702 -6.575 2.5
      vertex -1.61041e-15 -6.575 0
    endloop
  endfacet
  facet normal 2.44929e-16 1 0
    outer loop
      vertex -1.61041e-15 -6.575 0
      vertex -4.77702 -6.575 2.5
      vertex -1.61041e-15 -6.575 2.5
    endloop
  endfacet
  facet normal -0.808733 -0.262773 0.526214
    outer loop
      vertex -10.3191 3.35288 2.5
      vertex -10.3204 3.35682 2.5
      vertex -11.642 3.7827 0.681561
    endloop
  endfacet
  facet normal -0.282081 0.868157 0.40833
    outer loop
      vertex -10.3204 3.35682 2.5
      vertex -10.3083 3.36075 2.5
      vertex -11.642 3.7827 0.681561
    endloop
  endfacet
  facet normal -0.738498 0.53655 0.40833
    outer loop
      vertex -3.29491e-16 12.2411 0.681561
      vertex -0.010838 10.8423 2.5
      vertex -0.00334913 10.8526 2.5
    endloop
  endfacet
  facet normal 0.499824 0.687949 0.526214
    outer loop
      vertex -2.92052e-16 10.8501 2.5
      vertex -3.29491e-16 12.2411 0.681561
      vertex -0.00334913 10.8526 2.5
    endloop
  endfacet
  facet normal 0.499824 0.687949 0.526214
    outer loop
      vertex 10.3225 3.35045 2.5
      vertex 11.642 3.7827 0.681561
      vertex 10.3191 3.35288 2.5
    endloop
  endfacet
  facet normal 0.738498 -0.53655 0.40833
    outer loop
      vertex 11.642 3.7827 0.681561
      vertex 10.3225 3.35045 2.5
      vertex 10.315 3.34014 2.5
    endloop
  endfacet
  facet normal 0.912834 0 0.40833
    outer loop
      vertex 6.3817 -8.76521 2.5
      vertex 6.3817 -8.77795 2.5
      vertex 7.19512 -9.90324 0.681561
    endloop
  endfacet
  facet normal -2.08276e-16 -0.850352 0.526214
    outer loop
      vertex 7.19512 -9.90324 0.681561
      vertex 6.3817 -8.77795 2.5
      vertex 6.37756 -8.77795 2.5
    endloop
  endfacet
  facet normal 0.282081 -0.868157 0.40833
    outer loop
      vertex -6.37628 -8.78189 2.5
      vertex -7.19512 -9.90324 0.681561
      vertex -6.36416 -8.77795 2.5
    endloop
  endfacet
  facet normal -0.808733 -0.262773 0.526214
    outer loop
      vertex -6.37628 -8.78189 2.5
      vertex -6.37756 -8.77795 2.5
      vertex -7.19512 -9.90324 0.681561
    endloop
  endfacet
endsolid OpenSCAD_Model
