solid OpenSCAD_Model
  facet normal -1.24576e-017 -0.188982 0.981981
    outer loop
      vertex 18.5 -0.0615408 4.60696
      vertex 16.5 -0.0615408 4.60696
      vertex 16.5 -11.9385 2.32124
    endloop
  endfacet
  facet normal -2.18043e-016 -0.188982 0.981981
    outer loop
      vertex 18.5 -11.9385 2.32124
      vertex 18.5 -0.0615408 4.60696
      vertex 16.5 -11.9385 2.32124
    endloop
  endfacet
  facet normal -1 0 0
    outer loop
      vertex 16.5 -0.0615408 4.60696
      vertex 16.5 2.77602e-015 4.57143
      vertex 16.5 -11.9385 2.32124
    endloop
  endfacet
  facet normal -1 2.24346e-016 -3.88578e-016
    outer loop
      vertex 16.5 11.9385 2.32124
      vertex 16.5 2.77602e-015 4.57143
      vertex 16.5 0.0615408 4.60696
    endloop
  endfacet
  facet normal -1 2.97586e-016 -6.32654e-031
    outer loop
      vertex 16.5 -1.62774e-015 2.5
      vertex 16.5 2.77602e-015 4.57143
      vertex 16.5 11.9385 2.32124
    endloop
  endfacet
  facet normal -1 0 0
    outer loop
      vertex 16.5 11.8769 2.28571
      vertex 16.5 12 2.28571
      vertex 16.5 12 -2.28571
    endloop
  endfacet
  facet normal -1 -0 0
    outer loop
      vertex 16.5 -4.92141e-015 -4.57143
      vertex 16.5 11.9385 -2.32124
      vertex 16.5 0.0615408 -4.60696
    endloop
  endfacet
  facet normal -1 2.90063e-016 -5.02404e-016
    outer loop
      vertex 16.5 -1.62774e-015 2.5
      vertex 16.5 11.9385 2.32124
      vertex 16.5 11.8769 2.28571
    endloop
  endfacet
  facet normal -1 2.24346e-016 -3.88578e-016
    outer loop
      vertex 16.5 -11.8769 -2.28571
      vertex 16.5 -0.0615408 -4.60696
      vertex 16.5 -11.9385 -2.32124
    endloop
  endfacet
  facet normal -1 3.1275e-016 7.55046e-016
    outer loop
      vertex 16.5 -1.62774e-015 2.5
      vertex 16.5 11.8769 2.28571
      vertex 16.5 1.76777 1.76777
    endloop
  endfacet
  facet normal -1 0 0
    outer loop
      vertex 16.5 -11.8769 2.28571
      vertex 16.5 -11.8769 -2.28571
      vertex 16.5 -12 -2.28571
    endloop
  endfacet
  facet normal -1 3.00686e-016 -2.3368e-031
    outer loop
      vertex 16.5 -11.8769 2.28571
      vertex 16.5 -0.0615408 -4.60696
      vertex 16.5 -11.8769 -2.28571
    endloop
  endfacet
  facet normal -1 0 -0
    outer loop
      vertex 16.5 -2.5 3.10868e-015
      vertex 16.5 -11.9385 2.32124
      vertex 16.5 -1.76777 1.76777
    endloop
  endfacet
  facet normal -1 1.49564e-016 -2.59052e-016
    outer loop
      vertex 16.5 -4.92141e-015 -4.57143
      vertex 16.5 -0.0615408 -4.60696
      vertex 16.5 -11.8769 2.28571
    endloop
  endfacet
  facet normal -1 0 0
    outer loop
      vertex 16.5 -5.1764e-016 -2.5
      vertex 16.5 -4.92141e-015 -4.57143
      vertex 16.5 -1.76777 -1.76777
    endloop
  endfacet
  facet normal -1 0 0
    outer loop
      vertex 16.5 -11.9385 2.32124
      vertex 16.5 2.77602e-015 4.57143
      vertex 16.5 -1.62774e-015 2.5
    endloop
  endfacet
  facet normal -1 0 -0
    outer loop
      vertex 16.5 -1.76777 1.76777
      vertex 16.5 -11.9385 2.32124
      vertex 16.5 -1.62774e-015 2.5
    endloop
  endfacet
  facet normal -1 0 0
    outer loop
      vertex 16.5 2.5 4.21879e-015
      vertex 16.5 12 -2.28571
      vertex 16.5 11.8769 -2.28571
    endloop
  endfacet
  facet normal -1 -5.44907e-016 -2.23543e-015
    outer loop
      vertex 16.5 -1.76777 -1.76777
      vertex 16.5 -11.8769 2.28571
      vertex 16.5 -2.5 3.10868e-015
    endloop
  endfacet
  facet normal -1 4.7035e-016 2.96565e-016
    outer loop
      vertex 16.5 -4.92141e-015 -4.57143
      vertex 16.5 -11.8769 2.28571
      vertex 16.5 -1.76777 -1.76777
    endloop
  endfacet
  facet normal -1 0 0
    outer loop
      vertex 16.5 2.5 4.21879e-015
      vertex 16.5 11.9385 -2.32124
      vertex 16.5 1.76777 -1.76777
    endloop
  endfacet
  facet normal -1 0 0
    outer loop
      vertex 16.5 -4.92141e-015 -4.57143
      vertex 16.5 -5.1764e-016 -2.5
      vertex 16.5 11.9385 -2.32124
    endloop
  endfacet
  facet normal -1 0 0
    outer loop
      vertex 16.5 -5.1764e-016 -2.5
      vertex 16.5 1.76777 -1.76777
      vertex 16.5 11.9385 -2.32124
    endloop
  endfacet
  facet normal -1 3.50951e-016 9.44905e-018
    outer loop
      vertex 16.5 11.8769 2.28571
      vertex 16.5 12 -2.28571
      vertex 16.5 1.76777 1.76777
    endloop
  endfacet
  facet normal -1 0 0
    outer loop
      vertex 16.5 2.5 4.21879e-015
      vertex 16.5 11.8769 -2.28571
      vertex 16.5 11.9385 -2.32124
    endloop
  endfacet
  facet normal -1 0 0
    outer loop
      vertex 16.5 -2.5 3.10868e-015
      vertex 16.5 -11.8769 2.28571
      vertex 16.5 -11.9385 2.32124
    endloop
  endfacet
  facet normal -1 0 0
    outer loop
      vertex 16.5 -11.8769 2.28571
      vertex 16.5 -12 -2.28571
      vertex 16.5 -12 2.28571
    endloop
  endfacet
  facet normal -1 -5.37065e-016 -2.23218e-015
    outer loop
      vertex 16.5 1.76777 1.76777
      vertex 16.5 12 -2.28571
      vertex 16.5 2.5 4.21879e-015
    endloop
  endfacet
  facet normal 3.35735e-017 0.5 0.866025
    outer loop
      vertex 16.5 2.77602e-015 4.57143
      vertex 16.5 -0.0615408 4.60696
      vertex 18.5 -0.0615408 4.60696
    endloop
  endfacet
  facet normal -3.52087e-016 0.5 0.866025
    outer loop
      vertex 18.5 2.646e-015 4.57143
      vertex 16.5 2.77602e-015 4.57143
      vertex 18.5 -0.0615408 4.60696
    endloop
  endfacet
  facet normal 1 -0 0
    outer loop
      vertex 18.5 2.646e-015 4.57143
      vertex 18.5 -0.0615408 4.60696
      vertex 18.5 -11.9385 2.32124
    endloop
  endfacet
  facet normal 1 0 0
    outer loop
      vertex 18.5 -12 -2.28571
      vertex 18.5 2.646e-015 4.57143
      vertex 18.5 -11.8769 2.28571
    endloop
  endfacet
  facet normal 1 0 0
    outer loop
      vertex 18.5 -11.8769 2.28571
      vertex 18.5 2.646e-015 4.57143
      vertex 18.5 -11.9385 2.32124
    endloop
  endfacet
  facet normal 1 0 0
    outer loop
      vertex 18.5 -12 -2.28571
      vertex 18.5 -11.8769 2.28571
      vertex 18.5 -12 2.28571
    endloop
  endfacet
  facet normal 1 -0 0
    outer loop
      vertex 18.5 -11.8769 -2.28571
      vertex 18.5 2.646e-015 4.57143
      vertex 18.5 -12 -2.28571
    endloop
  endfacet
  facet normal 1 -0 0
    outer loop
      vertex 18.5 -4.5 0.857143
      vertex 18.5 2.646e-015 4.57143
      vertex 18.5 -11.8769 -2.28571
    endloop
  endfacet
  facet normal 1 -2.24346e-016 3.88578e-016
    outer loop
      vertex 18.5 -0.0615408 -4.60696
      vertex 18.5 -11.8769 -2.28571
      vertex 18.5 -11.9385 -2.32124
    endloop
  endfacet
  facet normal 1 2.36848e-016 1.2307e-015
    outer loop
      vertex 18.5 -0.0230772 -1.72761
      vertex 18.5 -4.47692 -0.870467
      vertex 18.5 -0.0615408 -4.60696
    endloop
  endfacet
  facet normal 1 -0 5.18104e-016
    outer loop
      vertex 18.5 12 -2.28571
      vertex 18.5 2.646e-015 4.57143
      vertex 18.5 11.8769 -2.28571
    endloop
  endfacet
  facet normal 1 -0 0
    outer loop
      vertex 18.5 11.9385 -2.32124
      vertex 18.5 11.8769 -2.28571
      vertex 18.5 0.0615408 -4.60696
    endloop
  endfacet
  facet normal 1 0 0
    outer loop
      vertex 18.5 11.8769 2.28571
      vertex 18.5 11.9385 2.32124
      vertex 18.5 0.0615408 4.60696
    endloop
  endfacet
  facet normal 1 0 7.77156e-016
    outer loop
      vertex 18.5 12 -2.28571
      vertex 18.5 12 2.28571
      vertex 18.5 11.8769 2.28571
    endloop
  endfacet
  facet normal 1 -0 0
    outer loop
      vertex 18.5 -4.5 -0.857143
      vertex 18.5 -4.5 0.857143
      vertex 18.5 -11.8769 -2.28571
    endloop
  endfacet
  facet normal 1 -0 1.24928e-015
    outer loop
      vertex 18.5 0.0230772 -1.72761
      vertex 18.5 -0.0230772 -1.72761
      vertex 18.5 -5.05143e-015 -4.57143
    endloop
  endfacet
  facet normal 1 0 0
    outer loop
      vertex 18.5 4.47692 0.870467
      vertex 18.5 2.646e-015 4.57143
      vertex 18.5 0.0230772 1.72761
    endloop
  endfacet
  facet normal 1 -9.91803e-016 -1.19975e-015
    outer loop
      vertex 18.5 11.8769 -2.28571
      vertex 18.5 2.646e-015 4.57143
      vertex 18.5 4.47692 0.870467
    endloop
  endfacet
  facet normal 1 -2.36848e-016 1.2307e-015
    outer loop
      vertex 18.5 4.47692 -0.870467
      vertex 18.5 0.0230772 -1.72761
      vertex 18.5 0.0615408 -4.60696
    endloop
  endfacet
  facet normal 1 -1.83761e-015 -3.18284e-015
    outer loop
      vertex 18.5 11.8769 -2.28571
      vertex 18.5 4.47692 0.870467
      vertex 18.5 4.5 0.857143
    endloop
  endfacet
  facet normal 1 -2.42531e-016 1.23451e-015
    outer loop
      vertex 18.5 11.8769 -2.28571
      vertex 18.5 4.5 -0.857143
      vertex 18.5 0.0615408 -4.60696
    endloop
  endfacet
  facet normal 1 -1.72763e-015 2.99234e-015
    outer loop
      vertex 18.5 4.5 -0.857143
      vertex 18.5 4.47692 -0.870467
      vertex 18.5 0.0615408 -4.60696
    endloop
  endfacet
  facet normal 1 7.17906e-016 1.24345e-015
    outer loop
      vertex 18.5 0.0615408 -4.60696
      vertex 18.5 0.0230772 -1.72761
      vertex 18.5 -5.05143e-015 -4.57143
    endloop
  endfacet
  facet normal 1 -4.81599e-016 4.99036e-031
    outer loop
      vertex 18.5 4.5 0.857143
      vertex 18.5 4.5 -0.857143
      vertex 18.5 11.8769 -2.28571
    endloop
  endfacet
  facet normal 1 -7.17906e-016 1.24345e-015
    outer loop
      vertex 18.5 -5.05143e-015 -4.57143
      vertex 18.5 -0.0230772 -1.72761
      vertex 18.5 -0.0615408 -4.60696
    endloop
  endfacet
  facet normal 1 -1.48323e-016 7.75544e-016
    outer loop
      vertex 18.5 -0.0615408 -4.60696
      vertex 18.5 -4.47692 -0.870467
      vertex 18.5 -11.8769 -2.28571
    endloop
  endfacet
  facet normal 1 -0 0
    outer loop
      vertex 18.5 -4.47692 -0.870467
      vertex 18.5 -4.5 -0.857143
      vertex 18.5 -11.8769 -2.28571
    endloop
  endfacet
  facet normal 1 -0 0
    outer loop
      vertex 18.5 -4.47692 0.870467
      vertex 18.5 2.646e-015 4.57143
      vertex 18.5 -4.5 0.857143
    endloop
  endfacet
  facet normal 1 -0 0
    outer loop
      vertex 18.5 -0.0230772 1.72761
      vertex 18.5 2.646e-015 4.57143
      vertex 18.5 -4.47692 0.870467
    endloop
  endfacet
  facet normal 1 1.53492e-016 7.81289e-016
    outer loop
      vertex 18.5 0.0615408 4.60696
      vertex 18.5 12 -2.28571
      vertex 18.5 11.8769 2.28571
    endloop
  endfacet
  facet normal 1 -1.48793e-016 2.57717e-016
    outer loop
      vertex 18.5 0.0615408 4.60696
      vertex 18.5 2.646e-015 4.57143
      vertex 18.5 12 -2.28571
    endloop
  endfacet
  facet normal 1 0 0
    outer loop
      vertex 18.5 -0.0230772 1.72761
      vertex 18.5 0.0230772 1.72761
      vertex 18.5 2.646e-015 4.57143
    endloop
  endfacet
  facet normal 1.92296e-016 -0.5 -0.866025
    outer loop
      vertex 16.5 -11.9385 2.32124
      vertex 16.5 -11.8769 2.28571
      vertex 18.5 -11.9385 2.32124
    endloop
  endfacet
  facet normal 1.90865e-016 -0.5 -0.866025
    outer loop
      vertex 18.5 -11.9385 2.32124
      vertex 16.5 -11.8769 2.28571
      vertex 18.5 -11.8769 2.28571
    endloop
  endfacet
  facet normal -2.22045e-016 0 1
    outer loop
      vertex 16.5 -11.8769 2.28571
      vertex 16.5 -12 2.28571
      vertex 18.5 -12 2.28571
    endloop
  endfacet
  facet normal -2.22045e-016 0 1
    outer loop
      vertex 18.5 -11.8769 2.28571
      vertex 16.5 -11.8769 2.28571
      vertex 18.5 -12 2.28571
    endloop
  endfacet
  facet normal -1.72563e-031 -1 7.77156e-016
    outer loop
      vertex 18.5 -12 2.28571
      vertex 16.5 -12 2.28571
      vertex 16.5 -12 -2.28571
    endloop
  endfacet
  facet normal -1.72563e-031 -1 7.77156e-016
    outer loop
      vertex 18.5 -12 -2.28571
      vertex 18.5 -12 2.28571
      vertex 16.5 -12 -2.28571
    endloop
  endfacet
  facet normal 2.22045e-016 0 -1
    outer loop
      vertex 16.5 -12 -2.28571
      vertex 16.5 -11.8769 -2.28571
      vertex 18.5 -12 -2.28571
    endloop
  endfacet
  facet normal 2.22045e-016 0 -1
    outer loop
      vertex 18.5 -12 -2.28571
      vertex 16.5 -11.8769 -2.28571
      vertex 18.5 -11.8769 -2.28571
    endloop
  endfacet
  facet normal -1.92296e-016 -0.5 0.866025
    outer loop
      vertex 18.5 -11.8769 -2.28571
      vertex 16.5 -11.8769 -2.28571
      vertex 16.5 -11.9385 -2.32124
    endloop
  endfacet
  facet normal -1.92296e-016 -0.5 0.866025
    outer loop
      vertex 18.5 -11.9385 -2.32124
      vertex 18.5 -11.8769 -2.28571
      vertex 16.5 -11.9385 -2.32124
    endloop
  endfacet
  facet normal 2.18043e-016 -0.188982 -0.981981
    outer loop
      vertex 16.5 -11.9385 -2.32124
      vertex 16.5 -0.0615408 -4.60696
      vertex 18.5 -11.9385 -2.32124
    endloop
  endfacet
  facet normal 0 -0.188982 -0.981981
    outer loop
      vertex 18.5 -11.9385 -2.32124
      vertex 16.5 -0.0615408 -4.60696
      vertex 18.5 -0.0615408 -4.60696
    endloop
  endfacet
  facet normal 3.25058e-017 0.5 -0.866025
    outer loop
      vertex 16.5 -4.92141e-015 -4.57143
      vertex 18.5 -5.05143e-015 -4.57143
      vertex 16.5 -0.0615408 -4.60696
    endloop
  endfacet
  facet normal 3.1225e-017 0.5 -0.866025
    outer loop
      vertex 16.5 -0.0615408 -4.60696
      vertex 18.5 -5.05143e-015 -4.57143
      vertex 18.5 -0.0615408 -4.60696
    endloop
  endfacet
  facet normal -3.25058e-017 -0.5 -0.866025
    outer loop
      vertex 16.5 -4.92141e-015 -4.57143
      vertex 16.5 0.0615408 -4.60696
      vertex 18.5 -5.05143e-015 -4.57143
    endloop
  endfacet
  facet normal -3.30609e-017 -0.5 -0.866025
    outer loop
      vertex 18.5 -5.05143e-015 -4.57143
      vertex 16.5 0.0615408 -4.60696
      vertex 18.5 0.0615408 -4.60696
    endloop
  endfacet
  facet normal 2.18043e-016 0.188982 -0.981981
    outer loop
      vertex 16.5 11.9385 -2.32124
      vertex 18.5 11.9385 -2.32124
      vertex 16.5 0.0615408 -4.60696
    endloop
  endfacet
  facet normal 1.24576e-017 0.188982 -0.981981
    outer loop
      vertex 16.5 0.0615408 -4.60696
      vertex 18.5 11.9385 -2.32124
      vertex 18.5 0.0615408 -4.60696
    endloop
  endfacet
  facet normal -1.93672e-016 0.5 0.866025
    outer loop
      vertex 16.5 11.9385 -2.32124
      vertex 16.5 11.8769 -2.28571
      vertex 18.5 11.8769 -2.28571
    endloop
  endfacet
  facet normal -1.92296e-016 0.5 0.866025
    outer loop
      vertex 18.5 11.9385 -2.32124
      vertex 16.5 11.9385 -2.32124
      vertex 18.5 11.8769 -2.28571
    endloop
  endfacet
  facet normal 2.22045e-016 0 -1
    outer loop
      vertex 16.5 11.8769 -2.28571
      vertex 16.5 12 -2.28571
      vertex 18.5 11.8769 -2.28571
    endloop
  endfacet
  facet normal 2.22045e-016 0 -1
    outer loop
      vertex 18.5 11.8769 -2.28571
      vertex 16.5 12 -2.28571
      vertex 18.5 12 -2.28571
    endloop
  endfacet
  facet normal 1.72563e-031 1 -7.77156e-016
    outer loop
      vertex 16.5 12 2.28571
      vertex 18.5 12 2.28571
      vertex 16.5 12 -2.28571
    endloop
  endfacet
  facet normal 1.72563e-031 1 -7.77156e-016
    outer loop
      vertex 16.5 12 -2.28571
      vertex 18.5 12 2.28571
      vertex 18.5 12 -2.28571
    endloop
  endfacet
  facet normal -2.22045e-016 0 1
    outer loop
      vertex 16.5 12 2.28571
      vertex 16.5 11.8769 2.28571
      vertex 18.5 11.8769 2.28571
    endloop
  endfacet
  facet normal -2.22045e-016 0 1
    outer loop
      vertex 18.5 12 2.28571
      vertex 16.5 12 2.28571
      vertex 18.5 11.8769 2.28571
    endloop
  endfacet
  facet normal 1.92296e-016 0.5 -0.866025
    outer loop
      vertex 16.5 11.9385 2.32124
      vertex 18.5 11.9385 2.32124
      vertex 16.5 11.8769 2.28571
    endloop
  endfacet
  facet normal 1.92296e-016 0.5 -0.866025
    outer loop
      vertex 16.5 11.8769 2.28571
      vertex 18.5 11.9385 2.32124
      vertex 18.5 11.8769 2.28571
    endloop
  endfacet
  facet normal 0 0.188982 0.981981
    outer loop
      vertex 16.5 11.9385 2.32124
      vertex 16.5 0.0615408 4.60696
      vertex 18.5 0.0615408 4.60696
    endloop
  endfacet
  facet normal -2.18043e-016 0.188982 0.981981
    outer loop
      vertex 18.5 11.9385 2.32124
      vertex 16.5 11.9385 2.32124
      vertex 18.5 0.0615408 4.60696
    endloop
  endfacet
  facet normal -3.29597e-017 -0.5 0.866025
    outer loop
      vertex 18.5 0.0615408 4.60696
      vertex 16.5 0.0615408 4.60696
      vertex 16.5 2.77602e-015 4.57143
    endloop
  endfacet
  facet normal -4.17098e-016 -0.5 0.866025
    outer loop
      vertex 18.5 2.646e-015 4.57143
      vertex 18.5 0.0615408 4.60696
      vertex 16.5 2.77602e-015 4.57143
    endloop
  endfacet
  facet normal -2.33587e-016 -0.382683 0.92388
    outer loop
      vertex 16.5 -1.62774e-015 2.5
      vertex 2.73921 -7.33132e-016 2.5
      vertex 2.83053 -1.08147 2.05204
    endloop
  endfacet
  facet normal -2.59855e-016 -0.382683 0.92388
    outer loop
      vertex 2.68829 -1.76777 1.76777
      vertex 16.5 -1.62774e-015 2.5
      vertex 2.83757 -1.16481 2.01752
    endloop
  endfacet
  facet normal -1.68777e-016 -0.382683 0.92388
    outer loop
      vertex 2.83757 -1.16481 2.01752
      vertex 16.5 -1.62774e-015 2.5
      vertex 2.83053 -1.08147 2.05204
    endloop
  endfacet
  facet normal -2.17695e-016 -0.382683 0.92388
    outer loop
      vertex 16.5 -1.76777 1.76777
      vertex 16.5 -1.62774e-015 2.5
      vertex 2.68829 -1.76777 1.76777
    endloop
  endfacet
  facet normal -1.83829e-016 0.382683 0.92388
    outer loop
      vertex 2.74307 0.0457075 2.48107
      vertex 2.73921 -7.33132e-016 2.5
      vertex 16.5 -1.62774e-015 2.5
    endloop
  endfacet
  facet normal -2.00889e-016 0.382683 0.92388
    outer loop
      vertex 2.83757 1.16481 2.01752
      vertex 2.74307 0.0457075 2.48107
      vertex 16.5 1.76777 1.76777
    endloop
  endfacet
  facet normal -1.87829e-016 0.382683 0.92388
    outer loop
      vertex 16.5 1.76777 1.76777
      vertex 2.74307 0.0457075 2.48107
      vertex 16.5 -1.62774e-015 2.5
    endloop
  endfacet
  facet normal -1.8333e-016 0.382683 0.92388
    outer loop
      vertex 2.68829 1.76777 1.76777
      vertex 2.83757 1.16481 2.01752
      vertex 16.5 1.76777 1.76777
    endloop
  endfacet
  facet normal -2.672e-017 0.92388 0.382683
    outer loop
      vertex 2.68829 1.76777 1.76777
      vertex 16.5 1.76777 1.76777
      vertex 2.83757 2.01752 1.16481
    endloop
  endfacet
  facet normal -3.34097e-017 0.92388 0.382683
    outer loop
      vertex 2.83757 2.01752 1.16481
      vertex 16.5 1.76777 1.76777
      vertex 16.5 2.5 4.21879e-015
    endloop
  endfacet
  facet normal -2.4412e-017 0.92388 0.382683
    outer loop
      vertex 2.83757 2.01752 1.16481
      vertex 16.5 2.5 4.21879e-015
      vertex 2.73921 2.5 1.16328e-015
    endloop
  endfacet
  facet normal 5.89806e-017 6.36157e-008 2.63505e-008
    outer loop
      vertex 2.83757 2.01752 1.16481
      vertex 2.73921 2.5 1.16328e-015
      vertex 2.83053 2.05204 1.08147
    endloop
  endfacet
  facet normal 1.44604e-016 0.92388 -0.382683
    outer loop
      vertex 2.73921 2.5 1.16328e-015
      vertex 16.5 2.5 4.21879e-015
      vertex 2.74307 2.48107 -0.0457075
    endloop
  endfacet
  facet normal 1.41448e-016 0.92388 -0.382683
    outer loop
      vertex 2.74307 2.48107 -0.0457075
      vertex 16.5 2.5 4.21879e-015
      vertex 16.5 1.76777 -1.76777
    endloop
  endfacet
  facet normal 1.47287e-016 0.92388 -0.382683
    outer loop
      vertex 2.83757 2.01752 -1.16481
      vertex 16.5 1.76777 -1.76777
      vertex 2.68829 1.76777 -1.76777
    endloop
  endfacet
  facet normal 1.45683e-016 0.92388 -0.382683
    outer loop
      vertex 2.74307 2.48107 -0.0457075
      vertex 16.5 1.76777 -1.76777
      vertex 2.83757 2.01752 -1.16481
    endloop
  endfacet
  facet normal 2.32548e-016 0.382683 -0.92388
    outer loop
      vertex 2.68829 1.76777 -1.76777
      vertex 16.5 1.76777 -1.76777
      vertex 2.83757 1.16481 -2.01752
    endloop
  endfacet
  facet normal 2.25719e-016 0.382683 -0.92388
    outer loop
      vertex 2.83757 1.16481 -2.01752
      vertex 16.5 1.76777 -1.76777
      vertex 16.5 -5.1764e-016 -2.5
    endloop
  endfacet
  facet normal 2.38133e-016 0.382683 -0.92388
    outer loop
      vertex 2.83757 1.16481 -2.01752
      vertex 16.5 -5.1764e-016 -2.5
      vertex 2.73921 3.76972e-016 -2.5
    endloop
  endfacet
  facet normal 5.87909e-017 2.63505e-008 -6.36157e-008
    outer loop
      vertex 2.83757 1.16481 -2.01752
      vertex 2.73921 3.76972e-016 -2.5
      vertex 2.83053 1.08147 -2.05204
    endloop
  endfacet
  facet normal 1.8333e-016 -0.382683 -0.92388
    outer loop
      vertex 2.68829 -1.76777 -1.76777
      vertex 2.83757 -1.16481 -2.01752
      vertex 16.5 -1.76777 -1.76777
    endloop
  endfacet
  facet normal 1.5857e-016 -0.382683 -0.92388
    outer loop
      vertex 16.5 -1.76777 -1.76777
      vertex 2.83757 -1.16481 -2.01752
      vertex 2.74307 -0.0457075 -2.48107
    endloop
  endfacet
  facet normal 3.02358e-017 -0.382683 -0.92388
    outer loop
      vertex 2.74307 -0.0457075 -2.48107
      vertex 2.73921 3.76972e-016 -2.5
      vertex 16.5 -1.76777 -1.76777
    endloop
  endfacet
  facet normal 1.74656e-016 -0.382683 -0.92388
    outer loop
      vertex 16.5 -1.76777 -1.76777
      vertex 2.73921 3.76972e-016 -2.5
      vertex 16.5 -5.1764e-016 -2.5
    endloop
  endfacet
  facet normal 2.53418e-017 -0.92388 -0.382683
    outer loop
      vertex 16.5 -2.5 3.10868e-015
      vertex 2.73921 -2.5 5.31735e-017
      vertex 2.83053 -2.05204 -1.08147
    endloop
  endfacet
  facet normal -1.5694e-017 -0.92388 -0.382683
    outer loop
      vertex 2.68829 -1.76777 -1.76777
      vertex 16.5 -2.5 3.10868e-015
      vertex 2.83757 -2.01752 -1.16481
    endloop
  endfacet
  facet normal 8.66037e-017 -0.92388 -0.382683
    outer loop
      vertex 2.83757 -2.01752 -1.16481
      vertex 16.5 -2.5 3.10868e-015
      vertex 2.83053 -2.05204 -1.08147
    endloop
  endfacet
  facet normal 2.672e-017 -0.92388 -0.382683
    outer loop
      vertex 16.5 -1.76777 -1.76777
      vertex 16.5 -2.5 3.10868e-015
      vertex 2.68829 -1.76777 -1.76777
    endloop
  endfacet
  facet normal -1.3939e-016 -0.92388 0.382683
    outer loop
      vertex 16.5 -1.76777 1.76777
      vertex 2.68829 -1.76777 1.76777
      vertex 2.83757 -2.01752 1.16481
    endloop
  endfacet
  facet normal -1.57078e-016 -0.92388 0.382683
    outer loop
      vertex 2.74307 -2.48107 0.0457075
      vertex 16.5 -1.76777 1.76777
      vertex 2.83757 -2.01752 1.16481
    endloop
  endfacet
  facet normal -2.81083e-016 -0.92388 0.382683
    outer loop
      vertex 2.74307 -2.48107 0.0457075
      vertex 2.73921 -2.5 5.31735e-017
      vertex 16.5 -1.76777 1.76777
    endloop
  endfacet
  facet normal -1.44604e-016 -0.92388 0.382683
    outer loop
      vertex 2.73921 -2.5 5.31735e-017
      vertex 16.5 -2.5 3.10868e-015
      vertex 16.5 -1.76777 1.76777
    endloop
  endfacet
  facet normal -2.30335e-016 -0.188982 0.981981
    outer loop
      vertex 97.5 -0.0230772 1.72761
      vertex 18.5 -0.0230772 1.72761
      vertex 18.5 -4.47692 0.870467
    endloop
  endfacet
  facet normal -2.28667e-016 -0.188982 0.981981
    outer loop
      vertex 97.5 -4.47692 0.870467
      vertex 97.5 -0.0230772 1.72761
      vertex 18.5 -4.47692 0.870467
    endloop
  endfacet
  facet normal -2.22045e-016 0 1
    outer loop
      vertex 18.5 0.0230772 1.72761
      vertex 18.5 -0.0230772 1.72761
      vertex 97.5 -0.0230772 1.72761
    endloop
  endfacet
  facet normal -2.22045e-016 0 1
    outer loop
      vertex 97.5 0.0230772 1.72761
      vertex 18.5 0.0230772 1.72761
      vertex 97.5 -0.0230772 1.72761
    endloop
  endfacet
  facet normal -2.20403e-016 -0.5 0.866025
    outer loop
      vertex 97.5 -4.47692 0.870467
      vertex 18.5 -4.47692 0.870467
      vertex 18.5 -4.5 0.857143
    endloop
  endfacet
  facet normal -2.26025e-016 -0.5 0.866025
    outer loop
      vertex 97.5 -4.5 0.857143
      vertex 97.5 -4.47692 0.870467
      vertex 18.5 -4.5 0.857143
    endloop
  endfacet
  facet normal -6.74566e-017 -1 1.03621e-015
    outer loop
      vertex 97.5 -4.5 0.857143
      vertex 18.5 -4.5 0.857143
      vertex 18.5 -4.5 -0.857143
    endloop
  endfacet
  facet normal -5.62138e-017 -1 5.18104e-016
    outer loop
      vertex 97.5 -4.5 -0.857143
      vertex 97.5 -4.5 0.857143
      vertex 18.5 -4.5 -0.857143
    endloop
  endfacet
  facet normal 1.64189e-016 -0.5 -0.866025
    outer loop
      vertex 18.5 -4.5 -0.857143
      vertex 18.5 -4.47692 -0.870467
      vertex 97.5 -4.5 -0.857143
    endloop
  endfacet
  facet normal 1.58584e-016 -0.5 -0.866025
    outer loop
      vertex 97.5 -4.5 -0.857143
      vertex 18.5 -4.47692 -0.870467
      vertex 97.5 -4.47692 -0.870467
    endloop
  endfacet
  facet normal 2.05295e-016 -0.188982 -0.981981
    outer loop
      vertex 18.5 -4.47692 -0.870467
      vertex 18.5 -0.0230772 -1.72761
      vertex 97.5 -4.47692 -0.870467
    endloop
  endfacet
  facet normal 2.05641e-016 -0.188982 -0.981981
    outer loop
      vertex 97.5 -4.47692 -0.870467
      vertex 18.5 -0.0230772 -1.72761
      vertex 97.5 -0.0230772 -1.72761
    endloop
  endfacet
  facet normal 2.22045e-016 0 -1
    outer loop
      vertex 18.5 -0.0230772 -1.72761
      vertex 18.5 0.0230772 -1.72761
      vertex 97.5 -0.0230772 -1.72761
    endloop
  endfacet
  facet normal 2.22045e-016 0 -1
    outer loop
      vertex 97.5 -0.0230772 -1.72761
      vertex 18.5 0.0230772 -1.72761
      vertex 97.5 0.0230772 -1.72761
    endloop
  endfacet
  facet normal 2.30792e-016 0.188982 -0.981981
    outer loop
      vertex 18.5 4.47692 -0.870467
      vertex 97.5 4.47692 -0.870467
      vertex 18.5 0.0230772 -1.72761
    endloop
  endfacet
  facet normal 2.30327e-016 0.188982 -0.981981
    outer loop
      vertex 18.5 0.0230772 -1.72761
      vertex 97.5 4.47692 -0.870467
      vertex 97.5 0.0230772 -1.72761
    endloop
  endfacet
  facet normal 2.20403e-016 0.5 -0.866025
    outer loop
      vertex 18.5 4.5 -0.857143
      vertex 97.5 4.5 -0.857143
      vertex 18.5 4.47692 -0.870467
    endloop
  endfacet
  facet normal 2.26025e-016 0.5 -0.866025
    outer loop
      vertex 18.5 4.47692 -0.870467
      vertex 97.5 4.5 -0.857143
      vertex 97.5 4.47692 -0.870467
    endloop
  endfacet
  facet normal 6.74566e-017 1 -1.03621e-015
    outer loop
      vertex 18.5 4.5 0.857143
      vertex 97.5 4.5 0.857143
      vertex 18.5 4.5 -0.857143
    endloop
  endfacet
  facet normal 5.62138e-017 1 -5.18104e-016
    outer loop
      vertex 18.5 4.5 -0.857143
      vertex 97.5 4.5 0.857143
      vertex 97.5 4.5 -0.857143
    endloop
  endfacet
  facet normal -1.5857e-016 0.5 0.866025
    outer loop
      vertex 18.5 4.5 0.857143
      vertex 18.5 4.47692 0.870467
      vertex 97.5 4.47692 0.870467
    endloop
  endfacet
  facet normal -1.58568e-016 0.5 0.866025
    outer loop
      vertex 97.5 4.5 0.857143
      vertex 18.5 4.5 0.857143
      vertex 97.5 4.47692 0.870467
    endloop
  endfacet
  facet normal -2.04004e-016 0.188982 0.981981
    outer loop
      vertex 18.5 4.47692 0.870467
      vertex 18.5 0.0230772 1.72761
      vertex 97.5 0.0230772 1.72761
    endloop
  endfacet
  facet normal -2.05295e-016 0.188982 0.981981
    outer loop
      vertex 97.5 4.47692 0.870467
      vertex 18.5 4.47692 0.870467
      vertex 97.5 0.0230772 1.72761
    endloop
  endfacet
  facet normal 0.858356 -0.362784 0.362784
    outer loop
      vertex 2.68829 -1.76777 1.76777
      vertex 2.65165 -1.32583 2.2964
      vertex 2.65165 -2.2964 1.32582
    endloop
  endfacet
  facet normal 0.858356 -0.362784 0.362784
    outer loop
      vertex 2.83757 -1.16481 2.01752
      vertex 2.65165 -1.32583 2.2964
      vertex 2.68829 -1.76777 1.76777
    endloop
  endfacet
  facet normal 0.858356 -0.362784 0.362784
    outer loop
      vertex 2.83757 -2.01752 1.16481
      vertex 2.68829 -1.76777 1.76777
      vertex 2.65165 -2.2964 1.32582
    endloop
  endfacet
  facet normal 0.858356 -0.132787 0.495573
    outer loop
      vertex 2.83053 -1.08147 2.05204
      vertex 2.65165 -1.32583 2.2964
      vertex 2.83757 -1.16481 2.01752
    endloop
  endfacet
  facet normal 0.858356 -0.132788 0.495572
    outer loop
      vertex 2.73921 -7.33132e-016 2.5
      vertex 2.65165 -7.6111e-016 2.65165
      vertex 2.65165 -1.32583 2.2964
    endloop
  endfacet
  facet normal 0.858356 -0.132788 0.495572
    outer loop
      vertex 2.83053 -1.08147 2.05204
      vertex 2.73921 -7.33132e-016 2.5
      vertex 2.65165 -1.32583 2.2964
    endloop
  endfacet
  facet normal 0.858356 0.132787 0.495573
    outer loop
      vertex 2.74307 0.0457075 2.48107
      vertex 2.65165 -7.6111e-016 2.65165
      vertex 2.73921 -7.33132e-016 2.5
    endloop
  endfacet
  facet normal 0.858356 0.132788 0.495573
    outer loop
      vertex 2.65165 1.32582 2.2964
      vertex 2.65165 -7.6111e-016 2.65165
      vertex 2.74307 0.0457075 2.48107
    endloop
  endfacet
  facet normal 0.858356 0.132788 0.495573
    outer loop
      vertex 2.83757 1.16481 2.01752
      vertex 2.65165 1.32582 2.2964
      vertex 2.74307 0.0457075 2.48107
    endloop
  endfacet
  facet normal 0.858356 0.362784 0.362784
    outer loop
      vertex 2.68829 1.76777 1.76777
      vertex 2.65165 1.32582 2.2964
      vertex 2.83757 1.16481 2.01752
    endloop
  endfacet
  facet normal 0.858356 0.362784 0.362784
    outer loop
      vertex 2.65165 2.2964 1.32583
      vertex 2.65165 1.32582 2.2964
      vertex 2.68829 1.76777 1.76777
    endloop
  endfacet
  facet normal 0.858356 0.362784 0.362784
    outer loop
      vertex 2.68829 1.76777 1.76777
      vertex 2.83757 2.01752 1.16481
      vertex 2.65165 2.2964 1.32583
    endloop
  endfacet
  facet normal 0.858356 0.495573 0.132787
    outer loop
      vertex 2.83053 2.05204 1.08147
      vertex 2.65165 2.2964 1.32583
      vertex 2.83757 2.01752 1.16481
    endloop
  endfacet
  facet normal 0.858356 0.495572 0.132788
    outer loop
      vertex 2.65165 2.65165 1.17751e-015
      vertex 2.65165 2.2964 1.32583
      vertex 2.83053 2.05204 1.08147
    endloop
  endfacet
  facet normal 0.858356 0.495572 0.132788
    outer loop
      vertex 2.73921 2.5 1.16328e-015
      vertex 2.65165 2.65165 1.17751e-015
      vertex 2.83053 2.05204 1.08147
    endloop
  endfacet
  facet normal 0.858356 0.495573 -0.132787
    outer loop
      vertex 2.65165 2.65165 1.17751e-015
      vertex 2.73921 2.5 1.16328e-015
      vertex 2.74307 2.48107 -0.0457075
    endloop
  endfacet
  facet normal 0.858356 0.495573 -0.132788
    outer loop
      vertex 2.65165 2.2964 -1.32582
      vertex 2.65165 2.65165 1.17751e-015
      vertex 2.74307 2.48107 -0.0457075
    endloop
  endfacet
  facet normal 0.858356 0.495573 -0.132788
    outer loop
      vertex 2.83757 2.01752 -1.16481
      vertex 2.65165 2.2964 -1.32582
      vertex 2.74307 2.48107 -0.0457075
    endloop
  endfacet
  facet normal 0.858356 0.362784 -0.362784
    outer loop
      vertex 2.65165 2.2964 -1.32582
      vertex 2.83757 2.01752 -1.16481
      vertex 2.68829 1.76777 -1.76777
    endloop
  endfacet
  facet normal 0.858356 0.362784 -0.362784
    outer loop
      vertex 2.65165 1.32583 -2.2964
      vertex 2.65165 2.2964 -1.32582
      vertex 2.68829 1.76777 -1.76777
    endloop
  endfacet
  facet normal 0.858356 0.362784 -0.362784
    outer loop
      vertex 2.83757 1.16481 -2.01752
      vertex 2.65165 1.32583 -2.2964
      vertex 2.68829 1.76777 -1.76777
    endloop
  endfacet
  facet normal 0.858356 0.132787 -0.495573
    outer loop
      vertex 2.65165 1.32583 -2.2964
      vertex 2.83757 1.16481 -2.01752
      vertex 2.83053 1.08147 -2.05204
    endloop
  endfacet
  facet normal 0.858356 0.132788 -0.495572
    outer loop
      vertex 2.65165 1.32583 -2.2964
      vertex 2.83053 1.08147 -2.05204
      vertex 2.73921 3.76972e-016 -2.5
    endloop
  endfacet
  facet normal 0.858356 0.132788 -0.495572
    outer loop
      vertex 2.65165 4.16334e-016 -2.65165
      vertex 2.65165 1.32583 -2.2964
      vertex 2.73921 3.76972e-016 -2.5
    endloop
  endfacet
  facet normal 0.858356 -0.132787 -0.495573
    outer loop
      vertex 2.73921 3.76972e-016 -2.5
      vertex 2.74307 -0.0457075 -2.48107
      vertex 2.65165 4.16334e-016 -2.65165
    endloop
  endfacet
  facet normal 0.858356 -0.132788 -0.495573
    outer loop
      vertex 2.74307 -0.0457075 -2.48107
      vertex 2.83757 -1.16481 -2.01752
      vertex 2.65165 -1.32582 -2.2964
    endloop
  endfacet
  facet normal 0.858356 -0.132788 -0.495573
    outer loop
      vertex 2.65165 4.16334e-016 -2.65165
      vertex 2.74307 -0.0457075 -2.48107
      vertex 2.65165 -1.32582 -2.2964
    endloop
  endfacet
  facet normal 0.858356 -0.362784 -0.362784
    outer loop
      vertex 2.68829 -1.76777 -1.76777
      vertex 2.83757 -2.01752 -1.16481
      vertex 2.65165 -2.2964 -1.32582
    endloop
  endfacet
  facet normal 0.858356 -0.362784 -0.362784
    outer loop
      vertex 2.65165 -1.32582 -2.2964
      vertex 2.68829 -1.76777 -1.76777
      vertex 2.65165 -2.2964 -1.32582
    endloop
  endfacet
  facet normal 0.858356 -0.362784 -0.362784
    outer loop
      vertex 2.83757 -1.16481 -2.01752
      vertex 2.68829 -1.76777 -1.76777
      vertex 2.65165 -1.32582 -2.2964
    endloop
  endfacet
  facet normal 0.858356 -0.495573 -0.132787
    outer loop
      vertex 2.83757 -2.01752 -1.16481
      vertex 2.83053 -2.05204 -1.08147
      vertex 2.65165 -2.2964 -1.32582
    endloop
  endfacet
  facet normal 0.858356 -0.495572 -0.132788
    outer loop
      vertex 2.73921 -2.5 5.31735e-017
      vertex 2.65165 -2.65165 6.28923e-020
      vertex 2.65165 -2.2964 -1.32582
    endloop
  endfacet
  facet normal 0.858356 -0.495572 -0.132788
    outer loop
      vertex 2.83053 -2.05204 -1.08147
      vertex 2.73921 -2.5 5.31735e-017
      vertex 2.65165 -2.2964 -1.32582
    endloop
  endfacet
  facet normal 0.858356 -0.495573 0.132787
    outer loop
      vertex 2.73921 -2.5 5.31735e-017
      vertex 2.74307 -2.48107 0.0457075
      vertex 2.65165 -2.65165 6.28923e-020
    endloop
  endfacet
  facet normal 0.858356 -0.495573 0.132788
    outer loop
      vertex 2.83757 -2.01752 1.16481
      vertex 2.65165 -2.2964 1.32582
      vertex 2.65165 -2.65165 6.28923e-020
    endloop
  endfacet
  facet normal 0.858356 -0.495573 0.132788
    outer loop
      vertex 2.74307 -2.48107 0.0457075
      vertex 2.83757 -2.01752 1.16481
      vertex 2.65165 -2.65165 6.28923e-020
    endloop
  endfacet
  facet normal 0.0914741 -0 0.995807
    outer loop
      vertex 97.5 0.0230772 1.72761
      vertex 97.5 -0.0230772 1.72761
      vertex 107.5 0.587785 0.809017
    endloop
  endfacet
  facet normal 0.0914741 -1.88091e-016 0.995807
    outer loop
      vertex 107.5 0.587785 0.809017
      vertex 97.5 -0.0230772 1.72761
      vertex 107.5 -0.587785 0.809017
    endloop
  endfacet
  facet normal 0.0792817 -0.188387 0.978889
    outer loop
      vertex 107.5 -0.587785 0.809017
      vertex 97.5 -0.0230772 1.72761
      vertex 97.5 -4.47692 0.870467
    endloop
  endfacet
  facet normal 0.195907 -0.490311 0.849244
    outer loop
      vertex 107.5 -0.587785 0.809017
      vertex 97.5 -4.47692 0.870467
      vertex 97.5 -4.5 0.857143
    endloop
  endfacet
  facet normal 0.0792817 0.188387 0.978889
    outer loop
      vertex 97.5 4.47692 0.870467
      vertex 97.5 0.0230772 1.72761
      vertex 107.5 0.587785 0.809017
    endloop
  endfacet
  facet normal 0.334456 -0.942411 3.05167e-016
    outer loop
      vertex 107.5 -0.951057 -0.309017
      vertex 97.5 -4.5 0.857143
      vertex 97.5 -4.5 -0.857143
    endloop
  endfacet
  facet normal 0.349941 -0.890923 0.289479
    outer loop
      vertex 107.5 -0.587785 0.809017
      vertex 97.5 -4.5 0.857143
      vertex 107.5 -0.951057 -0.309017
    endloop
  endfacet
  facet normal 0.245223 -0.569838 -0.784315
    outer loop
      vertex 107.5 -6.76673e-015 -1
      vertex 107.5 -0.951057 -0.309017
      vertex 97.5 -4.5 -0.857143
    endloop
  endfacet
  facet normal 0.207979 -0.489067 -0.847088
    outer loop
      vertex 107.5 -6.76673e-015 -1
      vertex 97.5 -4.5 -0.857143
      vertex 97.5 -4.47692 -0.870467
    endloop
  endfacet
  facet normal 0.0717009 -0.188496 -0.979453
    outer loop
      vertex 107.5 -6.76673e-015 -1
      vertex 97.5 -4.47692 -0.870467
      vertex 97.5 -0.0230772 -1.72761
    endloop
  endfacet
  facet normal 0.0725691 0 -0.997363
    outer loop
      vertex 97.5 0.0230772 -1.72761
      vertex 107.5 -6.76673e-015 -1
      vertex 97.5 -0.0230772 -1.72761
    endloop
  endfacet
  facet normal 0.0717009 0.188496 -0.979453
    outer loop
      vertex 97.5 0.0230772 -1.72761
      vertex 97.5 4.47692 -0.870467
      vertex 107.5 -6.76673e-015 -1
    endloop
  endfacet
  facet normal 0.207979 0.489067 -0.847088
    outer loop
      vertex 97.5 4.47692 -0.870467
      vertex 97.5 4.5 -0.857143
      vertex 107.5 -6.76673e-015 -1
    endloop
  endfacet
  facet normal 0.245223 0.569838 -0.784315
    outer loop
      vertex 97.5 4.5 -0.857143
      vertex 107.5 0.951057 -0.309017
      vertex 107.5 -6.76673e-015 -1
    endloop
  endfacet
  facet normal 0.334456 0.942411 -4.88267e-016
    outer loop
      vertex 97.5 4.5 -0.857143
      vertex 97.5 4.5 0.857143
      vertex 107.5 0.951057 -0.309017
    endloop
  endfacet
  facet normal 0.195907 0.490311 0.849244
    outer loop
      vertex 97.5 4.5 0.857143
      vertex 97.5 4.47692 0.870467
      vertex 107.5 0.587785 0.809017
    endloop
  endfacet
  facet normal 0.349941 0.890923 0.289479
    outer loop
      vertex 107.5 0.951057 -0.309017
      vertex 97.5 4.5 0.857143
      vertex 107.5 0.587785 0.809017
    endloop
  endfacet
  facet normal 0.487059 -0.84361 0.226044
    outer loop
      vertex 2.65165 -2.65165 6.28923e-020
      vertex 2.65165 -2.2964 1.32582
      vertex 0.970571 -3.62222 -5.88699e-016
    endloop
  endfacet
  facet normal 0.487058 -0.84361 0.226045
    outer loop
      vertex 2.65165 -2.2964 1.32582
      vertex 0.970571 -3.13694 1.81111
      vertex 0.970571 -3.62222 -5.88699e-016
    endloop
  endfacet
  facet normal 0.487058 -0.617565 0.617565
    outer loop
      vertex 2.65165 -1.32583 2.2964
      vertex 0.970571 -1.81111 3.13694
      vertex 0.970571 -3.13694 1.81111
    endloop
  endfacet
  facet normal 0.487058 -0.617565 0.617565
    outer loop
      vertex 2.65165 -2.2964 1.32582
      vertex 2.65165 -1.32583 2.2964
      vertex 0.970571 -3.13694 1.81111
    endloop
  endfacet
  facet normal 0.487058 -0.226044 0.84361
    outer loop
      vertex 2.65165 -7.6111e-016 2.65165
      vertex 0.970571 -1.81111 3.13694
      vertex 2.65165 -1.32583 2.2964
    endloop
  endfacet
  facet normal 0.487059 -0.226045 0.84361
    outer loop
      vertex 2.65165 -7.6111e-016 2.65165
      vertex 0.970571 -8.67307e-016 3.62222
      vertex 0.970571 -1.81111 3.13694
    endloop
  endfacet
  facet normal 0.487059 0.226044 0.84361
    outer loop
      vertex 2.65165 1.32582 2.2964
      vertex 0.970571 -8.67307e-016 3.62222
      vertex 2.65165 -7.6111e-016 2.65165
    endloop
  endfacet
  facet normal 0.487058 0.226045 0.84361
    outer loop
      vertex 0.970571 1.81111 3.13694
      vertex 0.970571 -8.67307e-016 3.62222
      vertex 2.65165 1.32582 2.2964
    endloop
  endfacet
  facet normal 0.487058 0.617565 0.617565
    outer loop
      vertex 0.970571 3.13694 1.81111
      vertex 0.970571 1.81111 3.13694
      vertex 2.65165 1.32582 2.2964
    endloop
  endfacet
  facet normal 0.487058 0.617565 0.617565
    outer loop
      vertex 2.65165 2.2964 1.32583
      vertex 0.970571 3.13694 1.81111
      vertex 2.65165 1.32582 2.2964
    endloop
  endfacet
  facet normal 0.487058 0.84361 0.226044
    outer loop
      vertex 2.65165 2.65165 1.17751e-015
      vertex 0.970571 3.13694 1.81111
      vertex 2.65165 2.2964 1.32583
    endloop
  endfacet
  facet normal 0.487059 0.84361 0.226045
    outer loop
      vertex 0.970571 3.62222 1.01972e-015
      vertex 0.970571 3.13694 1.81111
      vertex 2.65165 2.65165 1.17751e-015
    endloop
  endfacet
  facet normal 0.487059 0.84361 -0.226044
    outer loop
      vertex 0.970571 3.62222 1.01972e-015
      vertex 2.65165 2.65165 1.17751e-015
      vertex 2.65165 2.2964 -1.32582
    endloop
  endfacet
  facet normal 0.487058 0.84361 -0.226045
    outer loop
      vertex 0.970571 3.13694 -1.81111
      vertex 0.970571 3.62222 1.01972e-015
      vertex 2.65165 2.2964 -1.32582
    endloop
  endfacet
  facet normal 0.487058 0.617565 -0.617565
    outer loop
      vertex 2.65165 2.2964 -1.32582
      vertex 2.65165 1.32583 -2.2964
      vertex 0.970571 3.13694 -1.81111
    endloop
  endfacet
  facet normal 0.487058 0.617565 -0.617565
    outer loop
      vertex 0.970571 3.13694 -1.81111
      vertex 2.65165 1.32583 -2.2964
      vertex 0.970571 1.81111 -3.13694
    endloop
  endfacet
  facet normal 0.487058 0.226044 -0.84361
    outer loop
      vertex 0.970571 1.81111 -3.13694
      vertex 2.65165 1.32583 -2.2964
      vertex 2.65165 4.16334e-016 -2.65165
    endloop
  endfacet
  facet normal 0.487059 -0.226044 -0.84361
    outer loop
      vertex 2.65165 4.16334e-016 -2.65165
      vertex 2.65165 -1.32582 -2.2964
      vertex 0.970571 7.41111e-016 -3.62222
    endloop
  endfacet
  facet normal 0.487059 0.226045 -0.84361
    outer loop
      vertex 0.970571 1.81111 -3.13694
      vertex 2.65165 4.16334e-016 -2.65165
      vertex 0.970571 7.41111e-016 -3.62222
    endloop
  endfacet
  facet normal 0.487058 -0.226045 -0.84361
    outer loop
      vertex 0.970571 7.41111e-016 -3.62222
      vertex 2.65165 -1.32582 -2.2964
      vertex 0.970571 -1.81111 -3.13694
    endloop
  endfacet
  facet normal 0.487058 -0.617565 -0.617565
    outer loop
      vertex 2.65165 -2.2964 -1.32582
      vertex 0.970571 -3.13694 -1.81111
      vertex 2.65165 -1.32582 -2.2964
    endloop
  endfacet
  facet normal 0.487058 -0.617565 -0.617565
    outer loop
      vertex 2.65165 -1.32582 -2.2964
      vertex 0.970571 -3.13694 -1.81111
      vertex 0.970571 -1.81111 -3.13694
    endloop
  endfacet
  facet normal 0.487058 -0.84361 -0.226044
    outer loop
      vertex 2.65165 -2.2964 -1.32582
      vertex 2.65165 -2.65165 6.28923e-020
      vertex 0.970571 -3.13694 -1.81111
    endloop
  endfacet
  facet normal 0.487059 -0.84361 -0.226045
    outer loop
      vertex 2.65165 -2.65165 6.28923e-020
      vertex 0.970571 -3.62222 -5.88699e-016
      vertex 0.970571 -3.13694 -1.81111
    endloop
  endfacet
  facet normal 0.423197 0.861693 0.279981
    outer loop
      vertex 107.5 0.951057 -0.309017
      vertex 107.5 0.587785 0.809017
      vertex 108.366 0.293893 0.404508
    endloop
  endfacet
  facet normal 0.423198 -1.71135e-016 0.906037
    outer loop
      vertex 107.5 0.587785 0.809017
      vertex 107.5 -0.587785 0.809017
      vertex 108.366 -0.293893 0.404508
    endloop
  endfacet
  facet normal 0.423198 -2.56701e-016 0.906037
    outer loop
      vertex 108.366 0.293893 0.404508
      vertex 107.5 0.587785 0.809017
      vertex 108.366 -0.293893 0.404508
    endloop
  endfacet
  facet normal 0.423197 -0.861693 0.279981
    outer loop
      vertex 108.366 -0.293893 0.404508
      vertex 107.5 -0.587785 0.809017
      vertex 107.5 -0.951057 -0.309017
    endloop
  endfacet
  facet normal 0.423198 -0.861693 0.27998
    outer loop
      vertex 108.366 -0.475528 -0.154508
      vertex 108.366 -0.293893 0.404508
      vertex 107.5 -0.951057 -0.309017
    endloop
  endfacet
  facet normal 0.423199 -0.532556 -0.732999
    outer loop
      vertex 108.366 -6.93404e-015 -0.5
      vertex 108.366 -0.475528 -0.154508
      vertex 107.5 -0.951057 -0.309017
    endloop
  endfacet
  facet normal 0.423198 -0.532555 -0.733
    outer loop
      vertex 108.366 -6.93404e-015 -0.5
      vertex 107.5 -0.951057 -0.309017
      vertex 107.5 -6.76673e-015 -1
    endloop
  endfacet
  facet normal 0.423198 0.532555 -0.733
    outer loop
      vertex 107.5 -6.76673e-015 -1
      vertex 107.5 0.951057 -0.309017
      vertex 108.366 -6.93404e-015 -0.5
    endloop
  endfacet
  facet normal 0.423199 0.532556 -0.732999
    outer loop
      vertex 107.5 0.951057 -0.309017
      vertex 108.366 0.475528 -0.154508
      vertex 108.366 -6.93404e-015 -0.5
    endloop
  endfacet
  facet normal 0.423198 0.861693 0.27998
    outer loop
      vertex 107.5 0.951057 -0.309017
      vertex 108.366 0.293893 0.404508
      vertex 108.366 0.475528 -0.154508
    endloop
  endfacet
  facet normal -1.63512e-016 -0.965926 -0.258819
    outer loop
      vertex 0.970571 -3.62222 -5.88699e-016
      vertex -0.970571 -3.62222 -1.01972e-015
      vertex -0.970571 -3.13694 -1.81111
    endloop
  endfacet
  facet normal -1.6177e-016 -0.965926 -0.258819
    outer loop
      vertex 0.970571 -3.13694 -1.81111
      vertex 0.970571 -3.62222 -5.88699e-016
      vertex -0.970571 -3.13694 -1.81111
    endloop
  endfacet
  facet normal -2.80194e-016 -0.965926 0.258819
    outer loop
      vertex 0.970571 -3.13694 1.81111
      vertex -0.970571 -3.13694 1.81111
      vertex -0.970571 -3.62222 -1.01972e-015
    endloop
  endfacet
  facet normal -2.78451e-016 -0.965926 0.258819
    outer loop
      vertex 0.970571 -3.62222 -5.88699e-016
      vertex 0.970571 -3.13694 1.81111
      vertex -0.970571 -3.62222 -1.01972e-015
    endloop
  endfacet
  facet normal -2.42655e-016 -0.707107 0.707107
    outer loop
      vertex 0.970571 -1.81111 3.13694
      vertex -0.970571 -1.81111 3.13694
      vertex -0.970571 -3.13694 1.81111
    endloop
  endfacet
  facet normal -3.2354e-016 -0.707107 0.707107
    outer loop
      vertex 0.970571 -3.13694 1.81111
      vertex 0.970571 -1.81111 3.13694
      vertex -0.970571 -3.13694 1.81111
    endloop
  endfacet
  facet normal -2.37808e-016 -0.258819 0.965926
    outer loop
      vertex 0.970571 -8.67307e-016 3.62222
      vertex -0.970571 -7.41111e-016 3.62222
      vertex -0.970571 -1.81111 3.13694
    endloop
  endfacet
  facet normal -2.50588e-016 -0.258819 0.965926
    outer loop
      vertex 0.970571 -1.81111 3.13694
      vertex 0.970571 -8.67307e-016 3.62222
      vertex -0.970571 -1.81111 3.13694
    endloop
  endfacet
  facet normal -1.80321e-016 0.258819 0.965926
    outer loop
      vertex -0.970571 1.81111 3.13694
      vertex -0.970571 -7.41111e-016 3.62222
      vertex 0.970571 -8.67307e-016 3.62222
    endloop
  endfacet
  facet normal -1.91376e-016 0.258819 0.965926
    outer loop
      vertex 0.970571 1.81111 3.13694
      vertex -0.970571 1.81111 3.13694
      vertex 0.970571 -8.67307e-016 3.62222
    endloop
  endfacet
  facet normal -1.0377e-016 0.707107 0.707107
    outer loop
      vertex -0.970571 3.13694 1.81111
      vertex -0.970571 1.81111 3.13694
      vertex 0.970571 1.81111 3.13694
    endloop
  endfacet
  facet normal -1.05027e-031 0.707107 0.707107
    outer loop
      vertex 0.970571 3.13694 1.81111
      vertex -0.970571 3.13694 1.81111
      vertex 0.970571 1.81111 3.13694
    endloop
  endfacet
  facet normal 1.6177e-016 0.965926 0.258819
    outer loop
      vertex -0.970571 3.13694 1.81111
      vertex 0.970571 3.13694 1.81111
      vertex -0.970571 3.62222 5.88699e-016
    endloop
  endfacet
  facet normal 1.63512e-016 0.965926 0.258819
    outer loop
      vertex -0.970571 3.62222 5.88699e-016
      vertex 0.970571 3.13694 1.81111
      vertex 0.970571 3.62222 1.01972e-015
    endloop
  endfacet
  facet normal 2.78451e-016 0.965926 -0.258819
    outer loop
      vertex -0.970571 3.62222 5.88699e-016
      vertex 0.970571 3.62222 1.01972e-015
      vertex -0.970571 3.13694 -1.81111
    endloop
  endfacet
  facet normal 2.80194e-016 0.965926 -0.258819
    outer loop
      vertex -0.970571 3.13694 -1.81111
      vertex 0.970571 3.62222 1.01972e-015
      vertex 0.970571 3.13694 -1.81111
    endloop
  endfacet
  facet normal 3.2354e-016 0.707107 -0.707107
    outer loop
      vertex -0.970571 3.13694 -1.81111
      vertex 0.970571 3.13694 -1.81111
      vertex -0.970571 1.81111 -3.13694
    endloop
  endfacet
  facet normal 2.42655e-016 0.707107 -0.707107
    outer loop
      vertex -0.970571 1.81111 -3.13694
      vertex 0.970571 3.13694 -1.81111
      vertex 0.970571 1.81111 -3.13694
    endloop
  endfacet
  facet normal 2.50588e-016 0.258819 -0.965926
    outer loop
      vertex -0.970571 1.81111 -3.13694
      vertex 0.970571 1.81111 -3.13694
      vertex -0.970571 8.67307e-016 -3.62222
    endloop
  endfacet
  facet normal 2.37808e-016 0.258819 -0.965926
    outer loop
      vertex -0.970571 8.67307e-016 -3.62222
      vertex 0.970571 1.81111 -3.13694
      vertex 0.970571 7.41111e-016 -3.62222
    endloop
  endfacet
  facet normal 1.91376e-016 -0.258819 -0.965926
    outer loop
      vertex -0.970571 -1.81111 -3.13694
      vertex -0.970571 8.67307e-016 -3.62222
      vertex 0.970571 -1.81111 -3.13694
    endloop
  endfacet
  facet normal 1.77838e-016 -0.258819 -0.965926
    outer loop
      vertex 0.970571 -1.81111 -3.13694
      vertex -0.970571 8.67307e-016 -3.62222
      vertex 0.970571 7.41111e-016 -3.62222
    endloop
  endfacet
  facet normal 1.02248e-031 -0.707107 -0.707107
    outer loop
      vertex -0.970571 -3.13694 -1.81111
      vertex -0.970571 -1.81111 -3.13694
      vertex 0.970571 -3.13694 -1.81111
    endloop
  endfacet
  facet normal 8.96836e-017 -0.707107 -0.707107
    outer loop
      vertex 0.970571 -3.13694 -1.81111
      vertex -0.970571 -1.81111 -3.13694
      vertex 0.970571 -1.81111 -3.13694
    endloop
  endfacet
  facet normal 1 0 0
    outer loop
      vertex 108.366 0.293893 0.404508
      vertex 108.366 -0.293893 0.404508
      vertex 108.366 -0.475528 -0.154508
    endloop
  endfacet
  facet normal 1 -0 0
    outer loop
      vertex 108.366 0.475528 -0.154508
      vertex 108.366 0.293893 0.404508
      vertex 108.366 -6.93404e-015 -0.5
    endloop
  endfacet
  facet normal 1 0 0
    outer loop
      vertex 108.366 -6.93404e-015 -0.5
      vertex 108.366 0.293893 0.404508
      vertex 108.366 -0.475528 -0.154508
    endloop
  endfacet
  facet normal -0.487058 -0.617565 -0.617565
    outer loop
      vertex -2.65165 -2.2964 -1.32583
      vertex -2.65165 -1.32582 -2.2964
      vertex -0.970571 -3.13694 -1.81111
    endloop
  endfacet
  facet normal -0.487058 -0.617565 -0.617565
    outer loop
      vertex -0.970571 -3.13694 -1.81111
      vertex -2.65165 -1.32582 -2.2964
      vertex -0.970571 -1.81111 -3.13694
    endloop
  endfacet
  facet normal -0.487058 -0.84361 -0.226045
    outer loop
      vertex -0.970571 -3.13694 -1.81111
      vertex -0.970571 -3.62222 -1.01972e-015
      vertex -2.65165 -2.2964 -1.32583
    endloop
  endfacet
  facet normal -0.487059 -0.84361 -0.226044
    outer loop
      vertex -2.65165 -2.2964 -1.32583
      vertex -0.970571 -3.62222 -1.01972e-015
      vertex -2.65165 -2.65165 -1.17751e-015
    endloop
  endfacet
  facet normal -0.487059 -0.84361 0.226045
    outer loop
      vertex -0.970571 -3.62222 -1.01972e-015
      vertex -0.970571 -3.13694 1.81111
      vertex -2.65165 -2.65165 -1.17751e-015
    endloop
  endfacet
  facet normal -0.487058 -0.84361 0.226044
    outer loop
      vertex -2.65165 -2.65165 -1.17751e-015
      vertex -0.970571 -3.13694 1.81111
      vertex -2.65165 -2.2964 1.32582
    endloop
  endfacet
  facet normal -0.487058 -0.617565 0.617565
    outer loop
      vertex -0.970571 -3.13694 1.81111
      vertex -0.970571 -1.81111 3.13694
      vertex -2.65165 -1.32583 2.2964
    endloop
  endfacet
  facet normal -0.487058 -0.617565 0.617565
    outer loop
      vertex -2.65165 -2.2964 1.32582
      vertex -0.970571 -3.13694 1.81111
      vertex -2.65165 -1.32583 2.2964
    endloop
  endfacet
  facet normal -0.487058 -0.226045 0.84361
    outer loop
      vertex -0.970571 -1.81111 3.13694
      vertex -0.970571 -7.41111e-016 3.62222
      vertex -2.65165 -1.32583 2.2964
    endloop
  endfacet
  facet normal -0.487059 -0.226044 0.84361
    outer loop
      vertex -2.65165 -1.32583 2.2964
      vertex -0.970571 -7.41111e-016 3.62222
      vertex -2.65165 -4.16334e-016 2.65165
    endloop
  endfacet
  facet normal -0.487059 0.226045 0.84361
    outer loop
      vertex -2.65165 -4.16334e-016 2.65165
      vertex -0.970571 -7.41111e-016 3.62222
      vertex -0.970571 1.81111 3.13694
    endloop
  endfacet
  facet normal -0.487058 0.226044 0.84361
    outer loop
      vertex -2.65165 -4.16334e-016 2.65165
      vertex -0.970571 1.81111 3.13694
      vertex -2.65165 1.32582 2.2964
    endloop
  endfacet
  facet normal -0.487058 0.617565 0.617565
    outer loop
      vertex -2.65165 1.32582 2.2964
      vertex -0.970571 1.81111 3.13694
      vertex -0.970571 3.13694 1.81111
    endloop
  endfacet
  facet normal -0.487058 0.617565 0.617565
    outer loop
      vertex -2.65165 2.2964 1.32582
      vertex -2.65165 1.32582 2.2964
      vertex -0.970571 3.13694 1.81111
    endloop
  endfacet
  facet normal -0.487058 0.84361 0.226045
    outer loop
      vertex -2.65165 2.2964 1.32582
      vertex -0.970571 3.13694 1.81111
      vertex -0.970571 3.62222 5.88699e-016
    endloop
  endfacet
  facet normal -0.487059 0.84361 0.226044
    outer loop
      vertex -2.65165 2.65165 -6.28923e-020
      vertex -2.65165 2.2964 1.32582
      vertex -0.970571 3.62222 5.88699e-016
    endloop
  endfacet
  facet normal -0.487059 0.84361 -0.226045
    outer loop
      vertex -0.970571 3.13694 -1.81111
      vertex -2.65165 2.65165 -6.28923e-020
      vertex -0.970571 3.62222 5.88699e-016
    endloop
  endfacet
  facet normal -0.487058 0.84361 -0.226044
    outer loop
      vertex -2.65165 2.2964 -1.32582
      vertex -2.65165 2.65165 -6.28923e-020
      vertex -0.970571 3.13694 -1.81111
    endloop
  endfacet
  facet normal -0.487058 0.617565 -0.617565
    outer loop
      vertex -2.65165 2.2964 -1.32582
      vertex -0.970571 3.13694 -1.81111
      vertex -2.65165 1.32583 -2.2964
    endloop
  endfacet
  facet normal -0.487058 0.617565 -0.617565
    outer loop
      vertex -2.65165 1.32583 -2.2964
      vertex -0.970571 3.13694 -1.81111
      vertex -0.970571 1.81111 -3.13694
    endloop
  endfacet
  facet normal -0.487058 0.226045 -0.84361
    outer loop
      vertex -0.970571 8.67307e-016 -3.62222
      vertex -2.65165 1.32583 -2.2964
      vertex -0.970571 1.81111 -3.13694
    endloop
  endfacet
  facet normal -0.487059 -0.226045 -0.84361
    outer loop
      vertex -0.970571 -1.81111 -3.13694
      vertex -2.65165 7.6111e-016 -2.65165
      vertex -0.970571 8.67307e-016 -3.62222
    endloop
  endfacet
  facet normal -0.487059 0.226044 -0.84361
    outer loop
      vertex -2.65165 7.6111e-016 -2.65165
      vertex -2.65165 1.32583 -2.2964
      vertex -0.970571 8.67307e-016 -3.62222
    endloop
  endfacet
  facet normal -0.487058 -0.226044 -0.84361
    outer loop
      vertex -0.970571 -1.81111 -3.13694
      vertex -2.65165 -1.32582 -2.2964
      vertex -2.65165 7.6111e-016 -2.65165
    endloop
  endfacet
  facet normal -0.858356 -0.132788 -0.495572
    outer loop
      vertex -2.65165 -1.32582 -2.2964
      vertex -3.62222 4.50974e-016 -0.970571
      vertex -2.65165 7.6111e-016 -2.65165
    endloop
  endfacet
  facet normal -0.858356 -0.132787 -0.495573
    outer loop
      vertex -2.65165 -1.32582 -2.2964
      vertex -3.62222 -0.485286 -0.84054
      vertex -3.62222 4.50974e-016 -0.970571
    endloop
  endfacet
  facet normal -0.858356 -0.362784 -0.362784
    outer loop
      vertex -3.62222 -0.84054 -0.485286
      vertex -3.62222 -0.485286 -0.84054
      vertex -2.65165 -2.2964 -1.32583
    endloop
  endfacet
  facet normal -0.858356 -0.362784 -0.362784
    outer loop
      vertex -2.65165 -2.2964 -1.32583
      vertex -3.62222 -0.485286 -0.84054
      vertex -2.65165 -1.32582 -2.2964
    endloop
  endfacet
  facet normal -0.858356 -0.495573 -0.132788
    outer loop
      vertex -2.65165 -2.2964 -1.32583
      vertex -2.65165 -2.65165 -1.17751e-015
      vertex -3.62222 -0.84054 -0.485286
    endloop
  endfacet
  facet normal -0.858356 -0.495573 -0.132787
    outer loop
      vertex -3.62222 -0.84054 -0.485286
      vertex -2.65165 -2.65165 -1.17751e-015
      vertex -3.62222 -0.970571 -1.01978e-015
    endloop
  endfacet
  facet normal -0.858356 -0.495572 0.132788
    outer loop
      vertex -2.65165 -2.65165 -1.17751e-015
      vertex -2.65165 -2.2964 1.32582
      vertex -3.62222 -0.970571 -1.01978e-015
    endloop
  endfacet
  facet normal -0.858356 -0.495573 0.132787
    outer loop
      vertex -3.62222 -0.970571 -1.01978e-015
      vertex -2.65165 -2.2964 1.32582
      vertex -3.62222 -0.84054 0.485286
    endloop
  endfacet
  facet normal -0.858356 -0.362784 0.362784
    outer loop
      vertex -2.65165 -1.32583 2.2964
      vertex -3.62222 -0.485286 0.84054
      vertex -2.65165 -2.2964 1.32582
    endloop
  endfacet
  facet normal -0.858356 -0.362784 0.362784
    outer loop
      vertex -2.65165 -2.2964 1.32582
      vertex -3.62222 -0.485286 0.84054
      vertex -3.62222 -0.84054 0.485286
    endloop
  endfacet
  facet normal -0.858356 -0.132788 0.495573
    outer loop
      vertex -2.65165 -1.32583 2.2964
      vertex -2.65165 -4.16334e-016 2.65165
      vertex -3.62222 -0.485286 0.84054
    endloop
  endfacet
  facet normal -0.858356 -0.132787 0.495573
    outer loop
      vertex -3.62222 -0.485286 0.84054
      vertex -2.65165 -4.16334e-016 2.65165
      vertex -3.62222 1.99996e-017 0.970571
    endloop
  endfacet
  facet normal -0.858356 0.132788 0.495572
    outer loop
      vertex -3.62222 1.99996e-017 0.970571
      vertex -2.65165 -4.16334e-016 2.65165
      vertex -2.65165 1.32582 2.2964
    endloop
  endfacet
  facet normal -0.858356 0.132787 0.495573
    outer loop
      vertex -3.62222 1.99996e-017 0.970571
      vertex -2.65165 1.32582 2.2964
      vertex -3.62222 0.485286 0.84054
    endloop
  endfacet
  facet normal -0.858356 0.362784 0.362784
    outer loop
      vertex -2.65165 1.32582 2.2964
      vertex -2.65165 2.2964 1.32582
      vertex -3.62222 0.485286 0.84054
    endloop
  endfacet
  facet normal -0.858356 0.362784 0.362784
    outer loop
      vertex -3.62222 0.485286 0.84054
      vertex -2.65165 2.2964 1.32582
      vertex -3.62222 0.84054 0.485286
    endloop
  endfacet
  facet normal -0.858356 0.495573 0.132788
    outer loop
      vertex -3.62222 0.84054 0.485286
      vertex -2.65165 2.2964 1.32582
      vertex -2.65165 2.65165 -6.28923e-020
    endloop
  endfacet
  facet normal -0.858356 0.495573 0.132787
    outer loop
      vertex -3.62222 0.970571 -5.88808e-016
      vertex -3.62222 0.84054 0.485286
      vertex -2.65165 2.65165 -6.28923e-020
    endloop
  endfacet
  facet normal -0.858356 0.495572 -0.132788
    outer loop
      vertex -2.65165 2.2964 -1.32582
      vertex -3.62222 0.970571 -5.88808e-016
      vertex -2.65165 2.65165 -6.28923e-020
    endloop
  endfacet
  facet normal -0.858356 0.495573 -0.132787
    outer loop
      vertex -3.62222 0.84054 -0.485286
      vertex -3.62222 0.970571 -5.88808e-016
      vertex -2.65165 2.2964 -1.32582
    endloop
  endfacet
  facet normal -0.858356 0.362784 -0.362784
    outer loop
      vertex -3.62222 0.84054 -0.485286
      vertex -2.65165 2.2964 -1.32582
      vertex -3.62222 0.485286 -0.84054
    endloop
  endfacet
  facet normal -0.858356 0.362784 -0.362784
    outer loop
      vertex -3.62222 0.485286 -0.84054
      vertex -2.65165 2.2964 -1.32582
      vertex -2.65165 1.32583 -2.2964
    endloop
  endfacet
  facet normal -0.858356 0.132788 -0.495573
    outer loop
      vertex -2.65165 7.6111e-016 -2.65165
      vertex -3.62222 0.485286 -0.84054
      vertex -2.65165 1.32583 -2.2964
    endloop
  endfacet
  facet normal -0.858356 0.132787 -0.495573
    outer loop
      vertex -3.62222 4.50974e-016 -0.970571
      vertex -3.62222 0.485286 -0.84054
      vertex -2.65165 7.6111e-016 -2.65165
    endloop
  endfacet
  facet normal -1 0 0
    outer loop
      vertex -3.62222 1.99996e-017 0.970571
      vertex -3.62222 0.485286 0.84054
      vertex -3.62222 -0.485286 0.84054
    endloop
  endfacet
  facet normal -1 -0 0
    outer loop
      vertex -3.62222 -0.485286 0.84054
      vertex -3.62222 0.485286 0.84054
      vertex -3.62222 0.84054 0.485286
    endloop
  endfacet
  facet normal -1 0 0
    outer loop
      vertex -3.62222 -0.485286 0.84054
      vertex -3.62222 0.84054 0.485286
      vertex -3.62222 0.970571 -5.88808e-016
    endloop
  endfacet
  facet normal -1 -4.57555e-016 -7.92508e-016
    outer loop
      vertex -3.62222 -0.485286 0.84054
      vertex -3.62222 0.970571 -5.88808e-016
      vertex -3.62222 0.84054 -0.485286
    endloop
  endfacet
  facet normal -1 1.67476e-016 -1.67476e-016
    outer loop
      vertex -3.62222 -0.485286 0.84054
      vertex -3.62222 0.84054 -0.485286
      vertex -3.62222 0.485286 -0.84054
    endloop
  endfacet
  facet normal -1 6.13002e-017 -2.28777e-016
    outer loop
      vertex -3.62222 -0.485286 0.84054
      vertex -3.62222 0.485286 -0.84054
      vertex -3.62222 4.50974e-016 -0.970571
    endloop
  endfacet
  facet normal -1 -7.07833e-017 -2.64169e-016
    outer loop
      vertex -3.62222 -0.485286 0.84054
      vertex -3.62222 4.50974e-016 -0.970571
      vertex -3.62222 -0.485286 -0.84054
    endloop
  endfacet
  facet normal -1 9.85892e-016 -2.64169e-016
    outer loop
      vertex -3.62222 -0.485286 0.84054
      vertex -3.62222 -0.485286 -0.84054
      vertex -3.62222 -0.84054 -0.485286
    endloop
  endfacet
  facet normal -1 0 0
    outer loop
      vertex -3.62222 -0.485286 0.84054
      vertex -3.62222 -0.84054 -0.485286
      vertex -3.62222 -0.970571 -1.01978e-015
    endloop
  endfacet
  facet normal -1 0 0
    outer loop
      vertex -3.62222 -0.485286 0.84054
      vertex -3.62222 -0.970571 -1.01978e-015
      vertex -3.62222 -0.84054 0.485286
    endloop
  endfacet
endsolid OpenSCAD_Model
