solid OpenSCAD_Model
  facet normal 0 0 -1
    outer loop
      vertex -27.6327 -5.8735 -4
      vertex -27.8772 -5.92548 -4
      vertex -28.25 0 -4
    endloop
  endfacet
  facet normal 0 -0 -1
    outer loop
      vertex -27.6327 5.8735 -4
      vertex -27.8772 5.92548 -4
      vertex -26.036 11.592 -4
    endloop
  endfacet
  facet normal 0 -0 -1
    outer loop
      vertex -25.8077 11.4903 -4
      vertex -26.036 11.592 -4
      vertex -24.5014 14.25 -4
    endloop
  endfacet
  facet normal 0 0 -1
    outer loop
      vertex -27.6327 5.8735 -4
      vertex -26.036 11.592 -4
      vertex -25.8077 11.4903 -4
    endloop
  endfacet
  facet normal 0 0 -1
    outer loop
      vertex -28.25 0 -4
      vertex -27.8772 5.92548 -4
      vertex -27.6327 5.8735 -4
    endloop
  endfacet
  facet normal -0 0 -1
    outer loop
      vertex -28.5 0 -4
      vertex -27.8772 5.92548 -4
      vertex -28.25 0 -4
    endloop
  endfacet
  facet normal 0 0 -1
    outer loop
      vertex -28.5 0 -4
      vertex -28.25 0 -4
      vertex -27.8772 -5.92548 -4
    endloop
  endfacet
  facet normal -0 0 -1
    outer loop
      vertex -27.8772 -5.92548 -4
      vertex -27.6327 -5.8735 -4
      vertex -26.1177 -10.5362 -4
    endloop
  endfacet
  facet normal 0 0 -1
    outer loop
      vertex -27.8772 -5.92548 -4
      vertex -26.1177 -10.5362 -4
      vertex -26.2096 -11.0577 -4
    endloop
  endfacet
  facet normal 0 0 -1
    outer loop
      vertex -25.8077 11.4903 -4
      vertex -24.5014 14.25 -4
      vertex -24.2144 14.25 -4
    endloop
  endfacet
  facet normal -0.994522 0.104528 0
    outer loop
      vertex -28.5 0 -4
      vertex -28.5 0 2
      vertex -27.8772 5.92548 -4
    endloop
  endfacet
  facet normal -0.994522 0.104528 0
    outer loop
      vertex -27.8772 5.92548 -4
      vertex -28.5 0 2
      vertex -27.8772 5.92548 2
    endloop
  endfacet
  facet normal -0.994522 -0.104528 -0
    outer loop
      vertex -28.5 0 -4
      vertex -27.8772 -5.92548 -4
      vertex -28.5 0 2
    endloop
  endfacet
  facet normal -0.994522 -0.104528 0
    outer loop
      vertex -28.5 0 2
      vertex -27.8772 -5.92548 -4
      vertex -27.8772 -5.92548 2
    endloop
  endfacet
  facet normal -0.951057 -0.309017 -0
    outer loop
      vertex -27.8772 -5.92548 -4
      vertex -26.2096 -11.0577 -4
      vertex -27.8772 -5.92548 2
    endloop
  endfacet
  facet normal -0.951057 -0.309017 0
    outer loop
      vertex -27.8772 -5.92548 2
      vertex -26.2096 -11.0577 -4
      vertex -26.2096 -11.0577 2
    endloop
  endfacet
  facet normal 0.984808 -0.173648 0
    outer loop
      vertex -26.1177 -10.5362 -4
      vertex -26.1177 -10.5362 -4.25
      vertex -22.5042 9.95663 -4.25
    endloop
  endfacet
  facet normal 0.984808 -0.173648 -8.50586e-017
    outer loop
      vertex -26.2096 -11.0577 2
      vertex -26.1177 -10.5362 -4
      vertex -22.5042 9.95663 2
    endloop
  endfacet
  facet normal 0.984808 -0.173648 0
    outer loop
      vertex -22.5042 9.95663 2
      vertex -26.1177 -10.5362 -4
      vertex -22.5042 9.95663 -4.25
    endloop
  endfacet
  facet normal 0.984808 -0.173648 0
    outer loop
      vertex -26.2096 -11.0577 -4
      vertex -26.1177 -10.5362 -4
      vertex -26.2096 -11.0577 2
    endloop
  endfacet
  facet normal -0.951056 -0.309017 -0
    outer loop
      vertex -27.6327 -5.8735 -4.25
      vertex -26.1177 -10.5362 -4.25
      vertex -27.6327 -5.8735 -4
    endloop
  endfacet
  facet normal -0.951056 -0.309017 0
    outer loop
      vertex -27.6327 -5.8735 -4
      vertex -26.1177 -10.5362 -4.25
      vertex -26.1177 -10.5362 -4
    endloop
  endfacet
  facet normal -0.994522 -0.104528 -0
    outer loop
      vertex -28.25 0 -4.25
      vertex -27.6327 -5.8735 -4.25
      vertex -28.25 0 -4
    endloop
  endfacet
  facet normal -0.994522 -0.104528 0
    outer loop
      vertex -28.25 0 -4
      vertex -27.6327 -5.8735 -4.25
      vertex -27.6327 -5.8735 -4
    endloop
  endfacet
  facet normal -0.994522 0.104528 0
    outer loop
      vertex -28.25 0 -4.25
      vertex -28.25 0 -4
      vertex -27.6327 5.8735 -4.25
    endloop
  endfacet
  facet normal -0.994522 0.104528 0
    outer loop
      vertex -27.6327 5.8735 -4.25
      vertex -28.25 0 -4
      vertex -27.6327 5.8735 -4
    endloop
  endfacet
  facet normal -0.951056 0.309017 0
    outer loop
      vertex -27.6327 5.8735 -4.25
      vertex -27.6327 5.8735 -4
      vertex -25.8077 11.4903 -4.25
    endloop
  endfacet
  facet normal -0.951056 0.309017 0
    outer loop
      vertex -25.8077 11.4903 -4.25
      vertex -27.6327 5.8735 -4
      vertex -25.8077 11.4903 -4
    endloop
  endfacet
  facet normal -0.866025 0.5 0
    outer loop
      vertex -25.8077 11.4903 -4.25
      vertex -25.8077 11.4903 -4
      vertex -22.8547 16.6049 -4.25
    endloop
  endfacet
  facet normal -0.866025 0.5 5.61613e-015
    outer loop
      vertex -22.8547 16.6049 -4.25
      vertex -25.8077 11.4903 -4
      vertex -24.2144 14.25 -4
    endloop
  endfacet
  facet normal -0.866025 0.5 0
    outer loop
      vertex -22.8547 16.6049 -4.25
      vertex -24.2144 14.25 -4
      vertex -24.2144 14.25 -1.25
    endloop
  endfacet
  facet normal -0.866025 0.5 0
    outer loop
      vertex -22.8547 16.6049 -4.25
      vertex -24.2144 14.25 -1.25
      vertex -22.8547 16.6049 -1.25
    endloop
  endfacet
  facet normal 0 1 0
    outer loop
      vertex -24.5014 14.25 -4
      vertex -24.5014 14.25 2
      vertex -24.2144 14.25 -4
    endloop
  endfacet
  facet normal 0 1 0
    outer loop
      vertex -24.2144 14.25 -1.25
      vertex -24.5014 14.25 2
      vertex -22 14.25 2
    endloop
  endfacet
  facet normal 0 1 0
    outer loop
      vertex -24.2144 14.25 -4
      vertex -24.5014 14.25 2
      vertex -24.2144 14.25 -1.25
    endloop
  endfacet
  facet normal 0 1 0
    outer loop
      vertex -24.2144 14.25 -1.25
      vertex -22 14.25 2
      vertex -22 14.25 1.25
    endloop
  endfacet
  facet normal 0 1 0
    outer loop
      vertex -24.2144 14.25 -1.25
      vertex -22 14.25 1.25
      vertex -22 14.25 -1.25
    endloop
  endfacet
  facet normal -0.866025 0.5 0
    outer loop
      vertex -26.036 11.592 -4
      vertex -26.036 11.592 2
      vertex -24.5014 14.25 -4
    endloop
  endfacet
  facet normal -0.866025 0.5 0
    outer loop
      vertex -24.5014 14.25 -4
      vertex -26.036 11.592 2
      vertex -24.5014 14.25 2
    endloop
  endfacet
  facet normal -0.951057 0.309017 0
    outer loop
      vertex -27.8772 5.92548 -4
      vertex -27.8772 5.92548 2
      vertex -26.036 11.592 -4
    endloop
  endfacet
  facet normal -0.951057 0.309017 0
    outer loop
      vertex -26.036 11.592 -4
      vertex -27.8772 5.92548 2
      vertex -26.036 11.592 2
    endloop
  endfacet
  facet normal 0 0 1
    outer loop
      vertex -27.8772 5.92548 2
      vertex -28.5 0 2
      vertex -27.8772 -5.92548 2
    endloop
  endfacet
  facet normal 0 0 1
    outer loop
      vertex -22.5042 9.95663 2
      vertex -27.8772 5.92548 2
      vertex -26.2096 -11.0577 2
    endloop
  endfacet
  facet normal 0 0 1
    outer loop
      vertex -26.2096 -11.0577 2
      vertex -27.8772 5.92548 2
      vertex -27.8772 -5.92548 2
    endloop
  endfacet
  facet normal 0 0 1
    outer loop
      vertex -22 14.25 2
      vertex -27.8772 5.92548 2
      vertex -22.5042 9.95663 2
    endloop
  endfacet
  facet normal 0 0 1
    outer loop
      vertex -22 14.25 2
      vertex -22.5042 9.95663 2
      vertex -22 9.86771 2
    endloop
  endfacet
  facet normal 0 -0 1
    outer loop
      vertex -24.5014 14.25 2
      vertex -27.8772 5.92548 2
      vertex -22 14.25 2
    endloop
  endfacet
  facet normal 0 -0 1
    outer loop
      vertex -26.036 11.592 2
      vertex -27.8772 5.92548 2
      vertex -24.5014 14.25 2
    endloop
  endfacet
  facet normal -0.173648 -0.984808 -0
    outer loop
      vertex -19.5498 9.43568 -4.25
      vertex -19.5498 9.43568 -1.25
      vertex -20.125 9.5371 -1.25
    endloop
  endfacet
  facet normal -0.173648 -0.984808 -1.74457e-016
    outer loop
      vertex -22.5042 9.95663 -4.25
      vertex -19.5498 9.43568 -4.25
      vertex -22 9.86771 -1.25
    endloop
  endfacet
  facet normal -0.173648 -0.984808 1.29441e-016
    outer loop
      vertex -22 9.86771 -1.25
      vertex -19.5498 9.43568 -4.25
      vertex -20.125 9.5371 -1.25
    endloop
  endfacet
  facet normal -0.173648 -0.984808 0
    outer loop
      vertex -22.5042 9.95663 2
      vertex -22 9.86771 -1.25
      vertex -22 9.86771 1.25
    endloop
  endfacet
  facet normal -0.173648 -0.984808 0
    outer loop
      vertex -22 9.86771 2
      vertex -22.5042 9.95663 2
      vertex -22 9.86771 1.25
    endloop
  endfacet
  facet normal -0.173648 -0.984808 0
    outer loop
      vertex -22.5042 9.95663 2
      vertex -22.5042 9.95663 -4.25
      vertex -22 9.86771 -1.25
    endloop
  endfacet
  facet normal -0 0 -1
    outer loop
      vertex -28.25 0 -4.25
      vertex -27.6327 5.8735 -4.25
      vertex -27.6327 -5.8735 -4.25
    endloop
  endfacet
  facet normal 0 -0 -1
    outer loop
      vertex -27.6327 -5.8735 -4.25
      vertex -27.6327 5.8735 -4.25
      vertex -25.8077 11.4903 -4.25
    endloop
  endfacet
  facet normal 0 0 -1
    outer loop
      vertex -27.6327 -5.8735 -4.25
      vertex -25.8077 11.4903 -4.25
      vertex -22.8547 16.6049 -4.25
    endloop
  endfacet
  facet normal 0 -0 -1
    outer loop
      vertex -22.5042 9.95663 -4.25
      vertex -22.8547 16.6049 -4.25
      vertex -18.9029 20.9938 -4.25
    endloop
  endfacet
  facet normal 0 0 -1
    outer loop
      vertex -19.5498 9.43568 -4.25
      vertex -14.125 24.4652 -4.25
      vertex -8.72973 26.8673 -4.25
    endloop
  endfacet
  facet normal 0 0 -1
    outer loop
      vertex -13.3826 14.8629 -4.25
      vertex -8.72973 26.8673 -4.25
      vertex -2.95293 28.0952 -4.25
    endloop
  endfacet
  facet normal 0 0 -1
    outer loop
      vertex -6.18034 19.0211 -4.25
      vertex -2.95293 28.0952 -4.25
      vertex 2.95293 28.0952 -4.25
    endloop
  endfacet
  facet normal 0 0 -1
    outer loop
      vertex -2.09057 19.8904 -4.25
      vertex 2.95293 28.0952 -4.25
      vertex 8.72973 26.8673 -4.25
    endloop
  endfacet
  facet normal 0 0 -1
    outer loop
      vertex 6.18034 19.0211 -4.25
      vertex 8.72973 26.8673 -4.25
      vertex 14.125 24.4652 -4.25
    endloop
  endfacet
  facet normal 0 0 -1
    outer loop
      vertex 10 17.3205 -4.25
      vertex 14.125 24.4652 -4.25
      vertex 18.9029 20.9938 -4.25
    endloop
  endfacet
  facet normal 0 0 -1
    outer loop
      vertex 13.3826 14.8629 -4.25
      vertex 18.9029 20.9938 -4.25
      vertex 22.8547 16.6049 -4.25
    endloop
  endfacet
  facet normal -0 0 -1
    outer loop
      vertex 19.563 -4.15823 -4.25
      vertex 23.8404 14.8976 -4.25
      vertex 19.5498 -9.43568 -4.25
    endloop
  endfacet
  facet normal 0 0 -1
    outer loop
      vertex 22.5042 -9.95663 -4.25
      vertex 26.1177 10.5362 -4.25
      vertex 27.6327 5.8735 -4.25
    endloop
  endfacet
  facet normal 0 0 -1
    outer loop
      vertex 22.5042 -9.95663 -4.25
      vertex 27.6327 5.8735 -4.25
      vertex 28.25 0 -4.25
    endloop
  endfacet
  facet normal 0 0 -1
    outer loop
      vertex 22.5042 -9.95663 -4.25
      vertex 28.25 0 -4.25
      vertex 27.6327 -5.8735 -4.25
    endloop
  endfacet
  facet normal -0 0 -1
    outer loop
      vertex 22.5042 -9.95663 -4.25
      vertex 27.6327 -5.8735 -4.25
      vertex 25.8077 -11.4903 -4.25
    endloop
  endfacet
  facet normal -0 0 -1
    outer loop
      vertex 16.1803 -11.7557 -4.25
      vertex 25.8077 -11.4903 -4.25
      vertex 22.8547 -16.6049 -4.25
    endloop
  endfacet
  facet normal -0 0 -1
    outer loop
      vertex 10 -17.3205 -4.25
      vertex 22.8547 -16.6049 -4.25
      vertex 18.9029 -20.9938 -4.25
    endloop
  endfacet
  facet normal 0 0 -1
    outer loop
      vertex 6.18034 -19.0211 -4.25
      vertex 18.9029 -20.9938 -4.25
      vertex 14.125 -24.4652 -4.25
    endloop
  endfacet
  facet normal 0 0 -1
    outer loop
      vertex -2.09057 -19.8904 -4.25
      vertex 14.125 -24.4652 -4.25
      vertex 8.72973 -26.8673 -4.25
    endloop
  endfacet
  facet normal 0 0 -1
    outer loop
      vertex -10 -17.3205 -4.25
      vertex 8.72973 -26.8673 -4.25
      vertex 2.95293 -28.0952 -4.25
    endloop
  endfacet
  facet normal 0 0 -1
    outer loop
      vertex -22.5042 9.95663 -4.25
      vertex -18.9029 20.9938 -4.25
      vertex -14.125 24.4652 -4.25
    endloop
  endfacet
  facet normal 0 0 -1
    outer loop
      vertex -27.6327 -5.8735 -4.25
      vertex -22.8547 16.6049 -4.25
      vertex -22.5042 9.95663 -4.25
    endloop
  endfacet
  facet normal 0 -0 -1
    outer loop
      vertex -26.1177 -10.5362 -4.25
      vertex -27.6327 -5.8735 -4.25
      vertex -22.5042 9.95663 -4.25
    endloop
  endfacet
  facet normal 0 0 -1
    outer loop
      vertex -2.09057 -19.8904 -4.25
      vertex 8.72973 -26.8673 -4.25
      vertex -6.18034 -19.0211 -4.25
    endloop
  endfacet
  facet normal 0 0 -1
    outer loop
      vertex 13.3826 14.8629 -4.25
      vertex 22.8547 16.6049 -4.25
      vertex 23.8404 14.8976 -4.25
    endloop
  endfacet
  facet normal 0 0 -1
    outer loop
      vertex -6.18034 -19.0211 -4.25
      vertex 8.72973 -26.8673 -4.25
      vertex -10 -17.3205 -4.25
    endloop
  endfacet
  facet normal 0 0 -1
    outer loop
      vertex -13.3826 -14.8629 -4.25
      vertex -10 -17.3205 -4.25
      vertex 2.95293 -28.0952 -4.25
    endloop
  endfacet
  facet normal 0 0 -1
    outer loop
      vertex 2.09057 -19.8904 -4.25
      vertex 14.125 -24.4652 -4.25
      vertex -2.09057 -19.8904 -4.25
    endloop
  endfacet
  facet normal 0 0 -1
    outer loop
      vertex 6.18034 -19.0211 -4.25
      vertex 14.125 -24.4652 -4.25
      vertex 2.09057 -19.8904 -4.25
    endloop
  endfacet
  facet normal 0 0 -1
    outer loop
      vertex 13.3826 -14.8629 -4.25
      vertex 22.8547 -16.6049 -4.25
      vertex 10 -17.3205 -4.25
    endloop
  endfacet
  facet normal 0 0 -1
    outer loop
      vertex 16.1803 -11.7557 -4.25
      vertex 22.8547 -16.6049 -4.25
      vertex 13.3826 -14.8629 -4.25
    endloop
  endfacet
  facet normal 0 0 -1
    outer loop
      vertex 18.2709 -8.13473 -4.25
      vertex 19.5498 -9.43568 -4.25
      vertex 16.1803 -11.7557 -4.25
    endloop
  endfacet
  facet normal -0 0 -1
    outer loop
      vertex 16.1803 11.7557 -4.25
      vertex 23.8404 14.8976 -4.25
      vertex 18.2709 8.13473 -4.25
    endloop
  endfacet
  facet normal -0 0 -1
    outer loop
      vertex 20 0 -4.25
      vertex 23.8404 14.8976 -4.25
      vertex 19.563 -4.15823 -4.25
    endloop
  endfacet
  facet normal -0 0 -1
    outer loop
      vertex 18.2709 -8.13473 -4.25
      vertex 19.563 -4.15823 -4.25
      vertex 19.5498 -9.43568 -4.25
    endloop
  endfacet
  facet normal -0 0 -1
    outer loop
      vertex 19.563 4.15823 -4.25
      vertex 23.8404 14.8976 -4.25
      vertex 20 0 -4.25
    endloop
  endfacet
  facet normal -0 0 -1
    outer loop
      vertex 18.2709 8.13473 -4.25
      vertex 23.8404 14.8976 -4.25
      vertex 19.563 4.15823 -4.25
    endloop
  endfacet
  facet normal -0 0 -1
    outer loop
      vertex 13.3826 14.8629 -4.25
      vertex 23.8404 14.8976 -4.25
      vertex 16.1803 11.7557 -4.25
    endloop
  endfacet
  facet normal -0 0 -1
    outer loop
      vertex 2.09057 19.8904 -4.25
      vertex 8.72973 26.8673 -4.25
      vertex 6.18034 19.0211 -4.25
    endloop
  endfacet
  facet normal -0 0 -1
    outer loop
      vertex -2.09057 19.8904 -4.25
      vertex 8.72973 26.8673 -4.25
      vertex 2.09057 19.8904 -4.25
    endloop
  endfacet
  facet normal 0 0 -1
    outer loop
      vertex -10 17.3205 -4.25
      vertex -2.95293 28.0952 -4.25
      vertex -6.18034 19.0211 -4.25
    endloop
  endfacet
  facet normal 0 0 -1
    outer loop
      vertex -16.1803 11.7557 -4.25
      vertex -8.72973 26.8673 -4.25
      vertex -13.3826 14.8629 -4.25
    endloop
  endfacet
  facet normal -0 0 -1
    outer loop
      vertex -22.5042 9.95663 -4.25
      vertex -14.125 24.4652 -4.25
      vertex -19.5498 9.43568 -4.25
    endloop
  endfacet
  facet normal 0 0 -1
    outer loop
      vertex -19.5498 9.43568 -4.25
      vertex -8.72973 26.8673 -4.25
      vertex -16.1803 11.7557 -4.25
    endloop
  endfacet
  facet normal -0 0 -1
    outer loop
      vertex -19.5498 9.43568 -4.25
      vertex -16.1803 11.7557 -4.25
      vertex -18.2709 8.13473 -4.25
    endloop
  endfacet
  facet normal 0 0 -1
    outer loop
      vertex -19.5498 9.43568 -4.25
      vertex -18.2709 8.13473 -4.25
      vertex -19.563 4.15823 -4.25
    endloop
  endfacet
  facet normal 0 0 -1
    outer loop
      vertex -13.3826 14.8629 -4.25
      vertex -2.95293 28.0952 -4.25
      vertex -10 17.3205 -4.25
    endloop
  endfacet
  facet normal 0 0 -1
    outer loop
      vertex -6.18034 19.0211 -4.25
      vertex 2.95293 28.0952 -4.25
      vertex -2.09057 19.8904 -4.25
    endloop
  endfacet
  facet normal 0 0 -1
    outer loop
      vertex -19.5498 9.43568 -4.25
      vertex -19.563 4.15823 -4.25
      vertex -20 0 -4.25
    endloop
  endfacet
  facet normal -0 0 -1
    outer loop
      vertex 6.18034 19.0211 -4.25
      vertex 14.125 24.4652 -4.25
      vertex 10 17.3205 -4.25
    endloop
  endfacet
  facet normal -0 0 -1
    outer loop
      vertex 10 17.3205 -4.25
      vertex 18.9029 20.9938 -4.25
      vertex 13.3826 14.8629 -4.25
    endloop
  endfacet
  facet normal 0 0 -1
    outer loop
      vertex 19.5498 -9.43568 -4.25
      vertex 22.5042 -9.95663 -4.25
      vertex 25.8077 -11.4903 -4.25
    endloop
  endfacet
  facet normal 0 0 -1
    outer loop
      vertex 19.5498 -9.43568 -4.25
      vertex 25.8077 -11.4903 -4.25
      vertex 16.1803 -11.7557 -4.25
    endloop
  endfacet
  facet normal 0 0 -1
    outer loop
      vertex 10 -17.3205 -4.25
      vertex 18.9029 -20.9938 -4.25
      vertex 6.18034 -19.0211 -4.25
    endloop
  endfacet
  facet normal 0 0 -1
    outer loop
      vertex -13.3826 -14.8629 -4.25
      vertex 2.95293 -28.0952 -4.25
      vertex -2.95293 -28.0952 -4.25
    endloop
  endfacet
  facet normal 0 0 -1
    outer loop
      vertex -16.1803 -11.7557 -4.25
      vertex -13.3826 -14.8629 -4.25
      vertex -2.95293 -28.0952 -4.25
    endloop
  endfacet
  facet normal 0 0 -1
    outer loop
      vertex -16.1803 -11.7557 -4.25
      vertex -2.95293 -28.0952 -4.25
      vertex -8.72973 -26.8673 -4.25
    endloop
  endfacet
  facet normal 0 0 -1
    outer loop
      vertex -18.2709 -8.13473 -4.25
      vertex -16.1803 -11.7557 -4.25
      vertex -8.72973 -26.8673 -4.25
    endloop
  endfacet
  facet normal 0 0 -1
    outer loop
      vertex -18.2709 -8.13473 -4.25
      vertex -8.72973 -26.8673 -4.25
      vertex -14.125 -24.4652 -4.25
    endloop
  endfacet
  facet normal 0 0 -1
    outer loop
      vertex -19.563 -4.15823 -4.25
      vertex -18.2709 -8.13473 -4.25
      vertex -14.125 -24.4652 -4.25
    endloop
  endfacet
  facet normal 0 0 -1
    outer loop
      vertex -19.563 -4.15823 -4.25
      vertex -14.125 -24.4652 -4.25
      vertex -18.9029 -20.9938 -4.25
    endloop
  endfacet
  facet normal 0 0 -1
    outer loop
      vertex -20 0 -4.25
      vertex -19.563 -4.15823 -4.25
      vertex -18.9029 -20.9938 -4.25
    endloop
  endfacet
  facet normal 0 0 -1
    outer loop
      vertex -20 0 -4.25
      vertex -18.9029 -20.9938 -4.25
      vertex -22.8547 -16.6049 -4.25
    endloop
  endfacet
  facet normal 0 0 -1
    outer loop
      vertex -19.5498 9.43568 -4.25
      vertex -20 0 -4.25
      vertex -22.8547 -16.6049 -4.25
    endloop
  endfacet
  facet normal 0 0 -1
    outer loop
      vertex -19.5498 9.43568 -4.25
      vertex -22.8547 -16.6049 -4.25
      vertex -23.8404 -14.8976 -4.25
    endloop
  endfacet
  facet normal -0.743145 0.669131 0
    outer loop
      vertex -22.8547 16.6049 -4.25
      vertex -22.8547 16.6049 -1.25
      vertex -18.9029 20.9938 -4.25
    endloop
  endfacet
  facet normal -0.743145 0.669131 2.16222e-015
    outer loop
      vertex -18.9029 20.9938 -4.25
      vertex -22.8547 16.6049 -1.25
      vertex -22 17.5542 -1.25
    endloop
  endfacet
  facet normal -0.743145 0.669131 3.96426e-016
    outer loop
      vertex -18.9029 20.9938 -4.25
      vertex -22 17.5542 -1.25
      vertex -20.125 19.6366 -1.25
    endloop
  endfacet
  facet normal -0.743145 0.669131 0
    outer loop
      vertex -18.9029 20.9938 -4.25
      vertex -20.125 19.6366 -1.25
      vertex -18.9029 20.9938 -1.25
    endloop
  endfacet
  facet normal 0 0 1
    outer loop
      vertex -22 14.25 -1.25
      vertex -22 17.5542 -1.25
      vertex -22.8547 16.6049 -1.25
    endloop
  endfacet
  facet normal 0 0 1
    outer loop
      vertex -24.2144 14.25 -1.25
      vertex -22 14.25 -1.25
      vertex -22.8547 16.6049 -1.25
    endloop
  endfacet
  facet normal -1 -0 -0
    outer loop
      vertex -22 14.25 -1.25
      vertex -22 14.25 1.25
      vertex -22 17.5542 -1.25
    endloop
  endfacet
  facet normal -1 0 0
    outer loop
      vertex -22 17.5542 -1.25
      vertex -22 14.25 1.25
      vertex -22 14.6125 1.25
    endloop
  endfacet
  facet normal -1 0 0
    outer loop
      vertex -22 17.5542 -1.25
      vertex -22 14.6125 1.25
      vertex -22 14.6125 3
    endloop
  endfacet
  facet normal -1 0 -0
    outer loop
      vertex -22 17.5542 -1.25
      vertex -22 14.6125 3
      vertex -22 19.9875 3
    endloop
  endfacet
  facet normal -1 0 0
    outer loop
      vertex -22 17.5542 -1.25
      vertex -22 19.9875 3
      vertex -22 19.9875 1.25
    endloop
  endfacet
  facet normal -1 0 0
    outer loop
      vertex -22 17.5542 -1.25
      vertex -22 19.9875 1.25
      vertex -22 20.5 1.25
    endloop
  endfacet
  facet normal -1 -0 0
    outer loop
      vertex -22 17.5542 -1.25
      vertex -22 20.5 1.25
      vertex -22 20.5 -1.25
    endloop
  endfacet
  facet normal 1 0 0
    outer loop
      vertex -22 14.25 1.25
      vertex -22 14.25 2
      vertex -22 9.86771 2
    endloop
  endfacet
  facet normal 1 0 0
    outer loop
      vertex -22 9.86771 1.25
      vertex -22 14.25 1.25
      vertex -22 9.86771 2
    endloop
  endfacet
  facet normal 0 -0 1
    outer loop
      vertex -22 9.86771 1.25
      vertex -22 -12.3125 1.25
      vertex -20.125 -12.3125 1.25
    endloop
  endfacet
  facet normal 0 -0 1
    outer loop
      vertex -22 14.25 1.25
      vertex -22 9.86771 1.25
      vertex -20.125 14.6125 1.25
    endloop
  endfacet
  facet normal 0 0 1
    outer loop
      vertex -20.125 14.6125 1.25
      vertex -22 9.86771 1.25
      vertex -20.125 -12.3125 1.25
    endloop
  endfacet
  facet normal 0 -0 1
    outer loop
      vertex -22 14.6125 1.25
      vertex -22 14.25 1.25
      vertex -20.125 14.6125 1.25
    endloop
  endfacet
  facet normal -0.984808 0.173648 -2.80098e-016
    outer loop
      vertex -20.125 6.1737 -1.25
      vertex -19.5498 9.43568 -4.25
      vertex -22 -4.45995 -1.25
    endloop
  endfacet
  facet normal -0.984808 0.173648 -1.85679e-015
    outer loop
      vertex -22 -4.45995 -1.25
      vertex -19.5498 9.43568 -4.25
      vertex -23.8404 -14.8976 -1.25
    endloop
  endfacet
  facet normal -0.984808 0.173648 0
    outer loop
      vertex -19.5498 9.43568 -1.25
      vertex -19.5498 9.43568 -4.25
      vertex -20.125 6.1737 -1.25
    endloop
  endfacet
  facet normal -0.984808 0.173648 0
    outer loop
      vertex -23.8404 -14.8976 -1.25
      vertex -19.5498 9.43568 -4.25
      vertex -23.8404 -14.8976 -4.25
    endloop
  endfacet
  facet normal -1 -0 -0
    outer loop
      vertex -22 -22.5 -1.25
      vertex -22 -22.5 1.25
      vertex -22 -17.5542 -1.25
    endloop
  endfacet
  facet normal -1 0 0
    outer loop
      vertex -22 -17.5542 -1.25
      vertex -22 -22.5 1.25
      vertex -22 -17.6875 1.25
    endloop
  endfacet
  facet normal -1 0 0
    outer loop
      vertex -22 -17.5542 -1.25
      vertex -22 -17.6875 1.25
      vertex -22 -17.6875 3
    endloop
  endfacet
  facet normal -1 0 -0
    outer loop
      vertex -22 -17.5542 -1.25
      vertex -22 -17.6875 3
      vertex -22 -12.3125 3
    endloop
  endfacet
  facet normal -1 0 0
    outer loop
      vertex -22 -17.5542 -1.25
      vertex -22 -12.3125 3
      vertex -22 -12.3125 1.25
    endloop
  endfacet
  facet normal -1 0 0
    outer loop
      vertex -22 -17.5542 -1.25
      vertex -22 -12.3125 1.25
      vertex -22 9.86771 1.25
    endloop
  endfacet
  facet normal -1 -0 0
    outer loop
      vertex -22 -4.45995 -1.25
      vertex -22 9.86771 1.25
      vertex -22 9.86771 -1.25
    endloop
  endfacet
  facet normal -1 -0 0
    outer loop
      vertex -22 -17.5542 -1.25
      vertex -22 9.86771 1.25
      vertex -22 -4.45995 -1.25
    endloop
  endfacet
  facet normal 0 -0 -1
    outer loop
      vertex -22 -4.45995 -1.25
      vertex -22 9.86771 -1.25
      vertex -20.125 6.1737 -1.25
    endloop
  endfacet
  facet normal 0 0 -1
    outer loop
      vertex -20.125 6.1737 -1.25
      vertex -22 9.86771 -1.25
      vertex -20.125 9.5371 -1.25
    endloop
  endfacet
  facet normal 1 0 0
    outer loop
      vertex -20.125 19.9875 1
      vertex -20.125 14.6125 1
      vertex -20.125 -19.6366 -1.25
    endloop
  endfacet
  facet normal 1 0 -0
    outer loop
      vertex -20.125 19.9875 1
      vertex -20.125 19.6366 -1.25
      vertex -20.125 20.5 1.25
    endloop
  endfacet
  facet normal 1 0 0
    outer loop
      vertex -20.125 19.6366 -1.25
      vertex -20.125 20.5 -1.25
      vertex -20.125 20.5 1.25
    endloop
  endfacet
  facet normal 1 0 0
    outer loop
      vertex -20.125 9.5371 -1.25
      vertex -20.125 19.6366 -1.25
      vertex -20.125 19.9875 1
    endloop
  endfacet
  facet normal 1 0 0
    outer loop
      vertex -20.125 14.6125 1.25
      vertex -20.125 -19.6366 -1.25
      vertex -20.125 14.6125 1
    endloop
  endfacet
  facet normal 1 0 -0
    outer loop
      vertex -20.125 -12.3125 1
      vertex -20.125 -19.6366 -1.25
      vertex -20.125 14.6125 1.25
    endloop
  endfacet
  facet normal 1 0 -0
    outer loop
      vertex -20.125 -12.3125 1.25
      vertex -20.125 -12.3125 1
      vertex -20.125 14.6125 1.25
    endloop
  endfacet
  facet normal 1 0 0
    outer loop
      vertex -20.125 -17.6875 1.25
      vertex -20.125 -19.6366 -1.25
      vertex -20.125 -17.6875 1
    endloop
  endfacet
  facet normal 1 0 0
    outer loop
      vertex -20.125 -20.625 1.25
      vertex -20.125 -19.6366 -1.25
      vertex -20.125 -17.6875 1.25
    endloop
  endfacet
  facet normal 1 0 0
    outer loop
      vertex -20.125 -20.625 -1.25
      vertex -20.125 -19.6366 -1.25
      vertex -20.125 -20.625 1.25
    endloop
  endfacet
  facet normal 1 0 0
    outer loop
      vertex -20.125 19.9875 1
      vertex -20.125 6.1737 -1.25
      vertex -20.125 9.5371 -1.25
    endloop
  endfacet
  facet normal 1 0 0
    outer loop
      vertex -20.125 19.9875 1
      vertex -20.125 -19.6366 -1.25
      vertex -20.125 6.1737 -1.25
    endloop
  endfacet
  facet normal 1 0 0
    outer loop
      vertex -20.125 -12.3125 1
      vertex -20.125 -17.6875 1
      vertex -20.125 -19.6366 -1.25
    endloop
  endfacet
  facet normal 1 0 -0
    outer loop
      vertex -20.125 19.9875 1.25
      vertex -20.125 19.9875 1
      vertex -20.125 20.5 1.25
    endloop
  endfacet
  facet normal 0 0 1
    outer loop
      vertex -19.235 -20.625 -1.25
      vertex 19.235 -20.625 -1.25
      vertex 20.125 -19.6366 -1.25
    endloop
  endfacet
  facet normal 0 -0 1
    outer loop
      vertex 2.09057 -19.8904 -1.25
      vertex -19.235 -20.625 -1.25
      vertex 20.125 -19.6366 -1.25
    endloop
  endfacet
  facet normal -0 0 1
    outer loop
      vertex -2.09057 -19.8904 -1.25
      vertex -6.18034 -19.0211 -1.25
      vertex -19.235 -20.625 -1.25
    endloop
  endfacet
  facet normal 0 -0 1
    outer loop
      vertex 18.2709 -8.13473 -1.25
      vertex 16.1803 -11.7557 -1.25
      vertex 19.5498 -9.43568 -1.25
    endloop
  endfacet
  facet normal 0 0 1
    outer loop
      vertex 10 17.3205 -1.25
      vertex 13.3826 14.8629 -1.25
      vertex 18.9029 20.9938 -1.25
    endloop
  endfacet
  facet normal 0 0 1
    outer loop
      vertex 6.18034 19.0211 -1.25
      vertex 10 17.3205 -1.25
      vertex 14.125 24.4652 -1.25
    endloop
  endfacet
  facet normal 0 0 1
    outer loop
      vertex 2.09057 19.8904 -1.25
      vertex 6.18034 19.0211 -1.25
      vertex 8.72973 26.8673 -1.25
    endloop
  endfacet
  facet normal 0 0 1
    outer loop
      vertex 13.3826 14.8629 -1.25
      vertex 16.1803 11.7557 -1.25
      vertex 20.125 19.6366 -1.25
    endloop
  endfacet
  facet normal 0 0 1
    outer loop
      vertex -13.3826 14.8629 -1.25
      vertex -10 17.3205 -1.25
      vertex -8.72973 26.8673 -1.25
    endloop
  endfacet
  facet normal 0 0 1
    outer loop
      vertex -16.1803 11.7557 -1.25
      vertex -13.3826 14.8629 -1.25
      vertex -14.125 24.4652 -1.25
    endloop
  endfacet
  facet normal 0 0 1
    outer loop
      vertex -19.5498 9.43568 -1.25
      vertex -20.125 6.1737 -1.25
      vertex -19.563 4.15823 -1.25
    endloop
  endfacet
  facet normal 0 0 1
    outer loop
      vertex -19.563 4.15823 -1.25
      vertex -18.9029 20.9938 -1.25
      vertex -19.5498 9.43568 -1.25
    endloop
  endfacet
  facet normal 0 0 1
    outer loop
      vertex -20.125 19.6366 -1.25
      vertex -19.5498 9.43568 -1.25
      vertex -18.9029 20.9938 -1.25
    endloop
  endfacet
  facet normal 0 0 1
    outer loop
      vertex -6.18034 19.0211 -1.25
      vertex -2.09057 19.8904 -1.25
      vertex -2.95293 28.0952 -1.25
    endloop
  endfacet
  facet normal 0 0 1
    outer loop
      vertex -20.125 -19.6366 -1.25
      vertex -20 0 -1.25
      vertex -20.125 6.1737 -1.25
    endloop
  endfacet
  facet normal 0 0 1
    outer loop
      vertex -20.125 -19.6366 -1.25
      vertex -19.235 -20.625 -1.25
      vertex -20 0 -1.25
    endloop
  endfacet
  facet normal 0 0 1
    outer loop
      vertex -18.9029 20.9938 -1.25
      vertex -18.2709 8.13473 -1.25
      vertex -14.125 24.4652 -1.25
    endloop
  endfacet
  facet normal 0 0 1
    outer loop
      vertex -18.2709 8.13473 -1.25
      vertex -16.1803 11.7557 -1.25
      vertex -14.125 24.4652 -1.25
    endloop
  endfacet
  facet normal 0 0 1
    outer loop
      vertex -14.125 24.4652 -1.25
      vertex -13.3826 14.8629 -1.25
      vertex -8.72973 26.8673 -1.25
    endloop
  endfacet
  facet normal -0 0 1
    outer loop
      vertex -18.2709 -8.13473 -1.25
      vertex -19.563 -4.15823 -1.25
      vertex -19.235 -20.625 -1.25
    endloop
  endfacet
  facet normal 0 -0 1
    outer loop
      vertex -8.72973 26.8673 -1.25
      vertex -10 17.3205 -1.25
      vertex -2.95293 28.0952 -1.25
    endloop
  endfacet
  facet normal 0 0 1
    outer loop
      vertex -10 17.3205 -1.25
      vertex -6.18034 19.0211 -1.25
      vertex -2.95293 28.0952 -1.25
    endloop
  endfacet
  facet normal 0 0 1
    outer loop
      vertex -2.95293 28.0952 -1.25
      vertex -2.09057 19.8904 -1.25
      vertex 2.95293 28.0952 -1.25
    endloop
  endfacet
  facet normal 0 -0 1
    outer loop
      vertex 2.95293 28.0952 -1.25
      vertex 2.09057 19.8904 -1.25
      vertex 8.72973 26.8673 -1.25
    endloop
  endfacet
  facet normal 0 -0 1
    outer loop
      vertex 8.72973 26.8673 -1.25
      vertex 6.18034 19.0211 -1.25
      vertex 14.125 24.4652 -1.25
    endloop
  endfacet
  facet normal 0 -0 1
    outer loop
      vertex 14.125 24.4652 -1.25
      vertex 10 17.3205 -1.25
      vertex 18.9029 20.9938 -1.25
    endloop
  endfacet
  facet normal -0 0 1
    outer loop
      vertex -16.1803 -11.7557 -1.25
      vertex -18.2709 -8.13473 -1.25
      vertex -19.235 -20.625 -1.25
    endloop
  endfacet
  facet normal 0 -0 1
    outer loop
      vertex 18.9029 20.9938 -1.25
      vertex 13.3826 14.8629 -1.25
      vertex 20.125 19.6366 -1.25
    endloop
  endfacet
  facet normal 0 -0 1
    outer loop
      vertex 19.563 -4.15823 -1.25
      vertex 18.2709 -8.13473 -1.25
      vertex 20.125 -6.1737 -1.25
    endloop
  endfacet
  facet normal 0 0 1
    outer loop
      vertex 20.125 19.6366 -1.25
      vertex 16.1803 11.7557 -1.25
      vertex 18.2709 8.13473 -1.25
    endloop
  endfacet
  facet normal -0 0 1
    outer loop
      vertex -6.18034 -19.0211 -1.25
      vertex -10 -17.3205 -1.25
      vertex -19.235 -20.625 -1.25
    endloop
  endfacet
  facet normal 0 0 1
    outer loop
      vertex 20.125 19.6366 -1.25
      vertex 18.2709 8.13473 -1.25
      vertex 19.563 4.15823 -1.25
    endloop
  endfacet
  facet normal 0 0 1
    outer loop
      vertex 20.125 19.6366 -1.25
      vertex 20 0 -1.25
      vertex 20.125 -6.1737 -1.25
    endloop
  endfacet
  facet normal 0 0 1
    outer loop
      vertex 20.125 19.6366 -1.25
      vertex 19.563 4.15823 -1.25
      vertex 20 0 -1.25
    endloop
  endfacet
  facet normal 0 0 1
    outer loop
      vertex 20.125 -6.1737 -1.25
      vertex 18.2709 -8.13473 -1.25
      vertex 19.5498 -9.43568 -1.25
    endloop
  endfacet
  facet normal 0 0 1
    outer loop
      vertex 20.125 -9.5371 -1.25
      vertex 16.1803 -11.7557 -1.25
      vertex 20.125 -19.6366 -1.25
    endloop
  endfacet
  facet normal 0 -0 1
    outer loop
      vertex 16.1803 -11.7557 -1.25
      vertex 13.3826 -14.8629 -1.25
      vertex 20.125 -19.6366 -1.25
    endloop
  endfacet
  facet normal -0 0 1
    outer loop
      vertex -10 -17.3205 -1.25
      vertex -13.3826 -14.8629 -1.25
      vertex -19.235 -20.625 -1.25
    endloop
  endfacet
  facet normal 0 -0 1
    outer loop
      vertex 13.3826 -14.8629 -1.25
      vertex 10 -17.3205 -1.25
      vertex 20.125 -19.6366 -1.25
    endloop
  endfacet
  facet normal 0 -0 1
    outer loop
      vertex 10 -17.3205 -1.25
      vertex 6.18034 -19.0211 -1.25
      vertex 20.125 -19.6366 -1.25
    endloop
  endfacet
  facet normal 0 -0 1
    outer loop
      vertex 6.18034 -19.0211 -1.25
      vertex 2.09057 -19.8904 -1.25
      vertex 20.125 -19.6366 -1.25
    endloop
  endfacet
  facet normal 0 -0 1
    outer loop
      vertex -2.09057 -19.8904 -1.25
      vertex -19.235 -20.625 -1.25
      vertex 2.09057 -19.8904 -1.25
    endloop
  endfacet
  facet normal 0 -0 1
    outer loop
      vertex 19.5498 -9.43568 -1.25
      vertex 16.1803 -11.7557 -1.25
      vertex 20.125 -9.5371 -1.25
    endloop
  endfacet
  facet normal 0 0 1
    outer loop
      vertex -2.09057 19.8904 -1.25
      vertex 2.09057 19.8904 -1.25
      vertex 2.95293 28.0952 -1.25
    endloop
  endfacet
  facet normal 0 0 1
    outer loop
      vertex -20 0 -1.25
      vertex -19.563 4.15823 -1.25
      vertex -20.125 6.1737 -1.25
    endloop
  endfacet
  facet normal -0 -0 1
    outer loop
      vertex -19.563 -4.15823 -1.25
      vertex -20 0 -1.25
      vertex -19.235 -20.625 -1.25
    endloop
  endfacet
  facet normal 0 0 1
    outer loop
      vertex -19.563 4.15823 -1.25
      vertex -18.2709 8.13473 -1.25
      vertex -18.9029 20.9938 -1.25
    endloop
  endfacet
  facet normal 0 -0 1
    outer loop
      vertex 20 0 -1.25
      vertex 19.563 -4.15823 -1.25
      vertex 20.125 -6.1737 -1.25
    endloop
  endfacet
  facet normal 0 0 1
    outer loop
      vertex -20.125 9.5371 -1.25
      vertex -19.5498 9.43568 -1.25
      vertex -20.125 19.6366 -1.25
    endloop
  endfacet
  facet normal -0 0 1
    outer loop
      vertex -13.3826 -14.8629 -1.25
      vertex -16.1803 -11.7557 -1.25
      vertex -19.235 -20.625 -1.25
    endloop
  endfacet
  facet normal -0.866025 -0.5 -0
    outer loop
      vertex -23.8404 -14.8976 -4.25
      vertex -22.8547 -16.6049 -4.25
      vertex -23.8404 -14.8976 -1.25
    endloop
  endfacet
  facet normal -0.866025 -0.5 0
    outer loop
      vertex -23.8404 -14.8976 -1.25
      vertex -22.8547 -16.6049 -4.25
      vertex -22.8547 -16.6049 -1.25
    endloop
  endfacet
  facet normal -0.743145 -0.669131 -0
    outer loop
      vertex -22.8547 -16.6049 -4.25
      vertex -18.9029 -20.9938 -4.25
      vertex -22.8547 -16.6049 -1.25
    endloop
  endfacet
  facet normal -0.743145 -0.669131 0
    outer loop
      vertex -19.235 -20.625 -1.25
      vertex -18.9029 -20.9938 -4.25
      vertex -18.9029 -20.9938 -1.25
    endloop
  endfacet
  facet normal -0.743145 -0.669131 8.77704e-016
    outer loop
      vertex -20.125 -19.6366 -1.25
      vertex -18.9029 -20.9938 -4.25
      vertex -19.235 -20.625 -1.25
    endloop
  endfacet
  facet normal -0.743145 -0.669131 3.96426e-016
    outer loop
      vertex -22 -17.5542 -1.25
      vertex -18.9029 -20.9938 -4.25
      vertex -20.125 -19.6366 -1.25
    endloop
  endfacet
  facet normal -0.743145 -0.669131 2.17619e-015
    outer loop
      vertex -22.8547 -16.6049 -1.25
      vertex -18.9029 -20.9938 -4.25
      vertex -22 -17.5542 -1.25
    endloop
  endfacet
  facet normal -0.587785 -0.809017 0
    outer loop
      vertex -18.9029 -20.9938 -1.25
      vertex -18.9029 -20.9938 -4.25
      vertex -14.125 -24.4652 -4.25
    endloop
  endfacet
  facet normal -0.587785 -0.809017 1.5751e-015
    outer loop
      vertex -16.8299 -22.5 -1.25
      vertex -18.9029 -20.9938 -1.25
      vertex -14.125 -24.4652 -4.25
    endloop
  endfacet
  facet normal -0.587785 -0.809017 0
    outer loop
      vertex -14.125 -24.4652 -1.25
      vertex -16.8299 -22.5 -1.25
      vertex -14.125 -24.4652 -4.25
    endloop
  endfacet
  facet normal -0.406737 -0.913545 0
    outer loop
      vertex -14.125 -24.4652 -1.25
      vertex -14.125 -24.4652 -4.25
      vertex -8.72973 -26.8673 -4.25
    endloop
  endfacet
  facet normal -0.406737 -0.913545 0
    outer loop
      vertex -8.72973 -26.8673 -1.25
      vertex -14.125 -24.4652 -1.25
      vertex -8.72973 -26.8673 -4.25
    endloop
  endfacet
  facet normal -0.207912 -0.978148 0
    outer loop
      vertex -8.72973 -26.8673 -1.25
      vertex -8.72973 -26.8673 -4.25
      vertex -2.95293 -28.0952 -4.25
    endloop
  endfacet
  facet normal -0.207912 -0.978148 0
    outer loop
      vertex -2.95293 -28.0952 -1.25
      vertex -8.72973 -26.8673 -1.25
      vertex -2.95293 -28.0952 -4.25
    endloop
  endfacet
  facet normal 0 -1 0
    outer loop
      vertex -2.95293 -28.0952 -1.25
      vertex -2.95293 -28.0952 -4.25
      vertex 2.95293 -28.0952 -4.25
    endloop
  endfacet
  facet normal 0 -1 0
    outer loop
      vertex 2.95293 -28.0952 -1.25
      vertex -2.95293 -28.0952 -1.25
      vertex 2.95293 -28.0952 -4.25
    endloop
  endfacet
  facet normal 0.207912 -0.978148 0
    outer loop
      vertex 2.95293 -28.0952 -1.25
      vertex 2.95293 -28.0952 -4.25
      vertex 8.72973 -26.8673 -4.25
    endloop
  endfacet
  facet normal 0.207912 -0.978148 0
    outer loop
      vertex 8.72973 -26.8673 -1.25
      vertex 2.95293 -28.0952 -1.25
      vertex 8.72973 -26.8673 -4.25
    endloop
  endfacet
  facet normal 0.406737 -0.913545 0
    outer loop
      vertex 8.72973 -26.8673 -1.25
      vertex 8.72973 -26.8673 -4.25
      vertex 14.125 -24.4652 -4.25
    endloop
  endfacet
  facet normal 0.406737 -0.913545 0
    outer loop
      vertex 14.125 -24.4652 -1.25
      vertex 8.72973 -26.8673 -1.25
      vertex 14.125 -24.4652 -4.25
    endloop
  endfacet
  facet normal 0.587785 -0.809017 0
    outer loop
      vertex 14.125 -24.4652 -1.25
      vertex 14.125 -24.4652 -4.25
      vertex 18.9029 -20.9938 -4.25
    endloop
  endfacet
  facet normal 0.587785 -0.809017 1.20717e-015
    outer loop
      vertex 16.8299 -22.5 -1.25
      vertex 14.125 -24.4652 -1.25
      vertex 18.9029 -20.9938 -4.25
    endloop
  endfacet
  facet normal 0.587785 -0.809017 0
    outer loop
      vertex 18.9029 -20.9938 -1.25
      vertex 16.8299 -22.5 -1.25
      vertex 18.9029 -20.9938 -4.25
    endloop
  endfacet
  facet normal 0.743145 -0.669131 0
    outer loop
      vertex 18.9029 -20.9938 -1.25
      vertex 18.9029 -20.9938 -4.25
      vertex 22.8547 -16.6049 -4.25
    endloop
  endfacet
  facet normal 0.743145 -0.669131 9.04204e-015
    outer loop
      vertex 19.235 -20.625 -1.25
      vertex 18.9029 -20.9938 -1.25
      vertex 22.8547 -16.6049 -4.25
    endloop
  endfacet
  facet normal 0.743145 -0.669131 0
    outer loop
      vertex 22.8547 -16.6049 -1.25
      vertex 22 -17.5542 -1.25
      vertex 22.8547 -16.6049 -4.25
    endloop
  endfacet
  facet normal 0.743145 -0.669131 4.66029e-016
    outer loop
      vertex 22 -17.5542 -1.25
      vertex 20.125 -19.6366 -1.25
      vertex 22.8547 -16.6049 -4.25
    endloop
  endfacet
  facet normal 0.743145 -0.669131 -6.80867e-016
    outer loop
      vertex 20.125 -19.6366 -1.25
      vertex 19.235 -20.625 -1.25
      vertex 22.8547 -16.6049 -4.25
    endloop
  endfacet
  facet normal 0.866025 -0.5 2.46658e-015
    outer loop
      vertex 24.2144 -14.25 -4
      vertex 22.8547 -16.6049 -4.25
      vertex 25.8077 -11.4903 -4.25
    endloop
  endfacet
  facet normal 0.866025 -0.5 0
    outer loop
      vertex 24.2144 -14.25 -4
      vertex 24.2144 -14.25 -1.25
      vertex 22.8547 -16.6049 -1.25
    endloop
  endfacet
  facet normal 0.866025 -0.5 0
    outer loop
      vertex 22.8547 -16.6049 -1.25
      vertex 22.8547 -16.6049 -4.25
      vertex 24.2144 -14.25 -4
    endloop
  endfacet
  facet normal 0.866025 -0.5 0
    outer loop
      vertex 25.8077 -11.4903 -4
      vertex 24.2144 -14.25 -4
      vertex 25.8077 -11.4903 -4.25
    endloop
  endfacet
  facet normal 0.951056 -0.309017 0
    outer loop
      vertex 25.8077 -11.4903 -4
      vertex 25.8077 -11.4903 -4.25
      vertex 27.6327 -5.8735 -4.25
    endloop
  endfacet
  facet normal 0.951056 -0.309017 0
    outer loop
      vertex 27.6327 -5.8735 -4
      vertex 25.8077 -11.4903 -4
      vertex 27.6327 -5.8735 -4.25
    endloop
  endfacet
  facet normal 0.994522 -0.104528 0
    outer loop
      vertex 27.6327 -5.8735 -4
      vertex 27.6327 -5.8735 -4.25
      vertex 28.25 0 -4.25
    endloop
  endfacet
  facet normal 0.994522 -0.104528 0
    outer loop
      vertex 28.25 0 -4
      vertex 27.6327 -5.8735 -4
      vertex 28.25 0 -4.25
    endloop
  endfacet
  facet normal 0.994522 0.104528 0
    outer loop
      vertex 28.25 0 -4.25
      vertex 27.6327 5.8735 -4.25
      vertex 27.6327 5.8735 -4
    endloop
  endfacet
  facet normal 0.994522 0.104528 -0
    outer loop
      vertex 28.25 0 -4
      vertex 28.25 0 -4.25
      vertex 27.6327 5.8735 -4
    endloop
  endfacet
  facet normal 0.951056 0.309017 0
    outer loop
      vertex 27.6327 5.8735 -4.25
      vertex 26.1177 10.5362 -4.25
      vertex 26.1177 10.5362 -4
    endloop
  endfacet
  facet normal 0.951056 0.309017 -0
    outer loop
      vertex 27.6327 5.8735 -4
      vertex 27.6327 5.8735 -4.25
      vertex 26.1177 10.5362 -4
    endloop
  endfacet
  facet normal -0.984808 0.173648 0
    outer loop
      vertex 26.2096 11.0577 2
      vertex 26.2096 11.0577 -4
      vertex 22.5042 -9.95663 2
    endloop
  endfacet
  facet normal -0.984808 0.173648 -6.72204e-015
    outer loop
      vertex 22.5042 -9.95663 2
      vertex 26.2096 11.0577 -4
      vertex 26.1177 10.5362 -4
    endloop
  endfacet
  facet normal -0.984808 0.173648 0
    outer loop
      vertex 22.5042 -9.95663 2
      vertex 26.1177 10.5362 -4
      vertex 26.1177 10.5362 -4.25
    endloop
  endfacet
  facet normal -0.984808 0.173648 0
    outer loop
      vertex 22.5042 -9.95663 2
      vertex 26.1177 10.5362 -4.25
      vertex 22.5042 -9.95663 -4.25
    endloop
  endfacet
  facet normal 0.173648 0.984808 9.54957e-016
    outer loop
      vertex 22.5042 -9.95663 -4.25
      vertex 19.5498 -9.43568 -1.25
      vertex 20.125 -9.5371 -1.25
    endloop
  endfacet
  facet normal 0.173648 0.984808 0
    outer loop
      vertex 22.5042 -9.95663 2
      vertex 22 -9.86771 1.25
      vertex 22 -9.86771 2
    endloop
  endfacet
  facet normal 0.173648 0.984808 0
    outer loop
      vertex 22 -9.86771 -1.25
      vertex 22 -9.86771 1.25
      vertex 22.5042 -9.95663 2
    endloop
  endfacet
  facet normal 0.173648 0.984808 0
    outer loop
      vertex 22 -9.86771 -1.25
      vertex 22.5042 -9.95663 2
      vertex 22.5042 -9.95663 -4.25
    endloop
  endfacet
  facet normal 0.173648 0.984808 3.49372e-016
    outer loop
      vertex 22 -9.86771 -1.25
      vertex 22.5042 -9.95663 -4.25
      vertex 20.125 -9.5371 -1.25
    endloop
  endfacet
  facet normal 0.173648 0.984808 0
    outer loop
      vertex 22.5042 -9.95663 -4.25
      vertex 19.5498 -9.43568 -4.25
      vertex 19.5498 -9.43568 -1.25
    endloop
  endfacet
  facet normal 0.984808 -0.173648 0
    outer loop
      vertex 23.8404 14.8976 -4.25
      vertex 23.8404 14.8976 -1.25
      vertex 22 4.45995 -1.25
    endloop
  endfacet
  facet normal 0.984808 -0.173648 -4.48637e-015
    outer loop
      vertex 19.5498 -9.43568 -1.25
      vertex 23.8404 14.8976 -4.25
      vertex 20.125 -6.1737 -1.25
    endloop
  endfacet
  facet normal 0.984808 -0.173648 -6.63906e-016
    outer loop
      vertex 20.125 -6.1737 -1.25
      vertex 23.8404 14.8976 -4.25
      vertex 22 4.45995 -1.25
    endloop
  endfacet
  facet normal 0.984808 -0.173648 0
    outer loop
      vertex 19.5498 -9.43568 -4.25
      vertex 23.8404 14.8976 -4.25
      vertex 19.5498 -9.43568 -1.25
    endloop
  endfacet
  facet normal 0.866025 0.5 0
    outer loop
      vertex 23.8404 14.8976 -4.25
      vertex 22.8547 16.6049 -4.25
      vertex 22.8547 16.6049 -1.25
    endloop
  endfacet
  facet normal 0.866025 0.5 -0
    outer loop
      vertex 23.8404 14.8976 -1.25
      vertex 23.8404 14.8976 -4.25
      vertex 22.8547 16.6049 -1.25
    endloop
  endfacet
  facet normal 0.743145 0.669131 0
    outer loop
      vertex 22.8547 16.6049 -4.25
      vertex 18.9029 20.9938 -4.25
      vertex 18.9029 20.9938 -1.25
    endloop
  endfacet
  facet normal 0.743145 0.669131 4.66029e-016
    outer loop
      vertex 22 17.5542 -1.25
      vertex 22.8547 16.6049 -4.25
      vertex 20.125 19.6366 -1.25
    endloop
  endfacet
  facet normal 0.743145 0.669131 1.3882e-015
    outer loop
      vertex 20.125 19.6366 -1.25
      vertex 22.8547 16.6049 -4.25
      vertex 18.9029 20.9938 -1.25
    endloop
  endfacet
  facet normal 0.743145 0.669131 -0
    outer loop
      vertex 22.8547 16.6049 -1.25
      vertex 22.8547 16.6049 -4.25
      vertex 22 17.5542 -1.25
    endloop
  endfacet
  facet normal 0.587785 0.809017 0
    outer loop
      vertex 14.125 24.4652 -4.25
      vertex 14.125 24.4652 -1.25
      vertex 18.9029 20.9938 -4.25
    endloop
  endfacet
  facet normal 0.587785 0.809017 0
    outer loop
      vertex 18.9029 20.9938 -4.25
      vertex 14.125 24.4652 -1.25
      vertex 18.9029 20.9938 -1.25
    endloop
  endfacet
  facet normal 0.406737 0.913545 0
    outer loop
      vertex 8.72973 26.8673 -4.25
      vertex 8.72973 26.8673 -1.25
      vertex 14.125 24.4652 -4.25
    endloop
  endfacet
  facet normal 0.406737 0.913545 0
    outer loop
      vertex 14.125 24.4652 -4.25
      vertex 8.72973 26.8673 -1.25
      vertex 14.125 24.4652 -1.25
    endloop
  endfacet
  facet normal 0.207912 0.978148 0
    outer loop
      vertex 2.95293 28.0952 -4.25
      vertex 2.95293 28.0952 -1.25
      vertex 8.72973 26.8673 -4.25
    endloop
  endfacet
  facet normal 0.207912 0.978148 0
    outer loop
      vertex 8.72973 26.8673 -4.25
      vertex 2.95293 28.0952 -1.25
      vertex 8.72973 26.8673 -1.25
    endloop
  endfacet
  facet normal 0 1 0
    outer loop
      vertex -2.95293 28.0952 -4.25
      vertex -2.95293 28.0952 -1.25
      vertex 2.95293 28.0952 -4.25
    endloop
  endfacet
  facet normal 0 1 0
    outer loop
      vertex 2.95293 28.0952 -4.25
      vertex -2.95293 28.0952 -1.25
      vertex 2.95293 28.0952 -1.25
    endloop
  endfacet
  facet normal -0.207912 0.978148 0
    outer loop
      vertex -8.72973 26.8673 -4.25
      vertex -8.72973 26.8673 -1.25
      vertex -2.95293 28.0952 -4.25
    endloop
  endfacet
  facet normal -0.207912 0.978148 0
    outer loop
      vertex -2.95293 28.0952 -4.25
      vertex -8.72973 26.8673 -1.25
      vertex -2.95293 28.0952 -1.25
    endloop
  endfacet
  facet normal -0.406737 0.913545 0
    outer loop
      vertex -14.125 24.4652 -4.25
      vertex -14.125 24.4652 -1.25
      vertex -8.72973 26.8673 -4.25
    endloop
  endfacet
  facet normal -0.406737 0.913545 0
    outer loop
      vertex -8.72973 26.8673 -4.25
      vertex -14.125 24.4652 -1.25
      vertex -8.72973 26.8673 -1.25
    endloop
  endfacet
  facet normal -0.587785 0.809017 0
    outer loop
      vertex -18.9029 20.9938 -4.25
      vertex -18.9029 20.9938 -1.25
      vertex -14.125 24.4652 -4.25
    endloop
  endfacet
  facet normal -0.587785 0.809017 0
    outer loop
      vertex -14.125 24.4652 -4.25
      vertex -18.9029 20.9938 -1.25
      vertex -14.125 24.4652 -1.25
    endloop
  endfacet
  facet normal 0.994522 0.104528 0
    outer loop
      vertex -20 0 -1.25
      vertex -19.563 -4.15823 -1.25
      vertex -19.563 -4.15823 -4.25
    endloop
  endfacet
  facet normal 0.994522 0.104528 0
    outer loop
      vertex -20 0 -4.25
      vertex -20 0 -1.25
      vertex -19.563 -4.15823 -4.25
    endloop
  endfacet
  facet normal 0.994522 -0.104528 0
    outer loop
      vertex -19.563 4.15823 -4.25
      vertex -19.563 4.15823 -1.25
      vertex -20 0 -1.25
    endloop
  endfacet
  facet normal 0.994522 -0.104528 0
    outer loop
      vertex -20 0 -4.25
      vertex -19.563 4.15823 -4.25
      vertex -20 0 -1.25
    endloop
  endfacet
  facet normal 0.951057 -0.309017 0
    outer loop
      vertex -18.2709 8.13473 -4.25
      vertex -18.2709 8.13473 -1.25
      vertex -19.563 4.15823 -1.25
    endloop
  endfacet
  facet normal 0.951057 -0.309017 0
    outer loop
      vertex -19.563 4.15823 -4.25
      vertex -18.2709 8.13473 -4.25
      vertex -19.563 4.15823 -1.25
    endloop
  endfacet
  facet normal 0.866025 -0.5 0
    outer loop
      vertex -16.1803 11.7557 -4.25
      vertex -16.1803 11.7557 -1.25
      vertex -18.2709 8.13473 -1.25
    endloop
  endfacet
  facet normal 0.866025 -0.5 0
    outer loop
      vertex -18.2709 8.13473 -4.25
      vertex -16.1803 11.7557 -4.25
      vertex -18.2709 8.13473 -1.25
    endloop
  endfacet
  facet normal 0.743145 -0.669131 0
    outer loop
      vertex -13.3826 14.8629 -4.25
      vertex -13.3826 14.8629 -1.25
      vertex -16.1803 11.7557 -1.25
    endloop
  endfacet
  facet normal 0.743145 -0.669131 0
    outer loop
      vertex -16.1803 11.7557 -4.25
      vertex -13.3826 14.8629 -4.25
      vertex -16.1803 11.7557 -1.25
    endloop
  endfacet
  facet normal 0.587785 -0.809017 0
    outer loop
      vertex -10 17.3205 -4.25
      vertex -10 17.3205 -1.25
      vertex -13.3826 14.8629 -1.25
    endloop
  endfacet
  facet normal 0.587785 -0.809017 0
    outer loop
      vertex -13.3826 14.8629 -4.25
      vertex -10 17.3205 -4.25
      vertex -13.3826 14.8629 -1.25
    endloop
  endfacet
  facet normal 0.406737 -0.913545 0
    outer loop
      vertex -6.18034 19.0211 -4.25
      vertex -6.18034 19.0211 -1.25
      vertex -10 17.3205 -1.25
    endloop
  endfacet
  facet normal 0.406737 -0.913545 0
    outer loop
      vertex -10 17.3205 -4.25
      vertex -6.18034 19.0211 -4.25
      vertex -10 17.3205 -1.25
    endloop
  endfacet
  facet normal 0.207912 -0.978148 0
    outer loop
      vertex -2.09057 19.8904 -4.25
      vertex -2.09057 19.8904 -1.25
      vertex -6.18034 19.0211 -1.25
    endloop
  endfacet
  facet normal 0.207912 -0.978148 0
    outer loop
      vertex -6.18034 19.0211 -4.25
      vertex -2.09057 19.8904 -4.25
      vertex -6.18034 19.0211 -1.25
    endloop
  endfacet
  facet normal 0 -1 0
    outer loop
      vertex 2.09057 19.8904 -4.25
      vertex 2.09057 19.8904 -1.25
      vertex -2.09057 19.8904 -1.25
    endloop
  endfacet
  facet normal -0 -1 -0
    outer loop
      vertex -2.09057 19.8904 -4.25
      vertex 2.09057 19.8904 -4.25
      vertex -2.09057 19.8904 -1.25
    endloop
  endfacet
  facet normal -0.207912 -0.978148 -0
    outer loop
      vertex 6.18034 19.0211 -4.25
      vertex 6.18034 19.0211 -1.25
      vertex 2.09057 19.8904 -1.25
    endloop
  endfacet
  facet normal -0.207912 -0.978148 -0
    outer loop
      vertex 2.09057 19.8904 -4.25
      vertex 6.18034 19.0211 -4.25
      vertex 2.09057 19.8904 -1.25
    endloop
  endfacet
  facet normal -0.406737 -0.913545 -0
    outer loop
      vertex 10 17.3205 -4.25
      vertex 10 17.3205 -1.25
      vertex 6.18034 19.0211 -1.25
    endloop
  endfacet
  facet normal -0.406737 -0.913545 -0
    outer loop
      vertex 6.18034 19.0211 -4.25
      vertex 10 17.3205 -4.25
      vertex 6.18034 19.0211 -1.25
    endloop
  endfacet
  facet normal -0.587785 -0.809017 -0
    outer loop
      vertex 13.3826 14.8629 -4.25
      vertex 13.3826 14.8629 -1.25
      vertex 10 17.3205 -1.25
    endloop
  endfacet
  facet normal -0.587785 -0.809017 -0
    outer loop
      vertex 10 17.3205 -4.25
      vertex 13.3826 14.8629 -4.25
      vertex 10 17.3205 -1.25
    endloop
  endfacet
  facet normal -0.743145 -0.669131 0
    outer loop
      vertex 16.1803 11.7557 -1.25
      vertex 13.3826 14.8629 -1.25
      vertex 16.1803 11.7557 -4.25
    endloop
  endfacet
  facet normal -0.743145 -0.669131 0
    outer loop
      vertex 16.1803 11.7557 -4.25
      vertex 13.3826 14.8629 -1.25
      vertex 13.3826 14.8629 -4.25
    endloop
  endfacet
  facet normal -0.866025 -0.5 0
    outer loop
      vertex 18.2709 8.13473 -1.25
      vertex 16.1803 11.7557 -1.25
      vertex 18.2709 8.13473 -4.25
    endloop
  endfacet
  facet normal -0.866025 -0.5 0
    outer loop
      vertex 18.2709 8.13473 -4.25
      vertex 16.1803 11.7557 -1.25
      vertex 16.1803 11.7557 -4.25
    endloop
  endfacet
  facet normal -0.951057 -0.309017 0
    outer loop
      vertex 19.563 4.15823 -1.25
      vertex 18.2709 8.13473 -1.25
      vertex 19.563 4.15823 -4.25
    endloop
  endfacet
  facet normal -0.951057 -0.309017 0
    outer loop
      vertex 19.563 4.15823 -4.25
      vertex 18.2709 8.13473 -1.25
      vertex 18.2709 8.13473 -4.25
    endloop
  endfacet
  facet normal -0.994522 -0.104528 0
    outer loop
      vertex 20 0 -1.25
      vertex 19.563 4.15823 -1.25
      vertex 20 0 -4.25
    endloop
  endfacet
  facet normal -0.994522 -0.104528 0
    outer loop
      vertex 20 0 -4.25
      vertex 19.563 4.15823 -1.25
      vertex 19.563 4.15823 -4.25
    endloop
  endfacet
  facet normal -0.994522 0.104528 0
    outer loop
      vertex 20 0 -1.25
      vertex 20 0 -4.25
      vertex 19.563 -4.15823 -1.25
    endloop
  endfacet
  facet normal -0.994522 0.104528 0
    outer loop
      vertex 19.563 -4.15823 -1.25
      vertex 20 0 -4.25
      vertex 19.563 -4.15823 -4.25
    endloop
  endfacet
  facet normal -0.951057 0.309017 0
    outer loop
      vertex 19.563 -4.15823 -1.25
      vertex 19.563 -4.15823 -4.25
      vertex 18.2709 -8.13473 -1.25
    endloop
  endfacet
  facet normal -0.951057 0.309017 0
    outer loop
      vertex 18.2709 -8.13473 -1.25
      vertex 19.563 -4.15823 -4.25
      vertex 18.2709 -8.13473 -4.25
    endloop
  endfacet
  facet normal -0.866025 0.5 0
    outer loop
      vertex 18.2709 -8.13473 -1.25
      vertex 18.2709 -8.13473 -4.25
      vertex 16.1803 -11.7557 -1.25
    endloop
  endfacet
  facet normal -0.866025 0.5 0
    outer loop
      vertex 16.1803 -11.7557 -1.25
      vertex 18.2709 -8.13473 -4.25
      vertex 16.1803 -11.7557 -4.25
    endloop
  endfacet
  facet normal -0.743145 0.669131 0
    outer loop
      vertex 16.1803 -11.7557 -1.25
      vertex 16.1803 -11.7557 -4.25
      vertex 13.3826 -14.8629 -1.25
    endloop
  endfacet
  facet normal -0.743145 0.669131 0
    outer loop
      vertex 13.3826 -14.8629 -1.25
      vertex 16.1803 -11.7557 -4.25
      vertex 13.3826 -14.8629 -4.25
    endloop
  endfacet
  facet normal -0.587785 0.809017 0
    outer loop
      vertex 13.3826 -14.8629 -1.25
      vertex 13.3826 -14.8629 -4.25
      vertex 10 -17.3205 -1.25
    endloop
  endfacet
  facet normal -0.587785 0.809017 0
    outer loop
      vertex 10 -17.3205 -1.25
      vertex 13.3826 -14.8629 -4.25
      vertex 10 -17.3205 -4.25
    endloop
  endfacet
  facet normal -0.406737 0.913545 0
    outer loop
      vertex 10 -17.3205 -1.25
      vertex 10 -17.3205 -4.25
      vertex 6.18034 -19.0211 -1.25
    endloop
  endfacet
  facet normal -0.406737 0.913545 0
    outer loop
      vertex 6.18034 -19.0211 -1.25
      vertex 10 -17.3205 -4.25
      vertex 6.18034 -19.0211 -4.25
    endloop
  endfacet
  facet normal -0.207912 0.978148 0
    outer loop
      vertex 6.18034 -19.0211 -1.25
      vertex 6.18034 -19.0211 -4.25
      vertex 2.09057 -19.8904 -1.25
    endloop
  endfacet
  facet normal -0.207912 0.978148 0
    outer loop
      vertex 2.09057 -19.8904 -1.25
      vertex 6.18034 -19.0211 -4.25
      vertex 2.09057 -19.8904 -4.25
    endloop
  endfacet
  facet normal 0 1 0
    outer loop
      vertex 2.09057 -19.8904 -1.25
      vertex 2.09057 -19.8904 -4.25
      vertex -2.09057 -19.8904 -1.25
    endloop
  endfacet
  facet normal 0 1 -0
    outer loop
      vertex -2.09057 -19.8904 -1.25
      vertex 2.09057 -19.8904 -4.25
      vertex -2.09057 -19.8904 -4.25
    endloop
  endfacet
  facet normal 0.207912 0.978148 -0
    outer loop
      vertex -2.09057 -19.8904 -1.25
      vertex -2.09057 -19.8904 -4.25
      vertex -6.18034 -19.0211 -1.25
    endloop
  endfacet
  facet normal 0.207912 0.978148 -0
    outer loop
      vertex -6.18034 -19.0211 -1.25
      vertex -2.09057 -19.8904 -4.25
      vertex -6.18034 -19.0211 -4.25
    endloop
  endfacet
  facet normal 0.406737 0.913545 -0
    outer loop
      vertex -6.18034 -19.0211 -1.25
      vertex -6.18034 -19.0211 -4.25
      vertex -10 -17.3205 -1.25
    endloop
  endfacet
  facet normal 0.406737 0.913545 -0
    outer loop
      vertex -10 -17.3205 -1.25
      vertex -6.18034 -19.0211 -4.25
      vertex -10 -17.3205 -4.25
    endloop
  endfacet
  facet normal 0.587785 0.809017 -0
    outer loop
      vertex -10 -17.3205 -1.25
      vertex -10 -17.3205 -4.25
      vertex -13.3826 -14.8629 -1.25
    endloop
  endfacet
  facet normal 0.587785 0.809017 -0
    outer loop
      vertex -13.3826 -14.8629 -1.25
      vertex -10 -17.3205 -4.25
      vertex -13.3826 -14.8629 -4.25
    endloop
  endfacet
  facet normal 0.743145 0.669131 0
    outer loop
      vertex -16.1803 -11.7557 -1.25
      vertex -13.3826 -14.8629 -1.25
      vertex -13.3826 -14.8629 -4.25
    endloop
  endfacet
  facet normal 0.743145 0.669131 0
    outer loop
      vertex -16.1803 -11.7557 -4.25
      vertex -16.1803 -11.7557 -1.25
      vertex -13.3826 -14.8629 -4.25
    endloop
  endfacet
  facet normal 0.866025 0.5 0
    outer loop
      vertex -18.2709 -8.13473 -1.25
      vertex -16.1803 -11.7557 -1.25
      vertex -16.1803 -11.7557 -4.25
    endloop
  endfacet
  facet normal 0.866025 0.5 0
    outer loop
      vertex -18.2709 -8.13473 -4.25
      vertex -18.2709 -8.13473 -1.25
      vertex -16.1803 -11.7557 -4.25
    endloop
  endfacet
  facet normal 0.951057 0.309017 0
    outer loop
      vertex -19.563 -4.15823 -1.25
      vertex -18.2709 -8.13473 -1.25
      vertex -18.2709 -8.13473 -4.25
    endloop
  endfacet
  facet normal 0.951057 0.309017 0
    outer loop
      vertex -19.563 -4.15823 -4.25
      vertex -19.563 -4.15823 -1.25
      vertex -18.2709 -8.13473 -4.25
    endloop
  endfacet
  facet normal 0 -0 -1
    outer loop
      vertex -22 17.5542 -1.25
      vertex -22 20.5 -1.25
      vertex -20.125 19.6366 -1.25
    endloop
  endfacet
  facet normal 0 0 -1
    outer loop
      vertex -20.125 19.6366 -1.25
      vertex -22 20.5 -1.25
      vertex -20.125 20.5 -1.25
    endloop
  endfacet
  facet normal 0 1 0
    outer loop
      vertex -22 20.5 -1.25
      vertex -22 20.5 1.25
      vertex -20.125 20.5 -1.25
    endloop
  endfacet
  facet normal 0 1 0
    outer loop
      vertex -20.125 20.5 -1.25
      vertex -22 20.5 1.25
      vertex -20.125 20.5 1.25
    endloop
  endfacet
  facet normal 0 -0 1
    outer loop
      vertex -22 20.5 1.25
      vertex -22 19.9875 1.25
      vertex -20.125 19.9875 1.25
    endloop
  endfacet
  facet normal 0 0 1
    outer loop
      vertex -20.125 20.5 1.25
      vertex -22 20.5 1.25
      vertex -20.125 19.9875 1.25
    endloop
  endfacet
  facet normal 0 1 0
    outer loop
      vertex -22 19.9875 1.25
      vertex -22 19.9875 3
      vertex -20.125 19.9875 1.25
    endloop
  endfacet
  facet normal 0 1 0
    outer loop
      vertex -20.125 19.9875 1.25
      vertex -22 19.9875 3
      vertex -18 19.9875 3
    endloop
  endfacet
  facet normal 0 1 0
    outer loop
      vertex -20.125 19.9875 1.25
      vertex -18 19.9875 3
      vertex -18 19.9875 1
    endloop
  endfacet
  facet normal 0 1 -0
    outer loop
      vertex -20.125 19.9875 1.25
      vertex -18 19.9875 1
      vertex -20.125 19.9875 1
    endloop
  endfacet
  facet normal 0 -0 1
    outer loop
      vertex -22 19.9875 3
      vertex -22 14.6125 3
      vertex -18 14.6125 3
    endloop
  endfacet
  facet normal 0 0 1
    outer loop
      vertex -18 19.9875 3
      vertex -22 19.9875 3
      vertex -18 14.6125 3
    endloop
  endfacet
  facet normal 0 -1 0
    outer loop
      vertex -22 14.6125 3
      vertex -22 14.6125 1.25
      vertex -20.125 14.6125 1.25
    endloop
  endfacet
  facet normal 0 -1 0
    outer loop
      vertex -18 14.6125 1
      vertex -22 14.6125 3
      vertex -20.125 14.6125 1.25
    endloop
  endfacet
  facet normal -0 -1 -0
    outer loop
      vertex -20.125 14.6125 1
      vertex -18 14.6125 1
      vertex -20.125 14.6125 1.25
    endloop
  endfacet
  facet normal 0 -1 0
    outer loop
      vertex -18 14.6125 1
      vertex -18 14.6125 3
      vertex -22 14.6125 3
    endloop
  endfacet
  facet normal 0 1 0
    outer loop
      vertex -22 -12.3125 1.25
      vertex -22 -12.3125 3
      vertex -20.125 -12.3125 1.25
    endloop
  endfacet
  facet normal 0 1 0
    outer loop
      vertex -20.125 -12.3125 1.25
      vertex -22 -12.3125 3
      vertex -18 -12.3125 3
    endloop
  endfacet
  facet normal 0 1 0
    outer loop
      vertex -20.125 -12.3125 1.25
      vertex -18 -12.3125 3
      vertex -18 -12.3125 1
    endloop
  endfacet
  facet normal 0 1 -0
    outer loop
      vertex -20.125 -12.3125 1.25
      vertex -18 -12.3125 1
      vertex -20.125 -12.3125 1
    endloop
  endfacet
  facet normal 0 0 1
    outer loop
      vertex -22.8547 -16.6049 -1.25
      vertex -22 -17.5542 -1.25
      vertex -22 -4.45995 -1.25
    endloop
  endfacet
  facet normal 0 0 1
    outer loop
      vertex -23.8404 -14.8976 -1.25
      vertex -22.8547 -16.6049 -1.25
      vertex -22 -4.45995 -1.25
    endloop
  endfacet
  facet normal 0 -0 -1
    outer loop
      vertex -22 -22.5 -1.25
      vertex -22 -17.5542 -1.25
      vertex -20.125 -19.6366 -1.25
    endloop
  endfacet
  facet normal 0 0 -1
    outer loop
      vertex -22 -22.5 -1.25
      vertex -20.125 -19.6366 -1.25
      vertex -20.125 -20.625 -1.25
    endloop
  endfacet
  facet normal -0 0 -1
    outer loop
      vertex -22 -22.5 -1.25
      vertex -20.125 -20.625 -1.25
      vertex -16.8299 -22.5 -1.25
    endloop
  endfacet
  facet normal 0 0 -1
    outer loop
      vertex -20.125 -20.625 -1.25
      vertex -19.235 -20.625 -1.25
      vertex -18.9029 -20.9938 -1.25
    endloop
  endfacet
  facet normal 0 0 -1
    outer loop
      vertex -20.125 -20.625 -1.25
      vertex -18.9029 -20.9938 -1.25
      vertex -16.8299 -22.5 -1.25
    endloop
  endfacet
  facet normal 0 -0 1
    outer loop
      vertex -22 -12.3125 3
      vertex -22 -17.6875 3
      vertex -18 -17.6875 3
    endloop
  endfacet
  facet normal 0 0 1
    outer loop
      vertex -18 -12.3125 3
      vertex -22 -12.3125 3
      vertex -18 -17.6875 3
    endloop
  endfacet
  facet normal 0 -1 0
    outer loop
      vertex -22 -17.6875 3
      vertex -22 -17.6875 1.25
      vertex -20.125 -17.6875 1.25
    endloop
  endfacet
  facet normal 0 -1 0
    outer loop
      vertex -18 -17.6875 1
      vertex -22 -17.6875 3
      vertex -20.125 -17.6875 1.25
    endloop
  endfacet
  facet normal -0 -1 -0
    outer loop
      vertex -20.125 -17.6875 1
      vertex -18 -17.6875 1
      vertex -20.125 -17.6875 1.25
    endloop
  endfacet
  facet normal 0 -1 0
    outer loop
      vertex -18 -17.6875 1
      vertex -18 -17.6875 3
      vertex -22 -17.6875 3
    endloop
  endfacet
  facet normal 0 -0 1
    outer loop
      vertex -20.125 -20.625 1.25
      vertex -22 -22.5 1.25
      vertex 22 -22.5 1.25
    endloop
  endfacet
  facet normal 0 0 1
    outer loop
      vertex -20.125 -20.625 1.25
      vertex -20.125 -17.6875 1.25
      vertex -22 -17.6875 1.25
    endloop
  endfacet
  facet normal 0 0 1
    outer loop
      vertex 22 -17.6875 1.25
      vertex 20.125 -17.6875 1.25
      vertex 22 -22.5 1.25
    endloop
  endfacet
  facet normal 0 -0 1
    outer loop
      vertex 20.125 -17.6875 1.25
      vertex 20.125 -20.625 1.25
      vertex 22 -22.5 1.25
    endloop
  endfacet
  facet normal 0 -0 1
    outer loop
      vertex -22 -17.6875 1.25
      vertex -22 -22.5 1.25
      vertex -20.125 -20.625 1.25
    endloop
  endfacet
  facet normal 0 -0 1
    outer loop
      vertex 20.125 -20.625 1.25
      vertex -20.125 -20.625 1.25
      vertex 22 -22.5 1.25
    endloop
  endfacet
  facet normal 0 -1 0
    outer loop
      vertex -22 -22.5 1.25
      vertex -22 -22.5 -1.25
      vertex -16.8299 -22.5 -1.25
    endloop
  endfacet
  facet normal 0 -1 0
    outer loop
      vertex 22 -22.5 -1.25
      vertex -22 -22.5 1.25
      vertex 16.8299 -22.5 -1.25
    endloop
  endfacet
  facet normal 0 -1 0
    outer loop
      vertex 16.8299 -22.5 -1.25
      vertex -22 -22.5 1.25
      vertex -16.8299 -22.5 -1.25
    endloop
  endfacet
  facet normal 0 -1 0
    outer loop
      vertex 22 -22.5 1.25
      vertex -22 -22.5 1.25
      vertex 22 -22.5 -1.25
    endloop
  endfacet
  facet normal 0 1 0
    outer loop
      vertex 20.125 -20.625 1.25
      vertex 20.125 -20.625 -1.25
      vertex -20.125 -20.625 1.25
    endloop
  endfacet
  facet normal 0 1 0
    outer loop
      vertex -20.125 -20.625 1.25
      vertex 20.125 -20.625 -1.25
      vertex 19.235 -20.625 -1.25
    endloop
  endfacet
  facet normal 0 1 0
    outer loop
      vertex -20.125 -20.625 1.25
      vertex 19.235 -20.625 -1.25
      vertex -19.235 -20.625 -1.25
    endloop
  endfacet
  facet normal 0 1 -0
    outer loop
      vertex -20.125 -20.625 1.25
      vertex -19.235 -20.625 -1.25
      vertex -20.125 -20.625 -1.25
    endloop
  endfacet
  facet normal -0 -0 -1
    outer loop
      vertex -20.125 -17.6875 1
      vertex -20.125 -12.3125 1
      vertex -18 -17.6875 1
    endloop
  endfacet
  facet normal 0 0 -1
    outer loop
      vertex -18 -17.6875 1
      vertex -20.125 -12.3125 1
      vertex -18 -12.3125 1
    endloop
  endfacet
  facet normal -0 -0 -1
    outer loop
      vertex -20.125 14.6125 1
      vertex -20.125 19.9875 1
      vertex -18 14.6125 1
    endloop
  endfacet
  facet normal 0 0 -1
    outer loop
      vertex -18 14.6125 1
      vertex -20.125 19.9875 1
      vertex -18 19.9875 1
    endloop
  endfacet
  facet normal -0 -0 -1
    outer loop
      vertex 20.125 19.6366 -1.25
      vertex 20.125 20.5 -1.25
      vertex 22 17.5542 -1.25
    endloop
  endfacet
  facet normal 0 0 -1
    outer loop
      vertex 22 17.5542 -1.25
      vertex 20.125 20.5 -1.25
      vertex 22 20.5 -1.25
    endloop
  endfacet
  facet normal -1 0 0
    outer loop
      vertex 20.125 -17.6875 1.25
      vertex 20.125 -17.6875 1
      vertex 20.125 -20.625 1.25
    endloop
  endfacet
  facet normal -1 -0 -0
    outer loop
      vertex 20.125 19.6366 -1.25
      vertex 20.125 -17.6875 1
      vertex 20.125 20.5 -1.25
    endloop
  endfacet
  facet normal -1 0 0
    outer loop
      vertex 20.125 14.6125 1.25
      vertex 20.125 -12.3125 1
      vertex 20.125 -12.3125 1.25
    endloop
  endfacet
  facet normal -1 0 0
    outer loop
      vertex 20.125 14.6125 1
      vertex 20.125 -12.3125 1
      vertex 20.125 14.6125 1.25
    endloop
  endfacet
  facet normal -1 0 0
    outer loop
      vertex 20.125 -17.6875 1
      vertex 20.125 -12.3125 1
      vertex 20.125 20.5 -1.25
    endloop
  endfacet
  facet normal -1 0 0
    outer loop
      vertex 20.125 -12.3125 1
      vertex 20.125 14.6125 1
      vertex 20.125 20.5 -1.25
    endloop
  endfacet
  facet normal -1 0 0
    outer loop
      vertex 20.125 20.5 1.25
      vertex 20.125 19.9875 1
      vertex 20.125 19.9875 1.25
    endloop
  endfacet
  facet normal -1 0 0
    outer loop
      vertex 20.125 20.5 -1.25
      vertex 20.125 19.9875 1
      vertex 20.125 20.5 1.25
    endloop
  endfacet
  facet normal -1 0 0
    outer loop
      vertex 20.125 14.6125 1
      vertex 20.125 19.9875 1
      vertex 20.125 20.5 -1.25
    endloop
  endfacet
  facet normal -1 -0 -0
    outer loop
      vertex 20.125 -6.1737 -1.25
      vertex 20.125 -17.6875 1
      vertex 20.125 19.6366 -1.25
    endloop
  endfacet
  facet normal -1 0 0
    outer loop
      vertex 20.125 -20.625 1.25
      vertex 20.125 -17.6875 1
      vertex 20.125 -6.1737 -1.25
    endloop
  endfacet
  facet normal -1 0 0
    outer loop
      vertex 20.125 -20.625 1.25
      vertex 20.125 -6.1737 -1.25
      vertex 20.125 -9.5371 -1.25
    endloop
  endfacet
  facet normal -1 0 0
    outer loop
      vertex 20.125 -20.625 1.25
      vertex 20.125 -9.5371 -1.25
      vertex 20.125 -19.6366 -1.25
    endloop
  endfacet
  facet normal -1 0 0
    outer loop
      vertex 20.125 -20.625 1.25
      vertex 20.125 -19.6366 -1.25
      vertex 20.125 -20.625 -1.25
    endloop
  endfacet
  facet normal -0 -0 -1
    outer loop
      vertex 20.125 -9.5371 -1.25
      vertex 20.125 -6.1737 -1.25
      vertex 22 -9.86771 -1.25
    endloop
  endfacet
  facet normal 0 0 -1
    outer loop
      vertex 22 -9.86771 -1.25
      vertex 20.125 -6.1737 -1.25
      vertex 22 4.45995 -1.25
    endloop
  endfacet
  facet normal -0 0 -1
    outer loop
      vertex 16.8299 -22.5 -1.25
      vertex 18.9029 -20.9938 -1.25
      vertex 22 -22.5 -1.25
    endloop
  endfacet
  facet normal 0 0 -1
    outer loop
      vertex 22 -22.5 -1.25
      vertex 18.9029 -20.9938 -1.25
      vertex 19.235 -20.625 -1.25
    endloop
  endfacet
  facet normal 0 0 -1
    outer loop
      vertex 22 -22.5 -1.25
      vertex 19.235 -20.625 -1.25
      vertex 20.125 -20.625 -1.25
    endloop
  endfacet
  facet normal 0 0 -1
    outer loop
      vertex 22 -22.5 -1.25
      vertex 20.125 -20.625 -1.25
      vertex 20.125 -19.6366 -1.25
    endloop
  endfacet
  facet normal -0 0 -1
    outer loop
      vertex 20.125 -19.6366 -1.25
      vertex 22 -17.5542 -1.25
      vertex 22 -22.5 -1.25
    endloop
  endfacet
  facet normal 0 0 1
    outer loop
      vertex -14.125 -24.4652 -1.25
      vertex -8.72973 -26.8673 -1.25
      vertex -2.95293 -28.0952 -1.25
    endloop
  endfacet
  facet normal -0 0 1
    outer loop
      vertex 8.72973 -26.8673 -1.25
      vertex -14.125 -24.4652 -1.25
      vertex 2.95293 -28.0952 -1.25
    endloop
  endfacet
  facet normal -0 0 1
    outer loop
      vertex 2.95293 -28.0952 -1.25
      vertex -14.125 -24.4652 -1.25
      vertex -2.95293 -28.0952 -1.25
    endloop
  endfacet
  facet normal 0 0 1
    outer loop
      vertex 14.125 -24.4652 -1.25
      vertex -14.125 -24.4652 -1.25
      vertex 8.72973 -26.8673 -1.25
    endloop
  endfacet
  facet normal 0 0 1
    outer loop
      vertex 16.8299 -22.5 -1.25
      vertex -14.125 -24.4652 -1.25
      vertex 14.125 -24.4652 -1.25
    endloop
  endfacet
  facet normal 0 0 1
    outer loop
      vertex -16.8299 -22.5 -1.25
      vertex -14.125 -24.4652 -1.25
      vertex 16.8299 -22.5 -1.25
    endloop
  endfacet
  facet normal 1 0 -0
    outer loop
      vertex 22 -22.5 1.25
      vertex 22 -22.5 -1.25
      vertex 22 -17.5542 -1.25
    endloop
  endfacet
  facet normal 1 0 -0
    outer loop
      vertex 22 -17.6875 1.25
      vertex 22 -22.5 1.25
      vertex 22 -14.25 -1.25
    endloop
  endfacet
  facet normal 1 -0 0
    outer loop
      vertex 22 -14.25 -1.25
      vertex 22 -22.5 1.25
      vertex 22 -17.5542 -1.25
    endloop
  endfacet
  facet normal 1 0 0
    outer loop
      vertex 22 -12.3125 3
      vertex 22 -14.25 2
      vertex 22 -12.3125 2
    endloop
  endfacet
  facet normal 1 0 0
    outer loop
      vertex 22 -14.25 2
      vertex 22 -17.6875 1.25
      vertex 22 -14.25 -1.25
    endloop
  endfacet
  facet normal 1 0 0
    outer loop
      vertex 22 -17.6875 3
      vertex 22 -14.25 2
      vertex 22 -12.3125 3
    endloop
  endfacet
  facet normal 1 0 -0
    outer loop
      vertex 22 -17.6875 3
      vertex 22 -17.6875 1.25
      vertex 22 -14.25 2
    endloop
  endfacet
  facet normal 0 0 1
    outer loop
      vertex 22.8547 -16.6049 -1.25
      vertex 24.2144 -14.25 -1.25
      vertex 22 -14.25 -1.25
    endloop
  endfacet
  facet normal 0 0 1
    outer loop
      vertex 22 -17.5542 -1.25
      vertex 22.8547 -16.6049 -1.25
      vertex 22 -14.25 -1.25
    endloop
  endfacet
  facet normal 0 -1 0
    outer loop
      vertex 22 -14.25 2
      vertex 22 -14.25 -1.25
      vertex 24.2144 -14.25 -1.25
    endloop
  endfacet
  facet normal 0 -1 0
    outer loop
      vertex 24.5014 -14.25 2
      vertex 22 -14.25 2
      vertex 24.2144 -14.25 -1.25
    endloop
  endfacet
  facet normal -0 -1 -0
    outer loop
      vertex 24.2144 -14.25 -4
      vertex 24.5014 -14.25 -4
      vertex 24.2144 -14.25 -1.25
    endloop
  endfacet
  facet normal 0 -1 0
    outer loop
      vertex 24.5014 -14.25 -4
      vertex 24.5014 -14.25 2
      vertex 24.2144 -14.25 -1.25
    endloop
  endfacet
  facet normal -0 0 -1
    outer loop
      vertex 24.2144 -14.25 -4
      vertex 25.8077 -11.4903 -4
      vertex 24.5014 -14.25 -4
    endloop
  endfacet
  facet normal 0 -0 -1
    outer loop
      vertex 26.036 -11.592 -4
      vertex 25.8077 -11.4903 -4
      vertex 27.8772 -5.92548 -4
    endloop
  endfacet
  facet normal 0 -0 -1
    outer loop
      vertex 27.8772 -5.92548 -4
      vertex 27.6327 -5.8735 -4
      vertex 28.5 0 -4
    endloop
  endfacet
  facet normal 0 0 -1
    outer loop
      vertex 28.5 0 -4
      vertex 28.25 0 -4
      vertex 27.8772 5.92548 -4
    endloop
  endfacet
  facet normal 0 0 -1
    outer loop
      vertex 26.2096 11.0577 -4
      vertex 27.6327 5.8735 -4
      vertex 26.1177 10.5362 -4
    endloop
  endfacet
  facet normal 0 0 -1
    outer loop
      vertex 27.8772 5.92548 -4
      vertex 27.6327 5.8735 -4
      vertex 26.2096 11.0577 -4
    endloop
  endfacet
  facet normal 0 0 -1
    outer loop
      vertex 28.25 0 -4
      vertex 27.6327 5.8735 -4
      vertex 27.8772 5.92548 -4
    endloop
  endfacet
  facet normal 0 0 -1
    outer loop
      vertex 27.6327 -5.8735 -4
      vertex 28.25 0 -4
      vertex 28.5 0 -4
    endloop
  endfacet
  facet normal 0 0 -1
    outer loop
      vertex 25.8077 -11.4903 -4
      vertex 27.6327 -5.8735 -4
      vertex 27.8772 -5.92548 -4
    endloop
  endfacet
  facet normal 0 0 -1
    outer loop
      vertex 24.5014 -14.25 -4
      vertex 25.8077 -11.4903 -4
      vertex 26.036 -11.592 -4
    endloop
  endfacet
  facet normal 0 -0 1
    outer loop
      vertex 22 -12.3125 2
      vertex 22 -14.25 2
      vertex 24.5014 -14.25 2
    endloop
  endfacet
  facet normal 0 0 1
    outer loop
      vertex 27.8772 -5.92548 2
      vertex 22 -12.3125 2
      vertex 26.036 -11.592 2
    endloop
  endfacet
  facet normal 0 0 1
    outer loop
      vertex 26.036 -11.592 2
      vertex 22 -12.3125 2
      vertex 24.5014 -14.25 2
    endloop
  endfacet
  facet normal 0 0 1
    outer loop
      vertex 28.5 0 2
      vertex 22 -12.3125 2
      vertex 27.8772 -5.92548 2
    endloop
  endfacet
  facet normal 0 -0 1
    outer loop
      vertex 27.8772 5.92548 2
      vertex 22 -12.3125 2
      vertex 28.5 0 2
    endloop
  endfacet
  facet normal 0 -0 1
    outer loop
      vertex 22.5042 -9.95663 2
      vertex 22 -12.3125 2
      vertex 27.8772 5.92548 2
    endloop
  endfacet
  facet normal 0 -0 1
    outer loop
      vertex 26.2096 11.0577 2
      vertex 22.5042 -9.95663 2
      vertex 27.8772 5.92548 2
    endloop
  endfacet
  facet normal -0 0 1
    outer loop
      vertex 22.5042 -9.95663 2
      vertex 22 -9.86771 2
      vertex 22 -12.3125 2
    endloop
  endfacet
  facet normal 0.951057 0.309017 0
    outer loop
      vertex 27.8772 5.92548 -4
      vertex 26.2096 11.0577 -4
      vertex 26.2096 11.0577 2
    endloop
  endfacet
  facet normal 0.951057 0.309017 -0
    outer loop
      vertex 27.8772 5.92548 2
      vertex 27.8772 5.92548 -4
      vertex 26.2096 11.0577 2
    endloop
  endfacet
  facet normal -1 0 0
    outer loop
      vertex 22 -9.86771 2
      vertex 22 -9.86771 1.25
      vertex 22 -12.3125 2
    endloop
  endfacet
  facet normal -1 0 0
    outer loop
      vertex 22 -12.3125 2
      vertex 22 -9.86771 1.25
      vertex 22 -12.3125 1.25
    endloop
  endfacet
  facet normal 0 -0 1
    outer loop
      vertex 20.125 14.6125 1.25
      vertex 20.125 -12.3125 1.25
      vertex 22 -12.3125 1.25
    endloop
  endfacet
  facet normal 0 0 1
    outer loop
      vertex 22 14.6125 1.25
      vertex 20.125 14.6125 1.25
      vertex 22 -9.86771 1.25
    endloop
  endfacet
  facet normal -0 0 1
    outer loop
      vertex 22 -9.86771 1.25
      vertex 20.125 14.6125 1.25
      vertex 22 -12.3125 1.25
    endloop
  endfacet
  facet normal 1 0 -0
    outer loop
      vertex 22 -9.86771 1.25
      vertex 22 -9.86771 -1.25
      vertex 22 4.45995 -1.25
    endloop
  endfacet
  facet normal 1 -0 0
    outer loop
      vertex 22 20.5 -1.25
      vertex 22 -9.86771 1.25
      vertex 22 17.5542 -1.25
    endloop
  endfacet
  facet normal 1 -0 0
    outer loop
      vertex 22 17.5542 -1.25
      vertex 22 -9.86771 1.25
      vertex 22 4.45995 -1.25
    endloop
  endfacet
  facet normal 1 0 -0
    outer loop
      vertex 22 19.9875 1.25
      vertex 22 14.6125 1.25
      vertex 22 20.5 -1.25
    endloop
  endfacet
  facet normal 1 0 -0
    outer loop
      vertex 22 14.6125 1.25
      vertex 22 -9.86771 1.25
      vertex 22 20.5 -1.25
    endloop
  endfacet
  facet normal 1 0 0
    outer loop
      vertex 22 20.5 1.25
      vertex 22 19.9875 1.25
      vertex 22 20.5 -1.25
    endloop
  endfacet
  facet normal 1 0 0
    outer loop
      vertex 22 19.9875 3
      vertex 22 14.6125 1.25
      vertex 22 19.9875 1.25
    endloop
  endfacet
  facet normal 1 0 -0
    outer loop
      vertex 22 14.6125 3
      vertex 22 14.6125 1.25
      vertex 22 19.9875 3
    endloop
  endfacet
  facet normal 0 0 1
    outer loop
      vertex 23.8404 14.8976 -1.25
      vertex 22.8547 16.6049 -1.25
      vertex 22 17.5542 -1.25
    endloop
  endfacet
  facet normal 0 0 1
    outer loop
      vertex 22 4.45995 -1.25
      vertex 23.8404 14.8976 -1.25
      vertex 22 17.5542 -1.25
    endloop
  endfacet
  facet normal 1 0 0
    outer loop
      vertex -18 19.9875 1
      vertex -18 19.9875 3
      vertex -18 14.6125 3
    endloop
  endfacet
  facet normal 1 0 0
    outer loop
      vertex -18 14.6125 1
      vertex -18 19.9875 1
      vertex -18 14.6125 3
    endloop
  endfacet
  facet normal 1 0 0
    outer loop
      vertex -18 -12.3125 1
      vertex -18 -12.3125 3
      vertex -18 -17.6875 3
    endloop
  endfacet
  facet normal 1 0 0
    outer loop
      vertex -18 -17.6875 1
      vertex -18 -12.3125 1
      vertex -18 -17.6875 3
    endloop
  endfacet
  facet normal 0 -1 0
    outer loop
      vertex 18 -17.6875 3
      vertex 18 -17.6875 1
      vertex 20.125 -17.6875 1
    endloop
  endfacet
  facet normal 0 -1 0
    outer loop
      vertex 22 -17.6875 1.25
      vertex 18 -17.6875 3
      vertex 20.125 -17.6875 1.25
    endloop
  endfacet
  facet normal 0 -1 0
    outer loop
      vertex 20.125 -17.6875 1.25
      vertex 18 -17.6875 3
      vertex 20.125 -17.6875 1
    endloop
  endfacet
  facet normal 0 -1 0
    outer loop
      vertex 22 -17.6875 3
      vertex 18 -17.6875 3
      vertex 22 -17.6875 1.25
    endloop
  endfacet
  facet normal 0 1 0
    outer loop
      vertex 20.125 20.5 -1.25
      vertex 20.125 20.5 1.25
      vertex 22 20.5 -1.25
    endloop
  endfacet
  facet normal 0 1 0
    outer loop
      vertex 22 20.5 -1.25
      vertex 20.125 20.5 1.25
      vertex 22 20.5 1.25
    endloop
  endfacet
  facet normal 0 -0 1
    outer loop
      vertex 20.125 20.5 1.25
      vertex 20.125 19.9875 1.25
      vertex 22 19.9875 1.25
    endloop
  endfacet
  facet normal 0 0 1
    outer loop
      vertex 22 20.5 1.25
      vertex 20.125 20.5 1.25
      vertex 22 19.9875 1.25
    endloop
  endfacet
  facet normal 0 1 0
    outer loop
      vertex 18 19.9875 1
      vertex 18 19.9875 3
      vertex 20.125 19.9875 1
    endloop
  endfacet
  facet normal 0 1 0
    outer loop
      vertex 20.125 19.9875 1.25
      vertex 18 19.9875 3
      vertex 22 19.9875 3
    endloop
  endfacet
  facet normal 0 1 0
    outer loop
      vertex 20.125 19.9875 1
      vertex 18 19.9875 3
      vertex 20.125 19.9875 1.25
    endloop
  endfacet
  facet normal 0 1 0
    outer loop
      vertex 20.125 19.9875 1.25
      vertex 22 19.9875 3
      vertex 22 19.9875 1.25
    endloop
  endfacet
  facet normal -0 -0 -1
    outer loop
      vertex 18 14.6125 1
      vertex 18 19.9875 1
      vertex 20.125 14.6125 1
    endloop
  endfacet
  facet normal 0 0 -1
    outer loop
      vertex 20.125 14.6125 1
      vertex 18 19.9875 1
      vertex 20.125 19.9875 1
    endloop
  endfacet
  facet normal 0 -1 0
    outer loop
      vertex 18 14.6125 3
      vertex 18 14.6125 1
      vertex 20.125 14.6125 1
    endloop
  endfacet
  facet normal 0 -1 0
    outer loop
      vertex 22 14.6125 1.25
      vertex 18 14.6125 3
      vertex 20.125 14.6125 1.25
    endloop
  endfacet
  facet normal 0 -1 0
    outer loop
      vertex 20.125 14.6125 1.25
      vertex 18 14.6125 3
      vertex 20.125 14.6125 1
    endloop
  endfacet
  facet normal 0 -1 0
    outer loop
      vertex 22 14.6125 3
      vertex 18 14.6125 3
      vertex 22 14.6125 1.25
    endloop
  endfacet
  facet normal 0 1 0
    outer loop
      vertex 18 -12.3125 1
      vertex 18 -12.3125 3
      vertex 20.125 -12.3125 1
    endloop
  endfacet
  facet normal 0 1 0
    outer loop
      vertex 20.125 -12.3125 1.25
      vertex 18 -12.3125 3
      vertex 22 -12.3125 3
    endloop
  endfacet
  facet normal 0 1 0
    outer loop
      vertex 20.125 -12.3125 1
      vertex 18 -12.3125 3
      vertex 20.125 -12.3125 1.25
    endloop
  endfacet
  facet normal 0 1 0
    outer loop
      vertex 20.125 -12.3125 1.25
      vertex 22 -12.3125 3
      vertex 22 -12.3125 2
    endloop
  endfacet
  facet normal 0 1 0
    outer loop
      vertex 20.125 -12.3125 1.25
      vertex 22 -12.3125 2
      vertex 22 -12.3125 1.25
    endloop
  endfacet
  facet normal -0 -0 -1
    outer loop
      vertex 18 -17.6875 1
      vertex 18 -12.3125 1
      vertex 20.125 -17.6875 1
    endloop
  endfacet
  facet normal 0 0 -1
    outer loop
      vertex 20.125 -17.6875 1
      vertex 18 -12.3125 1
      vertex 20.125 -12.3125 1
    endloop
  endfacet
  facet normal 0 -0 1
    outer loop
      vertex 18 -12.3125 3
      vertex 18 -17.6875 3
      vertex 22 -17.6875 3
    endloop
  endfacet
  facet normal 0 0 1
    outer loop
      vertex 22 -12.3125 3
      vertex 18 -12.3125 3
      vertex 22 -17.6875 3
    endloop
  endfacet
  facet normal 0.866025 -0.5 0
    outer loop
      vertex 24.5014 -14.25 2
      vertex 24.5014 -14.25 -4
      vertex 26.036 -11.592 -4
    endloop
  endfacet
  facet normal 0.866025 -0.5 0
    outer loop
      vertex 26.036 -11.592 2
      vertex 24.5014 -14.25 2
      vertex 26.036 -11.592 -4
    endloop
  endfacet
  facet normal 0.951057 -0.309017 0
    outer loop
      vertex 26.036 -11.592 2
      vertex 26.036 -11.592 -4
      vertex 27.8772 -5.92548 -4
    endloop
  endfacet
  facet normal 0.951057 -0.309017 0
    outer loop
      vertex 27.8772 -5.92548 2
      vertex 26.036 -11.592 2
      vertex 27.8772 -5.92548 -4
    endloop
  endfacet
  facet normal 0.994522 -0.104528 0
    outer loop
      vertex 27.8772 -5.92548 2
      vertex 27.8772 -5.92548 -4
      vertex 28.5 0 -4
    endloop
  endfacet
  facet normal 0.994522 -0.104528 0
    outer loop
      vertex 28.5 0 2
      vertex 27.8772 -5.92548 2
      vertex 28.5 0 -4
    endloop
  endfacet
  facet normal 0.994522 0.104528 0
    outer loop
      vertex 28.5 0 -4
      vertex 27.8772 5.92548 -4
      vertex 27.8772 5.92548 2
    endloop
  endfacet
  facet normal 0.994522 0.104528 -0
    outer loop
      vertex 28.5 0 2
      vertex 28.5 0 -4
      vertex 27.8772 5.92548 2
    endloop
  endfacet
  facet normal 0 -0 1
    outer loop
      vertex 18 19.9875 3
      vertex 18 14.6125 3
      vertex 22 14.6125 3
    endloop
  endfacet
  facet normal 0 0 1
    outer loop
      vertex 22 19.9875 3
      vertex 18 19.9875 3
      vertex 22 14.6125 3
    endloop
  endfacet
  facet normal -1 0 0
    outer loop
      vertex 18 -12.3125 3
      vertex 18 -12.3125 1
      vertex 18 -17.6875 3
    endloop
  endfacet
  facet normal -1 0 0
    outer loop
      vertex 18 -17.6875 3
      vertex 18 -12.3125 1
      vertex 18 -17.6875 1
    endloop
  endfacet
  facet normal -1 0 0
    outer loop
      vertex 18 19.9875 3
      vertex 18 19.9875 1
      vertex 18 14.6125 3
    endloop
  endfacet
  facet normal -1 0 0
    outer loop
      vertex 18 14.6125 3
      vertex 18 19.9875 1
      vertex 18 14.6125 1
    endloop
  endfacet
endsolid OpenSCAD_Model
