solid OpenSCAD_Model
  facet normal -0.866025 0.5 0
    outer loop
      vertex -17.3205 0 80
      vertex 0 30 80
      vertex -17.3205 0 0
    endloop
  endfacet
  facet normal -0.866025 0.5 0
    outer loop
      vertex -17.3205 0 0
      vertex 0 30 80
      vertex 0 30 0
    endloop
  endfacet
  facet normal 0 0 -1
    outer loop
      vertex -17.3205 0 0
      vertex 0 30 0
      vertex 17.3205 0 0
    endloop
  endfacet
  facet normal 0.866025 0.5 0
    outer loop
      vertex 0 30 0
      vertex 0 30 80
      vertex 17.3205 0 80
    endloop
  endfacet
  facet normal 0.866025 0.5 0
    outer loop
      vertex 17.3205 0 0
      vertex 0 30 0
      vertex 17.3205 0 80
    endloop
  endfacet
  facet normal 0 -1 0
    outer loop
      vertex -17.3205 0 0
      vertex 17.3205 0 0
      vertex 17.3205 0 80
    endloop
  endfacet
  facet normal 0 -1 0
    outer loop
      vertex -17.3205 0 80
      vertex -17.3205 0 0
      vertex 17.3205 0 80
    endloop
  endfacet
  facet normal 0 0 1
    outer loop
      vertex -17.3205 0 80
      vertex 17.3205 0 80
      vertex 0 30 80
    endloop
  endfacet
endsolid OpenSCAD_Model
