solid OpenSCAD_Model
  facet normal -1 0 0
    outer loop
      vertex -47.5 -47.5 -5
      vertex -47.5 -47.5 5
      vertex -47.5 47.5 -5
    endloop
  endfacet
  facet normal -1 0 0
    outer loop
      vertex -47.5 47.5 -5
      vertex -47.5 -47.5 5
      vertex -47.5 47.5 5
    endloop
  endfacet
  facet normal 0 -1 0
    outer loop
      vertex -47.5 -47.5 5
      vertex -47.5 -47.5 -5
      vertex 47.5 -47.5 -5
    endloop
  endfacet
  facet normal 0 -1 0
    outer loop
      vertex 47.5 -47.5 5
      vertex -47.5 -47.5 5
      vertex 47.5 -47.5 -5
    endloop
  endfacet
  facet normal 0 0 -1
    outer loop
      vertex -46.5 -46.5 -5
      vertex 46.5 -46.5 -5
      vertex 47.5 -47.5 -5
    endloop
  endfacet
  facet normal 0 0 -1
    outer loop
      vertex -46.5 46.5 -5
      vertex -47.5 47.5 -5
      vertex 47.5 47.5 -5
    endloop
  endfacet
  facet normal 0 0 -1
    outer loop
      vertex -47.5 -47.5 -5
      vertex -47.5 47.5 -5
      vertex -46.5 46.5 -5
    endloop
  endfacet
  facet normal 0 0 -1
    outer loop
      vertex 46.5 46.5 -5
      vertex -46.5 46.5 -5
      vertex 47.5 47.5 -5
    endloop
  endfacet
  facet normal 0 0 -1
    outer loop
      vertex -47.5 -47.5 -5
      vertex -46.5 46.5 -5
      vertex -46.5 -46.5 -5
    endloop
  endfacet
  facet normal 0 0 -1
    outer loop
      vertex -47.5 -47.5 -5
      vertex -46.5 -46.5 -5
      vertex 47.5 -47.5 -5
    endloop
  endfacet
  facet normal 0 0 -1
    outer loop
      vertex 47.5 -47.5 -5
      vertex 46.5 -46.5 -5
      vertex 47.5 47.5 -5
    endloop
  endfacet
  facet normal 0 0 -1
    outer loop
      vertex 46.5 -46.5 -5
      vertex 46.5 46.5 -5
      vertex 47.5 47.5 -5
    endloop
  endfacet
  facet normal 0 1 0
    outer loop
      vertex -47.5 47.5 -5
      vertex -47.5 47.5 5
      vertex 47.5 47.5 -5
    endloop
  endfacet
  facet normal 0 1 0
    outer loop
      vertex 47.5 47.5 -5
      vertex -47.5 47.5 5
      vertex 47.5 47.5 5
    endloop
  endfacet
  facet normal 0 0 1
    outer loop
      vertex -46.5 -46.5 5
      vertex -47.5 -47.5 5
      vertex 47.5 -47.5 5
    endloop
  endfacet
  facet normal 0 0 1
    outer loop
      vertex -46.5 46.5 5
      vertex -47.5 47.5 5
      vertex -46.5 -46.5 5
    endloop
  endfacet
  facet normal 0 0 1
    outer loop
      vertex 46.5 -46.5 5
      vertex -46.5 -46.5 5
      vertex 47.5 -47.5 5
    endloop
  endfacet
  facet normal 0 0 1
    outer loop
      vertex -47.5 47.5 5
      vertex -47.5 -47.5 5
      vertex -46.5 -46.5 5
    endloop
  endfacet
  facet normal 0 0 1
    outer loop
      vertex 47.5 47.5 5
      vertex -47.5 47.5 5
      vertex -46.5 46.5 5
    endloop
  endfacet
  facet normal 0 0 1
    outer loop
      vertex 47.5 47.5 5
      vertex 46.5 46.5 5
      vertex 47.5 -47.5 5
    endloop
  endfacet
  facet normal 0 0 1
    outer loop
      vertex 47.5 47.5 5
      vertex -46.5 46.5 5
      vertex 46.5 46.5 5
    endloop
  endfacet
  facet normal 0 0 1
    outer loop
      vertex 46.5 46.5 5
      vertex 46.5 -46.5 5
      vertex 47.5 -47.5 5
    endloop
  endfacet
  facet normal 1 0 0
    outer loop
      vertex 47.5 -47.5 5
      vertex 47.5 -47.5 -5
      vertex 47.5 47.5 -5
    endloop
  endfacet
  facet normal 1 0 0
    outer loop
      vertex 47.5 47.5 5
      vertex 47.5 -47.5 5
      vertex 47.5 47.5 -5
    endloop
  endfacet
  facet normal 1 0 0
    outer loop
      vertex -46.5 46.5 -5
      vertex -46.5 46.5 5
      vertex -46.5 -46.5 5
    endloop
  endfacet
  facet normal 1 0 0
    outer loop
      vertex -46.5 -46.5 -5
      vertex -46.5 46.5 -5
      vertex -46.5 -46.5 5
    endloop
  endfacet
  facet normal 0 -1 0
    outer loop
      vertex 46.5 46.5 -5
      vertex 46.5 46.5 5
      vertex -46.5 46.5 5
    endloop
  endfacet
  facet normal 0 -1 0
    outer loop
      vertex -46.5 46.5 -5
      vertex 46.5 46.5 -5
      vertex -46.5 46.5 5
    endloop
  endfacet
  facet normal -1 0 0
    outer loop
      vertex 46.5 46.5 5
      vertex 46.5 46.5 -5
      vertex 46.5 -46.5 5
    endloop
  endfacet
  facet normal -1 0 0
    outer loop
      vertex 46.5 -46.5 5
      vertex 46.5 46.5 -5
      vertex 46.5 -46.5 -5
    endloop
  endfacet
  facet normal 0 1 0
    outer loop
      vertex 46.5 -46.5 5
      vertex 46.5 -46.5 -5
      vertex -46.5 -46.5 5
    endloop
  endfacet
  facet normal 0 1 0
    outer loop
      vertex -46.5 -46.5 5
      vertex 46.5 -46.5 -5
      vertex -46.5 -46.5 -5
    endloop
  endfacet
endsolid OpenSCAD_Model
