999
dxflib 2.0.4.8
  0
SECTION
  2
HEADER
  9
$ACADVER
  1
AC1015
  9
$HANDSEED
  5
FFFF
  9
$USERR4
 40
0.0
  9
$DIMTAD
 70
0
  9
$VISRETAIN
 70
1
  9
$TILEMODE
 70
1
  9
$SHADEDIF
 70
70
  9
$USERR5
 40
0.0
  9
$UCSYDIR
 10
0.0
 20
1.0
 30
0.0
  9
$ATTREQ
 70
1
  9
$CHAMFERA
 40
0.5
  9
$MENU
  1
.
  9
$CLAYER
  8
0
  9
$UCSXDIR
 10
1.0
 20
0.0
 30
0.0
  9
$CHAMFERB
 40
0.5
  9
$DIMASZ
 40
0.18
  9
$TRACEWID
 40
0.05
  9
$REGENMODE
 70
1
  9
$ORTHOMODE
 70
0
  9
$EXTMIN
 10
-50.385092581843537
 20
-12.62740886928254
 30
0.0
  9
$PUCSYDIR
 10
0.0
 20
1.0
 30
0.0
  9
$ANGBASE
 50
0.0
  9
$USRTIMER
 70
1
  9
$SKETCHINC
 40
0.1
  9
$DIMGAP
 40
0.09
  9
$DIMTFAC
 40
1.0
  9
$DIMSAH
 70
0
  9
$DIMALT
 70
0
  9
$DIMSHO
 70
1
  9
$PUCSXDIR
 10
1.0
 20
0.0
 30
0.0
  9
$SURFTYPE
 70
6
  9
$SPLFRAME
 70
0
  9
$DIMTSZ
 40
0.0
  9
$LIMMIN
 10
0.0
 20
0.0
  9
$SURFTAB1
 70
6
  9
$SPLINESEGS
 70
8
  9
$AUPREC
 70
0
  9
$LUNITS
 70
2
  9
$DWGCODEPAGE
  3
ansi_1252
  9
$UNITMODE
 70
0
  9
$USERI1
 70
0
  9
$SURFTAB2
 70
6
  9
$SKPOLY
 70
0
  9
$ELEVATION
 40
0.0
  9
$DIMCEN
 40
0.09
  9
$DIMRND
 40
0.0
  9
$INSBASE
 10
0.0
 20
0.0
 30
0.0
  9
$USERI2
 70
0
  9
$UCSORG
 10
0.0
 20
0.0
 30
0.0
  9
$PELEVATION
 40
0.0
  9
$DIMEXO
 40
0.0625
  9
$TEXTSIZE
 40
0.2
  9
$DRAGMODE
 70
2
  9
$FILLMODE
 70
1
  9
$EXTMAX
 10
56.585246401207392
 20
15.95309960529373
 30
0.0
  9
$INSUNITS
 70
4
  9
$USERI3
 70
0
  9
$SURFU
 70
6
  9
$ANGDIR
 70
0
  9
$TDUSRTIMER
 40
0.0000000116
  9
$DIMZIN
 70
0
  9
$DIMDLE
 40
0.0
  9
$DIMSCALE
 40
1.0
  9
$WORLDVIEW
 70
1
  9
$USERI4
 70
0
  9
$SURFV
 70
6
  9
$OSMODE
 70
37
  9
$QTEXTMODE
 70
0
  9
$LIMMAX
 10
12.0
 20
9.0
  9
$USERI5
 70
0
  9
$HANDLING
 70
1
  9
$PDMODE
 70
0
  9
$LIMCHECK
 70
0
  9
$THICKNESS
 40
0.0
  9
$DIMSE1
 70
0
  9
$DIMLIM
 70
0
  9
$DIMTXT
 40
0.18
  9
$ATTMODE
 70
1
  9
$PEXTMAX
 10
-100000000000000000000.0
 20
-100000000000000000000.0
 30
-100000000000000000000.0
  9
$PEXTMIN
 10
100000000000000000000.0
 20
100000000000000000000.0
 30
100000000000000000000.0
  9
$PUCSORG
 10
0.0
 20
0.0
 30
0.0
  9
$SPLINETYPE
 70
6
  9
$TDINDWG
 40
0.0000000116
  9
$LUPREC
 70
4
  9
$DIMSOXD
 70
0
  9
$DIMLFAC
 40
1.0
  9
$DIMSE2
 70
0
  9
$DIMTOH
 70
1
  9
$CELTYPE
  6
BYLAYER
  9
$PLIMCHECK
 70
0
  9
$PLINEWID
 40
0.0
  9
$DIMSTYLE
  2
STANDARD
  9
$DIMTVP
 40
0.0
  9
$DIMASO
 70
1
  9
$DIMTM
 40
0.0
  9
$DIMDLI
 40
0.38
  9
$CECOLOR
 62
256
  9
$PLIMMAX
 10
12.0
 20
9.0
  9
$PLIMMIN
 10
0.0
 20
0.0
  9
$MAXACTVP
 70
64
  9
$TDUPDATE
 40
2456277.695036991
  9
$FILLETRAD
 40
0.5
  9
$DIMCLRT
 70
0
  9
$DIMALTD
 70
2
  9
$DIMTIH
 70
1
  9
$LTSCALE
 40
1.0
  9
$USERR1
 40
0.0
  9
$ATTDIA
 70
0
  9
$PDSIZE
 40
0.0
  9
$DIMCLRD
 70
0
  9
$DIMEXE
 40
0.18
  9
$PSLTSCALE
 70
1
  9
$PLINEGEN
 70
0
  9
$SHADEDGE
 70
3
  9
$USERR2
 40
0.0
  9
$COORDS
 70
1
  9
$TDCREATE
 40
2454910.5
  9
$DIMCLRE
 70
0
  9
$DIMTOFL
 70
0
  9
$DIMALTF
 40
25.399999999999999
  9
$DIMTOL
 70
0
  9
$DIMTP
 40
0.0
  9
$TEXTSTYLE
  7
STANDARD
  9
$USERR3
 40
0.0
  9
$AUNITS
 70
0
  9
$DIMTIX
 70
0
  9
$MIRRTEXT
 70
1
  0
ENDSEC
  0
SECTION
  2
TABLES
  0
TABLE
  2
VPORT
  5
8
100
AcDbSymbolTable
 70
1
  0
VPORT
  5
30
100
AcDbSymbolTableRecord
100
AcDbViewportTableRecord
  2
*Active
 70
0
 10
0.0
 20
0.0
 11
1.0
 21
1.0
 12
286.30555555555549
 22
148.5
 13
0.0
 23
0.0
 14
10.0
 24
10.0
 15
10.0
 25
10.0
 16
0.0
 26
0.0
 36
1.0
 17
0.0
 27
0.0
 37
0.0
 40
297.0
 41
1.92798353909465
 42
50.0
 43
0.0
 44
0.0
 50
0.0
 51
0.0
 71
0
 72
100
 73
1
 74
3
 75
1
 76
1
 77
0
 78
0
281
0
 65
1
110
0.0
120
0.0
130
0.0
111
1.0
121
0.0
131
0.0
112
0.0
122
1.0
132
0.0
 79
0
146
0.0
  0
ENDTAB
  0
TABLE
  2
LTYPE
  5
5
100
AcDbSymbolTable
 70
21
  0
LTYPE
  5
14
100
AcDbSymbolTableRecord
100
AcDbLinetypeTableRecord
  2
ByBlock
 70
0
  3

 72
65
 73
0
 40
0.0
  0
LTYPE
  5
15
100
AcDbSymbolTableRecord
100
AcDbLinetypeTableRecord
  2
ByLayer
 70
0
  3

 72
65
 73
0
 40
0.0
  0
LTYPE
  5
16
100
AcDbSymbolTableRecord
100
AcDbLinetypeTableRecord
  2
CONTINUOUS
 70
0
  3
Solid line
 72
65
 73
0
 40
0.0
  0
LTYPE
  5
31
100
AcDbSymbolTableRecord
100
AcDbLinetypeTableRecord
  2
DOT
 70
0
  3
Dot . . . . . . . . . . . . . . . . . . . . . .
 72
65
 73
2
 40
6.3499999999999996
 49
0.0
 74
0
 49
-6.3499999999999996
 74
0
  0
LTYPE
  5
32
100
AcDbSymbolTableRecord
100
AcDbLinetypeTableRecord
  2
DOT2
 70
0
  3
Dot (.5x) .....................................
 72
65
 73
2
 40
3.1749999999999998
 49
0.0
 74
0
 49
-3.1749999999999998
 74
0
  0
LTYPE
  5
33
100
AcDbSymbolTableRecord
100
AcDbLinetypeTableRecord
  2
DOTX2
 70
0
  3
Dot (2x) .  .  .  .  .  .  .  .  .  .  .  .  .
 72
65
 73
2
 40
12.699999999999999
 49
0.0
 74
0
 49
-12.699999999999999
 74
0
  0
LTYPE
  5
34
100
AcDbSymbolTableRecord
100
AcDbLinetypeTableRecord
  2
DASHED
 70
0
  3
Dashed __ __ __ __ __ __ __ __ __ __ __ __ __ _
 72
65
 73
2
 40
19.050000000000001
 49
12.699999999999999
 74
0
 49
-6.3499999999999996
 74
0
  0
LTYPE
  5
35
100
AcDbSymbolTableRecord
100
AcDbLinetypeTableRecord
  2
DASHED2
 70
0
  3
Dashed (.5x) _ _ _ _ _ _ _ _ _ _ _ _ _ _ _ _ _
 72
65
 73
2
 40
9.5250000000000004
 49
6.3499999999999996
 74
0
 49
-3.1749999999999998
 74
0
  0
LTYPE
  5
36
100
AcDbSymbolTableRecord
100
AcDbLinetypeTableRecord
  2
DASHEDX2
 70
0
  3
Dashed (2x) ____  ____  ____  ____  ____  ___
 72
65
 73
2
 40
38.100000000000001
 49
25.399999999999999
 74
0
 49
-12.699999999999999
 74
0
  0
LTYPE
  5
37
100
AcDbSymbolTableRecord
100
AcDbLinetypeTableRecord
  2
DASHDOT
 70
0
  3
Dash dot __ . __ . __ . __ . __ . __ . __ . __
 72
65
 73
4
 40
25.399999999999999
 49
12.699999999999999
 74
0
 49
-6.3499999999999996
 74
0
 49
0.0
 74
0
 49
-6.3499999999999996
 74
0
  0
LTYPE
  5
38
100
AcDbSymbolTableRecord
100
AcDbLinetypeTableRecord
  2
DASHDOT2
 70
0
  3
Dash dot (.5x) _._._._._._._._._._._._._._._.
 72
65
 73
4
 40
12.699999999999999
 49
6.3499999999999996
 74
0
 49
-3.1749999999999998
 74
0
 49
0.0
 74
0
 49
-3.1749999999999998
 74
0
  0
LTYPE
  5
39
100
AcDbSymbolTableRecord
100
AcDbLinetypeTableRecord
  2
DASHDOTX2
 70
0
  3
Dash dot (2x) ____  .  ____  .  ____  .  ___
 72
65
 73
4
 40
50.799999999999997
 49
25.399999999999999
 74
0
 49
-12.699999999999999
 74
0
 49
0.0
 74
0
 49
-12.699999999999999
 74
0
  0
LTYPE
  5
3A
100
AcDbSymbolTableRecord
100
AcDbLinetypeTableRecord
  2
DIVIDE
 70
0
  3
Divide ____ . . ____ . . ____ . . ____ . . ____
 72
65
 73
6
 40
31.75
 49
12.699999999999999
 74
0
 49
-6.3499999999999996
 74
0
 49
0.0
 74
0
 49
-6.3499999999999996
 74
0
 49
0.0
 74
0
 49
-6.3499999999999996
 74
0
  0
LTYPE
  5
3B
100
AcDbSymbolTableRecord
100
AcDbLinetypeTableRecord
  2
DIVIDE2
 70
0
  3
Divide (.5x) __..__..__..__..__..__..__..__.._
 72
65
 73
6
 40
15.875
 49
6.3499999999999996
 74
0
 49
-3.1749999999999998
 74
0
 49
0.0
 74
0
 49
-3.1749999999999998
 74
0
 49
0.0
 74
0
 49
-3.1749999999999998
 74
0
  0
LTYPE
  5
3C
100
AcDbSymbolTableRecord
100
AcDbLinetypeTableRecord
  2
DIVIDEX2
 70
0
  3
Divide (2x) ________  .  .  ________  .  .  _
 72
65
 73
6
 40
63.5
 49
25.399999999999999
 74
0
 49
-12.699999999999999
 74
0
 49
0.0
 74
0
 49
-12.699999999999999
 74
0
 49
0.0
 74
0
 49
-12.699999999999999
 74
0
  0
LTYPE
  5
3D
100
AcDbSymbolTableRecord
100
AcDbLinetypeTableRecord
  2
CENTER
 70
0
  3
Center ____ _ ____ _ ____ _ ____ _ ____ _ ____
 72
65
 73
4
 40
50.799999999999997
 49
31.75
 74
0
 49
-6.3499999999999996
 74
0
 49
6.3499999999999996
 74
0
 49
-6.3499999999999996
 74
0
  0
LTYPE
  5
3E
100
AcDbSymbolTableRecord
100
AcDbLinetypeTableRecord
  2
CENTER2
 70
0
  3
Center (.5x) ___ _ ___ _ ___ _ ___ _ ___ _ ___
 72
65
 73
4
 40
28.574999999999999
 49
19.050000000000001
 74
0
 49
-3.1749999999999998
 74
0
 49
3.1749999999999998
 74
0
 49
-3.1749999999999998
 74
0
  0
LTYPE
  5
3F
100
AcDbSymbolTableRecord
100
AcDbLinetypeTableRecord
  2
CENTERX2
 70
0
  3
Center (2x) ________  __  ________  __  _____
 72
65
 73
4
 40
101.59999999999999
 49
63.5
 74
0
 49
-12.699999999999999
 74
0
 49
12.699999999999999
 74
0
 49
-12.699999999999999
 74
0
  0
LTYPE
  5
40
100
AcDbSymbolTableRecord
100
AcDbLinetypeTableRecord
  2
BORDER
 70
0
  3
Border __ __ . __ __ . __ __ . __ __ . __ __ .
 72
65
 73
6
 40
44.450000000000003
 49
12.699999999999999
 74
0
 49
-6.3499999999999996
 74
0
 49
12.699999999999999
 74
0
 49
-6.3499999999999996
 74
0
 49
0.0
 74
0
 49
-6.3499999999999996
 74
0
  0
LTYPE
  5
41
100
AcDbSymbolTableRecord
100
AcDbLinetypeTableRecord
  2
BORDER2
 70
0
  3
Border (.5x) __.__.__.__.__.__.__.__.__.__.__.
 72
65
 73
6
 40
22.225000000000001
 49
6.3499999999999996
 74
0
 49
-3.1749999999999998
 74
0
 49
6.3499999999999996
 74
0
 49
-3.1749999999999998
 74
0
 49
0.0
 74
0
 49
-3.1749999999999998
 74
0
  0
LTYPE
  5
42
100
AcDbSymbolTableRecord
100
AcDbLinetypeTableRecord
  2
BORDERX2
 70
0
  3
Border (2x) ____  ____  .  ____  ____  .  ___
 72
65
 73
6
 40
88.900000000000006
 49
25.399999999999999
 74
0
 49
-12.699999999999999
 74
0
 49
25.399999999999999
 74
0
 49
-12.699999999999999
 74
0
 49
0.0
 74
0
 49
-12.699999999999999
 74
0
  0
ENDTAB
  0
TABLE
  2
LAYER
  5
2
100
AcDbSymbolTable
 70
2
  0
LAYER
  5
10
100
AcDbSymbolTableRecord
100
AcDbLayerTableRecord
  2
0
 70
0
 62
7
  6
CONTINUOUS
390
F
  0
LAYER
  5
43
100
AcDbSymbolTableRecord
100
AcDbLayerTableRecord
  2
LAYER_1
 70
0
 62
18
  6
CONTINUOUS
390
F
  0
ENDTAB
  0
TABLE
  2
STYLE
  5
3
100
AcDbSymbolTable
 70
1
  0
STYLE
  5
11
100
AcDbSymbolTableRecord
100
AcDbTextStyleTableRecord
  2
Standard
 70
0
 40
0.0
 41
0.75
 50
0.0
 71
0
 42
2.5
  3
txt
  4

  0
ENDTAB
  0
TABLE
  2
VIEW
  5
6
100
AcDbSymbolTable
 70
0
  0
ENDTAB
  0
TABLE
  2
UCS
  5
7
100
AcDbSymbolTable
 70
0
  0
ENDTAB
  0
TABLE
  2
APPID
  5
9
100
AcDbSymbolTable
 70
1
  0
APPID
  5
12
100
AcDbSymbolTableRecord
100
AcDbRegAppTableRecord
  2
ACAD
 70
0
  0
ENDTAB
  0
TABLE
  2
DIMSTYLE
  5
A
100
AcDbSymbolTable
 70
1
100
AcDbDimStyleTable
 71
0
  0
DIMSTYLE
105
27
100
AcDbSymbolTableRecord
100
AcDbDimStyleTableRecord
  2
Standard
 41
0.18
 42
0.0625
 43
3.75
 44
0.18
 70
0
 73
0
 74
0
 77
1
 78
8
140
0.18
141
2.5
143
0.03937007874016
147
0.09
171
3
172
1
271
2
272
2
274
3
278
44
283
0
284
8
340
11
  0
ENDTAB
  0
TABLE
  2
BLOCK_RECORD
  5
1
100
AcDbSymbolTable
 70
1
  0
BLOCK_RECORD
  5
1F
100
AcDbSymbolTableRecord
100
AcDbBlockTableRecord
  2
*Model_Space
340
22
  0
BLOCK_RECORD
  5
1B
100
AcDbSymbolTableRecord
100
AcDbBlockTableRecord
  2
*Paper_Space
340
1E
  0
BLOCK_RECORD
  5
23
100
AcDbSymbolTableRecord
100
AcDbBlockTableRecord
  2
*Paper_Space0
340
26
  0
ENDTAB
  0
ENDSEC
  0
SECTION
  2
BLOCKS
  0
BLOCK
  5
20
100
AcDbEntity
  8
0
100
AcDbBlockBegin
  2
*Model_Space
 70
0
 10
0.0
 20
0.0
 30
0.0
  3
*Model_Space
  1

  0
ENDBLK
  5
21
100
AcDbEntity
  8
0
100
AcDbBlockEnd
  0
BLOCK
  5
1C
100
AcDbEntity
 67
1
  8
0
100
AcDbBlockBegin
  2
*Paper_Space
 70
0
 10
0.0
 20
0.0
 30
0.0
  3
*Paper_Space
  1

  0
ENDBLK
  5
1D
100
AcDbEntity
 67
1
  8
0
100
AcDbBlockEnd
  0
BLOCK
  5
24
100
AcDbEntity
  8
0
100
AcDbBlockBegin
  2
*Paper_Space0
 70
0
 10
0.0
 20
0.0
 30
0.0
  3
*Paper_Space0
  1

  0
ENDBLK
  5
25
100
AcDbEntity
  8
0
100
AcDbBlockEnd
  0
ENDSEC
  0
SECTION
  2
ENTITIES
  0
LWPOLYLINE
  5
44
  8
LAYER_1
 62
256
370
-1
  6
ByLayer
100
AcDbEntity
100
AcDbPolyline
 90
49
 70
1
 10
39.879737926631122
 20
0.5929301137683103
 10
40.074719388495517
 20
0.6051785247852595
 10
40.278307841885351
 20
0.6419237578361069
 10
40.490503286800603
 20
0.7031658129208526
 10
40.711305723241281
 20
0.7889046900394963
 10
40.932439197817551
 20
0.8938437790225471
 10
41.145627757139579
 20
1.0126864697005129
 10
41.350871401207378
 20
1.1454327620733951
 10
41.548170130020942
 20
1.292082656141192
 10
41.733882524088742
 20
1.4489947324123791
 10
41.904367163919247
 20
1.6125275713954299
 10
42.059624049512472
 20
1.7826811730903449
 10
42.19965318086841
 20
1.9594555374971241
 10
42.315516528326029
 20
2.138216130717463
 10
42.39827606222434
 20
2.314328418853056
 10
42.427241899088742
 20
2.4013914485140728
 10
42.447931782563323
 20
2.4877924019039028
 10
42.460345712648071
 20
2.5735312790225469
 10
42.464483689342977
 20
2.6586080798700049
 10
42.453559430868403
 20
2.8863623171581398
 10
42.420786655444672
 20
3.0929301137683098
 10
42.366165363071786
 20
3.278311469700514
 10
42.289695553749773
 20
3.442506384954751
 10
42.197335913919247
 20
3.5769078680055988
 10
42.147431914978561
 20
3.6297084506327169
 10
42.095045130020942
 20
3.672908927327633
 10
42.040175559046347
 20
3.706509298090344
 10
41.982823202054831
 20
3.7305095629208531
 10
41.922988059046347
 20
3.744909721819158
 10
41.860670130020942
 20
3.7497097747852588
 10
41.641191846122638
 20
3.7391165544462761
 10
41.438265469003987
 20
3.707336893429328
 10
41.251890998665012
 20
3.6543707917344119
 10
41.082068435105697
 20
3.5802182493615309
 10
40.927142587648071
 20
3.4891827620733959
 10
40.785458265614167
 20
3.3855678256327182
 10
40.657015469004001
 20
3.2693734400394971
 10
40.541814197817558
 20
3.1405996052937342
 10
40.438530299512472
 20
3.0009015120733951
 10
40.345839621546368
 20
2.8519343510564461
 10
40.263742163919247
 20
2.6936981222428868
 10
40.192237926631122
 20
2.5261928256327169
 10
40.130002757139593
 20
2.3537219569886489
 10
40.075712502902313
 20
2.1805890120733951
 10
40.029367163919247
 20
2.0067939908869539
 10
39.99096674019043
 20
1.8323368934293269
 10
39.934028180868388
 20
1.488057232412378
 10
39.900924367309067
 20
1.1543707917344119
 10
39.88503453680061
 20
0.8498157069886489
  0
LWPOLYLINE
  5
45
  8
LAYER_1
 62
256
370
-1
  6
ByLayer
100
AcDbEntity
100
AcDbPolyline
 90
45
 70
1
 10
31.447534536800589
 20
8.7497097747852592
 10
31.738517057987039
 20
9.5283114697005153
 10
31.986464621546361
 20
10.24335384258187
 10
32.191377227478569
 20
10.89483689342933
 10
32.353254875783648
 20
11.482760622242891
 10
32.476070024088727
 20
12.00249049512424
 10
32.563795130020942
 20
12.44939197817509
 10
32.616430193580257
 20
12.823465071395431
 10
32.629588959470098
 20
12.983190971819161
 10
32.633975214766707
 20
13.124709774785259
 10
32.630664833410783
 20
13.313401512073391
 10
32.620733689342977
 20
13.47693435105645
 10
32.604181782563323
 20
13.61530829173441
 10
32.581009113071786
 20
13.72852333410729
 10
32.551215680868403
 20
13.81657947817509
 10
32.514801485953143
 20
13.879476723937801
 10
32.471766528326008
 20
13.917215071395431
 10
32.422110807987018
 20
13.92979452054797
 10
32.349116899088727
 20
13.915725399785259
 10
32.267847036800589
 20
13.873518037497121
 10
32.178301221122638
 20
13.803172433683571
 10
32.080479452054838
 20
13.704688588344579
 10
31.974381729597209
 20
13.57806650148018
 10
31.860008053749759
 20
13.423306173090349
 10
31.737358424512468
 20
13.24040760317509
 10
31.606432841885351
 20
13.02937079173441
 10
31.324388350359921
 20
12.52817905444628
 10
31.018509113071779
 20
11.925027571395431
 10
30.688795130020932
 20
11.21991634258187
 10
30.335246401207371
 20
10.4128453680056
 10
30.16178241815653
 20
9.8196250290225464
 10
30.00155996052942
 20
9.2052182493615327
 10
29.855903180868399
 20
8.5815424019039046
 10
29.726136231715859
 20
7.9605148595310196
 10
29.609610807987039
 20
7.3461080798700058
 10
29.503678604597209
 20
6.7422945205479721
 10
29.409663774088742
 20
6.1583432493615309
 10
29.328890469003991
 20
5.6035233341072939
 10
29.244144706292129
 20
4.9765371052937342
 10
29.16999216391925
 20
4.3561716391920404
 10
29.106432841885351
 20
3.7424269358022091
 10
29.05346674019043
 20
3.1353029951242428
 10
29.67846674019043
 20
4.5865741815649201
 10
30.345839621546361
 20
6.1384809612259366
 10
30.965543011376869
 20
7.5897521476666157
  0
LWPOLYLINE
  5
46
  8
LAYER_1
 62
256
370
-1
  6
ByLayer
100
AcDbEntity
100
AcDbPolyline
 90
43
 70
1
 10
17.10431419781753
 20
-9.0574936150452494
 10
17.113583265614139
 20
-9.1687224286045712
 10
17.141390469003991
 20
-9.33291734385881
 10
17.190384113071779
 20
-9.5235953099605037
 10
17.263212502902292
 20
-9.7142732760621975
 10
17.30889576561415
 20
-9.8069639540282978
 10
17.36119979103788
 20
-9.8943580218249068
 10
17.420124579173478
 20
-9.9764554794520279
 10
17.485670130020939
 20
-10.053256326909651
 10
17.55849851985144
 20
-10.118139801485929
 10
17.639271824936181
 20
-10.16448514046898
 10
17.72799004527517
 20
-10.19229234385881
 10
17.824653180868381
 20
-10.201561411655421
 10
17.91072309612262
 20
-10.189313000638469
 10
17.988848096122631
 20
-10.15256776758762
 10
18.059028180868399
 20
-10.091325712502879
 10
18.121263350359921
 20
-10.00558683538423
 10
18.176877757139579
 20
-9.8993235938588064
 10
18.227195553749748
 20
-9.7765084455537234
 10
18.272216740190419
 20
-9.6371413904689778
 10
18.311941316461599
 20
-9.4812224286045712
 10
18.37550063849551
 20
-9.13164615741813
 10
18.41787351985144
 20
-8.7396970048757581
 10
18.470839621546361
 20
-7.8922393777571136
 10
18.488053604597209
 20
-7.4632139540282996
 10
18.49732267239381
 20
-7.0447817506384691
 10
18.506591740190419
 20
-6.6528325980960972
 10
18.523805723241281
 20
-6.303256326909656
 10
18.571475214766711
 20
-5.3339766658927061
 10
18.59795826561415
 20
-4.6719003947062667
 10
18.619144706292101
 20
-4.1740190387740634
 10
18.519171189342959
 20
-4.3557589752147399
 10
18.420521824936181
 20
-4.5514025133503342
 10
18.227195553749741
 20
-4.9844003947062667
 10
18.041814197817541
 20
-5.4544745472486387
 10
17.867026062224308
 20
-5.9430868353842321
 10
17.705479452054831
 20
-6.4409681913164354
 10
17.55982267239381
 20
-6.9388495472486387
 10
17.431379875783652
 20
-7.4195169201299942
 10
17.321475214766711
 20
-7.865756326909656
 10
17.23143284188534
 20
-8.2656503947062649
 10
17.162576909681949
 20
-8.6072817506384709
 10
17.118879875783641
 20
-8.8760847167401629
  0
LWPOLYLINE
  5
47
  8
LAYER_1
 62
256
370
-1
  6
ByLayer
100
AcDbEntity
100
AcDbPolyline
 90
52
 70
1
 10
20.790754875783652
 20
-1.430374970977452
 10
21.097627227478561
 20
-1.266842131994401
 10
21.382651062224319
 20
-1.0940402252147401
 10
21.645826380020921
 20
-0.9119692506384692
 10
21.887153180868381
 20
-0.7206292082655885
 10
22.109610807987021
 20
-0.5213442506384698
 10
22.316178604597191
 20
-0.3154385302994868
 10
22.506856570698879
 20
-0.1029120472486392
 10
22.681644706292101
 20
0.1162351985140733
 10
22.84087404951244
 20
0.3406790544462764
 10
22.984875638495499
 20
0.5690953680055985
 10
23.113649473241271
 20
0.8014841391920391
 10
23.227195553749741
 20
1.0378453680055979
 10
23.32783114697008
 20
1.2775169781750899
 10
23.41787351985144
 20
1.5198368934293269
 10
23.49732267239381
 20
1.7648051137683101
 10
23.566178604597209
 20
2.0124216391920391
 10
23.609875638495499
 20
2.2653347747852601
 10
23.635034536800589
 20
2.5579724866496671
 10
23.63702076561415
 20
2.711905219700514
 10
23.62708962154635
 20
2.861203418853056
 10
23.605241104597191
 20
3.005867084107293
 10
23.571475214766679
 20
3.145896215463226
 10
23.52446779951245
 20
3.278642507836107
 10
23.462894706292111
 20
3.4014576561411922
 10
23.386755935105679
 20
3.5143416603784789
 10
23.296051485953139
 20
3.6172945205479698
 10
23.244657815402299
 20
3.66322606186153
 10
23.18846409188534
 20
3.7030333976666161
 10
23.127470315402299
 20
3.736716527963226
 10
23.061676485953139
 20
3.7642754527513622
 10
22.91568866815653
 20
3.80102068580221
 10
22.75050063849551
 20
3.8132690968191589
 10
22.56048474866499
 20
3.7996965332598371
 10
22.382386231715842
 20
3.75897884258187
 10
22.216205087648039
 20
3.6911160247852601
 10
22.061941316461599
 20
3.5961080798700049
 10
21.918601803749731
 20
3.477927465463226
 10
21.785193435105668
 20
3.34054663919204
 10
21.661716210529409
 20
3.1839656010564461
 10
21.548170130020939
 20
3.0081843510564461
 10
21.444224155444669
 20
2.8141960035988189
 10
21.349547248665001
 20
2.602993673090344
 10
21.264139409681949
 20
2.3745773595310218
 10
21.18800063849551
 20
2.1289470629208531
 10
21.119806782563309
 20
1.8700752408869541
 10
21.058233689342959
 20
1.6019343510564461
 10
21.003281358834489
 20
1.3245243934293269
 10
20.95494979103788
 20
1.0378453680055979
 10
20.87814894358025
 20
0.4433008764801748
 10
20.82783114697008
 20
-0.1750783608079605
 10
20.800023943580261
 20
-0.8040508184350794
  0
LWPOLYLINE
  5
48
  8
LAYER_1
 62
256
370
-1
  6
ByLayer
100
AcDbEntity
100
AcDbPolyline
 90
72
 70
1
 10
11.78651758764804
 20
-2.3519851404689782
 10
11.8762289223938
 20
-2.3462747326299951
 10
11.965278180868379
 20
-2.3291435091130448
 10
12.05366536307177
 20
-2.30059146991813
 10
12.141390469003969
 20
-2.260618615045249
 10
12.22845349866499
 20
-2.2092249444944012
 10
12.31485445205483
 20
-2.1464104582655881
 10
12.40059332917347
 20
-2.0721751563588078
 10
12.485670130020941
 20
-1.986519038774063
 10
12.64986504527516
 20
-1.791868615045249
 10
12.803466740190411
 20
-1.573383445553723
 10
12.94647521476668
 20
-1.331063530299486
 10
13.078890469003969
 20
-1.064908869282537
 10
13.199719388495501
 20
-0.7795539964011806
 10
13.30796885883449
 20
-0.479633445553723
 10
13.403638880020919
 20
-0.1651472167401639
 10
13.486729452054821
 20
0.1639046900394963
 10
13.553930193580239
 20
0.4965980163106828
 10
13.60193072324126
 20
0.8220085035988186
 10
13.63073104103788
 20
1.1401361519039031
 10
13.64033114697008
 20
1.450980961225937
 10
13.635696613071779
 20
1.690321533259836
 10
13.621793011376869
 20
1.9210551137683101
 10
13.59862034188534
 20
2.1431817027513609
 10
13.56617860459721
 20
2.356701300208988
 10
13.52446779951245
 20
2.5589656010564461
 10
13.473487926631099
 20
2.747326300208988
 10
13.413238985953139
 20
2.9217833976666161
 10
13.34372097747857
 20
3.0823368934293272
 10
13.26427182493619
 20
3.227993673090344
 10
13.17422945205483
 20
3.3577606222428868
 10
13.07359385883449
 20
3.4716377408869552
 10
12.96236504527516
 20
3.5696250290225482
 10
12.83988093510567
 20
3.6484121052937351
 10
12.705479452054821
 20
3.7046885883445819
 10
12.559160596122631
 20
3.7384544781750901
 10
12.40092436730907
 20
3.7497097747852588
 10
12.293005935105681
 20
3.7439166074123782
 10
12.186411655444671
 20
3.7265371052937342
 10
12.08114152832602
 20
3.697571268429328
 10
11.97719555374975
 20
3.657019096819158
 10
11.87457373171585
 20
3.604880590463226
 10
11.773276062224321
 20
3.5411557493615309
 10
11.67330254527517
 20
3.4658445735140728
 10
11.574653180868379
 20
3.3789470629208531
 10
11.38463729103788
 20
3.180655219700514
 10
11.206538774088729
 20
2.9565424019039042
 10
11.040357630020941
 20
2.7066086095310231
 10
10.886093858834499
 20
2.43085384258187
 10
10.74573368934297
 20
2.134574711225937
 10
10.62126335035992
 20
1.8230678256327171
 10
10.51268284188534
 20
1.4963331858022091
 10
10.419992163919231
 20
1.1543707917344119
 10
10.34583962154635
 20
0.8081049019039038
 10
10.29287351985144
 20
0.4684597747852596
 10
10.26109385883449
 20
0.1354354103784796
 10
10.25050063849551
 20
-0.1909681913164363
 10
10.255797248665001
 20
-0.4101154370791475
 10
10.27168707917348
 20
-0.6226419201299949
 10
10.298170130020941
 20
-0.8285476404689782
 10
10.335246401207369
 20
-1.0278325980960969
 10
10.38357796900398
 20
-1.2175174497910131
 10
10.44382690968194
 20
-1.394622852333385
 10
10.515993223241271
 20
-1.5591488057232159
 10
10.600076909681951
 20
-1.711095309960504
 10
10.69740212154635
 20
-1.84946925063847
 10
10.809293011376861
 20
-1.973277513350334
 10
10.935749579173461
 20
-2.0825200980960972
 10
11.07677182493617
 20
-2.1771970048757581
 10
11.23235974866499
 20
-2.2536668141977918
 10
11.402513350359911
 20
-2.3082881065706728
 10
11.58723263002093
 20
-2.3410608819944021
  0
LWPOLYLINE
  5
49
  8
LAYER_1
 62
256
370
-1
  6
ByLayer
100
AcDbEntity
100
AcDbPolyline
 90
42
 70
1
 10
5.4941447062921043
 20
11.39801485953102
 10
5.4782548757836196
 20
11.657548757836111
 10
5.4530959774785401
 20
11.796584774785259
 10
5.4093989435802428
 20
11.92767587648018
 10
5.3792744732412583
 20
11.98858689342933
 10
5.3418671639192219
 20
12.044201300208989
 10
5.2971770156141318
 20
12.094519096819161
 10
5.2452040283259862
 20
12.139540283259841
 10
5.1839619732412476
 20
12.17661655444628
 10
5.111464621546336
 20
12.20309960529374
 10
5.0277119732412494
 20
12.218989435802211
 10
4.9327040283259862
 20
12.2242860459717
 10
4.8637653365887026
 20
12.21667216885306
 10
4.7946611257836214
 20
12.19383053749713
 10
4.7253913959107434
 20
12.15576115190391
 10
4.6559561469700661
 20
12.1024640120734
 10
4.5863553789615921
 20
12.0339391180056
 10
4.5165890918853222
 20
11.950186469700521
 10
4.4466572857412547
 20
11.85120606715814
 10
4.3765599605293906
 20
11.736997910378481
 10
4.237523943580241
 20
11.476470897666619
 10
4.1011362317158344
 20
11.18217799512424
 10
3.9673968249361722
 20
10.85411920275136
 10
3.836305723241253
 20
10.49229452054797
 10
3.7085250029022672
 20
10.103986787497121
 10
3.5847167401904021
 20
9.6964788425818682
 10
3.4648809351056582
 20
9.2697706858022091
 10
3.349017587648035
 20
8.8238623171581416
 10
3.130532418156506
 20
7.9260868934293276
 10
2.9305853842581939
 20
7.0547945205479721
 10
3.2483819944276888
 20
7.0177182493615327
 10
3.576771824936174
 20
6.9806419781750897
 10
3.9011891978175259
 20
7.5434068086835637
 10
4.2388480961226094
 20
8.151192825632716
 10
4.5659137740887026
 20
8.7761928256327177
 10
4.8585514859531136
 20
9.3905996052937333
 10
5.1101404690039693
 20
9.979847486649664
 10
5.2180589012073586
 20
10.259574711225939
 10
5.3140599605293906
 20
10.52937079173441
 10
5.3928470368005783
 20
10.782283927327629
 10
5.4491235198514261
 20
11.01136231715814
 10
5.4828894096819347
 20
11.216605961225939
  0
LWPOLYLINE
  5
4A
  8
LAYER_1
 62
256
370
-1
  6
ByLayer
100
AcDbEntity
100
AcDbPolyline
 90
37
 70
1
 10
-8.0757705479451829
 20
-1.674019038774063
 10
-8.0105560352333232
 20
-1.683950182841859
 10
-7.9420311411655327
 20
-1.713743615045249
 10
-7.8701958657418096
 20
-1.7633993353842321
 10
-7.7950502089621523
 20
-1.832917343858808
 10
-7.4401773276062224
 20
-2.182493615045249
 10
-7.3355692767587524
 20
-2.275846369282537
 10
-7.2230163106570524
 20
-2.3652266658927061
 10
-7.102518429301119
 20
-2.4506345048757572
 10
-6.9740756326909548
 20
-2.5320698862316888
 10
-6.8370258445553658
 20
-2.6015878947062649
 10
-6.6907069886231616
 20
-2.651243615045249
 10
-6.5351190648943502
 20
-2.6810370472486391
 10
-6.3702620733689344
 20
-2.6909681913164358
 10
-6.1726323064197786
 20
-2.682361199791012
 10
-5.9928785987926574
 20
-2.6565402252147412
 10
-5.8310009504875708
 20
-2.6135052675876218
 10
-5.6869993615045189
 20
-2.553256326909656
 10
-5.558887603029941
 20
-2.4787727464011811
 10
-5.4446794462502801
 20
-2.393033869282537
 10
-5.344374891165538
 20
-2.296039695553723
 10
-5.2579739377757164
 20
-2.1877902252147412
 10
-5.1844834716740174
 20
-2.0692785726723679
 10
-5.1229103784536782
 20
-1.941497852333385
 10
-5.0732546581146973
 20
-1.804448064197792
 10
-5.0355163106570728
 20
-1.658129208265589
 10
-5.0077091072672406
 20
-1.505520627757114
 10
-4.9878468191316436
 20
-1.349601665892707
 10
-4.9759294462502837
 20
-1.190372322672367
 10
-4.9719569886231616
 20
-1.0278325980960969
 10
-4.9812260564197706
 20
-0.7391673438588085
 10
-5.0090332598095983
 20
-0.4452054794520279
 10
-5.0514061411655362
 20
-0.1552160726723676
 10
-5.1043722428604497
 20
0.1215318086835646
 10
-5.1652832598096126
 20
0.3837140120733953
 10
-5.2314908869282419
 20
0.6300063849547506
 10
-5.3533129208265393
 20
1.0378453680055979
  0
LWPOLYLINE
  5
4B
  8
LAYER_1
 62
256
370
-1
  6
ByLayer
100
AcDbEntity
100
AcDbPolyline
 90
45
 70
1
 10
-30.194414615741831
 20
8.7497097747852592
 10
-29.903432094555381
 20
9.5283114697005153
 10
-29.655484530996059
 20
10.24335384258187
 10
-29.450571925063858
 20
10.89483689342933
 10
-29.288694276758779
 20
11.482760622242891
 10
-29.165879128453689
 20
12.00249049512424
 10
-29.078154022521481
 20
12.44939197817509
 10
-29.025518958962159
 20
12.823465071395431
 10
-29.012360193072329
 20
12.983190971819161
 10
-29.00797393777572
 20
13.124709774785259
 10
-29.011284319131651
 20
13.313401512073391
 10
-29.02121546319945
 20
13.47693435105645
 10
-29.037767369979111
 20
13.61530829173441
 10
-29.060940039470641
 20
13.72852333410729
 10
-29.090733471674032
 20
13.81657947817509
 10
-29.127147666589291
 20
13.879476723937801
 10
-29.170182624216409
 20
13.917215071395431
 10
-29.219838344555399
 20
13.92979452054797
 10
-29.2928322534537
 20
13.915725399785259
 10
-29.374102115741831
 20
13.873518037497121
 10
-29.463647931419789
 20
13.803172433683571
 10
-29.561469700487589
 20
13.704688588344579
 10
-29.667567422945211
 20
13.57806650148018
 10
-29.781941098792672
 20
13.423306173090349
 10
-29.904590728029959
 20
13.24040760317509
 10
-30.035516310657069
 20
13.02937079173441
 10
-30.317560802182498
 20
12.52817905444628
 10
-30.623440039470641
 20
11.925027571395431
 10
-30.953154022521488
 20
11.21991634258187
 10
-31.306702751335049
 20
10.4128453680056
 10
-31.48016673438589
 20
9.8196250290225464
 10
-31.640389192013
 20
9.2052182493615327
 10
-31.786045971674032
 20
8.5815424019039046
 10
-31.915812920826571
 20
7.9605148595310196
 10
-32.032338344555377
 20
7.3461080798700058
 10
-32.138270547945211
 20
6.7422945205479721
 10
-32.232285378453682
 20
6.1583432493615309
 10
-32.313058683538429
 20
5.6035233341072939
 10
-32.397804446250298
 20
4.9765371052937342
 10
-32.471956988623177
 20
4.3561716391920404
 10
-32.53551631065708
 20
3.7424269358022091
 10
-32.588482412351993
 20
3.1353029951242428
 10
-31.96348241235199
 20
4.5865741815649201
 10
-31.296109530996059
 20
6.1384809612259366
 10
-30.676406141165561
 20
7.5897521476666157
  0
LWPOLYLINE
  5
4C
  8
LAYER_1
 62
256
370
-1
  6
ByLayer
100
AcDbEntity
100
AcDbPolyline
 90
1968
 70
1
 10
32.771687079173489
 20
15.95309960529373
 10
33.04479354103789
 20
15.942506384954751
 10
33.292079028326022
 20
15.910726723937801
 10
33.51354354103789
 20
15.857760622242891
 10
33.709187079173489
 20
15.78360807987001
 10
33.882651062224333
 20
15.69025532563272
 10
34.037576909681952
 20
15.579688588344579
 10
34.173964621546361
 20
15.4519078680056
 10
34.291814197817558
 20
15.30691316461577
 10
34.392118752902313
 20
15.14569759258187
 10
34.475871401207392
 20
14.96925426631068
 10
34.543072142732811
 20
14.777583185802211
 10
34.593720977478569
 20
14.57068435105645
 10
34.630797248664997
 20
14.34988191461577
 10
34.657280299512458
 20
14.11650002902255
 10
34.673170130020942
 20
13.870538694276791
 10
34.67846674019043
 20
13.611997910378481
 10
34.664563138495517
 20
13.209455537497121
 10
34.622852333410783
 20
12.785726723937801
 10
34.553334324936188
 20
12.34081146970051
 10
34.456009113071786
 20
11.874709774785259
 10
34.335842269851447
 20
11.39338032563272
 10
34.197799367309067
 20
10.902781808683571
 10
34.041880405444672
 20
10.402914223937801
 10
33.868085384258222
 20
9.8937775713954288
 10
33.679062608834499
 20
9.3783511942767834
 10
33.477460384258222
 20
8.8596144358022073
 10
33.263278710529413
 20
8.3375672959716987
 10
33.036517587648063
 20
7.8122097747852592
 10
32.565119282563309
 20
6.7740741815649219
 10
32.083127757139579
 20
5.7677182493615327
 10
31.599812079173478
 20
4.8050593510564461
 10
31.124441316461599
 20
3.8980148595310218
 10
30.29287351985144
 20
2.3514046900394958
 10
30.504737926631091
 20
2.2030996052937342
 10
30.965543011376869
 20
2.7963199442767852
 10
31.479314197817558
 20
3.4319131646157679
 10
31.752089621546361
 20
3.754675346819158
 10
32.030161655444658
 20
4.0661822324123786
 10
32.31353029951245
 20
4.3664338213954297
 10
32.602195553749738
 20
4.6554301137683112
 10
32.893178074936181
 20
4.9268813849547506
 10
33.18349851985144
 20
5.1744979103784807
 10
33.473156888495502
 20
5.3982796900394971
 10
33.762153180868381
 20
5.5982267239378034
 10
33.905409934046347
 20
5.686365627539498
 10
34.046514939342963
 20
5.762752677327633
 10
34.185468196758222
 20
5.8273878733022091
 10
34.322269706292118
 20
5.8802712154632264
 10
34.456919467944658
 20
5.9214027038106849
 10
34.589417481715863
 20
5.9507823383445819
 10
34.719763747605683
 20
5.968410119064921
 10
34.847958265614153
 20
5.9742860459717004
 10
34.983021824936188
 20
5.962368673090344
 10
35.133975214766707
 20
5.9266165544462774
 10
35.212431252902299
 20
5.8978162366496667
 10
35.288901062224333
 20
5.8590847747852601
 10
35.363384642732797
 20
5.8104221688530568
 10
35.435881994427717
 20
5.7518284188530568
 10
35.50440688849551
 20
5.6819793722428873
 10
35.566973096122638
 20
5.5995508764801754
 10
35.623580617309067
 20
5.504542931564921
 10
35.674229452054853
 20
5.3969555374971243
 10
35.715940257139593
 20
5.2748024654632264
 10
35.745733689342977
 20
5.1360974866496658
 10
35.763609748665012
 20
4.9808406010564461
 10
35.769568435105697
 20
4.8090318086835637
 10
35.756988985953157
 20
4.451179584107293
 10
35.719250638495517
 20
4.0979618934293276
 10
35.656353392732811
 20
3.7493787366496671
 10
35.568297248664997
 20
3.4054301137683098
 10
35.357756994427717
 20
2.7221674019039028
 10
35.128678604597212
 20
2.0389046900394958
 10
34.900924367309088
 20
1.349021215463226
 10
34.694356570698908
 20
0.6458962154632264
 10
34.608617693580271
 20
0.287050876480175
 10
34.547375638495517
 20
-0.0797393777571133
 10
34.510630405444672
 20
-0.4544745472486387
 10
34.498381994427717
 20
-0.8371546319944017
 10
34.50632690968196
 20
-1.0384258184350801
 10
34.530161655444672
 20
-1.218510564197792
 10
34.569886231715863
 20
-1.377408869282537
 10
34.62550063849551
 20
-1.5151207336893171
 10
34.693694494427717
 20
-1.6263495472486389
 10
34.771157418156527
 20
-1.705798699791012
 10
34.813364780444672
 20
-1.733605903180842
 10
34.85788940968196
 20
-1.7534681913164361
 10
34.904731305868403
 20
-1.765385564197792
 10
34.953890469003987
 20
-1.7693580218249101
 10
35.082995341885344
 20
-1.7627372591130459
 10
35.216072672393821
 20
-1.7428749709774529
 10
35.353122460529413
 20
-1.7097711574181309
 10
35.494144706292133
 20
-1.6634258184350801
 10
35.780161655444672
 20
-1.5416037845367749
 10
36.066178604597212
 20
-1.3880020896215191
 10
36.349547248665019
 20
-1.2065931913164361
 10
36.62761928256333
 20
-1.0013495472486389
 10
36.895098096122638
 20
-0.7802160726723677
 10
37.146687079173489
 20
-0.5511376828418584
 10
37.320228953550362
 20
-0.3775958084649975
 10
37.305585384258222
 20
0.0314894358022091
 10
37.312868223241281
 20
0.3324031010564459
 10
37.33471674019043
 20
0.6419237578361068
 10
37.371130935105697
 20
0.9600514061411917
 10
37.422110807987053
 20
1.2867860459717
 10
37.487987396970098
 20
1.616168990886955
 10
37.569091740190437
 20
1.942241554446277
 10
37.665423837648063
 20
2.2650037366496671
 10
37.776983689342977
 20
2.5844555374971239
 10
37.903771295275178
 20
2.8986107281750901
 10
38.045786655444672
 20
3.2054830798700049
 10
38.20302976985144
 20
3.50507259258187
 10
38.37550063849551
 20
3.7973792663106831
 10
38.563199261376873
 20
4.0774375290225473
 10
38.76612563849551
 20
4.3402818086835646
 10
38.98427976985144
 20
4.5859121052937342
 10
39.217661655444658
 20
4.8143284188530568
 10
39.465940257139593
 20
5.0228824442767852
 10
39.728784536800603
 20
5.2089258764801736
 10
40.006194494427717
 20
5.3724587154632246
 10
40.298170130020942
 20
5.5134809612259366
 10
40.449868355656527
 20
5.5743092186411918
 10
40.605704557987039
 20
5.6270270417344124
 10
40.765678737012458
 20
5.6716344305055983
 10
40.929790892732797
 20
5.7081313849547506
 10
41.098041025148063
 20
5.7365179050818691
 10
41.270429134258222
 20
5.756793990886953
 10
41.446955220063302
 20
5.7689596423700031
 10
41.627619282563302
 20
5.7730148595310196
 10
41.918932841885344
 20
5.7610974866496649
 10
42.199653180868403
 20
5.7253453680055966
 10
42.469780299512458
 20
5.6657585035988181
 10
42.729314197817558
 20
5.5823368934293267
 10
42.975275532563323
 20
5.4773978044462774
 10
43.204684960529413
 20
5.3532585035988189
 10
43.417542481715863
 20
5.2099189908869548
 10
43.613848096122638
 20
5.0473792663106831
 10
43.791615574936188
 20
4.8663014061411918
 10
43.948858689342977
 20
4.6673474866496658
 10
44.085577439342977
 20
4.450517507836107
 10
44.201771824936202
 20
4.2158114697005136
 10
44.294462502902299
 20
3.9648845629208531
 10
44.360670130020942
 20
3.6993919781750901
 10
44.400394706292133
 20
3.419333715463226
 10
44.413636231715863
 20
3.1247097747852601
 10
44.408587900148063
 20
2.9605148595310231
 10
44.393442905444672
 20
2.7963199442767852
 10
44.368201247605683
 20
2.6321250290225482
 10
44.332862926631108
 20
2.4679301137683112
 10
44.287427942520942
 20
2.3037351985140742
 10
44.23189629527517
 20
2.1395402832598358
 10
44.166267984893807
 20
1.975345368005599
 10
44.090543011376873
 20
1.8111504527513611
 10
44.005880008198908
 20
1.6481141709717
 10
43.913437608834514
 20
1.487395156141192
 10
43.813215813283662
 20
1.328993408259836
 10
43.705214621546382
 20
1.172908927327633
 10
43.589434033622638
 20
1.019141713344581
 10
43.465874049512472
 20
0.8676917663106833
 10
43.195415892732797
 20
0.571743673090344
 10
43.049014277266693
 20
0.4280731222428865
 10
42.895826380020942
 20
0.2883750290225476
 10
42.56909174019043
 20
0.0208962154632257
 10
42.215211973241281
 20
-0.2306927675876218
 10
41.834187079173489
 20
-0.4663919201299951
 10
41.431313668156527
 20
-0.6815667082655879
 10
41.011888350359918
 20
-0.8715825980960961
 10
40.575911125783648
 20
-1.0364395896215199
 10
40.123381994427717
 20
-1.1761376828418579
 10
40.280956146970098
 20
-1.438319886231689
 10
40.435881994427717
 20
-1.6528325980960969
 10
40.513013880020942
 20
-1.742874970977452
 10
40.590807841885344
 20
-1.8223241235198251
 10
40.669263880020942
 20
-1.891180055723215
 10
40.748381994427717
 20
-1.9494427675876209
 10
40.828824261376873
 20
-1.9984364116554181
 10
40.911252757139593
 20
-2.0394851404689782
 10
40.995667481715863
 20
-2.0725889540283
 10
41.082068435105697
 20
-2.0977478523333839
 10
41.263477333410783
 20
-2.1295275133503329
 10
41.458127757139579
 20
-2.1401207336893169
 10
41.618101936164997
 20
-2.1361482760621979
 10
41.780227863071786
 20
-2.124230903180842
 10
41.944505537859918
 20
-2.104368615045249
 10
42.11093496052942
 20
-2.0765614116554181
 10
42.450249049512458
 20
-1.997112259113045
 10
42.798170130020942
 20
-1.885883445553723
 10
43.148077439342977
 20
-1.7508198862316899
 10
43.493350214766721
 20
-1.5998664964011811
 10
43.83398845629214
 20
-1.4330232760621979
 10
44.169992163919261
 20
-1.250290225214741
 10
44.499044070698922
 20
-1.055308763350334
 10
44.818826909681967
 20
-0.8517203099605033
 10
45.129340680868403
 20
-0.6395248650452491
 10
45.430585384258222
 20
-0.4187224286045712
 10
45.867833884642238
 20
-0.0723683072860004
 10
46.064847370155789
 20
0.0962141581426535
 10
46.247011980747629
 20
0.2622171205954844
 10
46.452831146970077
 20
1.625769096819158
 10
46.57862563849551
 20
2.3235974866496671
 10
46.712365045275163
 20
2.9869979103784812
 10
46.85007690968196
 20
3.606701300208988
 10
46.987788774088727
 20
4.1734385883445828
 10
47.125500638495517
 20
4.6660233341072939
 10
47.194356570698908
 20
4.8765635883445819
 10
47.263212502902292
 20
5.0632690968191589
 10
47.347958265614153
 20
5.2724851985140733
 10
47.432704028326008
 20
5.4340318086835637
 10
47.524070553749759
 20
5.5571779951242428
 10
47.574719388495517
 20
5.6078268298700058
 10
47.628678604597212
 20
5.651192825632716
 10
47.687603392732797
 20
5.6876070205479712
 10
47.753148943580257
 20
5.7174004527513613
 10
47.825315257139593
 20
5.7405731222428873
 10
47.904102333410783
 20
5.7571250290225482
 10
48.088159536800603
 20
5.7769873171581398
 10
48.311941316461628
 20
5.7836080798700049
 10
48.556909536800603
 20
5.7769873171581398
 10
48.74096674019043
 20
5.7571250290225482
 10
48.81280201561416
 20
5.7392489697005136
 10
48.874706146970098
 20
5.71210384258187
 10
48.926679134258237
 20
5.6756896476666174
 10
48.968720977478569
 20
5.6300063849547524
 10
49.002155829173468
 20
5.574060940039498
 10
49.028307841885344
 20
5.5068601985140733
 10
49.047177015614153
 20
5.4284041603784789
 10
49.058763350359918
 20
5.338692825632716
 10
49.070680723241288
 20
5.1135868934293267
 10
49.07465318086841
 20
4.8196250290225482
 10
49.07465318086841
 20
3.8715318086835642
 10
49.079949791037897
 20
3.3193601985140728
 10
49.095839621546361
 20
2.7751335035988189
 10
49.212365045275163
 20
2.7751335035988189
 10
49.68905996052942
 20
3.723226723937803
 10
49.826771824936188
 20
3.9811054315649201
 10
49.975076909681952
 20
4.2303771476666157
 10
50.1339752147667
 20
4.4710418722428873
 10
50.30346674019043
 20
4.7030996052937351
 10
50.484213562224333
 20
4.9219158129208527
 10
50.676877757139593
 20
5.1228559612259366
 10
50.881459324936188
 20
5.3059200502089876
 10
51.097958265614153
 20
5.4711080798700049
 10
51.211338827054838
 20
5.5443502673700049
 10
51.329022884258237
 20
5.6078268298700049
 10
51.45101043722434
 20
5.6615377673700049
 10
51.57730148595315
 20
5.7054830798700049
 10
51.707896030444672
 20
5.7396627673700049
 10
51.842794070698908
 20
5.7640768298700049
 10
51.981995606715863
 20
5.7787252673700049
 10
52.12550063849551
 20
5.7836080798700049
 10
52.225474155444672
 20
5.779304584107293
 10
52.324123519851447
 20
5.766394096819158
 10
52.421448731715863
 20
5.7448766180055983
 10
52.51744979103789
 20
5.7147521476666157
 10
52.609809430868403
 20
5.6766827620733959
 10
52.696210384258229
 20
5.6313305374971243
 10
52.776652651207378
 20
5.5786954739378034
 10
52.851136231715863
 20
5.5187775713954288
 10
52.918999049512458
 20
5.4515768298700049
 10
52.979579028326029
 20
5.37709324936153
 10
53.032876168156527
 20
5.2953268298700049
 10
53.078890469003987
 20
5.2062775713954288
 10
53.115966740190437
 20
5.1106075502089876
 10
53.14244979103789
 20
5.00897884258187
 10
53.158339621546361
 20
4.9013914485140724
 10
53.163636231715863
 20
4.7878453680055983
 10
53.150394706292133
 20
4.5720085035988181
 10
53.110670130020942
 20
4.2846674019039046
 10
52.994144706292133
 20
3.606701300208988
 10
52.877619282563323
 20
2.918141978175091
 10
52.837894706292133
 20
2.6122627408869552
 10
52.82465318086841
 20
2.3619979103784812
 10
52.829287714766707
 20
2.1792648595310218
 10
52.843191316461628
 20
2.01242163919204
 10
52.86636398595315
 20
1.8614682493615311
 10
52.898805723241281
 20
1.726404690039496
 10
52.938861337648063
 20
1.605575770547971
 10
52.98487563849551
 20
1.497326300208988
 10
53.036848625783648
 20
1.4016562790225471
 10
53.094780299512458
 20
1.3185657069886489
 10
53.157677545275178
 20
1.247392507836107
 10
53.224547248665012
 20
1.1874746052937339
 10
53.29538940968196
 20
1.13881199936153
 10
53.370204028326029
 20
1.101404690039496
 10
53.447997990190437
 20
1.073597486649666
 10
53.527778180868403
 20
1.053735198514073
 10
53.609544600359918
 20
1.0418178256327171
 10
53.693297248664997
 20
1.0378453680055979
 10
53.933630935105683
 20
1.0510868934293269
 10
54.177937079173489
 20
1.0908114697005129
 10
54.426215680868403
 20
1.157019096819158
 10
54.67846674019043
 20
1.2497097747852599
 10
54.927407418156527
 20
1.3589523595310229
 10
55.165754875783648
 20
1.4748157069886501
 10
55.393509113071786
 20
1.597299817158141
 10
55.610670130020942
 20
1.726404690039496
 10
55.858286655444672
 20
1.8853029951242419
 10
56.103254875783648
 20
2.0547945205479721
 10
56.34557479103789
 20
2.234879266310684
 10
56.585246401207392
 20
2.4255572324123791
 10
56.426348096122638
 20
-0.053256326909656
 10
55.801348096122638
 20
-0.4557986997910106
 10
55.439854452054853
 20
-0.6716355641977918
 10
55.05452606222434
 20
-0.8742309031808428
 10
54.853916952054853
 20
-0.9682457336893167
 10
54.649335384258237
 20
-1.0543156489435539
 10
54.440781358834514
 20
-1.1324406489435539
 10
54.228254875783648
 20
-1.2026207336893171
 10
54.012749049512458
 20
-1.26055240741813
 10
53.795256994427717
 20
-1.301932174367282
 10
53.57577871052942
 20
-1.326760034536774
 10
53.354314197817558
 20
-1.3350359879266041
 10
53.160491369427717
 20
-1.3299876563588069
 10
52.976268646970098
 20
-1.3148426616554181
 10
52.801646030444672
 20
-1.2896010038164349
 10
52.636623519851447
 20
-1.254262682841859
 10
52.48120111519043
 20
-1.208827698731689
 10
52.335378816461613
 20
-1.153296051485927
 10
52.19915662366499
 20
-1.087667741104571
 10
52.072534536800589
 20
-1.0119427675876209
 10
51.953857365190423
 20
-0.9280246002147403
 10
51.84146991815652
 20
-0.837816708265588
 10
51.735372195698901
 20
-0.7413190917401644
 10
51.635564197817537
 20
-0.6385317506384696
 10
51.542045924512458
 20
-0.5294546849605035
 10
51.454817375783648
 20
-0.4140878947062662
 10
51.373878551631108
 20
-0.2924313798757576
 10
51.299229452054853
 20
-0.1644851404689778
 10
51.165490045275178
 20
0.1056419781750898
 10
51.050288774088727
 20
0.3916589273276321
 10
50.95362563849551
 20
0.6935657069886491
 10
50.87550063849551
 20
1.011362317158141
 10
50.751030299512458
 20
1.6668178256327171
 10
50.653043011376873
 20
2.3302182493615309
 10
50.483551485953143
 20
2.3302182493615309
 10
48.587365045275163
 20
-2.9557986997910111
 10
48.443032418156527
 20
-3.3331821743672831
 10
48.306644706292133
 20
-3.639061411655419
 10
48.172905299512458
 20
-3.8840296319944012
 10
48.105042481715863
 20
-3.987644568435079
 10
48.036517587648063
 20
-4.0786800557232148
 10
47.966337502902292
 20
-4.1571360938588082
 10
47.893509113071779
 20
-4.2230126828418584
 10
47.818032418156527
 20
-4.276309822672367
 10
47.73990741815652
 20
-4.3170275133503342
 10
47.658472036800603
 20
-4.3471519836893169
 10
47.573064197817537
 20
-4.3686694625028766
 10
47.483683901207371
 20
-4.3815799497910124
 10
47.390331146970077
 20
-4.3858834455537226
 10
47.183763350359911
 20
-4.3742971108079614
 10
46.998381994427717
 20
-4.3395381065706724
 10
46.834187079173468
 20
-4.2816064328418584
 10
46.760034536800589
 20
-4.2439508449181291
 10
46.691178604597212
 20
-4.2005020896215193
 10
46.566377227478569
 20
-4.0998664964011802
 10
46.456803604597212
 20
-3.983341072672367
 10
46.362457735953143
 20
-3.8509258184350799
 10
46.283339621546361
 20
-3.7026207336893169
 10
46.217794070698908
 20
-3.5410741235198251
 10
46.164165892732797
 20
-3.3689342930113502
 10
46.122455087648063
 20
-3.186201242163893
 10
46.092661655444658
 20
-2.9928749709774518
 10
46.069034657704208
 20
-2.7578015385397441
 10
46.054884127946913
 20
-2.5181191356749419
 10
45.822534536800617
 20
-2.6909681913164358
 10
45.349812079173489
 20
-3.0061164964011811
 10
44.842661655444687
 20
-3.3159681913164341
 10
44.577169070698908
 20
-3.4652663904689769
 10
44.305055723241281
 20
-3.6059575980960958
 10
44.026321613071786
 20
-3.7380418141977909
 10
43.74096674019043
 20
-3.861519038774063
 10
43.449653180868403
 20
-3.974734081146944
 10
43.15304301137688
 20
-4.0760317506384691
 10
42.85113623171587
 20
-4.1654120472486387
 10
42.543932841885351
 20
-4.2428749709774518
 10
42.233088032563323
 20
-4.3054411786045703
 10
41.920256994427717
 20
-4.3501313269096551
 10
41.605439727478569
 20
-4.3769454158927061
 10
41.288636231715863
 20
-4.3858834455537226
 10
41.043585251842977
 20
-4.3802557972486387
 10
40.806313668156527
 20
-4.3633728523333843
 10
40.576821480656527
 20
-4.3352346108079596
 10
40.355108689342977
 20
-4.295841072672367
 10
40.141175294215863
 20
-4.2451922379266041
 10
39.935021295275178
 20
-4.1832881065706724
 10
39.736646692520942
 20
-4.1101286786045712
 10
39.546051485953143
 20
-4.0257139540282996
 10
39.363235675571786
 20
-3.931781883053723
 10
39.188199261376873
 20
-3.8300704158927061
 10
39.020942243368403
 20
-3.720579552545249
 10
38.861464621546361
 20
-3.6033092930113511
 10
38.709766395910762
 20
-3.478259637291012
 10
38.565847566461613
 20
-3.3454305853842321
 10
38.429708133198901
 20
-3.2048221372910111
 10
38.301348096122638
 20
-3.0564342930113502
 10
38.113853055500968
 20
-2.8065861946520578
 10
38.028428851669801
 20
-2.675461817539027
 10
37.949062318440809
 20
-2.539907496485553
 10
37.342661655444687
 20
-2.9822817506384691
 10
36.973223096122638
 20
-3.232546581146944
 10
36.57465318086841
 20
-3.4854597167401651
 10
36.160193435105697
 20
-3.725131326909656
 10
35.743085384258222
 20
-3.9356715811469432
 10
35.533869282563323
 20
-4.0293553735198246
 10
35.324653180868403
 20
-4.1144321743672831
 10
35.115437079173468
 20
-4.1909019836893169
 10
34.906220977478569
 20
-4.2587648014859276
 10
34.699322142732811
 20
-4.3143792082655894
 10
34.497057841885351
 20
-4.3541037845367736
 10
34.299428074936202
 20
-4.3779385302994864
 10
34.106432841885351
 20
-4.3858834455537226
 10
33.963176088707392
 20
-4.3810006330537226
 10
33.824719388495517
 20
-4.3663521955537226
 10
33.691062741249738
 20
-4.3419381330537226
 10
33.562206146970077
 20
-4.3077584455537226
 10
33.43814960565652
 20
-4.2638131330537226
 10
33.318893117309067
 20
-4.2101021955537226
 10
33.204436681927703
 20
-4.1466256330537226
 10
33.09478029951245
 20
-4.0733834455537226
 10
32.889867693580257
 20
-3.9065402252147399
 10
32.704155299512458
 20
-3.7185105641977909
 10
32.537643117309067
 20
-3.5092944625028761
 10
32.390331146970077
 20
-3.2788919201299951
 10
32.261226274088742
 20
-3.0322685091130448
 10
32.149335384258229
 20
-2.7743898014859272
 10
32.054658477478569
 20
-2.5052557972486391
 10
31.977195553749741
 20
-2.2248664964011802
 10
31.916946613071779
 20
-1.942822004875757
 10
31.873911655444651
 20
-1.668722428604571
 10
31.848090680868381
 20
-1.402567767587622
 10
31.839483689342959
 20
-1.1443580218249101
 10
31.845111337648039
 20
-0.9699009243672829
 10
31.861994282563291
 20
-0.785512682841859
 10
31.89013252408872
 20
-0.5911932972486387
 10
31.929526062224308
 20
-0.3869427675876214
 10
32.030161655444658
 20
0.0328135883445811
 10
32.151983689342963
 20
0.4552182493615309
 10
32.292343858834499
 20
0.8736504527513614
 10
32.448593858834499
 20
1.2814894358022091
 10
32.755797248664997
 20
2.0018284188530568
 10
32.889536655444672
 20
2.290493673090344
 10
33.004737926631087
 20
2.520896215463226
 10
33.092131994427717
 20
2.6797945205479712
 10
33.142449791037883
 20
2.7539470629208531
 10
32.919992163919233
 20
2.785726723937803
 10
32.814390998664997
 20
2.704953418853056
 10
32.677672248664997
 20
2.579158927327633
 10
32.509835913919247
 20
2.4083432493615309
 10
32.310881994427717
 20
2.192506384954751
 10
32.089417481715863
 20
1.938600134954751
 10
31.85404936730907
 20
1.653576300208988
 10
31.604777651207389
 20
1.337434880717463
 10
31.34160233341078
 20
0.9901758764801745
 10
31.069157947817551
 20
0.6161027832598356
 10
30.792079028326029
 20
0.219519096819158
 10
30.510365574936198
 20
-0.1995751828418587
 10
30.22401758764806
 20
-0.6411800557232148
 10
29.942304134258229
 20
-1.0976816447062661
 10
29.67449428256332
 20
-1.5614660726723679
 10
29.420588032563309
 20
-2.0325333396215202
 10
29.180585384258219
 20
-2.510883445553723
 10
28.968720977478561
 20
-2.9571228523333839
 10
28.799229452054849
 20
-3.342451242163893
 10
28.65224851985144
 20
-3.6655444625028761
 10
28.5079158927328
 20
-3.92507836080796
 10
28.4347564647667
 20
-4.0320036786045712
 10
28.358286655444662
 20
-4.1250253947062649
 10
28.2785064647667
 20
-4.2041435091130452
 10
28.1954158927328
 20
-4.2693580218249103
 10
28.10471144358025
 20
-4.3203378947062667
 10
28.00208962154635
 20
-4.3567520896215202
 10
27.887550426631101
 20
-4.3786006065706724
 10
27.761093858834499
 20
-4.3858834455537226
 10
27.59557479103789
 20
-4.3733039964011811
 10
27.448593858834499
 20
-4.3355656489435539
 10
27.382055193580261
 20
-4.3072618883503324
 10
27.32015106222433
 20
-4.2726684031808411
 10
27.2628814647667
 20
-4.2317851934350781
 10
27.210246401207371
 20
-4.1846122591130452
 10
27.11556949442771
 20
-4.0757007125028757
 10
27.032809960529409
 20
-3.9502372591130448
 10
26.961967799512461
 20
-3.8082218989435539
 10
26.903043011376869
 20
-3.6496546319944021
 10
26.841483929650789
 20
-3.3987547382926659
 10
26.550780651535572
 20
-3.5793000858580051
 10
26.246263350359921
 20
-3.744993615045249
 10
25.956604981715849
 20
-3.8833675557232148
 10
25.659663774088731
 20
-4.0071758184350799
 10
25.355439727478561
 20
-4.116418403180842
 10
25.043932841885319
 20
-4.2110953099605037
 10
24.729777651207371
 20
-4.2875651192825366
 10
24.417608689342959
 20
-4.3421864116554181
 10
24.107425956292101
 20
-4.3749591870791464
 10
23.799229452054821
 20
-4.3858834455537226
 10
23.715807841885329
 20
-4.3805868353842321
 10
23.613848096122609
 20
-4.3646970048757581
 10
23.227195553749741
 20
-4.2905444625028757
 10
22.43800063849551
 20
-4.1475359879266041
 10
21.832862926631101
 20
-4.0482245472486387
 10
21.044992163919229
 20
-3.9303749709774518
 10
21.044992163919229
 20
-4.1210529370791473
 10
21.03994383235143
 20
-4.5974995737316888
 10
21.024798837648049
 20
-5.0628564328418584
 10
20.999557179809059
 20
-5.517123514409656
 10
20.964218858834489
 20
-5.960300818435079
 10
20.918783874724308
 20
-6.3923883449181291
 10
20.863252227478551
 20
-6.8133860938588073
 10
20.797623917097191
 20
-7.2232940652571127
 10
20.721898943580239
 20
-7.6221122591130452
 10
20.637732497605679
 20
-8.0081854847486387
 10
20.54677976985144
 20
-8.3798585514859258
 10
20.449040760317551
 20
-8.7371314593249085
 10
20.344515469003991
 20
-9.0800042082655885
 10
20.233203895910769
 20
-9.4084767983079605
 10
20.11510604103789
 20
-9.7225492294520279
 10
19.990221904385351
 20
-10.022221501697789
 10
19.858551485953139
 20
-10.307493615045249
 10
19.72100514061416
 20
-10.57762073368932
 10
19.578493223241281
 20
-10.83185802182491
 10
19.431015733834499
 20
-11.07020547945203
 10
19.27857267239381
 20
-11.29266310657068
 10
19.12116403891924
 20
-11.499230903180839
 10
18.958789833410759
 20
-11.68990886928254
 10
18.791450055868381
 20
-11.86469700487576
 10
18.619144706292101
 20
-12.023595309960511
 10
18.4435289753599
 20
-12.165114112926609
 10
18.266258053749741
 20
-12.287763742163889
 10
18.087331941461599
 20
-12.391544197672371
 10
17.906750638495499
 20
-12.47645547945203
 10
17.72451414485143
 20
-12.542497587502879
 10
17.540622460529399
 20
-12.58967052182491
 10
17.355075585529399
 20
-12.61797428241813
 10
17.16787351985144
 20
-12.62740886928254
 10
17.02006499230907
 20
-12.62277433538423
 10
16.87854618934297
 20
-12.60887073368932
 10
16.743317110953129
 20
-12.585698064197789
 10
16.614377757139572
 20
-12.55325632690966
 10
16.491728127902281
 20
-12.51154552182491
 10
16.37536822324126
 20
-12.460565648943559
 10
16.265298043156509
 20
-12.40031670826559
 10
16.161517587648039
 20
-12.330798699791011
 10
16.063447539978551
 20
-12.25341853559609
 10
15.97050858341075
 20
-12.169583127757109
 10
15.88270071794466
 20
-12.079292476274061
 10
15.80002394358025
 20
-11.98254658114694
 10
15.722478260317541
 20
-11.87934544237576
 10
15.65006366815652
 20
-11.7696890599605
 10
15.5827801670972
 20
-11.65357743390118
 10
15.520627757139581
 20
-11.531010564197789
 10
15.41006101985143
 20
-11.26882836080796
 10
15.316708265614141
 20
-10.98545971674017
 10
15.240569494427699
 20
-10.6809046319944
 10
15.181644706292101
 20
-10.35516310657067
 10
15.13761663425821
 20
-10.013862788774061
 10
15.10616801137685
 20
-9.6626313269096542
 10
15.08729883764803
 20
-9.3014687209774536
 10
15.08100911307176
 20
-8.9303749709774536
 10
15.08961610459718
 20
-8.7062621531808428
 10
15.115437079173461
 20
-8.4682457336893169
 10
15.15847203680058
 20
-8.2163257125028757
 10
15.21872097747854
 20
-7.9505020896215193
 10
15.29353559612262
 20
-7.6744162845367736
 10
15.38026758764804
 20
-7.3917097167401637
 10
15.478916952054821
 20
-7.1023823862316888
 10
15.589483689342959
 20
-6.8064342930113497
 10
15.837100214766689
 20
-6.202620733689316
 10
16.113848096122609
 20
-5.5882139540282996
 10
16.409134113071779
 20
-4.9777796319944008
 10
16.71236504527516
 20
-4.3858834455537226
 10
17.085113985953129
 20
-3.702620733689316
 10
17.483021824936181
 20
-3.0087648014859258
 10
17.906088562224319
 20
-2.304315648943553
 10
18.35431419781753
 20
-1.589273276062197
 10
18.592661655444662
 20
0.1056419781750906
 10
18.706416885116251
 20
0.8122369624813102
 10
18.457819768687031
 20
1.084016688937651
 10
18.163636231715859
 20
1.3662351985140719
 10
17.661782418156541
 20
1.80585384258187
 10
17.130797248665001
 20
2.2348792663106831
 10
16.589218858834489
 20
2.6466907069886489
 10
16.055585384258219
 20
3.034667401903905
 10
15.563000638495501
 20
3.380271215463226
 10
15.14456843510567
 20
3.6649640120733942
 10
15.05982267239381
 20
3.5484385883445819
 10
15.203824261376861
 20
3.2369317027513609
 10
15.32862563849551
 20
2.9168178256327169
 10
15.43422680374975
 20
2.5880969569886489
 10
15.520627757139581
 20
2.250769096819158
 10
15.587828498665001
 20
1.9127791603784801
 10
15.635829028326009
 20
1.5820720629208529
 10
15.66462934612262
 20
1.258647804446277
 10
15.674229452054821
 20
0.9425063849547506
 10
15.66562246052939
 20
0.6293443086835645
 10
15.63980148595313
 20
0.3148580798700055
 10
15.596766528326009
 20
-0.0009523014859267
 10
15.53651758764804
 20
-0.3180868353842321
 10
15.460047778326009
 20
-0.6332351404689776
 10
15.368350214766689
 20
-0.9430868353842317
 10
15.26142489697007
 20
-1.2476419201299951
 10
15.13927182493617
 20
-1.5469003947062669
 10
15.00222203680058
 20
-1.838876030299486
 10
14.85060657069889
 20
-2.1215825980960958
 10
14.684425426631099
 20
-2.3950200980960972
 10
14.50367860459721
 20
-2.659188530299486
 10
14.30902818086839
 20
-2.9101154370791469
 10
14.10113623171585
 20
-3.14382836080796
 10
13.88000275713957
 20
-3.3603273014859272
 10
13.645627757139581
 20
-3.5596122591130448
 10
13.39900434612262
 20
-3.740359081146944
 10
13.141125638495501
 20
-3.901243615045249
 10
12.87199163425821
 20
-4.0422658608079596
 10
12.59160233341075
 20
-4.1634258184350799
 10
12.300950850359911
 20
-4.2607510302994864
 10
12.00103029951245
 20
-4.3302690387740634
 10
11.691840680868379
 20
-4.3719798438588082
 10
11.373381994427721
 20
-4.3858834455537226
 10
11.144551883198901
 20
-4.3795109614435539
 10
10.92416324442771
 20
-4.3603935091130452
 10
10.71221607811415
 20
-4.3285310885621966
 10
10.508710384258221
 20
-4.2839236997910124
 10
10.313646162859911
 20
-4.2265713427994864
 10
10.127023413919231
 20
-4.1564740175876214
 10
9.9488421374361753
 20
-4.0736317241554172
 10
9.7791023334107479
 20
-3.9780444625028761
 10
9.6173074446395646
 20
-3.8721950186469432
 10
9.4629609139192308
 20
-3.7585661786045699
 10
9.3160627412497412
 20
-3.6371579423757572
 10
9.1766129266311012
 20
-3.5079703099605029
 10
9.0446114700633053
 20
-3.3710032813588078
 10
8.9200583715463591
 20
-3.226256856570672
 10
8.802953631080257
 20
-3.0737310355960958
 10
8.6932972486650044
 20
-2.9134258184350799
 10
8.5198231523822336
 20
-2.6189740780122799
 10
8.4419079823409557
 20
-2.46539642303508
 10
8.3702531977079957
 20
-2.3074158771756159
 10
7.0725345368005614
 20
-3.0511376828418579
 10
6.3217400452751464
 20
-3.4589766658927061
 10
5.6583396215463324
 20
-3.7926631065706728
 10
5.3570949181564984
 20
-3.931699123519826
 10
5.0730641978175157
 20
-4.0521970048757572
 10
4.8062474605293843
 20
-4.1541567506384691
 10
4.5566447062921043
 20
-4.2375783608079596
 10
4.3212765918853178
 20
-4.3024618353842321
 10
4.0971637740887061
 20
-4.3488071743672823
 10
3.8843062529022641
 20
-4.3766143777571136
 10
3.6827040283259862
 20
-4.3858834455537226
 10
3.4844121851056502
 20
-4.378269568435079
 10
3.2920790283259902
 20
-4.3554279370791473
 10
3.105704557987008
 20
-4.3173585514859267
 10
2.925288774088703
 20
-4.264061411655419
 10
2.750831676631075
 20
-4.1955365175876222
 10
2.582333265614126
 20
-4.1117838692825384
 10
2.4197935410378548
 20
-4.0128034667401646
 10
2.2632125029022632
 20
-3.8985953099605042
 10
2.112755670275146
 20
-3.7700697538164349
 10
1.9685885622243
 20
-3.628137153180842
 10
1.8307111787497241
 20
-3.4727975080537239
 10
1.699123519851419
 20
-3.3040508184350799
 10
1.573825585529385
 20
-3.1218970843249099
 10
1.4548173757836209
 20
-2.9263363057232148
 10
1.3420988906141289
 20
-2.7173684826299951
 10
1.235670130020907
 20
-2.494993615045249
 10
1.054840297973243
 20
-2.044619144458109
 10
0.7221141655330015
 20
-2.2865432575815179
 10
0.3649912527538284
 20
-2.5207531529020599
 10
-0.0164594251664343
 20
-2.747339237918597
 10
-0.4221688530299446
 20
-2.9663919201299951
 10
-0.8591391920129849
 20
-3.182228784536774
 10
-1.3067027513350169
 20
-3.3848241235198251
 10
-1.7648595309960351
 20
-3.5741779370791469
 10
-2.2336095309960342
 20
-3.7502902252147412
 10
-2.7089802937078979
 20
-3.9108437209774518
 10
-3.1869993615045118
 20
-4.05352115741813
 10
-3.6676667343858691
 20
-4.1783225345367736
 10
-4.150982412351965
 20
-4.2852478523333843
 10
-4.6293325182841762
 20
-4.3709867294520279
 10
-5.0951031750638407
 20
-4.4322287845367736
 10
-5.5482943826909583
 20
-4.4689740175876214
 10
-5.9889061411655291
 20
-4.4812224286045712
 10
-6.2961095309960342
 20
-4.4739395896215202
 10
-6.5927197004875602
 20
-4.452091072672367
 10
-6.8787366496401052
 20
-4.4156768777571136
 10
-7.1541603784536676
 20
-4.3646970048757581
 10
-7.4160115437079082
 20
-4.2981583396215202
 10
-7.6613108021824878
 20
-4.2150677675876214
 10
-7.8900581538774048
 20
-4.1154252887740634
 10
-8.1022535987926574
 20
-3.9992309031808428
 10
-8.2965729843858753
 20
-3.865160458265589
 10
-8.4716921581146885
 20
-3.7118898014859281
 10
-8.6276111199790968
 20
-3.5394189328418588
 10
-8.7643298699790932
 20
-3.3477478523333839
 10
-8.8492330683817215
 20
-3.197488213144605
 10
-8.9209729965384454
 20
-3.0362364155209671
 10
-8.9794032973934357
 20
-2.8639619121350499
 10
-9.0243776138908629
 20
-2.6806341556594329
 10
-9.288694276758747
 20
-2.8763495472486391
 10
-9.5776905691316312
 20
-3.0709999709774518
 10
-9.8779421581146849
 20
-3.2577054794520288
 10
-10.18944904370791
 20
-3.4364660726723679
 10
-10.512211225911299
 20
-3.6072817506384691
 10
-10.84225624709774
 20
-3.7671731701299951
 10
-11.175611649640111
 20
-3.9131609879266041
 10
-11.51227743353842
 20
-4.0452452040282996
 10
-11.852253598792659
 20
-4.1634258184350799
 10
-12.189581458962151
 20
-4.2607510302994864
 10
-12.51830232760622
 20
-4.3302690387740634
 10
-12.83841620472487
 20
-4.3719798438588082
 10
-13.149923090318079
 20
-4.3858834455537226
 10
-13.414422560657069
 20
-4.3762833396215202
 10
-13.6570735140469
 20
-4.3474830218249103
 10
-13.87787595048758
 20
-4.299482492163893
 10
-14.07682986997909
 20
-4.2322817506384691
 10
-14.255921501335029
 20
-4.1478670260621966
 10
-14.417137073368931
 20
-4.0482245472486387
 10
-14.560476586080799
 20
-3.9333543141977909
 10
-14.685940039470641
 20
-3.803256326909656
 10
-14.794189509809611
 20
-3.6579305853842321
 10
-14.885887073368931
 20
-3.4973770896215202
 10
-14.96103273014859
 20
-3.3215958396215202
 10
-15.01962648014859
 20
-3.1305868353842321
 10
-15.063654552182481
 20
-2.9269983819944021
 10
-15.095103175063841
 20
-2.713478784536774
 10
-15.113972348792659
 20
-2.4900280430113502
 10
-15.120262073368931
 20
-2.25664615741813
 10
-15.112730204539369
 20
-1.9510343769741161
 10
-15.090021264395711
 20
-1.624232566925579
 10
-15.05196525245543
 20
-1.2762675909126959
 10
-14.99839216823605
 20
-0.9071663125756437
 10
-15.181141882902949
 20
-0.9916527418476713
 10
-15.367490745120019
 20
-1.06890745115403
 10
-15.750558683538429
 20
-1.2026207336893171
 10
-15.966064509809611
 20
-1.26055240741813
 10
-16.183556564894349
 20
-1.301932174367282
 10
-16.403034848792661
 20
-1.326760034536774
 10
-16.624499361504519
 20
-1.3350359879266041
 10
-16.818322189894349
 20
-1.3299876563588069
 10
-17.002544912351979
 20
-1.3148426616554181
 10
-17.177167528877401
 20
-1.2896010038164349
 10
-17.342190039470619
 20
-1.254262682841859
 10
-17.497612444131629
 20
-1.208827698731689
 10
-17.64343474286045
 20
-1.153296051485927
 10
-17.779656935657059
 20
-1.087667741104571
 10
-17.90627902252146
 20
-1.0119427675876209
 10
-18.024956194131629
 20
-0.9280246002147403
 10
-18.137343641165529
 20
-0.837816708265588
 10
-18.243441363623159
 20
-0.7413190917401644
 10
-18.343249361504508
 20
-0.6385317506384696
 10
-18.436767634809598
 20
-0.5294546849605035
 10
-18.523996183538411
 20
-0.4140878947062662
 10
-18.604935007690958
 20
-0.2924313798757576
 10
-18.679584107267232
 20
-0.1644851404689778
 10
-18.8133235140469
 20
0.1056419781750898
 10
-18.928524785233328
 20
0.3916589273276321
 10
-19.02518792082655
 20
0.6935657069886491
 10
-19.103312920826539
 20
1.011362317158141
 10
-19.227783259809609
 20
1.6668178256327171
 10
-19.325770547945211
 20
2.3302182493615309
 10
-19.495262073368931
 20
2.3302182493615309
 10
-21.39144851404691
 20
-2.9557986997910111
 10
-21.53578114116555
 20
-3.3331821743672831
 10
-21.672168853029941
 20
-3.639061411655419
 10
-21.805908259809609
 20
-3.8840296319944012
 10
-21.873771077606222
 20
-3.987644568435079
 10
-21.94229597167401
 20
-4.0786800557232148
 10
-22.012476056419789
 20
-4.1571360938588082
 10
-22.085304446250301
 20
-4.2230126828418584
 10
-22.16078114116555
 20
-4.276309822672367
 10
-22.238906141165561
 20
-4.3170275133503342
 10
-22.320341522521481
 20
-4.3471519836893169
 10
-22.40574936150453
 20
-4.3686694625028766
 10
-22.49512965811471
 20
-4.3815799497910124
 10
-22.58848241235199
 20
-4.3858834455537226
 10
-22.795050208962159
 20
-4.3742971108079614
 10
-22.98043156489436
 20
-4.3395381065706724
 10
-23.144626480148599
 20
-4.2816064328418584
 10
-23.218779022521481
 20
-4.2439508449181291
 10
-23.287634954724869
 20
-4.2005020896215193
 10
-23.412436331843519
 20
-4.0998664964011802
 10
-23.522009954724869
 20
-3.983341072672367
 10
-23.616355823368931
 20
-3.8509258184350799
 10
-23.69547393777572
 20
-3.7026207336893169
 10
-23.76101948862318
 20
-3.5410741235198251
 10
-23.81464766658927
 20
-3.3689342930113502
 10
-23.856358471674021
 20
-3.186201242163893
 10
-23.886151903877419
 20
-2.9928749709774518
 10
-23.9120943696918
 20
-2.699821190481662
 10
-24.29928749709774
 20
-2.9822817506384691
 10
-24.668726056419779
 20
-3.232546581146944
 10
-25.06729597167401
 20
-3.4854597167401651
 10
-25.48175571743673
 20
-3.725131326909656
 10
-25.898863768284201
 20
-3.9356715811469432
 10
-26.108079869979111
 20
-4.0293553735198246
 10
-26.317295971674021
 20
-4.1144321743672831
 10
-26.526512073368931
 20
-4.1909019836893169
 10
-26.735728175063851
 20
-4.2587648014859276
 10
-26.942627009809609
 20
-4.3143792082655894
 10
-27.144891310657069
 20
-4.3541037845367736
 10
-27.342521077606229
 20
-4.3779385302994864
 10
-27.535516310657069
 20
-4.3858834455537226
 10
-27.678773063835049
 20
-4.3810006330537226
 10
-27.81722976404691
 20
-4.3663521955537226
 10
-27.950886411292679
 20
-4.3419381330537226
 10
-28.079743005572329
 20
-4.3077584455537226
 10
-28.20379954688589
 20
-4.2638131330537226
 10
-28.32305603523335
 20
-4.2101021955537226
 10
-28.437512470614699
 20
-4.1466256330537226
 10
-28.547168853029941
 20
-4.0733834455537226
 10
-28.752081458962159
 20
-3.9065402252147399
 10
-28.937793853029959
 20
-3.7185105641977909
 10
-29.10430603523335
 20
-3.5092944625028761
 10
-29.25161800557234
 20
-3.2788919201299951
 10
-29.380722878453689
 20
-3.0322685091130448
 10
-29.49261376828419
 20
-2.7743898014859272
 10
-29.587290675063858
 20
-2.5052557972486391
 10
-29.664753598792689
 20
-2.2248664964011802
 10
-29.725002539470651
 20
-1.942822004875757
 10
-29.768037497097769
 20
-1.668722428604571
 10
-29.793858471674039
 20
-1.402567767587622
 10
-29.802465463199471
 20
-1.1443580218249101
 10
-29.796837814894381
 20
-0.9699009243672829
 10
-29.779954869979129
 20
-0.785512682841859
 10
-29.75181662845371
 20
-0.5911932972486387
 10
-29.712423090318111
 20
-0.3869427675876214
 10
-29.611787497097769
 20
0.0328135883445811
 10
-29.489965463199471
 20
0.4552182493615309
 10
-29.349605293707931
 20
0.8736504527513614
 10
-29.193355293707921
 20
1.2814894358022091
 10
-28.886151903877419
 20
2.0018284188530568
 10
-28.752412497097751
 20
2.290493673090344
 10
-28.637211225911301
 20
2.520896215463226
 10
-28.549817158114699
 20
2.6797945205479712
 10
-28.499499361504519
 20
2.7539470629208531
 10
-28.721956988623191
 20
2.785726723937803
 10
-28.82755815387743
 20
2.704953418853056
 10
-28.96427690387743
 20
2.579158927327633
 10
-29.132113238623191
 20
2.4083432493615309
 10
-29.33106715811471
 20
2.192506384954751
 10
-29.552531670826571
 20
1.938600134954751
 10
-29.78789978523335
 20
1.653576300208988
 10
-30.037171501335042
 20
1.337434880717463
 10
-30.300346819131651
 20
0.9901758764801745
 10
-30.572791204724869
 20
0.6161027832598356
 10
-30.849870124216391
 20
0.219519096819158
 10
-31.131583577606229
 20
-0.1995751828418587
 10
-31.41793156489436
 20
-0.6411800557232148
 10
-31.69964501828419
 20
-1.0976816447062661
 10
-31.967454869979111
 20
-1.5614660726723679
 10
-32.221361119979107
 20
-2.0325333396215202
 10
-32.461363768284201
 20
-2.510883445553723
 10
-32.673228175063862
 20
-2.9571228523333839
 10
-32.842719700487578
 20
-3.342451242163893
 10
-32.989700632690983
 20
-3.6655444625028761
 10
-33.134033259809627
 20
-3.92507836080796
 10
-33.207192687775731
 20
-4.0320036786045712
 10
-33.283662497097772
 20
-4.1250253947062649
 10
-33.363442687775731
 20
-4.2041435091130452
 10
-33.446533259809627
 20
-4.2693580218249103
 10
-33.537237708962166
 20
-4.3203378947062667
 10
-33.63985953099607
 20
-4.3567520896215202
 10
-33.754398725911322
 20
-4.3786006065706724
 10
-33.880855293707917
 20
-4.3858834455537226
 10
-34.046374361504533
 20
-4.3733039964011811
 10
-34.193355293707917
 20
-4.3355656489435539
 10
-34.259893958962152
 20
-4.3072618883503324
 10
-34.321798090318097
 20
-4.2726684031808411
 10
-34.379067687775724
 20
-4.2317851934350781
 10
-34.431702751335052
 20
-4.1846122591130452
 10
-34.526379658114713
 20
-4.0757007125028757
 10
-34.609139192013011
 20
-3.9502372591130448
 10
-34.679981353029959
 20
-3.8082218989435539
 10
-34.738906141165558
 20
-3.6496546319944021
 10
-34.787237708962166
 20
-3.4771837633503342
 10
-34.826300208962166
 20
-3.2934575980960958
 10
-34.856093641165558
 20
-3.0984761362316888
 10
-34.87661800557234
 20
-2.8922393777571132
 10
-34.901872443844667
 20
-2.3846576351622328
 10
-35.718779022521488
 20
-3.1094003947062672
 10
-35.991554446250298
 20
-3.349734081146944
 10
-36.27492309031809
 20
-3.588743615045249
 10
-36.568884954724872
 20
-3.8264289964011811
 10
-36.873440039470637
 20
-4.0627902252147408
 10
-37.19024353523335
 20
-4.2958410726723679
 10
-37.520950632690983
 20
-4.5235953099605037
 10
-37.865561331843523
 20
-4.7460529370791473
 10
-38.224075632690983
 20
-4.9632139540282996
 10
-38.599141840318097
 20
-5.171105903180842
 10
-38.993408259809627
 20
-5.365756326909656
 10
-39.406874891165558
 20
-5.5471652252147408
 10
-39.839541734385897
 20
-5.7153325980960972
 10
-40.293063980148609
 20
-5.8686032548757581
 10
-40.769096819131661
 20
-6.0053220048757581
 10
-41.267640251335052
 20
-6.1254888480960972
 10
-41.788694276758783
 20
-6.2291037845367754
 10
-42.335238238623177
 20
-6.3125253947062667
 10
-42.910251480148602
 20
-6.3721122591130461
 10
-43.513734001335052
 20
-6.4078643777571136
 10
-44.145685802182498
 20
-6.4197817506384691
 10
-44.498820733326568
 20
-6.4107609614435539
 10
-44.843183153877419
 20
-6.3836985938588082
 10
-45.178773063835052
 20
-6.3385946478842321
 10
-45.505590463199447
 20
-6.2754491235198264
 10
-45.823635351970651
 20
-6.1942620207655894
 10
-46.132907730148617
 20
-6.0950333396215211
 10
-46.433407597733357
 20
-5.9777630800876214
 10
-46.725134954724894
 20
-5.842451242163893
 10
-47.007262205784222
 20
-5.6918288904689778
 10
-47.27896175557234
 20
-5.5286270896215211
 10
-47.540233604089288
 20
-5.3528458396215202
 10
-47.791077751335052
 20
-5.1644851404689778
 10
-48.031494197309627
 20
-4.963544992163893
 10
-48.261482942013018
 20
-4.7500253947062667
 10
-48.481043985445233
 20
-4.5239263480960963
 10
-48.69017732760625
 20
-4.2852478523333843
 10
-48.888220892224894
 20
-4.0353140599605037
 10
-49.074512603029973
 20
-3.775449123519826
 10
-49.249052460021502
 20
-3.5056530430113511
 10
-49.411840463199468
 20
-3.2259258184350799
 10
-49.562876612563883
 20
-2.936267449791012
 10
-49.70216090811472
 20
-2.6366779370791469
 10
-49.829693349852022
 20
-2.327157280299486
 10
-49.945473937775738
 20
-2.0077054794520279
 10
-50.048509557479122
 20
-1.681219118223215
 10
-50.137807094555399
 20
-1.350594780299486
 10
-50.213366549004547
 20
-1.015832465680842
 10
-50.275187920826582
 20
-0.6769321743672825
 10
-50.323271210021502
 20
-0.3338939063588079
 10
-50.357616416589288
 20
0.0132823383445818
 10
-50.378223540529973
 20
0.3645965597428868
 10
-50.385092581843537
 20
0.720048757836107
 10
-50.371851056419807
 20
1.216274923090344
 10
-50.332126480148617
 20
1.7303771476666161
 10
-50.265918853029973
 20
2.262355431564921
 10
-50.173228175063848
 20
2.8122097747852601
 10
-50.05570963692827
 20
3.3736504527513622
 10
-49.915018429301163
 20
3.9403877408869552
 10
-49.751154552182513
 20
4.5124216391920404
 10
-49.56411800557234
 20
5.0897521476666157
 10
-49.354570865741827
 20
5.669399923090344
 10
-49.123175208962166
 20
6.2483856222428864
 10
-48.86993103523335
 20
6.8267092451242419
 10
-48.594838344555399
 20
7.4043707917344106
 10
-48.299221289470637
 20
7.9757426137683094
 10
-47.984404022521488
 20
8.5351970629208509
 10
-47.650386543707931
 20
9.0827341391920378
 10
-47.297168853029973
 20
9.6183538425818682
 10
-46.925413026758783
 20
10.13841475359882
 10
-46.535781141165558
 20
10.63927545275136
 10
-46.128273196250298
 20
11.1209359400395
 10
-45.702889192012996
 20
11.583396215463219
 10
-45.48390746531809
 20
11.80618488071746
 10
-45.261284319131647
 20
12.02169070698865
 10
-45.035019753453689
 20
12.22991369427678
 10
-44.805113768284201
 20
12.43085384258187
 10
-44.571566363623177
 20
12.624511151903899
 10
-44.334377539470637
 20
12.810885622242891
 10
-44.093547295826568
 20
12.98997725359882
 10
-43.849075632690983
 20
13.1617860459717
 10
-43.601128069131661
 20
13.32540164448865
 10
-43.349870124216409
 20
13.479913694276791
 10
-43.095301797945218
 20
13.625322195336111
 10
-42.837423090318097
 20
13.761627147666619
 10
-42.576234001335038
 20
13.888828551268309
 10
-42.311734530996048
 20
14.00692640614119
 10
-42.043924679301128
 20
14.115920712285259
 10
-41.772804446250291
 20
14.21581146970051
 10
-41.498704869979107
 20
14.30519176631068
 10
-41.221956988623177
 20
14.3826546900395
 10
-40.942560802182498
 20
14.448200240886949
 10
-40.66051631065708
 20
14.50182841885306
 10
-40.375823514046907
 20
14.543539223937801
 10
-40.088482412351993
 20
14.57333265614119
 10
-39.79849300557234
 20
14.591208715463219
 10
-39.505855293707917
 20
14.597167401903899
 10
-39.314846289470637
 20
14.59294666567509
 10
-39.123175208962166
 20
14.58028445698865
 10
-38.930842052182513
 20
14.559180775844579
 10
-38.737846819131661
 20
14.529635622242891
 10
-38.544189509809627
 20
14.49164899618356
 10
-38.349870124216409
 20
14.445220897666619
 10
-38.154888662352
 20
14.39035132669204
 10
-37.959245124216409
 20
14.327040283259841
 10
-37.765753333962166
 20
14.25495672923441
 10
-37.577227115741827
 20
14.17376962648018
 10
-37.393666469555377
 20
14.083478974997121
 10
-37.215071395402838
 20
13.984084774785259
 10
-37.041441893284187
 20
13.875587025844579
 10
-36.872777963199439
 20
13.75798572817509
 10
-36.709079605148602
 20
13.63128088177678
 10
-36.550346819131647
 20
13.49547248664966
 10
-36.397655479089281
 20
13.350477783259841
 10
-36.252081458962159
 20
13.196214012073391
 10
-36.113624758750291
 20
13.03268117309034
 10
-35.982285378453682
 20
12.85987926631068
 10
-35.858063318072332
 20
12.67780829173441
 10
-35.740958577606222
 20
12.486468249361531
 10
-35.630971157055377
 20
12.28585913919204
 10
-35.528101056419793
 20
12.075980961225939
 10
-35.434996580784187
 20
11.856668196395431
 10
-35.354306035233343
 20
11.62775532563272
 10
-35.286029419767253
 20
11.389242348937801
 10
-35.23016673438589
 20
11.14112926631068
 10
-35.186717979089281
 20
10.88341607775136
 10
-35.155683153877412
 20
10.616102783259841
 10
-35.137062258750298
 20
10.339189382836111
 10
-35.130855293707917
 20
10.05267587648018
 10
-35.134744991801142
 20
9.8564530216072939
 10
-35.146414086080803
 20
9.659733609531024
 10
-35.165862576546907
 20
9.4625176402513631
 10
-35.193090463199447
 20
9.2648051137683112
 10
-35.228097746038443
 20
9.06659603008187
 10
-35.270884425063848
 20
8.8678903891920395
 10
-35.379795971674007
 20
8.4689894358022091
 10
-35.515852645402838
 20
8.073067825632716
 10
-35.675081988623177
 20
7.6850911307174634
 10
-35.857484001335052
 20
7.3050593510564461
 10
-36.063058683538429
 20
6.9329724866496658
 10
-36.289819806419793
 20
6.5704857281750897
 10
-36.535781141165543
 20
6.2192542663106831
 10
-36.800942687775724
 20
5.8792781010564461
 10
-37.085304446250291
 20
5.5505572324123786
 10
-37.384893958962152
 20
5.2383882705479721
 10
-37.695738768284187
 20
4.9480678256327177
 10
-38.017838874216402
 20
4.6795958976666157
 10
-38.351194276758783
 20
4.4329724866496658
 10
-38.693487708962159
 20
4.2095217451242428
 10
-39.042401903877419
 20
4.0105678256327177
 10
-39.39793686150454
 20
3.836110728175091
 10
-39.760092581843537
 20
3.6861504527513609
 10
-39.942825632690997
 20
3.621598016310684
 10
-40.125558683538451
 20
3.5656525713954288
 10
-40.308291734385897
 20
3.5183141180055988
 10
-40.491024785233357
 20
3.4795826561411922
 10
-40.673757836080817
 20
3.4494581858022091
 10
-40.856490886928277
 20
3.4279407069886498
 10
-41.039223937775731
 20
3.415030219700514
 10
-41.221956988623191
 20
3.410726723937803
 10
-41.455338874216423
 20
3.4147819410988189
 10
-41.673493005572347
 20
3.42694759258187
 10
-41.87641938269099
 20
3.4472236783869552
 10
-42.06411800557234
 20
3.4756101985140728
 10
-42.236588874216409
 20
3.512107152963226
 10
-42.393831988623177
 20
3.5567145417344119
 10
-42.535847348792672
 20
3.6094323648276321
 10
-42.662634954724872
 20
3.6702606222428868
 10
-42.774360325487578
 20
3.7387027567767852
 10
-42.871188980148602
 20
3.8142622112259379
 10
-42.953120918707917
 20
3.8969389855903449
 10
-43.020156141165558
 20
3.9867330798700058
 10
-43.072294647521488
 20
4.0836444940649219
 10
-43.109536437775731
 20
4.1876732281750906
 10
-43.13188151192827
 20
4.2988192822005136
 10
-43.139329869979122
 20
4.4170826561411918
 10
-43.144626480148617
 20
4.61835384258187
 10
-43.149923090318111
 20
4.8619979103784807
 10
-43.144626480148609
 20
5.0566483341072939
 10
-43.128736649640132
 20
5.259243673090344
 10
-43.096956988623191
 20
5.4565424019039046
 10
-43.04399088692827
 20
5.6353029951242437
 10
-43.0085698064198
 20
5.7160763002089876
 10
-42.96586588692827
 20
5.7889046900394963
 10
-42.915879128453703
 20
5.8537881646157679
 10
-42.858609530996063
 20
5.9107267239378007
 10
-42.792070865741827
 20
5.9570720629208527
 10
-42.714276903877433
 20
5.9901758764801736
 10
-42.625227645402852
 20
6.0100381646157679
 10
-42.524923090318111
 20
6.016658927327633
 10
-42.405749361504533
 20
6.0073898595310222
 10
-42.302465463199468
 20
5.9795826561411918
 10
-42.090601056419793
 20
5.9001335035988198
 10
-41.962158259809627
 20
5.8590847747852592
 10
-41.809880717436762
 20
5.8206843510564461
 10
-41.623175208962166
 20
5.7928771476666148
 10
-41.391448514046907
 20
5.7836080798700049
 10
-41.221708710021488
 20
5.7882426137683094
 10
-41.051472348792679
 20
5.8021462154632264
 10
-40.880739430360478
 20
5.8253188849547506
 10
-40.709509954724894
 20
5.8577606222428864
 10
-40.537783921885897
 20
5.8994714273276312
 10
-40.36556133184353
 20
5.9504513002089876
 10
-40.192842184597772
 20
6.0107002408869548
 10
-40.019626480148617
 20
6.0802182493615327
 10
-39.848314244979122
 20
6.1581777302937351
 10
-39.68130550557234
 20
6.2437510883445819
 10
-39.51860026192827
 20
6.3369383235140733
 10
-39.360198514046907
 20
6.4377394358022091
 10
-39.20610026192827
 20
6.5461544252089876
 10
-39.05630550557234
 20
6.6621832917344124
 10
-38.910814244979122
 20
6.7858260353784798
 10
-38.769626480148617
 20
6.9170826561411918
 10
-38.633735325487599
 20
7.0553738372852601
 10
-38.504133895402838
 20
7.2001202620733951
 10
-38.380822189894367
 20
7.3513219305055983
 10
-38.263800208962166
 20
7.50897884258187
 10
-38.153067952606229
 20
7.6730909983022091
 10
-38.048625420826568
 20
7.8436583976666157
 10
-37.950472613623177
 20
8.0206810406750897
 10
-37.858609530996063
 20
8.204158927327633
 10
-37.775436199428263
 20
8.393264462285261
 10
-37.70335264540283
 20
8.5871700502089894
 10
-37.642358868919793
 20
8.7858756910988198
 10
-37.592454869979107
 20
8.9893813849547506
 10
-37.55364064858081
 20
9.1976871317767852
 10
-37.525916204724879
 20
9.4107929315649201
 10
-37.509281538411322
 20
9.6286987843191589
 10
-37.503736649640132
 20
9.8514046900394963
 10
-37.511681564894367
 20
10.08677280444628
 10
-37.53551631065708
 20
10.31618223241238
 10
-37.57524088692827
 20
10.539632973937801
 10
-37.630855293707917
 20
10.75712502902255
 10
-37.704345759809613
 20
10.96501697817509
 10
-37.797698514046907
 20
11.159667401903899
 10
-37.910913556419793
 20
11.341076300208989
 10
-38.04399088692827
 20
11.50924367309034
 10
-38.197261543707938
 20
11.6628453680056
 10
-38.371056564894367
 20
11.80055723241238
 10
-38.565375950487592
 20
11.92237926631068
 10
-38.780219700487578
 20
12.02831146970051
 10
-38.895834769343509
 20
12.074243011014071
 10
-39.017574043707917
 20
12.114050346819161
 10
-39.279425208962159
 20
12.175292401903899
 10
-39.565773196250298
 20
12.212037634954751
 10
-39.87661800557234
 20
12.2242860459717
 10
-40.066716654936741
 20
12.219072195336111
 10
-40.255656670826582
 20
12.20343064342933
 10
-40.443438053241827
 20
12.17736139025136
 10
-40.630060802182513
 20
12.140864435802211
 10
-40.815524917648602
 20
12.09393978008187
 10
-40.999830399640132
 20
12.03658742309034
 10
-41.182977248157087
 20
11.968807364827629
 10
-41.364965463199468
 20
11.89059960529373
 10
-41.724141840318097
 20
11.70885966885306
 10
-42.076035378453689
 20
11.497326300208989
 10
-42.420646077606222
 20
11.255999499361531
 10
-42.757973937775724
 20
10.98487926631068
 10
-43.087356882690969
 20
10.68562079173441
 10
-43.40813283608081
 20
10.35987926631068
 10
-43.720301797945233
 20
10.007654690039489
 10
-44.023863768284201
 20
9.6289470629208527
 10
-44.317494594555377
 20
9.230046109531024
 10
-44.599870124216402
 20
8.8172415544462766
 10
-44.870990357267253
 20
8.3905333976666157
 10
-45.130855293707917
 20
7.9499216391920404
 10
-45.37880285726726
 20
7.4977235459717004
 10
-45.614170971674028
 20
7.0362563849547506
 10
-45.83695963692827
 20
6.5655201561411918
 10
-46.047168853029973
 20
6.0855148595310196
 10
-46.243474467436762
 20
5.6012060671581398
 10
-46.424552327606243
 20
5.1175593510564461
 10
-46.590402433538443
 20
4.6345747112259366
 10
-46.74102478523335
 20
4.1522521476666157
 10
-46.875757306419793
 20
3.6739020417344119
 10
-46.993937920826568
 20
3.2028347747852601
 10
-47.095566628453689
 20
2.739050346819158
 10
-47.180643429301142
 20
2.282548757836107
 10
-47.247844170826568
 20
1.8386266180055979
 10
-47.295844700487599
 20
1.412580537497123
 10
-47.324645018284208
 20
1.0044105163106829
 10
-47.334245124216409
 20
0.6141165544462766
 10
-47.330024387987592
 20
0.3457273860140735
 10
-47.317362179301163
 20
0.0861107281750906
 10
-47.296258498157087
 20
-0.164733419070672
 10
-47.266713344555392
 20
-0.4068050557232143
 10
-47.22872671849607
 20
-0.6401041817825364
 10
-47.182298619979122
 20
-0.864630797248638
 10
-47.12742904900454
 20
-1.0803849021215191
 10
-47.06411800557234
 20
-1.2873664964011799
 10
-46.993027565953703
 20
-1.4857410991554181
 10
-46.9148198064198
 20
-1.6756742294520279
 10
-46.829494726970637
 20
-1.857165887291012
 10
-46.737052327606243
 20
-2.0302160726723679
 10
-46.637492608326568
 20
-2.1948247855960972
 10
-46.530815569131647
 20
-2.3509920260621979
 10
-46.417021210021488
 20
-2.498717794070672
 10
-46.296109530996063
 20
-2.6380020896215188
 10
-46.168163291589281
 20
-2.768762153180842
 10
-46.033265251335052
 20
-2.8909152252147399
 10
-45.891415410233357
 20
-3.0044613057232148
 10
-45.742613768284201
 20
-3.1094003947062658
 10
-45.586860325487592
 20
-3.205732492163893
 10
-45.424155081843523
 20
-3.2934575980960958
 10
-45.254498037351993
 20
-3.3725757125028761
 10
-45.077889192012996
 20
-3.4430868353842321
 10
-44.894990622097751
 20
-3.5051564858079609
 10
-44.706464403877419
 20
-3.5589501828418588
 10
-44.512310537351993
 20
-3.6044679264859272
 10
-44.312529022521488
 20
-3.6417097167401642
 10
-44.107119859385897
 20
-3.6706755536045712
 10
-43.896083047945233
 20
-3.6913654370791469
 10
-43.679418588199468
 20
-3.703779367163893
 10
-43.457126480148617
 20
-3.7079173438588078
 10
-43.178806167648617
 20
-3.7035310885621979
 10
-42.905285908114713
 20
-3.6903723226723679
 10
-42.636565701546907
 20
-3.6684410461893169
 10
-42.372645547945218
 20
-3.6377372591130461
 10
-42.113525447309627
 20
-3.5982609614435539
 10
-41.859205399640139
 20
-3.5500121531808428
 10
-41.609685404936762
 20
-3.4929908343249099
 10
-41.364965463199468
 20
-3.4271970048757581
 10
-40.885953280996063
 20
-3.275912576909656
 10
-40.418196395402838
 20
-3.1027796319944021
 10
-39.961694806419793
 20
-2.9077981701299951
 10
-39.516448514046907
 20
-2.6909681913164358
 10
-39.080471289470637
 20
-2.455931115045249
 10
-38.651776903877419
 20
-2.2063283608079609
 10
-38.230365357267253
 20
-1.942159928604571
 10
-37.816236649640132
 20
-1.6634258184350801
 10
-36.174287497097772
 20
-0.514061411655419
 10
-35.531962487154857
 20
-0.0742899182348798
 10
-34.878529926533417
 20
0.3471063489656467
 10
-34.847170772645057
 20
1.327072549324076
 10
-34.791872242860478
 20
2.3831843510564461
 10
-34.744864827606243
 20
3.091605961225937
 10
-34.688588344555377
 20
3.8185657069886489
 10
-34.623042793707917
 20
4.564063588344581
 10
-34.548228175063848
 20
5.3280996052937351
 10
-34.460503069131661
 20
6.099087423090344
 10
-34.3562260564198
 20
6.8654407069886494
 10
-34.23539713692827
 20
7.6271594569886494
 10
-34.098016310657073
 20
8.384243673090344
 10
-33.943090463199447
 20
9.1304036307174616
 10
-33.769626480148602
 20
9.8593496052937333
 10
-33.577624361504533
 20
10.571081596819161
 10
-33.36708410726726
 20
11.26559960529373
 10
-33.254200103029973
 20
11.603424022666619
 10
-33.135357412352008
 20
11.930986257836111
 10
-33.010556035233357
 20
12.248286310802211
 10
-32.879795971674042
 20
12.55532418156492
 10
-32.743077221674042
 20
12.85209987012424
 10
-32.600399785233357
 20
13.138613376480169
 10
-32.451763662352008
 20
13.41486470063272
 10
-32.297168853029973
 20
13.68085384258187
 10
-32.136201559597772
 20
13.93500837118356
 10
-31.9684479843859
 20
14.17575585529373
 10
-31.793908127394381
 20
14.40309629491238
 10
-31.612581988623191
 20
14.6170296900395
 10
-31.42446956807234
 20
14.81755604067509
 10
-31.229570865741831
 20
15.004675346819161
 10
-31.027885881631661
 20
15.1783876084717
 10
-30.819414615741831
 20
15.33869282563272
 10
-30.603577751335049
 20
15.48269441461577
 10
-30.379795971674039
 20
15.60749579173441
 10
-30.148069276758779
 20
15.71309695698865
 10
-29.908397666589291
 20
15.799497910378481
 10
-29.660781141165561
 20
15.866698651903899
 10
-29.405219700487589
 20
15.91469918156492
 10
-29.141713344555381
 20
15.943499499361531
 10
-28.870262073368931
 20
15.95309960529373
 10
-28.59715561150454
 20
15.942506384954751
 10
-28.349870124216402
 20
15.910726723937801
 10
-28.12840561150454
 20
15.857760622242891
 10
-27.932762073368931
 20
15.78360807987001
 10
-27.75929809031809
 20
15.69025532563272
 10
-27.60437224286046
 20
15.579688588344579
 10
-27.467984530996048
 20
15.4519078680056
 10
-27.350134954724869
 20
15.30691316461577
 10
-27.249830399640121
 20
15.14569759258187
 10
-27.166077751335031
 20
14.96925426631068
 10
-27.098877009809609
 20
14.777583185802211
 10
-27.048228175063851
 20
14.57068435105645
 10
-27.011151903877419
 20
14.34988191461577
 10
-26.984668853029959
 20
14.11650002902255
 10
-26.968779022521481
 20
13.870538694276791
 10
-26.96348241235199
 20
13.611997910378481
 10
-26.97738601404691
 20
13.209455537497121
 10
-27.019096819131651
 20
12.785726723937801
 10
-27.088614827606229
 20
12.34081146970051
 10
-27.185940039470641
 20
11.874709774785259
 10
-27.30610688269098
 20
11.39338032563272
 10
-27.44414978523335
 20
10.902781808683571
 10
-27.600068747097751
 20
10.402914223937801
 10
-27.773863768284201
 20
9.8937775713954288
 10
-27.962886543707921
 20
9.3783511942767834
 10
-28.16448876828419
 20
8.8596144358022073
 10
-28.378670442013
 20
8.3375672959716987
 10
-28.60543156489436
 20
7.8122097747852592
 10
-29.076829869979111
 20
6.7740741815649219
 10
-29.558821395402841
 20
5.7677182493615327
 10
-30.042137073368949
 20
4.8050593510564461
 10
-30.517507836080821
 20
3.8980148595310218
 10
-31.34907563269098
 20
2.3514046900394958
 10
-31.137211225911329
 20
2.2030996052937342
 10
-30.676406141165561
 20
2.7963199442767852
 10
-30.16263495472489
 20
3.4319131646157679
 10
-29.88985953099608
 20
3.754675346819158
 10
-29.611787497097769
 20
4.0661822324123786
 10
-29.328418853029969
 20
4.3664338213954297
 10
-29.039753598792689
 20
4.6554301137683112
 10
-28.748771077606239
 20
4.9268813849547506
 10
-28.458450632690969
 20
5.1744979103784807
 10
-28.1687922640469
 20
5.3982796900394971
 10
-27.87979597167401
 20
5.5982267239378034
 10
-27.736539218496048
 20
5.686365627539498
 10
-27.595434213199439
 20
5.762752677327633
 10
-27.45648095578419
 20
5.8273878733022091
 10
-27.319679446250291
 20
5.8802712154632264
 10
-27.185029684597751
 20
5.9214027038106849
 10
-27.052531670826571
 20
5.9507823383445819
 10
-26.922185404936741
 20
5.968410119064921
 10
-26.79399088692827
 20
5.9742860459717004
 10
-26.658927327606239
 20
5.962368673090344
 10
-26.50797393777572
 20
5.9266165544462774
 10
-26.429517899640121
 20
5.8978162366496667
 10
-26.35304809031809
 20
5.8590847747852601
 10
-26.27856450980962
 20
5.8104221688530568
 10
-26.20606715811471
 20
5.7518284188530568
 10
-26.13754226404691
 20
5.6819793722428873
 10
-26.074976056419789
 20
5.5995508764801754
 10
-26.01836853523335
 20
5.504542931564921
 10
-25.967719700487581
 20
5.3969555374971243
 10
-25.926008895402841
 20
5.2748024654632264
 10
-25.89621546319945
 20
5.1360974866496658
 10
-25.878339403877401
 20
4.9808406010564461
 10
-25.87238071743673
 20
4.8090318086835637
 10
-25.88496016658927
 20
4.451179584107293
 10
-25.9226985140469
 20
4.0979618934293276
 10
-25.985595759809609
 20
3.7493787366496671
 10
-26.073651903877419
 20
3.4054301137683098
 10
-26.284192158114699
 20
2.7221674019039028
 10
-26.513270547945211
 20
2.0389046900394958
 10
-26.741024785233339
 20
1.349021215463226
 10
-26.947592581843509
 20
0.6458962154632264
 10
-27.033331458962159
 20
0.287050876480175
 10
-27.09457351404691
 20
-0.0797393777571133
 10
-27.131318747097751
 20
-0.4544745472486387
 10
-27.14356715811471
 20
-0.8371546319944017
 10
-27.135622242860471
 20
-1.0384258184350801
 10
-27.111787497097762
 20
-1.218510564197792
 10
-27.072062920826571
 20
-1.377408869282537
 10
-27.01644851404691
 20
-1.5151207336893171
 10
-26.94825465811471
 20
-1.6263495472486389
 10
-26.87079173438589
 20
-1.705798699791012
 10
-26.828584372097751
 20
-1.733605903180842
 10
-26.78405974286046
 20
-1.7534681913164361
 10
-26.737217846674021
 20
-1.765385564197792
 10
-26.688058683538429
 20
-1.7693580218249101
 10
-26.55895381065708
 20
-1.7627372591130459
 10
-26.425876480148599
 20
-1.7428749709774529
 10
-26.288826692013011
 20
-1.7097711574181309
 10
-26.147804446250291
 20
-1.6634258184350801
 10
-25.861787497097751
 20
-1.5416037845367749
 10
-25.575770547945211
 20
-1.3880020896215191
 10
-25.292401903877408
 20
-1.2065931913164361
 10
-25.01432986997909
 20
-1.0013495472486389
 10
-24.746851056419779
 20
-0.7802160726723677
 10
-24.495262073368931
 20
-0.5511376828418584
 10
-24.111465261814409
 20
-0.1756968467964797
 10
-23.922409263667301
 20
0.0252464550265943
 10
-23.735830784878939
 20
0.2355236288280018
 10
-23.52598241235199
 20
1.625769096819158
 10
-23.400187920826561
 20
2.3235974866496671
 10
-23.26644851404691
 20
2.9869979103784812
 10
-23.128736649640121
 20
3.606701300208988
 10
-22.99102478523335
 20
4.1734385883445828
 10
-22.853312920826561
 20
4.6660233341072939
 10
-22.78445698862317
 20
4.8765635883445819
 10
-22.715601056419789
 20
5.0632690968191589
 10
-22.630855293707921
 20
5.2724851985140733
 10
-22.546109530996059
 20
5.4340318086835637
 10
-22.454743005572318
 20
5.5571779951242428
 10
-22.404094170826561
 20
5.6078268298700058
 10
-22.350134954724869
 20
5.651192825632716
 10
-22.291210166589281
 20
5.6876070205479712
 10
-22.22566461574182
 20
5.7174004527513613
 10
-22.153498302182498
 20
5.7405731222428873
 10
-22.074711225911301
 20
5.7571250290225482
 10
-21.890654022521471
 20
5.7769873171581398
 10
-21.66687224286045
 20
5.7836080798700049
 10
-21.421904022521481
 20
5.7769873171581398
 10
-21.237846819131651
 20
5.7571250290225482
 10
-21.166011543707921
 20
5.7392489697005136
 10
-21.104107412351979
 20
5.71210384258187
 10
-21.052134425063841
 20
5.6756896476666174
 10
-21.010092581843509
 20
5.6300063849547524
 10
-20.976657730148599
 20
5.574060940039498
 10
-20.95050571743673
 20
5.5068601985140733
 10
-20.931636543707921
 20
5.4284041603784789
 10
-20.920050208962149
 20
5.338692825632716
 10
-20.908132836080799
 20
5.1135868934293267
 10
-20.9041603784537
 20
4.8196250290225482
 10
-20.9041603784537
 20
3.8715318086835642
 10
-20.89886376828419
 20
3.3193601985140728
 10
-20.88297393777572
 20
2.7751335035988189
 10
-20.76644851404691
 20
2.7751335035988189
 10
-20.289753598792661
 20
3.723226723937803
 10
-20.15204173438589
 20
3.9811054315649201
 10
-20.003736649640121
 20
4.2303771476666157
 10
-19.844838344555381
 20
4.4710418722428873
 10
-19.675346819131651
 20
4.7030996052937351
 10
-19.494599997097751
 20
4.9219158129208527
 10
-19.301935802182491
 20
5.1228559612259366
 10
-19.097354234385872
 20
5.3059200502089876
 10
-18.880855293707899
 20
5.4711080798700049
 10
-18.767474732267221
 20
5.5443502673700049
 10
-18.64979067506383
 20
5.6078268298700049
 10
-18.52780312209773
 20
5.6615377673700049
 10
-18.40151207336892
 20
5.7054830798700049
 10
-18.270917528877391
 20
5.7396627673700049
 10
-18.136019488623159
 20
5.7640768298700049
 10
-17.9968179526062
 20
5.7787252673700049
 10
-17.853312920826539
 20
5.7836080798700049
 10
-17.753339403877391
 20
5.779304584107293
 10
-17.654690039470609
 20
5.766394096819158
 10
-17.5573648276062
 20
5.7448766180055983
 10
-17.461363768284169
 20
5.7147521476666157
 10
-17.369004128453671
 20
5.6766827620733959
 10
-17.282603175063841
 20
5.6313305374971243
 10
-17.202160908114699
 20
5.5786954739378034
 10
-17.127677327606222
 20
5.5187775713954288
 10
-17.059814509809609
 20
5.4515768298700049
 10
-16.999234530996041
 20
5.37709324936153
 10
-16.94593739116554
 20
5.2953268298700049
 10
-16.899923090318079
 20
5.2062775713954288
 10
-16.862846819131629
 20
5.1106075502089876
 10
-16.83636376828418
 20
5.00897884258187
 10
-16.820473937775709
 20
4.9013914485140724
 10
-16.815177327606222
 20
4.7878453680055983
 10
-16.828418853029952
 20
4.5720085035988181
 10
-16.868143429301139
 20
4.2846674019039046
 10
-16.984668853029941
 20
3.606701300208988
 10
-17.101194276758751
 20
2.918141978175091
 10
-17.140918853029941
 20
2.6122627408869552
 10
-17.154160378453671
 20
2.3619979103784812
 10
-17.14952584455536
 20
2.1792648595310218
 10
-17.13562224286045
 20
2.01242163919204
 10
-17.112449573368931
 20
1.8614682493615311
 10
-17.080007836080799
 20
1.726404690039496
 10
-17.039952221674021
 20
1.605575770547971
 10
-16.993937920826561
 20
1.497326300208988
 10
-16.941964933538419
 20
1.4016562790225471
 10
-16.884033259809598
 20
1.3185657069886489
 10
-16.821136014046889
 20
1.247392507836107
 10
-16.754266310657059
 20
1.1874746052937339
 10
-16.6834241496401
 20
1.13881199936153
 10
-16.608609530996031
 20
1.101404690039496
 10
-16.530815569131629
 20
1.073597486649666
 10
-16.45103537845366
 20
1.053735198514073
 10
-16.369268958962149
 20
1.0418178256327171
 10
-16.285516310657069
 20
1.0378453680055979
 10
-16.045182624216391
 20
1.0510868934293269
 10
-15.80087648014859
 20
1.0908114697005129
 10
-15.552597878453669
 20
1.157019096819158
 10
-15.300346819131651
 20
1.2497097747852599
 10
-15.07525605016513
 20
1.348048564296731
 10
-14.858958833015709
 20
1.4520563652878491
 10
-14.6516217643409
 20
1.5620103422635241
 10
-14.45341144079819
 20
1.678187659728668
 10
-14.11920275133502
 20
3.0187775713954288
 10
-13.884827751335029
 20
3.9244979103784798
 10
-13.67958410726723
 20
4.7560657069886494
 10
-13.63323876828419
 20
4.8888119993615309
 10
-13.568355293707921
 20
5.0116271476666157
 10
-13.484933683538429
 20
5.1245111519039037
 10
-13.38297393777572
 20
5.2274640120733942
 10
-13.26810370472486
 20
5.3208167663106831
 10
-13.14595063269096
 20
5.4049004527513613
 10
-13.01651472167401
 20
5.4797150713954306
 10
-12.87979597167401
 20
5.5452606222428873
 10
-12.689290852208099
 20
5.6192695543463831
 10
-12.4933052142128
 20
5.6763112777098854
 10
-12.630855293707921
 20
5.7918069421871632
 10
-12.735132306419789
 20
5.9062633775685196
 10
-12.82550571743673
 20
6.0298233616786892
 10
-12.90197552675877
 20
6.1624868945176718
 10
-12.96454173438589
 20
6.3042539760854677
 10
-13.01320434031809
 20
6.4551246063820784
 10
-13.047963344555381
 20
6.6150987854075023
 10
-13.068818747097749
 20
6.7841765131617393
 10
-13.07577054794521
 20
6.9623577896447912
 10
-13.06914978523335
 20
7.0881522811702142
 10
-13.049287497097749
 20
7.2218916879498751
 10
-13.016183683538429
 20
7.3635760099837739
 10
-12.96983834455537
 20
7.5132052472719089
 10
-12.908596289470619
 20
7.6644896752380109
 10
-12.830802327606211
 20
7.8111395693058068
 10
-12.736456458962151
 20
7.9531549294752981
 10
-12.625558683538429
 20
8.090535755746485
 10
-12.496453810657069
 20
8.2203027048990265
 10
-12.347486649640111
 20
8.3394764337125871
 10
-12.178657200487571
 20
8.448056942187165
 10
-11.989965463199439
 20
8.5460442303227566
 10
-11.887591919767241
 20
8.5894929856193656
 10
-11.779094170826561
 20
8.6271485735430957
 10
-11.54372605641978
 20
8.6850802472719089
 10
-11.2838611199791
 20
8.719839251509196
 10
-10.999499361504521
 20
8.731425586254959
 10
-10.81676631065706
 20
8.7261289760854677
 10
-10.6393298699791
 20
8.7102391455769919
 10
-10.467190039470619
 20
8.6837560947295351
 10
-10.300346819131651
 20
8.6466798235430957
 10
-10.141448514046891
 20
8.5986792938820784
 10
-9.9931434293011208
 20
8.5394234676108915
 10
-9.8554315648943369
 20
8.4689123447295351
 10
-9.7283129208265393
 20
8.3871459252380109
 10
-9.6127806115045082
 20
8.2928000565939435
 10
-9.5098277513350205
 20
8.1845505862549608
 10
-9.4194543403180759
 20
8.0623975142210611
 10
-9.3416603784536676
 20
7.926340840492248
 10
-9.2790941708265464
 20
7.7767116032041121
 10
-9.2344040225214599
 20
7.613840840492248
 10
-9.2075899335384079
 20
7.4377285523566554
 10
-9.1986519038773906
 20
7.2483747387973327
 10
-9.2059347428604426
 20
7.0696141455769927
 10
-9.2277832598096019
 20
6.8935018574413993
 10
-9.2641974547248616
 20
6.7200378743905516
 10
-9.3151773276062215
 20
6.5492221964244521
 10
-9.382047030996052
 20
6.3843652048990283
 10
-9.4661307174367231
 20
6.2287772811702151
 10
-9.5674283869282419
 20
6.0824584252380109
 10
-9.6859400394706086
 20
5.9454086371024157
 10
-9.8213346369282455
 20
5.8192831074413993
 10
-9.9732811411655362
 20
5.7057370269329244
 10
-10.141779552182481
 20
5.6047703955769936
 10
-10.32682986997909
 20
5.5163832133736044
 10
-10.481070781570731
 20
5.4593637355497897
 10
-10.64665618928773
 20
5.414533784551244
 10
-10.823591225007901
 20
5.3819614978351868
 10
-11.01188102060908
 20
5.361715012858836
 10
-10.994312268483579
 20
5.2745466336684537
 10
-10.988906141165559
 20
5.1797945205479703
 10
-10.995526903877421
 20
5.0503586095310222
 10
-11.015389192013
 20
4.8951017239378016
 10
-11.04849300557232
 20
4.7140238637683103
 10
-11.09483834455537
 20
4.5071250290225482
 10
-11.21401207336894
 20
4.0383750290225482
 10
-11.359668853029939
 20
3.5113623171581412
 10
-11.698651903877421
 20
2.3143284188530568
 10
-11.87344003947063
 20
1.673438588344581
 10
-12.03763495472487
 20
1.032548757836107
 10
-12.183291734385881
 20
0.3996038425818697
 10
-12.302465463199439
 20
-0.217451242163893
 10
-12.34881080218249
 20
-0.5143924497910115
 10
-12.38191461574182
 20
-0.796105903180842
 10
-12.401776903877421
 20
-1.0625916023333839
 10
-12.408397666589281
 20
-1.3138495472486389
 10
-12.401776903877421
 20
-1.539948593858808
 10
-12.38191461574182
 20
-1.741550818435079
 10
-12.34881080218249
 20
-1.918656220977452
 10
-12.302465463199439
 20
-2.0712648014859281
 10
-12.272506511928251
 20
-2.1370586309350799
 10
-12.235595759809611
 20
-2.194079949791012
 10
-12.1917332068435
 20
-2.242328758053723
 10
-12.140918853029939
 20
-2.2818050557232148
 10
-12.083152698368931
 20
-2.312508842799486
 10
-12.01843474286046
 20
-2.334440119282537
 10
-11.94676498650453
 20
-2.347598885172367
 10
-11.86814342930114
 20
-2.3519851404689782
 10
-11.771480293707921
 20
-2.347847163774063
 10
-11.672168853029961
 20
-2.3354332336893169
 10
-11.465601056419789
 20
-2.2857775133503342
 10
-11.248440039470641
 20
-2.2030179794520288
 10
-11.0206858021825
 20
-2.0871546319944021
 10
-10.733533742390559
 20
-1.913541506504596
 10
-10.445972130409469
 20
-1.7166720998051339
 10
-10.448651903877391
 20
-1.674019038774063
 10
-10.44070698862315
 20
-1.5492176616554181
 10
-10.416872242860441
 20
-1.429050818435079
 10
-10.377147666589259
 20
-1.313518509113045
 10
-10.3215332598096
 20
-1.2026207336893171
 10
-10.25532563269096
 20
-1.0970195684350801
 10
-10.18382139540283
 20
-0.9973770896215204
 10
-10.107020547945201
 20
-0.903693297248639
 10
-10.024923090318079
 20
-0.8159681913164363
 10
-9.8554315648943458
 20
-0.6570698862316897
 10
-9.6859400394706086
 20
-0.5193580218249103
 10
-9.431702751335024
 20
-0.3180868353842321
 10
-8.8940968191316365
 20
0.1480148595310224
 10
-8.4677197004875779
 20
0.5293707917344124
 10
-8.1234400394706121
 20
0.8537881646157677
 10
-7.8321264801485881
 20
1.1490741815649199
 10
-7.5792133445553631
 20
1.431118673090344
 10
-7.3501349547248651
 20
1.715811469700514
 10
-6.8363637682841727
 20
2.3937775713954288
 10
-6.1160247852333214
 20
3.3524640120733951
 10
-5.6287366496401026
 20
3.989381384954751
 10
-5.0143298699790932
 20
4.766658927327633
 10
-4.868673090318083
 20
4.9546885883445819
 10
-4.7071264801485881
 20
5.1374216391920404
 10
-4.5283658869282419
 20
5.3082373171581407
 10
-4.3310671581146778
 20
5.4605148595310222
 10
-4.2251349547248473
 20
5.5287087154632264
 10
-4.1139061411655291
 20
5.5902818086835646
 10
-3.9973807174367231
 20
5.6452341391920404
 10
-3.8755586835384288
 20
5.6935657069886494
 10
-3.747446925063846
 20
5.7329592451242419
 10
-3.612052327606214
 20
5.7610974866496658
 10
-3.469374891165534
 20
5.7779804315649201
 10
-3.3194146157418061
 20
5.7836080798700049
 10
-3.0797430055723192
 20
5.7766562790225473
 10
-2.8692027513350311
 20
5.7558008764801736
 10
-2.6877938530299472
 20
5.7210418722428873
 10
-2.5355163106570728
 20
5.6723792663106849
 10
-2.407073514046898
 20
5.613785516310684
 10
-2.2971688530299481
 20
5.5492330798700058
 10
-2.205802327606222
 20
5.4787219569886494
 10
-2.132973937775716
 20
5.4022521476666157
 10
-2.0760353784536689
 20
5.3218098807174634
 10
-2.03233834455536
 20
5.2393813849547506
 10
-2.0018828360807861
 20
5.1549666603784789
 10
-1.984668853029945
 20
5.0685657069886494
 10
-1.968779022521467
 20
4.9056949442767852
 10
-1.963482412351965
 20
4.766658927327633
 10
-1.9760618615045109
 20
4.6362299019039046
 10
-2.0138002089621452
 20
4.4991801137683112
 10
-2.076697454724862
 20
4.3555095629208527
 10
-2.1647535987926569
 20
4.2052182493615309
 10
-2.3766180055723152
 20
3.903311469700514
 10
-2.609668853029945
 20
3.6119979103784812
 10
-3.070473937775716
 20
3.0876335035988189
 10
-3.1674681115045251
 20
2.9760736519039028
 10
-3.2412896157418061
 20
2.879741554446277
 10
-3.2919384504875651
 20
2.7986372112259379
 10
-3.3194146157418061
 20
2.732760622242886
 10
-3.3074972428604461
 20
2.418936469700514
 10
-3.27174512421638
 20
2.134243673090344
 10
-3.2161307174367271
 20
1.8667648595310229
 10
-3.1446264801485881
 20
1.604582656141192
 10
-2.98043156489436
 20
1.0537351985140719
 10
-2.897009954724854
 20
0.7399110459717003
 10
-2.816236649640103
 20
0.3810657069886494
 10
-2.744732412351965
 20
-0.0294215811469437
 10
-2.6891180055723112
 20
-0.4981715811469432
 10
-2.653365886928245
 20
-1.0410741235198251
 10
-2.641448514046886
 20
-1.674019038774063
 10
-2.447129128453668
 20
-1.5498797379266041
 10
-2.2455269038773982
 20
-1.4316991235198251
 10
-2.036641840318079
 20
-1.319477195553723
 10
-1.820473937775716
 20
-1.2132139540283
 10
-0.9041603784536676
 20
-0.7841885302994864
 10
-0.4208447004875673
 20
-0.5498135302994864
 10
0.0757125029022632
 20
-0.2916037845367754
 10
0.5781968668773914
 20
0.0051389500941958
 10
0.5038191859745025
 20
0.6191416720443522
 10
0.4511285671064087
 20
1.266086524578425
 10
0.4197726172995191
 20
1.9459248723143361
 10
0.4093989435802428
 20
2.6586080798700049
 10
0.4226404690039729
 20
3.3153877408869539
 10
0.4623650452751633
 20
4.0145402832598371
 10
0.5259243673090488
 20
4.7322309612259383
 10
0.6106701300209068
 20
5.4446250290225482
 10
0.3286256384954918
 20
5.485673757836107
 10
0.1180853842581939
 20
5.5240741815649201
 10
-0.2526773276061931
 20
5.5982267239378034
 10
-0.7505586835384008
 20
5.6776758764801762
 10
-1.6244993615045189
 20
5.7836080798700049
 10
-1.7443351665892619
 20
5.8031393298700049
 10
-1.8496052937079059
 20
5.8299534188530568
 10
-1.9403097428604481
 20
5.8640503468191572
 10
-2.016448514046886
 20
5.9054301137683094
 10
-2.080669912351981
 20
5.9524375290225473
 10
-2.1356222428604599
 20
6.0034174019039037
 10
-2.1813055055723249
 20
6.0583697324123804
 10
-2.2177197004875779
 20
6.1172945205479721
 10
-2.2680374970977439
 20
6.2417648595310222
 10
-2.2918722428604501
 20
6.3715318086835637
 10
-2.302465463199439
 20
6.5992860459717004
 10
-2.2895549759113019
 20
6.6989285247852592
 10
-2.2508235140468931
 20
6.7859915544462757
 10
-2.1862710776062171
 20
6.8604751349547506
 10
-2.095897666589281
 20
6.9223792663106849
 10
-1.985330929301141
 20
6.9743522535988198
 10
-1.860198514046896
 20
7.0190424019039028
 10
-1.72050042082655
 20
7.0564497112259366
 10
-1.566236649640103
 20
7.0865741815649201
 10
-1.2272535987926469
 20
7.1276229103784798
 10
-0.8564908869282419
 20
7.1448368934293276
 10
-0.4777832598095983
 20
7.1461610459717004
 10
-0.1149654631994395
 20
7.1395402832598371
 10
0.5206277571395503
 20
7.1236504527513613
 10
0.7576510622243013
 20
7.1249746052937351
 10
0.9072802995124505
 20
7.1395402832598371
 10
1.0598888800209161
 20
7.848955007836107
 10
1.231697672393796
 20
8.5471144358022073
 10
1.422706676631083
 20
9.2340185671581416
 10
1.632915892732768
 20
9.9096674019039046
 10
1.8593459774785359
 20
10.56115045275136
 10
2.099017587648031
 20
11.17555723241238
 10
2.3519307232412521
 20
11.752887740886949
 10
2.6180853842581939
 20
12.29314197817509
 10
2.7560455272666728
 20
12.547544785378481
 10
2.8971505325632858
 20
12.78903710529373
 10
3.0414004001480328
 20
13.017618937920849
 10
3.1887951300209139
 20
13.233290283259841
 10
3.3393347221819289
 20
13.43605114131068
 10
3.4930191766310781
 20
13.625901512073391
 10
3.6498484933683608
 20
13.80284139554797
 10
3.809822672393778
 20
13.96687079173441
 10
3.9723623969700528
 20
14.114596559742891
 10
4.1368883503598841
 20
14.242625558683571
 10
4.3034005325632751
 20
14.35095778855645
 10
4.471898943580225
 20
14.439593249361531
 10
4.6423835834107336
 20
14.50853194109882
 10
4.8148544520548029
 20
14.557773863768309
 10
4.9893115495124309
 20
14.58731901737
 10
5.1657548757836196
 20
14.597167401903899
 10
5.2783906014192166
 20
14.59319494427678
 10
5.3885435410378637
 20
14.581277571395431
 10
5.4962136946395601
 20
14.561415283259841
 10
5.6014010622243049
 20
14.53360807987001
 10
5.7041056437920998
 20
14.497855961225939
 10
5.8043274393429432
 20
14.454158927327629
 10
5.9020664488768366
 20
14.40251697817509
 10
5.9973226723937776
 20
14.342930113768309
 10
6.1784005325632769
 20
14.205218249361531
 10
6.3455747910378584
 20
14.046319944276791
 10
6.498845447817521
 20
13.866235198514071
 10
6.6382125029022632
 20
13.6649640120734
 10
6.7630138800209032
 20
13.44416157563272
 10
6.8725875029022596
 20
13.20548307987001
 10
6.9669333715463306
 20
12.948928524785259
 10
7.0460514859531136
 20
12.674497910378481
 10
7.1086176935802357
 20
12.388149923090349
 10
7.1533078418853222
 20
12.095843249361531
 10
7.1801219308683741
 20
11.79757788919204
 10
7.1890599605293906
 20
11.49335384258187
 10
7.1797908927327816
 20
11.230178524785259
 10
7.151983689342952
 20
10.9597203680056
 10
7.1056383503598983
 20
10.681979372242891
 10
7.0407548757836196
 20
10.396955537497121
 10
6.9599815706988784
 20
10.10696613071746
 10
6.8659667401904017
 20
9.8143284188530568
 10
6.7587103842581948
 20
9.5190424019039028
 10
6.6382125029022632
 20
9.2211080798700049
 10
6.5054662105293861
 20
8.9208564908869548
 10
6.3614646215463404
 20
8.6186186730903458
 10
6.2062077359531234
 20
8.3143946264801762
 10
6.0396955537497377
 20
8.0081843510564461
 10
5.6861468249361629
 20
7.3964258764801754
 10
5.3140599605293906
 20
6.7899640120733959
 10
5.6318565706988863
 20
6.7740741815649201
 10
6.1456277571395503
 20
6.7581843510564461
 10
6.7759243673090452
 20
6.7317013002089894
 10
7.4327040283260146
 20
6.7052182493615327
 10
8.0259243673090452
 20
6.6840318086835637
 10
8.4814328418853222
 20
6.6628453680055983
 10
8.5800822062921096
 20
6.6456313849547506
 10
8.6641658927327896
 20
6.6045826561411918
 10
8.7336839012073622
 20
6.5396991815649201
 10
8.7886362317158273
 20
6.4509809612259366
 10
8.8303470368005783
 20
6.3437246052937333
 10
8.8601404690039693
 20
6.2232267239378016
 10
8.8780165283260004
 20
6.0894873171581416
 10
8.8839752147666786
 20
5.9425063849547524
 10
8.8707336893429485
 20
5.7657320205479721
 10
8.8310091130717616
 20
5.6061716391920404
 10
8.8012156808683724
 20
5.5328466921581416
 10
8.764801485953118
 20
5.4638252408869548
 10
8.721766528326004
 20
5.3991072853784789
 10
8.6721108079870248
 20
5.338692825632716
 10
8.5635302995124434
 20
5.2367330798700058
 10
8.4496531808683777
 20
5.1639046900394971
 10
8.3304794520548189
 20
5.1202076561411918
 10
8.2060091130717581
 20
5.1056419781750897
 10
4.1382125029022632
 20
5.1056419781750897
 10
3.5185091130717581
 20
4.2740741815649201
 10
2.9411786045971842
 20
3.5378453680055979
 10
2.867026062224312
 20
2.2454724866496671
 10
2.845839621546332
 20
1.6787351985140719
 10
2.8246531808683808
 20
1.101404690039496
 10
2.808763350359897
 20
0.5505572324123786
 10
2.8034667401904021
 20
0.063269096819158
 10
2.8100875029022672
 20
-0.2114925557232149
 10
2.8299497910378619
 20
-0.4637436150452486
 10
2.8630536045971868
 20
-0.6934840811469434
 10
2.9093989435802432
 20
-0.9007139540282996
 10
2.9683237317158242
 20
-1.0877505006384689
 10
3.0391658927327678
 20
-1.2569109879266049
 10
3.1219254266310759
 20
-1.408195415892707
 10
3.2166023334107479
 20
-1.5416037845367749
 10
3.3228655749361651
 20
-1.6574671319944021
 10
3.440384113071755
 20
-1.7561164964011811
 10
3.5691579478175188
 20
-1.8375518777571129
 10
3.7091870791734611
 20
-1.901773276062197
 10
3.8591473545971842
 20
-1.950435881994401
 10
4.0177146215463324
 20
-1.985194886231689
 10
4.1848888800209068
 20
-2.0060502887740621
 10
4.3606701300209068
 20
-2.0130020896215188
 10
4.4788507444276924
 20
-2.0063813269096551
 10
4.6109349605293906
 20
-1.9865190387740621
 10
4.756922778326004
 20
-1.9534152252147401
 10
4.9168141978175299
 20
-1.907069886231689
 10
5.2663904690039622
 20
-1.7812753947062661
 10
5.6477464012073426
 20
-1.615756326909656
 10
6.0555853842581966
 20
-1.4131609879266049
 10
6.4846108079870248
 20
-1.1761376828418579
 10
6.9215811469700554
 20
-0.9099830218249101
 10
7.3532548757836196
 20
-0.6199936150452494
 10
7.6275303315197078
 20
-0.4205108518831293
 10
7.8928277783306564
 20
-0.2128651199080682
 10
7.8813076840524019
 20
0.0148364539293568
 10
7.8776192825633018
 20
0.24335384258187
 10
7.8830814118005899
 20
0.5322673754208529
 10
7.8994677995124523
 20
0.8163808552937343
 10
7.9267784456988917
 20
1.095694282200514
 10
7.9650133503599072
 20
1.370207656141192
 10
8.0141725134954989
 20
1.6399209771157679
 10
8.0742559351056684
 20
1.904834245124243
 10
8.1452636151904141
 20
2.1649474601666161
 10
8.2271955537497377
 20
2.420260622242886
 10
8.3193069149785526
 20
2.6690357811411922
 10
8.4208528630717723
 20
2.9095349866496658
 10
8.5318333980294003
 20
3.1417582387683098
 10
8.6522485198514332
 20
3.3657055374971239
 10
8.7820982285378761
 20
3.581376882836107
 10
8.9213825240887239
 20
3.7887722747852601
 10
9.0701014065039818
 20
3.987891713344581
 10
9.228254875783648
 20
4.1787351985140724
 10
9.3956774128599161
 20
4.3604751349547506
 10
9.5722034986649973
 20
4.5322839273276312
 10
9.7578331331988934
 20
4.6941615756327169
 10
9.9525663164616027
 20
4.8461080798700049
 10
10.15640304845313
 20
4.9881234400394963
 10
10.369343329173461
 20
5.1202076561411918
 10
10.59138715862262
 20
5.2423607281750897
 10
10.822534536800591
 20
5.3545826561411918
 10
11.06187510883449
 20
5.4551354898276312
 10
11.30849851985144
 20
5.5422812790225464
 10
11.56240476985144
 20
5.6160200237259366
 10
11.82359385883449
 20
5.6763517239378016
 10
12.0920657868006
 20
5.7232763796581407
 10
12.36782055374975
 20
5.7567939908869539
 10
12.650858159681951
 20
5.7769045576242419
 10
12.94117860459721
 20
5.7836080798700049
 10
13.19078135883449
 20
5.7787252673700049
 10
13.43641165544466
 20
5.7640768298700049
 10
13.67806949442771
 20
5.7396627673700049
 10
13.915754875783639
 20
5.7054830798700049
 10
14.14946779951245
 20
5.6615377673700049
 10
14.37920826561415
 20
5.6078268298700049
 10
14.60497627408872
 20
5.5443502673700049
 10
14.82677182493617
 20
5.4711080798700049
 10
15.25943866815652
 20
5.3016165544462774
 10
15.678201909681951
 20
5.1056419781750906
 10
16.083061549512461
 20
4.8831843510564461
 10
16.47401758764806
 20
4.634243673090344
 10
16.85140106222433
 20
4.3624613637683103
 10
17.215543011376869
 20
4.07147884258187
 10
17.56644343510569
 20
3.7612961095310218
 10
17.90410233341078
 20
3.4319131646157679
 10
18.193571129093201
 20
3.1287717215266322
 10
18.473860725987929
 20
2.8212063492644979
 10
18.744666927968169
 20
2.5089695904967981
 10
19.00568553890713
 20
2.1918139878909622
 10
19.083463122024419
 20
2.487519683901469
 10
19.169865623367571
 20
2.7767683963429728
 10
19.26424838280132
 20
3.0597299529769599
 10
19.36596674019043
 20
3.3365741815649201
 10
19.516258053749748
 20
3.6901229103784798
 10
19.686411655444669
 20
4.0198368934293276
 10
19.87642754527517
 20
4.3257161307174634
 10
19.978883848241281
 20
4.4697177197005136
 10
20.086305723241281
 20
4.6077606222428873
 10
20.198941448876869
 20
4.7393482811411927
 10
20.317039303749741
 20
4.8639841391920404
 10
20.440599287859911
 20
4.9816681963954297
 10
20.569621401207371
 20
5.0924004527513613
 10
20.704105643792118
 20
5.1961809082598354
 10
20.84405201561415
 20
5.2930095629208527
 10
20.989460516673471
 20
5.3828864167344124
 10
21.14033114697008
 20
5.4658114697005136
 10
21.297905299512461
 20
5.5402950502089876
 10
21.463424367309059
 20
5.6048474866496658
 10
21.636888350359911
 20
5.6594687790225482
 10
21.81829724866499
 20
5.704158927327633
 10
22.007651062224319
 20
5.738917931564921
 10
22.20494979103788
 20
5.7637457917344106
 10
22.410193435105679
 20
5.778642507836107
 10
22.623381994427721
 20
5.7836080798700049
 10
22.941178604597201
 20
5.7726838213954279
 10
23.248381994427699
 20
5.7399110459717004
 10
23.544992163919229
 20
5.6852897535988181
 10
23.83100911307179
 20
5.6088199442767852
 10
23.969217534681949
 20
5.5617297694886494
 10
24.103122460529409
 20
5.5078533129208527
 10
24.23272389061416
 20
5.4471905745733942
 10
24.358021824936191
 20
5.3797415544462774
 10
24.47901626349551
 20
5.3055062525394963
 10
24.595707206292129
 20
5.2244846688530568
 10
24.708094653326029
 20
5.1366768033869548
 10
24.816178604597209
 20
5.0420826561411918
 10
24.919296983834499
 20
4.9405367080479721
 10
25.0167877147667
 20
4.8318734400394963
 10
25.108650797393821
 20
4.7160928521157679
 10
25.194886231715859
 20
4.5931949442767852
 10
25.2754940177328
 20
4.4631797165225482
 10
25.350474155444669
 20
4.326047168853056
 10
25.419826644851451
 20
4.1817973012683112
 10
25.483551485953139
 20
4.0304301137683112
 10
25.54065556434297
 20
3.8711180110140728
 10
25.59014576561416
 20
3.7030333976666152
 10
25.6320220897667
 20
3.526176273725937
 10
25.666284536800589
 20
3.3405466391920391
 10
25.692933106715849
 20
3.1461444940649201
 10
25.71196779951245
 20
2.942969838344581
 10
25.723388615190419
 20
2.7310226720310218
 10
25.727195553749741
 20
2.5103029951242428
 10
25.713954028326011
 20
2.153112846819158
 10
25.674229452054831
 20
1.801881384954751
 10
25.608021824936191
 20
1.456608609531022
 10
25.51533114697008
 20
1.117294520547971
 10
25.458640866249748
 20
0.9500375025394968
 10
25.394502227478569
 20
0.7846011942767852
 10
25.32291523065653
 20
0.620985595759836
 10
25.243879875783652
 20
0.4591907069886496
 10
25.063464091885351
 20
0.1410630586835648
 10
24.853254875783652
 20
-0.1697817506384691
 10
24.736894971122631
 20
-0.322142052545249
 10
24.61292118934297
 20
-0.4720195684350798
 10
24.34213199442771
 20
-0.7643262421638934
 10
24.040887291037869
 20
-1.0467017718249101
 10
23.709187079173461
 20
-1.31914615741813
 10
23.531667878961599
 20
-1.451147613985927
 10
23.346038244427699
 20
-1.5796731701299951
 10
22.9504476723938
 20
-1.826296581146944
 10
22.522415363071769
 20
-2.0590163904689791
 10
22.061941316461599
 20
-2.2778325980960972
 10
22.12550063849551
 20
-2.5002902252147412
 10
22.6485408927328
 20
-2.487048699791012
 10
23.147746401207382
 20
-2.447324123519826
 10
23.62311716391924
 20
-2.3811164964011819
 10
23.85186451561415
 20
-2.338081538774063
 10
24.074653180868381
 20
-2.2884258184350799
 10
24.5040096427328
 20
-2.1732245472486391
 10
24.912841740190419
 20
-2.0394851404689782
 10
25.301149473241271
 20
-1.8872075980960969
 10
25.668932841885351
 20
-1.7163919201299951
 10
25.954644473673461
 20
-1.5644995000247679
 10
26.22879260515673
 20
-1.402324906916032
 10
26.491253370919161
 20
-1.2297056448173149
 10
26.741902905544752
 20
-1.046479217742148
 10
26.749441316461631
 20
-0.1644851404689778
 10
26.761689727478569
 20
0.4257558552937341
 10
26.782545130020939
 20
1.0471144358022091
 10
26.850076909681949
 20
2.3831843510564461
 10
26.897084324936191
 20
3.091605961225937
 10
26.953360807987039
 20
3.8185657069886489
 10
27.018906358834499
 20
4.564063588344581
 10
27.093720977478569
 20
5.3280996052937351
 10
27.181446083410759
 20
6.099087423090344
 10
27.28572309612262
 20
6.8654407069886494
 10
27.40655201561415
 20
7.6271594569886494
 10
27.543932841885351
 20
8.384243673090344
 10
27.69885868934297
 20
9.1304036307174616
 10
27.872322672393821
 20
9.8593496052937333
 10
28.06432479103789
 20
10.571081596819161
 10
28.27486504527516
 20
11.26559960529373
 10
28.38774904951245
 20
11.603424022666619
 10
28.506591740190419
 20
11.930986257836111
 10
28.631393117309059
 20
12.248286310802211
 10
28.762153180868381
 20
12.55532418156492
 10
28.898871930868381
 20
12.85209987012424
 10
29.041549367309059
 20
13.138613376480169
 10
29.190185490190419
 20
13.41486470063272
 10
29.34478029951245
 20
13.68085384258187
 10
29.505747592944651
 20
13.93500837118356
 10
29.67350116815652
 20
14.17575585529373
 10
29.848041025148049
 20
14.40309629491238
 10
30.029367163919229
 20
14.6170296900395
 10
30.21747958447008
 20
14.81755604067509
 10
30.412378286800589
 20
15.004675346819161
 10
30.614063270910759
 20
15.1783876084717
 10
30.822534536800589
 20
15.33869282563272
 10
31.038371401207371
 20
15.48269441461577
 10
31.262153180868381
 20
15.60749579173441
 10
31.493879875783641
 20
15.71309695698865
 10
31.733551485953129
 20
15.799497910378481
 10
31.981168011376859
 20
15.866698651903899
 10
32.236729452054831
 20
15.91469918156492
 10
32.500235807987039
 20
15.943499499361531
  0
ENDSEC
  0
SECTION
  2
OBJECTS
  0
DICTIONARY
  5
C
100
AcDbDictionary
280
0
281
1
  3
ACAD_GROUP
350
D
  3
ACAD_LAYOUT
350
1A
  3
ACAD_MLINESTYLE
350
17
  3
ACAD_PLOTSETTINGS
350
19
  3
ACAD_PLOTSTYLENAME
350
E
  3
AcDbVariableDictionary
350
4D
  0
DICTIONARY
  5
D
100
AcDbDictionary
280
0
281
1
  0
ACDBDICTIONARYWDFLT
  5
E
100
AcDbDictionary
281
1
  3
Normal
350
F
100
AcDbDictionaryWithDefault
340
F
  0
ACDBPLACEHOLDER
  5
F
  0
DICTIONARY
  5
17
100
AcDbDictionary
280
0
281
1
  3
Standard
350
18
  0
MLINESTYLE
  5
18
100
AcDbMlineStyle
  2
STANDARD
 70
0
  3

 62
256
 51
90.0
 52
90.0
 71
2
 49
0.5
 62
256
  6
BYLAYER
 49
-0.5
 62
256
  6
BYLAYER
  0
DICTIONARY
  5
19
100
AcDbDictionary
280
0
281
1
  0
DICTIONARY
  5
1A
100
AcDbDictionary
281
1
  3
Layout1
350
1E
  3
Layout2
350
26
  3
Model
350
22
  0
LAYOUT
  5
1E
100
AcDbPlotSettings
  1

  2
C:\Program Files\AutoCAD 2002\plotters\DWF ePlot (optimized for plotting).pc3
  4

  6

 40
0.0
 41
0.0
 42
0.0
 43
0.0
 44
0.0
 45
0.0
 46
0.0
 47
0.0
 48
0.0
 49
0.0
140
0.0
141
0.0
142
1.0
143
1.0
 70
688
 72
0
 73
0
 74
5
  7

 75
16
147
1.0
148
0.0
149
0.0
100
AcDbLayout
  1
Layout1
 70
1
 71
1
 10
0.0
 20
0.0
 11
420.0
 21
297.0
 12
0.0
 22
0.0
 32
0.0
 14
100000000000000000000.0
 24
100000000000000000000.0
 34
100000000000000000000.0
 15
-100000000000000000000.0
 25
-100000000000000000000.0
 35
-100000000000000000000.0
146
0.0
 13
0.0
 23
0.0
 33
0.0
 16
1.0
 26
0.0
 36
0.0
 17
0.0
 27
1.0
 37
0.0
 76
0
330
1B
  0
LAYOUT
  5
22
100
AcDbPlotSettings
  1

  2
C:\Program Files\AutoCAD 2002\plotters\DWF ePlot (optimized for plotting).pc3
  4

  6

 40
0.0
 41
0.0
 42
0.0
 43
0.0
 44
0.0
 45
0.0
 46
0.0
 47
0.0
 48
0.0
 49
0.0
140
0.0
141
0.0
142
1.0
143
1.0
 70
1712
 72
0
 73
0
 74
0
  7

 75
0
147
1.0
148
0.0
149
0.0
100
AcDbLayout
  1
Model
 70
1
 71
0
 10
0.0
 20
0.0
 11
12.0
 21
9.0
 12
0.0
 22
0.0
 32
0.0
 14
0.0
 24
0.0
 34
0.0
 15
0.0
 25
0.0
 35
0.0
146
0.0
 13
0.0
 23
0.0
 33
0.0
 16
1.0
 26
0.0
 36
0.0
 17
0.0
 27
1.0
 37
0.0
 76
0
330
1F
  0
LAYOUT
  5
26
100
AcDbPlotSettings
  1

  2
C:\Program Files\AutoCAD 2002\plotters\DWF ePlot (optimized for plotting).pc3
  4

  6

 40
0.0
 41
0.0
 42
0.0
 43
0.0
 44
0.0
 45
0.0
 46
0.0
 47
0.0
 48
0.0
 49
0.0
140
0.0
141
0.0
142
1.0
143
1.0
 70
688
 72
0
 73
0
 74
5
  7

 75
16
147
1.0
148
0.0
149
0.0
100
AcDbLayout
  1
Layout2
 70
1
 71
2
 10
0.0
 20
0.0
 11
12.0
 21
9.0
 12
0.0
 22
0.0
 32
0.0
 14
0.0
 24
0.0
 34
0.0
 15
0.0
 25
0.0
 35
0.0
146
0.0
 13
0.0
 23
0.0
 33
0.0
 16
1.0
 26
0.0
 36
0.0
 17
0.0
 27
1.0
 37
0.0
 76
0
330
23
  0
DICTIONARY
  5
4D
100
AcDbDictionary
281
1
  3
DIMASSOC
350
4F
  3
HIDETEXT
350
4E
  0
DICTIONARYVAR
  5
4E
100
DictionaryVariables
280
0
  1
2
  0
DICTIONARYVAR
  5
4F
100
DictionaryVariables
280
0
  1
1
  0
ENDSEC
  0
EOF
