999
dxflib 2.0.4.8
  0
SECTION
  2
HEADER
  9
$ACADVER
  1
AC1015
  9
$HANDSEED
  5
FFFF
  9
$USERR4
 40
0.0
  9
$DIMTAD
 70
0
  9
$VISRETAIN
 70
1
  9
$TILEMODE
 70
1
  9
$SHADEDIF
 70
70
  9
$USERR5
 40
0.0
  9
$UCSYDIR
 10
0.0
 20
1.0
 30
0.0
  9
$ATTREQ
 70
1
  9
$CHAMFERA
 40
0.5
  9
$MENU
  1
.
  9
$CLAYER
  8
0
  9
$UCSXDIR
 10
1.0
 20
0.0
 30
0.0
  9
$CHAMFERB
 40
0.5
  9
$DIMASZ
 40
0.18
  9
$TRACEWID
 40
0.05
  9
$REGENMODE
 70
1
  9
$ORTHOMODE
 70
0
  9
$EXTMIN
 10
-37.188294698278717
 20
-6.9515715450508857
 30
0.0
  9
$PUCSYDIR
 10
0.0
 20
1.0
 30
0.0
  9
$ANGBASE
 50
0.0
  9
$USRTIMER
 70
1
  9
$SKETCHINC
 40
0.1
  9
$DIMGAP
 40
0.09
  9
$DIMTFAC
 40
1.0
  9
$DIMSAH
 70
0
  9
$DIMALT
 70
0
  9
$DIMSHO
 70
1
  9
$PUCSXDIR
 10
1.0
 20
0.0
 30
0.0
  9
$SURFTYPE
 70
6
  9
$SPLFRAME
 70
0
  9
$DIMTSZ
 40
0.0
  9
$LIMMIN
 10
0.0
 20
0.0
  9
$SURFTAB1
 70
6
  9
$SPLINESEGS
 70
8
  9
$AUPREC
 70
0
  9
$LUNITS
 70
2
  9
$DWGCODEPAGE
  3
ansi_1252
  9
$UNITMODE
 70
0
  9
$USERI1
 70
0
  9
$SURFTAB2
 70
6
  9
$SKPOLY
 70
0
  9
$ELEVATION
 40
0.0
  9
$DIMCEN
 40
0.09
  9
$DIMRND
 40
0.0
  9
$INSBASE
 10
0.0
 20
0.0
 30
0.0
  9
$USERI2
 70
0
  9
$UCSORG
 10
0.0
 20
0.0
 30
0.0
  9
$PELEVATION
 40
0.0
  9
$DIMEXO
 40
0.0625
  9
$TEXTSIZE
 40
0.2
  9
$DRAGMODE
 70
2
  9
$FILLMODE
 70
1
  9
$EXTMAX
 10
37.663400216975511
 20
13.44037760749147
 30
0.0
  9
$INSUNITS
 70
4
  9
$USERI3
 70
0
  9
$SURFU
 70
6
  9
$ANGDIR
 70
0
  9
$TDUSRTIMER
 40
0.0000000116
  9
$DIMZIN
 70
0
  9
$DIMDLE
 40
0.0
  9
$DIMSCALE
 40
1.0
  9
$WORLDVIEW
 70
1
  9
$USERI4
 70
0
  9
$SURFV
 70
6
  9
$OSMODE
 70
37
  9
$QTEXTMODE
 70
0
  9
$LIMMAX
 10
12.0
 20
9.0
  9
$USERI5
 70
0
  9
$HANDLING
 70
1
  9
$PDMODE
 70
0
  9
$LIMCHECK
 70
0
  9
$THICKNESS
 40
0.0
  9
$DIMSE1
 70
0
  9
$DIMLIM
 70
0
  9
$DIMTXT
 40
0.18
  9
$ATTMODE
 70
1
  9
$PEXTMAX
 10
-100000000000000000000.0
 20
-100000000000000000000.0
 30
-100000000000000000000.0
  9
$PEXTMIN
 10
100000000000000000000.0
 20
100000000000000000000.0
 30
100000000000000000000.0
  9
$PUCSORG
 10
0.0
 20
0.0
 30
0.0
  9
$SPLINETYPE
 70
6
  9
$TDINDWG
 40
0.0000000116
  9
$LUPREC
 70
4
  9
$DIMSOXD
 70
0
  9
$DIMLFAC
 40
1.0
  9
$DIMSE2
 70
0
  9
$DIMTOH
 70
1
  9
$CELTYPE
  6
BYLAYER
  9
$PLIMCHECK
 70
0
  9
$PLINEWID
 40
0.0
  9
$DIMSTYLE
  2
STANDARD
  9
$DIMTVP
 40
0.0
  9
$DIMASO
 70
1
  9
$DIMTM
 40
0.0
  9
$DIMDLI
 40
0.38
  9
$CECOLOR
 62
256
  9
$PLIMMAX
 10
12.0
 20
9.0
  9
$PLIMMIN
 10
0.0
 20
0.0
  9
$MAXACTVP
 70
64
  9
$TDUPDATE
 40
2456264.6660658801
  9
$FILLETRAD
 40
0.5
  9
$DIMCLRT
 70
0
  9
$DIMALTD
 70
2
  9
$DIMTIH
 70
1
  9
$LTSCALE
 40
1.0
  9
$USERR1
 40
0.0
  9
$ATTDIA
 70
0
  9
$PDSIZE
 40
0.0
  9
$DIMCLRD
 70
0
  9
$DIMEXE
 40
0.18
  9
$PSLTSCALE
 70
1
  9
$PLINEGEN
 70
0
  9
$SHADEDGE
 70
3
  9
$USERR2
 40
0.0
  9
$COORDS
 70
1
  9
$TDCREATE
 40
2454910.5
  9
$DIMCLRE
 70
0
  9
$DIMTOFL
 70
0
  9
$DIMALTF
 40
25.399999999999999
  9
$DIMTOL
 70
0
  9
$DIMTP
 40
0.0
  9
$TEXTSTYLE
  7
STANDARD
  9
$USERR3
 40
0.0
  9
$AUNITS
 70
0
  9
$DIMTIX
 70
0
  9
$MIRRTEXT
 70
1
  0
ENDSEC
  0
SECTION
  2
TABLES
  0
TABLE
  2
VPORT
  5
8
100
AcDbSymbolTable
 70
1
  0
VPORT
  5
30
100
AcDbSymbolTableRecord
100
AcDbViewportTableRecord
  2
*Active
 70
0
 10
0.0
 20
0.0
 11
1.0
 21
1.0
 12
286.30555555555549
 22
148.5
 13
0.0
 23
0.0
 14
10.0
 24
10.0
 15
10.0
 25
10.0
 16
0.0
 26
0.0
 36
1.0
 17
0.0
 27
0.0
 37
0.0
 40
297.0
 41
1.92798353909465
 42
50.0
 43
0.0
 44
0.0
 50
0.0
 51
0.0
 71
0
 72
100
 73
1
 74
3
 75
1
 76
1
 77
0
 78
0
281
0
 65
1
110
0.0
120
0.0
130
0.0
111
1.0
121
0.0
131
0.0
112
0.0
122
1.0
132
0.0
 79
0
146
0.0
  0
ENDTAB
  0
TABLE
  2
LTYPE
  5
5
100
AcDbSymbolTable
 70
21
  0
LTYPE
  5
14
100
AcDbSymbolTableRecord
100
AcDbLinetypeTableRecord
  2
ByBlock
 70
0
  3

 72
65
 73
0
 40
0.0
  0
LTYPE
  5
15
100
AcDbSymbolTableRecord
100
AcDbLinetypeTableRecord
  2
ByLayer
 70
0
  3

 72
65
 73
0
 40
0.0
  0
LTYPE
  5
16
100
AcDbSymbolTableRecord
100
AcDbLinetypeTableRecord
  2
CONTINUOUS
 70
0
  3
Solid line
 72
65
 73
0
 40
0.0
  0
LTYPE
  5
31
100
AcDbSymbolTableRecord
100
AcDbLinetypeTableRecord
  2
DOT
 70
0
  3
Dot . . . . . . . . . . . . . . . . . . . . . .
 72
65
 73
2
 40
6.3499999999999996
 49
0.0
 74
0
 49
-6.3499999999999996
 74
0
  0
LTYPE
  5
32
100
AcDbSymbolTableRecord
100
AcDbLinetypeTableRecord
  2
DOT2
 70
0
  3
Dot (.5x) .....................................
 72
65
 73
2
 40
3.1749999999999998
 49
0.0
 74
0
 49
-3.1749999999999998
 74
0
  0
LTYPE
  5
33
100
AcDbSymbolTableRecord
100
AcDbLinetypeTableRecord
  2
DOTX2
 70
0
  3
Dot (2x) .  .  .  .  .  .  .  .  .  .  .  .  .
 72
65
 73
2
 40
12.699999999999999
 49
0.0
 74
0
 49
-12.699999999999999
 74
0
  0
LTYPE
  5
34
100
AcDbSymbolTableRecord
100
AcDbLinetypeTableRecord
  2
DASHED
 70
0
  3
Dashed __ __ __ __ __ __ __ __ __ __ __ __ __ _
 72
65
 73
2
 40
19.050000000000001
 49
12.699999999999999
 74
0
 49
-6.3499999999999996
 74
0
  0
LTYPE
  5
35
100
AcDbSymbolTableRecord
100
AcDbLinetypeTableRecord
  2
DASHED2
 70
0
  3
Dashed (.5x) _ _ _ _ _ _ _ _ _ _ _ _ _ _ _ _ _
 72
65
 73
2
 40
9.5250000000000004
 49
6.3499999999999996
 74
0
 49
-3.1749999999999998
 74
0
  0
LTYPE
  5
36
100
AcDbSymbolTableRecord
100
AcDbLinetypeTableRecord
  2
DASHEDX2
 70
0
  3
Dashed (2x) ____  ____  ____  ____  ____  ___
 72
65
 73
2
 40
38.100000000000001
 49
25.399999999999999
 74
0
 49
-12.699999999999999
 74
0
  0
LTYPE
  5
37
100
AcDbSymbolTableRecord
100
AcDbLinetypeTableRecord
  2
DASHDOT
 70
0
  3
Dash dot __ . __ . __ . __ . __ . __ . __ . __
 72
65
 73
4
 40
25.399999999999999
 49
12.699999999999999
 74
0
 49
-6.3499999999999996
 74
0
 49
0.0
 74
0
 49
-6.3499999999999996
 74
0
  0
LTYPE
  5
38
100
AcDbSymbolTableRecord
100
AcDbLinetypeTableRecord
  2
DASHDOT2
 70
0
  3
Dash dot (.5x) _._._._._._._._._._._._._._._.
 72
65
 73
4
 40
12.699999999999999
 49
6.3499999999999996
 74
0
 49
-3.1749999999999998
 74
0
 49
0.0
 74
0
 49
-3.1749999999999998
 74
0
  0
LTYPE
  5
39
100
AcDbSymbolTableRecord
100
AcDbLinetypeTableRecord
  2
DASHDOTX2
 70
0
  3
Dash dot (2x) ____  .  ____  .  ____  .  ___
 72
65
 73
4
 40
50.799999999999997
 49
25.399999999999999
 74
0
 49
-12.699999999999999
 74
0
 49
0.0
 74
0
 49
-12.699999999999999
 74
0
  0
LTYPE
  5
3A
100
AcDbSymbolTableRecord
100
AcDbLinetypeTableRecord
  2
DIVIDE
 70
0
  3
Divide ____ . . ____ . . ____ . . ____ . . ____
 72
65
 73
6
 40
31.75
 49
12.699999999999999
 74
0
 49
-6.3499999999999996
 74
0
 49
0.0
 74
0
 49
-6.3499999999999996
 74
0
 49
0.0
 74
0
 49
-6.3499999999999996
 74
0
  0
LTYPE
  5
3B
100
AcDbSymbolTableRecord
100
AcDbLinetypeTableRecord
  2
DIVIDE2
 70
0
  3
Divide (.5x) __..__..__..__..__..__..__..__.._
 72
65
 73
6
 40
15.875
 49
6.3499999999999996
 74
0
 49
-3.1749999999999998
 74
0
 49
0.0
 74
0
 49
-3.1749999999999998
 74
0
 49
0.0
 74
0
 49
-3.1749999999999998
 74
0
  0
LTYPE
  5
3C
100
AcDbSymbolTableRecord
100
AcDbLinetypeTableRecord
  2
DIVIDEX2
 70
0
  3
Divide (2x) ________  .  .  ________  .  .  _
 72
65
 73
6
 40
63.5
 49
25.399999999999999
 74
0
 49
-12.699999999999999
 74
0
 49
0.0
 74
0
 49
-12.699999999999999
 74
0
 49
0.0
 74
0
 49
-12.699999999999999
 74
0
  0
LTYPE
  5
3D
100
AcDbSymbolTableRecord
100
AcDbLinetypeTableRecord
  2
CENTER
 70
0
  3
Center ____ _ ____ _ ____ _ ____ _ ____ _ ____
 72
65
 73
4
 40
50.799999999999997
 49
31.75
 74
0
 49
-6.3499999999999996
 74
0
 49
6.3499999999999996
 74
0
 49
-6.3499999999999996
 74
0
  0
LTYPE
  5
3E
100
AcDbSymbolTableRecord
100
AcDbLinetypeTableRecord
  2
CENTER2
 70
0
  3
Center (.5x) ___ _ ___ _ ___ _ ___ _ ___ _ ___
 72
65
 73
4
 40
28.574999999999999
 49
19.050000000000001
 74
0
 49
-3.1749999999999998
 74
0
 49
3.1749999999999998
 74
0
 49
-3.1749999999999998
 74
0
  0
LTYPE
  5
3F
100
AcDbSymbolTableRecord
100
AcDbLinetypeTableRecord
  2
CENTERX2
 70
0
  3
Center (2x) ________  __  ________  __  _____
 72
65
 73
4
 40
101.59999999999999
 49
63.5
 74
0
 49
-12.699999999999999
 74
0
 49
12.699999999999999
 74
0
 49
-12.699999999999999
 74
0
  0
LTYPE
  5
40
100
AcDbSymbolTableRecord
100
AcDbLinetypeTableRecord
  2
BORDER
 70
0
  3
Border __ __ . __ __ . __ __ . __ __ . __ __ .
 72
65
 73
6
 40
44.450000000000003
 49
12.699999999999999
 74
0
 49
-6.3499999999999996
 74
0
 49
12.699999999999999
 74
0
 49
-6.3499999999999996
 74
0
 49
0.0
 74
0
 49
-6.3499999999999996
 74
0
  0
LTYPE
  5
41
100
AcDbSymbolTableRecord
100
AcDbLinetypeTableRecord
  2
BORDER2
 70
0
  3
Border (.5x) __.__.__.__.__.__.__.__.__.__.__.
 72
65
 73
6
 40
22.225000000000001
 49
6.3499999999999996
 74
0
 49
-3.1749999999999998
 74
0
 49
6.3499999999999996
 74
0
 49
-3.1749999999999998
 74
0
 49
0.0
 74
0
 49
-3.1749999999999998
 74
0
  0
LTYPE
  5
42
100
AcDbSymbolTableRecord
100
AcDbLinetypeTableRecord
  2
BORDERX2
 70
0
  3
Border (2x) ____  ____  .  ____  ____  .  ___
 72
65
 73
6
 40
88.900000000000006
 49
25.399999999999999
 74
0
 49
-12.699999999999999
 74
0
 49
25.399999999999999
 74
0
 49
-12.699999999999999
 74
0
 49
0.0
 74
0
 49
-12.699999999999999
 74
0
  0
ENDTAB
  0
TABLE
  2
LAYER
  5
2
100
AcDbSymbolTable
 70
2
  0
LAYER
  5
10
100
AcDbSymbolTableRecord
100
AcDbLayerTableRecord
  2
0
 70
0
 62
7
  6
CONTINUOUS
390
F
  0
LAYER
  5
43
100
AcDbSymbolTableRecord
100
AcDbLayerTableRecord
  2
LAYER_1
 70
0
 62
18
  6
CONTINUOUS
390
F
  0
ENDTAB
  0
TABLE
  2
STYLE
  5
3
100
AcDbSymbolTable
 70
1
  0
STYLE
  5
11
100
AcDbSymbolTableRecord
100
AcDbTextStyleTableRecord
  2
Standard
 70
0
 40
0.0
 41
0.75
 50
0.0
 71
0
 42
2.5
  3
txt
  4

  0
ENDTAB
  0
TABLE
  2
VIEW
  5
6
100
AcDbSymbolTable
 70
0
  0
ENDTAB
  0
TABLE
  2
UCS
  5
7
100
AcDbSymbolTable
 70
0
  0
ENDTAB
  0
TABLE
  2
APPID
  5
9
100
AcDbSymbolTable
 70
1
  0
APPID
  5
12
100
AcDbSymbolTableRecord
100
AcDbRegAppTableRecord
  2
ACAD
 70
0
  0
ENDTAB
  0
TABLE
  2
DIMSTYLE
  5
A
100
AcDbSymbolTable
 70
1
100
AcDbDimStyleTable
 71
0
  0
DIMSTYLE
105
27
100
AcDbSymbolTableRecord
100
AcDbDimStyleTableRecord
  2
Standard
 41
0.18
 42
0.0625
 43
3.75
 44
0.18
 70
0
 73
0
 74
0
 77
1
 78
8
140
0.18
141
2.5
143
0.03937007874016
147
0.09
171
3
172
1
271
2
272
2
274
3
278
44
283
0
284
8
340
11
  0
ENDTAB
  0
TABLE
  2
BLOCK_RECORD
  5
1
100
AcDbSymbolTable
 70
1
  0
BLOCK_RECORD
  5
1F
100
AcDbSymbolTableRecord
100
AcDbBlockTableRecord
  2
*Model_Space
340
22
  0
BLOCK_RECORD
  5
1B
100
AcDbSymbolTableRecord
100
AcDbBlockTableRecord
  2
*Paper_Space
340
1E
  0
BLOCK_RECORD
  5
23
100
AcDbSymbolTableRecord
100
AcDbBlockTableRecord
  2
*Paper_Space0
340
26
  0
ENDTAB
  0
ENDSEC
  0
SECTION
  2
BLOCKS
  0
BLOCK
  5
20
100
AcDbEntity
  8
0
100
AcDbBlockBegin
  2
*Model_Space
 70
0
 10
0.0
 20
0.0
 30
0.0
  3
*Model_Space
  1

  0
ENDBLK
  5
21
100
AcDbEntity
  8
0
100
AcDbBlockEnd
  0
BLOCK
  5
1C
100
AcDbEntity
 67
1
  8
0
100
AcDbBlockBegin
  2
*Paper_Space
 70
0
 10
0.0
 20
0.0
 30
0.0
  3
*Paper_Space
  1

  0
ENDBLK
  5
1D
100
AcDbEntity
 67
1
  8
0
100
AcDbBlockEnd
  0
BLOCK
  5
24
100
AcDbEntity
  8
0
100
AcDbBlockBegin
  2
*Paper_Space0
 70
0
 10
0.0
 20
0.0
 30
0.0
  3
*Paper_Space0
  1

  0
ENDBLK
  5
25
100
AcDbEntity
  8
0
100
AcDbBlockEnd
  0
ENDSEC
  0
SECTION
  2
ENTITIES
  0
LWPOLYLINE
  5
44
  8
LAYER_1
 62
256
370
-1
  6
ByLayer
100
AcDbEntity
100
AcDbPolyline
 90
49
 70
1
 10
-10.02727774912618
 20
-1.919791884033951
 10
-9.8322962872617623
 20
-1.907543473017002
 10
-9.6287078338719283
 20
-1.870798239966152
 10
-9.4165123889566722
 20
-1.809556184881403
 10
-9.195709952515994
 20
-1.7238173077627541
 10
-8.9745764779397241
 20
-1.6188782187797019
 10
-8.7613879186176931
 20
-1.5000355281017399
 10
-8.5561442745499008
 20
-1.3672892357288591
 10
-8.3588455457363402
 20
-1.220639341661051
 10
-8.1731331516685426
 20
-1.063727265389866
 10
-8.0026485118380357
 20
-0.900194426406816
 10
-7.8473916262448196
 20
-0.7300408247119008
 10
-7.7073624948888941
 20
-0.5532664603051205
 10
-7.5914991474312599
 20
-0.3745058670847841
 10
-7.5087396135329563
 20
-0.1983935789491968
 10
-7.4797737766685524
 20
-0.1113305492881825
 10
-7.459083893193978
 20
-0.0249295958983535
 10
-7.4466699631092341
 20
0.0608092812202908
 10
-7.4425319864143198
 20
0.1458860820677512
 10
-7.4534562448888932
 20
0.3736403193558865
 10
-7.4862290203126172
 20
0.5802081159660519
 10
-7.5408503126854969
 20
0.7655894718982503
 10
-7.6173201220075377
 20
0.9297843871524842
 10
-7.709679761838041
 20
1.06418587020333
 10
-7.7595837607787166
 20
1.1169864528304481
 10
-7.8119705457363438
 20
1.1601869295253631
 10
-7.8668401167109199
 20
1.193787300288075
 10
-7.9241924737024441
 20
1.217787565118583
 10
-7.9840276167109181
 20
1.2321877240168879
 10
-8.0463455457363402
 20
1.2369877769829889
 10
-8.2658238296346518
 20
1.226394556644008
 10
-8.4687502067532989
 20
1.1946148956270619
 10
-8.6551246770922816
 20
1.1416487939321489
 10
-8.824947240651607
 20
1.0674962515592661
 10
-8.979873088109219
 20
0.9764607642711412
 10
-9.1215574101431116
 20
0.8728458278304638
 10
-9.2500002067532776
 20
0.7566514422372397
 10
-9.365201477939717
 20
0.627877607491474
 10
-9.4684853762448142
 20
0.4881795142711349
 10
-9.5611760542109216
 20
0.3392123532541869
 10
-9.6432735118380428
 20
0.1809761244406299
 10
-9.7147777491261813
 20
0.013470827830464
 10
-9.7770129186176984
 20
-0.159000040813603
 10
-9.8313031728549873
 20
-0.3321329857288613
 10
-9.8776485118380393
 20
-0.5059280069153083
 10
-9.9160489355668453
 20
-0.6803851043729412
 10
-9.972987494888887
 20
-1.0246647653898751
 10
-10.0060913084482
 20
-1.3583512060678331
 10
-10.021981138956679
 20
-1.662906290813609
  0
LWPOLYLINE
  5
45
  8
LAYER_1
 62
256
370
-1
  6
ByLayer
100
AcDbEntity
100
AcDbPolyline
 90
48
 70
1
 10
-1.489142155905842
 20
1.575970827830464
 10
-0.9978815626854998
 20
2.4763945566440242
 10
-0.4774896135329423
 20
3.482750488847405
 10
-0.2136522194651519
 20
4.0163839634236833
 10
0.0429023356195901
 20
4.5579623532541937
 10
0.2921740517212839
 20
5.1074856583389359
 10
0.5341629288399292
 20
5.6649538786779097
 10
0.7645654712128129
 20
6.2260635185084237
 10
0.9790781830772199
 20
6.7865110820677437
 10
1.177701064433148
 20
7.3462965693558751
 10
1.360434115280593
 20
7.9054199803728231
 10
1.519332420365344
 20
8.4546122473219754
 10
1.646451064433144
 20
8.9846043024067157
 10
1.74179004748399
 20
9.4953961456270513
 10
1.8053493695178799
 20
9.986987776982982
 10
1.801376911890773
 20
10.271680573593169
 10
1.7894595390094239
 20
10.511352183762661
 10
1.7772111279924689
 20
10.60636012867792
 10
1.7563557254500921
 20
10.674222946474529
 10
1.7268933313822941
 20
10.714940637152489
 10
1.6888239457890779
 20
10.728513200711809
 10
1.611278262526366
 20
10.722306235669439
 10
1.5322429076534849
 20
10.70368534054232
 10
1.451717881170433
 20
10.67265051533046
 10
1.3697031830772131
 20
10.629201760033849
 10
1.2861988133738229
 20
10.573339074652489
 10
1.2012047720602641
 20
10.505062459186391
 10
1.1147210591365371
 20
10.424371913635539
 10
1.026747674602642
 20
10.33126743799995
 10
0.8493112339246793
 20
10.115099535457579
 10
0.6718747932467113
 20
9.8638415905423216
 10
0.4944383525687432
 20
9.5774936032541831
 10
0.3170019118907805
 20
9.2560555735931693
 10
0.141551700026366
 20
8.9031689210507992
 10
-0.0299260542109221
 20
8.5224750651185914
 10
-0.1974313508210889
 20
8.1139740057965533
 10
-0.3609641898041398
 20
7.6776657430846846
 10
-0.5182073042109219
 20
7.2201710396948542
 10
-0.6668434270922783
 20
6.748110658338927
 10
-0.806872558448209
 20
6.2614845990168977
 10
-0.9382946982787142
 20
5.760292861728761
 10
-1.058792579634646
 20
5.2481768659660464
 10
-1.1660489355668531
 20
4.7287780312202834
 10
-1.2600637660753291
 20
4.202096357491472
 10
-1.340837071160071
 20
3.6681318447796118
 10
-1.405720545736338
 20
3.134167332067753
 10
-1.4520658847193919
 20
2.6074856583389412
 10
-1.479873088109229
 20
2.0880868235931782
  0
LWPOLYLINE
  5
46
  8
LAYER_1
 62
256
370
-1
  6
ByLayer
100
AcDbEntity
100
AcDbPolyline
 90
58
 70
1
 10
4.2629764881619714
 20
-3.46640205352546
 10
4.2722455559585804
 20
-3.727260104372927
 10
4.3000527593484072
 20
-3.980173239966152
 10
4.3222323144331538
 20
-4.101333197593263
 10
4.3516947085009541
 20
-4.2158723925085164
 10
4.3884399415518027
 20
-4.3237908247119083
 10
4.4324680135856944
 20
-4.4250884942034396
 10
4.484109962738243
 20
-4.5184412484407179
 10
4.5436968271450233
 20
-4.6025249348813944
 10
4.6112286068060353
 20
-4.6773395535254672
 10
4.686705301721279
 20
-4.7428851043729354
 10
4.7714510644331476
 20
-4.7961822442034361
 10
4.8667900474839954
 20
-4.834251629796654
 10
4.972722250873824
 20
-4.8570932611525874
 10
5.0892476746026354
 20
-4.8647071382712319
 10
5.1860763292636571
 20
-4.8594105281017397
 10
5.2805877169755231
 20
-4.8435206975932648
 10
5.3727818377382359
 20
-4.8170376467458054
 10
5.4626586915517947
 20
-4.7799613755593633
 10
5.5502182784162004
 20
-4.7322918840339367
 10
5.6354605983314521
 20
-4.6740291721695284
 10
5.7183856512975506
 20
-4.6051732399661338
 10
5.7989934373144969
 20
-4.5257240874237574
 10
5.952595132229761
 20
-4.3476255704746158
 10
6.0956036068060344
 20
-4.1523130704746229
 10
6.2280188610433198
 20
-3.9397865874237792
 10
6.3498408949416252
 20
-3.7100461213220828
 10
6.4607386703653571
 20
-3.469712434881401
 10
6.5603811491789186
 20
-3.2254062908136021
 10
6.6487683313823123
 20
-2.977127689118686
 10
6.7259002169755364
 20
-2.7248766297966571
 10
6.8437497932467224
 20
-2.258774934881397
 10
6.8838054076535027
 20
-2.0575037484407219
 10
6.9112815729077433
 20
-1.8774190026780211
 10
7.5574680135856944
 20
1.2369877769829889
 10
7.3416311491789177
 20
1.223415213423668
 10
7.1284425898568848
 20
1.1826975227457019
 10
6.9179023356195959
 20
1.114834704949093
 10
6.7100103864670508
 20
1.0198267600338411
 10
6.5064219330772186
 20
0.9016461456270652
 10
6.3087921661280646
 20
0.7642653193558859
 10
6.117121085619587
 20
0.6076842812203001
 10
5.9314086915517841
 20
0.4319030312203049
 10
5.7523170601958622
 20
0.2399009125762234
 10
5.5805082678229887
 20
0.0346572685084223
 10
5.4159823144331636
 20
-0.1838279009830983
 10
5.2587392000263868
 20
-0.4155545958983384
 10
5.1104341152806221
 20
-0.6568813967458
 10
4.9727222508738356
 20
-0.9041668840339407
 10
4.8456036068060317
 20
-1.1574110577627581
 10
4.7290781830772097
 20
-1.416613917932249
 10
4.6241390940941702
 20
-1.679127159457672
 10
4.5317794542636669
 20
-1.942302477254283
 10
4.4519992635856998
 20
-2.2061398713220779
 10
4.3847985220602688
 20
-2.4706393416610508
 10
4.3315013822297672
 20
-2.731497392508508
 10
4.2934319966365493
 20
-2.9844105281017268
 10
4.2705903652806168
 20
-3.2293787484407099
  0
LWPOLYLINE
  5
47
  8
LAYER_1
 62
256
370
-1
  6
ByLayer
100
AcDbEntity
100
AcDbPolyline
 90
49
 70
1
 10
29.7396714034162
 20
-1.919791884033951
 10
29.934652865280611
 20
-1.907543473017002
 10
30.138241318670438
 20
-1.870798239966152
 10
30.350436763585702
 20
-1.809556184881403
 10
30.571239200026358
 20
-1.7238173077627541
 10
30.792372674602639
 20
-1.6188782187797019
 10
31.005561233924681
 20
-1.5000355281017399
 10
31.21080487799248
 20
-1.3672892357288591
 10
31.408103606806041
 20
-1.220639341661051
 10
31.59381600087384
 20
-1.063727265389866
 10
31.764300640704349
 20
-0.900194426406816
 10
31.919557526297559
 20
-0.7300408247119008
 10
32.05958665765349
 20
-0.5532664603051205
 10
32.175450005111131
 20
-0.3745058670847841
 10
32.258209539009428
 20
-0.1983935789491968
 10
32.287175375873829
 20
-0.1113305492881825
 10
32.307865259348397
 20
-0.0249295958983535
 10
32.320279189433151
 20
0.0608092812202908
 10
32.324417166128057
 20
0.1458860820677512
 10
32.31349290765349
 20
0.3736403193558865
 10
32.280720132229767
 20
0.5802081159660519
 10
32.226098839856888
 20
0.7655894718982503
 10
32.149629030534847
 20
0.9297843871524842
 10
32.057269390704349
 20
1.06418587020333
 10
32.007365391763663
 20
1.1169864528304481
 10
31.954978606806041
 20
1.1601869295253631
 10
31.90010903583147
 20
1.193787300288075
 10
31.84275667883994
 20
1.217787565118583
 10
31.78292153583147
 20
1.2321877240168879
 10
31.720603606806041
 20
1.2369877769829889
 10
31.501125322907729
 20
1.226394556644008
 10
31.298198945789089
 20
1.1946148956270619
 10
31.111824475450099
 20
1.1416487939321489
 10
30.942001911890781
 20
1.0674962515592661
 10
30.787076064433151
 20
0.9764607642711412
 10
30.645391742399251
 20
0.8728458278304638
 10
30.516948945789078
 20
0.7566514422372397
 10
30.401747674602639
 20
0.627877607491474
 10
30.298463776297559
 20
0.4881795142711349
 10
30.205773098331459
 20
0.3392123532541869
 10
30.123675640704342
 20
0.1809761244406299
 10
30.0521714034162
 20
0.013470827830464
 10
29.98993623392467
 20
-0.159000040813603
 10
29.93564597968739
 20
-0.3321329857288613
 10
29.889300640704342
 20
-0.5059280069153083
 10
29.850900216975539
 20
-0.6803851043729412
 10
29.793961657653501
 20
-1.0246647653898751
 10
29.760857844094179
 20
-1.3583512060678331
 10
29.744968013585691
 20
-1.662906290813609
  0
LWPOLYLINE
  5
48
  8
LAYER_1
 62
256
370
-1
  6
ByLayer
100
AcDbEntity
100
AcDbPolyline
 90
1370
 70
1
 10
2.4833154712128009
 20
13.44037760749147
 10
2.7011385644331449
 20
13.42746712020333
 10
2.899099369517895
 20
13.388735658338931
 10
2.9906314140094228
 20
13.35968706194063
 10
3.0771978864670531
 20
13.324183221898259
 10
3.1587987868907832
 20
13.28222413821182
 10
3.235434115280615
 20
13.23380981088131
 10
3.3757942847721418
 20
13.122249959186391
 10
3.500264623755192
 20
12.99413820071182
 10
3.6088451322297641
 20
12.849474535457579
 10
3.7015358101958529
 20
12.688258963423671
 10
3.779991848331449
 20
12.51313978969486
 10
3.8458684373145
 20
12.32676531935588
 10
3.89916557714501
 20
12.129135552406719
 10
3.939883267822982
 20
11.920250488847399
 10
3.9700077381619669
 20
11.704744662576219
 10
3.9915252169755209
 20
11.48725260749147
 10
4.00443570426365
 20
11.267774323593169
 10
4.0087392000263584
 20
11.04630981088131
 10
3.9945045601958529
 20
10.546111187999941
 10
3.951800640704334
 20
10.04127803122028
 10
3.8806274415518009
 20
9.531810340542318
 10
3.7809849627382479
 20
9.017708115966041
 10
3.6571767000263722
 20
8.5006265481694374
 10
3.5135061491789079
 20
7.9822208278304529
 10
3.3499733101958551
 20
7.4624909549490974
 10
3.1665781830772088
 20
6.9414369295253771
 10
2.9656380347721258
 20
6.4193897896948693
 10
2.749470132229757
 20
5.8966805735931764
 10
2.5180744754500992
 20
5.3733092812202976
 10
2.2714510644331471
 20
4.8492759125762346
 10
1.7523832678229849
 20
3.8045195566440211
 10
1.21212903053485
 20
2.7677081159660482
 10
0.6599574203653549
 20
1.7428140481694501
 10
0.1051375051111267
 20
0.7338098108813151
 10
-0.4337925796346449
 20
-0.2553321382712315
 10
-0.9382946982787142
 20
-1.220639341661051
 10
-0.9925849525160049
 20
-1.3424613755593591
 10
-1.0495235118380499
 20
-1.496063070474615
 10
-1.160752325397358
 20
-1.861529172169536
 10
-1.2666845287871991
 20
-2.2799613755593771
 10
-1.3143540203126169
 20
-2.4997706975932661
 10
-1.3514302914990599
 20
-2.7142834094576669
 10
-1.3514302914990599
 20
-2.8625884942034392
 10
-1.33686461353296
 20
-3.1340397653898719
 10
-1.3186575160753311
 20
-3.2667860577627561
 10
-1.2931675796346449
 20
-3.3975461213220828
 10
-1.2282841050583819
 20
-3.6438384942034219
 10
-1.1501591050583679
 20
-3.863647816237322
 10
-1.0627650372617661
 20
-4.0490291721695257
 10
-0.9700743592956551
 20
-4.1920376467458063
 10
-0.923066944041427
 20
-4.2453347865763078
 10
-0.8773836813295655
 20
-4.2834041721695257
 10
-0.8330245711600706
 20
-4.3062458035254583
 10
-0.7899896135329423
 20
-4.3138596806441036
 10
-0.6857126008210817
 20
-4.3085630704746114
 10
-0.5741527491261673
 20
-4.2926732399661347
 10
-0.4553100584482046
 20
-4.266190189118678
 10
-0.3291845287871988
 20
-4.2291139179322421
 10
-0.0617057152278666
 20
-4.1298024772542803
 10
0.2216629288399292
 20
-4.0013596806441036
 10
0.5169489457890744
 20
-3.8477579857288511
 10
0.8201798779924832
 20
-3.6729698501356469
 10
1.1220866576534969
 20
-3.4862643416610579
 10
1.413400216975514
 20
-3.296910528101737
 10
1.6017938430029051
 20
-3.1647429067414552
 10
1.6325963110046069
 20
-2.9483628447218559
 10
1.6715800666307989
 20
-2.7305492856299631
 10
1.773569708500939
 20
-2.290554595898338
 10
1.8953917423992499
 20
-1.8744396594576731
 10
2.038400216975524
 20
-1.462959256915304
 10
2.2025951322297659
 20
-1.056113388271235
 10
2.3879764881619781
 20
-0.6539020535254667
 10
2.592889094094172
 20
-0.2596356340339399
 10
2.8156777593484081
 20
0.123375488847412
 10
3.0563424839246802
 20
0.4951313151185943
 10
3.3148832678229811
 20
0.8556318447796125
 10
3.5886518059585701
 20
1.1992494295253799
 10
3.8749997932467051
 20
1.520356421050806
 10
4.1739272296873864
 20
1.8189528193558879
 10
4.485434115280615
 20
2.0950386244406221
 10
4.8075342212128129
 20
2.3462965693558822
 10
5.1382413186704419
 20
2.5704093871524951
 10
5.4775554076534956
 20
2.7673770778304592
 10
5.8254764881619714
 20
2.9371996413897712
 10
6.0020025739670553
 20
3.0104418288897739
 10
6.1793562551111236
 20
3.0739183913897752
 10
6.3575375315941747
 20
3.1276293288897752
 10
6.5365464034162102
 20
3.1715746413897752
 10
6.7163828705772266
 20
3.205754328889773
 10
6.8970469330772293
 20
3.230168391389773
 10
7.0785385909162128
 20
3.2448168288897721
 10
7.2608578440941791
 20
3.2496996413897712
 10
7.3760591152806194
 20
3.2437409549490952
 10
7.4780188610433278
 20
3.225864895627065
 10
7.5667370813823069
 20
3.1960714634236829
 10
7.6422137762975559
 20
3.1543606583389479
 10
7.768008267822978
 20
3.0524009125762248
 10
7.8699680135856944
 20
2.9371996413897712
 10
8.0447561491789124
 20
2.6988521837626709
 10
8.0897773356195977
 20
2.6445619295253802
 10
8.1400951322297637
 20
2.5982165905423251
 10
8.1957095390094175
 20
2.5598161668135129
 10
8.2566205559585661
 20
2.5293606583389479
 10
8.3850633525687428
 20
2.4856636244406372
 10
8.516154454263674
 20
2.4605047261355431
 10
8.6498938610433171
 20
2.44858735325418
 10
8.7862815729077148
 20
2.4446148956270579
 10
9.0246290305348431
 20
2.4499115057965528
 10
9.2629764881619714
 20
2.4552081159660482
 10
9.4165781830772168
 20
2.4472632007118089
 10
9.5595866576534867
 20
2.4234284549491072
 10
9.6264563610433136
 20
2.402904090542322
 10
9.68935360680603
 20
2.3731106583389341
 10
9.7482783949416287
 20
2.3340481583389372
 10
9.8032307254501099
 20
2.2857165905423251
 10
9.8532174839246771
 20
2.2274538786779159
 10
9.8972455559585768
 20
2.1585979464745289
 10
9.9353149415518001
 20
2.0791487939321609
 10
9.967425640704338
 20
1.98910642105081
 10
9.9929155771450127
 20
1.885160446474528
 10
10.011122674602641
 20
1.7640004888474079
 10
10.02204693307722
 20
1.625626548169443
 10
10.02568835256875
 20
1.4700386244406229
 10
10.01906758985689
 20
1.208849535457577
 10
9.9992053017212932
 20
0.9337568447796125
 10
9.9661014881619678
 20
0.6447605524067346
 10
9.9197561491789124
 20
0.3418606583389485
 10
9.8085273356195835
 20
-0.2857876467458094
 10
9.686705301721279
 20
-0.9293257823390309
 10
9.564883267822978
 20
-1.5808088331864909
 10
9.453654454263674
 20
-2.232291884033951
 10
9.4073091152806185
 20
-2.5537299136949621
 10
9.3742053017212932
 20
-2.8665609518305541
 10
9.354343013585698
 20
-3.1707849984407219
 10
9.3477222508738329
 20
-3.46640205352546
 10
9.3533498991789177
 20
-3.701770167932239
 10
9.370232844094172
 20
-3.909993155220381
 10
9.3983710856195959
 20
-4.0910710153898782
 10
9.4377646237551893
 20
-4.2450037484407268
 10
9.463502838797563
 20
-4.3107975778898773
 10
9.4956962974840025
 20
-4.3678188967458063
 10
9.5343449998145076
 20
-4.4160677050085164
 10
9.5794489457890819
 20
-4.4555440026780033
 10
9.6310081354077255
 20
-4.4862477897542714
 10
9.6890225686704348
 20
-4.5081790662373198
 10
9.7534922455772133
 20
-4.5213378321271476
 10
9.824417166128061
 20
-4.5257240874237574
 10
9.9369701322297619
 20
-4.5187722865763007
 10
10.05217140341621
 20
-4.4979168840339314
 10
10.170020979687401
 20
-4.4631578797966469
 10
10.29051886104333
 20
-4.4144952738644498
 10
10.53548708138231
 20
-4.2860524772542767
 10
10.783103606806041
 20
-4.123181714542401
 10
11.03204428477213
 20
-3.931179595898342
 10
11.28098496273825
 20
-3.7153427314915781
 10
11.52330487799248
 20
-3.4836160365763069
 10
11.752383267822969
 20
-3.243944426406816
 10
12.177499974900821
 20
-2.747615276011377
 10
12.258813731509459
 20
-1.981506828849489
 10
12.35619682714502
 20
-1.204749511152595
 10
12.491260386467051
 20
-0.2738702738644565
 10
12.642213776297551
 20
0.6225809973219791
 10
12.798463776297559
 20
1.438258963423682
 10
12.949417166128081
 20
2.1268182854575919
 10
12.98194166295011
 20
2.246157533338947
 10
13.021252441551789
 20
2.3605312091864028
 10
13.067349501933149
 20
2.4699393129999612
 10
13.12023284409416
 20
2.574381844779619
 10
13.17990246803484
 20
2.6738588045253788
 10
13.24635837375518
 20
2.7683701922372399
 10
13.31960056125518
 20
2.8579160079152031
 10
13.39962903053484
 20
2.9424962515592661
 10
13.486774819729749
 20
3.0194626180846948
 10
13.58136896697552
 20
3.0861668024067321
 10
13.68341147227213
 20
3.1426088045253779
 10
13.792902335619591
 20
3.1887886244406332
 10
13.9098415570179
 20
3.2247062621524978
 10
14.034229136467051
 20
3.2503617176609718
 10
14.166065073967051
 20
3.2657549909660561
 10
14.3053493695179
 20
3.2708860820677512
 10
14.44289571485688
 20
3.2654239528304632
 10
14.56951780172129
 20
3.2490375651185999
 10
14.685215630111131
 20
3.22172691893216
 10
14.78998920002638
 20
3.1834920142711449
 10
14.88383851146706
 20
3.1343328511355528
 10
14.966763564433149
 20
3.074249429525385
 10
15.038764358924681
 20
3.003241749440638
 10
15.09984089494162
 20
2.9213098108813149
 10
15.151979401297551
 20
2.8302743235931769
 10
15.19716610680603
 20
2.7319559973219878
 10
15.235401011467051
 20
2.626354832067749
 10
15.266684115280601
 20
2.5134708278304601
 10
15.291015418246699
 20
2.3933039846101209
 10
15.30839492036535
 20
2.265854302406733
 10
15.32229852206026
 20
1.98910642105081
 10
15.31435360680603
 20
1.802400912576221
 10
15.290518861043321
 20
1.5600809973219789
 10
15.211069708500951
 20
0.9668606583389485
 10
15.11043411528061
 20
0.2994877769830178
 10
15.00979852206026
 20
-0.3361054433559718
 10
14.9303493695179
 20
-0.8445800196271693
 10
14.906514623755189
 20
-1.025988917932249
 10
14.898569708500951
 20
-1.13589357894919
 10
15.11043411528061
 20
-1.13589357894919
 10
15.3117053017213
 20
-0.7598342569153078
 10
15.629501911890801
 20
-0.1613173077627539
 10
16.01615445426367
 20
0.5537250651186023
 10
16.402806996636539
 20
1.2740640481694541
 10
16.73119682714502
 20
1.8831742176609689
 10
16.95365445426367
 20
2.2751233702033349
 10
17.039889888585702
 20
2.4125041964745271
 10
17.129104666128061
 20
2.5386297261355462
 10
17.22129878689077
 20
2.6534999591863939
 10
17.316472250873819
 20
2.757114895627073
 10
17.41462505807721
 20
2.8494745354575808
 10
17.51575720850094
 20
2.9305788786779212
 10
17.619868702145009
 20
3.000427925288093
 10
17.72695953900941
 20
3.059021675288097
 10
17.950079242399251
 20
3.151712353254192
 10
18.185116318670438
 20
3.2179199803728342
 10
18.432070767822982
 20
3.2576445566440211
 10
18.690942589856881
 20
3.2708860820677512
 10
18.819964703204342
 20
3.2639342812202932
 10
18.942200534772141
 20
3.243078878677919
 10
19.057650084560269
 20
3.20831987444063
 10
19.166313352568739
 20
3.159657268508425
 10
19.268190338797549
 20
3.097091060881306
 10
19.363281043246701
 20
3.0206212515592732
 10
19.4515854659162
 20
2.9302478405423251
 10
19.53310360680603
 20
2.825970827830464
 10
19.60634579430603
 20
2.7094454041016518
 10
19.66982235680603
 20
2.582326760033856
 10
19.72353329430603
 20
2.444614895627073
 10
19.76747860680603
 20
2.2963098108813078
 10
19.80165829430603
 20
2.137411505796559
 10
19.82607235680603
 20
1.967919980372826
 10
19.84072079430603
 20
1.787835234610111
 10
19.84560360680603
 20
1.597157268508415
 10
19.83368623392467
 20
1.4409072685084221
 10
19.797934115280601
 20
1.2052081159660479
 10
19.67611208138231
 20
0.5484284549491074
 10
19.51191716612805
 20
-0.2884359518305462
 10
19.425847250873819
 20
-0.7492410365763216
 10
19.347722250873819
 20
-1.220639341661051
 10
19.280190471212808
 20
-1.694685951830553
 10
19.225900216975521
 20
-2.1634359518305462
 10
19.190148098331459
 20
-2.6109995111525879
 10
19.178230725450099
 20
-3.021486799288172
 10
19.18849290765349
 20
-3.3353109518305479
 10
19.21927945426366
 20
-3.6200037484407201
 10
19.270590365280601
 20
-3.8755651891186869
 10
19.342425640704331
 20
-4.1019952738644498
 10
19.386370953204331
 20
-4.2013067145424152
 10
19.43610943307721
 20
-4.2873766297966496
 10
19.491641080322971
 20
-4.3602050196271573
 10
19.552965894941622
 20
-4.4197918840339341
 10
19.62008387693314
 20
-4.4661372230169816
 10
19.692995026297559
 20
-4.4992410365763016
 10
19.77169934303485
 20
-4.5191033247118932
 10
19.85619682714502
 20
-4.5257240874237574
 10
19.938625322907729
 20
-4.519765400983081
 10
20.02701250511112
 20
-4.5018893416610517
 10
20.121358373755189
 20
-4.4720959094576704
 10
20.22166292883994
 20
-4.4303851043729354
 10
20.436175640704342
 20
-4.3204804433559723
 10
20.66657818307722
 20
-4.1814444264068156
 10
20.907573945789071
 20
-4.0159253586102039
 10
21.153866318670438
 20
-3.8265715450508861
 10
21.646451064433151
 20
-3.4134359518305391
 10
21.666262499250831
 20
-3.3951765649017922
 10
21.69412055595858
 20
-3.21746137555937
 10
21.864936233924681
 20
-2.3170376467458129
 10
22.070179877992459
 20
-1.384834256915308
 10
22.299258267822971
 20
-0.4380651891186989
 10
22.54157818307722
 20
0.5060555735931767
 10
22.77595318307721
 20
1.411775912576221
 10
22.981196827145009
 20
2.2433437091863939
 10
23.027542166128061
 20
2.3760900015592821
 10
23.09242564070432
 20
2.4989051498643668
 10
23.175847250873812
 20
2.6117891541016491
 10
23.277806996636532
 20
2.714742014271128
 10
23.392677229687379
 20
2.808094768508421
 10
23.514830301721279
 20
2.8921784549491041
 10
23.644266212738231
 20
2.966993073593172
 10
23.780984962738231
 20
3.0325386244406221
 10
23.971490082204141
 20
3.1065475565441218
 10
24.16747572019942
 20
3.1635892799076442
 10
24.02992564070432
 20
3.2790849443849091
 10
23.925648627992459
 20
3.3935413797662668
 10
23.835275216975511
 20
3.517101363876439
 10
23.75880540765348
 20
3.649764896715423
 10
23.696239200026358
 20
3.7915319782832211
 10
23.647576594094151
 20
3.9424026085798309
 10
23.61281758985686
 20
4.1023767876052553
 10
23.59196218731449
 20
4.2714545153594923
 10
23.58501038646703
 20
4.4496357918425424
 10
23.591631149178902
 20
4.5754302833679681
 10
23.61149343731449
 20
4.7091696901476334
 10
23.644597250873819
 20
4.850854012181534
 10
23.690942589856871
 20
5.0004832494696707
 10
23.752184644941629
 20
5.151767677435771
 10
23.82997860680603
 20
5.2984175715035668
 10
23.924324475450099
 20
5.4404329316730582
 10
24.035222250873819
 20
5.5778137579442451
 10
24.164327123755179
 20
5.7075807070967874
 10
24.31329428477213
 20
5.8267544359103454
 10
24.48212373392467
 20
5.9353349443849233
 10
24.670815471212801
 20
6.033322232520522
 10
24.773189014645009
 20
6.0767709878171283
 10
24.881686763585691
 20
6.1144265757408549
 10
25.117054877992469
 20
6.1723582494696707
 10
25.376919814433151
 20
6.2071172537069641
 10
25.661281572907729
 20
6.2187035884527297
 10
25.844014623755179
 20
6.2134069782832366
 10
26.021451064433151
 20
6.1975171477747608
 10
26.193590894941622
 20
6.1710340969273041
 10
26.360434115280601
 20
6.1339578257408682
 10
26.519332420365341
 20
6.0859572960798429
 10
26.667637505111099
 20
6.0267014698086534
 10
26.805349369517881
 20
5.9561903469272943
 10
26.93246801358568
 20
5.8744239274357604
 10
27.048000322907711
 20
5.7800780587916973
 10
27.15095318307721
 20
5.6718285884527164
 10
27.241326594094161
 20
5.5496755164188203
 10
27.31912055595858
 20
5.4136188426900169
 10
27.38168676358568
 20
5.2639896054018749
 10
27.42637691189076
 20
5.1011188426900063
 10
27.453191000873812
 20
4.9250065545544128
 10
27.462129030534829
 20
4.7356527409950964
 10
27.454846191551781
 20
4.5568921477747546
 10
27.432997674602628
 20
4.3807798596391621
 10
27.396583479687379
 20
4.2073158765883178
 10
27.345603606806019
 20
4.0365001986222246
 10
27.278733903416189
 20
3.8716432070967919
 10
27.194650216975511
 20
3.7160552833679721
 10
27.093352547483981
 20
3.5697364274357648
 10
26.974840894941611
 20
3.4326866393001758
 10
26.839446297483981
 20
3.3065611096391638
 10
26.687499793246701
 20
3.193015029130692
 10
26.51900138222976
 20
3.0920483977747599
 10
26.333951064433151
 20
3.0036612155713729
 10
26.179710152841501
 20
2.9466417377475449
 10
26.014124745124509
 20
2.9018117867489899
 10
25.837189709404331
 20
2.8692395000329252
 10
25.648899913803159
 20
2.8489930150565681
 10
25.666468665928669
 20
2.7618246358661942
 10
25.67187479324669
 20
2.6670725227457019
 10
25.665254030534829
 20
2.5376366117287641
 10
25.645391742399241
 20
2.382379726135547
 10
25.61228792883993
 20
2.201301865966057
 10
25.565942589856871
 20
1.9944030312203049
 10
25.44676886104331
 20
1.5256530312203009
 10
25.3011120813823
 20
0.9986403193558895
 10
24.962129030534829
 20
-0.1983935789491897
 10
24.787340894941611
 20
-0.8392834094576744
 10
24.623145979687379
 20
-1.4801732399661589
 10
24.477489200026358
 20
-2.1131181552203899
 10
24.358315471212801
 20
-2.730173239966152
 10
24.311970132229749
 20
-3.0271144475932621
 10
24.278866318670421
 20
-3.3088279009830899
 10
24.259004030534829
 20
-3.5753136001356318
 10
24.25238326782296
 20
-3.8265715450508861
 10
24.259004030534829
 20
-4.052670591661057
 10
24.278866318670421
 20
-4.2542728162373287
 10
24.311970132229749
 20
-4.4313782187797006
 10
24.358315471212801
 20
-4.5839867992881729
 10
24.388274422483988
 20
-4.6497806287373242
 10
24.425185174602639
 20
-4.7068019475932577
 10
24.469047727568739
 20
-4.7550507558559696
 10
24.5198620813823
 20
-4.7945270535254636
 10
24.57762823604331
 20
-4.825230840601737
 10
24.642346191551791
 20
-4.8471621170847889
 10
24.714015947907711
 20
-4.8603208829746212
 10
24.792637505111099
 20
-4.8647071382712319
 10
24.889300640704331
 20
-4.8605691615763158
 10
24.9886120813823
 20
-4.8481552314915692
 10
25.195179877992469
 20
-4.7984995111525848
 10
25.412340894941622
 20
-4.7157399772542803
 10
25.640095132229749
 20
-4.5998766297966576
 10
25.873808055958559
 20
-4.4605095747119039
 10
26.108845132229749
 20
-4.3072389179322421
 10
26.34520636104331
 20
-4.1400646594576669
 10
26.582891742399241
 20
-3.9589867992881729
 10
26.915440918461709
 20
-3.6909730469523261
 10
27.241751470686712
 20
-3.4152407216182361
 10
27.208068850861551
 20
-3.1862849240585889
 10
27.184282921804229
 20
-2.9542744432022952
 10
27.170173114777299
 20
-2.7192450616494219
 10
27.16551886104331
 20
-2.4812325620000411
 10
27.172801700026369
 20
-2.1803188967458031
 10
27.194650216975521
 20
-1.8707982399661449
 10
27.231064411890781
 20
-1.552670591661061
 10
27.282044284772141
 20
-1.2259359518305459
 10
27.347920873755189
 20
-0.8965530069152989
 10
27.429025216975521
 20
-0.5704804433559789
 10
27.525357314433151
 20
-0.2477182611525861
 10
27.636917166128072
 20
0.0717335396948795
 10
27.763704772060269
 20
0.3858887303728359
 10
27.905720132229749
 20
0.6927610820677439
 10
28.062963246636532
 20
0.9923505947796036
 10
28.235434115280601
 20
1.284657268508415
 10
28.423132738161961
 20
1.564715531220281
 10
28.626059115280601
 20
1.827559810881304
 10
28.844213246636549
 20
2.0731901074914809
 10
29.077595132229771
 20
2.3016064210508098
 10
29.325873733924681
 20
2.5101604464745271
 10
29.588718013585691
 20
2.6962038786779128
 10
29.866127971212819
 20
2.859736717660966
 10
30.158103606806041
 20
3.000758963423682
 10
30.309801832441629
 20
3.0615872208389372
 10
30.465638034772141
 20
3.1143050439321578
 10
30.625612213797559
 20
3.1589124327033442
 10
30.789724369517899
 20
3.1954093871524951
 10
30.957974501933151
 20
3.2237959072796118
 10
31.130362611043331
 20
3.2440719930846948
 10
31.306888696848411
 20
3.256237644567745
 10
31.487552759348411
 20
3.260292861728761
 10
31.778866318670449
 20
3.2483754888474068
 10
32.059586657653497
 20
3.212623370203342
 10
32.329713776297559
 20
3.1530365057965608
 10
32.589247674602639
 20
3.0696148956270579
 10
32.835209009348411
 20
2.9646758066440131
 10
33.064618437314508
 20
2.8405365057965599
 10
33.277475958500951
 20
2.6971969930846962
 10
33.473781572907718
 20
2.5346572685084152
 10
33.651549051721283
 20
2.353579408338927
 10
33.808792166128072
 20
2.154625488847405
 10
33.945510916128072
 20
1.937795510033848
 10
34.061705301721283
 20
1.7030894718982561
 10
34.154395979687393
 20
1.4521625651185941
 10
34.220603606806037
 20
1.18666998037283
 10
34.260328183077227
 20
0.9066117176609698
 10
34.273569708500958
 20
0.6119877769830178
 10
34.268521376933172
 20
0.447792861728779
 10
34.253376382229781
 20
0.2835979464745403
 10
34.228134724390799
 20
0.1194030312203015
 10
34.192796403416217
 20
-0.0447918840339372
 10
34.147361419306051
 20
-0.208986799288176
 10
34.091829772060287
 20
-0.3731817145424148
 10
34.026201461678923
 20
-0.5373766297966536
 10
33.950476488161968
 20
-0.7015715450508924
 10
33.865813484984002
 20
-0.864607826830555
 10
33.773371085619601
 20
-1.025326841661065
 10
33.67314929006875
 20
-1.1837285895424221
 10
33.565148098331463
 20
-1.3398130704746261
 10
33.449367510407733
 20
-1.493580284457676
 10
33.325807526297567
 20
-1.645030231491573
 10
33.055349369517913
 20
-1.940978324711903
 10
32.908947754051802
 20
-2.0846488755593642
 10
32.755759856806037
 20
-2.2243469687797059
 10
32.429025216975518
 20
-2.4918257823390308
 10
32.075145450026369
 20
-2.7434147653898759
 10
31.69412055595857
 20
-2.9791139179322421
 10
31.291247144941629
 20
-3.1942887060678409
 10
30.87182182714502
 20
-3.3843045958983491
 10
30.43584460256875
 20
-3.549161587423769
 10
29.98331547121283
 20
-3.6888596806441032
 10
30.140889623755189
 20
-3.9510418840339341
 10
30.29581547121283
 20
-4.1655545958983318
 10
30.372947356806041
 20
-4.2555969687796997
 10
30.450741318670449
 20
-4.3350461213220761
 10
30.529197356806041
 20
-4.4039020535254663
 10
30.60831547121283
 20
-4.4621647653898746
 10
30.688757738161971
 20
-4.5111584094576749
 10
30.771186233924681
 20
-4.5522071382712346
 10
30.855600958500951
 20
-4.585310951830559
 10
30.942001911890781
 20
-4.6104698501356474
 10
31.123410810195871
 20
-4.6422495111525883
 10
31.318061233924691
 20
-4.6528427314915781
 10
31.47803541295011
 20
-4.6488702738644578
 10
31.640161339856881
 20
-4.6369529009830996
 10
31.80443901464502
 20
-4.6170906128475027
 10
31.970868437314511
 20
-4.5892834094576678
 10
32.310182526297567
 20
-4.5098342569152878
 10
32.658103606806037
 20
-4.3986054433559651
 10
33.008010916128079
 20
-4.2635418840339359
 10
33.353283691551802
 20
-4.112588494203429
 10
33.693921933077227
 20
-3.9457452738644432
 10
34.029925640704342
 20
-3.7630122230169749
 10
34.358977547484002
 20
-3.5680307611525741
 10
34.678760386467047
 20
-3.3644423077627472
 10
34.989274157653497
 20
-3.1522468628474938
 10
35.290518861043331
 20
-2.931444426406816
 10
35.575873733924681
 20
-2.7093178374237659
 10
35.838718013585691
 20
-2.493149934881397
 10
36.079051700026369
 20
-2.2829407187797051
 10
36.296874793246708
 20
-2.0786901891186851
 10
37.663400216975511
 20
-3.498181714542401
 10
37.428528659772127
 20
-3.7357015768305382
 10
37.190015683077213
 20
-3.9662696382712168
 10
36.94786128689077
 20
-4.1898858988644392
 10
36.702065471212798
 20
-4.4065503586102039
 10
36.452628236043317
 20
-4.6162630175085102
 10
36.1995495813823
 20
-4.819023875559358
 10
35.94282950722976
 20
-5.0148329327627481
 10
35.682468013585698
 20
-5.203690189118678
 10
35.209745555958577
 20
-5.5188384942034219
 10
34.702595132229767
 20
-5.828690189118678
 10
34.43710254748401
 20
-5.9779883882712221
 10
34.164989200026383
 20
-6.118679595898346
 10
33.886255089856903
 20
-6.2507638120000442
 10
33.600900216975539
 20
-6.3742410365763114
 10
33.309586657653497
 20
-6.4874560789491884
 10
33.012976488161968
 20
-6.5887537484407162
 10
32.711069708500943
 20
-6.6781340450508857
 10
32.403866318670431
 20
-6.7555969687796882
 10
32.093021509348411
 20
-6.8181631764068094
 10
31.780190471212819
 20
-6.8628533247118959
 10
31.46537320426367
 20
-6.8896674136949478
 10
31.148569708500961
 20
-6.8986054433559651
 10
30.903518728628079
 20
-6.8929777950508804
 10
30.666247144941629
 20
-6.876094850135626
 10
30.436754957441629
 20
-6.8479566086102022
 10
30.215042166128061
 20
-6.8085630704746087
 10
30.00110877100094
 20
-6.7579142357288458
 10
29.794954772060269
 20
-6.6960101043729132
 10
29.59658016930603
 20
-6.6228506764068111
 10
29.405984962738231
 20
-6.5384359518305386
 10
29.223169152356871
 20
-6.4445038808559643
 10
29.048132738161961
 20
-6.3427924136949487
 10
28.88087572015348
 20
-6.2333015503474938
 10
28.721398098331449
 20
-6.1160312908135994
 10
28.56969987269586
 20
-5.9909816350932621
 10
28.425781043246701
 20
-5.8581525831864836
 10
28.289641609983999
 20
-5.7175441350932621
 10
28.161281572907729
 20
-5.5691562908135994
 10
27.976755187921579
 20
-5.3235681197000417
 10
27.814331935317298
 20
-5.0616074844906542
 10
27.372086657653469
 20
-5.3890715450508857
 10
27.08309036528059
 20
-5.5837219687797006
 10
26.782838776297549
 20
-5.7704274772542803
 10
26.471331890704331
 20
-5.9491880704746229
 10
26.14856970850094
 20
-6.1200037484407268
 10
25.8185246873145
 20
-6.2798951679322528
 10
25.48516928477213
 20
-6.4258829857288617
 10
25.148503500873829
 20
-6.5579672018305519
 10
24.808527335619591
 20
-6.6761478162373216
 10
24.471199475450089
 20
-6.7734730281017317
 10
24.142478606806019
 20
-6.8429910365763078
 10
23.822364729687379
 20
-6.8847018416610517
 10
23.510857844094161
 20
-6.8986054433559651
 10
23.246358373755179
 20
-6.8890053374237654
 10
23.003707420365341
 20
-6.8602050196271591
 10
22.78290498392467
 20
-6.8122044899661471
 10
22.583951064433151
 20
-6.7450037484407268
 10
22.40485943307721
 20
-6.6605890238644552
 10
22.24364386104331
 20
-6.5609465450508928
 10
22.100304348331441
 20
-6.4460763120000397
 10
21.974840894941611
 20
-6.3159783247118959
 10
21.87081264724598
 20
-6.1770362507902528
 10
21.782107490808219
 20
-6.0240800740643188
 10
21.708853485714691
 20
-5.8570751204075853
 10
21.651178692051769
 20
-5.6759867156935444
 10
21.588188352568739
 20
-5.7227579857288653
 10
21.360765153416189
 20
-5.882649405220385
 10
21.128707420365341
 20
-6.0339338331864836
 10
20.892015153416189
 20
-6.1766112696271582
 10
20.650688352568739
 20
-6.310681714542401
 10
20.404395979687379
 20
-6.4344899772542714
 10
20.152806996636539
 20
-6.5463808670847854
 10
19.8959214034162
 20
-6.6463543840339412
 10
19.63373920002638
 20
-6.734410528101737
 10
19.36559831019586
 20
-6.8062458035254618
 10
19.09083665765349
 20
-6.8575567145424081
 10
18.809454242399251
 20
-6.8883432611525759
 10
18.521451064433158
 20
-6.8986054433559651
 10
18.37869086845858
 20
-6.8854466774661356
 10
18.241723839856881
 20
-6.845970379796646
 10
18.110549978628072
 20
-6.7801765503474956
 10
17.985169284772141
 20
-6.6880651891186851
 10
17.865581758289089
 20
-6.5696362961102119
 10
17.751787399178919
 20
-6.424889871322077
 10
17.643786207441639
 20
-6.2538259147542794
 10
17.541578183077231
 20
-6.0564444264068156
 10
17.448473707441639
 20
-5.8337385206864809
 10
17.367783161890792
 20
-5.5867013120000406
 10
17.299506546424681
 20
-5.3153328003475
 10
17.243643861043321
 20
-5.0196329857288546
 10
17.200195105746701
 20
-4.6996018681441072
 10
17.16916028053484
 20
-4.3552394475932577
 10
17.150539385407711
 20
-3.9865457240763051
 10
17.144332420365341
 20
-3.5935206975932519
 10
17.14962903053484
 20
-3.2694343628474982
 10
17.16551886104331
 20
-2.9327685789491982
 10
17.192001911890781
 20
-2.5835233458983522
 10
17.229078183077231
 20
-2.2216986636949621
 10
17.324417166128072
 20
-1.4576626467458089
 10
17.440942589856881
 20
-0.638012223016982
 10
17.271451064433158
 20
-0.638012223016982
 10
14.496027335619599
 20
-6.1464867992881729
 10
14.386784750873829
 20
-6.3464338331864756
 10
14.2709214034162
 20
-6.5119529009830863
 10
14.148437293246721
 20
-6.6430440026780051
 10
14.08471245214503
 20
-6.6956790662373296
 10
14.01933242036537
 20
-6.7397071382712319
 10
13.88162055595858
 20
-6.8092251467457992
 10
13.73331547121281
 20
-6.8588808670847783
 10
13.574417166128059
 20
-6.8886742992881684
 10
13.404925640704329
 20
-6.8986054433559651
 10
13.19835784409416
 20
-6.8870191086102039
 10
13.012976488161961
 20
-6.8522601043729168
 10
12.848781572907731
 20
-6.7943284306441019
 10
12.77462903053484
 20
-6.7566728427203708
 10
12.705773098331459
 20
-6.7132240874237574
 10
12.580971721212819
 20
-6.6125884942034263
 10
12.471398098331459
 20
-6.4960630704746158
 10
12.37705222968739
 20
-6.3636478162373313
 10
12.29793411528061
 20
-6.2153427314915781
 10
12.241871464510419
 20
-6.0795508413837567
 10
12.194856132497261
 20
-5.9361108101376772
 10
12.157430521085949
 20
-5.7849344227592594
 10
12.13013703212129
 20
-5.6259334642544196
 10
11.74179004748401
 20
-5.96640205352546
 10
11.48291822545011
 20
-6.1650249348813961
 10
11.214777335619591
 20
-6.3477579857288546
 10
10.937367377992469
 20
-6.5146012060678338
 10
10.65068835256875
 20
-6.6655545958983318
 10
10.505031572907731
 20
-6.7325898183559616
 10
10.35937479324671
 20
-6.7906870111525741
 10
10.213718013585691
 20
-6.8398461742881693
 10
10.06806123392467
 20
-6.8800673077627472
 10
9.9224044542636562
 20
-6.9113504115763078
 10
9.7767476746026389
 20
-6.9336954857288511
 10
9.6310908949416252
 20
-6.947102530220377
 10
9.485434115280615
 20
-6.9515715450508857
 10
9.3142873991789177
 20
-6.9445369846695302
 10
9.1504235220602723
 20
-6.9234333035254618
 10
8.9938424839246807
 20
-6.8882605016186824
 10
8.8445442847721374
 20
-6.8390185789491902
 10
8.7025289246026478
 20
-6.7757075355169869
 10
8.5677964034162066
 20
-6.6983273713220708
 10
8.4403467212128174
 20
-6.6068780863644436
 10
8.3201798779924765
 20
-6.5013596806441036
 10
8.2056406830772204
 20
-6.3824342304322386
 10
8.0950739457890855
 20
-6.2507638120000371
 10
7.988479666128069
 20
-6.1063484253474956
 10
7.885857844094172
 20
-5.9491880704746158
 10
7.7872084796873944
 20
-5.7792827473813952
 10
7.6925315729077326
 20
-5.5966324560678347
 10
7.6018271237551902
 20
-5.4012371965339323
 10
7.5150951322297637
 20
-5.1930969687796882
 10
7.3806936491789177
 20
-5.3420641297966416
 10
7.2317264881619678
 20
-5.4923554433559687
 10
7.0681936491789159
 20
-5.6439709094576678
 10
6.8900951322297637
 20
-5.796910528101737
 10
6.7004102805348502
 20
-5.9468708035254654
 10
6.5021184373145111
 20
-6.0895482399661418
 10
6.2952196025687464
 20
-6.2249428374237654
 10
6.0797137762975559
 20
-6.3530545958983318
 10
5.8575871873145049
 20
-6.471897286576306
 10
5.6308260644331547
 20
-6.5794846806441072
 10
5.3994304076535
 20
-6.6758167781017326
 10
5.1634002169755364
 20
-6.7608935789491831
 10
4.9250527593484144
 20
-6.8304115874237663
 10
4.6867053017212932
 20
-6.8800673077627543
 10
4.448357844094172
 20
-6.9098607399661471
 10
4.2100103864670508
 20
-6.9197918840339447
 10
3.9574282890094299
 20
-6.9068813967458063
 10
3.7081565729077361
 20
-6.8681499348813944
 10
3.4621952381619701
 20
-6.8035974984407108
 10
3.2195442847721298
 20
-6.7132240874237574
 10
2.9855003229077282
 20
-6.5986848925085058
 10
2.765359962738235
 20
-6.4616351043729203
 10
2.5591232042636558
 20
-6.3020747230169958
 10
2.366790047483998
 20
-6.1200037484407268
 10
2.2601372759624172
 20
-6.001584627558934
 10
2.1602580200002839
 20
-5.8755658941517517
 10
2.067403973813009
 20
-5.7418014458012721
 10
1.9818268316159999
 20
-5.6001451800895872
 10
1.81594258985687
 20
-5.7015715450508857
 10
1.406779454263656
 20
-5.9227050196271591
 10
0.9843747932467113
 20
-6.141190189118678
 10
0.5540252169755138
 20
-6.3464338331864809
 10
0.121027335619583
 20
-6.5278427314915781
 10
-0.3079980881092265
 20
-6.6801202738644427
 10
-0.5185383423465153
 20
-6.7433485577627534
 10
-0.7264302914990604
 20
-6.7979698501356474
 10
-0.9296877067533005
 20
-6.8419979221695399
 10
-1.1263243592956731
 20
-6.8734465450508893
 10
-1.3163402491261751
 20
-6.8923157187796971
 10
-1.499735376244804
 20
-6.8986054433559651
 10
-1.641502457812605
 20
-6.890743287635626
 10
-1.780786753363456
 20
-6.8671568204746087
 10
-1.917588262897358
 20
-6.827846041872915
 10
-2.0519069864143091
 20
-6.772810951830543
 10
-2.1837429239143109
 20
-6.7020515503474947
 10
-2.3130960753973642
 20
-6.6155678374237699
 10
-2.439966440863468
 20
-6.5133598130593677
 10
-2.5643540203126238
 20
-6.3954274772542909
 10
-2.685513977939737
 20
-6.2642536160254751
 10
-2.8027014779397339
 20
-6.1223210153898808
 10
-2.9159165203126141
 20
-5.9696296753475062
 10
-3.0251591050583748
 20
-5.8061795958983531
 10
-3.130429232177018
 20
-5.6319707770424197
 10
-3.2317269016685422
 20
-5.4470032187797077
 10
-3.3290521135329461
 20
-5.2512769211102146
 10
-3.4224048677702288
 20
-5.0447918840339447
 10
-3.524695118461739
 20
-4.7839713406040723
 10
-3.8021649284113761
 20
-4.9982784304842234
 10
-4.0844811389566651
 20
-5.203690189118678
 10
-4.5572035965837898
 20
-5.5188384942034219
 10
-5.0643540203125958
 20
-5.828690189118678
 10
-5.3298466050583713
 20
-5.9779883882712221
 10
-5.6019599525160046
 20
-6.118679595898346
 10
-5.8806940626854978
 20
-6.2507638120000442
 10
-6.1660489355668524
 20
-6.3742410365763114
 10
-6.4573624948888826
 20
-6.4874560789491884
 10
-6.7539726643804103
 20
-6.5887537484407162
 10
-7.0558794440414259
 20
-6.6781340450508857
 10
-7.3630828338719247
 20
-6.7555969687796882
 10
-7.6739276431939647
 20
-6.8181631764068094
 10
-7.9867586813295617
 20
-6.8628533247118959
 10
-8.3015759482787139
 20
-6.8896674136949478
 10
-8.6183794440414196
 20
-6.8986054433559651
 10
-8.8634304239143056
 20
-6.8929777950508804
 10
-9.1007020076007485
 20
-6.876094850135626
 10
-9.3301941951007485
 20
-6.8479566086102022
 10
-9.5519069864143056
 20
-6.8085630704746087
 10
-9.7658403815414232
 20
-6.7579142357288458
 10
-9.9719943804820979
 20
-6.6960101043729132
 10
-10.17036898323634
 20
-6.6228506764068111
 10
-10.360964189804131
 20
-6.5384359518305386
 10
-10.543780000185491
 20
-6.4445038808559643
 10
-10.718816414380409
 20
-6.3427924136949487
 10
-10.88607343238888
 20
-6.2333015503474938
 10
-11.045551054210909
 20
-6.1160312908135994
 10
-11.19724927984651
 20
-5.9909816350932621
 10
-11.34116810929566
 20
-5.8581525831864836
 10
-11.477307542558369
 20
-5.7175441350932621
 10
-11.605667579634639
 20
-5.5691562908135994
 10
-11.72916198542608
 20
-5.4099192782957486
 10
-11.84440568303874
 20
-5.2443809485372093
 10
-11.95132277660074
 20
-5.072501542660028
 10
-12.04983737024021
 20
-4.8942413017862556
 10
-12.1988879186177
 20
-5.0765715450508857
 10
-12.48093241014312
 20
-5.3847680492881764
 10
-12.76562520675329
 20
-5.6631711213220726
 10
-13.0529663084482
 20
-5.9117807611525759
 10
-13.342955715227861
 20
-6.1305969687796882
 10
-13.63526238895667
 20
-6.3202818204746132
 10
-13.929555291499049
 20
-6.481497392508512
 10
-14.22583442285498
 20
-6.6142436848813899
 10
-14.52409978302448
 20
-6.7185206975932523
 10
-14.82302721946515
 20
-6.7973077738644392
 10
-15.121292579634639
 20
-6.8535842569152869
 10
-15.41889586353294
 20
-6.8873501467457956
 10
-15.71583707116006
 20
-6.8986054433559651
 10
-16.000198829634641
 20
-6.8860259942034237
 10
-16.281250206753288
 20
-6.8482876467457992
 10
-16.558991202516001
 20
-6.7853904009830917
 10
-16.833421816922769
 20
-6.6973342569153012
 10
-17.098583363532949
 20
-6.5844502526780033
 10
-17.348517155905839
 20
-6.4470694264068129
 10
-17.58322319404143
 20
-6.2851917781017281
 10
-17.802701477939738
 20
-6.0988173077627472
 10
-17.905985376244821
 20
-5.9965265238644418
 10
-18.00397266438042
 20
-5.8882770535254583
 10
-18.09666334234652
 20
-5.7740688967457956
 10
-18.184057410143119
 20
-5.6539020535254556
 10
-18.26615486777024
 20
-5.5277765238644383
 10
-18.342955715227859
 20
-5.3956923077627437
 10
-18.48066757963463
 20
-5.1136478162373216
 10
-18.54025444404142
 20
-4.9639358194152896
 10
-18.59189639319397
 20
-4.8087616933559687
 10
-18.635593427092271
 20
-4.6481254380593588
 10
-18.671345545736351
 20
-4.48202705352546
 10
-18.699152749126181
 20
-4.3104665397542723
 10
-18.719015037261769
 20
-4.1334438967457956
 10
-18.730932410143129
 20
-3.95095912450003
 10
-18.734904867770251
 20
-3.7630122230169749
 10
-18.729608257600749
 20
-3.5829274772542909
 10
-18.713718427092271
 20
-3.3922495111525879
 10
-18.68657329997362
 20
-3.031748981491567
 10
-18.647510799973631
 20
-2.6599931552203802
 10
-18.596530927092271
 20
-2.27698203233903
 10
-18.533633681329551
 20
-1.882715612847516
 10
-18.386652749126171
 20
-1.0710101043729381
 10
-18.221133681329551
 20
-0.235469850135654
 10
-17.85566757963463
 20
1.4912250651186021
 10
-17.672934528787181
 20
2.36913820071182
 10
-17.506091308448202
 20
3.2444030312203052
 10
-17.360434528787192
 20
4.1130470990168959
 10
-17.24126079997362
 20
4.9710979464745328
 10
-17.194915460990568
 20
5.3931715693558804
 10
-17.161811647431261
 20
5.8066382007118076
 10
-17.141949359295669
 20
6.2114978405423154
 10
-17.135328596583811
 20
6.6077504888473966
 10
-17.143273511838039
 20
7.0619348108813007
 10
-17.167108257600749
 20
7.4710979464745257
 10
-17.18697054573634
 20
7.657141378677915
 10
-17.21477774912616
 20
7.8286191329152004
 10
-17.250529867770229
 20
7.9855312091863837
 10
-17.294226901668541
 20
8.1278776074914667
 10
-17.347193003363461
 20
8.2553272896948577
 10
-17.410752325397361
 20
8.367549217660958
 10
-17.48490486777024
 20
8.4645433913897747
 10
-17.569650630482109
 20
8.5463098108813078
 10
-17.66697584234651
 20
8.6111932854575706
 10
-17.778866732177018
 20
8.6575386244406154
 10
-17.905323299973631
 20
8.6853458278304423
 10
-18.04634554573634
 20
8.6946148956270513
 10
-18.185712600821081
 20
8.6884906901185772
 10
-18.32309342709226
 20
8.6701180735931551
 10
-18.45848802454989
 20
8.6394970460507849
 10
-18.591896393193959
 20
8.5966276074914667
 10
-18.723318533024472
 20
8.5415097579151968
 10
-18.85275444404142
 20
8.4741434973219789
 10
-18.980204126244811
 20
8.3945288257118058
 10
-19.10566757963463
 20
8.3026657430846846
 10
-19.22931032327871
 20
8.2000439210507921
 10
-19.351297876244811
 20
8.0881530312202852
 10
-19.471630238532949
 20
7.9669930735931684
 10
-19.590307410143119
 20
7.8365640481694392
 10
-19.822696181329562
 20
7.5478987939321467
 10
-20.048464189804129
 20
7.2221572685084077
 10
-20.267280397431261
 20
6.8619877769829927
 10
-20.47881376607533
 20
6.4700386244406296
 10
-20.683064295736351
 20
6.0463098108813131
 10
-20.88003198641432
 20
5.5908013363050379
 10
-21.070709952516012
 20
5.1098029252880828
 10
-21.256091308448209
 20
4.6096043024067264
 10
-21.436176054210911
 20
4.0902054676609687
 10
-21.610964189804129
 20
3.5516064210508098
 10
-21.78012467709226
 20
2.9967865057965679
 10
-21.943326477939721
 20
2.4287250651186021
 10
-22.10056959234651
 20
1.8474220990169059
 10
-22.25185402031261
 20
1.252877607491474
 10
-22.53787096946515
 20
0.0465746413897786
 10
-22.802701477939738
 20
-1.1676732399661589
 10
-23.048993850821091
 20
-2.3779486636949621
 10
-23.27939639319397
 20
-3.5723342569153012
 10
-23.69253198641432
 20
-5.8180969687796882
 10
-23.740532516075319
 20
-5.9607744052203682
 10
-23.79978834234651
 20
-6.0921965450508786
 10
-23.870299465227859
 20
-6.2123633882712186
 10
-23.952065884719399
 20
-6.3212749348813908
 10
-24.042770333871939
 20
-6.4195932611525812
 10
-24.14009554573634
 20
-6.5079804433559758
 10
-24.244041520312621
 20
-6.5864364814915728
 10
-24.354608257600749
 20
-6.6549613755593704
 10
-24.47014056692278
 20
-6.7142172018305537
 10
-24.588983257600741
 20
-6.7648660365763149
 10
-24.711136329634641
 20
-6.8069078797966558
 10
-24.836599783024472
 20
-6.8403427314915781
 10
-25.090837071160081
 20
-6.8840397653898684
 10
-25.345074359295669
 20
-6.8986054433559651
 10
-25.455972134719399
 20
-6.8933088331864756
 10
-25.566207833871939
 20
-6.8774190026780069
 10
-25.675781456753288
 20
-6.850935951830551
 10
-25.784693003363461
 20
-6.8138596806441036
 10
-25.889963130482101
 20
-6.7651970747119066
 10
-25.98861249488888
 20
-6.7039550196271627
 10
-26.0806410965838
 20
-6.6301335153898719
 10
-26.16604893556686
 20
-6.5437325620000344
 10
-26.24417393556686
 20
-6.4447521594576678
 10
-26.31435402031261
 20
-6.3331923077627508
 10
-26.37658918980414
 20
-6.2090530069152923
 10
-26.430879444041441
 20
-6.0723342569153012
 10
-26.47490751607533
 20
-5.9213808670847872
 10
-26.506356138956679
 20
-5.7545376467457992
 10
-26.525225312685489
 20
-5.5718045958983371
 10
-26.531515037261759
 20
-5.373181714542401
 10
-26.52357012200752
 20
-5.2106419899661374
 10
-26.499735376244811
 20
-4.9984465450508857
 10
-26.46001079997362
 20
-4.7365953797966514
 10
-26.404396393193959
 20
-4.4250884942034396
 10
-26.260063766075319
 20
-3.6862113755593668
 10
-26.08130317285497
 20
-2.814919002678014
 10
-25.657574359295669
 20
-0.7598342569153078
 10
-25.437765037261769
 20
0.3683437091863947
 10
-25.23384554573633
 20
1.5177081159660479
 10
-25.140161753363461
 20
2.096031738847409
 10
-25.055084952516012
 20
2.6710449803728342
 10
-24.978615143193981
 20
3.242747840542326
 10
-24.910752325397372
 20
3.8111403193558888
 10
-24.855137918617711
 20
4.366622310881314
 10
-24.81541334234651
 20
4.8995937091863944
 10
-24.79157859658379
 20
5.4100545142711356
 10
-24.783633681329551
 20
5.8980047261355431
 10
-24.79157859658379
 20
6.5203564210507956
 10
-24.81541334234652
 20
7.0738521837626642
 10
-24.836599783024479
 20
7.3234549379999443
 10
-24.86837944404143
 20
7.5531954041016363
 10
-24.910752325397361
 20
7.7630735820677383
 10
-24.96371842709226
 20
7.9530894718982488
 10
-25.028270863532939
 20
8.1225809973219789
 10
-25.105402749126171
 20
8.2708860820677472
 10
-25.195114083871928
 20
8.3980047261355466
 10
-25.29740486777024
 20
8.5039369295253771
 10
-25.414923405905832
 20
8.5873585396948648
 10
-25.550318003363461
 20
8.6469454041016363
 10
-25.703588660143119
 20
8.6826975227456984
 10
-25.874735376244811
 20
8.6946148956270513
 10
-25.95021207116007
 20
8.6883251710507796
 10
-26.02833707116007
 20
8.6694559973219683
 10
-26.109110376244821
 20
8.6380073744406118
 10
-26.192531986414309
 20
8.5939793024067157
 10
-26.278601901668551
 20
8.5373717812202763
 10
-26.367320122007531
 20
8.4681848108812936
 10
-26.552701477939731
 20
8.2920725227456948
 10
-26.747020863532949
 20
8.0716011244406189
 10
-26.948623088109219
 20
7.8127293024067228
 10
-27.157508151668541
 20
7.5154570566440082
 10
-27.3736760542109
 20
7.1797843871524769
 10
-27.595140566922769
 20
6.8093527134236744
 10
-27.819915460990568
 20
6.4078034549491036
 10
-28.048000736414298
 20
5.9751366117287681
 10
-28.279396393193959
 20
5.5113521837626713
 10
-28.512116202516001
 20
5.0224088574914774
 10
-28.744173935566849
 20
4.5142653193558857
 10
-28.975569592346499
 20
3.986921569355887
 10
-29.20630317285497
 20
3.4403776074914738
 10
-29.434719486414309
 20
2.877943815118599
 10
-29.65916334234651
 20
2.302930573593176
 10
-29.879634740651589
 20
1.7153378829152079
 10
-30.096133681329551
 20
1.115165743084692
 10
-30.30634289743125
 20
0.5087038786779197
 10
-30.507945122007531
 20
-0.0977579857288578
 10
-30.700940355058378
 20
-0.7042198501356354
 10
-30.8853285965838
 20
-1.3106817145424079
 10
-31.060116732177029
 20
-1.913833197593263
 10
-31.224311647431261
 20
-2.5103639179322488
 10
-31.37791334234652
 20
-3.1002738755593642
 10
-31.52092181692279
 20
-3.6835630704746078
 10
-31.65002668980414
 20
-4.2546038543729203
 10
-31.761917579634641
 20
-4.8077685789491973
 10
-31.856594486414298
 20
-5.3430572442034396
 10
-31.934057410143112
 20
-5.8604698501356474
 10
-31.962526689804129
 20
-6.0120853162373393
 10
-32.00556164743125
 20
-6.149135104372931
 10
-32.063162283024482
 20
-6.2716192145424214
 10
-32.135328596583797
 20
-6.3795376467458063
 10
-32.218750206753292
 20
-6.4748766297966496
 10
-32.310116732177022
 20
-6.5596223925085164
 10
-32.409428172854987
 20
-6.6337749348813997
 10
-32.516684528787181
 20
-6.6973342569153012
 10
-32.629899571160067
 20
-6.7512934730169967
 10
-32.747087071160067
 20
-6.7966456975932674
 10
-32.868247028787181
 20
-6.8333909306441107
 10
-32.993379444041437
 20
-6.8615291721695293
 10
-33.242320122007527
 20
-6.897281290813595
 10
-33.480667579634648
 20
-6.9091986636949549
 10
-33.752118850821077
 20
-6.8946329857288546
 10
-33.884865143193963
 20
-6.8764258882712248
 10
-34.015625206753292
 20
-6.8509359518305386
 10
-34.141750736414309
 20
-6.8178321382712248
 10
-34.260593427092267
 20
-6.7767834094576678
 10
-34.372153278787202
 20
-6.7277897653898684
 10
-34.476430291499057
 20
-6.6708512060678267
 10
-34.571769274549901
 20
-6.6066298077627481
 10
-34.656515037261762
 20
-6.5357876467457992
 10
-34.730667579634627
 20
-6.4583247230169851
 10
-34.79422690166853
 20
-6.3742410365763114
 10
-34.845206774549887
 20
-6.2838676255593686
 10
-34.881620969465153
 20
-6.1875355281017441
 10
-34.903469486414309
 20
-6.0852447442034379
 10
-34.910752325397361
 20
-5.9769952738644498
 10
-34.900159105058371
 20
-5.5598872230169896
 10
-34.86837944404143
 20
-5.1772071382712319
 10
-34.81541334234651
 20
-4.8104168840339314
 10
-34.741260799973638
 20
-4.4409783247118959
 10
-34.463188766075334
 20
-3.2452685789491951
 10
-34.222193003363451
 20
-2.1369529009831001
 10
-34.015625206753278
 20
-1.1001414603051349
 10
-33.840837071160067
 20
-0.1189444264068231
 10
-33.692531986414309
 20
0.8198797261355468
 10
-33.56541334234651
 20
1.7295725227457019
 10
-33.455508681329547
 20
2.6273479464745328
 10
-33.35884554573633
 20
3.5304199803728298
 10
-33.272775630482087
 20
4.450705997321986
 10
-33.194650630482101
 20
5.4001233702033353
 10
-33.035752325397368
 20
7.4658013363050308
 10
-33.035752325397368
 20
7.709445404101654
 10
-33.043697240651603
 20
7.8537780312202914
 10
-33.067531986414309
 20
7.9901657430846846
 10
-33.111229020312607
 20
8.1133119295253735
 10
-33.14201556692278
 20
8.1679332218982559
 10
-33.178760799973617
 20
8.2179199803728231
 10
-33.223450948278703
 20
8.2596307854575741
 10
-33.278072240651582
 20
8.2894242176609652
 10
-33.34262467709226
 20
8.3073002769829962
 10
-33.417108257600738
 20
8.3132589634236744
 10
-33.55117870251599
 20
8.3023347049490965
 10
-33.699152749126164
 20
8.2695619295253664
 10
-33.86103039743125
 20
8.214940637152484
 10
-34.036811647431243
 20
8.1384708278304565
 10
-34.221861965227859
 20
8.0434628829152039
 10
-34.41154681692278
 20
7.9332271837626571
 10
-34.605866202515998
 20
7.8077637303728187
 10
-34.80482012200752
 20
7.6670725227456948
 10
-35.006091308448212
 20
7.5124777134236744
 10
-35.207362494888883
 20
7.3453034549491001
 10
-35.408633681329547
 20
7.1655497473219798
 10
-35.609904867770233
 20
6.973216590542318
 10
-35.807203596583797
 20
6.7709522896948631
 10
-35.996557410143133
 20
6.5614051498643597
 10
-36.177966308448212
 20
6.3445751710508027
 10
-36.351430291499057
 20
6.1204623532541866
 10
-36.387844486414323
 20
6.046640849016895
 10
-36.433527749126178
 20
5.9840746413897783
 10
-36.488480079634648
 20
5.9327637303728311
 10
-36.552701477939728
 20
5.8927081159660482
 10
-36.623543638956683
 20
5.8625836456270743
 10
-36.698358257600738
 20
5.8410661668135191
 10
-36.777145333871928
 20
5.8281556795253842
 10
-36.859904867770233
 20
5.8238521837626713
 10
-36.886718956753278
 20
5.8294798320677561
 10
-36.914195122007527
 20
5.8463627769830104
 10
-36.971133681329569
 20
5.9138945566440277
 10
-37.026748088109223
 20
6.0132059973219931
 10
-37.077065884719381
 20
6.1310555735931764
 10
-37.1207629186177
 20
6.2621466752880899
 10
-37.156515037261748
 20
6.4011826922372457
 10
-37.180349783024482
 20
6.5375704041016443
 10
-37.188294698278717
 20
6.660716590542318
 10
-37.177701477939728
 20
6.7189793024067264
 10
-37.145921816922787
 20
6.7666487939321591
 10
-36.948954126244807
 20
7.3661588574914703
 10
-36.739406986414309
 20
7.9146890481694321
 10
-36.629916123066863
 20
8.1698366911779079
 10
-36.517280397431257
 20
8.4122393659660446
 10
-36.401499809507527
 20
8.6418970725338458
 10
-36.282574359295658
 20
8.8588098108813078
 10
-36.038268215227873
 20
9.2587038786779132
 10
-35.787341308448212
 20
9.6162250651185914
 10
-35.659395069041423
 20
9.7790958278304601
 10
-35.529793638956683
 20
9.9313733702033424
 10
-35.398537018193963
 20
10.07305769223724
 10
-35.265625206753292
 20
10.204148793932159
 10
-34.996822240651603
 20
10.43753067952537
 10
-34.86142764319397
 20
10.540566299228759
 10
-34.72537096946516
 20
10.63449837020333
 10
-34.588652219465153
 20
10.7193268924491
 10
-34.451271393193963
 20
10.79505186596605
 10
-34.313228490651589
 20
10.86167329075419
 10
-34.174523511838032
 20
10.919191166813521
 10
-33.899430821160067
 20
11.011881844779611
 10
-33.630296816922787
 20
11.078089471898251
 10
-33.367121499126178
 20
11.117814048169439
 10
-33.10990486777024
 20
11.131055573593169
 10
-32.949185852939728
 20
11.12716587549995
 10
-32.795418638956683
 20
11.115496781220291
 10
-32.648603225821077
 20
11.09604829075418
 10
-32.508739613532953
 20
11.06882040410164
 10
-32.375827802092267
 20
11.033813121262661
 10
-32.249867791499049
 20
10.99102644223723
 10
-32.130859581753278
 20
10.940460367025359
 10
-32.018803172854973
 20
10.882114895627049
 10
-31.913036488532939
 20
10.816734863847399
 10
-31.81289745251599
 20
10.74506510749147
 10
-31.718386064804129
 20
10.66710562655927
 10
-31.62950232539735
 20
10.58285642105079
 10
-31.546246234295658
 20
10.49231749096605
 10
-31.468617791499049
 20
10.395488836305031
 10
-31.396616997007531
 20
10.29237045706774
 10
-31.330243850821091
 20
10.18296235325418
 10
-31.2127253126855
 20
9.9462700863050273
 10
-31.114406986414309
 20
9.6864051498643491
 10
-31.035288872007531
 20
9.4033675439321449
 10
-30.97537096946516
 20
9.0971572685084077
 10
-30.931342897431261
 20
8.7707536668135013
 10
-30.899894274549901
 20
8.4271360820677437
 10
-30.881025100821091
 20
8.0663045142711347
 10
-30.874735376244811
 20
7.6882589634236744
 10
-30.880694062685489
 20
7.3790693447796034
 10
-30.89857012200752
 20
7.0447208278304503
 10
-30.928363554210911
 20
6.685213412576215
 10
-30.970074359295669
 20
6.3005470990168986
 10
-31.07733071522787
 20
5.4861932854575741
 10
-31.20842181692279
 20
4.6321148956270584
 10
-31.358051054210922
 20
3.7568500651185879
 10
-31.52092181692279
 20
2.8789369295253842
 10
-31.84931164743125
 20
1.2369877769829889
 10
-31.67220624488888
 20
1.934485128677915
 10
-31.479873088109219
 20
2.6180788786779199
 10
-31.272312177092271
 20
3.287769026983006
 10
-31.049523511838029
 20
3.943555573593176
 10
-30.813824359295658
 20
4.5817970990169039
 10
-30.567531986414309
 20
5.1988521837626642
 10
-30.31064639319397
 20
5.7947208278304627
 10
-30.043167579634659
 20
6.3694030312203047
 10
-29.766088660143119
 20
6.9202504888474152
 10
-29.480402749126171
 20
7.4446148956270699
 10
-29.1861098465838
 20
7.9424962515592714
 10
-28.883209952516012
 20
8.4138945566440206
 10
-28.57368929573634
 20
8.8558304676609616
 10
-28.259534105058371
 20
9.2653246413897747
 10
-27.940744380482101
 20
9.6423770778304512
 10
-27.617320122007531
 20
9.986987776982982
 10
-27.290585482177029
 20
10.29683947189824
 10
-26.96186461353296
 20
10.56961489562706
 10
-26.796759343405849
 20
10.69209900579656
 10
-26.631157516075341
 20
10.805314048169439
 10
-26.465059131541441
 20
10.90926002274572
 10
-26.29846418980415
 20
11.003936929525381
 10
-26.13178648853296
 20
11.08835165410165
 10
-25.965439825397372
 20
11.161511082067751
 10
-25.799424200397361
 20
11.22341521342368
 10
-25.63373961353296
 20
11.27406404816945
 10
-25.46838606480414
 20
11.31345758630504
 10
-25.303363554210911
 20
11.34159582783046
 10
-25.138672081753281
 20
11.35847877274572
 10
-24.97431164743125
 20
11.364106421050799
 10
-24.735302113532949
 20
11.350864895627071
 10
-24.50556164743125
 20
11.31114031935588
 10
-24.285090249126171
 20
11.24493269223723
 10
-24.07388791861769
 20
11.15224201427112
 10
-23.972424730058371
 20
11.095634493084679
 10
-23.874602960990579
 20
11.03174413291519
 10
-23.780422611414309
 20
10.96057093376265
 10
-23.689883681329562
 20
10.88211489562706
 10
-23.60298617073634
 20
10.796376018508409
 10
-23.519730079634641
 20
10.703354302406719
 10
-23.364142155905832
 20
10.49546235325418
 10
-23.224113024549901
 20
10.258439048169439
 10
-23.100635799973631
 20
9.992284387152484
 10
-22.993710482177018
 20
9.6969983702033282
 10
-22.90333707116006
 20
9.3725809973219718
 10
-22.83150179573633
 20
9.0177081159660446
 10
-22.780190884719389
 20
8.6310555735931658
 10
-22.749404338109219
 20
8.2126233702033353
 10
-22.739142155905832
 20
7.7624115057965462
 10
-22.75503198641432
 20
7.4975809973219718
 10
-22.797404867770251
 20
7.084445404101654
 10
-22.860964189804129
 20
6.5812674379999514
 10
-22.929820122007531
 20
6.0463098108813149
 10
-23.109904867770251
 20
4.6691911668135226
 10
-22.8874472406516
 20
4.679784387152484
 10
-22.781183999126171
 20
5.0667679676609598
 10
-22.66896207116007
 20
5.4438204041016398
 10
-22.550781456753288
 20
5.8109416964745231
 10
-22.426642155905832
 20
6.1681318447796087
 10
-22.29654416861769
 20
6.5153908490168968
 10
-22.160487494888869
 20
6.8527187091863873
 10
-22.018472134719381
 20
7.1801154252880792
 10
-21.870498088109208
 20
7.4975809973219718
 10
-21.717227431329551
 20
7.804205070415196
 10
-21.559322240651579
 20
8.0990772896948595
 10
-21.396782516075309
 20
8.3821976551609652
 10
-21.229608257600741
 20
8.6535661668135084
 10
-21.057799465227859
 20
8.9131828246524947
 10
-20.881356138956679
 20
9.1610476286779186
 10
-20.700278278787192
 20
9.3971605788897854
 10
-20.514565884719399
 20
9.6215216752880899
 10
-20.324715513956679
 20
9.8336343606694463
 10
-20.131223723702441
 20
10.03300207783046
 10
-19.934090513956679
 20
10.21962482677114
 10
-19.733315884719389
 20
10.393502607491479
 10
-19.528899835990579
 20
10.554635419991479
 10
-19.32084236777024
 20
10.70302326427114
 10
-19.109143480058371
 20
10.83866614033046
 10
-18.89380317285498
 20
10.96156404816945
 10
-18.675649041499049
 20
11.0708066329152
 10
-18.455508681329562
 20
11.16548353969486
 10
-18.23338209234651
 20
11.245594768508409
 10
-18.009269274549901
 20
11.31114031935587
 10
-17.783170227939738
 20
11.36212019223723
 10
-17.555084952516012
 20
11.39853438715248
 10
-17.325013448278721
 20
11.420382904101629
 10
-17.09295571522788
 20
11.427665743084679
 10
-16.933643612473642
 20
11.42170705664401
 10
-16.778800524549911
 20
11.40383099732197
 10
-16.62842645145669
 20
11.374037565118581
 10
-16.48252139319397
 20
11.33232676003384
 10
-16.341085349761769
 20
11.27869858206774
 10
-16.20411832116007
 20
11.213153031220291
 10
-16.07162030738888
 20
11.13569010749147
 10
-15.9435913084482
 20
11.04630981088131
 10
-15.82036236247362
 20
10.94675009160164
 10
-15.70226450760074
 20
10.838748899864351
 10
-15.589297743829549
 20
10.72230623566943
 10
-15.48146207116006
 20
10.597422099016891
 10
-15.37875748959226
 20
10.464096489906719
 10
-15.28118399912616
 20
10.322329408338931
 10
-15.188741599761761
 20
10.1721208543135
 10
-15.101430291499049
 20
10.01347082783046
 10
-14.94186991014312
 20
9.6738257007118165
 10
-14.80217181692278
 20
9.3063733702033389
 10
-14.68233601183803
 20
8.9111138363050308
 10
-14.582362494888869
 20
8.4880470990168924
 10
-14.50357541861769
 20
8.0447870354575706
 10
-14.447298935566851
 20
7.5889475227457091
 10
-14.413533045736351
 20
7.1205285608812998
 10
-14.40227774912618
 20
6.6395301498643384
 10
-14.40989162624482
 20
6.1810423320677366
 10
-14.43273325760075
 20
5.7165958278304556
 10
-14.47080264319397
 20
5.246190637152492
 10
-14.52409978302448
 20
4.7698267600338404
 10
-14.58865221946515
 20
4.2918076922372368
 10
-14.66048749488888
 20
3.8164369295253771
 10
-14.73960560929566
 20
3.3437144718982612
 10
-14.826006562685491
 20
2.8736403193558888
 10
-15.01271207116006
 20
1.945409387152498
 10
-15.212659105058361
 20
1.0357165905423249
 10
-15.599311647431261
 20
-0.6697918840339514
 10
-15.76483071522787
 20
-1.444421121322083
 10
-15.901218427092269
 20
-2.1581393416610508
 10
-15.95451556692278
 20
-2.4881843628474929
 10
-15.992584952515999
 20
-2.7950567145424121
 10
-16.015426583871921
 20
-3.078756396745804
 10
-16.023040460990561
 20
-3.3392834094576669
 10
-16.019481801032939
 20
-3.4901540397542758
 10
-16.00880582116006
 20
-3.6302659306441059
 10
-15.99101252137193
 20
-3.7596190821271591
 10
-15.966101901668541
 20
-3.878213494203433
 10
-15.934073962049901
 20
-3.986049166872927
 10
-15.89492870251601
 20
-4.0831261001356411
 10
-15.84866612306686
 20
-4.1694442939915746
 10
-15.795286223702449
 20
-4.2450037484407268
 10
-15.73512004255838
 20
-4.3107975778898773
 10
-15.66849861777024
 20
-4.3678188967458063
 10
-15.59542194933803
 20
-4.4160677050085164
 10
-15.515890037261761
 20
-4.4555440026780033
 10
-15.42990288154142
 20
-4.4862477897542714
 10
-15.33746048217701
 20
-4.5081790662373198
 10
-15.238562839168541
 20
-4.5213378321271476
 10
-15.133209952515999
 20
-4.5257240874237574
 10
-15.009732727939729
 20
-4.5174481340339288
 10
-14.882945122007531
 20
-4.4926202738644392
 10
-14.752847134719399
 20
-4.4512405069152869
 10
-14.61943876607533
 20
-4.3933088331864703
 10
-14.484375206753301
 20
-4.3218045958983433
 10
-14.349311647431261
 20
-4.2397071382712248
 10
-14.21424808810923
 20
-4.1470164603051201
 10
-14.07918452878719
 20
-4.0437325620000344
 10
-13.810381562685491
 20
-3.8106817145424152
 10
-13.54422690166855
 20
-3.5458512060678258
 10
-13.284693003363451
 20
-3.2611584094576598
 10
-13.03575232539735
 20
-2.9685206975932519
 10
-12.815733707477071
 20
-2.6941900316534668
 10
-12.59771817476355
 20
-2.403446843133433
 10
-12.58965587130921
 20
-2.1203339313340281
 10
-12.5679653129289
 20
-1.8297137050099079
 10
-12.532947858717581
 20
-1.5315823249218281
 10
-12.48490486777022
 20
-1.2259359518305459
 10
-12.419028278787181
 20
-0.8965530069152989
 10
-12.337923935566851
 20
-0.5704804433559789
 10
-12.241591838109221
 20
-0.2477182611525861
 10
-12.13003198641429
 20
0.0717335396948795
 10
-12.0032443804821
 20
0.3858887303728359
 10
-11.86122902031261
 20
0.6927610820677439
 10
-11.70398590590583
 20
0.9923505947796036
 10
-11.531515037261769
 20
1.284657268508415
 10
-11.343816414380409
 20
1.564715531220281
 10
-11.140890037261761
 20
1.827559810881304
 10
-10.92273590590583
 20
2.0731901074914809
 10
-10.689354020312621
 20
2.3016064210508098
 10
-10.44107541861769
 20
2.5101604464745271
 10
-10.17823113895667
 20
2.6962038786779128
 10
-9.9008211813295546
 20
2.859736717660966
 10
-9.6088455457363402
 20
3.000758963423682
 10
-9.4571473201007503
 20
3.0615872208389372
 10
-9.3013111177702434
 20
3.1143050439321578
 10
-9.1413369387448213
 20
3.1589124327033442
 10
-8.9772247830244822
 20
3.1954093871524951
 10
-8.8089746506092279
 20
3.2237959072796118
 10
-8.6365865414990566
 20
3.2440719930846948
 10
-8.4600604556939736
 20
3.256237644567745
 10
-8.2793963931939736
 20
3.260292861728761
 10
-7.9880828338719372
 20
3.2483754888474068
 10
-7.7073624948888826
 20
3.212623370203342
 10
-7.4372353762448107
 20
3.1530365057965608
 10
-7.177701477939717
 20
3.0696148956270579
 10
-6.9317401431939611
 20
2.9646758066440131
 10
-6.7023307152278644
 20
2.8405365057965599
 10
-6.4894731940414241
 20
2.6971969930846962
 10
-6.2931675796346447
 20
2.5346572685084152
 10
-6.1154001008210832
 20
2.353579408338927
 10
-5.9581569864143056
 20
2.154625488847405
 10
-5.8214382364143056
 20
1.937795510033848
 10
-5.7052438508210814
 20
1.7030894718982561
 10
-5.6125531728549856
 20
1.4521625651185941
 10
-5.5463455457363438
 20
1.18666998037283
 10
-5.5066209694651569
 20
0.9066117176609698
 10
-5.4933794440414268
 20
0.6119877769830178
 10
-5.4984277756092226
 20
0.447792861728779
 10
-5.5135727703126136
 20
0.2835979464745403
 10
-5.5388144281515972
 20
0.1194030312203015
 10
-5.5741527491261742
 20
-0.0447918840339372
 10
-5.6195877332363446
 20
-0.208986799288176
 10
-5.6751193804821094
 20
-0.3731817145424148
 10
-5.7407476908634658
 20
-0.5373766297966536
 10
-5.8164726643804174
 20
-0.7015715450508924
 10
-5.9011356675583757
 20
-0.864607826830555
 10
-5.9935780669227778
 20
-1.025326841661065
 10
-6.0937998624736229
 20
-1.1837285895424221
 10
-6.2018010542109101
 20
-1.3398130704746261
 10
-6.3175816421346402
 20
-1.493580284457676
 10
-6.4411416262448116
 20
-1.645030231491573
 10
-6.7115997830244787
 20
-1.940978324711903
 10
-6.8580013984905763
 20
-2.0846488755593642
 10
-7.0111892957363384
 20
-2.2243469687797059
 10
-7.3379239355668453
 20
-2.4918257823390308
 10
-7.6918037025159967
 20
-2.7434147653898759
 10
-8.0728285965837863
 20
-2.9791139179322421
 10
-8.4757020076007432
 20
-3.1942887060678409
 10
-8.8951273253973575
 20
-3.3843045958983491
 10
-9.3311045499736291
 20
-3.549161587423769
 10
-9.7836336813295581
 20
-3.6888596806441032
 10
-9.6260595287871809
 20
-3.9510418840339341
 10
-9.4711336813295581
 20
-4.1655545958983318
 10
-9.3940017957363402
 20
-4.2555969687796997
 10
-9.3162078338719354
 20
-4.3350461213220761
 10
-9.2377517957363438
 20
-4.4039020535254663
 10
-9.1586336813295581
 20
-4.4621647653898746
 10
-9.0781914143804023
 20
-4.5111584094576749
 10
-8.9957629186176931
 20
-4.5522071382712346
 10
-8.9113481940414303
 20
-4.585310951830559
 10
-8.824947240651607
 20
-4.6104698501356474
 10
-8.6435383423465062
 20
-4.6422495111525883
 10
-8.4488879186176966
 20
-4.6528427314915781
 10
-8.2889137395922674
 20
-4.6488702738644578
 10
-8.1267878126854853
 20
-4.6369529009830996
 10
-7.9625101378973504
 20
-4.6170906128475027
 10
-7.7960807152278591
 20
-4.5892834094576678
 10
-7.4567666262448107
 20
-4.5098342569152878
 10
-7.1088455457363402
 20
-4.3986054433559651
 10
-6.7589382364143056
 20
-4.2635418840339359
 10
-6.4136654609905719
 20
-4.112588494203429
 10
-6.0730272194651427
 20
-3.9457452738644432
 10
-5.7370235118380224
 20
-3.7630122230169749
 10
-5.4079716050583606
 20
-3.5680307611525741
 10
-5.0881887660753122
 20
-3.3644423077627472
 10
-4.7776749948888781
 20
-3.1522468628474938
 10
-4.4764302914990601
 20
-2.931444426406816
 10
-4.070033162664334
 20
-2.606523050454431
 10
-4.1275961459997532
 20
-2.1513527246786279
 10
-4.1684962089701258
 20
-1.687417299418785
 10
-4.1929080987928931
 20
-1.2147417885801159
 10
-4.201006562685496
 20
-0.7333512060678333
 10
-4.1923995711600703
 20
-0.2516907187797059
 10
-4.1665785965837969
 20
0.2504941329152078
 10
-4.1235436389566784
 20
0.7732033490169055
 10
-4.0632946982787139
 20
1.3164369295253839
 10
-3.986493850821089
 20
1.8742361879999609
 10
-3.8938031728549838
 20
2.4406424379999589
 10
-3.785222664380405
 20
3.015655679525381
 10
-3.660752325397358
 20
3.599275912576235
 10
-3.522047346583804
 20
4.187861717660974
 10
-3.3707629186177042
 20
4.7777716752880899
 10
-3.206899041499057
 20
5.369005785457583
 10
-3.0304557152278631
 20
5.9615640481694534
 10
-2.8417639779397348
 20
6.5488257007118147
 10
-2.641154867770247
 20
7.1241699803728311
 10
-2.428628384719401
 20
7.6875968871524956
 10
-2.2041845287871991
 20
8.2391064210508027
 10
-1.968816414380419
 20
8.7757192388474117
 10
-1.7235171559058391
 20
9.294455997321986
 10
-1.4682867533634609
 20
9.7953166964745257
 10
-1.203125206753288
 20
10.278301336305031
 10
-0.9296877067532872
 20
10.73712019223723
 10
-0.6496294440414234
 20
11.16548353969486
 10
-0.3629504186177001
 20
11.56339137867791
 10
-0.0696506304821196
 20
11.930843709186391
 10
0.0794820496026283
 20
12.102238703889769
 10
0.2302699203653424
 20
12.264199111728759
 10
0.3827129818060229
 20
12.41672493270333
 10
0.5368112339246696
 20
12.5598161668135
 10
0.6925646767212825
 20
12.693472814059261
 10
0.8499733101958618
 20
12.817694874440621
 10
1.009037134348407
 20
12.932482347957571
 10
1.169756149178919
 20
13.03783523461011
 10
1.331633797483998
 20
13.13218110325418
 10
1.4941735220602641
 20
13.213947522745711
 10
1.6573753229077191
 20
13.28313449308469
 10
1.821239200026362
 20
13.339742014271129
 10
1.9857651534161911
 20
13.383770086305031
 10
2.150953183077208
 20
13.41521870918638
 10
2.3168032890094108
 20
13.4340878829152
  0
ENDSEC
  0
SECTION
  2
OBJECTS
  0
DICTIONARY
  5
C
100
AcDbDictionary
280
0
281
1
  3
ACAD_GROUP
350
D
  3
ACAD_LAYOUT
350
1A
  3
ACAD_MLINESTYLE
350
17
  3
ACAD_PLOTSETTINGS
350
19
  3
ACAD_PLOTSTYLENAME
350
E
  3
AcDbVariableDictionary
350
49
  0
DICTIONARY
  5
D
100
AcDbDictionary
280
0
281
1
  0
ACDBDICTIONARYWDFLT
  5
E
100
AcDbDictionary
281
1
  3
Normal
350
F
100
AcDbDictionaryWithDefault
340
F
  0
ACDBPLACEHOLDER
  5
F
  0
DICTIONARY
  5
17
100
AcDbDictionary
280
0
281
1
  3
Standard
350
18
  0
MLINESTYLE
  5
18
100
AcDbMlineStyle
  2
STANDARD
 70
0
  3

 62
256
 51
90.0
 52
90.0
 71
2
 49
0.5
 62
256
  6
BYLAYER
 49
-0.5
 62
256
  6
BYLAYER
  0
DICTIONARY
  5
19
100
AcDbDictionary
280
0
281
1
  0
DICTIONARY
  5
1A
100
AcDbDictionary
281
1
  3
Layout1
350
1E
  3
Layout2
350
26
  3
Model
350
22
  0
LAYOUT
  5
1E
100
AcDbPlotSettings
  1

  2
C:\Program Files\AutoCAD 2002\plotters\DWF ePlot (optimized for plotting).pc3
  4

  6

 40
0.0
 41
0.0
 42
0.0
 43
0.0
 44
0.0
 45
0.0
 46
0.0
 47
0.0
 48
0.0
 49
0.0
140
0.0
141
0.0
142
1.0
143
1.0
 70
688
 72
0
 73
0
 74
5
  7

 75
16
147
1.0
148
0.0
149
0.0
100
AcDbLayout
  1
Layout1
 70
1
 71
1
 10
0.0
 20
0.0
 11
420.0
 21
297.0
 12
0.0
 22
0.0
 32
0.0
 14
100000000000000000000.0
 24
100000000000000000000.0
 34
100000000000000000000.0
 15
-100000000000000000000.0
 25
-100000000000000000000.0
 35
-100000000000000000000.0
146
0.0
 13
0.0
 23
0.0
 33
0.0
 16
1.0
 26
0.0
 36
0.0
 17
0.0
 27
1.0
 37
0.0
 76
0
330
1B
  0
LAYOUT
  5
22
100
AcDbPlotSettings
  1

  2
C:\Program Files\AutoCAD 2002\plotters\DWF ePlot (optimized for plotting).pc3
  4

  6

 40
0.0
 41
0.0
 42
0.0
 43
0.0
 44
0.0
 45
0.0
 46
0.0
 47
0.0
 48
0.0
 49
0.0
140
0.0
141
0.0
142
1.0
143
1.0
 70
1712
 72
0
 73
0
 74
0
  7

 75
0
147
1.0
148
0.0
149
0.0
100
AcDbLayout
  1
Model
 70
1
 71
0
 10
0.0
 20
0.0
 11
12.0
 21
9.0
 12
0.0
 22
0.0
 32
0.0
 14
0.0
 24
0.0
 34
0.0
 15
0.0
 25
0.0
 35
0.0
146
0.0
 13
0.0
 23
0.0
 33
0.0
 16
1.0
 26
0.0
 36
0.0
 17
0.0
 27
1.0
 37
0.0
 76
0
330
1F
  0
LAYOUT
  5
26
100
AcDbPlotSettings
  1

  2
C:\Program Files\AutoCAD 2002\plotters\DWF ePlot (optimized for plotting).pc3
  4

  6

 40
0.0
 41
0.0
 42
0.0
 43
0.0
 44
0.0
 45
0.0
 46
0.0
 47
0.0
 48
0.0
 49
0.0
140
0.0
141
0.0
142
1.0
143
1.0
 70
688
 72
0
 73
0
 74
5
  7

 75
16
147
1.0
148
0.0
149
0.0
100
AcDbLayout
  1
Layout2
 70
1
 71
2
 10
0.0
 20
0.0
 11
12.0
 21
9.0
 12
0.0
 22
0.0
 32
0.0
 14
0.0
 24
0.0
 34
0.0
 15
0.0
 25
0.0
 35
0.0
146
0.0
 13
0.0
 23
0.0
 33
0.0
 16
1.0
 26
0.0
 36
0.0
 17
0.0
 27
1.0
 37
0.0
 76
0
330
23
  0
DICTIONARY
  5
49
100
AcDbDictionary
281
1
  3
DIMASSOC
350
4B
  3
HIDETEXT
350
4A
  0
DICTIONARYVAR
  5
4A
100
DictionaryVariables
280
0
  1
2
  0
DICTIONARYVAR
  5
4B
100
DictionaryVariables
280
0
  1
1
  0
ENDSEC
  0
EOF
