999
dxflib 2.0.4.8
  0
SECTION
  2
HEADER
  9
$ACADVER
  1
AC1015
  9
$HANDSEED
  5
FFFF
  9
$USERR4
 40
0.0
  9
$DIMTAD
 70
0
  9
$VISRETAIN
 70
1
  9
$TILEMODE
 70
1
  9
$SHADEDIF
 70
70
  9
$USERR5
 40
0.0
  9
$UCSYDIR
 10
0.0
 20
1.0
 30
0.0
  9
$ATTREQ
 70
1
  9
$CHAMFERA
 40
0.5
  9
$MENU
  1
.
  9
$CLAYER
  8
0
  9
$UCSXDIR
 10
1.0
 20
0.0
 30
0.0
  9
$CHAMFERB
 40
0.5
  9
$DIMASZ
 40
0.18
  9
$TRACEWID
 40
0.05
  9
$REGENMODE
 70
1
  9
$ORTHOMODE
 70
0
  9
$EXTMIN
 10
-34.651911133039206
 20
-4.92229219874622
 30
0.0
  9
$PUCSYDIR
 10
0.0
 20
1.0
 30
0.0
  9
$ANGBASE
 50
0.0
  9
$USRTIMER
 70
1
  9
$SKETCHINC
 40
0.1
  9
$DIMGAP
 40
0.09
  9
$DIMTFAC
 40
1.0
  9
$DIMSAH
 70
0
  9
$DIMALT
 70
0
  9
$DIMSHO
 70
1
  9
$PUCSXDIR
 10
1.0
 20
0.0
 30
0.0
  9
$SURFTYPE
 70
6
  9
$SPLFRAME
 70
0
  9
$DIMTSZ
 40
0.0
  9
$LIMMIN
 10
0.0
 20
0.0
  9
$SURFTAB1
 70
6
  9
$SPLINESEGS
 70
8
  9
$AUPREC
 70
0
  9
$LUNITS
 70
2
  9
$DWGCODEPAGE
  3
ansi_1252
  9
$UNITMODE
 70
0
  9
$USERI1
 70
0
  9
$SURFTAB2
 70
6
  9
$SKPOLY
 70
0
  9
$ELEVATION
 40
0.0
  9
$DIMCEN
 40
0.09
  9
$DIMRND
 40
0.0
  9
$INSBASE
 10
0.0
 20
0.0
 30
0.0
  9
$USERI2
 70
0
  9
$UCSORG
 10
0.0
 20
0.0
 30
0.0
  9
$PELEVATION
 40
0.0
  9
$DIMEXO
 40
0.0625
  9
$TEXTSIZE
 40
0.2
  9
$DRAGMODE
 70
2
  9
$FILLMODE
 70
1
  9
$EXTMAX
 10
44.045122765265887
 20
15.85101288599955
 30
0.0
  9
$INSUNITS
 70
4
  9
$USERI3
 70
0
  9
$SURFU
 70
6
  9
$ANGDIR
 70
0
  9
$TDUSRTIMER
 40
0.0000000116
  9
$DIMZIN
 70
0
  9
$DIMDLE
 40
0.0
  9
$DIMSCALE
 40
1.0
  9
$WORLDVIEW
 70
1
  9
$USERI4
 70
0
  9
$SURFV
 70
6
  9
$OSMODE
 70
37
  9
$QTEXTMODE
 70
0
  9
$LIMMAX
 10
12.0
 20
9.0
  9
$USERI5
 70
0
  9
$HANDLING
 70
1
  9
$PDMODE
 70
0
  9
$LIMCHECK
 70
0
  9
$THICKNESS
 40
0.0
  9
$DIMSE1
 70
0
  9
$DIMLIM
 70
0
  9
$DIMTXT
 40
0.18
  9
$ATTMODE
 70
1
  9
$PEXTMAX
 10
-100000000000000000000.0
 20
-100000000000000000000.0
 30
-100000000000000000000.0
  9
$PEXTMIN
 10
100000000000000000000.0
 20
100000000000000000000.0
 30
100000000000000000000.0
  9
$PUCSORG
 10
0.0
 20
0.0
 30
0.0
  9
$SPLINETYPE
 70
6
  9
$TDINDWG
 40
0.0000000116
  9
$LUPREC
 70
4
  9
$DIMSOXD
 70
0
  9
$DIMLFAC
 40
1.0
  9
$DIMSE2
 70
0
  9
$DIMTOH
 70
1
  9
$CELTYPE
  6
BYLAYER
  9
$PLIMCHECK
 70
0
  9
$PLINEWID
 40
0.0
  9
$DIMSTYLE
  2
STANDARD
  9
$DIMTVP
 40
0.0
  9
$DIMASO
 70
1
  9
$DIMTM
 40
0.0
  9
$DIMDLI
 40
0.38
  9
$CECOLOR
 62
256
  9
$PLIMMAX
 10
12.0
 20
9.0
  9
$PLIMMIN
 10
0.0
 20
0.0
  9
$MAXACTVP
 70
64
  9
$TDUPDATE
 40
2456277.6947116321
  9
$FILLETRAD
 40
0.5
  9
$DIMCLRT
 70
0
  9
$DIMALTD
 70
2
  9
$DIMTIH
 70
1
  9
$LTSCALE
 40
1.0
  9
$USERR1
 40
0.0
  9
$ATTDIA
 70
0
  9
$PDSIZE
 40
0.0
  9
$DIMCLRD
 70
0
  9
$DIMEXE
 40
0.18
  9
$PSLTSCALE
 70
1
  9
$PLINEGEN
 70
0
  9
$SHADEDGE
 70
3
  9
$USERR2
 40
0.0
  9
$COORDS
 70
1
  9
$TDCREATE
 40
2454910.5
  9
$DIMCLRE
 70
0
  9
$DIMTOFL
 70
0
  9
$DIMALTF
 40
25.399999999999999
  9
$DIMTOL
 70
0
  9
$DIMTP
 40
0.0
  9
$TEXTSTYLE
  7
STANDARD
  9
$USERR3
 40
0.0
  9
$AUNITS
 70
0
  9
$DIMTIX
 70
0
  9
$MIRRTEXT
 70
1
  0
ENDSEC
  0
SECTION
  2
TABLES
  0
TABLE
  2
VPORT
  5
8
100
AcDbSymbolTable
 70
1
  0
VPORT
  5
30
100
AcDbSymbolTableRecord
100
AcDbViewportTableRecord
  2
*Active
 70
0
 10
0.0
 20
0.0
 11
1.0
 21
1.0
 12
286.30555555555549
 22
148.5
 13
0.0
 23
0.0
 14
10.0
 24
10.0
 15
10.0
 25
10.0
 16
0.0
 26
0.0
 36
1.0
 17
0.0
 27
0.0
 37
0.0
 40
297.0
 41
1.92798353909465
 42
50.0
 43
0.0
 44
0.0
 50
0.0
 51
0.0
 71
0
 72
100
 73
1
 74
3
 75
1
 76
1
 77
0
 78
0
281
0
 65
1
110
0.0
120
0.0
130
0.0
111
1.0
121
0.0
131
0.0
112
0.0
122
1.0
132
0.0
 79
0
146
0.0
  0
ENDTAB
  0
TABLE
  2
LTYPE
  5
5
100
AcDbSymbolTable
 70
21
  0
LTYPE
  5
14
100
AcDbSymbolTableRecord
100
AcDbLinetypeTableRecord
  2
ByBlock
 70
0
  3

 72
65
 73
0
 40
0.0
  0
LTYPE
  5
15
100
AcDbSymbolTableRecord
100
AcDbLinetypeTableRecord
  2
ByLayer
 70
0
  3

 72
65
 73
0
 40
0.0
  0
LTYPE
  5
16
100
AcDbSymbolTableRecord
100
AcDbLinetypeTableRecord
  2
CONTINUOUS
 70
0
  3
Solid line
 72
65
 73
0
 40
0.0
  0
LTYPE
  5
31
100
AcDbSymbolTableRecord
100
AcDbLinetypeTableRecord
  2
DOT
 70
0
  3
Dot . . . . . . . . . . . . . . . . . . . . . .
 72
65
 73
2
 40
6.3499999999999996
 49
0.0
 74
0
 49
-6.3499999999999996
 74
0
  0
LTYPE
  5
32
100
AcDbSymbolTableRecord
100
AcDbLinetypeTableRecord
  2
DOT2
 70
0
  3
Dot (.5x) .....................................
 72
65
 73
2
 40
3.1749999999999998
 49
0.0
 74
0
 49
-3.1749999999999998
 74
0
  0
LTYPE
  5
33
100
AcDbSymbolTableRecord
100
AcDbLinetypeTableRecord
  2
DOTX2
 70
0
  3
Dot (2x) .  .  .  .  .  .  .  .  .  .  .  .  .
 72
65
 73
2
 40
12.699999999999999
 49
0.0
 74
0
 49
-12.699999999999999
 74
0
  0
LTYPE
  5
34
100
AcDbSymbolTableRecord
100
AcDbLinetypeTableRecord
  2
DASHED
 70
0
  3
Dashed __ __ __ __ __ __ __ __ __ __ __ __ __ _
 72
65
 73
2
 40
19.050000000000001
 49
12.699999999999999
 74
0
 49
-6.3499999999999996
 74
0
  0
LTYPE
  5
35
100
AcDbSymbolTableRecord
100
AcDbLinetypeTableRecord
  2
DASHED2
 70
0
  3
Dashed (.5x) _ _ _ _ _ _ _ _ _ _ _ _ _ _ _ _ _
 72
65
 73
2
 40
9.5250000000000004
 49
6.3499999999999996
 74
0
 49
-3.1749999999999998
 74
0
  0
LTYPE
  5
36
100
AcDbSymbolTableRecord
100
AcDbLinetypeTableRecord
  2
DASHEDX2
 70
0
  3
Dashed (2x) ____  ____  ____  ____  ____  ___
 72
65
 73
2
 40
38.100000000000001
 49
25.399999999999999
 74
0
 49
-12.699999999999999
 74
0
  0
LTYPE
  5
37
100
AcDbSymbolTableRecord
100
AcDbLinetypeTableRecord
  2
DASHDOT
 70
0
  3
Dash dot __ . __ . __ . __ . __ . __ . __ . __
 72
65
 73
4
 40
25.399999999999999
 49
12.699999999999999
 74
0
 49
-6.3499999999999996
 74
0
 49
0.0
 74
0
 49
-6.3499999999999996
 74
0
  0
LTYPE
  5
38
100
AcDbSymbolTableRecord
100
AcDbLinetypeTableRecord
  2
DASHDOT2
 70
0
  3
Dash dot (.5x) _._._._._._._._._._._._._._._.
 72
65
 73
4
 40
12.699999999999999
 49
6.3499999999999996
 74
0
 49
-3.1749999999999998
 74
0
 49
0.0
 74
0
 49
-3.1749999999999998
 74
0
  0
LTYPE
  5
39
100
AcDbSymbolTableRecord
100
AcDbLinetypeTableRecord
  2
DASHDOTX2
 70
0
  3
Dash dot (2x) ____  .  ____  .  ____  .  ___
 72
65
 73
4
 40
50.799999999999997
 49
25.399999999999999
 74
0
 49
-12.699999999999999
 74
0
 49
0.0
 74
0
 49
-12.699999999999999
 74
0
  0
LTYPE
  5
3A
100
AcDbSymbolTableRecord
100
AcDbLinetypeTableRecord
  2
DIVIDE
 70
0
  3
Divide ____ . . ____ . . ____ . . ____ . . ____
 72
65
 73
6
 40
31.75
 49
12.699999999999999
 74
0
 49
-6.3499999999999996
 74
0
 49
0.0
 74
0
 49
-6.3499999999999996
 74
0
 49
0.0
 74
0
 49
-6.3499999999999996
 74
0
  0
LTYPE
  5
3B
100
AcDbSymbolTableRecord
100
AcDbLinetypeTableRecord
  2
DIVIDE2
 70
0
  3
Divide (.5x) __..__..__..__..__..__..__..__.._
 72
65
 73
6
 40
15.875
 49
6.3499999999999996
 74
0
 49
-3.1749999999999998
 74
0
 49
0.0
 74
0
 49
-3.1749999999999998
 74
0
 49
0.0
 74
0
 49
-3.1749999999999998
 74
0
  0
LTYPE
  5
3C
100
AcDbSymbolTableRecord
100
AcDbLinetypeTableRecord
  2
DIVIDEX2
 70
0
  3
Divide (2x) ________  .  .  ________  .  .  _
 72
65
 73
6
 40
63.5
 49
25.399999999999999
 74
0
 49
-12.699999999999999
 74
0
 49
0.0
 74
0
 49
-12.699999999999999
 74
0
 49
0.0
 74
0
 49
-12.699999999999999
 74
0
  0
LTYPE
  5
3D
100
AcDbSymbolTableRecord
100
AcDbLinetypeTableRecord
  2
CENTER
 70
0
  3
Center ____ _ ____ _ ____ _ ____ _ ____ _ ____
 72
65
 73
4
 40
50.799999999999997
 49
31.75
 74
0
 49
-6.3499999999999996
 74
0
 49
6.3499999999999996
 74
0
 49
-6.3499999999999996
 74
0
  0
LTYPE
  5
3E
100
AcDbSymbolTableRecord
100
AcDbLinetypeTableRecord
  2
CENTER2
 70
0
  3
Center (.5x) ___ _ ___ _ ___ _ ___ _ ___ _ ___
 72
65
 73
4
 40
28.574999999999999
 49
19.050000000000001
 74
0
 49
-3.1749999999999998
 74
0
 49
3.1749999999999998
 74
0
 49
-3.1749999999999998
 74
0
  0
LTYPE
  5
3F
100
AcDbSymbolTableRecord
100
AcDbLinetypeTableRecord
  2
CENTERX2
 70
0
  3
Center (2x) ________  __  ________  __  _____
 72
65
 73
4
 40
101.59999999999999
 49
63.5
 74
0
 49
-12.699999999999999
 74
0
 49
12.699999999999999
 74
0
 49
-12.699999999999999
 74
0
  0
LTYPE
  5
40
100
AcDbSymbolTableRecord
100
AcDbLinetypeTableRecord
  2
BORDER
 70
0
  3
Border __ __ . __ __ . __ __ . __ __ . __ __ .
 72
65
 73
6
 40
44.450000000000003
 49
12.699999999999999
 74
0
 49
-6.3499999999999996
 74
0
 49
12.699999999999999
 74
0
 49
-6.3499999999999996
 74
0
 49
0.0
 74
0
 49
-6.3499999999999996
 74
0
  0
LTYPE
  5
41
100
AcDbSymbolTableRecord
100
AcDbLinetypeTableRecord
  2
BORDER2
 70
0
  3
Border (.5x) __.__.__.__.__.__.__.__.__.__.__.
 72
65
 73
6
 40
22.225000000000001
 49
6.3499999999999996
 74
0
 49
-3.1749999999999998
 74
0
 49
6.3499999999999996
 74
0
 49
-3.1749999999999998
 74
0
 49
0.0
 74
0
 49
-3.1749999999999998
 74
0
  0
LTYPE
  5
42
100
AcDbSymbolTableRecord
100
AcDbLinetypeTableRecord
  2
BORDERX2
 70
0
  3
Border (2x) ____  ____  .  ____  ____  .  ___
 72
65
 73
6
 40
88.900000000000006
 49
25.399999999999999
 74
0
 49
-12.699999999999999
 74
0
 49
25.399999999999999
 74
0
 49
-12.699999999999999
 74
0
 49
0.0
 74
0
 49
-12.699999999999999
 74
0
  0
ENDTAB
  0
TABLE
  2
LAYER
  5
2
100
AcDbSymbolTable
 70
2
  0
LAYER
  5
10
100
AcDbSymbolTableRecord
100
AcDbLayerTableRecord
  2
0
 70
0
 62
7
  6
CONTINUOUS
390
F
  0
LAYER
  5
43
100
AcDbSymbolTableRecord
100
AcDbLayerTableRecord
  2
LAYER_1
 70
0
 62
18
  6
CONTINUOUS
390
F
  0
ENDTAB
  0
TABLE
  2
STYLE
  5
3
100
AcDbSymbolTable
 70
1
  0
STYLE
  5
11
100
AcDbSymbolTableRecord
100
AcDbTextStyleTableRecord
  2
Standard
 70
0
 40
0.0
 41
0.75
 50
0.0
 71
0
 42
2.5
  3
txt
  4

  0
ENDTAB
  0
TABLE
  2
VIEW
  5
6
100
AcDbSymbolTable
 70
0
  0
ENDTAB
  0
TABLE
  2
UCS
  5
7
100
AcDbSymbolTable
 70
0
  0
ENDTAB
  0
TABLE
  2
APPID
  5
9
100
AcDbSymbolTable
 70
1
  0
APPID
  5
12
100
AcDbSymbolTableRecord
100
AcDbRegAppTableRecord
  2
ACAD
 70
0
  0
ENDTAB
  0
TABLE
  2
DIMSTYLE
  5
A
100
AcDbSymbolTable
 70
1
100
AcDbDimStyleTable
 71
0
  0
DIMSTYLE
105
27
100
AcDbSymbolTableRecord
100
AcDbDimStyleTableRecord
  2
Standard
 41
0.18
 42
0.0625
 43
3.75
 44
0.18
 70
0
 73
0
 74
0
 77
1
 78
8
140
0.18
141
2.5
143
0.03937007874016
147
0.09
171
3
172
1
271
2
272
2
274
3
278
44
283
0
284
8
340
11
  0
ENDTAB
  0
TABLE
  2
BLOCK_RECORD
  5
1
100
AcDbSymbolTable
 70
1
  0
BLOCK_RECORD
  5
1F
100
AcDbSymbolTableRecord
100
AcDbBlockTableRecord
  2
*Model_Space
340
22
  0
BLOCK_RECORD
  5
1B
100
AcDbSymbolTableRecord
100
AcDbBlockTableRecord
  2
*Paper_Space
340
1E
  0
BLOCK_RECORD
  5
23
100
AcDbSymbolTableRecord
100
AcDbBlockTableRecord
  2
*Paper_Space0
340
26
  0
ENDTAB
  0
ENDSEC
  0
SECTION
  2
BLOCKS
  0
BLOCK
  5
20
100
AcDbEntity
  8
0
100
AcDbBlockBegin
  2
*Model_Space
 70
0
 10
0.0
 20
0.0
 30
0.0
  3
*Model_Space
  1

  0
ENDBLK
  5
21
100
AcDbEntity
  8
0
100
AcDbBlockEnd
  0
BLOCK
  5
1C
100
AcDbEntity
 67
1
  8
0
100
AcDbBlockBegin
  2
*Paper_Space
 70
0
 10
0.0
 20
0.0
 30
0.0
  3
*Paper_Space
  1

  0
ENDBLK
  5
1D
100
AcDbEntity
 67
1
  8
0
100
AcDbBlockEnd
  0
BLOCK
  5
24
100
AcDbEntity
  8
0
100
AcDbBlockBegin
  2
*Paper_Space0
 70
0
 10
0.0
 20
0.0
 30
0.0
  3
*Paper_Space0
  1

  0
ENDBLK
  5
25
100
AcDbEntity
  8
0
100
AcDbBlockEnd
  0
ENDSEC
  0
SECTION
  2
ENTITIES
  0
LWPOLYLINE
  5
44
  8
LAYER_1
 62
256
370
-1
  6
ByLayer
100
AcDbEntity
100
AcDbPolyline
 90
37
 70
1
 10
34.871393951706551
 20
-1.7761057580682691
 10
34.93660846441842
 20
-1.786036902136066
 10
35.005133358486219
 20
-1.815830334339456
 10
35.076968633909956
 20
-1.8654860546784351
 10
35.15211429068961
 20
-1.9350040631530021
 10
35.506987172045541
 20
-2.284580334339438
 10
35.611595222892987
 20
-2.377933088576738
 10
35.72414818899469
 20
-2.467313385186912
 10
35.844646070350628
 20
-2.5527212241699648
 10
35.973088866960808
 20
-2.6341566055259018
 10
36.110138655096399
 20
-2.703674614000469
 10
36.2564575110286
 20
-2.7533303343394491
 10
36.41204543475741
 20
-2.7831237665428379
 10
36.576902426282828
 20
-2.793054910610635
 10
36.774532193231977
 20
-2.7844479190852098
 10
36.954285900859112
 20
-2.758626944508936
 10
37.116163549164192
 20
-2.715591986881817
 10
37.260165138147237
 20
-2.655343046203853
 10
37.388276896621818
 20
-2.5808594656953838
 10
37.502485053401472
 20
-2.4951205885767429
 10
37.602789608486219
 20
-2.3981264148479271
 10
37.689190561876053
 20
-2.2898769445089329
 10
37.762681027977742
 20
-2.1713652919665658
 10
37.824254121198081
 20
-2.0435845716275871
 10
37.873909841537063
 20
-1.9065347834919939
 10
37.91164818899469
 20
-1.760215927559784
 10
37.939455392384517
 20
-1.607607347051317
 10
37.959317680520122
 20
-1.451688385186912
 10
37.971235053401479
 20
-1.29245904196657
 10
37.9752075110286
 20
-1.1299193173902891
 10
37.965938443231991
 20
-0.8412540631530092
 10
37.938131239842157
 20
-0.54729219874622
 10
37.895758358486219
 20
-0.2573027919665627
 10
37.842792256791313
 20
0.0194450893893645
 10
37.78188123984215
 20
0.2816272927791914
 10
37.715673612723521
 20
0.5279196656605336
 10
37.593851578825188
 20
0.9357586487113849
  0
LWPOLYLINE
  5
45
  8
LAYER_1
 62
256
370
-1
  6
ByLayer
100
AcDbEntity
100
AcDbPolyline
 90
58
 70
1
 10
26.057834629672669
 20
-1.055766775017418
 10
26.067103697469278
 20
-1.3166248258648741
 10
26.094910900859109
 20
-1.56953796145811
 10
26.117090455943849
 20
-1.69069791908522
 10
26.146552850011648
 20
-1.805237114000473
 10
26.1832980830625
 20
-1.9131555462038661
 10
26.227326155096389
 20
-2.0144532156953971
 10
26.278968104248939
 20
-2.107805969932675
 10
26.338554968655721
 20
-2.1918896563733479
 10
26.406086748316731
 20
-2.2667042750174131
 10
26.48156344323198
 20
-2.3322498258648641
 10
26.566309205943849
 20
-2.3855469656953812
 10
26.66164818899469
 20
-2.423616351288608
 10
26.76758039238452
 20
-2.4464579826445441
 10
26.88410581611333
 20
-2.454071859763189
 10
26.980934470774351
 20
-2.4487752495936981
 10
27.075445858486219
 20
-2.4328854190852218
 10
27.167639979248928
 20
-2.4064023682377629
 10
27.257516833062489
 20
-2.3693260970513208
 10
27.345076419926901
 20
-2.3216566055258951
 10
27.43031873984215
 20
-2.263393893661485
 10
27.51324379280825
 20
-2.1945379614580922
 10
27.593851578825191
 20
-2.1150888089157149
 10
27.747453273740462
 20
-1.9369902919665689
 10
27.890461748316731
 20
-1.74167779196657
 10
28.022877002554019
 20
-1.529151308915724
 10
28.14469903645232
 20
-1.299410842814041
 10
28.25559681187606
 20
-1.059077156373359
 10
28.355239290689621
 20
-0.8147710123055596
 10
28.443626472893008
 20
-0.5664924106106439
 10
28.52075835848623
 20
-0.3142413512886151
 10
28.63860793475742
 20
0.1518603436266517
 10
28.678663549164192
 20
0.3531315300673263
 10
28.706139714418409
 20
0.5332162758300285
 10
29.352326155096389
 20
3.6476230554910671
 10
29.13648929068961
 20
3.6340504919317449
 10
28.923300731367579
 20
3.59333280125378
 10
28.712760477130288
 20
3.525469983457171
 10
28.504868527977749
 20
3.430462038541918
 10
28.301280074587918
 20
3.312281424135139
 10
28.103650307638759
 20
3.17490059786395
 10
27.911979227130281
 20
3.0183195597283539
 10
27.726266833062478
 20
2.8425383097283539
 10
27.547175201706558
 20
2.6505361910842771
 10
27.37536640933369
 20
2.4452925470164821
 10
27.21084045594386
 20
2.2268073775249628
 10
27.053597341537081
 20
1.9950806826097109
 10
26.90529225679132
 20
1.7537538817622489
 10
26.767580392384531
 20
1.506468394474108
 10
26.640461748316731
 20
1.2532242207452911
 10
26.523936324587911
 20
0.9940213605758004
 10
26.41899723560487
 20
0.7315081190503774
 10
26.326637595774361
 20
0.4683328012537658
 10
26.246857405096399
 20
0.2044954071859708
 10
26.17965666357097
 20
-0.0600040631530021
 10
26.126359523740469
 20
-0.3208621140004628
 10
26.088290138147251
 20
-0.5737752495936839
 10
26.06544850679132
 20
-0.8187434699326679
  0
LWPOLYLINE
  5
46
  8
LAYER_1
 62
256
370
-1
  6
ByLayer
100
AcDbEntity
100
AcDbPolyline
 90
48
 70
1
 10
20.305715985604881
 20
3.9866061063385132
 10
20.796976578825209
 20
4.8870298351520773
 10
21.317368527977749
 20
5.8933857673554826
 10
21.581205922045541
 20
6.4270192419317453
 10
21.837760477130281
 20
6.9685976317622504
 10
22.08703219323197
 20
7.5181209368469979
 10
22.32902107035062
 20
8.0755891571859877
 10
22.559423612723499
 20
8.6366987970164892
 10
22.773936324587911
 20
9.1971463605758146
 10
22.972559205943849
 20
9.7569318478639566
 10
23.155292256791309
 20
10.31605525888091
 10
23.31419056187606
 20
10.86524752583005
 10
23.441309205943849
 20
11.39523958091479
 10
23.5366481889947
 20
11.906031424135129
 10
23.6002075110286
 20
12.397623055491071
 10
23.596235053401479
 20
12.68231585210123
 10
23.584317680520119
 20
12.921987462270719
 10
23.572069269503181
 20
13.01699540718597
 10
23.551213866960811
 20
13.084858224982581
 10
23.521751472893008
 20
13.12557591566055
 10
23.483682087299801
 20
13.13914847921987
 10
23.406136404037081
 20
13.132941514177499
 10
23.327101049164199
 20
13.11432061905038
 10
23.24657602268115
 20
13.08328579383851
 10
23.164561324587929
 20
13.039837038541901
 10
23.081056954884531
 20
12.98397435316055
 10
22.99606291357097
 20
12.915697737694449
 10
22.90957920064724
 20
12.8350071921436
 10
22.82160581611333
 20
12.74190271650801
 10
22.644169375435371
 20
12.52573481396564
 10
22.466732934757399
 20
12.274476869050391
 10
22.28929649407943
 20
11.98812888176225
 10
22.111860053401472
 20
11.66669085210123
 10
21.936409841537071
 20
11.313804199558859
 10
21.76493208729978
 20
10.933110343626661
 10
21.59742679068961
 20
10.524609284304629
 10
21.433893951706551
 20
10.08830102159277
 10
21.276650837299769
 20
9.6308063182029358
 10
21.128014714418409
 20
9.1587459368469979
 10
20.987985583062478
 20
8.6721198775249633
 10
20.85656344323198
 20
8.170928140236839
 10
20.73606556187605
 20
7.6588121444741244
 10
20.628809205943849
 20
7.1394133097283579
 10
20.534794375435371
 20
6.6127316359995376
 10
20.45402107035062
 20
6.0787671232876619
 10
20.389137595774361
 20
5.5448026105758021
 10
20.342792256791309
 20
5.0181209368469908
 10
20.31498505340149
 20
4.4987221021012278
  0
LWPOLYLINE
  5
47
  8
LAYER_1
 62
256
370
-1
  6
ByLayer
100
AcDbEntity
100
AcDbPolyline
 90
72
 70
1
 10
11.915885477130271
 20
-2.454071859763189
 10
12.005596811876041
 20
-2.4483614519242058
 10
12.09464607035061
 20
-2.4312302284072538
 10
12.183033252554001
 20
-2.4026781892123359
 10
12.27075835848621
 20
-2.3627053343394522
 10
12.357821388147229
 20
-2.3113116637886031
 10
12.444222341537049
 20
-2.2484971775597891
 10
12.529961218655689
 20
-2.1742618756530101
 10
12.61503801950315
 20
-2.0886057580682689
 10
12.77923293475739
 20
-1.8939553343394491
 10
12.93283462967265
 20
-1.6754701648479231
 10
13.07584310424892
 20
-1.433150249593691
 10
13.2082583584862
 20
-1.166995588576754
 10
13.329087277977729
 20
-0.8816407156953932
 10
13.43733674831671
 20
-0.5817201648479333
 10
13.53300676950316
 20
-0.2672339360343714
 10
13.61609734153706
 20
0.0618179707452953
 10
13.68329808306248
 20
0.3945112970164861
 10
13.731298612723499
 20
0.7199217843046206
 10
13.760098930520121
 20
1.038049432609701
 10
13.76969903645232
 20
1.3488942419317309
 10
13.76506450255402
 20
1.5882348139656279
 10
13.751160900859089
 20
1.8189683944741011
 10
13.72798823136756
 20
2.041094983457155
 10
13.695546494079419
 20
2.2546145809147902
 10
13.653835688994681
 20
2.4568788817622398
 10
13.60285581611333
 20
2.64523958091478
 10
13.542606875435361
 20
2.8196966783724111
 10
13.473088866960779
 20
2.9802501741351359
 10
13.393639714418409
 20
3.1259069537961519
 10
13.30359734153706
 20
3.255673902948693
 10
13.20296174831673
 20
3.3695510215927609
 10
13.091732934757401
 20
3.4675383097283539
 10
12.969248824587909
 20
3.5463253859995412
 10
12.83484734153706
 20
3.6026018690503889
 10
12.68852848560485
 20
3.636367758880898
 10
12.530292256791279
 20
3.6476230554910671
 10
12.422373824587901
 20
3.6418298881181852
 10
12.31577954492688
 20
3.6244503859995398
 10
12.21050941780824
 20
3.595484549135131
 10
12.10656344323197
 20
3.5549323775249602
 10
12.00394162119807
 20
3.5027938711690259
 10
11.902643951706541
 20
3.439069030067329
 10
11.802670434757401
 20
3.3637578542198709
 10
11.70402107035062
 20
3.2768603436266521
 10
11.514005180520099
 20
3.078568500406313
 10
11.335906663570951
 20
2.8544556826097001
 10
11.16972551950315
 20
2.604521890236815
 10
11.01546174831671
 20
2.3287671232876619
 10
10.875101578825189
 20
2.0324879919317298
 10
10.750631239842139
 20
1.7209811063385101
 10
10.64205073136757
 20
1.3942464665080041
 10
10.54936005340147
 20
1.052284072440216
 10
10.475207511028589
 20
0.7060181826097027
 10
10.422241409333679
 20
0.36637305549106
 10
10.39046174831673
 20
0.0333486910842824
 10
10.379868527977751
 20
-0.2930549106106355
 10
10.38516513814724
 20
-0.5122021563733439
 10
10.401054968655711
 20
-0.7247286394241925
 10
10.42753801950316
 20
-0.9306343597631761
 10
10.46461429068961
 20
-1.1299193173902891
 10
10.512945858486219
 20
-1.3196041690852129
 10
10.573194799164179
 20
-1.4967095716275911
 10
10.64536111272351
 20
-1.6612355250174211
 10
10.729444799164179
 20
-1.813182029254705
 10
10.826770011028589
 20
-1.951555969932667
 10
10.938660900859089
 20
-2.0753642326445321
 10
11.0651174686557
 20
-2.1846068173902999
 10
11.206139714418409
 20
-2.279283724169971
 10
11.361727638147229
 20
-2.3557535334919999
 10
11.531881239842139
 20
-2.4103748258648809
 10
11.71660051950315
 20
-2.443147601288612
  0
LWPOLYLINE
  5
48
  8
LAYER_1
 62
256
370
-1
  6
ByLayer
100
AcDbEntity
100
AcDbPolyline
 90
45
 70
1
 10
2.4243600534014429
 20
8.6476230554910671
 10
2.7153425745878939
 20
9.4262247504063232
 10
2.9632901381472192
 20
10.14126712328768
 10
3.1682027440794212
 20
10.792750174135129
 10
3.3300803923845019
 20
11.380673902948701
 10
3.4528955406895872
 20
11.90040377583005
 10
3.5406206466217931
 20
12.34730525888089
 10
3.5932557101811189
 20
12.72137835210123
 10
3.6064144760709511
 20
12.88110425252496
 10
3.610800731367561
 20
13.022623055491071
 10
3.6074903500116289
 20
13.2113147927792
 10
3.5975592059438322
 20
13.37484763176225
 10
3.5810072991641699
 20
13.513221572440219
 10
3.557834629672644
 20
13.6264366148131
 10
3.5280411974692552
 20
13.714492758880899
 10
3.4916270025540022
 20
13.77739000464361
 10
3.4485920449268859
 20
13.81512835210124
 10
3.3989363245879081
 20
13.82770780125378
 10
3.3259424156895991
 20
13.813638680491071
 10
3.2446725534014611
 20
13.77143131820293
 10
3.1551267377234939
 20
13.70108571438937
 10
3.0573049686556959
 20
13.602601869050391
 10
2.9512072461980701
 20
13.475979782185981
 10
2.836833570350612
 20
13.32121945379615
 10
2.714183941113324
 20
13.138320883880899
 10
2.583258358486205
 20
12.927284072440219
 10
2.301213866960778
 20
12.426092335152079
 10
1.9953346296726371
 20
11.82294085210123
 10
1.665620646621786
 20
11.11782962328768
 10
1.312071917808225
 20
10.31075864871141
 10
1.138607934757385
 20
9.7175383097283543
 10
0.9783854771302742
 20
9.1031315300673441
 10
0.8327286974692605
 20
8.4794556826097036
 10
0.7029617483167101
 20
7.858428140236839
 10
0.5864363245879005
 20
7.244021360575811
 10
0.4805041211980665
 20
6.64020780125378
 10
0.3864892906895925
 20
6.056256530067337
 10
0.3057159856048486
 20
5.5014366148130884
 10
0.2209702228929848
 20
4.8744503859995412
 10
0.1468176805201047
 20
4.2540849198978528
 10
0.0832583584862054
 20
3.6403402165080241
 10
0.0302922567912844
 20
3.0332162758300569
 10
0.6552922567912844
 20
4.4844874622707209
 10
1.322665138147215
 20
6.0363942419317311
 10
1.9423685279777201
 20
7.4876654283724244
  0
LWPOLYLINE
  5
49
  8
LAYER_1
 62
256
370
-1
  6
ByLayer
100
AcDbEntity
100
AcDbPolyline
 90
1384
 70
1
 10
24.278173612723521
 20
15.85101288599955
 10
24.495996705943849
 20
15.83810239871141
 10
24.6939575110286
 20
15.799370936847
 10
24.785489555520119
 20
15.77032234044869
 10
24.872056027977749
 20
15.73481850040632
 10
24.953656928401479
 20
15.69285941671987
 10
25.030292256791309
 20
15.644445089389359
 10
25.170652426282839
 20
15.532885237694449
 10
25.295122765265891
 20
15.40477347921988
 10
25.403703273740469
 20
15.26010981396565
 10
25.49639395170658
 20
15.09889424193176
 10
25.574849989842161
 20
14.923775068202939
 10
25.640726578825209
 20
14.73740059786395
 10
25.694023718655721
 20
14.539770830914801
 10
25.734741409333679
 20
14.330885767355481
 10
25.764865879672669
 20
14.11537994108429
 10
25.78638335848623
 20
13.897887885999539
 10
25.799293845774368
 20
13.67840960210124
 10
25.803597341537081
 20
13.456945089389359
 10
25.78936270170658
 20
12.956746466508021
 10
25.74665878221505
 20
12.451913309728351
 10
25.6754855830625
 20
11.942445619050391
 10
25.57584310424895
 20
11.42834339447413
 10
25.452034841537081
 20
10.91126182667751
 10
25.308364290689621
 20
10.39285610633852
 10
25.144831451706569
 20
9.8731262334571674
 10
24.96143632458794
 20
9.3520722080334338
 10
24.760496176282849
 20
8.8300250682029215
 10
24.544328273740469
 20
8.307315852101226
 10
24.312932616960811
 20
7.7839445597283472
 10
24.06630920594387
 20
7.2599111910842851
 10
23.547241409333679
 20
6.2151548351520836
 10
23.006987172045541
 20
5.1783433944741262
 10
22.45481556187606
 20
4.153449326677503
 10
21.899995646621822
 20
3.144445089389365
 10
21.36106556187605
 20
2.1553031402368181
 10
20.85656344323198
 20
1.1899959368469979
 10
20.80227318899469
 20
1.0681739029486901
 10
20.745334629672669
 20
0.9145722080334338
 10
20.63410581611333
 20
0.5491061063385132
 10
20.528173612723521
 20
0.1306739029486721
 10
20.480504121198091
 20
-0.0891354190852098
 10
20.443427850011631
 20
-0.3036481309496253
 10
20.443427850011631
 20
-0.4519532156953971
 10
20.457993527977742
 20
-0.7234044868818295
 10
20.476200625435379
 20
-0.8561507792547141
 10
20.50169056187605
 20
-0.9869108428140407
 10
20.56657403645233
 20
-1.2332032156953789
 10
20.64469903645232
 20
-1.4530125377292791
 10
20.732093104248921
 20
-1.638393893661483
 10
20.824783782215039
 20
-1.781402368237764
 10
20.87179119746926
 20
-1.8346995080682651
 10
20.917474460181129
 20
-1.872768893661483
 10
20.96183357035062
 20
-1.895610525017416
 10
21.004868527977749
 20
-1.9032244021360609
 10
21.10914554068961
 20
-1.897927791966568
 10
21.220705392384531
 20
-1.882037961458092
 10
21.3395480830625
 20
-1.855554910610635
 10
21.465673612723521
 20
-1.8184786394242001
 10
21.733152426282832
 20
-1.719167198746238
 10
22.01652107035062
 20
-1.5907244021360609
 10
22.31180708729979
 20
-1.437122707220805
 10
22.615038019503171
 20
-1.262334571627576
 10
22.916944799164192
 20
-1.075629063153013
 10
23.20825835848623
 20
-0.8862752495936945
 10
23.3966519845136
 20
-0.7541076282334132
 10
23.42745445251013
 20
-0.5377275662386944
 10
23.466438208135209
 20
-0.3199140071504303
 10
23.568427850011659
 20
0.1200806826097107
 10
23.690249883909949
 20
0.5361956190503761
 10
23.833258358486219
 20
0.9476760215927449
 10
23.997453273740462
 20
1.354521890236815
 10
24.182834629672669
 20
1.756733224982582
 10
24.38774723560487
 20
2.1509996444741089
 10
24.610535900859109
 20
2.5340107673554608
 10
24.851200625435379
 20
2.9057665936266441
 10
25.109741409333679
 20
3.2662671232876619
 10
25.383509947469271
 20
3.6098847080334302
 10
25.669857934757399
 20
3.930991699558859
 10
25.968785371198081
 20
4.2295880978639504
 10
26.280292256791309
 20
4.5056739029487014
 10
26.60239236272351
 20
4.7569318478639442
 10
26.93309946018114
 20
4.9810446656605514
 10
27.272413549164199
 20
5.1780123563385203
 10
27.620334629672669
 20
5.3478349198978492
 10
27.796860715477759
 20
5.4210771073978519
 10
27.974214396621822
 20
5.4845536698978528
 10
28.152395673104881
 20
5.5382646073978536
 10
28.331404544926912
 20
5.5822099198978528
 10
28.511241012087929
 20
5.6163896073978528
 10
28.691905074587929
 20
5.640803669897851
 10
28.873396732426912
 20
5.6554521073978501
 10
29.055715985604881
 20
5.6603349198978492
 10
29.17091725679132
 20
5.6543762334571728
 10
29.272877002554029
 20
5.6365001741351399
 10
29.361595222893001
 20
5.6067067419317489
 10
29.43707191780825
 20
5.5649959368469979
 10
29.562866409333679
 20
5.463036191084278
 10
29.664826155096389
 20
5.3478349198978492
 10
29.83961429068961
 20
5.1094874622707209
 10
29.884635477130299
 20
5.0551972080334338
 10
29.934953273740462
 20
5.0088518690503854
 10
29.990567680520119
 20
4.970451445321574
 10
30.05147869746926
 20
4.9399959368469979
 10
30.179921494079441
 20
4.8962989029486899
 10
30.311012595774368
 20
4.8711400046436211
 10
30.444752002554019
 20
4.8592226317622584
 10
30.581139714418409
 20
4.8552501741351364
 10
30.819487172045541
 20
4.8605467843046313
 10
31.057834629672669
 20
4.8658433944741262
 10
31.211436324587911
 20
4.8578984792198838
 10
31.354444799164181
 20
4.8340637334571568
 10
31.421314502554019
 20
4.8135393690503836
 10
31.484211748316731
 20
4.7837459368469943
 10
31.54313653645233
 20
4.7446834368469908
 10
31.598088866960811
 20
4.6963518690503747
 10
31.648075625435379
 20
4.6380891571859779
 10
31.692103697469271
 20
4.5692332249825904
 10
31.7301730830625
 20
4.4897840724402149
 10
31.762283782215039
 20
4.3997416995588594
 10
31.787773718655711
 20
4.2957957249825904
 10
31.80598081611334
 20
4.1746357673554719
 10
31.816905074587918
 20
4.0362618266775083
 10
31.820546494079451
 20
3.880673902948701
 10
31.81392573136759
 20
3.6194848139656419
 10
31.794063443231991
 20
3.3443921232876761
 10
31.760959629672669
 20
3.0553958309147959
 10
31.71461429068961
 20
2.7524959368469979
 10
31.603385477130281
 20
2.1248476317622398
 10
31.48156344323198
 20
1.4813094961690181
 10
31.359741409333679
 20
0.8298264453215687
 10
31.248512595774368
 20
0.1783433944740977
 10
31.20216725679132
 20
-0.1430946351869129
 10
31.169063443231991
 20
-0.4559256733225006
 10
31.149201155096399
 20
-0.7601497199326679
 10
31.142580392384531
 20
-1.055766775017418
 10
31.14820804068961
 20
-1.291134889424193
 10
31.16509098560487
 20
-1.499357876712327
 10
31.193229227130288
 20
-1.6804357368818239
 10
31.232622765265891
 20
-1.8343684699326841
 10
31.258360980308261
 20
-1.900162299381835
 10
31.2905544389947
 20
-1.957183618237764
 10
31.329203141325209
 20
-2.005432426500473
 10
31.37430708729978
 20
-2.0449087241699608
 10
31.42586627691842
 20
-2.075612511246228
 10
31.483880710181129
 20
-2.0975437877292769
 10
31.548350387087911
 20
-2.110702553619106
 10
31.619275307638759
 20
-2.1150888089157149
 10
31.731828273740462
 20
-2.1081370080682582
 10
31.847029544926901
 20
-2.087281605525888
 10
31.964879121198091
 20
-2.052522601288604
 10
32.085377002554033
 20
-2.0038599953564069
 10
32.291992495610238
 20
-1.897280768753429
 10
32.499263485362093
 20
-1.764310534127532
 10
32.507892385271717
 20
-1.6427748845537831
 10
32.531872612663342
 20
-1.5256629852075141
 10
32.57114021502435
 20
-1.4129740900352481
 10
32.625631239842157
 20
-1.304707452983507
 10
32.691838866960801
 20
-1.1991062877292731
 10
32.763343104248932
 20
-1.099463808915718
 10
32.840143951706551
 20
-1.0057800165428401
 10
32.922241409333679
 20
-0.9180549106106355
 10
33.091732934757417
 20
-0.7591566055258916
 10
33.261224460181133
 20
-0.6214447411191202
 10
33.515461748316739
 20
-0.4201735546784278
 10
34.05306768052013
 20
0.0459281402368177
 10
34.479444799164177
 20
0.4272840724402158
 10
34.82372446018114
 20
0.7517014453215651
 10
35.115038019503167
 20
1.0469874622707209
 10
35.367951155096392
 20
1.3290319537961359
 10
35.597029544926897
 20
1.613724750406305
 10
36.11080073136759
 20
2.291690852101226
 10
36.831139714418413
 20
3.2503772927792061
 10
37.318427850011631
 20
3.887294665660558
 10
37.932834629672669
 20
4.6645722080334338
 10
38.078491409333679
 20
4.8526018690503854
 10
38.240038019503167
 20
5.0353349198978492
 10
38.418798612723513
 20
5.2061505978639531
 10
38.616097341537063
 20
5.358428140236839
 10
38.722029544926883
 20
5.426621996169029
 10
38.833258358486219
 20
5.488195089389361
 10
38.949783782215043
 20
5.5431474198978332
 10
39.071605816113333
 20
5.591478987694444
 10
39.199717574587922
 20
5.6308725258300374
 10
39.335112172045548
 20
5.6590107673554613
 10
39.477789608486233
 20
5.6758937122707156
 10
39.627749883909956
 20
5.6815213605758004
 10
39.867421494079437
 20
5.6745695597283436
 10
40.077961748316731
 20
5.6537141571859726
 10
40.259370646621811
 20
5.6189551529486899
 10
40.41164818899469
 20
5.5702925470164928
 10
40.540090985604863
 20
5.5116987970164981
 10
40.649995646621818
 20
5.4471463605758217
 10
40.741362172045541
 20
5.3766352376944626
 10
40.814190561876053
 20
5.3001654283724244
 10
40.871129121198067
 20
5.2197231614232669
 10
40.914826155096378
 20
5.1372946656605549
 10
40.945281663570952
 20
5.0528799410842824
 10
40.962495646621818
 20
4.966478987694444
 10
40.978385477130281
 20
4.803608224982586
 10
40.983682087299769
 20
4.6645722080334338
 10
40.971102638147229
 20
4.5341431826097089
 10
40.933364290689603
 20
4.3970933944741191
 10
40.870467044926897
 20
4.2534228436266641
 10
40.782410900859112
 20
4.1031315300673441
 10
40.570546494079451
 20
3.8012247504063268
 10
40.337495646621818
 20
3.5099111910842851
 10
39.876690561876053
 20
2.9855467843046308
 10
39.779696388147237
 20
2.8739869326097049
 10
39.705874883909942
 20
2.7776548351520698
 10
39.655226049164177
 20
2.6965504919317258
 10
39.627749883909956
 20
2.6306739029486721
 10
39.639667256791313
 20
2.316849750406313
 10
39.675419375435382
 20
2.032156953796147
 10
39.731033782215043
 20
1.7646781402368179
 10
39.802538019503167
 20
1.5024959368469979
 10
39.966732934757403
 20
0.9516484792198696
 10
40.050154544926897
 20
0.6378243266774959
 10
40.130927850011631
 20
0.278978987694444
 10
40.202432087299769
 20
-0.1315083004411441
 10
40.258046494079451
 20
-0.6002583004411406
 10
40.293798612723521
 20
-1.143160842814027
 10
40.305715985604877
 20
-1.7761057580682691
 10
40.500035371198088
 20
-1.651966457220813
 10
40.701637595774358
 20
-1.5337858428140301
 10
40.910522659333672
 20
-1.421563914847924
 10
41.126690561876053
 20
-1.315300673322497
 10
42.043004121198088
 20
-0.8862752495936945
 10
42.526319799164199
 20
-0.651900249593691
 10
43.022877002554033
 20
-0.3936905038309817
 10
43.274797023740469
 20
-0.2516751436614899
 10
43.527379121198088
 20
-0.095756181797082
 10
43.780623294926897
 20
0.0740663817622447
 10
44.034529544926897
 20
0.2577925470164928
 10
44.045122765265887
 20
-2.1150888089157149
 10
43.703822447469278
 20
-2.3653536394242001
 10
43.336701155096392
 20
-2.607673554678442
 10
42.943758888147237
 20
-2.842048554678442
 10
42.524995646621818
 20
-3.0684786394242001
 10
42.088025307638773
 20
-3.284315503830975
 10
41.640461748316731
 20
-3.486910842814027
 10
41.182304968655707
 20
-3.676264656373347
 10
40.7135549686557
 20
-3.8523769445089329
 10
40.238184205943838
 20
-4.0129304402716528
 10
39.760165138147229
 20
-4.1556078767123346
 10
39.27949776526588
 20
-4.2804092538309764
 10
38.796182087299769
 20
-4.3873345716275756
 10
38.317831981367583
 20
-4.4730734487462254
 10
37.852061324587922
 20
-4.5343155038309746
 10
37.398870116960801
 20
-4.5710607368818241
 10
36.958258358486233
 20
-4.583309147898774
 10
36.651054968655721
 20
-4.5760263089157256
 10
36.354444799164192
 20
-4.5541777919665769
 10
36.068427850011652
 20
-4.5177635970513261
 10
35.793004121198088
 20
-4.4667837241699706
 10
35.531152955943853
 20
-4.40024505891573
 10
35.285853697469278
 20
-4.3171544868818259
 10
35.057106345774358
 20
-4.2175120080682644
 10
34.844910900859112
 20
-4.1013176224750509
 10
34.650591515265887
 20
-3.9672471775597908
 10
34.475472341537071
 20
-3.8139765207801268
 10
34.319553379672669
 20
-3.6415056521360558
 10
34.182834629672669
 20
-3.449834571627576
 10
34.095876333517381
 20
-3.2944552038287469
 10
34.025490213437372
 20
-3.126359513702369
 10
33.78759909527146
 20
-3.3438639819922109
 10
33.536648188994718
 20
-3.555766775017418
 10
33.277776366960808
 20
-3.7543896563733532
 10
33.009635477130303
 20
-3.9371227072208121
 10
32.732225519503181
 20
-4.1039659275597913
 10
32.445546494079451
 20
-4.2549193173902893
 10
32.299889714418427
 20
-4.3219545398479191
 10
32.15423293475741
 20
-4.3800517326445316
 10
32.008576155096392
 20
-4.4292108957801268
 10
31.862919375435371
 20
-4.4694320292547047
 10
31.717262595774351
 20
-4.5007151330682653
 10
31.57160581611334
 20
-4.5230602072208086
 10
31.42594903645232
 20
-4.5364672517123346
 10
31.280292256791309
 20
-4.5409362665428432
 10
31.109145540689621
 20
-4.5339017061614877
 10
30.94528166357097
 20
-4.5127980250174193
 10
30.788700625435379
 20
-4.4776252231106399
 10
30.639402426282839
 20
-4.4283833004411477
 10
30.497387066113351
 20
-4.3650722570089444
 10
30.362654544926901
 20
-4.2876920928140283
 10
30.235204862723521
 20
-4.1962428078564011
 10
30.115038019503171
 20
-4.0907244021360611
 10
30.000498824587918
 20
-3.971798951924197
 10
29.88993208729978
 20
-3.840128533491995
 10
29.78333780763877
 20
-3.695713146839454
 10
29.68071598560487
 20
-3.5385527919665729
 10
29.582066621198091
 20
-3.3686474688733532
 10
29.48738971441843
 20
-3.1859971775597922
 10
29.396685265265891
 20
-2.9906019180258898
 10
29.309953273740462
 20
-2.7824616902716461
 10
29.17555179068961
 20
-2.9314288512885991
 10
29.026584629672669
 20
-3.0817201648479262
 10
28.86305179068961
 20
-3.2333356309496262
 10
28.684953273740462
 20
-3.386275249593695
 10
28.495268422045552
 20
-3.536235525017422
 10
28.296976578825209
 20
-3.6789129614580989
 10
28.090077744079441
 20
-3.814307558915722
 10
27.87457191780825
 20
-3.9424193173902888
 10
27.652445328825198
 20
-4.0612620080682644
 10
27.425684205943849
 20
-4.1688494021360647
 10
27.194288549164199
 20
-4.265181499593691
 10
26.95825835848623
 20
-4.3502583004411406
 10
26.719910900859109
 20
-4.4197763089157238
 10
26.481563443231991
 20
-4.4694320292547118
 10
26.24321598560487
 20
-4.4992254614581046
 10
26.004868527977749
 20
-4.5091566055259023
 10
25.75228643052013
 20
-4.4962461182377638
 10
25.50301471441843
 20
-4.4575146563733519
 10
25.257053379672669
 20
-4.3929622199326683
 10
25.014402426282832
 20
-4.3025888089157149
 10
24.78035846441843
 20
-4.1880496140004588
 10
24.560218104248928
 20
-4.0509998258648672
 10
24.353981345774351
 20
-3.8914394445089409
 10
24.16164818899469
 20
-3.7093684699326839
 10
24.054995417476789
 20
-3.5909493490551161
 10
23.955116161516671
 20
-3.4649306156506898
 10
23.862262115328569
 20
-3.331166167299477
 10
23.77668497312672
 20
-3.1895099015815451
 10
23.61080073136759
 20
-3.2909362665428432
 10
23.201637595774361
 20
-3.5120697411191171
 10
22.779232934757399
 20
-3.730554910610635
 10
22.34888335848623
 20
-3.9357985546784349
 10
21.915885477130271
 20
-4.1172074529835072
 10
21.486860053401461
 20
-4.2694849953563931
 10
21.27631979916417
 20
-4.3327132792546976
 10
21.068427850011631
 20
-4.3873345716275756
 10
20.86517043475741
 20
-4.4313626436614859
 10
20.668533782215039
 20
-4.4628112665428432
 10
20.478517892384531
 20
-4.4816804402716537
 10
20.295122765265891
 20
-4.4879701648479227
 10
20.153355683698081
 20
-4.4801080091275836
 10
20.014071388147229
 20
-4.4565215419665662
 10
19.87726987861333
 20
-4.4172107633648707
 10
19.742951155096389
 20
-4.362175673322497
 10
19.611115217596389
 20
-4.2914162718394451
 10
19.48176206611334
 20
-4.2049325589157149
 10
19.35489170064724
 20
-4.1027245345513066
 10
19.230504121198091
 20
-3.98479219874622
 10
19.10934416357097
 20
-3.853618337517414
 10
18.99215666357097
 20
-3.7116857368818259
 10
18.878941621198081
 20
-3.5589943968394571
 10
18.76969903645232
 20
-3.395544317390307
 10
18.664428909333679
 20
-3.2213354985343758
 10
18.56313123984215
 20
-3.0363679402716648
 10
18.465806027977749
 20
-2.840641642602173
 10
18.372453273740462
 20
-2.6341566055259018
 10
18.283569534333679
 20
-2.4180714625174282
 10
18.19965136696079
 20
-2.1935448470513261
 10
18.046711748316731
 20
-1.7191671987462409
 10
17.913634417808261
 20
-1.2110236606106479
 10
17.800419375435379
 20
-0.6691142326445458
 10
17.71004596441843
 20
-0.1033700589157323
 10
17.645493527977749
 20
0.4762777165079974
 10
17.60676206611333
 20
1.0698290936266459
 10
17.593851578825191
 20
1.677284072440216
 10
17.597126161602521
 20
1.860534762479034
 10
17.26016513814724
 20
2.1327925470164928
 10
16.718586748316731
 20
2.5446039876944551
 10
16.184953273740462
 20
2.9325806826097112
 10
15.692368527977751
 20
3.2781844961690401
 10
15.273936324587909
 20
3.5628772927792061
 10
15.18919056187605
 20
3.4463518690503752
 10
15.3331921508591
 20
3.1348449834571568
 10
15.457993527977751
 20
2.8147311063385132
 10
15.563594693231989
 20
2.486010237694444
 10
15.64999564662182
 20
2.1486823775249491
 10
15.71719638814724
 20
1.81069244108427
 10
15.76519691780825
 20
1.479985343626645
 10
15.793997235604859
 20
1.156561085152068
 10
15.80359734153706
 20
0.8404196656605336
 10
15.794990350011631
 20
0.5272575893893525
 10
15.76916937543537
 20
0.2127713605757968
 10
15.72613441780825
 20
-0.1030390207801308
 10
15.665885477130271
 20
-0.4201735546784278
 10
15.58941566780824
 20
-0.735321859763181
 10
15.49771810424892
 20
-1.045173554678438
 10
15.390792786452311
 20
-1.349728639424203
 10
15.268639714418409
 20
-1.648987114000477
 10
15.13158992628283
 20
-1.940962749593697
 10
14.97997446018114
 20
-2.223669317390303
 10
14.81379331611334
 20
-2.4971068173903008
 10
14.63304649407945
 20
-2.761275249593695
 10
14.438396070350629
 20
-3.012202156373347
 10
14.230504121198081
 20
-3.2459150801021579
 10
14.0093706466218
 20
-3.4624140207801291
 10
13.77499564662179
 20
-3.6616989784072591
 10
13.52837223560485
 20
-3.8424458004411499
 10
13.27049352797774
 20
-4.0033303343394486
 10
13.001359523740449
 20
-4.1443525801021579
 10
12.720970222892991
 20
-4.2655125377292791
 10
12.43031873984215
 20
-4.3628377495936892
 10
12.13039818899469
 20
-4.4323557580682653
 10
11.82120857035061
 20
-4.4740665631530092
 10
11.50274988390993
 20
-4.4879701648479227
 10
11.27391977268112
 20
-4.481597680737754
 10
11.05353113390994
 20
-4.4624802284072471
 10
10.84158396759638
 20
-4.4306178078564011
 10
10.638078273740449
 20
-4.3860104190852169
 10
10.44301405234215
 20
-4.3286580620936919
 10
10.25639130340147
 20
-4.2585607368818268
 10
10.078210026918409
 20
-4.17571844344962
 10
9.9084702228929871
 20
-4.0801311817970713
 10
9.7466753341218038
 20
-3.974281737941141
 10
9.5923288034014647
 20
-3.86065289789877
 10
9.4454306307319733
 20
-3.7392446616699582
 10
9.3059808161133262
 20
-3.6100570292547052
 10
9.1739793595455268
 20
-3.4730900006530101
 10
9.0494262610285752
 20
-3.3283435758648738
 10
8.9323215205624695
 20
-3.1758177548902968
 10
8.8226651381472152
 20
-3.0155125377292791
 10
8.7006827730769487
 20
-2.8062831544261542
 10
8.319487172045541
 20
-3.0843684699326839
 10
7.9500486127234993
 20
-3.3346333004411441
 10
7.551478697469264
 20
-3.587546436034359
 10
7.1370189517065512
 20
-3.827218046203857
 10
6.7199109008591051
 20
-4.0377583004411406
 10
6.5106947991641819
 20
-4.1314420928140274
 10
6.301478697469264
 20
-4.2165188936614868
 10
6.0922625957743461
 20
-4.2929887029835214
 10
5.8830464940794229
 20
-4.3608515207801304
 10
5.6761476593336688
 20
-4.4164659275597904
 10
5.4738833584862157
 20
-4.4561905038309746
 10
5.2762535915370616
 20
-4.4800252495936856
 10
5.083258358486205
 20
-4.4879701648479227
 10
4.9400016053082352
 20
-4.4830873523479244
 10
4.8015449050963692
 20
-4.4684389148479244
 10
4.6678882578506053
 20
-4.4440248523479262
 10
4.5390316635709453
 20
-4.4098451648479262
 10
4.4149751222573874
 20
-4.3658998523479271
 10
4.2957186339099334
 20
-4.3121889148479262
 10
4.1812621985285814
 20
-4.2487123523479253
 10
4.0716058161133333
 20
-4.1754701648479227
 10
3.8666932101811229
 20
-4.0086269445089346
 10
3.6809808161133231
 20
-3.8205972834919848
 10
3.514468633909928
 20
-3.6113811817970731
 10
3.3671566635709378
 20
-3.3809786394242001
 10
3.2380517906895911
 20
-3.134355228407244
 10
3.1261609008590869
 20
-2.8764765207801268
 10
3.03148399407943
 20
-2.607342516542845
 10
2.95402107035062
 20
-2.3269532156953971
 10
2.8937721296726449
 20
-2.0449087241699639
 10
2.8507371720455268
 20
-1.770809147898774
 10
2.82491619746926
 20
-1.5046544868818259
 10
2.8163092059438379
 20
-1.24644474111912
 10
2.8219368542489232
 20
-1.071987643661487
 10
2.838819799164177
 20
-0.8875994021360611
 10
2.8669580406896009
 20
-0.6932800165428432
 10
2.9063515788251948
 20
-0.489029486881833
 10
3.0069871720455299
 20
-0.0692731309496253
 10
3.1288092059438379
 20
0.3531315300673157
 10
3.2691693754353541
 20
0.7715637334571497
 10
3.4254193754353541
 20
1.1794027165080081
 10
3.7326227652658588
 20
1.899741699558859
 10
3.8663621720455268
 20
2.188406953796143
 10
3.9815634432319769
 20
2.4188094961690179
 10
4.0689575110285716
 20
2.5777078012537591
 10
4.1192753076387314
 20
2.6518603436266521
 10
3.8968176805200869
 20
2.6836400046435931
 10
3.791216515265853
 20
2.6028666995588452
 10
3.6544977652658588
 20
2.47707220803342
 10
3.4866614305200998
 20
2.3062565300673161
 10
3.2877075110285721
 20
2.0904196656605341
 10
3.0662429983167159
 20
1.836513415660546
 10
2.8308748839099391
 20
1.5514895809147871
 10
2.5816031678082432
 20
1.2353481614232571
 10
2.3184278500116311
 20
0.8880891571859593
 10
2.0459834644184092
 20
0.5140160639656264
 10
1.768904544926883
 20
0.1174323775249491
 10
1.487191091537053
 20
-0.3016619021360674
 10
1.200843104248918
 20
-0.7432667750174176
 10
0.9191296508590874
 20
-1.1997683640004619
 10
0.6513197991641704
 20
-1.6635527919665629
 10
0.3974135491641668
 20
-2.1346200589157172
 10
0.1574109008590767
 20
-2.6129701648479231
 10
-0.0544535059205842
 20
-3.0592095716275871
 10
-0.2239450313443001
 20
-3.44453796145811
 10
-0.3709259635477018
 20
-3.767631181797078
 10
-0.5152585906663489
 20
-4.0271650801021508
 10
-0.5884180186324395
 20
-4.1340903978987722
 10
-0.6648878279544732
 20
-4.227112114000473
 10
-0.7446680186324448
 20
-4.3062302284072551
 10
-0.8277585906663489
 20
-4.3714447411191202
 10
-0.918463039818878
 20
-4.4224246140004748
 10
-1.021084861852771
 20
-4.4588388089157256
 10
-1.1356240567680269
 20
-4.4806873258648743
 10
-1.2620806245646461
 20
-4.4879701648479227
 10
-1.4275996923612579
 20
-4.4753907156953812
 10
-1.574580624564645
 20
-4.4376523682377567
 10
-1.641119289818882
 20
-4.4093486076445378
 10
-1.7030234211748141
 20
-4.3747551224750492
 10
-1.7602930186324419
 20
-4.3338719127292888
 10
-1.812928082191767
 20
-4.2866989784072587
 10
-1.9076049889714231
 20
-4.1777874317970811
 10
-1.990364522869726
 20
-4.0523239784072516
 10
-2.061206683886676
 20
-3.9103086182377651
 10
-2.120131472022273
 20
-3.7517413512886151
 10
-2.1684630398188718
 20
-3.5792704826445481
 10
-2.2075255398188709
 20
-3.395544317390311
 10
-2.2373189720222659
 20
-3.200562855525904
 10
-2.2578433364290551
 20
-2.9943260970513279
 10
-2.2816780821917568
 20
-2.5653006733225041
 10
-2.2896229974459961
 20
-2.1256820292547052
 10
-2.288832107853175
 20
-2.0331479468938771
 10
-2.723945031344293
 20
-2.475258300441141
 10
-2.924223103378186
 20
-2.664612114000473
 10
-3.1331081669375109
 20
-2.851317622475054
 10
-3.350600222022261
 20
-3.0353748258648858
 10
-3.576699268632431
 20
-3.216783724169971
 10
-3.8097501160900591
 20
-3.3919028978987829
 10
-4.0480975737171816
 20
-3.5570909275597948
 10
-4.2917416415137994
 20
-3.7123478131530092
 10
-4.540682319479906
 20
-3.8576735546784282
 10
-4.7949196076154887
 20
-3.99141296145809
 10
-5.0544535059205744
 20
-4.1119108428140274
 10
-5.3192840143951514
 20
-4.2191671987462334
 10
-5.5894111330392144
 20
-4.3131820292547047
 10
-5.8631796711748123
 20
-4.389651838576734
 10
-6.1389344381239654
 20
-4.4442731309496146
 10
-6.4166754338866721
 20
-4.4770459063733448
 10
-6.6964026584629366
 20
-4.4879701648479227
 10
-6.9363225472341226
 20
-4.4823425165428379
 10
-7.1687940779544608
 20
-4.4654595716275836
 10
-7.393817250623953
 20
-4.4373213301021597
 10
-7.6113920652425966
 20
-4.3979277919665662
 10
-7.821518521810396
 20
-4.3472789572208033
 10
-8.0241966203273467
 20
-4.2853748258648707
 10
-8.2194263607934523
 20
-4.2122153978987686
 10
-8.4072077432087085
 20
-4.127800673322497
 10
-8.5875407675731186
 20
-4.0339513618818197
 10
-8.7604254338866774
 20
-3.9324881733224979
 10
-8.9258617421493902
 20
-3.8234111076445338
 10
-9.0838496923612517
 20
-3.7067201648479262
 10
-9.2343892845222655
 20
-3.5824153449326741
 10
-9.3774805186324315
 20
-3.450496647898778
 10
-9.5131233946917533
 20
-3.3109640737462369
 10
-9.6413179127002238
 20
-3.1638176224750509
 10
-9.7824123782085088
 20
-2.9816052951873928
 10
-9.9111604843444283
 20
-2.7899735336562799
 10
-10.16568231947991
 20
-2.9784362665428432
 10
-10.454678611852771
 20
-3.1730866902716581
 10
-10.754930200835821
 20
-3.3597921987462378
 10
-11.06643708642903
 20
-3.5385527919665809
 10
-11.389199268632421
 20
-3.7093684699326839
 10
-11.719244289818869
 20
-3.8692598894242058
 10
-12.052599692361239
 20
-4.0152477072208086
 10
-12.38926547625954
 20
-4.1473319233224979
 10
-12.729241641513781
 20
-4.2655125377292791
 10
-13.066569501683279
 20
-4.3628377495936892
 10
-13.39529037032734
 20
-4.4323557580682653
 10
-13.71540424744599
 20
-4.4740665631530092
 10
-14.02691113303921
 20
-4.4879701648479227
 10
-14.2914106033782
 20
-4.478370058915722
 10
-14.534061556768039
 20
-4.4495697411191166
 10
-14.754863993208721
 20
-4.4015692114581046
 10
-14.95381791270025
 20
-4.3343684699326843
 10
-15.132909544056171
 20
-4.2499537453564127
 10
-15.29412511609006
 20
-4.1503112665428503
 10
-15.43746462880193
 20
-4.0354410334919972
 10
-15.56292808219176
 20
-3.905343046203853
 10
-15.64592140154404
 20
-3.7974090967956302
 10
-15.71953441320251
 20
-3.6808501153290969
 10
-15.78375840114307
 20
-3.5556629340820449
 10
-15.8385846493416
 20
-3.421844385332264
 10
-16.10751726338933
 20
-3.6064221736278732
 10
-16.383902658462961
 20
-3.783521012305556
 10
-16.663629883039221
 20
-3.9500331945089422
 10
-16.946667488971411
 20
-4.1052900801021579
 10
-17.233015476259549
 20
-4.2492916690852054
 10
-17.522673844903618
 20
-4.3820379614580824
 10
-17.814318442361259
 20
-4.5022048046784331
 10
-18.106625116090068
 20
-4.6084680462038641
 10
-18.399593866090068
 20
-4.7008276860343763
 10
-18.693224692361259
 20
-4.7792837241699706
 10
-18.986193442361252
 20
-4.8418499317970767
 10
-19.277175963547691
 20
-4.8865400801021543
 10
-19.56617225592057
 20
-4.9133541690852027
 10
-19.853182319479892
 20
-4.92229219874622
 10
-20.035749851259549
 20
-4.9183197411191024
 10
-20.21268973473412
 20
-4.906402368237746
 10
-20.384001969903611
 20
-4.8865400801021526
 10
-20.54968655676802
 20
-4.8587328767123239
 10
-20.709743495327341
 20
-4.8229807580682573
 10
-20.86417278558158
 20
-4.7792837241699537
 10
-21.01297442753074
 20
-4.7276417750174131
 10
-21.156148421174809
 20
-4.6680549106106346
 10
-21.42726865422566
 20
-4.5296809699326737
 10
-21.679188675412099
 20
-4.3687964360343727
 10
-21.911908484734131
 20
-4.1854013089157327
 10
-22.12542808219175
 20
-3.979495588576754
 10
-22.321071620327331
 20
-3.7533965419665711
 10
-22.500163251683269
 20
-3.5094214360343621
 10
-22.662702976259538
 20
-3.2475702707801242
 10
-22.808690794056162
 20
-2.967843046203853
 10
-22.93945085761548
 20
-2.6748742962038539
 10
-23.056307319479881
 20
-2.3732985546784309
 10
-23.15926017964938
 20
-2.063115821627588
 10
-23.24830943812395
 20
-1.7443260970513279
 10
-23.32444820931039
 20
-1.4199087241699659
 10
-23.38866960761548
 20
-1.092843046203861
 10
-23.44097363303921
 20
-0.763129063153011
 10
-23.481360285581591
 20
-0.4307667750174176
 10
-23.511484755920559
 20
-0.0997286394241965
 10
-23.53300223473412
 20
0.2260128859995341
 10
-23.545912722022251
 20
0.5464578012537715
 10
-23.550216217784961
 20
0.8616061063385132
 10
-23.54194026439513
 20
1.272755470745299
 10
-23.517112404225649
 20
1.679932377524963
 10
-23.47573263727649
 20
2.083136826677507
 10
-23.41780096354768
 20
2.4823688182029291
 10
-23.347951916937522
 20
2.8779593902368261
 10
-23.2708200313443
 20
3.2702395809147942
 10
-23.18640530676802
 20
3.6592093902368288
 10
-23.094707743208691
 20
4.0448688182029287
 10
-22.89343655676802
 20
4.8036082249825824
 10
-22.67097892964938
 20
5.5438094961690183
 10
-22.44852130253074
 20
6.2654726317622611
 10
-22.24725011609004
 20
6.9685976317622647
 10
-22.071137827954459
 20
7.6518603436266623
 10
-21.924156895751079
 20
8.3139366148130875
 10
-21.866225222022269
 20
8.6366987970164857
 10
-21.82484545507311
 20
8.9535022927791985
 10
-21.800017594903611
 20
9.2643471021012296
 10
-21.79174164151377
 20
9.5692332249825824
 10
-21.797038251683279
 20
9.7546145809147902
 10
-21.81292808219175
 20
9.9929620385419184
 10
-21.846031895751072
 20
10.252495936846991
 10
-21.90297045507311
 20
10.501436614813089
 10
-21.942363993208701
 20
10.619286191084271
 10
-21.991688675412089
 20
10.72919085210123
 10
-22.050944501683279
 20
10.83115059786395
 10
-22.120131472022251
 20
10.92516542837242
 10
-22.200904777106999
 20
11.00395250464361
 10
-22.29491960761548
 20
11.06022898769446
 10
-22.40217596354768
 20
11.09399487752497
 10
-22.522673844903611
 20
11.10525017413514
 10
-22.629019845962929
 20
11.099043209092761
 10
-22.736193442361241
 20
11.08042231396565
 10
-22.844194634098528
 20
11.04938748875378
 10
-22.953023421174802
 20
11.005938733457169
 10
-23.062679803590061
 20
10.95007604807582
 10
-23.1731637813443
 20
10.881799432609711
 10
-23.284475354437522
 20
10.80110888705887
 10
-23.396614522869729
 20
10.70800441142327
 10
-23.623044607615491
 20
10.490512356338529
 10
-23.852122997445999
 20
10.23528195379615
 10
-24.083849692361241
 20
9.9423132037961484
 10
-24.318224692361241
 20
9.6116061063385132
 10
-24.554254883039199
 20
9.2458089665080134
 10
-24.790947149988359
 20
8.8475700893893716
 10
-25.028301493208701
 20
8.4168894749825878
 10
-25.266317912700231
 20
7.9537671232876619
 10
-25.50433433219176
 20
7.4651548351520773
 10
-25.741688675412089
 20
6.9580044114232713
 10
-25.978380942361241
 20
6.432315852101242
 10
-26.214411133039221
 20
5.8880891571859877
 10
-26.683161133039221
 20
4.7519662758300534
 10
-27.146614522869729
 20
3.5575806826097112
 10
-27.599474692361241
 20
2.33141542837242
 10
-28.0364450313443
 20
1.099953563965641
 10
-28.868012827954459
 20
-1.3311905038309819
 10
-29.620131472022251
 20
-3.587546436034359
 10
-29.6956909264714
 20
-3.7253410599750421
 10
-29.774064205073099
 20
-3.852707982644537
 10
-29.855251307827341
 20
-3.9696472040428441
 10
-29.93925223473412
 20
-4.0761587241699644
 10
-30.026066985793442
 20
-4.172242543025896
 10
-30.11569556100531
 20
-4.2578986606106408
 10
-30.208137960369719
 20
-4.333127076924197
 10
-30.30339418388667
 20
-4.3979277919665662
 10
-30.401464231556162
 20
-4.4537904773479271
 10
-30.502348103378189
 20
-4.5022048046784384
 10
-30.606045799352771
 20
-4.543170773958102
 10
-30.712557319479892
 20
-4.576688385186916
 10
-30.821882663759549
 20
-4.6027576383648832
 10
-30.93402183219175
 20
-4.6213785334920008
 10
-31.048974824776501
 20
-4.6325510705682724
 10
-31.166741641513791
 20
-4.6362752495936954
 10
-31.303460391513781
 20
-4.6289924106106408
 10
-31.43819291270022
 20
-4.6071438936614832
 10
-31.57093920507311
 20
-4.5707296987462236
 10
-31.701699268632431
 20
-4.5197498258648636
 10
-31.827824798293449
 20
-4.4545353131529994
 10
-31.946667488971411
 20
-4.37541719874622
 10
-32.058227340666328
 20
-4.2823954826445281
 10
-32.162504353378203
 20
-4.1754701648479227
 10
-32.257843336429048
 20
-4.0549722834919946
 10
-32.342589099140909
 20
-3.9212328767123381
 10
-32.416741641513788
 20
-3.7742519445089511
 10
-32.48030096354767
 20
-3.614029486881833
 10
-32.531280836429033
 20
-3.441558618237766
 10
-32.567695031344293
 20
-3.257832452983529
 10
-32.589543548293449
 20
-3.062850991119122
 10
-32.596826387276501
 20
-2.8566142326445458
 10
-32.586233166937511
 20
-2.4328854190852169
 10
-32.55445350592057
 20
-2.051529486881833
 10
-32.501487404225649
 20
-1.6887116902716559
 10
-32.427334861852778
 20
-1.3205972834919919
 10
-31.934750116090061
 20
0.9145722080334338
 10
-31.716264946598521
 20
1.9182798351520809
 10
-31.51631791270022
 20
2.8743179707452948
 10
-31.334909014395141
 20
3.7919556826097138
 10
-31.172038251683279
 20
4.6804620385419176
 10
-31.025057319479892
 20
5.5570510215927591
 10
-30.891317912700231
 20
6.4389366148130884
 10
-30.77214418388667
 20
7.3353878859995412
 10
-30.668860285581591
 20
8.2556739029487005
 10
-30.578817912700231
 20
9.2196569537961537
 10
-30.499368760157861
 20
10.247199326677499
 10
-30.499368760157861
 20
10.49084339447413
 10
-30.507313675412089
 20
10.635176021592761
 10
-30.531148421174809
 20
10.77156373345716
 10
-30.57484545507311
 20
10.894709919897849
 10
-30.605632001683279
 20
10.94933121227073
 10
-30.642377234734109
 20
10.999317970745301
 10
-30.687067383039199
 20
11.04102877583005
 10
-30.741688675412082
 20
11.070822208033441
 10
-30.80624111185276
 20
11.08869826735547
 10
-30.880724692361241
 20
11.09465695379615
 10
-30.992284544056151
 20
11.08207750464361
 10
-31.115099692361241
 20
11.044339157185981
 10
-31.24917013727649
 20
10.98144191142327
 10
-31.39449587880193
 20
10.893385767355481
 10
-31.546773421174802
 20
10.78315006820293
 10
-31.701699268632431
 20
10.65371415718597
 10
-31.859273421174802
 20
10.505078034304621
 10
-32.019495878801933
 20
10.337241699558859
 10
-32.181704565242612
 20
10.152191381762259
 10
-32.345237404225657
 20
9.9519133097283614
 10
-32.510094395751068
 20
9.7364074834571763
 10
-32.676275539818867
 20
9.5056739029487005
 10
-32.839477340666321
 20
9.2626919114232749
 10
-32.995396302530743
 20
9.0104408521012402
 10
-33.144032425412092
 20
8.7489207249825967
 10
-33.285385709310383
 20
8.4781315300673441
 10
-33.321799904225642
 20
8.4043100258300498
 10
-33.367483166937511
 20
8.3417438182029251
 10
-33.422435497445989
 20
8.290432907185977
 10
-33.486656895751082
 20
8.2503772927792056
 10
-33.557499056768023
 20
8.2202528224402158
 10
-33.632313675412092
 20
8.1987353436266517
 10
-33.711100751683283
 20
8.1858248563385132
 10
-33.79386028558158
 20
8.1815213605758004
 10
-33.863378294056147
 20
8.1871490088808851
 10
-33.934220455073103
 20
8.2040319537961395
 10
-34.006386768632417
 20
8.2321701953215634
 10
-34.079877234734127
 20
8.2715637334571568
 10
-34.22288570931039
 20
8.3708751741351222
 10
-34.35530096354767
 20
8.4887247504063055
 10
-34.471826387276487
 20
8.6198158521012402
 10
-34.567165370327352
 20
8.7588518690503747
 10
-34.604241641513788
 20
8.8287009156605478
 10
-34.630724692361241
 20
8.8952395809147937
 10
-34.646614522869719
 20
8.9584678648131053
 10
-34.651911133039206
 20
9.0183857673554826
 10
-34.641317912700217
 20
9.0766484792198767
 10
-34.609538251683283
 20
9.1243179707452953
 10
-34.428460391513802
 20
9.6999932885419113
 10
-34.23480308219176
 20
10.229985343626661
 10
-34.028566323717193
 20
10.71429413599955
 10
-33.920730651047691
 20
10.93931730866904
 10
-33.809750116090058
 20
11.15291966566056
 10
-33.581333802530743
 20
11.54884127583005
 10
-33.346296726259553
 20
11.90503830972836
 10
-33.104638887276501
 20
12.221510767355481
 10
-32.981327181768023
 20
12.364850280067349
 10
-32.85636028558158
 20
12.49825864871141
 10
-32.603778188123947
 20
12.737599220745309
 10
-32.349209861852771
 20
12.94184975040632
 10
-32.221180862912099
 20
13.030816249347
 10
-32.09265530676803
 20
13.111010237694449
 10
-31.96363319342057
 20
13.18243171544869
 10
-31.834114522869719
 20
13.245080682609711
 10
-31.575904777106999
 20
13.347040428372431
 10
-31.32034333642904
 20
13.419868818202939
 10
-31.067430200835819
 20
13.46356585210124
 10
-30.817165370327359
 20
13.478131530067341
 10
-30.456002764395151
 20
13.463896890236841
 10
-30.286593998505321
 20
13.446103590448701
 10
-30.124633590666331
 20
13.421192970745309
 10
-29.970121540878189
 20
13.389165031126661
 10
-29.823057849140909
 20
13.350019771592761
 10
-29.68344251545447
 20
13.30375719214361
 10
-29.551275539818871
 20
13.250377292779209
 10
-29.42589484596294
 20
13.190624909304629
 10
-29.306638357615491
 20
13.12524487752497
 10
-29.193506074776501
 20
13.054237197440219
 10
-29.086497997445989
 20
12.977601869050391
 10
-28.98561412562395
 20
12.89533889235547
 10
-28.89085445931039
 20
12.80744826735547
 10
-28.8022189985053
 20
12.713929994050391
 10
-28.719707743208691
 20
12.614784072440219
 10
-28.64307241481886
 20
12.510258781126661
 10
-28.57206473473412
 20
12.40060239871141
 10
-28.446932319479881
 20
12.16589636057582
 10
-28.344310497445989
 20
11.910665958033441
 10
-28.264199268632439
 20
11.63491119108429
 10
-28.203950327954459
 20
11.34094932667751
 10
-28.160915370327341
 20
11.03109763176225
 10
-28.135094395751079
 20
10.70535610633852
 10
-28.12648740422566
 20
10.363724750406311
 10
-28.133770243208701
 20
10.00752771650801
 10
-28.15561876015785
 20
9.6380891571859735
 10
-28.19203295507311
 20
9.2554090724402087
 10
-28.243012827954459
 20
8.8594874622707209
 10
-28.306572149988359
 20
8.4533036698978421
 10
-28.380724692361241
 20
8.0398370385419113
 10
-28.46547045507311
 20
7.6190875682029313
 10
-28.56080943812395
 20
7.1910552588809082
 10
-28.775322149988359
 20
6.318438733457171
 10
-29.016317912700231
 20
5.4272840724402158
 10
-29.53538570931039
 20
3.6370298351520769
 10
-29.35530096354768
 20
3.573470513118195
 10
-28.99115901439513
 20
4.6192199834571666
 10
-28.629665370327341
 20
5.5954514453215687
 10
-28.2708200313443
 20
6.5021648987113974
 10
-27.914622997445999
 20
7.3393603436266517
 10
-27.56140530676803
 20
8.1126654283724129
 10
-27.211497997445999
 20
8.8277078012537693
 10
-26.864901069479899
 20
9.4844874622707209
 10
-26.521614522869729
 20
10.08300441142327
 10
-26.182631472022258
 20
10.626569030067341
 10
-25.848945031344289
 20
11.118491699558859
 10
-25.520555200835808
 20
11.55877241989784
 10
-25.197461980496829
 20
11.94741119108429
 10
-24.879003294056151
 20
12.29069773769446
 10
-24.56451706524259
 20
12.594921784304629
 10
-24.254003294056151
 20
12.860083330914801
 10
-23.947461980496829
 20
13.086182377524979
 10
-23.645555200835819
 20
13.276860343626661
 10
-23.3489450313443
 20
13.435758648711399
 10
-23.057631472022269
 20
13.5628772927792
 10
-22.771614522869729
 20
13.65821627583006
 10
-22.490563145751079
 20
13.727734284304621
 10
-22.21414630253074
 20
13.7773900046436
 10
-21.942363993208701
 20
13.807183436846991
 10
-21.675216217784971
 20
13.81711458091479
 10
-21.524428347022258
 20
13.812480047016489
 10
-21.379268124564639
 20
13.79857644532157
 10
-21.239735550412089
 20
13.77540377583005
 10
-21.105830624564639
 20
13.74296203854191
 10
-20.977553347022258
 20
13.701251233457169
 10
-20.854903717784971
 20
13.65027136057582
 10
-20.73788173685276
 20
13.590022419897849
 10
-20.626487404225639
 20
13.52050441142327
 10
-20.418926493208691
 20
13.361606106338529
 10
-20.230565794056151
 20
13.18152136057582
 10
-20.06140530676802
 20
12.98025017413514
 10
-19.911445031344279
 20
12.757792547016489
 10
-19.780684967784961
 20
12.518783013118179
 10
-19.669125116090061
 20
12.26785610633852
 10
-19.57676547625956
 20
12.005011826677499
 10
-19.503606048293459
 20
11.73025017413514
 10
-19.447991641513799
 20
11.45085398769446
 10
-19.408267065242601
 20
11.17410610633852
 10
-19.384432319479881
 20
10.900006530067341
 10
-19.376487404225639
 20
10.62855525888091
 10
-19.382777128801919
 20
10.301820619050391
 10
-19.401646302530729
 20
9.9572099198978492
 10
-19.433094925412089
 20
9.5947231614232713
 10
-19.477122997445989
 20
9.2143603436266517
 10
-19.58967596354768
 20
8.41324805549106
 10
-19.72606367541211
 20
7.5671145809147902
 10
-19.882313675412089
 20
6.6839048351520809
 10
-20.054453505920559
 20
5.7715637334571568
 10
-20.22659333642904
 20
4.8473052588808976
 10
-20.38284333642904
 20
3.9283433944741262
 10
-20.519231048293442
 20
3.0199747504063201
 10
-20.63178401439513
 20
2.1274959368469979
 10
-20.67581208642903
 20
1.6915187122707269
 10
-20.70726070931039
 20
1.2681209368469939
 10
-20.726129883039199
 20
0.8573026105758035
 10
-20.73241960761548
 20
0.4590637334571568
 10
-20.716529777106992
 20
-0.1076735546784278
 10
-20.691370878801919
 20
-0.4228218597631788
 10
-20.647673844903611
 20
-0.7432667750174176
 10
-20.582790370327341
 20
-1.062387537729286
 10
-20.494072149988352
 20
-1.373563385186912
 10
-20.439119819479881
 20
-1.5231926224750489
 10
-20.374898421174802
 20
-1.6648769445089511
 10
-20.30140795507311
 20
-1.798616351288616
 10
-20.218648421174809
 20
-1.924410842814041
 10
-20.125957743208701
 20
-2.0402741902716639
 10
-20.022673844903611
 20
-2.1442201648479302
 10
-19.908796726259538
 20
-2.2362487665428419
 10
-19.78432638727649
 20
-2.3163599953564069
 10
-19.64826971354768
 20
-2.3812434699326701
 10
-19.499633590666331
 20
-2.4275888089157149
 10
-19.338418018632431
 20
-2.4553960123055418
 10
-19.164622997445989
 20
-2.4646650801021508
 10
-19.03659399850531
 20
-2.4606926224750318
 10
-18.906744289818871
 20
-2.4487752495936772
 10
-18.641582743208701
 20
-2.4011057580682551
 10
-18.36913835761548
 20
-2.321656605525884
 10
-18.08941113303921
 20
-2.2104277919665658
 10
-17.807366641513781
 20
-2.0750331945089409
 10
-17.52797045507311
 20
-1.923086690271653
 10
-17.251222573717179
 20
-1.754588279254707
 10
-16.977122997445989
 20
-1.56953796145811
 10
-16.70765795507312
 20
-1.3722392326445461
 10
-16.444813675412099
 20
-1.1669955885767429
 10
-16.188590158462951
 20
-0.9538070292547025
 10
-15.938987404225671
 20
-0.7326735546784278
 10
-15.80592525808366
 20
-0.6079753148653424
 10
-15.65122114541589
 20
0.1965506728346611
 10
-15.467589099140911
 20
1.0258010215927409
 10
-15.2385107093104
 20
1.9725700893893501
 10
-14.996190794056179
 20
2.916690852101226
 10
-14.761815794056171
 20
3.822411191084282
 10
-14.55657214998838
 20
4.653978987694444
 10
-14.510226811005319
 20
4.7867252800673317
 10
-14.445343336429049
 20
4.90954042837242
 10
-14.36192172625956
 20
5.0224244326097107
 10
-14.25996198049684
 20
5.1253772927792056
 10
-14.145091747445999
 20
5.2187300470164946
 10
-14.02293867541211
 20
5.302813733457171
 10
-13.89350276439515
 20
5.3776283521012376
 10
-13.756784014395141
 20
5.4431739029487014
 10
-13.566278894929219
 20
5.517182835052191
 10
-13.37029325693393
 20
5.5742245584156933
 10
-13.507843336429049
 20
5.6897202228929586
 10
-13.612120349140911
 20
5.8041766582743168
 10
-13.702493760157861
 20
5.9277366423844882
 10
-13.77896356947989
 20
6.0604001752234726
 10
-13.841529777107009
 20
6.2021672567912702
 10
-13.89019238303921
 20
6.353037887087881
 10
-13.924951387276501
 20
6.5130120661133049
 10
-13.94580678981888
 20
6.6820897938675419
 10
-13.952758590666329
 20
6.860271070350592
 10
-13.94613782795447
 20
6.9860655618760177
 10
-13.926275539818869
 20
7.1198049686556821
 10
-13.893171726259551
 20
7.2614892906895836
 10
-13.84682638727649
 20
7.4111185279777203
 10
-13.78558433219176
 20
7.5624029559438206
 10
-13.707790370327359
 20
7.7090528500116164
 10
-13.61344450168329
 20
7.8510682101811078
 10
-13.502546726259551
 20
7.9884490364522946
 10
-13.3734418533782
 20
8.1182159856048379
 10
-13.22447469236125
 20
8.237389714418395
 10
-13.0556452432087
 20
8.3459702228929729
 10
-12.866953505920559
 20
8.4439575110285716
 10
-12.76457996248836
 20
8.487406266325177
 10
-12.65608221354768
 20
8.5250618542489036
 10
-12.4207140991409
 20
8.5829935279777203
 10
-12.16084916270022
 20
8.6177525322150146
 10
-11.876487404225641
 20
8.6293388669607793
 10
-11.693754353378189
 20
8.6240422567912862
 10
-11.51631791270022
 20
8.6081524262828069
 10
-11.34417808219175
 20
8.5816693754353413
 10
-11.177334861852771
 20
8.5445931042488894
 10
-11.01843655676802
 20
8.4965925745878792
 10
-10.87013147202226
 20
8.4373367483166994
 10
-10.732419607615491
 20
8.366825625435343
 10
-10.6053009635477
 20
8.28505920594381
 10
-10.48976865422566
 20
8.1907133372997478
 10
-10.386815794056171
 20
8.0824638669607651
 10
-10.29644238303921
 20
7.9603107949268699
 10
-10.2186484211748
 20
7.8242541211980674
 10
-10.15608221354768
 20
7.6746248839099236
 10
-10.111392065242599
 20
7.5117541211980559
 10
-10.08457797625956
 20
7.3356418330624624
 10
-10.07563994659855
 20
7.146288019503146
 10
-10.0829227855816
 20
6.9675274262828051
 10
-10.10477130253075
 20
6.7914151381472081
 10
-10.141185497445999
 20
6.617951155096355
 10
-10.19216537032735
 20
6.4471354771302458
 10
-10.259035073717181
 20
6.2822784856048299
 10
-10.343118760157861
 20
6.1266905618760177
 10
-10.44441642964938
 20
5.9803717059438144
 10
-10.562928082191769
 20
5.8433219178082254
 10
-10.69832267964939
 20
5.7171963881472134
 10
-10.85026918388667
 20
5.6036503076387412
 10
-11.018767594903609
 20
5.5026836762828104
 10
-11.20381791270022
 20
5.4142964940794229
 10
-11.358058824291851
 20
5.3572770162555976
 10
-11.52364423200884
 20
5.3124470652570466
 10
-11.70057926772901
 20
5.2798747785409859
 10
-11.888869063330191
 20
5.2596282935646306
 10
-11.87130031120468
 20
5.1724599143742491
 10
-11.865894183886651
 20
5.07770780125378
 10
-11.872514946598519
 20
4.9482718902368301
 10
-11.892377234734109
 20
4.7930150046436104
 10
-11.92548104829344
 20
4.6119371444741191
 10
-11.97182638727649
 20
4.4050383097283543
 10
-12.09100011609006
 20
3.9362883097283512
 10
-12.23665689575107
 20
3.4092755978639389
 10
-12.575639946598541
 20
2.212241699558859
 10
-12.75042808219175
 20
1.5713518690503849
 10
-12.91462299744599
 20
0.93046203854189
 10
-13.06027977710702
 20
0.2975171232876583
 10
-13.179453505920559
 20
-0.31953796145811
 10
-13.22579884490362
 20
-0.6164791690852201
 10
-13.25890265846294
 20
-0.8981926224750474
 10
-13.278764946598541
 20
-1.1646783216275891
 10
-13.2853857093104
 20
-1.415936266542843
 10
-13.278764946598541
 20
-1.642035313153015
 10
-13.25890265846294
 20
-1.843637537729286
 10
-13.22579884490362
 20
-2.0207429402716581
 10
-13.179453505920559
 20
-2.1733515207801299
 10
-13.14949455464938
 20
-2.2391453502292822
 10
-13.11258380253074
 20
-2.2961666690852152
 10
-13.06872124956465
 20
-2.344415477347928
 10
-13.017906895751089
 20
-2.3838917750174211
 10
-12.96014074109007
 20
-2.4145955620936941
 10
-12.8954227855816
 20
-2.4365268385767469
 10
-12.82375302922566
 20
-2.4496856044665791
 10
-12.745131472022271
 20
-2.454071859763189
 10
-12.64846833642904
 20
-2.4499338830682742
 10
-12.54915689575107
 20
-2.4375199529835272
 10
-12.34258909914089
 20
-2.3878642326445418
 10
-12.12542808219175
 20
-2.3051046987462369
 10
-11.89767384490362
 20
-2.1892413512886151
 10
-11.663960921174811
 20
-2.049874296203861
 10
-11.42892384490362
 20
-1.8966036394242001
 10
-11.19256261609006
 20
-1.729429380949624
 10
-10.954877234734131
 20
-1.5483515207801299
 10
-10.53509642215865
 20
-1.2075744004590381
 10
-10.584881879672039
 20
-0.9392760399453048
 10
-10.620003120384011
 20
-0.6673609770035718
 10
-10.64081536766955
 20
-0.3919015668867929
 10
-10.647673844903631
 20
-0.1129701648479227
 10
-10.63972892964939
 20
0.197543606338515
 10
-10.615894183886679
 20
0.5146781402368177
 10
-10.576169607615499
 20
0.8384334368469855
 10
-10.52055520083584
 20
1.1688094961690181
 10
-10.449382001683301
 20
1.5008407461690201
 10
-10.362981048293459
 20
1.8295616148130911
 10
-10.26135234066634
 20
2.15497210210123
 10
-10.14449587880193
 20
2.4770722080334342
 10
-10.012742700835821
 20
2.7938757037961448
 10
-9.8664238449036148
 20
3.103396360575807
 10
-9.7055393110053139
 20
3.4056341783724222
 10
-9.5300890991409162
 20
3.7005891571859881
 10
-9.3400732093104004
 20
3.9829646868469961
 10
-9.1354916415137879
 20
4.247464157185977
 10
-8.9163443957510786
 20
4.4940875682029287
 10
-8.6826314720222726
 20
4.7228349198978492
 10
-8.4346839084629437
 20
4.9313889453215776
 10
-8.1728327432087085
 20
5.1174323775249633
 10
-7.8970779762595589
 20
5.280965216508009
 10
-7.6074196076154914
 20
5.4219874622707209
 10
-7.4572938131239637
 20
5.4828157196859761
 10
-7.3035265991409126
 20
5.5355335427791967
 10
-7.1461179656663356
 20
5.5801409315503818
 10
-6.9850679127002344
 20
5.6166378859995341
 10
-6.8203764402426064
 20
5.6450244061266508
 10
-6.6520435482934541
 20
5.6653004919317347
 10
-6.480069236852775
 20
5.677466143414784
 10
-6.30445350592057
 20
5.6815213605758004
 10
-6.0081743745646374
 20
5.6699350258300392
 10
-5.7231505398188736
 20
5.6351760215927564
 10
-5.449382001683281
 20
5.5772443478639504
 10
-5.1868687601578571
 20
5.4961400046436211
 10
-4.939252234734127
 20
5.3945112970164928
 10
-4.7101738449036183
 20
5.2750065300673334
 10
-4.4996335906663329
 20
5.1376257037961448
 10
-4.3076314720222726
 20
4.9823688182029287
 10
-4.1348295652426028
 20
4.8105600258300507
 10
-3.9818899465985278
 20
4.6235234792198767
 10
-3.8488126160900489
 20
4.421259178372412
 10
-3.7355975737171652
 20
4.2037671232876619
 10
-3.6452241627002162
 20
3.974357695321574
 10
-3.580671726259542
 20
3.7363412758300529
 10
-3.541940264395139
 20
3.4897178648131009
 10
-3.5290297771070058
 20
3.2344874622707209
 10
-3.5349884635476831
 20
3.0550647927791958
 10
-3.5528645228697151
 20
2.8769662758300458
 10
-3.5826579550731061
 20
2.7001919114232682
 10
-3.6243687601578571
 20
2.524741699558859
 10
-3.6776658999883578
 20
2.3542570597283472
 10
-3.7422183364290369
 20
2.1923794114232611
 10
-3.81802606947989
 20
2.0391087546436002
 10
-3.9050890991409162
 20
1.894445089389365
 10
-4.0027453491409073
 20
1.761036720745299
 10
-4.1103327432087013
 20
1.641531953796147
 10
-4.2278512813442983
 20
1.535930788541908
 10
-4.3553009635476982
 20
1.444233224982582
 10
-4.4916886754120986
 20
1.3700806826097001
 10
-4.6360213025307431
 20
1.3171145809147871
 10
-4.788298844903629
 20
1.285334919897841
 10
-4.9485213025307573
 20
1.274741699558859
 10
-5.0676122718104164
 20
1.278879676253774
 10
-5.1759445016832952
 20
1.2912936063385181
 10
-5.2735179921493947
 20
1.311983489813092
 10
-5.3603327432087164
 20
1.3409493266774959
 10
-5.4363887548612562
 20
1.378191116931732
 10
-5.5016860271070183
 20
1.423708860575799
 10
-5.5562245599460001
 20
1.4775025576097001
 10
-5.6000043533782033
 20
1.539572208033434
 10
-5.6672050949036237
 20
1.68456691142326
 10
-5.7152056245646357
 20
1.8547205131181741
 10
-5.7440059423612411
 20
2.050033013118171
 10
-5.7536060482934417
 20
2.270504411423246
 10
-5.7496335906663347
 20
2.466478987694448
 10
-5.7377162177849854
 20
2.6730467843046029
 10
-5.7218263872765007
 20
3.0544027165080081
 10
-5.7350679127002309
 20
3.2874535639656379
 10
-5.7516198194798944
 20
3.3880891571859828
 10
-5.7747924889714213
 20
3.4781315300673441
 10
-5.8092204550731186
 20
3.5522840724402269
 10
-5.8595382516832899
 20
3.6052501741351399
 10
-5.9257458788019353
 20
3.6370298351520862
 10
-6.0078433364290547
 20
3.6476230554910671
 10
-6.2170594381239663
 20
3.63471256820293
 10
-6.410385709310404
 20
3.5959811063385199
 10
-6.5878221499883676
 20
3.5314286698978452
 10
-6.6705816838866712
 20
3.4894695862114089
 10
-6.7493687601578571
 20
3.4410552588809078
 10
-6.8973428067680249
 20
3.3298264453215838
 10
-7.0340615567680231
 20
3.202707801253784
 10
-7.1595250101578518
 20
3.059699326677503
 10
-7.2737331669375109
 20
2.9008010215927409
 10
-7.3766860271070156
 20
2.72866119108427
 10
-7.4683835906663454
 20
2.5459281402368181
 10
-7.5488258576154994
 20
2.3526018690503792
 10
-7.6180128279544803
 20
2.1486823775249491
 10
-7.7318899465985416
 20
1.731574326677503
 10
-7.8192840143951443
 20
1.3171145809147899
 10
-7.8801950313443001
 20
0.9132480554910529
 10
-7.9146229974459956
 20
0.5279196656605336
 10
-7.930512827954459
 20
0.1823158521012296
 10
-7.9358094381239468
 20
-0.1023769445089329
 10
-7.9315059423612384
 20
-0.2950411394241983
 10
-7.9185954550731097
 20
-0.4916777919665769
 10
-7.8970779762595553
 20
-0.6922869021360714
 10
-7.86695350592057
 20
-0.8968684699326843
 10
-7.8249116627002389
 20
-1.0991327707801291
 10
-7.7676420652426117
 20
-1.2927900801021579
 10
-7.6951447135476938
 20
-1.477840397898772
 10
-7.6074196076154914
 20
-1.654283724169971
 10
-7.5034736330392207
 20
-1.8191407156953929
 10
-7.382313675412103
 20
-1.9694320292547149
 10
-7.2439397347341394
 20
-2.105157664847936
 10
-7.0883518110053316
 20
-2.2263176224750509
 10
-7.0032750101578687
 20
-2.2796975218394562
 10
-6.9122395228697293
 20
-2.325960101288608
 10
-6.8152453491409144
 20
-2.3651053608225059
 10
-6.7122924889714213
 20
-2.3971333004411508
 10
-6.6033809423612526
 20
-2.4220439201445432
 10
-6.4885107093104084
 20
-2.439837219932679
 10
-6.240894183886688
 20
-2.454071859763189
 10
-6.1121203491409206
 20
-2.449189047263189
 10
-5.9800361330392224
 20
-2.4345406097631872
 10
-5.8446415355815944
 20
-2.4101265472631841
 10
-5.7059365567680338
 20
-2.3759468597631819
 10
-5.5639211965985433
 20
-2.332001547263181
 10
-5.4185954550731203
 20
-2.278290609763181
 10
-5.2699593321917666
 20
-2.2148140472631841
 10
-5.1180128279544803
 20
-2.141571859763189
 10
-4.8104783999883782
 20
-1.9750596775597931
 10
-4.5022818957510857
 20
-1.788023130949618
 10
-4.1934233152426046
 20
-1.580462219932665
 10
-3.883902658462937
 20
-1.3523769445089331
 10
-3.577692383039206
 20
-1.108070800441135
 10
-3.2787649465985278
 20
-0.8518472834919848
 10
-2.9871203491408989
 20
-0.5837063936614815
 10
-2.702758590666313
 20
-0.3036481309496253
 10
-2.261906174343117
 20
0.1662960691918727
 10
-2.2302997216716882
 20
1.182355853242822
 10
-2.1730975737171652
 20
2.2810976317622358
 10
-2.1260901584629361
 20
2.9895192419317409
 10
-2.0698136754120959
 20
3.7164789876944582
 10
-2.004268124564641
 20
4.4619768690503934
 10
-1.92945350592057
 20
5.2260128859995518
 10
-1.841728399988362
 20
5.9970007037961546
 10
-1.737451387276497
 20
6.7633539876944582
 10
-1.616622467784975
 20
7.5250727376944573
 10
-1.479241641513795
 20
8.2821569537961466
 10
-1.3243157940561709
 20
9.0283169114232713
 10
-1.150851811005321
 20
9.7572628859995412
 10
-0.9588496923612477
 20
10.46899487752497
 10
-0.7483094381239539
 20
11.16351288599955
 10
-0.6354254338866722
 20
11.501337303372431
 10
-0.5165827432087093
 20
11.82889953854192
 10
-0.3917813660900661
 20
12.146199591508021
 10
-0.2610213025307431
 20
12.45323746227074
 10
-0.124302552530741
 20
12.75001315083006
 10
0.0183748839099396
 20
13.036526657185989
 10
0.1670110067912979
 20
13.31277798133854
 10
0.3216058161133333
 20
13.57876712328769
 10
0.4825731095455362
 20
13.83292165188938
 10
0.6503266847573981
 20
14.073669135999539
 10
0.8248665417489195
 20
14.301009575618179
 10
1.0061926805201009
 20
14.514942970745301
 10
1.194305101070944
 20
14.71546932138089
 10
1.389203803401448
 20
14.90258862752496
 10
1.590888787511614
 20
15.076300889177499
 10
1.7993600534014429
 20
15.23660610633851
 10
2.0151969178082241
 20
15.38060769532157
 10
2.2389786974692441
 20
15.505409072440219
 10
2.470705392384501
 20
15.611010237694471
 10
2.7103770025539968
 20
15.697411191084299
 10
2.9579935279777301
 20
15.76461193260972
 10
3.213554968655699
 20
15.81261246227074
 10
3.4770613245879041
 20
15.841412780067349
 10
3.748512595774343
 20
15.85101288599955
 10
4.0216190576387429
 20
15.840419665660569
 10
4.2689045449268761
 20
15.80864000464361
 10
4.4903690576387429
 20
15.755673902948701
 10
4.6860125957743426
 20
15.681521360575831
 10
4.859476578825185
 20
15.588168606338529
 10
5.014402426282814
 20
15.477601869050391
 10
5.150790138147225
 20
15.349821148711399
 10
5.2686397144184127
 20
15.20482644532157
 10
5.3689442695031584
 20
15.04361087328768
 10
5.4526969178082432
 20
14.867167547016489
 10
5.5198976593336653
 20
14.675496466508021
 10
5.5705464940794229
 20
14.468597631762259
 10
5.6076227652658703
 20
14.247795195321579
 10
5.6341058161133262
 20
14.01441330972836
 10
5.6499956466217958
 20
13.76845197498259
 10
5.6552922567912836
 20
13.50991119108429
 10
5.641388655096371
 20
13.10736881820293
 10
5.5996778500116271
 20
12.68364000464361
 10
5.530159841537051
 20
12.23872475040632
 10
5.4328346296726409
 20
11.772623055491071
 10
5.3126677864523106
 20
11.29129360633852
 10
5.1746248839099387
 20
10.800695089389359
 10
5.0187059220455268
 20
10.3008275046436
 10
4.8449109008590767
 20
9.791690852101226
 10
4.6558881254353572
 20
9.2762644749825824
 10
4.4542859008590909
 20
8.7575277165080117
 10
4.2401042271302778
 20
8.2354805766775065
 10
4.0133431042489178
 20
7.7101230554910671
 10
3.5419447991641628
 20
6.6719874622707316
 10
3.0599532737404331
 20
5.6656315300673441
 10
2.5766375957743359
 20
4.702972631762254
 10
2.101266833062482
 20
3.795928140236839
 10
1.2696990364522951
 20
2.2493179707452948
 10
1.4815634432319771
 20
2.101012885999523
 10
1.942368527977735
 20
2.694233224982586
 10
2.4561397144184132
 20
3.3298264453215718
 10
2.7289151381472259
 20
3.652588627524965
 10
3.0069871720455299
 20
3.9640955131181879
 10
3.2903558161133279
 20
4.264347102101242
 10
3.57902107035062
 20
4.5533433944741262
 10
3.8700035915370541
 20
4.8247946656605674
 10
4.1603240364523089
 20
5.0724111910842957
 10
4.4499824050963808
 20
5.296192970745313
 10
4.738978697469264
 20
5.4961400046436211
 10
4.8822354506472294
 20
5.5842789082453086
 10
5.0233404559438384
 20
5.6606659580334409
 10
5.1622937133590927
 20
5.7253011540080134
 10
5.2990952228929906
 20
5.778184496169029
 10
5.4337449845455339
 20
5.8193159845164857
 10
5.5662429983167234
 20
5.8486956190503836
 10
5.6965892642065556
 20
5.8663233997707236
 10
5.8247837822150359
 20
5.872199326677503
 10
5.959847341537067
 20
5.860281953796143
 10
6.1108007313675614
 20
5.8245298351520773
 10
6.1892567695031619
 20
5.7957295173554702
 10
6.2657265788251983
 20
5.7569980554910636
 10
6.3402101593336688
 20
5.7083354495588594
 10
6.4127075110285716
 20
5.6497416995588594
 10
6.4812324050963737
 20
5.5798926529486899
 10
6.5437986127234993
 20
5.497464157185977
 10
6.6004061339099431
 20
5.4024562122707227
 10
6.6510549686556999
 20
5.2948688182029287
 10
6.6927657737404509
 20
5.1727157461690334
 10
6.7225592059438419
 20
5.0340107673554719
 10
6.7404352652658748
 20
4.8787538817622487
 10
6.7463939517065512
 20
4.7069450893893654
 10
6.7338145025540097
 20
4.3490928648130911
 10
6.6960761550963817
 20
3.9958751741351262
 10
6.6331789093336653
 20
3.6472920173554702
 10
6.5451227652658588
 20
3.3033433944741262
 10
6.3345825110285823
 20
2.6200806826097112
 10
6.1055041211980674
 20
1.936817970745295
 10
5.8777498839099422
 20
1.2469344961690221
 10
5.6711820872997691
 20
0.5438094961690183
 10
5.5854432101811202
 20
0.1849641571859642
 10
5.524201155096371
 20
-0.1818260970513244
 10
5.4874559220455206
 20
-0.5565612665428499
 10
5.4752075110285716
 20
-0.9392413512886151
 10
5.4831524262828131
 20
-1.14051253772929
 10
5.5069871720455339
 20
-1.320597283491995
 10
5.5467117483167288
 20
-1.479495588576734
 10
5.6023261550963923
 20
-1.617207452983507
 10
5.6705200110285929
 20
-1.7284362665428421
 10
5.7479829347574034
 20
-1.80788541908522
 10
5.7901902970455357
 20
-1.835692622475052
 10
5.8347149262828211
 20
-1.8555549106106459
 10
5.8815568224692587
 20
-1.8674722834920019
 10
5.9307159856048486
 20
-1.87144474111912
 10
6.0598208584862006
 20
-1.8648239784072549
 10
6.1928981889946746
 20
-1.8449616902716599
 10
6.3299479771302707
 20
-1.811857876712335
 10
6.4709702228929871
 20
-1.7655125377292791
 10
6.7569871720455366
 20
-1.643690503830971
 10
7.0430041211980674
 20
-1.4900888089157149
 10
7.3263727652658686
 20
-1.3086799106106319
 10
7.6044447991641846
 20
-1.103436266542843
 10
7.837510732697595
 20
-0.9116970771670268
 10
8.0577706577925028
 20
-0.7130841667195398
 10
8.0196396597037349
 20
-0.2872871329285509
 10
8.006987172045541
 20
0.1412671232876619
 10
8.0124493012828282
 20
0.4301806561266427
 10
8.0288356889946932
 20
0.714294135999523
 10
8.0561463351811309
 20
0.9936075629063021
 10
8.0943812398421464
 20
1.2681209368469799
 10
8.1435404029777381
 20
1.537834257821556
 10
8.2036238245879076
 20
1.802747525830031
 10
8.2746315046726533
 20
2.0628607408724031
 10
8.3565634432319769
 20
2.3181739029486721
 10
8.4486748044607918
 20
2.5669490618469841
 10
8.5502207525540115
 20
2.8074482673554622
 10
8.6612012875116395
 20
3.039671519474108
 10
8.7816164093336724
 20
3.263618818202922
 10
8.9114661180201153
 20
3.4792901635419038
 10
9.0507504135709631
 20
3.686685555491056
 10
9.199469295986221
 20
3.8858049940503769
 10
9.3576227652658872
 20
4.0766484792198696
 10
9.5250453023421553
 20
4.2583884156605487
 10
9.7015713881472365
 20
4.4301972080334302
 10
9.8872010226811327
 20
4.5920748563385159
 10
10.08193420594384
 20
4.7440213605758039
 10
10.28577093793537
 20
4.886036720745297
 10
10.4987112186557
 20
5.0181209368469926
 10
10.720755048104859
 20
5.1402740088808931
 10
10.95190242628283
 20
5.2524959368469979
 10
11.191242998316721
 20
5.3530487705334417
 10
11.437866409333671
 20
5.440194559728357
 10
11.691772659333671
 20
5.5139333044317453
 10
11.952961748316721
 20
5.5742650046436069
 10
12.221433676282819
 20
5.6211896603639424
 10
12.49718844323197
 20
5.6547072715927529
 10
12.78022604916417
 20
5.6748178383300383
 10
13.070546494079419
 20
5.6815213605758004
 10
13.32014924831671
 20
5.6766385480758013
 10
13.56577954492689
 20
5.6619901105758021
 10
13.80743738390994
 20
5.6375760480758039
 10
14.04512276526588
 20
5.6033963605758039
 10
14.27883568899469
 20
5.5594510480758048
 10
14.508576155096391
 20
5.5057401105758039
 10
14.73434416357096
 20
5.442263548075803
 10
14.956139714418409
 20
5.3690213605758004
 10
15.388806557638761
 20
5.19952983515208
 10
15.807569799164179
 20
5.003555258880894
 10
16.21242943899469
 20
4.7810976317622478
 10
16.603385477130271
 20
4.5321569537961466
 10
16.894731644047091
 20
4.3248741993251079
 10
17.178197357483121
 20
4.1061844381360686
 10
17.453731092611591
 20
3.8760326100593629
 10
17.721281324605741
 20
3.6343636549253229
 10
17.73156344323198
 20
3.7270722080334342
 10
17.80836429068961
 20
4.2848714665080152
 10
17.901054968655721
 20
4.8512777165080188
 10
18.009635477130288
 20
5.4262909580334426
 10
18.13410581611333
 20
6.0099111910842851
 10
18.272810794926901
 20
6.5984969961690236
 10
18.424095222893008
 20
7.1884069537961386
 10
18.587959100011648
 20
7.7796410639656326
 10
18.764402426282832
 20
8.372199326677503
 10
18.95309416357097
 20
8.9594609792198803
 10
19.153703273740462
 20
9.5348052588808976
 10
19.366229756791309
 20
10.09823216566055
 10
19.590673612723521
 20
10.649741699558859
 10
19.826041727130299
 20
11.18635451735547
 10
20.07134098560487
 20
11.70509127583005
 10
20.326571388147229
 20
12.20595197498259
 10
20.591732934757399
 20
12.68893661481312
 10
20.86517043475741
 20
13.147755470745309
 10
21.145228697469271
 20
13.576118818202939
 10
21.431907722893001
 20
13.974026657185989
 10
21.7252075110286
 20
14.341478987694471
 10
21.874340191113351
 20
14.51287398239786
 10
22.02512806187606
 20
14.674834390236841
 10
22.177571123316739
 20
14.82736021121142
 10
22.331669375435379
 20
14.970451445321579
 10
22.48742281823198
 20
15.104108092567341
 10
22.644831451706558
 20
15.228330152948701
 10
22.803895275859102
 20
15.34311762646565
 10
22.96461429068961
 20
15.448470513118201
 10
23.1264919389947
 20
15.542816381762259
 10
23.28903166357097
 20
15.62458280125378
 10
23.45223346441843
 20
15.693769771592761
 10
23.616097341537081
 20
15.750377292779209
 10
23.780623294926912
 20
15.794405364813111
 10
23.945811324587929
 20
15.825853987694471
 10
24.11166143052013
 20
15.84472316142328
  0
ENDSEC
  0
SECTION
  2
OBJECTS
  0
DICTIONARY
  5
C
100
AcDbDictionary
280
0
281
1
  3
ACAD_GROUP
350
D
  3
ACAD_LAYOUT
350
1A
  3
ACAD_MLINESTYLE
350
17
  3
ACAD_PLOTSETTINGS
350
19
  3
ACAD_PLOTSTYLENAME
350
E
  3
AcDbVariableDictionary
350
4A
  0
DICTIONARY
  5
D
100
AcDbDictionary
280
0
281
1
  0
ACDBDICTIONARYWDFLT
  5
E
100
AcDbDictionary
281
1
  3
Normal
350
F
100
AcDbDictionaryWithDefault
340
F
  0
ACDBPLACEHOLDER
  5
F
  0
DICTIONARY
  5
17
100
AcDbDictionary
280
0
281
1
  3
Standard
350
18
  0
MLINESTYLE
  5
18
100
AcDbMlineStyle
  2
STANDARD
 70
0
  3

 62
256
 51
90.0
 52
90.0
 71
2
 49
0.5
 62
256
  6
BYLAYER
 49
-0.5
 62
256
  6
BYLAYER
  0
DICTIONARY
  5
19
100
AcDbDictionary
280
0
281
1
  0
DICTIONARY
  5
1A
100
AcDbDictionary
281
1
  3
Layout1
350
1E
  3
Layout2
350
26
  3
Model
350
22
  0
LAYOUT
  5
1E
100
AcDbPlotSettings
  1

  2
C:\Program Files\AutoCAD 2002\plotters\DWF ePlot (optimized for plotting).pc3
  4

  6

 40
0.0
 41
0.0
 42
0.0
 43
0.0
 44
0.0
 45
0.0
 46
0.0
 47
0.0
 48
0.0
 49
0.0
140
0.0
141
0.0
142
1.0
143
1.0
 70
688
 72
0
 73
0
 74
5
  7

 75
16
147
1.0
148
0.0
149
0.0
100
AcDbLayout
  1
Layout1
 70
1
 71
1
 10
0.0
 20
0.0
 11
420.0
 21
297.0
 12
0.0
 22
0.0
 32
0.0
 14
100000000000000000000.0
 24
100000000000000000000.0
 34
100000000000000000000.0
 15
-100000000000000000000.0
 25
-100000000000000000000.0
 35
-100000000000000000000.0
146
0.0
 13
0.0
 23
0.0
 33
0.0
 16
1.0
 26
0.0
 36
0.0
 17
0.0
 27
1.0
 37
0.0
 76
0
330
1B
  0
LAYOUT
  5
22
100
AcDbPlotSettings
  1

  2
C:\Program Files\AutoCAD 2002\plotters\DWF ePlot (optimized for plotting).pc3
  4

  6

 40
0.0
 41
0.0
 42
0.0
 43
0.0
 44
0.0
 45
0.0
 46
0.0
 47
0.0
 48
0.0
 49
0.0
140
0.0
141
0.0
142
1.0
143
1.0
 70
1712
 72
0
 73
0
 74
0
  7

 75
0
147
1.0
148
0.0
149
0.0
100
AcDbLayout
  1
Model
 70
1
 71
0
 10
0.0
 20
0.0
 11
12.0
 21
9.0
 12
0.0
 22
0.0
 32
0.0
 14
0.0
 24
0.0
 34
0.0
 15
0.0
 25
0.0
 35
0.0
146
0.0
 13
0.0
 23
0.0
 33
0.0
 16
1.0
 26
0.0
 36
0.0
 17
0.0
 27
1.0
 37
0.0
 76
0
330
1F
  0
LAYOUT
  5
26
100
AcDbPlotSettings
  1

  2
C:\Program Files\AutoCAD 2002\plotters\DWF ePlot (optimized for plotting).pc3
  4

  6

 40
0.0
 41
0.0
 42
0.0
 43
0.0
 44
0.0
 45
0.0
 46
0.0
 47
0.0
 48
0.0
 49
0.0
140
0.0
141
0.0
142
1.0
143
1.0
 70
688
 72
0
 73
0
 74
5
  7

 75
16
147
1.0
148
0.0
149
0.0
100
AcDbLayout
  1
Layout2
 70
1
 71
2
 10
0.0
 20
0.0
 11
12.0
 21
9.0
 12
0.0
 22
0.0
 32
0.0
 14
0.0
 24
0.0
 34
0.0
 15
0.0
 25
0.0
 35
0.0
146
0.0
 13
0.0
 23
0.0
 33
0.0
 16
1.0
 26
0.0
 36
0.0
 17
0.0
 27
1.0
 37
0.0
 76
0
330
23
  0
DICTIONARY
  5
4A
100
AcDbDictionary
281
1
  3
DIMASSOC
350
4C
  3
HIDETEXT
350
4B
  0
DICTIONARYVAR
  5
4B
100
DictionaryVariables
280
0
  1
2
  0
DICTIONARYVAR
  5
4C
100
DictionaryVariables
280
0
  1
1
  0
ENDSEC
  0
EOF
