999
dxflib 2.0.4.8
  0
SECTION
  2
HEADER
  9
$ACADVER
  1
AC1015
  9
$HANDSEED
  5
FFFF
  9
$USERR4
 40
0.0
  9
$DIMTAD
 70
0
  9
$VISRETAIN
 70
1
  9
$TILEMODE
 70
1
  9
$SHADEDIF
 70
70
  9
$USERR5
 40
0.0
  9
$UCSYDIR
 10
0.0
 20
1.0
 30
0.0
  9
$ATTREQ
 70
1
  9
$CHAMFERA
 40
0.5
  9
$MENU
  1
.
  9
$CLAYER
  8
0
  9
$UCSXDIR
 10
1.0
 20
0.0
 30
0.0
  9
$CHAMFERB
 40
0.5
  9
$DIMASZ
 40
0.18
  9
$TRACEWID
 40
0.05
  9
$REGENMODE
 70
1
  9
$ORTHOMODE
 70
0
  9
$EXTMIN
 10
-31.794459081840369
 20
-5.3264554549649787
 30
0.0
  9
$PUCSYDIR
 10
0.0
 20
1.0
 30
0.0
  9
$ANGBASE
 50
0.0
  9
$USRTIMER
 70
1
  9
$SKETCHINC
 40
0.1
  9
$DIMGAP
 40
0.09
  9
$DIMTFAC
 40
1.0
  9
$DIMSAH
 70
0
  9
$DIMALT
 70
0
  9
$DIMSHO
 70
1
  9
$PUCSXDIR
 10
1.0
 20
0.0
 30
0.0
  9
$SURFTYPE
 70
6
  9
$SPLFRAME
 70
0
  9
$DIMTSZ
 40
0.0
  9
$LIMMIN
 10
0.0
 20
0.0
  9
$SURFTAB1
 70
6
  9
$SPLINESEGS
 70
8
  9
$AUPREC
 70
0
  9
$LUNITS
 70
2
  9
$DWGCODEPAGE
  3
ansi_1252
  9
$UNITMODE
 70
0
  9
$USERI1
 70
0
  9
$SURFTAB2
 70
6
  9
$SKPOLY
 70
0
  9
$ELEVATION
 40
0.0
  9
$DIMCEN
 40
0.09
  9
$DIMRND
 40
0.0
  9
$INSBASE
 10
0.0
 20
0.0
 30
0.0
  9
$USERI2
 70
0
  9
$UCSORG
 10
0.0
 20
0.0
 30
0.0
  9
$PELEVATION
 40
0.0
  9
$DIMEXO
 40
0.0625
  9
$TEXTSIZE
 40
0.2
  9
$DRAGMODE
 70
2
  9
$FILLMODE
 70
1
  9
$EXTMAX
 10
36.065710409685053
 20
16.368459799272319
 30
0.0
  9
$INSUNITS
 70
4
  9
$USERI3
 70
0
  9
$SURFU
 70
6
  9
$ANGDIR
 70
0
  9
$TDUSRTIMER
 40
0.0000000116
  9
$DIMZIN
 70
0
  9
$DIMDLE
 40
0.0
  9
$DIMSCALE
 40
1.0
  9
$WORLDVIEW
 70
1
  9
$USERI4
 70
0
  9
$SURFV
 70
6
  9
$OSMODE
 70
37
  9
$QTEXTMODE
 70
0
  9
$LIMMAX
 10
12.0
 20
9.0
  9
$USERI5
 70
0
  9
$HANDLING
 70
1
  9
$PDMODE
 70
0
  9
$LIMCHECK
 70
0
  9
$THICKNESS
 40
0.0
  9
$DIMSE1
 70
0
  9
$DIMLIM
 70
0
  9
$DIMTXT
 40
0.18
  9
$ATTMODE
 70
1
  9
$PEXTMAX
 10
-100000000000000000000.0
 20
-100000000000000000000.0
 30
-100000000000000000000.0
  9
$PEXTMIN
 10
100000000000000000000.0
 20
100000000000000000000.0
 30
100000000000000000000.0
  9
$PUCSORG
 10
0.0
 20
0.0
 30
0.0
  9
$SPLINETYPE
 70
6
  9
$TDINDWG
 40
0.0000000116
  9
$LUPREC
 70
4
  9
$DIMSOXD
 70
0
  9
$DIMLFAC
 40
1.0
  9
$DIMSE2
 70
0
  9
$DIMTOH
 70
1
  9
$CELTYPE
  6
BYLAYER
  9
$PLIMCHECK
 70
0
  9
$PLINEWID
 40
0.0
  9
$DIMSTYLE
  2
STANDARD
  9
$DIMTVP
 40
0.0
  9
$DIMASO
 70
1
  9
$DIMTM
 40
0.0
  9
$DIMDLI
 40
0.38
  9
$CECOLOR
 62
256
  9
$PLIMMAX
 10
12.0
 20
9.0
  9
$PLIMMIN
 10
0.0
 20
0.0
  9
$MAXACTVP
 70
64
  9
$TDUPDATE
 40
2456264.6668755789
  9
$FILLETRAD
 40
0.5
  9
$DIMCLRT
 70
0
  9
$DIMALTD
 70
2
  9
$DIMTIH
 70
1
  9
$LTSCALE
 40
1.0
  9
$USERR1
 40
0.0
  9
$ATTDIA
 70
0
  9
$PDSIZE
 40
0.0
  9
$DIMCLRD
 70
0
  9
$DIMEXE
 40
0.18
  9
$PSLTSCALE
 70
1
  9
$PLINEGEN
 70
0
  9
$SHADEDGE
 70
3
  9
$USERR2
 40
0.0
  9
$COORDS
 70
1
  9
$TDCREATE
 40
2454910.5
  9
$DIMCLRE
 70
0
  9
$DIMTOFL
 70
0
  9
$DIMALTF
 40
25.399999999999999
  9
$DIMTOL
 70
0
  9
$DIMTP
 40
0.0
  9
$TEXTSTYLE
  7
STANDARD
  9
$USERR3
 40
0.0
  9
$AUNITS
 70
0
  9
$DIMTIX
 70
0
  9
$MIRRTEXT
 70
1
  0
ENDSEC
  0
SECTION
  2
TABLES
  0
TABLE
  2
VPORT
  5
8
100
AcDbSymbolTable
 70
1
  0
VPORT
  5
30
100
AcDbSymbolTableRecord
100
AcDbViewportTableRecord
  2
*Active
 70
0
 10
0.0
 20
0.0
 11
1.0
 21
1.0
 12
286.30555555555549
 22
148.5
 13
0.0
 23
0.0
 14
10.0
 24
10.0
 15
10.0
 25
10.0
 16
0.0
 26
0.0
 36
1.0
 17
0.0
 27
0.0
 37
0.0
 40
297.0
 41
1.92798353909465
 42
50.0
 43
0.0
 44
0.0
 50
0.0
 51
0.0
 71
0
 72
100
 73
1
 74
3
 75
1
 76
1
 77
0
 78
0
281
0
 65
1
110
0.0
120
0.0
130
0.0
111
1.0
121
0.0
131
0.0
112
0.0
122
1.0
132
0.0
 79
0
146
0.0
  0
ENDTAB
  0
TABLE
  2
LTYPE
  5
5
100
AcDbSymbolTable
 70
21
  0
LTYPE
  5
14
100
AcDbSymbolTableRecord
100
AcDbLinetypeTableRecord
  2
ByBlock
 70
0
  3

 72
65
 73
0
 40
0.0
  0
LTYPE
  5
15
100
AcDbSymbolTableRecord
100
AcDbLinetypeTableRecord
  2
ByLayer
 70
0
  3

 72
65
 73
0
 40
0.0
  0
LTYPE
  5
16
100
AcDbSymbolTableRecord
100
AcDbLinetypeTableRecord
  2
CONTINUOUS
 70
0
  3
Solid line
 72
65
 73
0
 40
0.0
  0
LTYPE
  5
31
100
AcDbSymbolTableRecord
100
AcDbLinetypeTableRecord
  2
DOT
 70
0
  3
Dot . . . . . . . . . . . . . . . . . . . . . .
 72
65
 73
2
 40
6.3499999999999996
 49
0.0
 74
0
 49
-6.3499999999999996
 74
0
  0
LTYPE
  5
32
100
AcDbSymbolTableRecord
100
AcDbLinetypeTableRecord
  2
DOT2
 70
0
  3
Dot (.5x) .....................................
 72
65
 73
2
 40
3.1749999999999998
 49
0.0
 74
0
 49
-3.1749999999999998
 74
0
  0
LTYPE
  5
33
100
AcDbSymbolTableRecord
100
AcDbLinetypeTableRecord
  2
DOTX2
 70
0
  3
Dot (2x) .  .  .  .  .  .  .  .  .  .  .  .  .
 72
65
 73
2
 40
12.699999999999999
 49
0.0
 74
0
 49
-12.699999999999999
 74
0
  0
LTYPE
  5
34
100
AcDbSymbolTableRecord
100
AcDbLinetypeTableRecord
  2
DASHED
 70
0
  3
Dashed __ __ __ __ __ __ __ __ __ __ __ __ __ _
 72
65
 73
2
 40
19.050000000000001
 49
12.699999999999999
 74
0
 49
-6.3499999999999996
 74
0
  0
LTYPE
  5
35
100
AcDbSymbolTableRecord
100
AcDbLinetypeTableRecord
  2
DASHED2
 70
0
  3
Dashed (.5x) _ _ _ _ _ _ _ _ _ _ _ _ _ _ _ _ _
 72
65
 73
2
 40
9.5250000000000004
 49
6.3499999999999996
 74
0
 49
-3.1749999999999998
 74
0
  0
LTYPE
  5
36
100
AcDbSymbolTableRecord
100
AcDbLinetypeTableRecord
  2
DASHEDX2
 70
0
  3
Dashed (2x) ____  ____  ____  ____  ____  ___
 72
65
 73
2
 40
38.100000000000001
 49
25.399999999999999
 74
0
 49
-12.699999999999999
 74
0
  0
LTYPE
  5
37
100
AcDbSymbolTableRecord
100
AcDbLinetypeTableRecord
  2
DASHDOT
 70
0
  3
Dash dot __ . __ . __ . __ . __ . __ . __ . __
 72
65
 73
4
 40
25.399999999999999
 49
12.699999999999999
 74
0
 49
-6.3499999999999996
 74
0
 49
0.0
 74
0
 49
-6.3499999999999996
 74
0
  0
LTYPE
  5
38
100
AcDbSymbolTableRecord
100
AcDbLinetypeTableRecord
  2
DASHDOT2
 70
0
  3
Dash dot (.5x) _._._._._._._._._._._._._._._.
 72
65
 73
4
 40
12.699999999999999
 49
6.3499999999999996
 74
0
 49
-3.1749999999999998
 74
0
 49
0.0
 74
0
 49
-3.1749999999999998
 74
0
  0
LTYPE
  5
39
100
AcDbSymbolTableRecord
100
AcDbLinetypeTableRecord
  2
DASHDOTX2
 70
0
  3
Dash dot (2x) ____  .  ____  .  ____  .  ___
 72
65
 73
4
 40
50.799999999999997
 49
25.399999999999999
 74
0
 49
-12.699999999999999
 74
0
 49
0.0
 74
0
 49
-12.699999999999999
 74
0
  0
LTYPE
  5
3A
100
AcDbSymbolTableRecord
100
AcDbLinetypeTableRecord
  2
DIVIDE
 70
0
  3
Divide ____ . . ____ . . ____ . . ____ . . ____
 72
65
 73
6
 40
31.75
 49
12.699999999999999
 74
0
 49
-6.3499999999999996
 74
0
 49
0.0
 74
0
 49
-6.3499999999999996
 74
0
 49
0.0
 74
0
 49
-6.3499999999999996
 74
0
  0
LTYPE
  5
3B
100
AcDbSymbolTableRecord
100
AcDbLinetypeTableRecord
  2
DIVIDE2
 70
0
  3
Divide (.5x) __..__..__..__..__..__..__..__.._
 72
65
 73
6
 40
15.875
 49
6.3499999999999996
 74
0
 49
-3.1749999999999998
 74
0
 49
0.0
 74
0
 49
-3.1749999999999998
 74
0
 49
0.0
 74
0
 49
-3.1749999999999998
 74
0
  0
LTYPE
  5
3C
100
AcDbSymbolTableRecord
100
AcDbLinetypeTableRecord
  2
DIVIDEX2
 70
0
  3
Divide (2x) ________  .  .  ________  .  .  _
 72
65
 73
6
 40
63.5
 49
25.399999999999999
 74
0
 49
-12.699999999999999
 74
0
 49
0.0
 74
0
 49
-12.699999999999999
 74
0
 49
0.0
 74
0
 49
-12.699999999999999
 74
0
  0
LTYPE
  5
3D
100
AcDbSymbolTableRecord
100
AcDbLinetypeTableRecord
  2
CENTER
 70
0
  3
Center ____ _ ____ _ ____ _ ____ _ ____ _ ____
 72
65
 73
4
 40
50.799999999999997
 49
31.75
 74
0
 49
-6.3499999999999996
 74
0
 49
6.3499999999999996
 74
0
 49
-6.3499999999999996
 74
0
  0
LTYPE
  5
3E
100
AcDbSymbolTableRecord
100
AcDbLinetypeTableRecord
  2
CENTER2
 70
0
  3
Center (.5x) ___ _ ___ _ ___ _ ___ _ ___ _ ___
 72
65
 73
4
 40
28.574999999999999
 49
19.050000000000001
 74
0
 49
-3.1749999999999998
 74
0
 49
3.1749999999999998
 74
0
 49
-3.1749999999999998
 74
0
  0
LTYPE
  5
3F
100
AcDbSymbolTableRecord
100
AcDbLinetypeTableRecord
  2
CENTERX2
 70
0
  3
Center (2x) ________  __  ________  __  _____
 72
65
 73
4
 40
101.59999999999999
 49
63.5
 74
0
 49
-12.699999999999999
 74
0
 49
12.699999999999999
 74
0
 49
-12.699999999999999
 74
0
  0
LTYPE
  5
40
100
AcDbSymbolTableRecord
100
AcDbLinetypeTableRecord
  2
BORDER
 70
0
  3
Border __ __ . __ __ . __ __ . __ __ . __ __ .
 72
65
 73
6
 40
44.450000000000003
 49
12.699999999999999
 74
0
 49
-6.3499999999999996
 74
0
 49
12.699999999999999
 74
0
 49
-6.3499999999999996
 74
0
 49
0.0
 74
0
 49
-6.3499999999999996
 74
0
  0
LTYPE
  5
41
100
AcDbSymbolTableRecord
100
AcDbLinetypeTableRecord
  2
BORDER2
 70
0
  3
Border (.5x) __.__.__.__.__.__.__.__.__.__.__.
 72
65
 73
6
 40
22.225000000000001
 49
6.3499999999999996
 74
0
 49
-3.1749999999999998
 74
0
 49
6.3499999999999996
 74
0
 49
-3.1749999999999998
 74
0
 49
0.0
 74
0
 49
-3.1749999999999998
 74
0
  0
LTYPE
  5
42
100
AcDbSymbolTableRecord
100
AcDbLinetypeTableRecord
  2
BORDERX2
 70
0
  3
Border (2x) ____  ____  .  ____  ____  .  ___
 72
65
 73
6
 40
88.900000000000006
 49
25.399999999999999
 74
0
 49
-12.699999999999999
 74
0
 49
25.399999999999999
 74
0
 49
-12.699999999999999
 74
0
 49
0.0
 74
0
 49
-12.699999999999999
 74
0
  0
ENDTAB
  0
TABLE
  2
LAYER
  5
2
100
AcDbSymbolTable
 70
2
  0
LAYER
  5
10
100
AcDbSymbolTableRecord
100
AcDbLayerTableRecord
  2
0
 70
0
 62
7
  6
CONTINUOUS
390
F
  0
LAYER
  5
43
100
AcDbSymbolTableRecord
100
AcDbLayerTableRecord
  2
LAYER_1
 70
0
 62
18
  6
CONTINUOUS
390
F
  0
ENDTAB
  0
TABLE
  2
STYLE
  5
3
100
AcDbSymbolTable
 70
1
  0
STYLE
  5
11
100
AcDbSymbolTableRecord
100
AcDbTextStyleTableRecord
  2
Standard
 70
0
 40
0.0
 41
0.75
 50
0.0
 71
0
 42
2.5
  3
txt
  4

  0
ENDTAB
  0
TABLE
  2
VIEW
  5
6
100
AcDbSymbolTable
 70
0
  0
ENDTAB
  0
TABLE
  2
UCS
  5
7
100
AcDbSymbolTable
 70
0
  0
ENDTAB
  0
TABLE
  2
APPID
  5
9
100
AcDbSymbolTable
 70
1
  0
APPID
  5
12
100
AcDbSymbolTableRecord
100
AcDbRegAppTableRecord
  2
ACAD
 70
0
  0
ENDTAB
  0
TABLE
  2
DIMSTYLE
  5
A
100
AcDbSymbolTable
 70
1
100
AcDbDimStyleTable
 71
0
  0
DIMSTYLE
105
27
100
AcDbSymbolTableRecord
100
AcDbDimStyleTableRecord
  2
Standard
 41
0.18
 42
0.0625
 43
3.75
 44
0.18
 70
0
 73
0
 74
0
 77
1
 78
8
140
0.18
141
2.5
143
0.03937007874016
147
0.09
171
3
172
1
271
2
272
2
274
3
278
44
283
0
284
8
340
11
  0
ENDTAB
  0
TABLE
  2
BLOCK_RECORD
  5
1
100
AcDbSymbolTable
 70
1
  0
BLOCK_RECORD
  5
1F
100
AcDbSymbolTableRecord
100
AcDbBlockTableRecord
  2
*Model_Space
340
22
  0
BLOCK_RECORD
  5
1B
100
AcDbSymbolTableRecord
100
AcDbBlockTableRecord
  2
*Paper_Space
340
1E
  0
BLOCK_RECORD
  5
23
100
AcDbSymbolTableRecord
100
AcDbBlockTableRecord
  2
*Paper_Space0
340
26
  0
ENDTAB
  0
ENDSEC
  0
SECTION
  2
BLOCKS
  0
BLOCK
  5
20
100
AcDbEntity
  8
0
100
AcDbBlockBegin
  2
*Model_Space
 70
0
 10
0.0
 20
0.0
 30
0.0
  3
*Model_Space
  1

  0
ENDBLK
  5
21
100
AcDbEntity
  8
0
100
AcDbBlockEnd
  0
BLOCK
  5
1C
100
AcDbEntity
 67
1
  8
0
100
AcDbBlockBegin
  2
*Paper_Space
 70
0
 10
0.0
 20
0.0
 30
0.0
  3
*Paper_Space
  1

  0
ENDBLK
  5
1D
100
AcDbEntity
 67
1
  8
0
100
AcDbBlockEnd
  0
BLOCK
  5
24
100
AcDbEntity
  8
0
100
AcDbBlockBegin
  2
*Paper_Space0
 70
0
 10
0.0
 20
0.0
 30
0.0
  3
*Paper_Space0
  1

  0
ENDBLK
  5
25
100
AcDbEntity
  8
0
100
AcDbBlockEnd
  0
ENDSEC
  0
SECTION
  2
ENTITIES
  0
LWPOLYLINE
  5
44
  8
LAYER_1
 62
256
370
-1
  6
ByLayer
100
AcDbEntity
100
AcDbPolyline
 90
58
 70
1
 10
-13.13979806489121
 20
-0.5383198617446392
 10
-13.130528997094601
 20
-0.7991779125920968
 10
-13.10272179370477
 20
-1.052091048185317
 10
-13.08054223862003
 20
-1.1732510058124359
 10
-13.05107984455223
 20
-1.28779020072769
 10
-13.01433461150139
 20
-1.3957086329310791
 10
-12.970306539467479
 20
-1.497006302422605
 10
-12.918664590314931
 20
-1.5903590566598931
 10
-12.859077725908151
 20
-1.6744427431005711
 10
-12.79154594624714
 20
-1.749257361744639
 10
-12.7160692513319
 20
-1.8148029125920959
 10
-12.63132348862003
 20
-1.8681000524226039
 10
-12.53598450556918
 20
-1.9061694380158241
 10
-12.430052302179361
 20
-1.9290110693717559
 10
-12.31352687845054
 20
-1.9366249464904
 10
-12.216698223789519
 20
-1.9313283363209091
 10
-12.122186836077651
 20
-1.915438505812435
 10
-12.02999271531494
 20
-1.888955454964977
 10
-11.940115861501379
 20
-1.8518791837785371
 10
-11.85255627463698
 20
-1.804209692253113
 10
-11.767313954721731
 20
-1.7459469803887071
 10
-11.68438890175563
 20
-1.677091048185317
 10
-11.603781115738681
 20
-1.5976418956429439
 10
-11.45017942082341
 20
-1.419543378693791
 10
-11.30717094624714
 20
-1.224230878693791
 10
-11.17475569200986
 20
-1.011704395642945
 10
-11.05293365811155
 20
-0.7819639295412517
 10
-10.94203588268782
 20
-0.541630243100572
 10
-10.84239340387426
 20
-0.2973240990327746
 10
-10.75400622167086
 20
-0.0490454973378595
 10
-10.67687433607764
 20
0.2032055619841737
 10
-10.559024759806469
 20
0.6693072568994298
 10
-10.518969145399691
 20
0.8705784433401071
 10
-10.491492980145461
 20
1.0506631891028171
 10
-9.8453065394674866
 20
4.1650699687638344
 10
-10.06114340387426
 20
4.1514974052045126
 10
-10.274331963196291
 20
4.1107797145265472
 10
-10.48487221743358
 20
4.0429168967299356
 10
-10.69276416658612
 20
3.9479089518146822
 10
-10.896352619975961
 20
3.8297283374079019
 10
-11.093982386925109
 20
3.6923475111367159
 10
-11.28565346743359
 20
3.5357664730011229
 10
-11.47136586150139
 20
3.359985223001122
 10
-11.65045749285731
 20
3.1679831043570541
 10
-11.822266285230191
 20
2.9627394602892569
 10
-11.986792238620019
 20
2.7442542907977319
 10
-12.144035353026821
 20
2.512527595882478
 10
-12.29234043777258
 20
2.2712007950350208
 10
-12.430052302179361
 20
2.023915307746885
 10
-12.557170946247149
 20
1.770671134018073
 10
-12.673696369975969
 20
1.5114682738485821
 10
-12.778635458959011
 20
1.2489550323231571
 10
-12.870995098789511
 20
0.9857797145265457
 10
-12.950775289467479
 20
0.7219423204587485
 10
-13.01797603099291
 20
0.4574428501197654
 10
-13.07127317082341
 20
0.196584799272308
 10
-13.10934255641663
 20
-0.0563283363209122
 10
-13.132184187772561
 20
-0.3012965566598947
  0
LWPOLYLINE
  5
45
  8
LAYER_1
 62
256
370
-1
  6
ByLayer
100
AcDbEntity
100
AcDbPolyline
 90
56
 70
1
 10
9.1377443079901699
 20
4.0379513246960386
 10
8.9653561988799968
 20
3.9498124210943431
 10
8.7977681427359258
 20
3.854887235712988
 10
8.6349801395579568
 20
3.7531757685519711
 10
8.4769921893460918
 20
3.644678019611292
 10
8.323804292100327
 20
3.5293939888909529
 10
8.1754164478206626
 20
3.4073236763909529
 10
8.0318286565071038
 20
3.278467082111292
 10
7.8930409181596444
 20
3.1428242060519689
 10
7.631520791041007
 20
2.859124523848581
 10
7.3925112571427034
 20
2.5641695450350208
 10
7.1760123164647389
 20
2.257959269611292
 10
6.9820239690071189
 20
1.940493697577395
 10
6.8102151766342294
 20
1.6167384009672261
 10
6.6602549012104957
 20
1.291658951814683
 10
6.5321431427359178
 20
0.965255350119767
 10
6.4258799012104957
 20
0.6375275958824782
 10
6.3424582910410052
 20
0.3170826806282425
 10
6.2828714266342223
 20
0.0125275958824802
 10
6.2471193079901504
 20
-0.2761376583548082
 10
6.2352019351087931
 20
-0.5489130820836219
 10
6.247119307990153
 20
-0.7607774888632828
 10
6.2828714266342187
 20
-0.9726418956429437
 10
6.311671744430825
 20
-1.075925793948028
 10
6.3504032062952316
 20
-1.173913082083621
 10
6.3990658122274384
 20
-1.266603760049724
 10
6.4576595622274366
 20
-1.3539978278463349
 10
6.5278396469731979
 20
-1.4347711329310799
 10
6.6112612571426892
 20
-1.507599522761589
 10
6.7079243927359107
 20
-1.5724829973378609
 10
6.8178290537528623
 20
-1.6294215566598951
 10
6.9429614690071038
 20
-1.6757668956429459
 10
7.0853078673121948
 20
-1.7088707092022679
 10
7.2448682486681317
 20
-1.7287329973378609
 10
7.4216426130749111
 20
-1.735353760049726
 10
7.5166505579901628
 20
-1.729395073609048
 10
7.6109964266342294
 20
-1.7115190142870129
 10
7.7046802190071073
 20
-1.681725582083623
 10
7.7977019351087931
 20
-1.640014776998878
 10
7.9791108334138867
 20
-1.530110115981927
 10
8.1525748164647442
 20
-1.3910740990327739
 10
8.3180938842613354
 20
-1.226879183778538
 10
8.4756680368037056
 20
-1.0414978278463349
 10
8.6226489690071002
 20
-0.8415507939480293
 10
8.7563883757867647
 20
-0.633658844795487
 10
8.9013830791765969
 20
-0.3820698617446404
 10
9.039757019854564
 20
-0.1145910481853188
 10
9.1715101978206661
 20
0.1687775958824775
 10
9.2966426130749031
 20
0.4680360704587481
 10
9.267511257142699
 20
0.6600381891028182
 10
9.2436765113799826
 20
0.9394343755434955
 10
9.2118968503630416
 20
1.6597733585943431
 10
9.190710409685062
 20
2.4807479348655299
 10
9.1748205791766058
 20
3.2540530196112911
 10
9.1589307486681211
 20
3.8260869179163781
 10
9.1483375283291455
 20
3.9902818331706138
  0
LWPOLYLINE
  5
46
  8
LAYER_1
 62
256
370
-1
  6
ByLayer
100
AcDbEntity
100
AcDbPolyline
 90
49
 70
1
 10
14.11655786731219
 20
11.71803607045875
 10
14.16422735883762
 20
12.38276064672994
 10
14.180117189346101
 20
12.893883528085871
 10
14.173827464769831
 20
13.15805196028926
 10
14.154958291041011
 20
13.378523358594339
 10
14.123509668159651
 20
13.55529772300112
 10
14.079481596125749
 20
13.688375053509599
 10
14.0235361512105
 20
13.785700265374
 10
13.956335409685069
 20
13.85521827384858
 10
13.87787937154947
 20
13.896929078933329
 10
13.788168036803709
 20
13.910832680628239
 10
13.70441538849863
 20
13.90412915838248
 10
13.622648969007111
 20
13.884018591645191
 10
13.54286877832914
 20
13.850500980416379
 10
13.465074816464741
 20
13.80357632469604
 10
13.389267083413889
 20
13.74324462448417
 10
13.3154455791766
 20
13.669505879780781
 10
13.24361030375287
 20
13.582360090585871
 10
13.173761257142701
 20
13.48180725689943
 10
13.040021850363029
 20
13.252397828933329
 10
12.914227358837611
 20
12.993194968763831
 10
12.796377782566431
 20
12.70419867639095
 10
12.686473121549479
 20
12.38540895181468
 10
12.58385129951559
 20
12.043115519611289
 10
12.48785024019355
 20
11.683608104357051
 10
12.398469943583381
 20
11.306886706051969
 10
12.31571040968506
 20
10.91295132469604
 10
12.170053630024061
 20
10.121108104357051
 10
12.050879901210489
 20
9.3557479348655299
 10
11.955540918159651
 20
8.6407055619841735
 10
11.881388375786759
 20
7.9998157314756986
 10
11.7966426130749
 20
7.1417648840180696
 10
11.72778668087153
 20
6.1407055619841726
 10
11.69071040968506
 20
5.2614682738485818
 10
11.680117189346101
 20
4.5676123416451908
 10
11.680117189346101
 20
4.1121038670689209
 10
11.680117189346101
 20
4.0061716636790896
 10
11.97606528256644
 20
4.6940689094418007
 10
12.260096002905421
 20
5.3806420026621389
 10
12.53220935036304
 20
6.0658909433401051
 10
12.79240532493932
 20
6.7498157314756986
 10
13.221430748668119
 20
7.9733326806282427
 10
13.429322697820661
 20
8.6155466636790887
 10
13.618676511379981
 20
9.2604089518146822
 10
13.786843884261341
 20
9.9012987823231562
 10
13.931176511379981
 20
10.53159539249264
 10
13.99241856646473
 20
10.84012293486553
 10
14.04372947748168
 20
11.14070556198417
 10
14.08510924443083
 20
11.43334327384858
  0
LWPOLYLINE
  5
47
  8
LAYER_1
 62
256
370
-1
  6
ByLayer
100
AcDbEntity
100
AcDbPolyline
 90
58
 70
1
 10
27.01910024019352
 20
-0.5383198617446392
 10
27.02836930799014
 20
-0.7991779125920968
 10
27.056176511379991
 20
-1.052091048185317
 10
27.078356066464728
 20
-1.1732510058124359
 10
27.107818460532521
 20
-1.28779020072769
 10
27.144563693583368
 20
-1.3957086329310791
 10
27.188591765617279
 20
-1.497006302422605
 10
27.240233714769811
 20
-1.5903590566598931
 10
27.299820579176579
 20
-1.6744427431005711
 10
27.3673523588376
 20
-1.749257361744639
 10
27.44282905375286
 20
-1.8148029125920959
 10
27.527574816464728
 20
-1.8681000524226039
 10
27.62291379951558
 20
-1.9061694380158241
 10
27.728846002905399
 20
-1.9290110693717559
 10
27.84537142663422
 20
-1.9366249464904
 10
27.94220008129523
 20
-1.9313283363209091
 10
28.036711469007091
 20
-1.915438505812435
 10
28.128905589769801
 20
-1.888955454964977
 10
28.218782443583361
 20
-1.8518791837785371
 10
28.30634203044777
 20
-1.804209692253113
 10
28.391584350363029
 20
-1.7459469803887071
 10
28.474509403329129
 20
-1.677091048185317
 10
28.555117189346081
 20
-1.5976418956429439
 10
28.70871888426133
 20
-1.419543378693791
 10
28.8517273588376
 20
-1.224230878693791
 10
28.984142613074891
 20
-1.011704395642945
 10
29.105964646973199
 20
-0.7819639295412517
 10
29.216862422396911
 20
-0.541630243100572
 10
29.316504901210472
 20
-0.2973240990327746
 10
29.404892083413859
 20
-0.0490454973378595
 10
29.482023969007081
 20
0.2032055619841737
 10
29.599873545278271
 20
0.6693072568994298
 10
29.63992915968505
 20
0.8705784433401071
 10
29.667405324939288
 20
1.0506631891028171
 10
30.313591765617272
 20
4.1650699687638344
 10
30.097754901210479
 20
4.1514974052045126
 10
29.884566341888441
 20
4.1107797145265472
 10
29.674026087651161
 20
4.0429168967299356
 10
29.466134138498632
 20
3.9479089518146822
 10
29.26254568510879
 20
3.8297283374079019
 10
29.064915918159642
 20
3.6923475111367159
 10
28.873244837651161
 20
3.5357664730011229
 10
28.687532443583361
 20
3.359985223001122
 10
28.50844081222743
 20
3.1679831043570541
 10
28.336632019854541
 20
2.9627394602892569
 10
28.172106066464721
 20
2.7442542907977319
 10
28.014862952057939
 20
2.512527595882478
 10
27.866557867312181
 20
2.2712007950350208
 10
27.728846002905399
 20
2.023915307746885
 10
27.601727358837611
 20
1.770671134018073
 10
27.48520193510879
 20
1.5114682738485821
 10
27.380262846125731
 20
1.2489550323231571
 10
27.28790320629523
 20
0.9857797145265457
 10
27.208123015617261
 20
0.7219423204587485
 10
27.140922274091849
 20
0.4574428501197654
 10
27.08762513426133
 20
0.196584799272308
 10
27.049555748668109
 20
-0.0563283363209122
 10
27.026714117312171
 20
-0.3012965566598947
  0
LWPOLYLINE
  5
48
  8
LAYER_1
 62
256
370
-1
  6
ByLayer
100
AcDbEntity
100
AcDbPolyline
 90
395
 70
1
 10
-22.535984505569179
 20
14.67354454503503
 10
-22.261305612560712
 20
14.668413453933329
 10
-21.9881163911624
 20
14.65302018062825
 10
-21.716416841374269
 20
14.62736472511977
 10
-21.4462069631963
 20
14.5914470874079
 10
-21.1774867566285
 20
14.545267267492649
 10
-20.910256221670871
 20
14.488825265374
 10
-20.64451535832341
 20
14.422121081051969
 10
-20.38026416658612
 20
14.345154714526551
 10
-20.120316470611549
 20
14.25875376113672
 10
-19.86748609455222
 20
14.163745816221461
 10
-19.621773038408161
 20
14.060130879780781
 10
-19.383177302179352
 20
13.94790895181468
 10
-19.151698885865791
 20
13.827080032323151
 10
-18.92733778946749
 20
13.697644121306199
 10
-18.710094012984431
 20
13.559601218763831
 10
-18.499967556416639
 20
13.41295132469604
 10
-18.298448091374269
 20
13.258356515374
 10
-18.10702528946749
 20
13.096478867068919
 10
-17.92569915069631
 20
12.927318379780781
 10
-17.754469675060719
 20
12.750875053509599
 10
-17.593336862560719
 20
12.56714888825536
 10
-17.44230071319631
 20
12.37613988401807
 10
-17.30136122696749
 20
12.177848040797739
 10
-17.170518403874269
 20
11.97227335859435
 10
-17.052586068069179
 20
11.76024343274689
 10
-16.95037804370477
 20
11.542585858594339
 10
-16.86389433078104
 20
11.31930063613672
 10
-16.793134929297992
 20
11.090387765374
 10
-16.738099839255622
 20
10.85584724630621
 10
-16.698789060653919
 20
10.615679078933329
 10
-16.675202593492909
 20
10.36988326325536
 10
-16.66734043777257
 20
10.11845979927231
 10
-16.680250925060701
 20
9.8145667907977323
 10
-16.71898238692512
 20
9.5067013246960386
 10
-16.783534823365802
 20
9.1948634009672254
 10
-16.87390823438275
 20
8.8790530196112911
 10
-16.992750925060719
 20
8.557946028085869
 10
-17.142711200484442
 20
8.2302182738485818
 10
-17.32378906065393
 20
7.8958697568994287
 10
-17.535984505569189
 20
7.5549004772384123
 10
-17.648454712136981
 20
7.3934366266028189
 10
-17.763407704721729
 20
7.2427315153740039
 10
-17.880843483323421
 20
7.1027851435519702
 10
-18.000762047942061
 20
6.9735975111367159
 10
-18.12316339857766
 20
6.8551686181282419
 10
-18.248047535230199
 20
6.7474984645265463
 10
-18.375414457899691
 20
6.650587050331632
 10
-18.50526416658613
 20
6.5644343755434953
 10
-18.761156645399691
 20
6.4230810916451917
 10
-18.884385591374269
 20
6.3675494443994287
 10
-19.004469675060701
 20
6.3221144602892592
 10
-19.121408896459009
 20
6.286776139314683
 10
-19.235203255569179
 20
6.2615344814756986
 10
-19.34585275239121
 20
6.2463894867723093
 10
-19.453357386925109
 20
6.2413411552045126
 10
-19.604972853026801
 20
6.2529274899502747
 10
-19.7420226411624
 20
6.2876864941875628
 10
-19.864506751331898
 20
6.3456181679163759
 10
-19.9724251835353
 20
6.4267225111367168
 10
-20.019598117857331
 20
6.4759644338062081
 10
-20.060481327603089
 20
6.5309995238485801
 10
-20.09507481277258
 20
6.5918277812638344
 10
-20.123378573365802
 20
6.6584492060519702
 10
-20.14539260938275
 20
6.7308637982129884
 10
-20.161116920823421
 20
6.8090715577468863
 10
-20.173696369975961
 20
6.9828665789333293
 10
-20.165751454721729
 20
7.1268681679163777
 10
-20.14191670895902
 20
7.2834492060519693
 10
-20.102192132687829
 20
7.4526096933401043
 10
-20.046577725908168
 20
7.6343496297807816
 10
-19.97176310726411
 20
7.829331091645189
 10
-19.874437895399701
 20
8.0382161552045126
 10
-19.754602090314961
 20
8.2610048204587514
 10
-19.612255692009871
 20
8.4976970874079036
 10
-19.47851628523021
 20
8.7271065153740039
 10
-19.36331501404376
 20
8.9492331043570559
 10
-19.266651878450531
 20
9.1640768543570541
 10
-19.188526878450539
 20
9.3716377653740039
 10
-19.12827793777258
 20
9.5719158374079019
 10
-19.085242980145459
 20
9.7649110704587496
 10
-19.059422005569189
 20
9.9506234645265454
 10
-19.05081501404376
 20
10.129053019611289
 10
-19.055366788408168
 20
10.262047590585871
 10
-19.06902211150139
 20
10.39090418486553
 10
-19.091780983323421
 20
10.515622802450279
 10
-19.123643403874269
 20
10.63620344334011
 10
-19.16460937315393
 20
10.752646107535019
 10
-19.2146788911624
 20
10.864950795035019
 10
-19.273851957899691
 20
10.97311750584011
 10
-19.342128573365809
 20
11.077146239950279
 10
-19.418432863620041
 20
11.17703699736553
 10
-19.501688954721729
 20
11.272789778085871
 10
-19.591896846670881
 20
11.364404582111289
 10
-19.689056539467501
 20
11.4518814094418
 10
-19.904231327603089
 20
11.61442113401807
 10
-20.147213319128522
 20
11.76040895181468
 10
-20.417009399636989
 20
11.88951382469603
 10
-20.712626454721729
 20
12.00140471452654
 10
-21.03406448438275
 20
12.09608162130621
 10
-21.38132348862003
 20
12.173544545035019
 10
-21.750099971670881
 20
12.23379348571299
 10
-22.13609043777257
 20
12.27682844334011
 10
-22.53929488692512
 20
12.302649417916379
 10
-22.959713319128522
 20
12.3112564094418
 10
-23.42084944200986
 20
12.29768384588248
 10
-23.850867980145448
 20
12.256966155204511
 10
-24.05420815493358
 20
12.22642788719604
 10
-24.249768933535279
 20
12.1891033374079
 10
-24.437550315950531
 20
12.144992505840101
 10
-24.617552302179341
 20
12.09409539249264
 10
-24.955211200484442
 20
11.977569968763831
 10
-25.263738742857321
 20
11.845154714526551
 10
-25.543134929297999
 20
11.696849629780781
 10
-25.793399759806469
 20
11.532654714526551
 10
-26.013871158111549
 20
11.35554931198417
 10
-26.203887047942061
 20
11.168512765374
 10
-26.363447429297992
 20
10.97154507469604
 10
-26.431806804297992
 20
10.86933705033163
 10
-26.492552302179341
 20
10.764646239950279
 10
-26.592194780992909
 20
10.5534439094418
 10
-26.663367980145448
 20
10.343565731475699
 10
-26.706071899636971
 20
10.135011706051969
 10
-26.720306539467479
 20
9.9277818331706165
 10
-26.71393405535731
 20
9.755310964526549
 10
-26.694816603026801
 20
9.587474629780786
 10
-26.662954182475961
 20
9.4242728289333275
 10
-26.61834679370477
 20
9.2657055619841735
 10
-26.560994436713251
 20
9.1117728289333257
 10
-26.490897111501379
 20
8.9624746297807842
 10
-26.408054818069179
 20
8.8178109645265472
 10
-26.312467556416632
 20
8.6777818331706165
 10
-26.206369833958998
 20
8.5413113617723084
 10
-26.091996158111549
 20
8.407323676390952
 10
-25.969346528874262
 20
8.2758187770265472
 10
-25.83842094624714
 20
8.1467966636790887
 10
-25.551741920823421
 20
7.8962007950350213
 10
-25.23195908184038
 20
7.6555360704587514
 10
-24.88436903946749
 20
7.4228162611367168
 10
-24.514268403874269
 20
7.1960551382553612
 10
-24.121657175060712
 20
6.975252701814683
 10
-23.706535353026819
 20
6.7604089518146822
 10
-21.958653997094611
 20
5.8864682738485818
 10
-21.513738742857321
 20
5.6573898840180723
 10
-21.074120098789528
 20
5.4203665789333257
 10
-20.63979806489122
 20
5.1753983585943422
 10
-20.2107726411624
 20
4.9224852230011216
 10
-19.795650819128511
 20
4.6573236763909529
 10
-19.40303959031495
 20
4.3756102230011216
 10
-19.032938954721729
 20
4.0773448628316311
 10
-18.685348912348839
 20
3.762527595882478
 10
-18.5213195161624
 20
3.598332680628241
 10
-18.365566073365791
 20
3.428841155204513
 10
-18.218088583959009
 20
3.254053019611292
 10
-18.07888704794205
 20
3.073968273848581
 10
-17.94796146531494
 20
2.8885869179163768
 10
-17.825311836077649
 20
2.6979089518146822
 10
-17.710938160230189
 20
2.5019343755434948
 10
-17.60484043777257
 20
2.3006631891028171
 10
-17.50925317612003
 20
2.0931022780858681
 10
-17.426410882687819
 20
1.8782585280858679
 10
-17.356313557475961
 20
1.6561319391028171
 10
-17.298961200484431
 20
1.426722511136715
 10
-17.254353811713241
 20
1.190030244187563
 10
-17.2224913911624
 20
0.9460551382553598
 10
-17.203373938831881
 20
0.6947971933401054
 10
-17.197001454721711
 20
0.4362564094418
 10
-17.201801507687819
 20
0.2003089782977324
 10
-17.21620166658612
 20
-0.0308383998802336
 10
-17.240201931416632
 20
-0.2571857250920979
 10
-17.273802302179341
 20
-0.4787329973378607
 10
-17.317002778874251
 20
-0.6954802166175218
 10
-17.369803361501368
 20
-0.9074273829310813
 10
-17.43220405006069
 20
-1.1145744962785391
 10
-17.50420484455222
 20
-1.3169215566598951
 10
-17.584564351967479
 20
-1.514303045007352
 10
-17.672041179297999
 20
-1.7065534422531139
 10
-17.76663532654376
 20
-1.893672748397182
 10
-17.868346793704781
 20
-2.075660963439554
 10
-17.977175580781051
 20
-2.2525180873802322
 10
-18.09312168777257
 20
-2.4242441202192149
 10
-18.216185114679359
 20
-2.5908390619565029
 10
-18.3463658615014
 20
-2.7523029125920959
 10
-18.48316737103529
 20
-2.9088839507276889
 10
-18.62609308607766
 20
-3.060830454964977
 10
-18.775143006628511
 20
-3.208142425303961
 10
-18.930317132687829
 20
-3.3508198617446401
 10
-19.259038001331891
 20
-3.6222711329310808
 10
-19.612255692009871
 20
-3.875184268524301
 10
-19.98500463268784
 20
-4.1082351159819286
 10
-20.372319251331898
 20
-4.3200995227615886
 10
-20.774199547942061
 20
-4.510777488863285
 10
-21.190645522518331
 20
-4.6802690142870134
 10
-21.61967094624714
 20
-4.8295672134395558
 10
-22.05928959031494
 20
-4.9596652007276916
 10
-22.509501454721718
 20
-5.070562976151419
 10
-22.970306539467479
 20
-5.1622605397107399
 10
-23.43707031065393
 20
-5.2340958151344701
 10
-23.90515823438275
 20
-5.285406726151419
 10
-24.37457031065393
 20
-5.3161932727615886
 10
-24.845306539467479
 20
-5.3264554549649787
 10
-25.17518604158612
 20
-5.321407123397182
 10
-25.502748276755622
 20
-5.3062621286937919
 10
-25.827993244975961
 20
-5.2810204708548092
 10
-26.150920946247151
 20
-5.2456821498802331
 10
-26.471531380569179
 20
-5.2002471657700644
 10
-26.789824547942072
 20
-5.1447155185243014
 10
-27.105800448365802
 20
-5.0790872081429459
 10
-27.41945908184038
 20
-5.0033622346259961
 10
-27.72765558607767
 20
-4.9174578384395549
 10
-28.027245098789528
 20
-4.8212912600497244
 10
-28.318227619975971
 20
-4.7148624994565038
 10
-28.600603149636989
 20
-4.598171556659894
 10
-28.87437168777258
 20
-4.4712184316598949
 10
-29.139533234382739
 20
-4.3340031244565056
 10
-29.39608778946749
 20
-4.1865256350497262
 10
-29.644035353026808
 20
-4.0287859634395566
 10
-29.881637974848839
 20
-3.8607841096259961
 10
-30.107157704721729
 20
-3.6825200736090471
 10
-30.320594542645459
 20
-3.493993855388708
 10
-30.52194848862003
 20
-3.2952054549649792
 10
-30.711219542645448
 20
-3.0861548723378598
 10
-30.888407704721729
 20
-2.866842107507352
 10
-31.053512974848839
 20
-2.6372671604734541
 10
-31.206535353026808
 20
-2.3974300312361652
 10
-31.34432997696749
 20
-2.147247960261589
 10
-31.463751984382739
 20
-1.8866381880158261
 10
-31.56480137527257
 20
-1.6156007144988771
 10
-31.647478149636981
 20
-1.3341355397107411
 10
-31.711782307475961
 20
-1.042242663651419
 10
-31.757713848789521
 20
-0.7399220863209112
 10
-31.78527277357766
 20
-0.4271738077192163
 10
-31.794459081840369
 20
-0.1039978278463347
 10
-31.780886518281051
 20
0.2247230407977337
 10
-31.740168827603089
 20
0.5329195450350224
 10
-31.709630559594611
 20
0.6793211605011243
 10
-31.67230600980648
 20
0.8205916848655313
 10
-31.628195178238681
 20
0.9567311181282433
 10
-31.57729806489122
 20
1.0877394602892601
 10
-31.462096793704781
 20
1.334031833170616
 10
-31.333653997094611
 20
1.5591377653740051
 10
-31.191969675060719
 20
1.763057256899428
 10
-31.037043827603089
 20
1.945790307746887
 10
-30.871855797942061
 20
2.1073369179163768
 10
-30.699384929297999
 20
2.2476970874079032
 10
-30.519631221670881
 20
2.366870816221462
 10
-30.332594675060719
 20
2.4648581043570559
 10
-30.14522709031495
 20
2.5413279136790901
 10
-29.964480268281051
 20
2.595949206051972
 10
-29.79035420895902
 20
2.6287219814757008
 10
-29.622848912348861
 20
2.6396462399502769
 10
-29.46030918777258
 20
2.6280599052045139
 10
-29.31167306489121
 20
2.593300900967225
 10
-29.17694054370477
 20
2.5353692272384101
 10
-29.056111624213241
 20
2.4542648840180701
 10
-29.002731724848839
 20
2.4046919232129849
 10
-28.956469145399691
 20
2.348663718763834
 10
-28.917323885865791
 20
2.2861802706706129
 10
-28.88529594624714
 20
2.2172415789333262
 10
-28.860385326543749
 20
2.1418476435519702
 10
-28.842592026755611
 20
2.0599984645265459
 10
-28.831916046882728
 20
1.971694041857055
 10
-28.828357386925109
 20
1.876934375543496
 10
-28.838950607264099
 20
1.691553019611292
 10
-28.87073026828104
 20
1.495578443340104
 10
-28.960772641162389
 20
1.0559597992723091
 10
-29.050815014043749
 20
0.5315953924926478
 10
-29.082594675060701
 20
0.232336917916378
 10
-29.09318789539968
 20
-0.093404607507352
 10
-29.087891285230189
 20
-0.2756411011514198
 10
-29.072001454721711
 20
-0.4515878702192164
 10
-29.045518403874262
 20
-0.6212449147107418
 10
-29.008442132687829
 20
-0.7846122346259961
 10
-28.960772641162411
 20
-0.9416898299649791
 10
-28.902509929297999
 20
-1.0924777007276909
 10
-28.833653997094611
 20
-1.236975846914131
 10
-28.75420484455223
 20
-1.3751842685243001
 10
-28.665983181416639
 20
-1.5072684846259949
 10
-28.57080971743358
 20
-1.6333940142870129
 10
-28.468684452603071
 20
-1.753560857507352
 10
-28.359607386925109
 20
-1.867769014287012
 10
-28.24357852039968
 20
-1.9760184846259949
 10
-28.120597853026801
 20
-2.078309268524301
 10
-27.990665384806469
 20
-2.174641365981929
 10
-27.853781115738681
 20
-2.265014776998878
 10
-27.710772641162411
 20
-2.3495950206429459
 10
-27.562467556416649
 20
-2.428547615981929
 10
-27.249967556416649
 20
-2.5695698617446401
 10
-26.916281115738681
 20
-2.688081514287012
 10
-26.56140823438275
 20
-2.784082573609048
 10
-26.192631751331898
 20
-2.8582351159819281
 10
-25.817234505569189
 20
-2.911201217676842
 10
-25.435216497094611
 20
-2.942980878693791
 10
-25.046577725908168
 20
-2.9535740990327741
 10
-24.585772641162411
 20
-2.9396704973378589
 10
-24.124967556416639
 20
-2.8979596922531141
 10
-23.664162471670871
 20
-2.828441683778538
 10
-23.203357386925109
 20
-2.731116471914131
 10
-22.97593418777257
 20
-2.672191683778538
 10
-22.754469675060712
 20
-2.6066461329310799
 10
-22.538963848789521
 20
-2.5344798193717581
 10
-22.329416708959009
 20
-2.4556927431005722
 10
-22.125828255569189
 20
-2.3702849041175211
 10
-21.92819848862003
 20
-2.278256302422605
 10
-21.736527408111559
 20
-2.1796069380158261
 10
-21.55081501404376
 20
-2.074336810897182
 10
-21.372385458959009
 20
-1.962694199668368
 10
-21.202562895399691
 20
-1.8449273829310799
 10
-21.041347323365791
 20
-1.721036360685317
 10
-20.888738742857321
 20
-1.5910211329310791
 10
-20.744737153874269
 20
-1.454881699668368
 10
-20.609342556416639
 20
-1.3126180608971809
 10
-20.482554950484442
 20
-1.1642302166175189
 10
-20.36437433607767
 20
-1.0097181668293831
 10
-20.25761453734885
 20
-0.8492474306005701
 10
-20.165089378450539
 20
-0.6829835269988758
 10
-20.08679885938275
 20
-0.5109264560243
 10
-20.022742980145459
 20
-0.3330762176768429
 10
-19.97292174073867
 20
-0.1494328119565044
 10
-19.9373351411624
 20
0.0400037611367155
 10
-19.915983181416639
 20
0.235233501602817
 10
-19.90886586150139
 20
0.4362564094418
 10
-19.915238345611559
 20
0.6218032844418006
 10
-19.934355797942072
 20
0.8023845874079028
 10
-19.966218218492919
 20
0.9780003183401064
 10
-20.01082560726411
 20
1.1486504772384121
 10
-20.068177964255629
 20
1.314335064102818
 10
-20.138275289467501
 20
1.4750540789333271
 10
-20.221117582899701
 20
1.630807521729936
 10
-20.316704844552241
 20
1.781595392492648
 10
-20.422802567009871
 20
1.92849356516214
 10
-20.537176242857321
 20
2.0725779136790892
 10
-20.659825872094611
 20
2.2138484380434962
 10
-20.790751454721729
 20
2.3523051382553599
 10
-20.929952990738681
 20
2.4879480143146822
 10
-21.077430480145459
 20
2.620777066221462
 10
-21.397213319128522
 20
2.877993697577395
 10
-21.745134399636989
 20
3.1259412611367159
 10
-22.116228149636981
 20
3.3666059857129871
 10
-22.5104945691285
 20
3.5999878713062081
 10
-22.927933658111549
 20
3.8260869179163781
 10
-24.67581501404376
 20
4.7265106467299383
 10
-25.557700607264099
 20
5.1939364941875654
 10
-26.423696369975961
 20
5.6851970874079036
 10
-26.841135458959009
 20
5.9430757950350221
 10
-27.235401878450539
 20
6.213533951814683
 10
-27.606495628450539
 20
6.4965715577468872
 10
-27.95441670895902
 20
6.7921886128316338
 10
-28.11844610514547
 20
6.945376510077395
 10
-28.274199547942079
 20
7.1030334221536657
 10
-28.421677037348861
 20
7.2651593490604451
 10
-28.560878573365809
 20
7.4317542907977323
 10
-28.691804155992919
 20
7.6028182473655299
 10
-28.81445378523021
 20
7.7783512187638344
 10
-28.92882746107767
 20
7.9583532049926493
 10
-29.03492518353529
 20
8.1428242060519729
 10
-29.130512445187829
 20
8.3327573363485818
 10
-29.213354738620041
 20
8.5291457102892601
 10
-29.283452063831898
 20
8.7319893278740039
 10
-29.340804420823432
 20
8.9412881891028171
 10
-29.385411809594611
 20
9.1570422939756995
 10
-29.417274230145459
 20
9.3792516424926475
 10
-29.436391682475971
 20
9.6079162346536648
 10
-29.442764166586141
 20
9.8430360704587514
 10
-29.43606064434038
 20
10.0650798999079
 10
-29.415950077603089
 20
10.28629613401807
 10
-29.382432466374279
 20
10.50668477278926
 10
-29.33550781065394
 20
10.726245816221461
 10
-29.275176110442072
 20
10.94497926431468
 10
-29.201437365738681
 20
11.162885117068919
 10
-29.11429157654376
 20
11.37996337448417
 10
-29.01373874285731
 20
11.59621403656044
 10
-28.899696105145459
 20
11.80923707681468
 10
-28.772080903874269
 20
12.016632468763831
 10
-28.63089313904376
 20
12.2184002124079
 10
-28.47613281065393
 20
12.41454030774689
 10
-28.307799918704781
 20
12.60505275478079
 10
-28.1258944631963
 20
12.789937553509599
 10
-27.930416444128511
 20
12.969194703933329
 10
-27.72136586150139
 20
13.142824206051969
 10
-27.49882547484885
 20
13.309584666857059
 10
-27.262878043704781
 20
13.46823469334011
 10
-27.013523568069189
 20
13.61877428550113
 10
-26.750762047942072
 20
13.76120344334011
 10
-26.474593483323421
 20
13.895522166857059
 10
-26.185017874213251
 20
14.021730456051969
 10
-25.882035220611559
 20
14.139828310924861
 10
-25.565645522518331
 20
14.249815731475699
 10
-25.235600501331891
 20
14.34912717215367
 10
-24.891651878450539
 20
14.435197087407911
 10
-24.533799653874269
 20
14.508025477238419
 10
-24.162043827603089
 20
14.5676123416452
 10
-23.776384399636989
 20
14.61395768062825
 10
-23.376821369975971
 20
14.64706149418757
 10
-22.96335473862003
 20
14.66692378232316
  0
LWPOLYLINE
  5
49
  8
LAYER_1
 62
256
370
-1
  6
ByLayer
100
AcDbEntity
100
AcDbPolyline
 90
830
 70
1
 10
14.26486295205796
 20
16.368459799272319
 10
14.38701602409186
 20
16.364404582111298
 10
14.50453456222745
 20
16.35223893062825
 10
14.617418566464741
 20
16.33196284482316
 10
14.72566803680372
 20
16.303576324696049
 10
14.8292829732444
 20
16.26707937024689
 10
14.92826337578677
 20
16.222471981475699
 10
15.022609244430839
 20
16.169754158382482
 10
15.112320579176609
 20
16.108925900967229
 10
15.278832761379981
 20
15.968565731475699
 10
15.428793036803709
 20
15.80701912130621
 10
15.56220140544778
 20
15.62428607045875
 10
15.67905786731219
 20
15.42036657893332
 10
15.780024498668119
 20
15.197246875543501
 10
15.865763375786759
 20
14.956913189102821
 10
15.936274498668119
 20
14.6993655196113
 10
15.99155786731219
 20
14.424603867068919
 10
16.03326867239694
 20
14.138917956051969
 10
16.063062104600331
 20
13.84859751113671
 10
16.080938163922369
 20
13.553642532323151
 10
16.08689685036304
 20
13.254053019611289
 10
16.078951935108801
 20
12.87799369757739
 10
16.055117189346099
 20
12.491341155204511
 10
16.01704780375287
 20
12.12049568380621
 10
15.9716955791766
 20
11.754781303509599
 10
15.91906051561727
 20
11.39419801431468
 10
15.8591426130749
 20
11.038745816221461
 10
15.791941871549479
 20
10.68842470922994
 10
15.717458291041
 20
10.34323469334011
 10
15.635691871549479
 20
10.003175768551969
 10
15.5466426130749
 20
9.6682479348655299
 10
15.353316341888471
 20
9.0078268543570559
 10
15.14410024019355
 20
8.3560127653740039
 10
14.918994307990159
 20
7.7128056679163759
 10
14.67799854527828
 20
7.0782055619841726
 10
14.42376125714269
 20
6.4492331043570541
 10
14.158930748668119
 20
5.8229089518146822
 10
13.88350701985456
 20
5.1992331043570541
 10
13.59749007070203
 20
4.5782055619841726
 10
13.30816274019355
 20
3.952543485712988
 10
13.02280786731219
 20
3.3149640365604451
 10
12.74142545205795
 20
2.6654672145265459
 10
12.46401549443083
 20
2.0040530196112911
 10
12.41104939273591
 20
1.839858104357055
 10
12.358083291040989
 20
1.643883528085869
 10
12.25744769782068
 20
1.183078443340104
 10
12.21375066392236
 20
0.9314894602892594
 10
12.17799854527828
 20
0.6746038670689212
 10
12.15416379951558
 20
0.4190424263909549
 10
12.146218884261341
 20
0.1714259009672259
 10
12.15548795205795
 20
-0.1278325736090471
 10
12.18329515544777
 20
-0.4112012176768434
 10
12.232288799515571
 20
-0.6720592685243005
 10
12.2657236512105
 20
-0.7915640354734537
 10
12.305117189346101
 20
-0.9037859634395562
 10
12.35113149019355
 20
-1.006738823609046
 10
12.404428630024061
 20
-1.098436387168368
 10
12.46500860883762
 20
-1.1788786541175209
 10
12.532871426634239
 20
-1.248065624456504
 10
12.608679159685069
 20
-1.303680031236166
 10
12.693093884261341
 20
-1.343404607507352
 10
12.78611560036304
 20
-1.3672393532700631
 10
12.88774430799017
 20
-1.3751842685243001
 10
12.990697168159659
 20
-1.370218696490402
 10
13.09828456222745
 20
-1.3553219803887071
 10
13.21050649019355
 20
-1.3304941202192151
 10
13.32736295205796
 20
-1.2957351159819259
 10
13.572331172396931
 20
-1.2017202854734521
 10
13.83054091815964
 20
-1.0785740990327739
 10
14.09669557917659
 20
-0.9315931668293844
 10
14.36549854527828
 20
-0.7660740990327741
 10
14.88986295205796
 20
-0.4112012176768434
 10
15.439375322803439
 20
0.0053744744329518
 10
16.010620711570791
 20
0.472738097690826
 10
16.028634138498621
 20
0.6375275958824782
 10
16.12662142663422
 20
1.332707680628241
 10
16.240498545278282
 20
2.0411292907977341
 10
16.366293036803711
 20
2.738957680628241
 10
16.500032443583361
 20
3.4023581043570559
 10
16.63774430799015
 20
4.0220614941875636
 10
16.775456172396922
 20
4.5887987823231562
 10
16.913168036803711
 20
5.081383528085869
 10
16.982023969007091
 20
5.2919237823231571
 10
17.050879901210479
 20
5.4786292907977341
 10
17.135625663922351
 20
5.6878453924926493
 10
17.22037142663423
 20
5.8493920026621389
 10
17.31173795205795
 20
5.9725381891028171
 10
17.362386786803711
 20
6.0231870238485801
 10
17.416346002905399
 20
6.0665530196112911
 10
17.475270791041002
 20
6.1029672145265463
 10
17.540816341888458
 20
6.1327606467299356
 10
17.61298265544778
 20
6.1559333162214616
 10
17.69176973171896
 20
6.1724852230011216
 10
17.87582693510879
 20
6.1923475111367168
 10
18.099608714769811
 20
6.1989682738485818
 10
18.34457693510879
 20
6.1923475111367168
 10
18.528634138498621
 20
6.1724852230011216
 10
18.600469413922351
 20
6.1546091636790887
 10
18.662373545278282
 20
6.1274640365604451
 10
18.71434653256642
 20
6.0910498416451908
 10
18.756388375786759
 20
6.0453665789333293
 10
18.789823227481669
 20
5.9894211340180732
 10
18.815975240193531
 20
5.9222203924926484
 10
18.83484441392234
 20
5.8437643543570541
 10
18.846430748668109
 20
5.7540530196112911
 10
18.858348121549479
 20
5.5289470874079019
 10
18.8623205791766
 20
5.2349852230011216
 10
18.8623205791766
 20
4.2868920026621389
 10
18.867617189346081
 20
3.734720392492648
 10
18.883507019854552
 20
3.190493697577395
 10
19.000032443583379
 20
3.190493697577395
 10
19.476727358837611
 20
4.1385869179163777
 10
19.614439223244378
 20
4.3964656255434953
 10
19.76274430799015
 20
4.6457373416451908
 10
19.921642613074901
 20
4.8864020662214616
 10
20.091134138498621
 20
5.118459799272312
 10
20.271880960532521
 20
5.3372760068994296
 10
20.46454515544778
 20
5.5382161552045126
 10
20.669126723244389
 20
5.7212802441875636
 10
20.885625663922369
 20
5.8864682738485818
 10
20.99900622536304
 20
5.959710461348581
 10
21.116690282566431
 20
6.0231870238485801
 10
21.238677835532531
 20
6.0768979613485801
 10
21.364968884261341
 20
6.1208432738485801
 10
21.49556342875286
 20
6.1550229613485818
 10
21.630461469007091
 20
6.1794370238485818
 10
21.769663005024039
 20
6.1940854613485818
 10
21.91316803680369
 20
6.1989682738485818
 10
22.013141553752849
 20
6.194664778085869
 10
22.111790918159631
 20
6.1817542907977341
 10
22.209116130024039
 20
6.1602368119841726
 10
22.305117189346088
 20
6.1301123416451908
 10
22.39747682917659
 20
6.0920429560519711
 10
22.48387778256642
 20
6.0466907314756986
 10
22.564320049515569
 20
5.9940556679163777
 10
22.638803630024039
 20
5.9341377653740039
 10
22.706666447820648
 20
5.8669370238485801
 10
22.76724642663422
 20
5.792453443340106
 10
22.820543566464728
 20
5.7106870238485818
 10
22.866557867312181
 20
5.6216377653740039
 10
22.90363413849861
 20
5.5259677441875628
 10
22.93011718934607
 20
5.4243390365604442
 10
22.946007019854552
 20
5.3167516424926484
 10
22.951303630024039
 20
5.2032055619841726
 10
22.938062104600309
 20
4.9873686975773932
 10
22.898337528329119
 20
4.700027595882478
 10
22.78181210460032
 20
4.0220614941875654
 10
22.66528668087151
 20
3.3335021721536648
 10
22.62556210460032
 20
3.027622934865529
 10
22.61232057917659
 20
2.7773581043570559
 10
22.616955113074901
 20
2.5946250535095969
 10
22.630858714769811
 20
2.4277818331706129
 10
22.65403138426133
 20
2.2768284433401038
 10
22.686473121549469
 20
2.1417648840180701
 10
22.72652873595624
 20
2.020935964526545
 10
22.7725430368037
 20
1.912686494187563
 10
22.824516024091839
 20
1.8170164730011229
 10
22.882447697820659
 20
1.7339259009672261
 10
22.945344943583361
 20
1.662752701814683
 10
23.012214646973192
 20
1.60283479927231
 10
23.08305680799014
 20
1.5541721933401049
 10
23.15787142663423
 20
1.5167648840180701
 10
23.235665388498632
 20
1.4889576806282401
 10
23.31544557917659
 20
1.469095392492648
 10
23.397211998668109
 20
1.457178019611292
 10
23.480964646973192
 20
1.4532055619841739
 10
23.72129833341387
 20
1.466447087407903
 10
23.965604477481669
 20
1.5061716636790889
 10
24.21388307917659
 20
1.572379290797733
 10
24.46613413849861
 20
1.6650699687638351
 10
24.72491802430017
 20
1.7789870280107249
 10
24.97193584284754
 20
1.9006448832993179
 10
25.144100240193531
 20
2.2741801382553599
 10
25.349012846125738
 20
2.6684465577468859
 10
25.571801511379981
 20
3.051457680628241
 10
25.812466235956251
 20
3.4232135068994261
 10
26.071007019854559
 20
3.7837140365604429
 10
26.34477555799015
 20
4.1273316213062063
 10
26.631123545278282
 20
4.4484386128316302
 10
26.930050981718949
 20
4.747035011136715
 10
27.241557867312171
 20
5.0231208162214607
 10
27.563657973244378
 20
5.274378761136715
 10
27.894365070702001
 20
5.4984915789333257
 10
28.23367915968505
 20
5.6954592696112929
 10
28.58160024019352
 20
5.8652818331706156
 10
28.758126325998621
 20
5.9385240206706156
 10
28.93548000714269
 20
6.0020005831706156
 10
29.113661283625738
 20
6.0557115206706156
 10
29.29267015544777
 20
6.0996568331706156
 10
29.47250662260879
 20
6.1338365206706156
 10
29.65317068510878
 20
6.1582505831706156
 10
29.83466234294777
 20
6.1728990206706156
 10
30.016981596125731
 20
6.1777818331706156
 10
30.132182867312171
 20
6.1718231467299383
 10
30.23414261307488
 20
6.1539470874079036
 10
30.32286083341387
 20
6.1241536552045126
 10
30.398337528329129
 20
6.0824428501197652
 10
30.524132019854559
 20
5.9804831043570559
 10
30.626091765617272
 20
5.8652818331706156
 10
30.800879901210489
 20
5.6269343755434953
 10
30.845901087651161
 20
5.5726441213062063
 10
30.89621888426133
 20
5.5262987823231562
 10
30.951833291040991
 20
5.4878983585943431
 10
31.01274430799014
 20
5.4574428501197652
 10
31.141187104600309
 20
5.4137458162214616
 10
31.272278206295219
 20
5.3885869179163777
 10
31.406017613074891
 20
5.3766695450350213
 10
31.542405324939288
 20
5.3726970874079036
 10
31.78075278256642
 20
5.3779936975773914
 10
32.019100240193517
 20
5.3832903077468863
 10
32.172701935108783
 20
5.3753453924926493
 10
32.31571040968506
 20
5.3515106467299383
 10
32.38258011307488
 20
5.3309862823231571
 10
32.445477358837593
 20
5.3011928501197669
 10
32.504402146973177
 20
5.2621303501197669
 10
32.559354477481662
 20
5.2137987823231562
 10
32.609341235956236
 20
5.1555360704587487
 10
32.653369307990133
 20
5.0866801382553586
 10
32.691438693583358
 20
5.0072309857129884
 10
32.723549392735912
 20
4.9171886128316338
 10
32.749039329176583
 20
4.8132426382553612
 10
32.767246426634202
 20
4.6920826806282419
 10
32.778170685108783
 20
4.5537087399502747
 10
32.781812104600299
 20
4.3981208162214607
 10
32.775191341888437
 20
4.1369317272384114
 10
32.755329053752853
 20
3.8618390365604438
 10
32.722225240193517
 20
3.5728427441875619
 10
32.675879901210493
 20
3.2699428501197652
 10
32.564651087651157
 20
2.642294545035019
 10
32.442829053752853
 20
1.9987564094418
 10
32.321007019854548
 20
1.3472733585943431
 10
32.209778206295219
 20
0.6957903077468866
 10
32.163432867312167
 20
0.3743522780858698
 10
32.130329053752853
 20
0.0615212399502764
 10
32.110466765617247
 20
-0.2427028066598934
 10
32.103846002905392
 20
-0.5383198617446392
 10
32.109473651210457
 20
-0.7736879761514189
 10
32.126356596125717
 20
-0.9819109634395544
 10
32.154494837651143
 20
-1.162988823609046
 10
32.193888375786727
 20
-1.3169215566598951
 10
32.219626590829108
 20
-1.382715386109048
 10
32.251820049515537
 20
-1.4397367049649801
 10
32.290468751846063
 20
-1.4879855132276909
 10
32.335572697820638
 20
-1.527461810897182
 10
32.387131887439288
 20
-1.558165597973453
 10
32.445146320702008
 20
-1.5800968744565029
 10
32.50961599760879
 20
-1.593255640346334
 10
32.580540918159627
 20
-1.5976418956429439
 10
32.693093884261323
 20
-1.5906900947954861
 10
32.808295155447752
 20
-1.5698346922531139
 10
32.926144731718942
 20
-1.5350756880158261
 10
33.046642613074873
 20
-1.4864130820836221
 10
33.291610833413863
 20
-1.3579702854734521
 10
33.539227358837593
 20
-1.195099522761587
 10
33.788168036803697
 20
-1.00309740411752
 10
34.037108714769793
 20
-0.7872605397107395
 10
34.279428630024043
 20
-0.5555338447954861
 10
34.508507019854562
 20
-0.3158622346259956
 10
34.768702994430811
 20
-0.0205762176768426
 10
35.030223121549447
 20
0.2932479348655302
 10
35.293067401210479
 20
0.6256102230011237
 10
35.557235833413863
 20
0.9765106467299385
 10
36.065710409685053
 20
-1.3751842685243001
 10
35.781017613074887
 20
-1.743298675303961
 10
35.414227358837607
 20
-2.1696757939480298
 10
35.204018142735897
 20
-2.394781726151419
 10
34.981229477481662
 20
-2.614591048185317
 10
34.74586136307488
 20
-2.829103760049724
 10
34.497913799515572
 20
-3.0383198617446392
 10
34.239041977481662
 20
-3.2369427431005722
 10
33.97090108765115
 20
-3.4196757939480298
 10
33.693491130024029
 20
-3.586519014287012
 10
33.406812104600299
 20
-3.737472404117522
 10
33.261155324939281
 20
-3.8045076265751492
 10
33.115498545278271
 20
-3.862604819371759
 10
32.969841765617261
 20
-3.9117639825073529
 10
32.824184985956236
 20
-3.951985115981929
 10
32.678528206295233
 20
-3.9832682197954892
 10
32.532871426634202
 20
-4.0056132939480307
 10
32.387214646973177
 20
-4.0190203384395566
 10
32.24155786731216
 20
-4.0234893532700653
 10
32.070411151210472
 20
-4.0164547928887098
 10
31.906547274091832
 20
-3.995351111744641
 10
31.74996623595624
 20
-3.960178309837862
 10
31.6006680368037
 20
-3.9109363871683702
 10
31.458652676634198
 20
-3.847625343736166
 10
31.323920155447759
 20
-3.7702451795412499
 10
31.196470473244371
 20
-3.6787958945836232
 10
31.076303630024029
 20
-3.5732774888632828
 10
30.96176443510878
 20
-3.454352038651419
 10
30.851197697820641
 20
-3.3226816202192162
 10
30.744603418159631
 20
-3.1782662335666738
 10
30.641981596125731
 20
-3.0211058786937919
 10
30.54333223171896
 20
-2.8512005556005722
 10
30.448655324939299
 20
-2.668550264287012
 10
30.357950875786759
 20
-2.473155004753115
 10
30.271218884261341
 20
-2.265014776998878
 10
30.136817401210479
 20
-2.4139819380158269
 10
29.987850240193531
 20
-2.5642732515751478
 10
29.824317401210489
 20
-2.7158887176768429
 10
29.646218884261341
 20
-2.8688283363209091
 10
29.45653403256641
 20
-3.0187886117446392
 10
29.25824218934607
 20
-3.161466048185317
 10
29.051343354600309
 20
-3.296860645642945
 10
28.835837528329129
 20
-3.424972404117522
 10
28.613710939346081
 20
-3.5438150947954878
 10
28.386949816464721
 20
-3.651402488863285
 10
28.15555415968506
 20
-3.7477345863209122
 10
27.919523969007091
 20
-3.8328113871683702
 10
27.68117651137997
 20
-3.902329395642945
 10
27.442829053752849
 20
-3.9519851159819281
 10
27.204481596125731
 20
-3.981778548185317
 10
26.966134138498632
 20
-3.9917096922531141
 10
26.713552041040991
 20
-3.9787992049649779
 10
26.464280324939299
 20
-3.9400677431005722
 10
26.218318990193531
 20
-3.875515306659894
 10
25.975668036803711
 20
-3.7851418956429441
 10
25.741624074939299
 20
-3.6706027007276898
 10
25.521483714769811
 20
-3.5335529125920981
 10
25.31524695629524
 20
-3.373992531236166
 10
25.12291379951558
 20
-3.1919215566598949
 10
24.94680151137997
 20
-2.9880020651344701
 10
24.789227358837589
 20
-2.7628961329310791
 10
24.650191341888441
 20
-2.516603760049724
 10
24.529693460532521
 20
-2.2491249464904
 10
24.47755495417659
 20
-2.1078544221259938
 10
24.432368248668109
 20
-1.9621148829310791
 10
24.394133344007091
 20
-1.8119063289056561
 10
24.362850240193541
 20
-1.657228760049724
 10
24.321139435108801
 20
-1.3344665778463349
 10
24.30723583341388
 20
-0.9938283363209126
 10
24.318118340462611
 20
-0.6808267050141121
 10
24.015922274091832
 20
-0.7872605397107395
 10
23.800416447820648
 20
-0.8451922134395542
 10
23.582924392735912
 20
-0.8865719803887076
 10
23.3634461088376
 20
-0.9113998405581996
 10
23.141981596125738
 20
-0.9196757939480302
 10
22.948158767735912
 20
-0.9146274623802335
 10
22.763936045278289
 20
-0.8994824676768434
 10
22.58931342875287
 20
-0.87424080983786
 10
22.424290918159649
 20
-0.8389024888632832
 10
22.268868513498632
 20
-0.7934675047531132
 10
22.123046214769818
 20
-0.73793585750735
 10
21.986824021973209
 20
-0.6723075471259935
 10
21.860201935108801
 20
-0.596582573609044
 10
21.741524763498632
 20
-0.5126644062361635
 10
21.629137316464739
 20
-0.4224565142870116
 10
21.523039594007109
 20
-0.3259588977615883
 10
21.423231596125749
 20
-0.2231715566598935
 10
21.32971332282067
 20
-0.1140944909819274
 10
21.242484774091849
 20
0.0012722992723101
 10
21.16154594993931
 20
0.1229288141028191
 10
21.086896850363029
 20
0.2508750535095994
 10
20.953157443583368
 20
0.5210021721536661
 10
20.837956172396929
 20
0.8070191213062075
 10
20.741293036803711
 20
1.1089259009672241
 10
20.6631680368037
 20
1.426722511136717
 10
20.538697697820659
 20
2.082178019611292
 10
20.44071040968505
 20
2.7455784433401038
 10
20.27121888426133
 20
2.7455784433401038
 10
18.375032443583379
 20
-2.540438505812435
 10
18.230699816464728
 20
-2.9178219803887071
 10
18.09431210460032
 20
-3.2237012176768429
 10
17.960572697820648
 20
-3.4686694380158269
 10
17.892709880024039
 20
-3.5722843744565038
 10
17.824184985956251
 20
-3.6633198617446392
 10
17.754004901210489
 20
-3.7417758998802322
 10
17.681176511379981
 20
-3.8076524888632828
 10
17.605699816464728
 20
-3.860949628693791
 10
17.527574816464739
 20
-3.9016673193717568
 10
17.446139435108801
 20
-3.9317917897107399
 10
17.360731596125749
 20
-3.9533092685243001
 10
17.27135129951558
 20
-3.9662197558124359
 10
17.1779985452783
 20
-3.9705232515751478
 10
16.971430748668119
 20
-3.9589369168293862
 10
16.786049392735912
 20
-3.9241779125920981
 10
16.621854477481669
 20
-3.8662462388632841
 10
16.54770193510879
 20
-3.8285906509395549
 10
16.47884600290541
 20
-3.7851418956429441
 10
16.354044625786759
 20
-3.684506302422605
 10
16.244471002905399
 20
-3.5679808786937919
 10
16.150125134261341
 20
-3.4355656244565029
 10
16.071007019854559
 20
-3.2872605397107399
 10
16.005461469007098
 20
-3.125713929541249
 10
15.951833291041
 20
-2.953574099032775
 10
15.910122485956251
 20
-2.770841048185317
 10
15.880329053752851
 20
-2.577514776998878
 10
15.8569890767942
 20
-2.3138594817252058
 10
15.39876615673049
 20
-2.636650480945808
 10
14.942829053752851
 20
-2.9323876583548092
 10
14.62768074866811
 20
-3.121741471914131
 10
14.2966426130749
 20
-3.308446980388708
 10
13.96030786731218
 20
-3.4832351159819281
 10
13.629269731718971
 20
-3.636836810897182
 10
13.304852358837611
 20
-3.7666037600497249
 10
12.988379901210489
 20
-3.8698876583548092
 10
12.835109244430839
 20
-3.9092811964904031
 10
12.68779727409186
 20
-3.9374194380158269
 10
12.54644399019355
 20
-3.9543023829310808
 10
12.41104939273591
 20
-3.959930031236166
 10
12.22699218934609
 20
-3.9440402007276911
 10
11.971430748668119
 20
-3.8963707092022659
 10
11.822463587651169
 20
-3.856315094795487
 10
11.66687566392236
 20
-3.7997075736090471
 10
11.504666977481669
 20
-3.726548145642945
 10
11.335837528329129
 20
-3.636836810897182
 10
11.163697697820661
 20
-3.527925264287012
 10
10.99155786731219
 20
-3.3971652007276898
 10
10.81941803680372
 20
-3.244556620219214
 10
10.647278206295249
 20
-3.0700995227615868
 10
10.48076602409186
 20
-2.8694904125920959
 10
10.32550913849863
 20
-2.638425793948028
 10
10.18150754951558
 20
-2.3769056668293849
 10
10.048761257142701
 20
-2.0849300312361652
 10
9.6448947317189795
 20
-2.4570168956429441
 10
9.2171934605325365
 20
-2.8105656244565038
 10
8.9953979096850745
 20
-2.9770778066598931
 10
8.7696299012104912
 20
-3.1323346922531141
 10
8.5398894351087939
 20
-3.276336281236166
 10
8.3061765113799826
 20
-3.409082573609048
 10
8.0698152825664273
 20
-3.5299114931005722
 10
7.8321299012104983
 20
-3.6381609634395549
 10
7.5931203673121921
 20
-3.7338309846259961
 10
7.3527866808715059
 20
-3.8169215566598962
 10
7.1114598800240554
 20
-3.8841222981853192
 10
6.8694710029054127
 20
-3.9321228278463352
 10
6.6268200495155813
 20
-3.960923145642945
 10
6.3835070198545649
 20
-3.9705232515751478
 10
6.2142637730325339
 20
-3.9658887176768429
 10
6.0508136935833807
 20
-3.9519851159819281
 10
5.8931567815071082
 20
-3.9288124464904022
 10
5.7412930368037172
 20
-3.8963707092022659
 10
5.5952224594732076
 20
-3.8546599041175211
 10
5.4549450495155813
 20
-3.8036800312361638
 10
5.3204608069308366
 20
-3.743431090558198
 10
5.1917697317189804
 20
-3.6739130820836219
 10
5.0686235452783004
 20
-3.5966984369565038
 10
4.9507739690071109
 20
-3.5133595863209108
 10
4.8382210029054118
 20
-3.4238965301768429
 10
4.730964646973205
 20
-3.328309268524301
 10
4.6290049012104886
 20
-3.2265978013632841
 10
4.5323417656172662
 20
-3.1187621286937932
 10
4.4409752401935361
 20
-3.0048022505158269
 10
4.3549053249392982
 20
-2.8847181668293871
 10
4.2638787992721658
 20
-2.736414357003027
 10
4.1854137995155751
 20
-2.7946757939480298
 10
3.9579906003630319
 20
-2.9545672134395549
 10
3.7259328673121841
 20
-3.1058516414056561
 10
3.4892406003630319
 20
-3.2485290778463338
 10
3.2479137995155751
 20
-3.3825995227615868
 10
3.0016214266342218
 20
-3.5064077854734532
 10
2.7500324435833781
 20
-3.6182986753039619
 10
2.4931468503630412
 20
-3.7182721922531141
 10
2.230964646973209
 20
-3.8063283363209099
 10
1.962823757142699
 20
-3.8781636117446392
 10
1.6880621046003299
 20
-3.929474522761589
 10
1.406679689346096
 20
-3.960261069371759
 10
1.118676511379991
 20
-3.9705232515751478
 10
0.9759163154054118
 20
-3.9573644856853178
 10
0.8389492868037154
 20
-3.9178881880158261
 10
0.7077754255749016
 20
-3.8520943585666729
 10
0.5823947317189699
 20
-3.7599829973378598
 10
0.4628072052359202
 20
-3.6415541043293849
 10
0.3490128461257519
 20
-3.496807679541249
 10
0.2410116543884648
 20
-3.3257437229734532
 10
0.1388036300240585
 20
-3.1283622346259961
 10
0.045699154388466
 20
-2.9056563289056569
 10
-0.0349913911623809
 20
-2.6586191202192171
 10
-0.1032680066284821
 20
-2.3872506085666738
 10
-0.1591306920098375
 20
-2.0915507939480298
 10
-0.2025794473064473
 20
-1.7715196763632839
 10
-0.2336142725183115
 20
-1.4271572558124359
 10
-0.25223516764543
 20
-1.058463532295487
 10
-0.2584421326878028
 20
-0.665438505812435
 10
-0.2531455225183101
 20
-0.3413521710666728
 10
-0.2372556920098339
 20
-0.0046863871683686
 10
-0.2107726411623768
 20
0.3445588458824785
 10
-0.1736963699759415
 20
0.7063835280858692
 10
-0.0783573869251009
 20
1.470419545035021
 10
0.0381680368037123
 20
2.290069968763834
 10
-0.1313234886200108
 20
2.290069968763834
 10
-2.9067472174335691
 20
-3.218404607507352
 10
-3.0159898021793379
 20
-3.4183516414056561
 10
-3.1318531496369668
 20
-3.5838707092022659
 10
-3.2543372598064608
 20
-3.7149618108971811
 10
-3.318062100908159
 20
-3.767596874456502
 10
-3.3834421326878261
 20
-3.8116249464904008
 10
-3.5211539970946002
 20
-3.881142954964977
 10
-3.6694590818403601
 20
-3.930798675303961
 10
-3.8283573869251062
 20
-3.9605921075073511
 10
-3.9978489123488381
 20
-3.9705232515751478
 10
-4.2044167089590054
 20
-3.9589369168293862
 10
-4.3897980648912078
 20
-3.9241779125920981
 10
-4.5539929801454431
 20
-3.8662462388632841
 10
-4.6281455225183228
 20
-3.8285906509395549
 10
-4.6970014547217094
 20
-3.7851418956429441
 10
-4.8218028318403494
 20
-3.684506302422605
 10
-4.9313764547217058
 20
-3.5679808786937919
 10
-5.0257223233657768
 20
-3.4355656244565029
 10
-5.1048404377725607
 20
-3.2872605397107399
 10
-5.1609030885427511
 20
-3.1514686496029189
 10
-5.2079184205559192
 20
-3.0080286183568412
 10
-5.2453440319672371
 20
-2.856852230978427
 10
-5.2726375209318768
 20
-2.6978512724735921
 10
-5.6609845055691572
 20
-3.0383198617446392
 10
-5.9198563276030631
 20
-3.2369427431005722
 10
-6.1879972174335727
 20
-3.4196757939480298
 10
-6.4654071750606912
 20
-3.586519014287012
 10
-6.752086200484424
 20
-3.737472404117522
 10
-6.8977429801454448
 20
-3.8045076265751492
 10
-7.0433997598064622
 20
-3.862604819371759
 10
-7.1890565394674786
 20
-3.9117639825073529
 10
-7.334713319128495
 20
-3.951985115981929
 10
-7.4803700987895114
 20
-3.9832682197954892
 10
-7.626026878450527
 20
-4.0056132939480307
 10
-7.7716836581115443
 20
-4.0190203384395566
 10
-7.9173404377725642
 20
-4.0234893532700653
 10
-8.0884871538742544
 20
-4.0164547928887098
 10
-8.2523510309928945
 20
-3.995351111744641
 10
-8.4089320691284879
 20
-3.960178309837862
 10
-8.5582302682810329
 20
-3.9109363871683702
 10
-8.7002456284505261
 20
-3.847625343736166
 10
-8.8349781496369708
 20
-3.7702451795412499
 10
-8.9624278318403618
 20
-3.6787958945836232
 10
-9.0825946750607045
 20
-3.5732774888632828
 10
-9.1971338699759517
 20
-3.454352038651419
 10
-9.3077006072640849
 20
-3.3226816202192162
 10
-9.4142948869250986
 20
-3.1782662335666738
 10
-9.5169167089589983
 20
-3.0211058786937919
 10
-9.6155660733657804
 20
-2.8512005556005722
 10
-9.7102429801454448
 20
-2.668550264287012
 10
-9.8009474292979881
 20
-2.473155004753115
 10
-9.8876794208234173
 20
-2.265014776998878
 10
-10.02208090387426
 20
-2.4139819380158269
 10
-10.17104806489121
 20
-2.5642732515751478
 10
-10.33458090387426
 20
-2.7158887176768429
 10
-10.51267942082341
 20
-2.8688283363209091
 10
-10.70236427251832
 20
-3.0187886117446392
 10
-10.900656115738659
 20
-3.161466048185317
 10
-11.107554950484429
 20
-3.296860645642945
 10
-11.32306077675562
 20
-3.424972404117522
 10
-11.54518736573867
 20
-3.5438150947954878
 10
-11.77194848862003
 20
-3.651402488863285
 10
-12.003344145399691
 20
-3.7477345863209122
 10
-12.23937433607764
 20
-3.8328113871683702
 10
-12.47772179370476
 20
-3.902329395642945
 10
-12.716069251331881
 20
-3.9519851159819281
 10
-12.954416708959011
 20
-3.981778548185317
 10
-13.19276416658613
 20
-3.9917096922531141
 10
-13.445346264043749
 20
-3.9787992049649779
 10
-13.69461798014544
 20
-3.9400677431005722
 10
-13.94057931489121
 20
-3.875515306659894
 10
-14.183230268281051
 20
-3.7851418956429441
 10
-14.41727423014545
 20
-3.6706027007276898
 10
-14.63741459031494
 20
-3.5335529125920981
 10
-14.843651348789519
 20
-3.373992531236166
 10
-15.035984505569189
 20
-3.1919215566598949
 10
-15.212096793704781
 20
-2.9880020651344701
 10
-15.369670946247149
 20
-2.7628961329310791
 10
-15.5087069631963
 20
-2.516603760049724
 10
-15.62920484455222
 20
-2.2491249464904
 10
-15.681343350908151
 20
-2.1078544221259938
 10
-15.72653005641663
 20
-1.9621148829310791
 10
-15.764764961077651
 20
-1.8119063289056561
 10
-15.796048064891201
 20
-1.657228760049724
 10
-15.83775886997595
 20
-1.3344665778463349
 10
-15.85166247167086
 20
-0.9938283363209126
 10
-15.83775886997595
 20
-0.5939342685243005
 10
-15.796048064891201
 20
-0.188743590558198
 10
-15.72653005641663
 20
0.2217436975773949
 10
-15.62920484455222
 20
0.6375275958824782
 10
-15.507382810653921
 20
1.0536425323231571
 10
-15.36437433607766
 20
1.465122934865529
 10
-15.200179420823421
 20
1.8719688035095969
 10
-15.01479806489121
 20
2.2741801382553599
 10
-14.809885458959011
 20
2.6684465577468859
 10
-14.58709679370477
 20
3.051457680628241
 10
-14.3464320691285
 20
3.4232135068994261
 10
-14.087891285230199
 20
3.7837140365604429
 10
-13.81412274709461
 20
4.1273316213062063
 10
-13.527774759806469
 20
4.4484386128316302
 10
-13.228847323365789
 20
4.747035011136715
 10
-12.917340437772561
 20
5.0231208162214607
 10
-12.595240331840371
 20
5.274378761136715
 10
-12.264533234382739
 20
5.4984915789333257
 10
-11.92521914539968
 20
5.6954592696112929
 10
-11.577298064891201
 20
5.8652818331706156
 10
-11.40077197908612
 20
5.9385240206706156
 10
-11.22341829794205
 20
6.0020005831706156
 10
-11.045237021459
 20
6.0557115206706156
 10
-10.86622814963696
 20
6.0996568331706156
 10
-10.686391682475939
 20
6.1338365206706156
 10
-10.505727619975939
 20
6.1582505831706156
 10
-10.32423596213696
 20
6.1728990206706156
 10
-10.141916708958989
 20
6.1777818331706156
 10
-10.026715437772561
 20
6.1718231467299383
 10
-9.9247556920098532
 20
6.1539470874079036
 10
-9.8360374716708741
 20
6.1241536552045126
 10
-9.7605607767556251
 20
6.0824428501197652
 10
-9.6347662852301923
 20
5.9804831043570559
 10
-9.5328065394674866
 20
5.8652818331706156
 10
-9.3580184038742686
 20
5.6269343755434953
 10
-9.3129972174335798
 20
5.5726441213062063
 10
-9.2626794208234031
 20
5.5262987823231562
 10
-9.2070650140437387
 20
5.4878983585943431
 10
-9.1461539970945864
 20
5.4574428501197652
 10
-9.017711200484424
 20
5.4137458162214616
 10
-8.886620098789507
 20
5.3885869179163777
 10
-8.752880692009839
 20
5.3766695450350213
 10
-8.616492980145436
 20
5.3726970874079036
 10
-8.3781455225183361
 20
5.3779936975773914
 10
-8.1397980648912078
 20
5.3832903077468863
 10
-7.9861963699759517
 20
5.3753453924926493
 10
-7.8431878953996934
 20
5.3515106467299383
 10
-7.7763181920098523
 20
5.3309862823231571
 10
-7.7134209462471386
 20
5.3011928501197669
 10
-7.654496158111546
 20
5.2621303501197669
 10
-7.5995438276030693
 20
5.2137987823231562
 10
-7.5495570691284897
 20
5.1555360704587487
 10
-7.5055289970945918
 20
5.0866801382553586
 10
-7.4674596115013756
 20
5.0072309857129884
 10
-7.4353489123488412
 20
4.9171886128316338
 10
-7.4098589759081559
 20
4.8132426382553612
 10
-7.3916518784505261
 20
4.6920826806282419
 10
-7.3807276199759499
 20
4.5537087399502747
 10
-7.3770862004844258
 20
4.3981208162214607
 10
-7.3837069631962908
 20
4.1369317272384114
 10
-7.403569251331886
 20
3.8618390365604438
 10
-7.4366730648912114
 20
3.5728427441875619
 10
-7.4830184038742669
 20
3.2699428501197652
 10
-7.5942472174335709
 20
2.642294545035019
 10
-7.7160692513318718
 20
1.9987564094418
 10
-7.8378912852301763
 20
1.3472733585943431
 10
-7.9491200987895052
 20
0.6957903077468866
 10
-7.9954654377725607
 20
0.3743522780858698
 10
-8.028569251331886
 20
0.0615212399502764
 10
-8.0484315394674812
 20
-0.2427028066598934
 10
-8.0550523021793463
 20
-0.5383198617446392
 10
-8.0494246538742615
 20
-0.7736879761514189
 10
-8.0325417089590072
 20
-0.9819109634395544
 10
-8.0044034674335833
 20
-1.162988823609046
 10
-7.9650099292979899
 20
-1.3169215566598951
 10
-7.9392717142556162
 20
-1.382715386109048
 10
-7.9070782555691732
 20
-1.4397367049649801
 10
-7.8684295532386628
 20
-1.4879855132276909
 10
-7.8233256072640831
 20
-1.527461810897182
 10
-7.771766417645436
 20
-1.558165597973453
 10
-7.7137519843827214
 20
-1.5800968744565029
 10
-7.6492823074759384
 20
-1.593255640346334
 10
-7.5783573869250898
 20
-1.5976418956429439
 10
-7.4658044208234049
 20
-1.5906900947954861
 10
-7.350603149636969
 20
-1.5698346922531139
 10
-7.232753573365784
 20
-1.5350756880158261
 10
-7.1122556920098514
 20
-1.4864130820836221
 10
-6.8672874716708714
 20
-1.3579702854734521
 10
-6.6196709462471368
 20
-1.195099522761587
 10
-6.3707302682810329
 20
-1.00309740411752
 10
-6.1217895903149291
 20
-0.7872605397107395
 10
-5.8794696750606867
 20
-0.5555338447954861
 10
-5.6503912852301958
 20
-0.3158622346259956
 10
-5.225274578152348
 20
0.1804669157694616
 10
-5.1439608215437129
 20
0.9465753629313454
 10
-5.0465777259081452
 20
1.723332680628243
 10
-4.9115141665861142
 20
2.6542119179163768
 10
-4.7605607767556197
 20
3.5506631891028171
 10
-4.6043107767556126
 20
4.3663411552045126
 10
-4.4533573869251146
 20
5.0549004772384123
 10
-4.42083289010308
 20
5.1742397251197678
 10
-4.3815221115013836
 20
5.2886134009672254
 10
-4.3354250511200281
 20
5.3980215047807842
 10
-4.2825417089590108
 20
5.5024640365604451
 10
-4.2228720850183334
 20
5.6019409963062081
 10
-4.1564161792979926
 20
5.6964523840180714
 10
-4.0831739917979926
 20
5.7859981996960368
 10
-4.0031455225183334
 20
5.8705784433401043
 10
-3.915999733323416
 20
5.947544809865529
 10
-3.8214055860776521
 20
6.0142489941875636
 10
-3.7193630807810378
 20
6.0706909963062081
 10
-3.609872217433578
 20
6.1168708162214616
 10
-3.49293299603527
 20
6.1527884539333284
 10
-3.3685454165861159
 20
6.1784439094418024
 10
-3.2367094790861168
 20
6.1938371827468872
 10
-3.0974251835352722
 20
6.1989682738485818
 10
-2.9598788381962842
 20
6.1935061446112929
 10
-2.833256751331874
 20
6.1771197568994287
 10
-2.7175589229420409
 20
6.1498091107129866
 10
-2.612785353026787
 20
6.1115742060519702
 10
-2.5189360415861111
 20
6.0624150429163768
 10
-2.4360109886200121
 20
6.0023316213062072
 10
-2.364010194128491
 20
5.9313239412214607
 10
-2.3029336581115492
 20
5.8493920026621389
 10
-2.250795151755614
 20
5.7583565153740039
 10
-2.2056084462471381
 20
5.6600381891028171
 10
-2.1673735415861208
 20
5.5544370238485801
 10
-2.136090437772562
 20
5.441553019611292
 10
-2.1117591348064622
 20
5.3213861763909538
 10
-2.094379632687819
 20
5.1939364941875636
 10
-2.0804760309929051
 20
4.9171886128316338
 10
-2.0884209462471328
 20
4.730483104357055
 10
-2.1122556920098461
 20
4.4881631891028171
 10
-2.1917048445522131
 20
3.8949428501197652
 10
-2.2923404377725589
 20
3.227569968763834
 10
-2.3929760309929051
 20
2.5919767484248522
 10
-2.4724251835352722
 20
2.0835021721536648
 10
-2.4962599292979739
 20
1.9020932738485801
 10
-2.5042048445522131
 20
1.792188612831634
 10
-2.2923404377725589
 20
1.792188612831634
 10
-2.0910692513318661
 20
2.1682479348655299
 10
-1.7732726411624
 20
2.7667648840180701
 10
-1.3866200987894981
 20
3.4818072568994261
 10
-0.9999675564166337
 20
4.2021462399502774
 10
-0.671577725908149
 20
4.8112564094417998
 10
-0.4491200987895054
 20
5.2032055619841726
 10
-0.3628846644674677
 20
5.3405863882553604
 10
-0.2736698869250918
 20
5.4667119179163777
 10
-0.1814757661623776
 20
5.5815821509672254
 10
-0.0863023021793251
 20
5.6851970874079036
 10
0.0118505050240657
 20
5.7775567272384123
 10
0.1129826554477947
 20
5.8586610704587514
 10
0.2170941490918621
 20
5.9285101170689209
 10
0.324184985956268
 20
5.9871038670689209
 10
0.5473046893460936
 20
6.0797945450350221
 10
0.7823417656172746
 20
6.1460021721536666
 10
1.0292962147698139
 20
6.1857267484248526
 10
1.2881680368037141
 20
6.1989682738485818
 10
1.4171901501511741
 20
6.1920164730011242
 10
1.539425981718973
 20
6.1711610704587514
 10
1.6548755315071111
 20
6.1364020662214616
 10
1.763538799515586
 20
6.0877394602892583
 10
1.8654157857443989
 20
6.0251732526621389
 10
1.9605064901935501
 20
5.9487034433401043
 10
2.0488109128630381
 20
5.8583300323231562
 10
2.1303290537528619
 20
5.7540530196112911
 10
2.203571241252865
 20
5.6375275958824762
 10
2.2670478037528659
 20
5.5104089518146804
 10
2.3207587412528659
 20
5.3726970874079001
 10
2.3647040537528659
 20
5.2243920026621389
 10
2.398883741252865
 20
5.0654936975773932
 10
2.4232978037528641
 20
4.8960021721536648
 10
2.4379462412528632
 20
4.7159174263909538
 10
2.4428290537528619
 20
4.5252394602892601
 10
2.430911680871513
 20
4.3689894602892583
 10
2.3951595622274371
 20
4.1332903077468863
 10
2.2733375283291388
 20
3.4765106467299378
 10
2.1091426130749111
 20
2.6396462399502769
 10
2.0230726978206759
 20
2.1788411552045139
 10
1.944947697820683
 20
1.7074428501197649
 10
1.877415918159655
 20
1.233396239950276
 10
1.823125663922357
 20
0.7646462399502776
 10
1.787373545278292
 20
0.3170826806282422
 10
1.775456172396932
 20
-0.093404607507352
 10
1.785718354600321
 20
-0.4072287600497249
 10
1.8165049012104919
 20
-0.691921556659894
 10
1.8678158122274471
 20
-0.9474829973378596
 10
1.9396510876511881
 20
-1.1739130820836221
 10
1.983596400151185
 20
-1.2732245227615879
 10
2.0333348800240638
 20
-1.3592944380158249
 10
2.0888665272698228
 20
-1.432122827846334
 10
2.1501913418884651
 20
-1.491709692253113
 10
2.217309323879987
 20
-1.538055031236164
 10
2.2902204732443932
 20
-1.5711588447954861
 10
2.3689247899816812
 20
-1.5910211329310791
 10
2.4534222740918521
 20
-1.5976418956429439
 10
2.5358507698545689
 20
-1.5916832092022659
 10
2.62423795205796
 20
-1.573807149880232
 10
2.718583820702027
 20
-1.544013717676842
 10
2.8188883757867731
 20
-1.5023029125920959
 10
3.033401087651185
 20
-1.3923982515751481
 10
3.2638036300240598
 20
-1.2533622346259961
 10
3.4871045676432102
 20
-1.100527456045501
 10
3.7145097778052638
 20
-0.9266142148674805
 10
3.697945521853145
 20
-0.7020078422879514
 10
3.6928290537528619
 20
-0.4747605397107395
 10
3.7037533122274402
 20
-0.1347843744565035
 10
3.7365260876511699
 20
0.2071780196112928
 10
3.7911473800240509
 20
0.551126642492649
 10
3.8676171893460798
 20
0.8970614941875648
 10
3.9649424012104961
 20
1.2413411552045139
 10
4.0821299012104992
 20
1.5803242060519711
 10
4.2191796893460918
 20
1.9140106467299369
 10
4.3760917656172778
 20
2.2424004772384118
 10
4.5518730156172778
 20
2.5635074687638362
 10
4.7455303249393124
 20
2.875345392492648
 10
4.9570636935833816
 20
3.1779142484248508
 10
5.1864731215494846
 20
3.4712140365604429
 10
5.4327654944308437
 20
3.7519343755434962
 10
5.6949476978206759
 20
4.0167648840180723
 10
5.9730197317189822
 20
4.2657055619841726
 10
6.2669815961257624
 20
4.4987564094417998
 10
6.5755091384986404
 20
4.7142622357129866
 10
6.8972782062952431
 20
4.9105678501197669
 10
7.232288799515576
 20
5.0876732526621389
 10
7.5805409181596444
 20
5.2455784433401043
 10
7.7594670304477793
 20
5.3162550852892583
 10
7.9413724859562533
 20
5.3799799263909529
 10
8.1262572846850674
 20
5.4367529666451908
 10
8.3141214266342196
 20
5.4865742060519702
 10
8.6987877401935378
 20
5.5653612823231571
 10
9.0953714266342107
 20
5.6163411552045126
 10
9.1225165537528632
 20
6.292321028085869
 10
9.1721722740918548
 20
6.964328443340106
 10
9.2443385876511783
 20
7.6323634009672237
 10
9.3390154944308339
 20
8.2964259009672254
 10
9.4535546893460953
 20
8.9505572568994278
 10
9.5853078673121974
 20
9.5887987823231562
 10
9.7342750283291402
 20
10.211150477238411
 10
9.9004561723969235
 20
10.817612341645191
 10
10.08285818510879
 20
11.404873994187559
 10
10.28048795205795
 20
11.969625053509599
 10
10.4933454732444
 20
12.511865519611289
 10
10.721430748668119
 20
13.03159539249264
 10
10.96275754951558
 20
13.52285598571298
 10
11.215339646973209
 20
13.97968861283163
 10
11.479177041041011
 20
14.40209327384858
 10
11.754269731718971
 20
14.79006996876384
 10
11.895788534685069
 20
14.970402993128239
 10
12.039624604600331
 20
15.140639354357059
 10
12.18577794146473
 20
15.300779052450279
 10
12.334248545278291
 20
15.450822087407911
 10
12.485036416041011
 20
15.59076845922994
 10
12.63814155375287
 20
15.720618167916379
 10
12.793563958413889
 20
15.840371213467231
 10
12.95130363002405
 20
15.95002759588248
 10
13.11086401137999
 20
16.048097643551969
 10
13.271748545278291
 20
16.13309168486553
 10
13.433957231718971
 20
16.205009719823149
 10
13.597490070702021
 20
16.263851748424859
 10
13.762347062227439
 20
16.309617770670609
 10
13.92852820629524
 20
16.34230778656045
 10
14.09603350290541
 20
16.36192179609435
  0
ENDSEC
  0
SECTION
  2
OBJECTS
  0
DICTIONARY
  5
C
100
AcDbDictionary
280
0
281
1
  3
ACAD_GROUP
350
D
  3
ACAD_LAYOUT
350
1A
  3
ACAD_MLINESTYLE
350
17
  3
ACAD_PLOTSETTINGS
350
19
  3
ACAD_PLOTSTYLENAME
350
E
  3
AcDbVariableDictionary
350
4A
  0
DICTIONARY
  5
D
100
AcDbDictionary
280
0
281
1
  0
ACDBDICTIONARYWDFLT
  5
E
100
AcDbDictionary
281
1
  3
Normal
350
F
100
AcDbDictionaryWithDefault
340
F
  0
ACDBPLACEHOLDER
  5
F
  0
DICTIONARY
  5
17
100
AcDbDictionary
280
0
281
1
  3
Standard
350
18
  0
MLINESTYLE
  5
18
100
AcDbMlineStyle
  2
STANDARD
 70
0
  3

 62
256
 51
90.0
 52
90.0
 71
2
 49
0.5
 62
256
  6
BYLAYER
 49
-0.5
 62
256
  6
BYLAYER
  0
DICTIONARY
  5
19
100
AcDbDictionary
280
0
281
1
  0
DICTIONARY
  5
1A
100
AcDbDictionary
281
1
  3
Layout1
350
1E
  3
Layout2
350
26
  3
Model
350
22
  0
LAYOUT
  5
1E
100
AcDbPlotSettings
  1

  2
C:\Program Files\AutoCAD 2002\plotters\DWF ePlot (optimized for plotting).pc3
  4

  6

 40
0.0
 41
0.0
 42
0.0
 43
0.0
 44
0.0
 45
0.0
 46
0.0
 47
0.0
 48
0.0
 49
0.0
140
0.0
141
0.0
142
1.0
143
1.0
 70
688
 72
0
 73
0
 74
5
  7

 75
16
147
1.0
148
0.0
149
0.0
100
AcDbLayout
  1
Layout1
 70
1
 71
1
 10
0.0
 20
0.0
 11
420.0
 21
297.0
 12
0.0
 22
0.0
 32
0.0
 14
100000000000000000000.0
 24
100000000000000000000.0
 34
100000000000000000000.0
 15
-100000000000000000000.0
 25
-100000000000000000000.0
 35
-100000000000000000000.0
146
0.0
 13
0.0
 23
0.0
 33
0.0
 16
1.0
 26
0.0
 36
0.0
 17
0.0
 27
1.0
 37
0.0
 76
0
330
1B
  0
LAYOUT
  5
22
100
AcDbPlotSettings
  1

  2
C:\Program Files\AutoCAD 2002\plotters\DWF ePlot (optimized for plotting).pc3
  4

  6

 40
0.0
 41
0.0
 42
0.0
 43
0.0
 44
0.0
 45
0.0
 46
0.0
 47
0.0
 48
0.0
 49
0.0
140
0.0
141
0.0
142
1.0
143
1.0
 70
1712
 72
0
 73
0
 74
0
  7

 75
0
147
1.0
148
0.0
149
0.0
100
AcDbLayout
  1
Model
 70
1
 71
0
 10
0.0
 20
0.0
 11
12.0
 21
9.0
 12
0.0
 22
0.0
 32
0.0
 14
0.0
 24
0.0
 34
0.0
 15
0.0
 25
0.0
 35
0.0
146
0.0
 13
0.0
 23
0.0
 33
0.0
 16
1.0
 26
0.0
 36
0.0
 17
0.0
 27
1.0
 37
0.0
 76
0
330
1F
  0
LAYOUT
  5
26
100
AcDbPlotSettings
  1

  2
C:\Program Files\AutoCAD 2002\plotters\DWF ePlot (optimized for plotting).pc3
  4

  6

 40
0.0
 41
0.0
 42
0.0
 43
0.0
 44
0.0
 45
0.0
 46
0.0
 47
0.0
 48
0.0
 49
0.0
140
0.0
141
0.0
142
1.0
143
1.0
 70
688
 72
0
 73
0
 74
5
  7

 75
16
147
1.0
148
0.0
149
0.0
100
AcDbLayout
  1
Layout2
 70
1
 71
2
 10
0.0
 20
0.0
 11
12.0
 21
9.0
 12
0.0
 22
0.0
 32
0.0
 14
0.0
 24
0.0
 34
0.0
 15
0.0
 25
0.0
 35
0.0
146
0.0
 13
0.0
 23
0.0
 33
0.0
 16
1.0
 26
0.0
 36
0.0
 17
0.0
 27
1.0
 37
0.0
 76
0
330
23
  0
DICTIONARY
  5
4A
100
AcDbDictionary
281
1
  3
DIMASSOC
350
4C
  3
HIDETEXT
350
4B
  0
DICTIONARYVAR
  5
4B
100
DictionaryVariables
280
0
  1
2
  0
DICTIONARYVAR
  5
4C
100
DictionaryVariables
280
0
  1
1
  0
ENDSEC
  0
EOF
