999
dxflib 2.0.4.8
  0
SECTION
  2
HEADER
  9
$ACADVER
  1
AC1015
  9
$HANDSEED
  5
FFFF
  9
$USERR4
 40
0.0
  9
$DIMTAD
 70
0
  9
$VISRETAIN
 70
1
  9
$TILEMODE
 70
1
  9
$SHADEDIF
 70
70
  9
$USERR5
 40
0.0
  9
$UCSYDIR
 10
0.0
 20
1.0
 30
0.0
  9
$ATTREQ
 70
1
  9
$CHAMFERA
 40
0.5
  9
$MENU
  1
.
  9
$CLAYER
  8
0
  9
$UCSXDIR
 10
1.0
 20
0.0
 30
0.0
  9
$CHAMFERB
 40
0.5
  9
$DIMASZ
 40
0.18
  9
$TRACEWID
 40
0.05
  9
$REGENMODE
 70
1
  9
$ORTHOMODE
 70
0
  9
$EXTMIN
 10
-48.764587036926812
 20
-41.43038938381752
 30
0.0
  9
$PUCSYDIR
 10
0.0
 20
1.0
 30
0.0
  9
$ANGBASE
 50
0.0
  9
$USRTIMER
 70
1
  9
$SKETCHINC
 40
0.1
  9
$DIMGAP
 40
0.09
  9
$DIMTFAC
 40
1.0
  9
$DIMSAH
 70
0
  9
$DIMALT
 70
0
  9
$DIMSHO
 70
1
  9
$PUCSXDIR
 10
1.0
 20
0.0
 30
0.0
  9
$SURFTYPE
 70
6
  9
$SPLFRAME
 70
0
  9
$DIMTSZ
 40
0.0
  9
$LIMMIN
 10
0.0
 20
0.0
  9
$SURFTAB1
 70
6
  9
$SPLINESEGS
 70
8
  9
$AUPREC
 70
0
  9
$LUNITS
 70
2
  9
$DWGCODEPAGE
  3
ansi_1252
  9
$UNITMODE
 70
0
  9
$USERI1
 70
0
  9
$SURFTAB2
 70
6
  9
$SKPOLY
 70
0
  9
$ELEVATION
 40
0.0
  9
$DIMCEN
 40
0.09
  9
$DIMRND
 40
0.0
  9
$INSBASE
 10
0.0
 20
0.0
 30
0.0
  9
$USERI2
 70
0
  9
$UCSORG
 10
0.0
 20
0.0
 30
0.0
  9
$PELEVATION
 40
0.0
  9
$DIMEXO
 40
0.0625
  9
$TEXTSIZE
 40
0.2
  9
$DRAGMODE
 70
2
  9
$FILLMODE
 70
1
  9
$EXTMAX
 10
45.361558058305789
 20
47.030490527063577
 30
0.0
  9
$INSUNITS
 70
4
  9
$USERI3
 70
0
  9
$SURFU
 70
6
  9
$ANGDIR
 70
0
  9
$TDUSRTIMER
 40
0.0000000116
  9
$DIMZIN
 70
0
  9
$DIMDLE
 40
0.0
  9
$DIMSCALE
 40
1.0
  9
$WORLDVIEW
 70
1
  9
$USERI4
 70
0
  9
$SURFV
 70
6
  9
$OSMODE
 70
37
  9
$QTEXTMODE
 70
0
  9
$LIMMAX
 10
12.0
 20
9.0
  9
$USERI5
 70
0
  9
$HANDLING
 70
1
  9
$PDMODE
 70
0
  9
$LIMCHECK
 70
0
  9
$THICKNESS
 40
0.0
  9
$DIMSE1
 70
0
  9
$DIMLIM
 70
0
  9
$DIMTXT
 40
0.18
  9
$ATTMODE
 70
1
  9
$PEXTMAX
 10
-100000000000000000000.0
 20
-100000000000000000000.0
 30
-100000000000000000000.0
  9
$PEXTMIN
 10
100000000000000000000.0
 20
100000000000000000000.0
 30
100000000000000000000.0
  9
$PUCSORG
 10
0.0
 20
0.0
 30
0.0
  9
$SPLINETYPE
 70
6
  9
$TDINDWG
 40
0.0000000116
  9
$LUPREC
 70
4
  9
$DIMSOXD
 70
0
  9
$DIMLFAC
 40
1.0
  9
$DIMSE2
 70
0
  9
$DIMTOH
 70
1
  9
$CELTYPE
  6
BYLAYER
  9
$PLIMCHECK
 70
0
  9
$PLINEWID
 40
0.0
  9
$DIMSTYLE
  2
STANDARD
  9
$DIMTVP
 40
0.0
  9
$DIMASO
 70
1
  9
$DIMTM
 40
0.0
  9
$DIMDLI
 40
0.38
  9
$CECOLOR
 62
256
  9
$PLIMMAX
 10
12.0
 20
9.0
  9
$PLIMMIN
 10
0.0
 20
0.0
  9
$MAXACTVP
 70
64
  9
$TDUPDATE
 40
2456282.3133926499
  9
$FILLETRAD
 40
0.5
  9
$DIMCLRT
 70
0
  9
$DIMALTD
 70
2
  9
$DIMTIH
 70
1
  9
$LTSCALE
 40
1.0
  9
$USERR1
 40
0.0
  9
$ATTDIA
 70
0
  9
$PDSIZE
 40
0.0
  9
$DIMCLRD
 70
0
  9
$DIMEXE
 40
0.18
  9
$PSLTSCALE
 70
1
  9
$PLINEGEN
 70
0
  9
$SHADEDGE
 70
3
  9
$USERR2
 40
0.0
  9
$COORDS
 70
1
  9
$TDCREATE
 40
2454910.5
  9
$DIMCLRE
 70
0
  9
$DIMTOFL
 70
0
  9
$DIMALTF
 40
25.399999999999999
  9
$DIMTOL
 70
0
  9
$DIMTP
 40
0.0
  9
$TEXTSTYLE
  7
STANDARD
  9
$USERR3
 40
0.0
  9
$AUNITS
 70
0
  9
$DIMTIX
 70
0
  9
$MIRRTEXT
 70
1
  0
ENDSEC
  0
SECTION
  2
TABLES
  0
TABLE
  2
VPORT
  5
8
100
AcDbSymbolTable
 70
1
  0
VPORT
  5
30
100
AcDbSymbolTableRecord
100
AcDbViewportTableRecord
  2
*Active
 70
0
 10
0.0
 20
0.0
 11
1.0
 21
1.0
 12
286.30555555555549
 22
148.5
 13
0.0
 23
0.0
 14
10.0
 24
10.0
 15
10.0
 25
10.0
 16
0.0
 26
0.0
 36
1.0
 17
0.0
 27
0.0
 37
0.0
 40
297.0
 41
1.92798353909465
 42
50.0
 43
0.0
 44
0.0
 50
0.0
 51
0.0
 71
0
 72
100
 73
1
 74
3
 75
1
 76
1
 77
0
 78
0
281
0
 65
1
110
0.0
120
0.0
130
0.0
111
1.0
121
0.0
131
0.0
112
0.0
122
1.0
132
0.0
 79
0
146
0.0
  0
ENDTAB
  0
TABLE
  2
LTYPE
  5
5
100
AcDbSymbolTable
 70
21
  0
LTYPE
  5
14
100
AcDbSymbolTableRecord
100
AcDbLinetypeTableRecord
  2
ByBlock
 70
0
  3

 72
65
 73
0
 40
0.0
  0
LTYPE
  5
15
100
AcDbSymbolTableRecord
100
AcDbLinetypeTableRecord
  2
ByLayer
 70
0
  3

 72
65
 73
0
 40
0.0
  0
LTYPE
  5
16
100
AcDbSymbolTableRecord
100
AcDbLinetypeTableRecord
  2
CONTINUOUS
 70
0
  3
Solid line
 72
65
 73
0
 40
0.0
  0
LTYPE
  5
31
100
AcDbSymbolTableRecord
100
AcDbLinetypeTableRecord
  2
DOT
 70
0
  3
Dot . . . . . . . . . . . . . . . . . . . . . .
 72
65
 73
2
 40
6.3499999999999996
 49
0.0
 74
0
 49
-6.3499999999999996
 74
0
  0
LTYPE
  5
32
100
AcDbSymbolTableRecord
100
AcDbLinetypeTableRecord
  2
DOT2
 70
0
  3
Dot (.5x) .....................................
 72
65
 73
2
 40
3.1749999999999998
 49
0.0
 74
0
 49
-3.1749999999999998
 74
0
  0
LTYPE
  5
33
100
AcDbSymbolTableRecord
100
AcDbLinetypeTableRecord
  2
DOTX2
 70
0
  3
Dot (2x) .  .  .  .  .  .  .  .  .  .  .  .  .
 72
65
 73
2
 40
12.699999999999999
 49
0.0
 74
0
 49
-12.699999999999999
 74
0
  0
LTYPE
  5
34
100
AcDbSymbolTableRecord
100
AcDbLinetypeTableRecord
  2
DASHED
 70
0
  3
Dashed __ __ __ __ __ __ __ __ __ __ __ __ __ _
 72
65
 73
2
 40
19.050000000000001
 49
12.699999999999999
 74
0
 49
-6.3499999999999996
 74
0
  0
LTYPE
  5
35
100
AcDbSymbolTableRecord
100
AcDbLinetypeTableRecord
  2
DASHED2
 70
0
  3
Dashed (.5x) _ _ _ _ _ _ _ _ _ _ _ _ _ _ _ _ _
 72
65
 73
2
 40
9.5250000000000004
 49
6.3499999999999996
 74
0
 49
-3.1749999999999998
 74
0
  0
LTYPE
  5
36
100
AcDbSymbolTableRecord
100
AcDbLinetypeTableRecord
  2
DASHEDX2
 70
0
  3
Dashed (2x) ____  ____  ____  ____  ____  ___
 72
65
 73
2
 40
38.100000000000001
 49
25.399999999999999
 74
0
 49
-12.699999999999999
 74
0
  0
LTYPE
  5
37
100
AcDbSymbolTableRecord
100
AcDbLinetypeTableRecord
  2
DASHDOT
 70
0
  3
Dash dot __ . __ . __ . __ . __ . __ . __ . __
 72
65
 73
4
 40
25.399999999999999
 49
12.699999999999999
 74
0
 49
-6.3499999999999996
 74
0
 49
0.0
 74
0
 49
-6.3499999999999996
 74
0
  0
LTYPE
  5
38
100
AcDbSymbolTableRecord
100
AcDbLinetypeTableRecord
  2
DASHDOT2
 70
0
  3
Dash dot (.5x) _._._._._._._._._._._._._._._.
 72
65
 73
4
 40
12.699999999999999
 49
6.3499999999999996
 74
0
 49
-3.1749999999999998
 74
0
 49
0.0
 74
0
 49
-3.1749999999999998
 74
0
  0
LTYPE
  5
39
100
AcDbSymbolTableRecord
100
AcDbLinetypeTableRecord
  2
DASHDOTX2
 70
0
  3
Dash dot (2x) ____  .  ____  .  ____  .  ___
 72
65
 73
4
 40
50.799999999999997
 49
25.399999999999999
 74
0
 49
-12.699999999999999
 74
0
 49
0.0
 74
0
 49
-12.699999999999999
 74
0
  0
LTYPE
  5
3A
100
AcDbSymbolTableRecord
100
AcDbLinetypeTableRecord
  2
DIVIDE
 70
0
  3
Divide ____ . . ____ . . ____ . . ____ . . ____
 72
65
 73
6
 40
31.75
 49
12.699999999999999
 74
0
 49
-6.3499999999999996
 74
0
 49
0.0
 74
0
 49
-6.3499999999999996
 74
0
 49
0.0
 74
0
 49
-6.3499999999999996
 74
0
  0
LTYPE
  5
3B
100
AcDbSymbolTableRecord
100
AcDbLinetypeTableRecord
  2
DIVIDE2
 70
0
  3
Divide (.5x) __..__..__..__..__..__..__..__.._
 72
65
 73
6
 40
15.875
 49
6.3499999999999996
 74
0
 49
-3.1749999999999998
 74
0
 49
0.0
 74
0
 49
-3.1749999999999998
 74
0
 49
0.0
 74
0
 49
-3.1749999999999998
 74
0
  0
LTYPE
  5
3C
100
AcDbSymbolTableRecord
100
AcDbLinetypeTableRecord
  2
DIVIDEX2
 70
0
  3
Divide (2x) ________  .  .  ________  .  .  _
 72
65
 73
6
 40
63.5
 49
25.399999999999999
 74
0
 49
-12.699999999999999
 74
0
 49
0.0
 74
0
 49
-12.699999999999999
 74
0
 49
0.0
 74
0
 49
-12.699999999999999
 74
0
  0
LTYPE
  5
3D
100
AcDbSymbolTableRecord
100
AcDbLinetypeTableRecord
  2
CENTER
 70
0
  3
Center ____ _ ____ _ ____ _ ____ _ ____ _ ____
 72
65
 73
4
 40
50.799999999999997
 49
31.75
 74
0
 49
-6.3499999999999996
 74
0
 49
6.3499999999999996
 74
0
 49
-6.3499999999999996
 74
0
  0
LTYPE
  5
3E
100
AcDbSymbolTableRecord
100
AcDbLinetypeTableRecord
  2
CENTER2
 70
0
  3
Center (.5x) ___ _ ___ _ ___ _ ___ _ ___ _ ___
 72
65
 73
4
 40
28.574999999999999
 49
19.050000000000001
 74
0
 49
-3.1749999999999998
 74
0
 49
3.1749999999999998
 74
0
 49
-3.1749999999999998
 74
0
  0
LTYPE
  5
3F
100
AcDbSymbolTableRecord
100
AcDbLinetypeTableRecord
  2
CENTERX2
 70
0
  3
Center (2x) ________  __  ________  __  _____
 72
65
 73
4
 40
101.59999999999999
 49
63.5
 74
0
 49
-12.699999999999999
 74
0
 49
12.699999999999999
 74
0
 49
-12.699999999999999
 74
0
  0
LTYPE
  5
40
100
AcDbSymbolTableRecord
100
AcDbLinetypeTableRecord
  2
BORDER
 70
0
  3
Border __ __ . __ __ . __ __ . __ __ . __ __ .
 72
65
 73
6
 40
44.450000000000003
 49
12.699999999999999
 74
0
 49
-6.3499999999999996
 74
0
 49
12.699999999999999
 74
0
 49
-6.3499999999999996
 74
0
 49
0.0
 74
0
 49
-6.3499999999999996
 74
0
  0
LTYPE
  5
41
100
AcDbSymbolTableRecord
100
AcDbLinetypeTableRecord
  2
BORDER2
 70
0
  3
Border (.5x) __.__.__.__.__.__.__.__.__.__.__.
 72
65
 73
6
 40
22.225000000000001
 49
6.3499999999999996
 74
0
 49
-3.1749999999999998
 74
0
 49
6.3499999999999996
 74
0
 49
-3.1749999999999998
 74
0
 49
0.0
 74
0
 49
-3.1749999999999998
 74
0
  0
LTYPE
  5
42
100
AcDbSymbolTableRecord
100
AcDbLinetypeTableRecord
  2
BORDERX2
 70
0
  3
Border (2x) ____  ____  .  ____  ____  .  ___
 72
65
 73
6
 40
88.900000000000006
 49
25.399999999999999
 74
0
 49
-12.699999999999999
 74
0
 49
25.399999999999999
 74
0
 49
-12.699999999999999
 74
0
 49
0.0
 74
0
 49
-12.699999999999999
 74
0
  0
ENDTAB
  0
TABLE
  2
LAYER
  5
2
100
AcDbSymbolTable
 70
2
  0
LAYER
  5
10
100
AcDbSymbolTableRecord
100
AcDbLayerTableRecord
  2
0
 70
0
 62
7
  6
CONTINUOUS
390
F
  0
LAYER
  5
43
100
AcDbSymbolTableRecord
100
AcDbLayerTableRecord
  2
LAYER_1
 70
0
 62
18
  6
CONTINUOUS
390
F
  0
ENDTAB
  0
TABLE
  2
STYLE
  5
3
100
AcDbSymbolTable
 70
1
  0
STYLE
  5
11
100
AcDbSymbolTableRecord
100
AcDbTextStyleTableRecord
  2
Standard
 70
0
 40
0.0
 41
0.75
 50
0.0
 71
0
 42
2.5
  3
txt
  4

  0
ENDTAB
  0
TABLE
  2
VIEW
  5
6
100
AcDbSymbolTable
 70
0
  0
ENDTAB
  0
TABLE
  2
UCS
  5
7
100
AcDbSymbolTable
 70
0
  0
ENDTAB
  0
TABLE
  2
APPID
  5
9
100
AcDbSymbolTable
 70
1
  0
APPID
  5
12
100
AcDbSymbolTableRecord
100
AcDbRegAppTableRecord
  2
ACAD
 70
0
  0
ENDTAB
  0
TABLE
  2
DIMSTYLE
  5
A
100
AcDbSymbolTable
 70
1
100
AcDbDimStyleTable
 71
0
  0
DIMSTYLE
105
27
100
AcDbSymbolTableRecord
100
AcDbDimStyleTableRecord
  2
Standard
 41
0.18
 42
0.0625
 43
3.75
 44
0.18
 70
0
 73
0
 74
0
 77
1
 78
8
140
0.18
141
2.5
143
0.03937007874016
147
0.09
171
3
172
1
271
2
272
2
274
3
278
44
283
0
284
8
340
11
  0
ENDTAB
  0
TABLE
  2
BLOCK_RECORD
  5
1
100
AcDbSymbolTable
 70
1
  0
BLOCK_RECORD
  5
1F
100
AcDbSymbolTableRecord
100
AcDbBlockTableRecord
  2
*Model_Space
340
22
  0
BLOCK_RECORD
  5
1B
100
AcDbSymbolTableRecord
100
AcDbBlockTableRecord
  2
*Paper_Space
340
1E
  0
BLOCK_RECORD
  5
23
100
AcDbSymbolTableRecord
100
AcDbBlockTableRecord
  2
*Paper_Space0
340
26
  0
ENDTAB
  0
ENDSEC
  0
SECTION
  2
BLOCKS
  0
BLOCK
  5
20
100
AcDbEntity
  8
0
100
AcDbBlockBegin
  2
*Model_Space
 70
0
 10
0.0
 20
0.0
 30
0.0
  3
*Model_Space
  1

  0
ENDBLK
  5
21
100
AcDbEntity
  8
0
100
AcDbBlockEnd
  0
BLOCK
  5
1C
100
AcDbEntity
 67
1
  8
0
100
AcDbBlockBegin
  2
*Paper_Space
 70
0
 10
0.0
 20
0.0
 30
0.0
  3
*Paper_Space
  1

  0
ENDBLK
  5
1D
100
AcDbEntity
 67
1
  8
0
100
AcDbBlockEnd
  0
BLOCK
  5
24
100
AcDbEntity
  8
0
100
AcDbBlockBegin
  2
*Paper_Space0
 70
0
 10
0.0
 20
0.0
 30
0.0
  3
*Paper_Space0
  1

  0
ENDBLK
  5
25
100
AcDbEntity
  8
0
100
AcDbBlockEnd
  0
ENDSEC
  0
SECTION
  2
ENTITIES
  0
LWPOLYLINE
  5
44
  8
LAYER_1
 62
256
370
-1
  6
ByLayer
100
AcDbEntity
100
AcDbPolyline
 90
526
 70
1
 10
1.0549707896857401
 20
-41.287125090780627
 10
17.58284649476229
 20
-41.143860797743763
 10
20.60300349226782
 20
-39.41443163556503
 10
20.977585445760639
 20
-39.19178395062707
 10
21.345069680761039
 20
-38.957025367498453
 10
21.705261176009071
 20
-38.710458380885079
 10
22.057964910244799
 20
-38.452385485492897
 10
22.40298586220829
 20
-38.183109176027827
 10
22.74012901063961
 20
-37.902931947195817
 10
23.069199334278821
 20
-37.612156293702782
 10
23.390001811865979
 20
-37.311084710254647
 10
23.70234142214116
 20
-37.000019691557348
 10
24.00602314384442
 20
-36.679263732316812
 10
24.300851955715821
 20
-36.349119327238967
 10
24.586632836495429
 20
-36.009888971029731
 10
24.863170764923321
 20
-35.661875158395048
 10
25.130270719739539
 20
-35.305380384040859
 10
25.387737679684161
 20
-34.940707142673077
 10
25.635376623497251
 20
-34.568157928997621
 10
25.872992529918871
 20
-34.188035237720442
 10
26.10039037768907
 20
-33.800641563547458
 10
26.317375145547931
 20
-33.406279401184598
 10
26.523751812235499
 20
-33.005251245337803
 10
26.719325356491861
 20
-32.597859590712979
 10
26.90390075705707
 20
-32.184406932016067
 10
27.077282992671179
 20
-31.76519576395302
 10
27.239277042074271
 20
-31.34052858122973
 10
27.389687884006399
 20
-30.910707878552142
 10
27.528320497207631
 20
-30.476036150626179
 10
27.65497986041802
 20
-30.036815892157779
 10
27.769470952377642
 20
-29.593349597852882
 10
27.87159875182655
 20
-29.145939762417392
 10
27.961168237504811
 20
-28.694888880557251
 10
28.037984388152498
 20
-28.240499446978379
 10
28.101852182509671
 20
-27.78307395638673
 10
28.585427078490259
 20
-23.912671232876711
 10
34.107368124139228
 20
-23.912671232876711
 10
34.980193466629743
 20
-23.910002435959289
 10
35.765800400547462
 20
-23.90082908815641
 10
36.471628696620272
 20
-23.88340075389215
 10
37.10511812557607
 20
-23.85596699759061
 10
37.673708458142748
 20
-23.816777383675841
 10
38.184839465048192
 20
-23.764081476571949
 10
38.645950917020279
 20
-23.696128840703
 10
39.064482584786909
 20
-23.611169040493088
 10
39.447874239075972
 20
-23.507451640366291
 10
39.803565650615369
 20
-23.383226204746681
 10
40.138996590132962
 20
-23.236742298058349
 10
40.461606828356658
 20
-23.066249484725368
 10
40.778836136014363
 20
-22.86999732917182
 10
41.098124283833911
 20
-22.646235395821801
 10
41.426911042543253
 20
-22.393213249099379
 10
41.772636182870237
 20
-22.109180453428639
 10
42.03823308370432
 20
-21.878429557267481
 10
42.29109826715645
 20
-21.64318944905223
 10
42.531514379090353
 20
-21.402216443730609
 10
42.759764065369723
 20
-21.15426685625032
 10
42.976129971858299
 20
-20.898097001559091
 10
43.180894744419767
 20
-20.632463194604629
 10
43.374341028917868
 20
-20.356121750334658
 10
43.556751471216302
 20
-20.067828983696899
 10
43.72840871717878
 20
-19.766341209639059
 10
43.889595412669017
 20
-19.450414743108858
 10
44.040594203550746
 20
-19.11880589905401
 10
44.18168773568766
 20
-18.77027099242223
 10
44.313158654943479
 20
-18.40356633816123
 10
44.435289607181907
 20
-18.017448251218742
 10
44.548363238266688
 20
-17.61067304654247
 10
44.652662194061499
 20
-17.181997039080141
 10
44.748469120430073
 20
-16.73017654377945
 10
44.836066663236117
 20
-16.253967875588138
 10
44.915737468343373
 20
-15.752127349453909
 10
44.987764181615518
 20
-15.22341128032447
 10
45.052429448916278
 20
-14.66657598314756
 10
45.110015916109383
 20
-14.08037777287087
 10
45.160806229058522
 20
-13.46357296444214
 10
45.205083033627417
 20
-12.814917872809071
 10
45.243128975679802
 20
-12.133168812919379
 10
45.275226701079347
 20
-11.41708209972079
 10
45.322708085374899
 20
-9.8769209731877705
 10
45.349788353423762
 20
-8.1844850127917361
 10
45.358728672135648
 20
-6.3298247381144179
 10
45.361558058305789
 20
2.4615985092667221
 10
44.131851752762877
 20
4.9091776522854147
 10
43.940666764918383
 20
5.2759672466510352
 10
43.742353743687843
 20
5.6292310194083086
 10
43.536675788353463
 20
5.9690923719166333
 10
43.323395998197427
 20
6.2956747055354079
 10
43.102277472501918
 20
6.6091014216240289
 10
42.873083310549163
 20
6.909495921541895
 10
42.63557661162131
 20
7.1969816066484018
 10
42.38952047500058
 20
7.4716818783029479
 10
42.134677999969163
 20
7.733720137864931
 10
41.870812285809237
 20
7.9832197866937484
 10
41.597686431803012
 20
8.220304226148798
 10
41.315063537232668
 20
8.4450968575894763
 10
41.0227067013804
 20
8.6577210823751827
 10
40.720379023528409
 20
8.858300301865313
 10
40.407843602958877
 20
9.0469579174192631
 10
40.084863538953996
 20
9.2238173303964324
 10
39.751201930795958
 20
9.3890019421562201
 10
39.406621877766973
 20
9.5426351540580221
 10
39.05088647914922
 20
9.684840367461236
 10
38.683758834224889
 20
9.8157409837252594
 10
38.305002042276179
 20
9.9354604042094898
 10
37.91437920258528
 20
10.04412203027332
 10
37.511653414434377
 20
10.141849263276161
 10
37.096587777105668
 20
10.2287655045774
 10
36.668945389881351
 20
10.304994155536431
 10
36.22848935204361
 20
10.37065861751266
 10
35.774982762874643
 20
10.425882291865481
 10
35.308188721656649
 20
10.47078857995429
 10
34.827870327671803
 20
10.50550088313849
 10
34.333790680202327
 20
10.53014260277747
 10
33.825712878530382
 20
10.54483714023063
 10
33.30340002193816
 20
10.549707896857379
 10
28.484211321514909
 20
10.549707896857379
 10
28.496362162558281
 20
13.53879180096696
 10
28.50314792573462
 20
13.957315468290661
 10
28.520563214754969
 20
14.34937420972531
 10
28.549469293293001
 20
14.717158705597869
 10
28.590727425022401
 20
15.062859636235279
 10
28.645198873616831
 20
15.388667681964501
 10
28.71374490274998
 20
15.696773523112469
 10
28.79722677609551
 20
15.989367840006141
 10
28.896505757327098
 20
16.268641312972481
 10
29.012443110118419
 20
16.53678462233842
 10
29.145900098143152
 20
16.795988448430911
 10
29.29773798507496
 20
17.04844347157691
 10
29.468818034587521
 20
17.296340372103369
 10
29.660001510354501
 20
17.54186983033723
 10
29.872149676049599
 20
17.787222526605461
 10
30.10612379534648
 20
18.034589141234989
 10
30.362785131918798
 20
18.286160354552781
 10
30.755619682181869
 20
18.674423226996911
 10
31.12514240857756
 20
19.071587928728789
 10
31.471621875833069
 20
19.477128580769211
 10
31.795326648675601
 20
19.89051930413898
 10
32.096525291832378
 20
20.311234219858878
 10
32.375486370030593
 20
20.73874744894972
 10
32.632478447997443
 20
21.172533112432291
 10
32.867770090460141
 20
21.6120653313274
 10
33.081629862145903
 20
22.056818226655832
 10
33.274326327781907
 20
22.506265919438391
 10
33.446128052095389
 20
22.959882530695872
 10
33.597303599813543
 20
23.417142181449069
 10
33.728121535663568
 20
23.877518992718791
 10
33.83885042437268
 20
24.34048708552583
 10
33.929758830668078
 20
24.805520580890981
 10
34.001115319276963
 20
25.272093599835038
 10
34.053188454926541
 20
25.739680263378808
 10
34.086246802344029
 20
26.20775469254308
 10
34.100558926256618
 20
26.675791008348661
 10
34.096393391391537
 20
27.143263331816339
 10
34.074018762475973
 20
27.609645783966911
 10
34.033703604237118
 20
28.074412485821181
 10
33.975716481402202
 20
28.537037558399948
 10
33.90032595869841
 20
28.996995122724002
 10
33.807800600852957
 20
29.453759299814141
 10
33.698408972593072
 20
29.90680421069117
 10
33.572419638645918
 20
30.355603976375871
 10
33.430101163738733
 20
30.799632717889061
 10
33.271722112598702
 20
31.238364556251529
 10
33.097551049953033
 20
31.671273612484072
 10
32.90785654052894
 20
32.097834007607482
 10
32.70290714905363
 20
32.517519862642573
 10
32.482971440254303
 20
32.929805298610113
 10
32.248317978858161
 20
33.334164436530934
 10
31.99921532959241
 20
33.730071397425803
 10
31.735932057184261
 20
34.117000302315553
 10
31.458736726360911
 20
34.494425272220937
 10
31.167897901849571
 20
34.861820428162787
 10
30.863684148377448
 20
35.218659891161877
 10
30.54636403067175
 20
35.564417782239033
 10
30.21620611345968
 20
35.898568222415037
 10
29.87347896146844
 20
36.220585332710677
 10
29.518451139425231
 20
36.529943234146756
 10
29.151391212057259
 20
36.82611604774408
 10
28.772567744091749
 20
37.108577894523442
 10
28.382249300255879
 20
37.376802895505627
 10
27.980704445276871
 20
37.630265171711457
 10
27.568201743881922
 20
37.868438844161702
 10
27.145009760798239
 20
38.090798033877178
 10
26.71139706075304
 20
38.296816861878682
 10
26.267632208473511
 20
38.485969449187003
 10
25.813983768686871
 20
38.657729916822937
 10
25.35072030612033
 20
38.811572385807303
 10
24.878110385501071
 20
38.946970977160873
 10
24.396422571556322
 20
39.063399811904461
 10
23.905925429013269
 20
39.160333011058853
 10
23.406887522599131
 20
39.237244695644847
 10
22.899577417041119
 20
39.293608986683253
 10
22.384263677066421
 20
39.328900005194853
 10
21.86121486740225
 20
39.342591872200458
 10
21.330699552775808
 20
39.33415870872085
 10
20.792986297914311
 20
39.303074635776838
 10
20.248343667544951
 20
39.24881377438922
 10
19.69704022639495
 20
39.170850245578791
 10
19.398274216221179
 20
39.126771173361178
 10
19.113532788427062
 20
39.093842662183718
 10
18.842542891994789
 20
39.072120498352639
 10
18.585031475906579
 20
39.061660468174139
 10
18.340725489144631
 20
39.062518357954417
 10
18.109351880691161
 20
39.074749953999707
 10
17.890637599528361
 20
39.098411042616199
 10
17.684309594638439
 20
39.1335574101101
 10
17.490094815003602
 20
39.180244842787623
 10
17.30772020960606
 20
39.238529126954973
 10
17.136912727428019
 20
39.308466048918362
 10
16.977399317451681
 20
39.39011139498399
 10
16.828906928659251
 20
39.483520951458061
 10
16.691162510032939
 20
39.588750504646796
 10
16.563893010554949
 20
39.705855840856401
 10
16.446825379207478
 20
39.834892746393081
 10
16.155067567326999
 20
40.163754582238653
 10
15.84240863066888
 20
40.473438419497242
 10
15.510158376477509
 20
40.763877030696378
 10
15.159626611997311
 20
41.035003188363603
 10
14.792123144472651
 20
41.28674966502642
 10
14.408957781147951
 20
41.519049233212371
 10
14.0114403292676
 20
41.731834665448993
 10
13.60088059607599
 20
41.925038734263786
 10
13.17858838881752
 20
42.098594212184317
 10
12.7458735147366
 20
42.252433871738091
 10
12.30404578107761
 20
42.38649048545264
 10
11.85441499508496
 20
42.500696825855478
 10
11.39829096400304
 20
42.594985665474162
 10
10.936983495076261
 20
42.669289776836187
 10
10.471802395548989
 20
42.723541932469118
 10
10.004057472665661
 20
42.757674904900448
 10
9.5350585336706501
 20
42.771621466657727
 10
9.0661153858083576
 20
42.765314390268493
 10
8.5985378363231835
 20
42.738686448260239
 10
8.1336356924595243
 20
42.69167041316053
 10
7.6727187614617787
 20
42.624199057496867
 10
7.2170968505743422
 20
42.5362051537968
 10
6.7680797670416144
 20
42.427621474587838
 10
6.32697731810799
 20
42.298380792397523
 10
5.8950993110178684
 20
42.148415879753372
 10
5.4737555530156463
 20
41.977659509182928
 10
5.0642558513457212
 20
41.786044453213712
 10
4.6679100132524907
 20
41.573503484373227
 10
4.2860278459803522
 20
41.33996937518905
 10
3.9199191567737039
 20
41.085374898188682
 10
3.570893752876942
 20
40.809652825899633
 10
3.2402614415344639
 20
40.512735930849473
 10
2.9849940105123469
 20
40.278261523454113
 10
2.7287403274711779
 20
40.063219509158728
 10
2.4712480578231859
 20
39.867672122053591
 10
2.2122648669806
 20
39.691681596228968
 10
1.9515384203556481
 20
39.535310165775137
 10
1.6888163833605581
 20
39.398620064782378
 10
1.423846421407559
 20
39.281673527340963
 10
1.15637619990888
 20
39.184532787541151
 10
0.886153384276749
 20
39.107260079473228
 10
0.6129256399233938
 20
39.049917637227473
 10
0.3364406322610433
 20
39.012567694894138
 10
0.0564460267019261
 20
38.995272486563522
 10
-0.2273105113417295
 20
38.998094246325891
 10
-0.5150813164576951
 20
39.021095208271497
 10
-0.807118723233742
 20
39.064337606490639
 10
-1.103675066257642
 20
39.127883675073591
 10
-1.405002680117166
 20
39.211795648110609
 10
-1.711353899400087
 20
39.316135759691981
 10
-2.022981058694175
 20
39.440966243907972
 10
-2.3401364925872028
 20
39.586349334848862
 10
-2.663072535666942
 20
39.752347266604907
 10
-2.9920415225211618
 20
39.939022273266417
 10
-3.3272957877376359
 20
40.146436588923628
 10
-3.669087665904136
 20
40.374652447666833
 10
-4.0176694916084319
 20
40.623732083586297
 10
-4.3732935994382967
 20
40.893737730772301
 10
-4.7362123239815022
 20
41.184731623315123
 10
-5.1066779998258189
 20
41.496775995305022
 10
-5.4849429615590193
 20
41.829933080832276
 10
-5.8712595437688737
 20
42.184265113987173
 10
-6.2658800810431554
 20
42.559834328859957
 10
-6.6690569079696331
 20
42.956702959540927
 10
-7.091626961795976
 20
43.371411979532411
 10
-7.50600503821566
 20
43.762152021508037
 10
-7.9124269503812394
 20
44.129076499211152
 10
-8.3111285114452684
 20
44.472338826385027
 10
-8.7023455345602994
 20
44.792092416773002
 10
-9.0863138328788882
 20
45.088490684118369
 10
-9.4632692195535881
 20
45.361687042164462
 10
-9.8334475077369543
 20
45.611834904654593
 10
-10.19708451058154
 20
45.839087685332053
 10
-10.5544160412399
 20
46.04359879794017
 10
-10.905677912864579
 20
46.225521656222263
 10
-11.25110593860815
 20
46.385009673921623
 10
-11.59093593162315
 20
46.522216264781576
 10
-11.92540370506214
 20
46.637294842545437
 10
-12.25474507207768
 20
46.730398820956523
 10
-12.5791958458223
 20
46.801681613758127
 10
-13.100290179256129
 20
46.888978738467252
 10
-13.619749655134401
 20
46.955269173105592
 10
-14.13707703723869
 20
47.000791936719928
 10
-14.651775089350609
 20
47.025786048357013
 10
-15.163346575251721
 20
47.030490527063577
 10
-15.671294258723609
 20
47.015144391886409
 10
-16.17512090354786
 20
46.979986661872232
 10
-16.674329273506071
 20
46.925256356067813
 10
-17.168422132379799
 20
46.851192493519882
 10
-17.65690224395065
 20
46.758034093275207
 10
-18.1392723720002
 20
46.646020174380567
 10
-18.615035280310028
 20
46.515389755882673
 10
-19.083693732661729
 20
46.366381856828291
 10
-19.544750492836879
 20
46.19923549626418
 10
-19.997708324617061
 20
46.014189693237093
 10
-20.44206999178386
 20
45.81148346679376
 10
-20.877338258118851
 20
45.591355835980963
 10
-21.303015887403639
 20
45.354045819845439
 10
-21.718605643419789
 20
45.099792437433941
 10
-22.123610289948889
 20
44.82883470779322
 10
-22.517532590772522
 20
44.541411649970037
 10
-22.899875309672272
 20
44.237762283011143
 10
-23.270141210429731
 20
43.91812562596327
 10
-23.627833056826471
 20
43.582740697873213
 10
-23.972453612644081
 20
43.23184651778768
 10
-24.303505641664142
 20
42.865682104753454
 10
-24.620491907668239
 20
42.484486477817264
 10
-24.922915174437961
 20
42.088498656025877
 10
-25.210278205754879
 20
41.677957658426052
 10
-25.482083765400589
 20
41.253102504064508
 10
-25.737834617156661
 20
40.814172211988037
 10
-25.9770335248047
 20
40.361405801243379
 10
-26.217210227981109
 20
39.890260233458683
 10
-26.440719640425488
 20
39.471477546110343
 10
-26.652969485198181
 20
39.101375464011412
 10
-26.859367485359499
 20
38.776271711974907
 10
-27.065321363969758
 20
38.49248401481384
 10
-27.276238844089281
 20
38.246330097341229
 10
-27.385248848171361
 20
38.136215094992153
 10
-27.49752764877838
 20
38.034127684370077
 10
-27.613751211292879
 20
37.939607581076622
 10
-27.734595501097399
 20
37.852194500713424
 10
-27.86073648357446
 20
37.771428158882081
 10
-27.992850124106631
 20
37.696848271184258
 10
-28.13161238807643
 20
37.627994553221562
 10
-28.277699240866411
 20
37.56440672059562
 10
-28.594550574437061
 20
37.451187573760521
 10
-28.94881184787889
 20
37.353508555491977
 10
-29.34589078425223
 20
37.267687390603001
 10
-29.791195106617401
 20
37.190041803906617
 10
-30.290132538034719
 20
37.116889520215842
 10
-30.848110801564509
 20
37.044548264343668
 10
-31.41864801534502
 20
36.961368477610719
 10
-31.977009666026358
 20
36.855271271704261
 10
-32.522809935968723
 20
36.726699641093482
 10
-33.055663007532267
 20
36.576096580247537
 10
-33.575183063077212
 20
36.403905083635642
 10
-34.080984284963719
 20
36.21056814572696
 10
-34.57268085555198
 20
35.996528760990657
 10
-35.049886957202169
 20
35.762229923895937
 10
-35.512216772274478
 20
35.508114628911983
 10
-35.959284483129089
 20
35.234625870507948
 10
-36.390704272126193
 20
34.942206643153028
 10
-36.806090321625959
 20
34.631299941316399
 10
-37.205056813988577
 20
34.302348759467243
 10
-37.587217931574237
 20
33.955796092074728
 10
-37.952187856743123
 20
33.592084933608056
 10
-38.299580771855418
 20
33.211658278536397
 10
-38.629010859271297
 20
32.81495912132894
 10
-38.940092301350958
 20
32.402430456454837
 10
-39.232439280454571
 20
31.974515278383279
 10
-39.505665978942332
 20
31.531656581583469
 10
-39.759386579174397
 20
31.074297360524561
 10
-39.993215263510997
 20
30.60288060967574
 10
-40.206766214312303
 20
30.117849323506189
 10
-40.399653613938462
 20
29.619646496485078
 10
-40.571491644749699
 20
29.108715123081609
 10
-40.721894489106177
 20
28.585498197764949
 10
-40.850476329368078
 20
28.05043871500428
 10
-40.956851347895601
 20
27.503979669268769
 10
-41.04063372704892
 20
26.946564055027611
 10
-41.101437649188227
 20
26.37863486674998
 10
-41.138877296673698
 20
25.800635098905051
 10
-41.152566851865522
 20
25.21300774596202
 10
-41.157522952848069
 20
24.72661152383931
 10
-41.171139928883242
 20
24.287709726098281
 10
-41.19591021480749
 20
23.891661059068369
 10
-41.234326245457318
 20
23.53382422907903
 10
-41.288880455669222
 20
23.2095579424597
 10
-41.362065280279623
 20
22.914220905539811
 10
-41.45637315412506
 20
22.643171824648821
 10
-41.574296512041983
 20
22.391769406116161
 10
-41.718327788866873
 20
22.15537235627129
 10
-41.890959419436207
 20
21.929339381443629
 10
-42.094683838586477
 20
21.709029187962631
 10
-42.331993481154157
 20
21.48980048215774
 10
-42.605380781975732
 20
21.267011970358389
 10
-42.917338175887672
 20
21.036022358894041
 10
-43.270358097726458
 20
20.792190354094121
 10
-43.666932982328582
 20
20.53087466228807
 10
-44.072689170277592
 20
20.252429417065631
 10
-44.463763381114482
 20
19.95295360682071
 10
-44.839861883580703
 20
19.633443590470812
 10
-45.20069094641773
 20
19.294895726933451
 10
-45.545956838367033
 20
18.938306375126171
 10
-45.875365828170082
 20
18.564671893966459
 10
-46.188624184568333
 20
18.17498864237184
 10
-46.485438176303262
 20
17.77025297925984
 10
-46.765514072116339
 20
17.351461263547971
 10
-47.028558140749027
 20
16.919609854153752
 10
-47.274276650942802
 20
16.475695109994689
 10
-47.502375871439128
 20
16.020713389988309
 10
-47.712562070979473
 20
15.55566105305213
 10
-47.904541518305287
 20
15.081534458103659
 10
-48.078020482158067
 20
14.599329964060431
 10
-48.232705231279269
 20
14.11004392983995
 10
-48.368302034410362
 20
13.614672714359729
 10
-48.48451716029281
 20
13.11421267653729
 10
-48.58105687766809
 20
12.60966017529015
 10
-48.657627455277662
 20
12.102011569535829
 10
-48.713935161862999
 20
11.592263218191841
 10
-48.749686266165547
 20
11.08141148017571
 10
-48.764587036926812
 20
10.570452714404929
 10
-48.758343742888243
 20
10.060383279797049
 10
-48.730662652791302
 20
9.5521995352695619
 10
-48.68125003537746
 20
9.0468978397399926
 10
-48.609812159388191
 20
8.5454745521258602
 10
-48.51605529356496
 20
8.0489260313446778
 10
-48.399685706649237
 20
7.558248636313964
 10
-48.26040966738249
 20
7.0744387259512358
 10
-48.097933444506182
 20
6.5984926591740098
 10
-47.911963306761791
 20
6.131406794899803
 10
-47.777827021841539
 20
5.828783516447217
 10
-47.636811770653551
 20
5.5316457705397202
 10
-47.489058145872917
 20
5.2400455861756763
 10
-47.334706740174759
 20
4.9540349923534492
 10
-47.173898146234151
 20
4.6736660180714056
 10
-47.006772956726188
 20
4.3989906923279127
 10
-46.833471764326013
 20
4.1300610441213319
 10
-46.654135161708673
 20
3.866929102450031
 10
-46.468903741549283
 20
3.6096468963123751
 10
-46.277918096522953
 20
3.3582664547067291
 10
-46.081318819304762
 20
3.1128398066314569
 10
-45.879246502569828
 20
2.8734189810849271
 10
-45.671841738993237
 20
2.640056007065501
 10
-45.459245121250113
 20
2.412802913571547
 10
-45.241597242015509
 20
2.1917117296014301
 10
-45.019038693964553
 20
1.976834484153513
 10
-44.79171006977235
 20
1.768223206226164
 10
-44.559751962113978
 20
1.565929924817747
 10
-44.323304963664548
 20
1.3700066689266259
 10
-44.08250966709916
 20
1.180505467551169
 10
-43.837506665092903
 20
0.997478349689739
 10
-43.588436550320893
 20
0.8209773443407026
 10
-43.335439915458203
 20
0.6510544805024247
 10
-43.078657353179949
 20
0.4877617871732703
 10
-42.818229456161227
 20
0.331151293351605
 10
-42.554296817077137
 20
0.181275028035794
 10
-42.28700002860279
 20
0.0381850202242025
 10
-42.016479683413252
 20
-0.0980667010848042
 10
-41.742876374183638
 20
-0.2274281068928608
 10
-41.466330693589057
 20
-0.3498471682016021
 10
-41.186983234304613
 20
-0.4652718560126627
 10
-40.90497458900537
 20
-0.5736501413276773
 10
-40.620445350366452
 20
-0.6749299951482808
 10
-40.333536111062948
 20
-0.7690593884761079
 10
-40.044387463769979
 20
-0.8559862923127932
 10
-39.75314000116262
 20
-0.9356586776599716
 10
-39.459934315915973
 20
-1.008024515519278
 10
-39.164911000705153
 20
-1.0730317768923461
 10
-38.868210648205242
 20
-1.1306284327808109
 10
-38.569973851091333
 20
-1.1807624541863091
 10
-38.270341202038537
 20
-1.2233818121104729
 10
-37.969453293721948
 20
-1.2584344775549381
 10
-37.667450718816667
 20
-1.2858684215213401
 10
-37.364474069997797
 20
-1.3056316150113121
 10
-37.06066393994044
 20
-1.3176720290264901
 10
-36.756160921319683
 20
-1.3219376345685081
 10
-36.451105606810607
 20
-1.318376402639001
 10
-36.14563858908835
 20
-1.3069363042396029
 10
-35.839900460827991
 20
-1.28756531037195
 10
-35.534031814704633
 20
-1.260211392037677
 10
-35.228173243393357
 20
-1.224822520238416
 10
-34.922465339569293
 20
-1.181346665975805
 10
-34.617048695907521
 20
-1.1297318002514769
 10
-34.312063905083143
 20
-1.0699258940670671
 10
-34.007651559771247
 20
-1.00187691842421
 10
-33.703952252646943
 20
-0.9255328443245399
 10
-33.401106576385331
 20
-0.8408416427696922
 10
-33.099255123661507
 20
-0.7477512847613015
 10
-32.798538487150573
 20
-0.6462097413010024
 10
-32.499097259527623
 20
-0.5361649833904298
 10
-32.201072033467753
 20
-0.4175649820312183
 10
-31.90460340164606
 20
-0.2903577082250027
 10
-31.609831956737651
 20
-0.1544911329734176
 10
-31.31689829141763
 20
-0.0099132272780977
 10
-28.579111712750159
 20
1.386801265024779
 10
-28.13255439161966
 20
-30.594152900886382
 10
-26.20466406002064
 20
-33.873685930699899
 10
-26.021412487932452
 20
-34.176875242354598
 10
-25.83075155051398
 20
-34.475678659247009
 10
-25.632828742072089
 20
-34.769979803609573
 10
-25.427791556913611
 20
-35.059662297674762
 10
-25.215787489345399
 20
-35.344609763675052
 10
-24.996964033674288
 20
-35.624705823842902
 10
-24.771468684207139
 20
-35.899834100410793
 10
-24.5394489352508
 20
-36.169878215611178
 10
-24.30105228111211
 20
-36.43472179167653
 10
-24.056426216097911
 20
-36.694248450839318
 10
-23.805718234515069
 20
-36.948341815332007
 10
-23.549075830670422
 20
-37.196885507387059
 10
-23.286646498870809
 20
-37.439763149236953
 10
-23.018577733423079
 20
-37.67685836311415
 10
-22.745017028634091
 20
-37.908054771251123
 10
-22.46611187881069
 20
-38.133235995880327
 10
-22.182009778259719
 20
-38.352285659234241
 10
-21.892858221288019
 20
-38.565087383545333
 10
-21.59880470220245
 20
-38.771524791046062
 10
-21.299996715309849
 20
-38.971481503968903
 10
-20.996581754917059
 20
-39.164841144546322
 10
-20.688707315330941
 20
-39.351487335010781
 10
-20.376520890858341
 20
-39.531303697594758
 10
-20.060169975806101
 20
-39.704173854530701
 10
-19.739802064481061
 20
-39.869981428051091
 10
-19.415564651190081
 20
-40.028610040388408
 10
-19.087605230240001
 20
-40.179943313775098
 10
-18.756071295937669
 20
-40.323864870443643
 10
-18.42111034258993
 20
-40.460258332626502
 10
-18.08286986450365
 20
-40.589007322556149
 10
-17.741497355985651
 20
-40.709995462465052
 10
-17.397140311342781
 20
-40.823106374585663
 10
-15.47290491539081
 20
-41.43038938381752
  0
LWPOLYLINE
  5
45
  8
LAYER_1
 62
256
370
-1
  6
ByLayer
100
AcDbEntity
100
AcDbPolyline
 90
66
 70
1
 10
35.517349919419829
 20
-7.0331385979049159
 10
35.513859341739469
 20
-6.443893695242938
 10
35.503217643290903
 20
-5.8800194739042944
 10
35.485169875962868
 20
-5.3410788799840114
 10
35.459461091644172
 20
-4.8266348595771138
 10
35.425836342223533
 20
-4.3362503587786261
 10
35.384040679589759
 20
-3.8694883236835742
 10
35.333819155631581
 20
-3.425911700386981
 10
35.274916822237778
 20
-3.005083434983872
 10
35.207078731297131
 20
-2.6065664735692722
 10
35.130049934698363
 20
-2.2299237622382062
 10
35.043575484330283
 20
-1.8747182470856989
 10
34.947400432081622
 20
-1.540512874206776
 10
34.84126982984116
 20
-1.22687058969646
 10
34.724928729497663
 20
-0.9333543396497777
 10
34.598122182939889
 20
-0.6595270701617532
 10
34.460595242056598
 20
-0.4049517273274112
 10
34.312092958736557
 20
-0.1691912572417768
 10
34.152360384868537
 20
0.0481913940001254
 10
33.981142572341312
 20
0.2476332803032705
 10
33.798184573043628
 20
0.4295714555726339
 10
33.603231438864263
 20
0.5944429737131907
 10
33.396028221691957
 20
0.742684888629916
 10
33.176319973415502
 20
0.8747342542277852
 10
32.943851745923652
 20
0.9910281244117734
 10
32.698368591105172
 20
1.0920035530868559
 10
32.439615560848821
 20
1.1780975941580081
 10
32.167337707043373
 20
1.2497473015302041
 10
31.8812800815776
 20
1.30738972910842
 10
31.58118773634024
 20
1.3514619307976321
 10
31.266805723220081
 20
1.382400960502814
 10
30.93787909410587
 20
1.4006438721289409
 10
30.594152900886389
 20
1.4066277195809891
 10
28.484211321514909
 20
1.4066277195809891
 10
28.484211321514909
 20
-15.47290491539081
 10
30.594152900886389
 20
-15.47290491539081
 10
30.93787909410587
 20
-15.46692106793877
 10
31.266805723220081
 20
-15.44867815631264
 10
31.58118773634024
 20
-15.41773912660746
 10
31.8812800815776
 20
-15.37366692491825
 10
32.167337707043373
 20
-15.316024497340029
 10
32.439615560848821
 20
-15.24437478996783
 10
32.698368591105172
 20
-15.158280748896679
 10
32.943851745923652
 20
-15.0573053202216
 10
33.176319973415502
 20
-14.94101145003761
 10
33.396028221691957
 20
-14.80896208443974
 10
33.603231438864263
 20
-14.660720169523019
 10
33.798184573043628
 20
-14.49584865138246
 10
33.981142572341312
 20
-14.31391047611309
 10
34.152360384868537
 20
-14.114468589809951
 10
34.312092958736557
 20
-13.897085938568051
 10
34.460595242056598
 20
-13.66132546848241
 10
34.598122182939889
 20
-13.40675012564807
 10
34.724928729497663
 20
-13.13292285616005
 10
34.84126982984116
 20
-12.839406606113361
 10
34.947400432081622
 20
-12.525764321603051
 10
35.043575484330283
 20
-12.191558948724129
 10
35.130049934698363
 20
-11.83635343357162
 10
35.207078731297131
 20
-11.459710722240549
 10
35.274916822237778
 20
-11.061193760825949
 10
35.333819155631581
 20
-10.64036549542285
 10
35.384040679589759
 20
-10.196788872126261
 10
35.425836342223533
 20
-9.730026837031204
 10
35.459461091644172
 20
-9.2396423362327162
 10
35.485169875962868
 20
-8.7251983158258195
 10
35.503217643290903
 20
-8.1862577219055375
  0
LWPOLYLINE
  5
46
  8
LAYER_1
 62
256
370
-1
  6
ByLayer
100
AcDbEntity
100
AcDbPolyline
 90
615
 70
1
 10
-22.56296074964461
 20
9.3182278851546485
 10
-22.379417490874811
 20
9.4427634732134322
 10
-22.214211424361501
 20
9.5648146206379536
 10
-22.066446260301671
 20
9.6864441448977718
 10
-21.935225708892279
 20
9.8097148634624443
 10
-21.819653480330341
 20
9.9366895938015283
 10
-21.71883328481281
 20
10.06943115338458
 10
-21.631868832536679
 20
10.210002359681161
 10
-21.557863833698921
 20
10.36046603016082
 10
-21.495921998496531
 20
10.522884982293119
 10
-21.445147037126471
 20
10.699322033547629
 10
-21.404642659785729
 20
10.89184000139389
 10
-21.373512576671288
 20
11.102501703301471
 10
-21.350860497980129
 20
11.333369956739929
 10
-21.335790133909232
 20
11.586507579178811
 10
-21.324809390416132
 20
12.1678422009361
 10
-21.33433138259289
 20
12.6349013354448
 10
-21.362648658234711
 20
13.043928182038959
 10
-21.40938816600892
 20
13.393615193794631
 10
-21.439549678404209
 20
13.54579765319429
 10
-21.474176854582851
 20
13.68265482378785
 10
-21.513223063128251
 20
13.8040232622098
 10
-21.556641672623829
 20
13.909739525094651
 10
-21.604386051652991
 20
13.999640169076899
 10
-21.65640956879917
 20
14.073561750791081
 10
-21.71266559264577
 20
14.131340826871661
 10
-21.773107491776209
 20
14.17281395395317
 10
-21.837688634773912
 20
14.197817688670099
 10
-21.906362390222281
 20
14.206188587656969
 10
-21.975868509968219
 20
14.2166033599451
 10
-22.04228854453017
 20
14.247733586098651
 10
-22.105574635795211
 20
14.29940813005139
 10
-22.16567892565045
 20
14.371455855737061
 10
-22.222553555982941
 20
14.46370562708943
 10
-22.27615066867979
 20
14.575986308042239
 10
-22.32642240562808
 20
14.708126762529259
 10
-22.373320908714891
 20
14.859955854484239
 10
-22.416798319827301
 20
15.031302447840931
 10
-22.4568067808524
 20
15.2219954065331
 10
-22.52622542018899
 20
15.66073587565886
 10
-22.581193961821359
 20
16.17480817333157
 10
-22.621329540846151
 20
16.762843211021281
 10
-22.75474369166389
 20
19.319497834385579
 10
-18.449998124465068
 20
19.319497834385579
 10
-17.113093878274039
 20
19.322814609439138
 10
-16.103244630919502
 20
19.337330599502081
 10
-15.711289695578889
 20
19.35092845558502
 10
-15.38948738647497
 20
19.36989430192784
 10
-15.133967329116951
 20
19.39508420069971
 10
-14.94085914901402
 20
19.427354214069819
 10
-14.80629247167537
 20
19.46756040420734
 10
-14.75975270451427
 20
19.490907084991751
 10
-14.72639692261019
 20
19.516558833281461
 10
-14.70574132915177
 20
19.544622656847611
 10
-14.69730212732768
 20
19.575205563461338
 10
-14.700595520326541
 20
19.60841456089382
 10
-14.715137711337031
 20
19.64435665691617
 10
-14.77603330014743
 20
19.724868175815129
 10
-14.876118519268079
 20
19.817596182327389
 10
-15.17837635047689
 20
20.043125906868521
 10
-15.385909128077889
 20
20.197975108117081
 10
-15.579518948309451
 20
20.360776397364521
 10
-15.754968389363491
 20
20.526655172712339
 10
-15.908020029431899
 20
20.690736832262001
 10
-16.0344364467066
 20
20.84814677411498
 10
-16.12998021937949
 20
20.994010396372762
 10
-16.190413925642499
 20
21.12345309713681
 10
-16.206140309555259
 20
21.180493288865389
 10
-16.21150014368752
 20
21.231600274508601
 10
-16.206140309555259
 20
21.275198912231769
 10
-16.190413925642499
 20
21.31020872782787
 10
-16.164850669675239
 20
21.336762397501129
 10
-16.12998021937949
 20
21.35499259745573
 10
-16.086332252481281
 20
21.36503200389587
 10
-16.0344364467066
 20
21.367013293025739
 10
-15.908020029431899
 20
21.34733222417147
 10
-15.754968389363491
 20
21.297010800526479
 10
-15.579518948309451
 20
21.217110431724329
 10
-15.385909128077889
 20
21.108692527398588
 10
-15.17837635047688
 20
20.972818497182821
 10
-14.906020699212689
 20
20.794098358218751
 10
-14.636944618614599
 20
20.640425457052689
 10
-14.373874765896449
 20
20.51169926981267
 10
-14.119537798272111
 20
20.40781927262676
 10
-13.876660372955421
 20
20.328684941622999
 10
-13.647969147160239
 20
20.274195752929419
 10
-13.436190778100441
 20
20.244251182674098
 10
-13.244051922989859
 20
20.238750706985059
 10
-13.074279239042349
 20
20.25759380199036
 10
-12.998632291634079
 20
20.2761127747934
 10
-12.92959938347178
 20
20.300679943818039
 10
-12.86752134670717
 20
20.331282743580289
 10
-12.812739013491999
 20
20.36790860859616
 10
-12.765593215977979
 20
20.41054497338164
 10
-12.72642478631686
 20
20.459179272452751
 10
-12.695574556660359
 20
20.51379894032549
 10
-12.673383359160219
 20
20.574391411515869
 10
-12.66019202596816
 20
20.640944120539899
 10
-12.65634138923593
 20
20.713444501913571
 10
-12.66217228111524
 20
20.7918799901529
 10
-12.67802553375785
 20
20.87623801977389
 10
-12.704241979315469
 20
20.966506025292549
 10
-12.74116244993983
 20
21.062671441224879
 10
-12.815009117021789
 20
21.25454537462873
 10
-12.89155867909894
 20
21.48856870110421
 10
-12.968588210134611
 20
21.75568508902203
 10
-13.043874784092131
 20
22.046838206752899
 10
-13.180327356625931
 20
22.665029305136692
 10
-13.237047503128871
 20
22.97395462253105
 10
-13.283132988406919
 20
23.27069134322133
 10
-13.33594436757895
 20
23.678609573615368
 10
-13.35963229327885
 20
23.95943577666706
 10
-13.3587104968361
 20
24.050803641579019
 10
-13.34829447993654
 20
24.108735628022782
 10
-13.33929558078537
 20
24.12498995102402
 10
-13.327646456883899
 20
24.132677445454139
 10
-13.296028641981939
 20
24.122074803328911
 10
-13.252703249534379
 20
24.076373411102871
 10
-13.196932493844971
 20
23.995018978231819
 10
-13.045103749955571
 20
23.72313382837789
 10
-12.83464012474365
 20
23.30198502941349
 10
-12.55963933263914
 20
22.727138256985022
 10
-12.359010602645929
 20
22.32656282354365
 10
-12.15054208717182
 20
21.956578224863868
 10
-11.933449000054569
 20
21.616666737209101
 10
-11.70694655513193
 20
21.30631063684276
 10
-11.470249966241679
 20
21.024992200028269
 10
-11.222574447221559
 20
20.77219370302905
 10
-10.963135211909339
 20
20.547397422108521
 10
-10.691147474142779
 20
20.350085633530099
 10
-10.40582644775963
 20
20.179740613557211
 10
-10.106387346597661
 20
20.03584463845327
 10
-9.7920453844946227
 20
19.91787998448169
 10
-9.4620157752882772
 20
19.8253289279059
 10
-9.1155137328163871
 20
19.757673744989319
 10
-8.7517544709167083
 20
19.714396711995359
 10
-8.3699532034270021
 20
19.694980105187451
 10
-7.9693251441850261
 20
19.698906200829011
 10
-7.5804940454046124
 20
19.721973956057091
 10
-7.2124161834319684
 20
19.761417206575629
 10
-6.864439813391968
 20
19.81764369913196
 10
-6.5359131904094827
 20
19.89106118047339
 10
-6.226184569609388
 20
19.982077397347251
 10
-5.9346022061165558
 20
20.091100096500849
 10
-5.6605143550558594
 20
20.218537024681531
 10
-5.4032692715521726
 20
20.36479592863661
 10
-5.162215210730368
 20
20.530284555113401
 10
-4.9367004277153184
 20
20.71541065085923
 10
-4.726073177631898
 20
20.92058196262143
 10
-4.5296817156049798
 20
21.146206237147311
 10
-4.3468742967594363
 20
21.392691221184201
 10
-4.1769991762201411
 20
21.660444661479421
 10
-4.0194046091119668
 20
21.949874304780291
 10
-3.873438850559789
 20
22.26138789783414
 10
-3.704995125170703
 20
22.63700561305555
 10
-3.56564496153924
 20
22.92022863473634
 10
-3.4531292530276549
 20
23.11282841245831
 10
-3.406228348617522
 20
23.175698162829029
 10
-3.3651888929982068
 20
23.216576395803219
 10
-3.329728497839989
 20
23.2356845425786
 10
-3.2995647748131529
 20
23.233244034352879
 10
-3.274415335587979
 20
23.20947630232379
 10
-3.2539977918347511
 20
23.164602777689051
 10
-3.2380297552237498
 20
23.09884489164639
 10
-3.2262288374252588
 20
23.01242407539354
 10
-3.2139988049469328
 20
22.778479377048111
 10
-3.2242734692454049
 20
22.56780992688309
 10
-3.2607864487166149
 20
22.335672365540059
 10
-3.320813112972425
 20
22.089693077548951
 10
-3.4016288316246981
 20
21.837498447439689
 10
-3.5005089742852951
 20
21.586714859742191
 10
-3.6147289105660798
 20
21.344968698986388
 10
-3.7415640100789149
 20
21.119886349702188
 10
-3.8782896424356639
 20
20.919094196419529
 10
-4.1444525923755151
 20
20.541228113802831
 10
-4.3646379185379303
 20
20.17941436026334
 10
-4.4503392372057968
 20
20.017354350283291
 10
-4.5159664673331417
 20
19.87470011463542
 10
-4.5586597147212427
 20
19.75658255067404
 10
-4.5755590851713803
 20
19.668132555753441
 10
-4.5903427647588604
 20
19.319497834385579
 10
15.49101718602979
 20
19.319497834385579
 10
17.012879048695659
 20
20.841359697051381
 10
17.312235206502759
 20
21.159620889221681
 10
17.585886920311079
 20
21.489207032575091
 10
17.834029857466909
 20
21.829142784141158
 10
18.056859685316589
 20
22.178452800949469
 10
18.254572071206422
 20
22.536161740029549
 10
18.427362682482709
 20
22.901294258410971
 10
18.57542718649179
 20
23.272875013123279
 10
18.698961250579959
 20
23.649928661196039
 10
18.79816054209353
 20
24.031479859658809
 10
18.873220728378829
 20
24.416553265541129
 10
18.92433747678216
 20
24.804173535872579
 10
18.951706454649852
 20
25.193365327682692
 10
18.955523329328191
 20
25.583153298001029
 10
18.935983768163521
 20
25.972562103857161
 10
18.893283438502142
 20
26.36061640228063
 10
18.827618007690361
 20
26.746340850300989
 10
18.739183143074509
 20
27.128760104947801
 10
18.628174512000889
 20
27.506898823250619
 10
18.49478778181582
 20
27.879781662239012
 10
18.339218619865601
 20
28.246433278942511
 10
18.16166269349657
 20
28.605878330390691
 10
17.96231567005502
 20
28.957141473613099
 10
17.741373216887279
 20
29.2992473656393
 10
17.499031001339659
 20
29.63122066349883
 10
17.235484690758469
 20
29.95208602422127
 10
16.950929952490011
 20
30.26086810483616
 10
16.645562453880629
 20
30.556591562373061
 10
16.319577862276621
 20
30.83828105386154
 10
15.973171845024289
 20
31.104961236331121
 10
15.60654006946997
 20
31.355656766811389
 10
15.21987820295997
 20
31.589392302331891
 10
14.81338191284059
 20
31.805192499922189
 10
14.220662915897201
 20
32.085635639755878
 10
13.945707661005271
 20
32.204449209773642
 10
13.683084272083249
 20
32.309388394352922
 10
13.4313395268187
 20
32.400751404364357
 10
13.189020202899171
 20
32.478836450678642
 10
12.95467307801222
 20
32.543941744166418
 10
12.726844929845401
 20
32.596365495698358
 10
12.50408253608625
 20
32.636405916145137
 10
12.28493267442235
 20
32.664361216377422
 10
12.06794212254124
 20
32.680529607265854
 10
11.85165765813047
 20
32.685209299681112
 10
11.6346260588776
 20
32.678698504493873
 10
11.415394102470181
 20
32.661295432574782
 10
11.19250856659578
 20
32.633298294794507
 10
10.96451622894193
 20
32.595005302023743
 10
10.48179253936485
 20
32.49560915083822
 10
10.281114954191519
 20
32.445124243871931
 10
10.105683530605891
 20
32.392170036931432
 10
9.9540907599911286
 20
32.335287970722817
 10
9.8249291337304072
 20
32.273019485952219
 10
9.7167911432068941
 20
32.203906023325729
 10
9.6282692798037601
 20
32.12648902354946
 10
9.5579560349041728
 20
32.039309927329519
 10
9.5044438998913012
 20
31.940910175372011
 10
9.4663253661483182
 20
31.829831208383041
 10
9.4421929250583876
 20
31.704614467068719
 10
9.4306390680046839
 20
31.563801392135151
 10
9.4302562863703727
 20
31.405933424288449
 10
9.4573739148926101
 20
31.033198572680071
 10
9.4894407804081755
 20
30.676157910483301
 10
9.4963671901660192
 20
30.432517508657771
 10
9.4886449379568205
 20
30.354475264278989
 10
9.472528228393422
 20
30.306286515666741
 10
9.4611022288315265
 20
30.293543809634919
 10
9.4473139470042344
 20
30.288452406378941
 10
9.4122989793176686
 20
30.301474079973499
 10
9.3667802108621334
 20
30.345852680008331
 10
9.310054527166038
 20
30.422089350041329
 10
9.1601699561658148
 20
30.672141474333511
 10
8.9570203505442745
 20
31.05563960131332
 10
8.6949807945287034
 20
31.576592879444028
 10
8.5460826974722774
 20
31.86266862461046
 10
8.3892739833066887
 20
32.137193449504032
 10
8.2248472361857097
 20
32.400052010781479
 10
8.0530950402631127
 20
32.651128965099574
 10
7.874309979692665
 20
32.890308969115061
 10
7.6887846386281389
 20
33.117476679484703
 10
7.496811601223305
 20
33.332516752865239
 10
7.2986834516319332
 20
33.535313845913443
 10
7.094692774007795
 20
33.725752615286041
 10
6.8851321525046618
 20
33.9037177176398
 10
6.6702941712763044
 20
34.069093809631482
 10
6.450471414476489
 20
34.221765547917833
 10
6.2259564662589906
 20
34.361617589155593
 10
5.9970419107775808
 20
34.488534590001528
 10
5.7640203321860266
 20
34.602401207112401
 10
5.5271843146381023
 20
34.703102097144949
 10
5.2868264422875768
 20
34.790521916755942
 10
5.0432392992882189
 20
34.864545322602112
 10
4.7967154697938028
 20
34.925056971340233
 10
4.5475475379580974
 20
34.971941519627023
 10
4.2960280879348716
 20
35.005083624119273
 10
4.0424497038778986
 20
35.024367941473727
 10
3.78710496994095
 20
35.029679128347126
 10
3.5302864702777952
 20
35.020901841396253
 10
3.2722867890422038
 20
34.99792073727783
 10
3.013398510387947
 20
34.960620472648621
 10
2.7539142184687959
 20
34.908885704165378
 10
2.4941264974385202
 20
34.842601088484862
 10
2.234327931450891
 20
34.761651282263813
 10
1.974811104659681
 20
34.665920942158991
 10
1.7158686012186579
 20
34.555294724827149
 10
1.4577930052815939
 20
34.429657286925043
 10
1.1237008505333621
 20
34.245083326258623
 10
0.8103567455954573
 20
34.047690553751707
 10
0.5178577953041098
 20
33.837631695294483
 10
0.2463011044955504
 20
33.615059476777077
 10
-0.00421622199399
 20
33.380126624089669
 10
-0.2335970793282805
 20
33.132985863122407
 10
-0.4417443626710903
 20
32.873789919765457
 10
-0.6285609671861887
 20
32.602691519908987
 10
-0.7939497880373448
 20
32.319843389443122
 10
-0.9378137203883277
 20
32.02539825425805
 10
-1.0600556594029069
 20
31.719508840243911
 10
-1.160578500244851
 20
31.402327873290879
 10
-1.2392851380779299
 20
31.074008079289101
 10
-1.296078468065913
 20
30.734702184128729
 10
-1.3308613853725679
 20
30.384562913699941
 10
-1.343536785161666
 20
30.023742993892871
 10
-1.3508761744101521
 20
29.608713007312151
 10
-1.3697843631364519
 20
29.284124885065712
 10
-1.4016021854349869
 20
29.0472178187621
 10
-1.42277121982835
 20
28.960781928966529
 10
-1.447670475400181
 20
28.895231000009868
 10
-1.4764675564122809
 20
28.850219930843188
 10
-1.509330067126454
 20
28.825403620417561
 10
-1.546425611804503
 20
28.820436967684049
 10
-1.5879217947082309
 20
28.83497487159373
 10
-1.6339862200994399
 20
28.868672231097658
 10
-1.684786492239932
 20
28.921183945146911
 10
-1.801264993815981
 20
29.081270032685659
 10
-1.8919283435566721
 20
29.24667377724484
 10
-1.976790116820724
 20
29.44996033615357
 10
-2.0539729127523261
 20
29.683178164951311
 10
-2.1215993304956711
 20
29.938375719177539
 10
-2.1777919691949479
 20
30.20760145437173
 10
-2.2206734279943499
 20
30.48290382607335
 10
-2.2483663060380672
 20
30.75633128982188
 10
-2.258993202470291
 20
31.0199323011568
 10
-2.2659403450345872
 20
31.170288205930749
 10
-2.2847710525054921
 20
31.31418409225105
 10
-2.3151106426599699
 20
31.451521506574071
 10
-2.3565844332749841
 20
31.582201995356179
 10
-2.4088177421274959
 20
31.70612710505371
 10
-2.4714358869944721
 20
31.823198382123032
 10
-2.5440641856528732
 20
31.933317373020511
 10
-2.6263279558796628
 20
32.036385624202502
 10
-2.717852515451805
 20
32.132304682125351
 10
-2.818263182146262
 20
32.22097609324544
 10
-2.9271852737399962
 20
32.302301404019119
 10
-3.044244108009972
 20
32.376182160902751
 10
-3.1690650027331531
 20
32.442519910352686
 10
-3.3012732756865022
 20
32.50121619882529
 10
-3.4404942446469819
 20
32.552172572776911
 10
-3.5863532273915548
 20
32.595290578663914
 10
-3.738475541697186
 20
32.630471762942662
 10
-3.896486505340838
 20
32.65761767206952
 10
-4.0600114360994732
 20
32.676629852500838
 10
-4.2286756517500557
 20
32.687409850692973
 10
-4.4021044700695473
 20
32.689859213102302
 10
-4.5799232088349129
 20
32.683879486185162
 10
-4.7617571858231136
 20
32.669372216397917
 10
-4.9472317188111159
 20
32.646238950196931
 10
-5.135972125575881
 20
32.614381234038582
 10
-5.3276037238943701
 20
32.573700614379177
 10
-5.5217518315435496
 20
32.524098637675117
 10
-5.7180417663003809
 20
32.46547685038275
 10
-5.9160988459418284
 20
32.397736798958448
 10
-6.1155483882448536
 20
32.320780029858547
 10
-6.3160157109864219
 20
32.234508089539418
 10
-6.5171261319434937
 20
32.138822524457417
 10
-7.1789187042827471
 20
31.816004725661081
 10
-7.6724588083446879
 20
31.595177928626601
 10
-7.8577818594323343
 20
31.523782930264311
 10
-8.0030190030434571
 20
31.478811811735611
 10
-8.1088293090423207
 20
31.46057328283818
 10
-8.1471553572697406
 20
31.46157521131299
 10
-8.1758718472931946
 20
31.46937605336975
 10
-8.1950611628457182
 20
31.484014397733191
 10
-8.204805687660345
 20
31.505528833128011
 10
-8.2051878054701071
 20
31.533957948278921
 10
-8.1962899000080416
 20
31.569340331910659
 10
-8.1509835542005504
 20
31.661119259515409
 10
-8.0695457201021359
 20
31.781174325739961
 10
-7.9526354675770712
 20
31.929814240382029
 10
-7.8009118664896224
 20
32.107347713239307
 10
-7.3956608980846381
 20
32.550330172790318
 10
-7.0582824948555576
 20
32.917191421206333
 10
-6.9241259493541936
 20
33.073409911305752
 10
-6.812473356765322
 20
33.215364746124017
 10
-6.7229363537167153
 20
33.345964251254628
 10
-6.6551265768361532
 20
33.468116752291003
 10
-6.6086556627514117
 20
33.58473057482658
 10
-6.5831352480902714
 20
33.698714044454832
 10
-6.5781769694805057
 20
33.812975486769197
 10
-6.5933924635498959
 20
33.930423227363121
 10
-6.6283933669262183
 20
34.05396559183005
 10
-6.6827913162372496
 20
34.186510905763441
 10
-6.7561979481107688
 20
34.330967494756749
 10
-6.8482248991745527
 20
34.490243684403403
 10
-7.0865863053840252
 20
34.864888168030582
 10
-7.2913486317281651
 20
35.156933641811989
 10
-7.511761038963364
 20
35.432766041836807
 10
-7.7469616901685194
 20
35.692306873476603
 10
-7.9960887484225278
 20
35.935477642102867
 10
-8.2582803768042901
 20
36.162199853087209
 10
-8.5326747383927053
 20
36.372395011801153
 10
-8.81840999626667
 20
36.565984623616252
 10
-9.1146243135050824
 20
36.742890193904017
 10
-9.4204558531868443
 20
36.903033228036051
 10
-9.7350427783908486
 20
37.046335231383857
 10
-10.057523252196001
 20
37.172717709319024
 10
-10.38703543768119
 20
37.282102167213068
 10
-10.72271749792532
 20
37.374410110437552
 10
-11.063707596007291
 20
37.449563044363998
 10
-11.409143895006
 20
37.507482474363982
 10
-11.75816455800034
 20
37.548089905809029
 10
-12.109907748069221
 20
37.571306844070698
 10
-12.463511628291521
 20
37.577054794520549
 10
-12.81811436174617
 20
37.565255262530108
 10
-13.172854111512031
 20
37.535829753470928
 10
-13.52686904066803
 20
37.488699772714561
 10
-13.879297312293049
 20
37.423786825632547
 10
-14.229277089466001
 20
37.341012417596453
 10
-14.575946535265761
 20
37.240298053977803
 10
-14.918443812771249
 20
37.121565240148158
 10
-15.255907085061359
 20
36.984735481479049
 10
-15.58747451521498
 20
36.829730283342037
 10
-15.91228426631103
 20
36.656471151108668
 10
-16.229474501428381
 20
36.464879590150481
 10
-16.538183383645951
 20
36.254877105839043
 10
-16.837549076042631
 20
36.026385203545871
 10
-17.126709741697319
 20
35.779325388642548
 10
-17.460796333660991
 20
35.466783200069123
 10
-17.764720523211601
 20
35.158373461018847
 10
-18.03996539338748
 20
34.850225161982543
 10
-18.288014027226961
 20
34.538467293450992
 10
-18.510349507768389
 20
34.219228845915012
 10
-18.708454918050069
 20
33.888638809865398
 10
-18.883813341110361
 20
33.542826175792968
 10
-19.03790785998758
 20
33.177919934188523
 10
-19.172221557720071
 20
32.790049075542882
 10
-19.28823751734615
 20
32.375342590346833
 10
-19.387438821904158
 20
31.929929469091189
 10
-19.471308554432429
 20
31.44993870226676
 10
-19.54132979796929
 20
30.93149928036436
 10
-19.598985635553081
 20
30.370740193874781
 10
-19.645759150222119
 20
29.76379043328884
 10
-19.683133425014748
 20
29.106778989097329
 10
-19.703119666487598
 20
28.812256208986462
 10
-19.731352634101039
 20
28.569252994606789
 10
-19.766932353086439
 20
28.376758989222481
 10
-19.808958848675129
 20
28.233763836097719
 10
-19.85653214609847
 20
28.139257178496639
 10
-19.88211760338293
 20
28.10987129903754
 10
-19.908752270587811
 20
28.092228659683428
 10
-19.936323650867021
 20
28.086202965842318
 10
-19.964719247374489
 20
28.091667922922241
 10
-19.99382656326414
 20
28.10849723633121
 10
-20.023533101689878
 20
28.136564611477251
 10
-20.08429385876531
 20
28.225908368612611
 10
-20.146101543832149
 20
28.358688837592499
 10
-20.208056182121741
 20
28.533895661681061
 10
-20.269257798865429
 20
28.750518484142479
 10
-20.328806419294569
 20
29.007546948240918
 10
-20.385802068640501
 20
29.30397069724053
 10
-20.4393447721346
 20
29.63877937440548
 10
-20.48853455500819
 20
30.010962622999941
 10
-20.510072206700769
 20
30.154302262990271
 10
-20.53937637293367
 20
30.28934097616111
 10
-20.576409075137139
 20
30.416074835290651
 10
-20.62113233474145
 20
30.534499913157081
 10
-20.673508173176831
 20
30.644612282538581
 10
-20.73349861187355
 20
30.746408016213341
 10
-20.80106567226186
 20
30.83988318695955
 10
-20.876171375772
 20
30.925033867555381
 10
-20.958777743834251
 20
31.001856130779021
 10
-21.048846797878831
 20
31.070346049408659
 10
-21.146340559336021
 20
31.130499696222479
 10
-21.251221049636062
 20
31.18231314399868
 10
-21.363450290209201
 20
31.225782465515429
 10
-21.48299030248571
 20
31.260903733550919
 10
-21.609803107895829
 20
31.287673020883329
 10
-21.743850727869809
 20
31.306086400290859
 10
-21.885095183837912
 20
31.31613994455169
 10
-22.033498497230379
 20
31.317829726443989
 10
-22.189022689477479
 20
31.311151818745959
 10
-22.35162978200945
 20
31.296102294235791
 10
-22.69794075364905
 20
31.240872685891748
 10
-23.07212758359119
 20
31.152109483637339
 10
-23.473886443277909
 20
31.029781269698049
 10
-23.902913504151218
 20
30.873856626299361
 10
-24.358904937653151
 20
30.684304135666771
 10
-24.841556915225731
 20
30.46109238002574
 10
-25.06272939870248
 20
30.349094792036421
 10
-25.278789222815391
 20
30.229804464539999
 10
-25.489611216752159
 20
30.103419865525321
 10
-25.69507020970045
 20
29.970139462981269
 10
-25.89504103084796
 20
29.830161724896708
 10
-26.08939850938237
 20
29.683685119260499
 10
-26.27801747449136
 20
29.5309081140615
 10
-26.46077275536263
 20
29.372029177288599
 10
-26.637539181183829
 20
29.207246776930639
 10
-26.80819158114268
 20
29.036759380976509
 10
-26.972604784426839
 20
28.860765457415059
 10
-27.13065362022401
 20
28.67946347423517
 10
-27.282212917721861
 20
28.493051899425691
 10
-27.42715750610807
 20
28.301729200975501
 10
-27.565362214570339
 20
28.105693846873471
 10
-27.696701872296352
 20
27.90514430510845
 10
-27.82105130847378
 20
27.700279043669319
 10
-27.938285352290311
 20
27.49129653054494
 10
-28.048278832933629
 20
27.278395233724179
 10
-28.15090657959141
 20
27.061773621195901
 10
-28.246043421451361
 20
26.841630160948981
 10
-28.333564187701139
 20
26.618163320972268
 10
-28.413343707528441
 20
26.391571569254651
 10
-28.485256810120951
 20
26.162053373784978
 10
-28.54917832466635
 20
25.92980720255213
 10
-28.604983080352319
 20
25.695031523544959
 10
-28.652545906366552
 20
25.457924804752341
 10
-28.691741631896718
 20
25.218685514163141
 10
-28.722445086130509
 20
24.977512119766221
 10
-28.74453109825561
 20
24.734603089550451
 10
-28.75787449745971
 20
24.4901568915047
 10
-28.76235011293047
 20
24.24437199361784
 10
-28.757001274702141
 20
23.714596860329991
 10
-28.745630168797739
 20
23.499033388063442
 10
-28.72429677559408
 20
23.313011297067149
 10
-28.68987772301184
 20
23.15402457610513
 10
-28.639249638971691
 20
23.0195672139414
 10
-28.569289151394312
 20
22.907133199339981
 10
-28.476872888200379
 20
22.814216521064878
 10
-28.358877477310561
 20
22.738311167880099
 10
-28.212179546645551
 20
22.676911128549669
 10
-28.03365572412601
 20
22.6275103918376
 10
-27.82018263767262
 20
22.587602946507889
 10
-27.568636915206049
 20
22.554682781324569
 10
-27.27589518464697
 20
22.526243885051649
 10
-26.55433021093403
 20
22.47278585429304
 10
-24.346310308937589
 20
22.32121084391397
 10
-26.205695489566171
 20
21.95135468990334
 10
-26.632218679190149
 20
21.862358861414201
 10
-27.044396816026641
 20
21.767828751280611
 10
-27.442408370318301
 20
21.66761158591197
 10
-27.82643181230781
 20
21.561554591717641
 10
-28.196645612237798
 20
21.449504995106999
 10
-28.553228240350961
 20
21.33131002248944
 10
-28.896358166889939
 20
21.20681690027434
 10
-29.226213862097399
 20
21.075872854871069
 10
-29.54297379621601
 20
20.938325112689011
 10
-29.846816439488428
 20
20.794020900137539
 10
-30.137920262157319
 20
20.64280744362604
 10
-30.416463734465339
 20
20.4845319695639
 10
-30.68262532665516
 20
20.31904170436049
 10
-30.936583508969431
 20
20.14618387442518
 10
-31.178516751650829
 20
19.965805706167359
 10
-31.408603524942009
 20
19.777754425996399
 10
-31.62702229908562
 20
19.581877260321701
 10
-31.83395154432435
 20
19.378021435552611
 10
-32.029569730900853
 20
19.166034178098531
 10
-32.214055329057757
 20
18.94576271436884
 10
-32.387586809037778
 20
18.717054270772909
 10
-32.550342641083553
 20
18.479756073720111
 10
-32.702501295437742
 20
18.233715349619839
 10
-32.844241242343003
 20
17.978779324881469
 10
-32.975740952042017
 20
17.714795225914379
 10
-33.097178894777421
 20
17.44161027912795
 10
-33.208733540791897
 20
17.159071710931549
 10
-33.310583360328103
 20
16.867026747734581
 10
-33.402906823628683
 20
16.565322615946389
 10
-33.485882400936333
 20
16.253806541976381
 10
-33.559688562493683
 20
15.932325752233931
 10
-33.624503778543414
 20
15.60072747312841
 10
-33.66008115234871
 20
15.365386321099219
 10
-33.68311272336588
 20
15.12727524732842
 10
-33.693834277189723
 20
14.886807218589221
 10
-33.692481599414997
 20
14.644395201654859
 10
-33.67929047563652
 20
14.40045216329856
 10
-33.654496691449069
 20
14.155391070293559
 10
-33.618336032447417
 20
13.90962488941307
 10
-33.571044284226353
 20
13.66356658743033
 10
-33.512857232380647
 20
13.41762913111857
 10
-33.444010662505121
 20
13.17222548725101
 10
-33.364740360194531
 20
12.927768622600871
 10
-33.27528211104368
 20
12.6846715039414
 10
-33.175871700647328
 20
12.443347098045811
 10
-33.066744914600292
 20
12.204208371687329
 10
-32.948137538497328
 20
11.967668291639191
 10
-32.820285357933237
 20
11.734139824674619
 10
-32.68342415850281
 20
11.504035937566851
 10
-32.53778972580082
 20
11.277769597089099
 10
-32.383617845422037
 20
11.055753770014601
 10
-32.221144302961292
 20
10.838401423116579
 10
-32.050604884013318
 20
10.626125523168261
 10
-31.872235374172941
 20
10.41933903694288
 10
-31.68627155903491
 20
10.21845493121366
 10
-31.492949224194049
 20
10.02388617275383
 10
-31.292504155245108
 20
9.8360457283366109
 10
-31.085172137782902
 20
9.6553465647352414
 10
-30.871188957402179
 20
9.4822016487229419
 10
-30.650790399697762
 20
9.3170239470729435
 10
-30.424212250264411
 20
9.1602264265584719
 10
-30.191690294696929
 20
9.0122220539527564
 10
-29.953460318590079
 20
8.873423796029023
 10
-29.709758107538661
 20
8.7442446195604973
 10
-29.215117117805629
 20
8.5067927927738598
 10
-28.740726179278571
 20
8.3046716969455741
 10
-28.283616456838072
 20
8.1381197691813156
 10
-28.060614290675449
 20
8.0682567549187212
 10
-27.840819115364681
 20
8.0073754465867601
 10
-27.623859826515829
 20
7.9555056488236442
 10
-27.409365319738971
 20
7.9126771662675814
 10
-27.196964490644181
 20
7.8789198035567809
 10
-26.986286234841511
 20
7.8542633653294542
 10
-26.776959447941049
 20
7.8387376562238096
 10
-26.56861302555286
 20
7.8323724808780559
 10
-26.36087586328701
 20
7.8351976439304032
 10
-26.153376856753589
 20
7.8472429500190604
 10
-25.945744901562641
 20
7.8685382037822382
 10
-25.73760889332425
 20
7.899113209858144
 10
-25.528597727648481
 20
7.9389977728849894
 10
-25.318340300145419
 20
7.9882216975009817
 10
-25.10646550642511
 20
8.0468147883443315
 10
-24.892602242097649
 20
8.1148068500532489
 10
-24.67637940277309
 20
8.192227687265941
 10
-24.457425884061511
 20
8.2791071046206177
 10
-24.00984239091758
 20
8.4813608983087683
 10
-23.54688292754641
 20
8.7218066682233726
 10
-23.06557865882856
 20
9.0006828514701063
  0
LWPOLYLINE
  5
47
  8
LAYER_1
 62
256
370
-1
  6
ByLayer
100
AcDbEntity
100
AcDbPolyline
 90
76
 70
1
 10
-10.338184931506831
 20
-12.58561643835616
 10
-9.3943811811420233
 20
-0.4280278372269635
 10
-7.8488928259791129
 20
0.5051641635783
 10
-7.6737163324311748
 20
0.6002262637579867
 10
-7.4686408992641944
 20
0.6926227520213109
 10
-7.2362121378148956
 20
0.7818751852037968
 10
-6.9789756594200041
 20
0.8675051201409693
 10
-6.6994770754162412
 20
0.949034113668353
 10
-6.4002619971403316
 20
1.025983722621473
 10
-6.0838760359290021
 20
1.097875503835853
 10
-5.7528648031189729
 20
1.164231014147018
 10
-5.4097739100469697
 20
1.224571810390493
 10
-5.0571489680497166
 20
1.278419449401802
 10
-4.6975355884639383
 20
1.3252954880164709
 10
-4.3334793826263578
 20
1.3647214830700229
 10
-3.9675259618737
 20
1.3962189913979841
 10
-3.6022209375426879
 20
1.419309569835878
 10
-3.2401099209700459
 20
1.433514775219229
 10
-2.8837385234924988
 20
1.438356164383563
 10
-2.7075122267889689
 20
1.445247097204871
 10
-2.5392418628600342
 20
1.4653827235103309
 10
-2.3788677399967941
 20
1.4979572850622449
 10
-2.2263301664903512
 20
1.542165023622919
 10
-2.0815694506318061
 20
1.5972001809546541
 10
-1.9445259007122591
 20
1.6622569988197551
 10
-1.815139825022813
 20
1.7365297189805251
 10
-1.693351531854566
 20
1.819212583199268
 10
-1.5791013294986209
 20
1.9094998332382871
 10
-1.472329526246078
 20
2.006585710859885
 10
-1.3729764303880381
 20
2.1096644578263661
 10
-1.280982350215603
 20
2.2179303159000341
 10
-1.1962875940198729
 20
2.3305775268431921
 10
-1.1188324700919481
 20
2.4468003324181429
 10
-0.985402352203922
 20
2.686749694512641
 10
-0.880214462880331
 20
2.931332336281955
 10
-0.8027912684499827
 20
3.174102191824514
 10
-0.7526552352416847
 20
3.4086131952387442
 10
-0.7293288295842444
 20
3.6284192806230759
 10
-0.7323345178064693
 20
3.8270743820759359
 10
-0.7435626678502085
 20
3.9164559182338219
 10
-0.7611947662371668
 20
3.9981324336957522
 10
-0.7851711212584451
 20
4.0712981702240274
 10
-0.8154320412051443
 20
4.1351473695809524
 10
-0.8519178343683654
 20
4.18887427352883
 10
-0.8945688090392094
 20
4.2316731238299639
 10
-1.0496973094200319
 20
4.3362284868227894
 10
-1.244865750425957
 20
4.4321975366269477
 10
-1.4775984538199201
 20
4.519679481018823
 10
-1.745419741364858
 20
4.5987735277747959
 10
-2.0458539348237079
 20
4.6695788846712496
 10
-2.3764253559594088
 20
4.7321947594845692
 10
-2.7346583265348952
 20
4.7867203599911354
 10
-3.1180771683131052
 20
4.8332548939673314
 10
-3.5242062030569761
 20
4.8718975691895388
 10
-3.9505697525294439
 20
4.9027475934341416
 10
-4.394692138493447
 20
4.9259041744775232
 10
-4.8540976827119202
 20
4.9414665200960659
 10
-5.8088555329640306
 20
4.9502053361641654
 10
-6.7950378773892721
 20
4.9297577038495017
 10
-7.7928392900911394
 20
4.8809172853631386
 10
-8.7824543451731287
 20
4.8044777429161369
 10
-9.268002793014011
 20
4.7561563196483538
 10
-9.7440776167387373
 20
4.7012327387195594
 10
-10.208203138110241
 20
4.6398062079061368
 10
-10.65790367889146
 20
4.5719759349844686
 10
-11.090703560845331
 20
4.497841127730938
 10
-11.50412710573479
 20
4.4175009939219274
 10
-11.89569863532278
 20
4.3310547413338192
 10
-12.262942471372231
 20
4.2386015777429966
 10
-12.60338293564608
 20
4.140240710925843
 10
-12.914544349907271
 20
4.036071348658739
 10
-13.19395103591874
 20
3.92619269871807
 10
-13.43912731544342
 20
3.8107039688802189
 10
-14.29102034649476
 20
2.6982109192270021
 10
-14.29102034649476
 20
-25.788174858984689
 10
-10.71888710989035
 20
-26.83320813914127
  0
LWPOLYLINE
  5
48
  8
LAYER_1
 62
256
370
-1
  6
ByLayer
100
AcDbEntity
100
AcDbPolyline
 90
76
 70
1
 10
7.6412671232876841
 20
-12.58561643835616
 10
8.5850708736524943
 20
-0.4280278372269635
 10
10.1305592288154
 20
0.5051641635783
 10
10.305735722363339
 20
0.6002262637579867
 10
10.51081115553032
 20
0.6926227520213109
 10
10.74323991697962
 20
0.7818751852037968
 10
11.000476395374511
 20
0.8675051201409693
 10
11.279974979378281
 20
0.949034113668353
 10
11.57919005765419
 20
1.025983722621473
 10
11.895576018865521
 20
1.097875503835853
 10
12.22658725167555
 20
1.164231014147018
 10
12.569678144747551
 20
1.224571810390493
 10
12.922303086744799
 20
1.278419449401802
 10
13.28191646633058
 20
1.3252954880164709
 10
13.64597267216816
 20
1.3647214830700229
 10
14.01192609292082
 20
1.3962189913979841
 10
14.37723111725183
 20
1.419309569835878
 10
14.73934213382447
 20
1.433514775219229
 10
15.095713531302019
 20
1.438356164383563
 10
15.27193982800555
 20
1.445247097204871
 10
15.44021019193449
 20
1.4653827235103309
 10
15.600584314797731
 20
1.4979572850622449
 10
15.75312188830417
 20
1.542165023622919
 10
15.89788260416271
 20
1.5972001809546541
 10
16.03492615408226
 20
1.6622569988197551
 10
16.16431222977171
 20
1.7365297189805251
 10
16.28610052293995
 20
1.819212583199268
 10
16.400350725295901
 20
1.9094998332382871
 10
16.50712252854844
 20
2.006585710859885
 10
16.606475624406489
 20
2.1096644578263661
 10
16.698469704578919
 20
2.2179303159000341
 10
16.78316446077465
 20
2.3305775268431921
 10
16.860619584702569
 20
2.4468003324181429
 10
16.994049702590601
 20
2.686749694512641
 10
17.099237591914189
 20
2.931332336281955
 10
17.176660786344542
 20
3.174102191824514
 10
17.226796819552831
 20
3.4086131952387442
 10
17.250123225210281
 20
3.6284192806230759
 10
17.24711753698806
 20
3.8270743820759359
 10
17.235889386944319
 20
3.9164559182338219
 10
17.218257288557361
 20
3.9981324336957522
 10
17.194280933536081
 20
4.0712981702240274
 10
17.164020013589379
 20
4.1351473695809524
 10
17.12753422042616
 20
4.18887427352883
 10
17.084883245755311
 20
4.2316731238299639
 10
16.929754745374488
 20
4.3362284868227894
 10
16.734586304368559
 20
4.4321975366269477
 10
16.501853600974599
 20
4.519679481018823
 10
16.234032313429658
 20
4.5987735277747959
 10
15.93359811997081
 20
4.6695788846712496
 10
15.603026698835111
 20
4.7321947594845692
 10
15.244793728259619
 20
4.7867203599911354
 10
14.861374886481411
 20
4.8332548939673314
 10
14.455245851737541
 20
4.8718975691895388
 10
14.02888230226508
 20
4.9027475934341416
 10
13.584759916301071
 20
4.9259041744775232
 10
13.125354372082599
 20
4.9414665200960659
 10
12.17059652183049
 20
4.9502053361641654
 10
11.18441417740525
 20
4.9297577038495017
 10
10.18661276470338
 20
4.8809172853631386
 10
9.1969977096213906
 20
4.8044777429161369
 10
8.7114492617805084
 20
4.7561563196483538
 10
8.2353744380557821
 20
4.7012327387195594
 10
7.7712489166842804
 20
4.6398062079061368
 10
7.3215483759030597
 20
4.5719759349844686
 10
6.888748493949187
 20
4.497841127730938
 10
6.4753249490597264
 20
4.4175009939219274
 10
6.0837534194717371
 20
4.3310547413338192
 10
5.716509583422285
 20
4.2386015777429966
 10
5.3760691191484327
 20
4.140240710925843
 10
5.0649077048872426
 20
4.036071348658739
 10
4.7855010188757774
 20
3.92619269871807
 10
4.5403247393511004
 20
3.8107039688802189
 10
3.688431708299762
 20
2.6982109192270021
 10
3.688431708299762
 20
-25.788174858984689
 10
7.2605649449041687
 20
-26.83320813914127
  0
ENDSEC
  0
SECTION
  2
OBJECTS
  0
DICTIONARY
  5
C
100
AcDbDictionary
280
0
281
1
  3
ACAD_GROUP
350
D
  3
ACAD_LAYOUT
350
1A
  3
ACAD_MLINESTYLE
350
17
  3
ACAD_PLOTSETTINGS
350
19
  3
ACAD_PLOTSTYLENAME
350
E
  3
AcDbVariableDictionary
350
49
  0
DICTIONARY
  5
D
100
AcDbDictionary
280
0
281
1
  0
ACDBDICTIONARYWDFLT
  5
E
100
AcDbDictionary
281
1
  3
Normal
350
F
100
AcDbDictionaryWithDefault
340
F
  0
ACDBPLACEHOLDER
  5
F
  0
DICTIONARY
  5
17
100
AcDbDictionary
280
0
281
1
  3
Standard
350
18
  0
MLINESTYLE
  5
18
100
AcDbMlineStyle
  2
STANDARD
 70
0
  3

 62
256
 51
90.0
 52
90.0
 71
2
 49
0.5
 62
256
  6
BYLAYER
 49
-0.5
 62
256
  6
BYLAYER
  0
DICTIONARY
  5
19
100
AcDbDictionary
280
0
281
1
  0
DICTIONARY
  5
1A
100
AcDbDictionary
281
1
  3
Layout1
350
1E
  3
Layout2
350
26
  3
Model
350
22
  0
LAYOUT
  5
1E
100
AcDbPlotSettings
  1

  2
C:\Program Files\AutoCAD 2002\plotters\DWF ePlot (optimized for plotting).pc3
  4

  6

 40
0.0
 41
0.0
 42
0.0
 43
0.0
 44
0.0
 45
0.0
 46
0.0
 47
0.0
 48
0.0
 49
0.0
140
0.0
141
0.0
142
1.0
143
1.0
 70
688
 72
0
 73
0
 74
5
  7

 75
16
147
1.0
148
0.0
149
0.0
100
AcDbLayout
  1
Layout1
 70
1
 71
1
 10
0.0
 20
0.0
 11
420.0
 21
297.0
 12
0.0
 22
0.0
 32
0.0
 14
100000000000000000000.0
 24
100000000000000000000.0
 34
100000000000000000000.0
 15
-100000000000000000000.0
 25
-100000000000000000000.0
 35
-100000000000000000000.0
146
0.0
 13
0.0
 23
0.0
 33
0.0
 16
1.0
 26
0.0
 36
0.0
 17
0.0
 27
1.0
 37
0.0
 76
0
330
1B
  0
LAYOUT
  5
22
100
AcDbPlotSettings
  1

  2
C:\Program Files\AutoCAD 2002\plotters\DWF ePlot (optimized for plotting).pc3
  4

  6

 40
0.0
 41
0.0
 42
0.0
 43
0.0
 44
0.0
 45
0.0
 46
0.0
 47
0.0
 48
0.0
 49
0.0
140
0.0
141
0.0
142
1.0
143
1.0
 70
1712
 72
0
 73
0
 74
0
  7

 75
0
147
1.0
148
0.0
149
0.0
100
AcDbLayout
  1
Model
 70
1
 71
0
 10
0.0
 20
0.0
 11
12.0
 21
9.0
 12
0.0
 22
0.0
 32
0.0
 14
0.0
 24
0.0
 34
0.0
 15
0.0
 25
0.0
 35
0.0
146
0.0
 13
0.0
 23
0.0
 33
0.0
 16
1.0
 26
0.0
 36
0.0
 17
0.0
 27
1.0
 37
0.0
 76
0
330
1F
  0
LAYOUT
  5
26
100
AcDbPlotSettings
  1

  2
C:\Program Files\AutoCAD 2002\plotters\DWF ePlot (optimized for plotting).pc3
  4

  6

 40
0.0
 41
0.0
 42
0.0
 43
0.0
 44
0.0
 45
0.0
 46
0.0
 47
0.0
 48
0.0
 49
0.0
140
0.0
141
0.0
142
1.0
143
1.0
 70
688
 72
0
 73
0
 74
5
  7

 75
16
147
1.0
148
0.0
149
0.0
100
AcDbLayout
  1
Layout2
 70
1
 71
2
 10
0.0
 20
0.0
 11
12.0
 21
9.0
 12
0.0
 22
0.0
 32
0.0
 14
0.0
 24
0.0
 34
0.0
 15
0.0
 25
0.0
 35
0.0
146
0.0
 13
0.0
 23
0.0
 33
0.0
 16
1.0
 26
0.0
 36
0.0
 17
0.0
 27
1.0
 37
0.0
 76
0
330
23
  0
DICTIONARY
  5
49
100
AcDbDictionary
281
1
  3
DIMASSOC
350
4B
  3
HIDETEXT
350
4A
  0
DICTIONARYVAR
  5
4A
100
DictionaryVariables
280
0
  1
2
  0
DICTIONARYVAR
  5
4B
100
DictionaryVariables
280
0
  1
1
  0
ENDSEC
  0
EOF
