999
dxflib 2.0.4.8
  0
SECTION
  2
HEADER
  9
$ACADVER
  1
AC1015
  9
$HANDSEED
  5
FFFF
  9
$USERR4
 40
0.0
  9
$DIMTAD
 70
0
  9
$VISRETAIN
 70
1
  9
$TILEMODE
 70
1
  9
$SHADEDIF
 70
70
  9
$USERR5
 40
0.0
  9
$UCSYDIR
 10
0.0
 20
1.0
 30
0.0
  9
$ATTREQ
 70
1
  9
$CHAMFERA
 40
0.5
  9
$MENU
  1
.
  9
$CLAYER
  8
0
  9
$UCSXDIR
 10
1.0
 20
0.0
 30
0.0
  9
$CHAMFERB
 40
0.5
  9
$DIMASZ
 40
0.18
  9
$TRACEWID
 40
0.05
  9
$REGENMODE
 70
1
  9
$ORTHOMODE
 70
0
  9
$EXTMIN
 10
-46.779964221824677
 20
-37.288042420557858
 30
0.0
  9
$PUCSYDIR
 10
0.0
 20
1.0
 30
0.0
  9
$ANGBASE
 50
0.0
  9
$USRTIMER
 70
1
  9
$SKETCHINC
 40
0.1
  9
$DIMGAP
 40
0.09
  9
$DIMTFAC
 40
1.0
  9
$DIMSAH
 70
0
  9
$DIMALT
 70
0
  9
$DIMSHO
 70
1
  9
$PUCSXDIR
 10
1.0
 20
0.0
 30
0.0
  9
$SURFTYPE
 70
6
  9
$SPLFRAME
 70
0
  9
$DIMTSZ
 40
0.0
  9
$LIMMIN
 10
0.0
 20
0.0
  9
$SURFTAB1
 70
6
  9
$SPLINESEGS
 70
8
  9
$AUPREC
 70
0
  9
$LUNITS
 70
2
  9
$DWGCODEPAGE
  3
ansi_1252
  9
$UNITMODE
 70
0
  9
$USERI1
 70
0
  9
$SURFTAB2
 70
6
  9
$SKPOLY
 70
0
  9
$ELEVATION
 40
0.0
  9
$DIMCEN
 40
0.09
  9
$DIMRND
 40
0.0
  9
$INSBASE
 10
0.0
 20
0.0
 30
0.0
  9
$USERI2
 70
0
  9
$UCSORG
 10
0.0
 20
0.0
 30
0.0
  9
$PELEVATION
 40
0.0
  9
$DIMEXO
 40
0.0625
  9
$TEXTSIZE
 40
0.2
  9
$DRAGMODE
 70
2
  9
$FILLMODE
 70
1
  9
$EXTMAX
 10
45.348837209302332
 20
37.29874776386405
 30
0.0
  9
$INSUNITS
 70
4
  9
$USERI3
 70
0
  9
$SURFU
 70
6
  9
$ANGDIR
 70
0
  9
$TDUSRTIMER
 40
0.0000000116
  9
$DIMZIN
 70
0
  9
$DIMDLE
 40
0.0
  9
$DIMSCALE
 40
1.0
  9
$WORLDVIEW
 70
1
  9
$USERI4
 70
0
  9
$SURFV
 70
6
  9
$OSMODE
 70
37
  9
$QTEXTMODE
 70
0
  9
$LIMMAX
 10
12.0
 20
9.0
  9
$USERI5
 70
0
  9
$HANDLING
 70
1
  9
$PDMODE
 70
0
  9
$LIMCHECK
 70
0
  9
$THICKNESS
 40
0.0
  9
$DIMSE1
 70
0
  9
$DIMLIM
 70
0
  9
$DIMTXT
 40
0.18
  9
$ATTMODE
 70
1
  9
$PEXTMAX
 10
-100000000000000000000.0
 20
-100000000000000000000.0
 30
-100000000000000000000.0
  9
$PEXTMIN
 10
100000000000000000000.0
 20
100000000000000000000.0
 30
100000000000000000000.0
  9
$PUCSORG
 10
0.0
 20
0.0
 30
0.0
  9
$SPLINETYPE
 70
6
  9
$TDINDWG
 40
0.0000000116
  9
$LUPREC
 70
4
  9
$DIMSOXD
 70
0
  9
$DIMLFAC
 40
1.0
  9
$DIMSE2
 70
0
  9
$DIMTOH
 70
1
  9
$CELTYPE
  6
BYLAYER
  9
$PLIMCHECK
 70
0
  9
$PLINEWID
 40
0.0
  9
$DIMSTYLE
  2
STANDARD
  9
$DIMTVP
 40
0.0
  9
$DIMASO
 70
1
  9
$DIMTM
 40
0.0
  9
$DIMDLI
 40
0.38
  9
$CECOLOR
 62
256
  9
$PLIMMAX
 10
12.0
 20
9.0
  9
$PLIMMIN
 10
0.0
 20
0.0
  9
$MAXACTVP
 70
64
  9
$TDUPDATE
 40
2456272.7991166669
  9
$FILLETRAD
 40
0.5
  9
$DIMCLRT
 70
0
  9
$DIMALTD
 70
2
  9
$DIMTIH
 70
1
  9
$LTSCALE
 40
1.0
  9
$USERR1
 40
0.0
  9
$ATTDIA
 70
0
  9
$PDSIZE
 40
0.0
  9
$DIMCLRD
 70
0
  9
$DIMEXE
 40
0.18
  9
$PSLTSCALE
 70
1
  9
$PLINEGEN
 70
0
  9
$SHADEDGE
 70
3
  9
$USERR2
 40
0.0
  9
$COORDS
 70
1
  9
$TDCREATE
 40
2454910.5
  9
$DIMCLRE
 70
0
  9
$DIMTOFL
 70
0
  9
$DIMALTF
 40
25.399999999999999
  9
$DIMTOL
 70
0
  9
$DIMTP
 40
0.0
  9
$TEXTSTYLE
  7
STANDARD
  9
$USERR3
 40
0.0
  9
$AUNITS
 70
0
  9
$DIMTIX
 70
0
  9
$MIRRTEXT
 70
1
  0
ENDSEC
  0
SECTION
  2
TABLES
  0
TABLE
  2
VPORT
  5
8
100
AcDbSymbolTable
 70
1
  0
VPORT
  5
30
100
AcDbSymbolTableRecord
100
AcDbViewportTableRecord
  2
*Active
 70
0
 10
0.0
 20
0.0
 11
1.0
 21
1.0
 12
286.30555555555549
 22
148.5
 13
0.0
 23
0.0
 14
10.0
 24
10.0
 15
10.0
 25
10.0
 16
0.0
 26
0.0
 36
1.0
 17
0.0
 27
0.0
 37
0.0
 40
297.0
 41
1.92798353909465
 42
50.0
 43
0.0
 44
0.0
 50
0.0
 51
0.0
 71
0
 72
100
 73
1
 74
3
 75
1
 76
1
 77
0
 78
0
281
0
 65
1
110
0.0
120
0.0
130
0.0
111
1.0
121
0.0
131
0.0
112
0.0
122
1.0
132
0.0
 79
0
146
0.0
  0
ENDTAB
  0
TABLE
  2
LTYPE
  5
5
100
AcDbSymbolTable
 70
21
  0
LTYPE
  5
14
100
AcDbSymbolTableRecord
100
AcDbLinetypeTableRecord
  2
ByBlock
 70
0
  3

 72
65
 73
0
 40
0.0
  0
LTYPE
  5
15
100
AcDbSymbolTableRecord
100
AcDbLinetypeTableRecord
  2
ByLayer
 70
0
  3

 72
65
 73
0
 40
0.0
  0
LTYPE
  5
16
100
AcDbSymbolTableRecord
100
AcDbLinetypeTableRecord
  2
CONTINUOUS
 70
0
  3
Solid line
 72
65
 73
0
 40
0.0
  0
LTYPE
  5
31
100
AcDbSymbolTableRecord
100
AcDbLinetypeTableRecord
  2
DOT
 70
0
  3
Dot . . . . . . . . . . . . . . . . . . . . . .
 72
65
 73
2
 40
6.3499999999999996
 49
0.0
 74
0
 49
-6.3499999999999996
 74
0
  0
LTYPE
  5
32
100
AcDbSymbolTableRecord
100
AcDbLinetypeTableRecord
  2
DOT2
 70
0
  3
Dot (.5x) .....................................
 72
65
 73
2
 40
3.1749999999999998
 49
0.0
 74
0
 49
-3.1749999999999998
 74
0
  0
LTYPE
  5
33
100
AcDbSymbolTableRecord
100
AcDbLinetypeTableRecord
  2
DOTX2
 70
0
  3
Dot (2x) .  .  .  .  .  .  .  .  .  .  .  .  .
 72
65
 73
2
 40
12.699999999999999
 49
0.0
 74
0
 49
-12.699999999999999
 74
0
  0
LTYPE
  5
34
100
AcDbSymbolTableRecord
100
AcDbLinetypeTableRecord
  2
DASHED
 70
0
  3
Dashed __ __ __ __ __ __ __ __ __ __ __ __ __ _
 72
65
 73
2
 40
19.050000000000001
 49
12.699999999999999
 74
0
 49
-6.3499999999999996
 74
0
  0
LTYPE
  5
35
100
AcDbSymbolTableRecord
100
AcDbLinetypeTableRecord
  2
DASHED2
 70
0
  3
Dashed (.5x) _ _ _ _ _ _ _ _ _ _ _ _ _ _ _ _ _
 72
65
 73
2
 40
9.5250000000000004
 49
6.3499999999999996
 74
0
 49
-3.1749999999999998
 74
0
  0
LTYPE
  5
36
100
AcDbSymbolTableRecord
100
AcDbLinetypeTableRecord
  2
DASHEDX2
 70
0
  3
Dashed (2x) ____  ____  ____  ____  ____  ___
 72
65
 73
2
 40
38.100000000000001
 49
25.399999999999999
 74
0
 49
-12.699999999999999
 74
0
  0
LTYPE
  5
37
100
AcDbSymbolTableRecord
100
AcDbLinetypeTableRecord
  2
DASHDOT
 70
0
  3
Dash dot __ . __ . __ . __ . __ . __ . __ . __
 72
65
 73
4
 40
25.399999999999999
 49
12.699999999999999
 74
0
 49
-6.3499999999999996
 74
0
 49
0.0
 74
0
 49
-6.3499999999999996
 74
0
  0
LTYPE
  5
38
100
AcDbSymbolTableRecord
100
AcDbLinetypeTableRecord
  2
DASHDOT2
 70
0
  3
Dash dot (.5x) _._._._._._._._._._._._._._._.
 72
65
 73
4
 40
12.699999999999999
 49
6.3499999999999996
 74
0
 49
-3.1749999999999998
 74
0
 49
0.0
 74
0
 49
-3.1749999999999998
 74
0
  0
LTYPE
  5
39
100
AcDbSymbolTableRecord
100
AcDbLinetypeTableRecord
  2
DASHDOTX2
 70
0
  3
Dash dot (2x) ____  .  ____  .  ____  .  ___
 72
65
 73
4
 40
50.799999999999997
 49
25.399999999999999
 74
0
 49
-12.699999999999999
 74
0
 49
0.0
 74
0
 49
-12.699999999999999
 74
0
  0
LTYPE
  5
3A
100
AcDbSymbolTableRecord
100
AcDbLinetypeTableRecord
  2
DIVIDE
 70
0
  3
Divide ____ . . ____ . . ____ . . ____ . . ____
 72
65
 73
6
 40
31.75
 49
12.699999999999999
 74
0
 49
-6.3499999999999996
 74
0
 49
0.0
 74
0
 49
-6.3499999999999996
 74
0
 49
0.0
 74
0
 49
-6.3499999999999996
 74
0
  0
LTYPE
  5
3B
100
AcDbSymbolTableRecord
100
AcDbLinetypeTableRecord
  2
DIVIDE2
 70
0
  3
Divide (.5x) __..__..__..__..__..__..__..__.._
 72
65
 73
6
 40
15.875
 49
6.3499999999999996
 74
0
 49
-3.1749999999999998
 74
0
 49
0.0
 74
0
 49
-3.1749999999999998
 74
0
 49
0.0
 74
0
 49
-3.1749999999999998
 74
0
  0
LTYPE
  5
3C
100
AcDbSymbolTableRecord
100
AcDbLinetypeTableRecord
  2
DIVIDEX2
 70
0
  3
Divide (2x) ________  .  .  ________  .  .  _
 72
65
 73
6
 40
63.5
 49
25.399999999999999
 74
0
 49
-12.699999999999999
 74
0
 49
0.0
 74
0
 49
-12.699999999999999
 74
0
 49
0.0
 74
0
 49
-12.699999999999999
 74
0
  0
LTYPE
  5
3D
100
AcDbSymbolTableRecord
100
AcDbLinetypeTableRecord
  2
CENTER
 70
0
  3
Center ____ _ ____ _ ____ _ ____ _ ____ _ ____
 72
65
 73
4
 40
50.799999999999997
 49
31.75
 74
0
 49
-6.3499999999999996
 74
0
 49
6.3499999999999996
 74
0
 49
-6.3499999999999996
 74
0
  0
LTYPE
  5
3E
100
AcDbSymbolTableRecord
100
AcDbLinetypeTableRecord
  2
CENTER2
 70
0
  3
Center (.5x) ___ _ ___ _ ___ _ ___ _ ___ _ ___
 72
65
 73
4
 40
28.574999999999999
 49
19.050000000000001
 74
0
 49
-3.1749999999999998
 74
0
 49
3.1749999999999998
 74
0
 49
-3.1749999999999998
 74
0
  0
LTYPE
  5
3F
100
AcDbSymbolTableRecord
100
AcDbLinetypeTableRecord
  2
CENTERX2
 70
0
  3
Center (2x) ________  __  ________  __  _____
 72
65
 73
4
 40
101.59999999999999
 49
63.5
 74
0
 49
-12.699999999999999
 74
0
 49
12.699999999999999
 74
0
 49
-12.699999999999999
 74
0
  0
LTYPE
  5
40
100
AcDbSymbolTableRecord
100
AcDbLinetypeTableRecord
  2
BORDER
 70
0
  3
Border __ __ . __ __ . __ __ . __ __ . __ __ .
 72
65
 73
6
 40
44.450000000000003
 49
12.699999999999999
 74
0
 49
-6.3499999999999996
 74
0
 49
12.699999999999999
 74
0
 49
-6.3499999999999996
 74
0
 49
0.0
 74
0
 49
-6.3499999999999996
 74
0
  0
LTYPE
  5
41
100
AcDbSymbolTableRecord
100
AcDbLinetypeTableRecord
  2
BORDER2
 70
0
  3
Border (.5x) __.__.__.__.__.__.__.__.__.__.__.
 72
65
 73
6
 40
22.225000000000001
 49
6.3499999999999996
 74
0
 49
-3.1749999999999998
 74
0
 49
6.3499999999999996
 74
0
 49
-3.1749999999999998
 74
0
 49
0.0
 74
0
 49
-3.1749999999999998
 74
0
  0
LTYPE
  5
42
100
AcDbSymbolTableRecord
100
AcDbLinetypeTableRecord
  2
BORDERX2
 70
0
  3
Border (2x) ____  ____  .  ____  ____  .  ___
 72
65
 73
6
 40
88.900000000000006
 49
25.399999999999999
 74
0
 49
-12.699999999999999
 74
0
 49
25.399999999999999
 74
0
 49
-12.699999999999999
 74
0
 49
0.0
 74
0
 49
-12.699999999999999
 74
0
  0
ENDTAB
  0
TABLE
  2
LAYER
  5
2
100
AcDbSymbolTable
 70
2
  0
LAYER
  5
10
100
AcDbSymbolTableRecord
100
AcDbLayerTableRecord
  2
0
 70
0
 62
7
  6
CONTINUOUS
390
F
  0
LAYER
  5
43
100
AcDbSymbolTableRecord
100
AcDbLayerTableRecord
  2
LAYER_1
 70
0
 62
7
  6
CONTINUOUS
370
-3
390
F
  0
ENDTAB
  0
TABLE
  2
STYLE
  5
3
100
AcDbSymbolTable
 70
1
  0
STYLE
  5
11
100
AcDbSymbolTableRecord
100
AcDbTextStyleTableRecord
  2
Standard
 70
0
 40
0.0
 41
0.75
 50
0.0
 71
0
 42
2.5
  3
txt
  4

  0
ENDTAB
  0
TABLE
  2
VIEW
  5
6
100
AcDbSymbolTable
 70
0
  0
ENDTAB
  0
TABLE
  2
UCS
  5
7
100
AcDbSymbolTable
 70
0
  0
ENDTAB
  0
TABLE
  2
APPID
  5
9
100
AcDbSymbolTable
 70
1
  0
APPID
  5
12
100
AcDbSymbolTableRecord
100
AcDbRegAppTableRecord
  2
ACAD
 70
0
  0
ENDTAB
  0
TABLE
  2
DIMSTYLE
  5
A
100
AcDbSymbolTable
 70
1
100
AcDbDimStyleTable
 71
0
  0
DIMSTYLE
105
27
100
AcDbSymbolTableRecord
100
AcDbDimStyleTableRecord
  2
Standard
 41
0.18
 42
0.0625
 43
3.75
 44
0.18
 70
0
 73
0
 74
0
 77
1
 78
8
140
0.18
141
2.5
143
0.03937007874016
147
0.09
171
3
172
1
271
2
272
2
274
3
278
44
283
0
284
8
340
11
  0
ENDTAB
  0
TABLE
  2
BLOCK_RECORD
  5
1
100
AcDbSymbolTable
 70
1
  0
BLOCK_RECORD
  5
1F
100
AcDbSymbolTableRecord
100
AcDbBlockTableRecord
  2
*Model_Space
340
22
  0
BLOCK_RECORD
  5
1B
100
AcDbSymbolTableRecord
100
AcDbBlockTableRecord
  2
*Paper_Space
340
1E
  0
BLOCK_RECORD
  5
23
100
AcDbSymbolTableRecord
100
AcDbBlockTableRecord
  2
*Paper_Space0
340
26
  0
ENDTAB
  0
ENDSEC
  0
SECTION
  2
BLOCKS
  0
BLOCK
  5
20
100
AcDbEntity
  8
0
100
AcDbBlockBegin
  2
*Model_Space
 70
0
 10
0.0
 20
0.0
 30
0.0
  3
*Model_Space
  1

  0
ENDBLK
  5
21
100
AcDbEntity
  8
0
100
AcDbBlockEnd
  0
BLOCK
  5
1C
100
AcDbEntity
 67
1
  8
0
100
AcDbBlockBegin
  2
*Paper_Space
 70
0
 10
0.0
 20
0.0
 30
0.0
  3
*Paper_Space
  1

  0
ENDBLK
  5
1D
100
AcDbEntity
 67
1
  8
0
100
AcDbBlockEnd
  0
BLOCK
  5
24
100
AcDbEntity
  8
0
100
AcDbBlockBegin
  2
*Paper_Space0
 70
0
 10
0.0
 20
0.0
 30
0.0
  3
*Paper_Space0
  1

  0
ENDBLK
  5
25
100
AcDbEntity
  8
0
100
AcDbBlockEnd
  0
ENDSEC
  0
SECTION
  2
ENTITIES
  0
LWPOLYLINE
  5
44
  8
LAYER_1
 62
256
370
-1
  6
ByLayer
100
AcDbEntity
100
AcDbPolyline
 90
238
 70
1
 10
-31.842576028622538
 20
-37.247781002844498
 10
-31.392850559643762
 20
-37.226075056517843
 10
-31.003416985224789
 20
-37.196484251002147
 10
-30.661936831095971
 20
-37.156460142887042
 10
-30.356071622987649
 20
-37.103454288762137
 10
-30.073482886630149
 20
-37.03491824521705
 10
-29.801832147753849
 20
-36.948303568841411
 10
-29.52878093208906
 20
-36.84106181622483
 10
-29.24199076536614
 20
-36.710644543956917
 10
-28.887159544786709
 20
-36.530539804920259
 10
-28.54674425387698
 20
-36.337620916966067
 10
-28.220799224725031
 20
-36.131948708622659
 10
-27.909378789418898
 20
-35.91358400841829
 10
-27.612537280046642
 20
-35.682587644881259
 10
-27.33032902869628
 20
-35.439020446539828
 10
-27.062808367455901
 20
-35.182943241922302
 10
-26.810029628413531
 20
-34.914416859556937
 10
-26.57204714365723
 20
-34.633502127972037
 10
-26.348915245275041
 20
-34.340259875695878
 10
-26.14068826535501
 20
-34.034750931256731
 10
-25.947420535985199
 20
-33.717036123182879
 10
-25.769166389253641
 20
-33.387176280002599
 10
-25.6059801572484
 20
-33.045232230244189
 10
-25.457916172057519
 20
-32.691264802435917
 10
-25.325028765769051
 20
-32.325334825106069
 10
-25.21377174890354
 20
-31.969302828723229
 10
-25.127120676703321
 20
-31.61191179990271
 10
-25.092081176768911
 20
-31.419197382726729
 10
-25.062063731300281
 20
-31.20993208871942
 10
-25.015589094826321
 20
-30.72013404524829
 10
-24.984684949413289
 20
-30.099288019564241
 10
-24.966339477193092
 20
-29.30416436174221
 10
-24.95527728085867
 20
-27.018165549983848
 10
-24.95527728085867
 20
-22.80858676207513
 10
23.496622858808891
 20
-22.80858676207513
 10
23.626218820714641
 20
-31.663685152057241
 10
24.035404421937141
 20
-32.692680696266592
 10
24.197949996958041
 20
-33.072819881829083
 10
24.377511874140211
 20
-33.438752751905163
 10
24.573857623542992
 20
-33.790260154261858
 10
24.786754815225731
 20
-34.127122936666183
 10
25.0159710192478
 20
-34.449121946885143
 10
25.26127380566853
 20
-34.756038032685723
 10
25.52243074454729
 20
-35.047652041834937
 10
25.799209405943412
 20
-35.323744822099819
 10
26.091377359916262
 20
-35.584097221247347
 10
26.39870217652518
 20
-35.828490087044543
 10
26.720951425829529
 20
-36.056704267258397
 10
27.057892677888649
 20
-36.268520609655923
 10
27.409293502761901
 20
-36.463719962004127
 10
27.77492147050862
 20
-36.642083172070031
 10
28.15454415118818
 20
-36.803391087620618
 10
28.547929114859929
 20
-36.947424556422916
 10
28.84843422289827
 20
-37.039437957398313
 10
29.16113918613383
 20
-37.116858898834273
 10
29.484138314407421
 20
-37.179772115234663
 10
29.81552591755986
 20
-37.22826234110336
 10
30.15339630543199
 20
-37.262414310944223
 10
30.495843787864619
 20
-37.282312759261103
 10
30.840962674698581
 20
-37.288042420557858
 10
31.186847275774699
 20
-37.279688029338367
 10
31.531591900933801
 20
-37.257334320106487
 10
31.873290860016699
 20
-37.221066027366078
 10
32.21003846286424
 20
-37.170967885620982
 10
32.539929019317228
 20
-37.107124629375093
 10
32.861056839216488
 20
-37.029620993132241
 10
33.171516232402873
 20
-36.938541711396311
 10
33.469401508717162
 20
-36.833971518671149
 10
33.752806978000208
 20
-36.715995149460618
 10
34.09593840519198
 20
-36.54808355504683
 10
34.431156013512712
 20
-36.358868330129489
 10
34.75745432981801
 20
-36.149510532155972
 10
35.073827880963471
 20
-35.921171218573633
 10
35.379271193804698
 20
-35.675011446829842
 10
35.672778795197303
 20
-35.412192274371982
 10
35.953345211996883
 20
-35.133874758647401
 10
36.219964971059049
 20
-34.841219957103483
 10
36.471632599239399
 20
-34.535388927187569
 10
36.707342623393529
 20
-34.217542726347062
 10
36.926089570377059
 20
-33.888842412029312
 10
37.126867967045598
 20
-33.550449041681667
 10
37.308672340254731
 20
-33.20352367275153
 10
37.470497216860068
 20
-32.849227362686243
 10
37.61133712371722
 20
-32.488721168933168
 10
37.730186587681793
 20
-32.123166148939703
 10
38.014311270125233
 20
-31.151520133299812
 10
38.014311270125233
 20
-22.80858676207513
 10
45.348837209302332
 20
-22.80858676207513
 10
45.344590742258838
 20
2.8622540250447202
 10
45.083098925820522
 20
3.8461538461538471
 10
44.992629806680263
 20
4.1648629943434301
 10
44.89125890667917
 20
4.4817002336943572
 10
44.779267362476467
 20
4.7963516509671624
 10
44.656936310731403
 20
5.1085033329223801
 10
44.524546888103117
 20
5.4178413663205438
 10
44.382380231250863
 20
5.7240518379221896
 10
44.230717476833817
 20
6.0268208344878502
 10
44.069839761511211
 20
6.32583444277806
 10
43.900028221942243
 20
6.6207787495533541
 10
43.721563994786102
 20
6.9113398415742662
 10
43.534728216702021
 20
7.1972038056013297
 10
43.339802024349183
 20
7.4780567283950807
 10
43.137066554386813
 20
7.7535846967160529
 10
42.926802943474101
 20
8.0234737973247796
 10
42.709292328270273
 20
8.2874101169817962
 10
42.484815845434511
 20
8.545079742447637
 10
42.253654631626048
 20
8.7961687604828356
 10
42.016089823504068
 20
9.0403632578479289
 10
41.772402557727787
 20
9.277349321303447
 10
41.522873970956418
 20
9.5068130376099251
 10
41.267785199849158
 20
9.7284404935278985
 10
41.007417381065217
 20
9.9419177758179025
 10
40.742051651263807
 20
10.14693097124047
 10
40.471969147104119
 20
10.34316616655614
 10
40.19745100524537
 20
10.53030944852544
 10
39.918778362346771
 20
10.708046903908899
 10
39.636232355067513
 20
10.876064619467069
 10
39.350094120066821
 20
11.034048681960471
 10
39.060644794003878
 20
11.18168517814965
 10
38.768165513537923
 20
11.31866019479512
 10
38.47293741532814
 20
11.44465981865743
 10
38.175241636033732
 20
11.559370136497121
 10
37.768073962662918
 20
11.721598548174249
 10
37.422535125295923
 20
11.88507447876232
 10
37.284287453827012
 20
11.96133051659873
 10
37.175140111814862
 20
12.03075873770379
 10
37.09965747274471
 20
12.09097924325782
 10
37.062403910101857
 20
12.139612134441119
 10
32.743549250602577
 20
22.450805008944538
 10
28.50526461098589
 20
32.558139534883708
 10
28.089151523650141
 20
33.276210243226011
 10
27.969467623433712
 20
33.467929315009258
 10
27.828045708483241
 20
33.668702971433973
 10
27.667063273106191
 20
33.876531561026972
 10
27.488697811609981
 20
34.089415432315079
 10
27.295126818302059
 20
34.305354933825129
 10
27.088527787489859
 20
34.522350414083959
 10
26.871078213480839
 20
34.738402221618387
 10
26.64495559058242
 20
34.95151070495524
 10
26.412337413102051
 20
35.159676212621349
 10
26.175401175347169
 20
35.360899093143537
 10
25.936324371625211
 20
35.553179695048662
 10
25.697284496243618
 20
35.734518366863497
 10
25.460459043509839
 20
35.902915457114908
 10
25.228025507731299
 20
36.056371314329731
 10
25.002161383215459
 20
36.192886287034767
 10
24.785044164269731
 20
36.310460723756869
 10
24.570869134741962
 20
36.4118544663786
 10
24.324259402057962
 20
36.516366347899726
 10
24.053959091125069
 20
36.620999606180312
 10
23.768712326850611
 20
36.722757479080329
 10
23.477263234141901
 20
36.818643204459832
 10
23.18835593790627
 20
36.905660020178829
 10
22.910734563051051
 20
36.980811164097346
 10
22.653143234483569
 20
37.041099874075407
 10
21.466905187835419
 20
37.292535376109349
 10
-22.742876745324111
 20
37.29874776386405
 10
-23.80435429395007
 20
37.104867443425533
 10
-24.243528336409241
 20
37.009589740820793
 10
-24.683811198074771
 20
36.88482867271793
 10
-25.12279133187101
 20
36.732289350462288
 10
-25.558057190722309
 20
36.553676885399213
 10
-25.987197227553018
 20
36.35069638887407
 10
-26.407799895287489
 20
36.125052972232183
 10
-26.81745364685008
 20
35.878451746818932
 10
-27.21374693516514
 20
35.612597823979627
 10
-27.594268213157019
 20
35.329196315059647
 10
-27.95660593375008
 20
35.029952331404338
 10
-28.29834854986866
 20
34.716570984359038
 10
-28.617084514437121
 20
34.390757385269112
 10
-28.91040228037982
 20
34.054216645479897
 10
-29.175890300621109
 20
33.70865387633674
 10
-29.411137028085321
 20
33.355774189185013
 10
-29.516666298564889
 20
33.177123348651342
 10
-29.613730915696831
 20
32.997282695370018
 10
-34.270788892174032
 20
22.095505939590868
 10
-38.518119435202067
 20
11.990654097428621
 10
-39.691116000742909
 20
11.509916823693271
 10
-40.014307719901709
 20
11.37156793776213
 10
-40.332142855479809
 20
11.22371896101378
 10
-40.644447084545682
 20
11.06657719571156
 10
-40.951046084167821
 20
10.900349944118821
 10
-41.251765531414677
 20
10.725244508498889
 10
-41.546431103354749
 20
10.54146819111511
 10
-41.834868477056503
 20
10.349228294230841
 10
-42.116903329588403
 20
10.14873212010942
 10
-42.392361338018929
 20
9.9401869710141781
 10
-42.66106817941656
 20
9.723800149208472
 10
-42.922849530849767
 20
9.4997789569556375
 10
-43.177531069387037
 20
9.2683306965190226
 10
-43.424938472096841
 20
9.0296626701619651
 10
-43.664897416047637
 20
8.7839821801478113
 10
-43.897233578307933
 20
8.5314965287399041
 10
-44.121772635946158
 20
8.2724130182015845
 10
-44.338340266030833
 20
8.006938950796199
 10
-44.546762145630403
 20
7.7352816287870887
 10
-44.746863951813353
 20
7.4576483544375973
 10
-44.938471361648169
 20
7.1742464300110669
 10
-45.121410052203323
 20
6.885283157770842
 10
-45.295505700547267
 20
6.5909658399802664
 10
-45.460583983748492
 20
6.2915017789026786
 10
-45.616470578875479
 20
5.9870982768014267
 10
-45.762991162996698
 20
5.6779626359398518
 10
-45.899971413180623
 20
5.3643021585812969
 10
-46.027237006495717
 20
5.0463241469891056
 10
-46.144613620010489
 20
4.7242359034266208
 10
-46.251926930793388
 20
4.3982447301571854
 10
-46.349002615912887
 20
4.0685579294441423
 10
-46.435666352437472
 20
3.7353828035508352
 10
-46.511743817435622
 20
3.3989266547406061
 10
-46.773751834069913
 20
2.1466905187835441
 10
-46.779964221824677
 20
-22.80858676207513
 10
-39.47296569217503
 20
-22.80858676207513
 10
-39.343369730269252
 20
-31.663685152057241
 10
-38.944607658915409
 20
-32.647584973166367
 10
-38.778809432512361
 20
-33.031486436888727
 10
-38.599129612093051
 20
-33.399156725620223
 10
-38.40545889908222
 20
-33.750702002643017
 10
-38.197687994904598
 20
-34.086228431239327
 10
-37.975707600984911
 20
-34.405842174691337
 10
-37.739408418747892
 20
-34.709649396281257
 10
-37.488681149618237
 20
-34.997756259291279
 10
-37.223416495020729
 20
-35.270268927003578
 10
-36.943505156380063
 20
-35.527293562700358
 10
-36.648837835120972
 20
-35.768936329663831
 10
-36.339305232668181
 20
-35.995303391176172
 10
-36.01479805044643
 20
-36.206500910519573
 10
-35.675206989880436
 20
-36.402635050976222
 10
-35.320422752394947
 20
-36.58381197582834
 10
-34.950336039414672
 20
-36.750137848358087
 10
-34.564837552364352
 20
-36.901718831847703
 10
-34.237853362223063
 20
-37.015811395563617
 10
-33.938161746655332
 20
-37.105712918931211
 10
-33.650216632613443
 20
-37.173399666075859
 10
-33.358471947049722
 20
-37.220847901122987
 10
-33.047381616916468
 20
-37.250033888197997
 10
-32.701399569165979
 20
-37.262933891426307
 10
-32.304979730750567
 20
-37.261524174933349
  0
LWPOLYLINE
  5
45
  8
LAYER_1
 62
256
370
-1
  6
ByLayer
100
AcDbEntity
100
AcDbPolyline
 90
131
 70
1
 10
-28.601999441178009
 20
-8.9581508019719145
 10
-28.344353190416989
 20
-8.8312158211747267
 10
-28.085987191301019
 20
-8.6864286691904464
 10
-27.828134012607521
 20
-8.5250115212674675
 10
-27.572026223113951
 20
-8.3481865526541856
 10
-27.31889639159774
 20
-8.1571759385989928
 10
-27.069977086836332
 20
-7.9532018543502856
 10
-26.826500877607149
 20
-7.7374864751564587
 10
-26.589700332687642
 20
-7.5112519762659034
 10
-26.360808020855249
 20
-7.2757205329270143
 10
-26.141056510887399
 20
-7.0321143203881871
 10
-25.931678371561539
 20
-6.7816555138978156
 10
-25.7339061716551
 20
-6.5255662887042938
 10
-25.548972479945519
 20
-6.2650688200560154
 10
-25.378109865210249
 20
-6.0013852832013734
 10
-25.2225508962267
 20
-5.7357378533887644
 10
-25.083528141772341
 20
-5.4693487058665804
 10
-24.903217359826119
 20
-5.0923371021186492
 10
-24.764997633326018
 20
-4.7715482983659294
 10
-24.663305723892609
 20
-4.4765909931726986
 10
-24.62441918858234
 20
-4.3293018708372326
 10
-24.59257839314645
 20
-4.1770738851032432
 10
-24.5472524027081
 20
-3.8426056727218461
 10
-24.5217645141981
 20
-3.4427950545927901
 10
-24.510551489237031
 20
-2.9472507292803578
 10
-24.50805008944544
 20
-2.3255813953488338
 10
-24.511046985193421
 20
-1.7283527472087321
 10
-24.522631138368229
 20
-1.24307744683015
 10
-24.54669274786615
 20
-0.8455812146033058
 10
-24.58712201258346
 20
-0.5116897709184203
 10
-24.64780913141643
 20
-0.2172288361657127
 10
-24.73264430326137
 20
0.0619758692645974
 10
-24.845517727014538
 20
0.3500986249822905
 10
-24.990319601572232
 20
0.671313710597147
 10
-25.124941065657669
 20
0.9402264729379548
 10
-25.275932579469881
 20
1.208161610728391
 10
-25.4422310372845
 20
1.4740387384699889
 10
-25.622773333377129
 20
1.736777470664284
 10
-25.8164963620234
 20
1.9952974218128099
 10
-26.022337017498931
 20
2.2485182064171001
 10
-26.239232194079332
 20
2.4953594389786891
 10
-26.46611878604023
 20
2.7347407339991099
 10
-26.701933687657249
 20
2.9655817059798979
 10
-26.945613793206
 20
3.186801969422588
 10
-27.1960959969621
 20
3.3973211388287119
 10
-27.452317193201178
 20
3.5960588286998059
 10
-27.713214276198851
 20
3.781934653537403
 10
-27.977724140230741
 20
3.9538682278430368
 10
-28.24478367957246
 20
4.1107791661182418
 10
-28.51332978849964
 20
4.2515870828645532
 10
-28.89301132810472
 20
4.4345144671587882
 10
-29.214916730051449
 20
4.5742406636911372
 10
-29.364339086520939
 20
4.6297151511859882
 10
-29.511480257117441
 20
4.6765635433076262
 10
-29.660394524688151
 20
4.7155105739118053
 10
-29.81513617208028
 20
4.7472809768542774
 10
-30.158318737717579
 20
4.7921908351771139
 10
-30.573462216806941
 20
4.8170909891221587
 10
-31.09300087212597
 20
4.8277793095354351
 10
-31.749368966452259
 20
4.8300536672629661
 10
-32.385460526517747
 20
4.8273905380162674
 10
-32.895541773459676
 20
4.8165137472483099
 10
-33.306507970000787
 20
4.7930921904173021
 10
-33.645254378863768
 20
4.7527947629814529
 10
-33.93867626277131
 20
4.6912903603989697
 10
-34.213668884446143
 20
4.6042478781280609
 10
-34.497127506610923
 20
4.4873362116269364
 10
-34.815947391988409
 20
4.3362242563538018
 10
-35.167452963741823
 20
4.1533558120146239
 10
-35.505226096562971
 20
3.9570339470874321
 10
-35.829076643129412
 20
3.7477954196222369
 10
-36.138814456118688
 20
3.5261769876690492
 10
-36.434249388208343
 20
3.292715409277879
 10
-36.715191292075929
 20
3.0479474424987378
 10
-36.981450020398988
 20
2.7924098453816359
 10
-37.232835425855072
 20
2.5266393759765862
 10
-37.469157361121717
 20
2.251172792333596
 10
-37.690225678876502
 20
1.9665468525026779
 10
-37.895850231796942
 20
1.6732983145338429
 10
-38.085840872560603
 20
1.371963936477101
 10
-38.260007453845013
 20
1.0630804763824639
 10
-38.418159828327731
 20
0.7471846922999408
 10
-38.560107848686307
 20
0.4248133422795436
 10
-38.685661367598293
 20
0.0965031843712829
 10
-38.794630237741217
 20
-0.2372090233748307
 10
-38.886824311792637
 20
-0.5757865229087864
 10
-38.962053442430097
 20
-0.9186925561805736
 10
-39.020127482331162
 20
-1.265390365140181
 10
-39.060856284173347
 20
-1.6153431917375991
 10
-39.084049700634239
 20
-1.968014277922816
 10
-39.089517584391359
 20
-2.3228668656458211
 10
-39.077069788122259
 20
-2.6793641968566031
 10
-39.046516164504482
 20
-3.0369695135051531
 10
-38.997666566215592
 20
-3.3951460575414578
 10
-38.930330845933113
 20
-3.7533570709155089
 10
-38.84431885633461
 20
-4.1110657955772947
 10
-38.739440450097618
 20
-4.4677354734768047
 10
-38.615505479899689
 20
-4.8228293465640277
 10
-38.472323798418373
 20
-5.1758106567889524
 10
-38.309705258331228
 20
-5.5261426461015688
 10
-38.117130337907952
 20
-5.8921245865317626
 10
-37.908272444449587
 20
-6.2443215450182503
 10
-37.683891755872573
 20
-6.5820992020119684
 10
-37.444748450093257
 20
-6.9048232379638517
 10
-37.191602705028103
 20
-7.211859333324842
 10
-36.925214698593493
 20
-7.5025731685458723
 10
-36.646344608705853
 20
-7.7763304240778819
 10
-36.355752613281552
 20
-8.0324967803718081
 10
-36.054198890237032
 20
-8.2704379178785885
 10
-35.742443617488689
 20
-8.4895195170491569
 10
-35.421246972952929
 20
-8.689107258334456
 10
-35.091369134546163
 20
-8.8685668221854179
 10
-34.753570280184789
 20
-9.0272638890529819
 10
-34.408610587785233
 20
-9.1645641393880872
 10
-34.057250235263894
 20
-9.2798332536416659
 10
-33.70024940053716
 20
-9.3724369122646607
 10
-33.345241995627148
 20
-9.446588951900015
 10
-32.996474051728981
 20
-9.5075146659335203
 10
-32.65364759241011
 20
-9.555189840664756
 10
-32.316464641238021
 20
-9.589590262393294
 10
-31.984627221780158
 20
-9.6106917174187192
 10
-31.657837357603999
 20
-9.6184699920406036
 10
-31.335797072277
 20
-9.6129008725585283
 10
-31.018208389366631
 20
-9.5939601452720691
 10
-30.704773332440361
 20
-9.5616235964808034
 10
-30.395193925065641
 20
-9.5158670124843105
 10
-30.08917219080994
 20
-9.456666179582168
 10
-29.78641015324073
 20
-9.3839968840739534
 10
-29.48660983592546
 20
-9.2978349122592405
 10
-29.189473262431608
 20
-9.1981560504376141
 10
-28.894702456326641
 20
-9.0849360849086445
  0
LWPOLYLINE
  5
46
  8
LAYER_1
 62
256
370
-1
  6
ByLayer
100
AcDbEntity
100
AcDbPolyline
 90
133
 70
1
 10
33.119183768268911
 20
-8.9121968371248883
 10
33.366468802236199
 20
-8.7834489504869193
 10
33.615312457439288
 20
-8.6376162767595801
 10
33.864284699031138
 20
-8.4761173050101917
 10
34.111955492164711
 20
-8.3003705243060715
 10
34.356894801992937
 20
-8.1117944237145441
 10
34.59767259366879
 20
-7.9118074923029322
 10
34.832858832345202
 20
-7.7018282191385552
 10
35.06102348317512
 20
-7.4832750932887349
 10
35.280736511311503
 20
-7.2575666038207913
 10
35.49056788190731
 20
-7.0261212398020474
 10
35.689087560115468
 20
-6.7903574902998241
 10
35.874865511088963
 20
-6.5516938443814414
 10
36.046471699980707
 20
-6.3115487911142232
 10
36.20247609194368
 20
-6.0713408195654877
 10
36.341448652130808
 20
-5.8324884188025594
 10
36.461959345695057
 20
-5.5964100778927559
 10
36.619347333169472
 20
-5.2430683469329393
 10
36.758317450984237
 20
-4.8879039290331754
 10
36.87903075273659
 20
-4.531396623317594
 10
36.981648292023763
 20
-4.1740262289103249
 10
37.066331122442982
 20
-3.8162725449354982
 10
37.133240297591477
 20
-3.458615370517244
 10
37.18253687106651
 20
-3.1015345047796918
 10
37.214381896465277
 20
-2.745509746846972
 10
37.228936427385037
 20
-2.391020895843214
 10
37.226361517423001
 20
-2.0385477508925489
 10
37.206818220176423
 20
-1.6885701111191069
 10
37.17046758924252
 20
-1.341567775647017
 10
37.117470678218538
 20
-0.9980205436004084
 10
37.047988540701688
 20
-0.6584082141034127
 10
36.962182230289223
 20
-0.3232105862801592
 10
36.860212800578367
 20
0.007092540745222
 10
36.74224130516636
 20
0.332021367848601
 10
36.608428797650433
 20
0.6510960959058477
 10
36.458936331627797
 20
0.9638369257928321
 10
36.293924960695733
 20
1.2697640583854239
 10
36.113555738451431
 20
1.568397694559494
 10
35.917989718492137
 20
1.859258035190912
 10
35.707387954415083
 20
2.141865281155547
 10
35.4819114998175
 20
2.4157396333292711
 10
35.241721408296627
 20
2.6804012925879519
 10
34.986978733449689
 20
2.9353704598074608
 10
34.717844528873933
 20
3.180167335863668
 10
34.434479848166568
 20
3.4143121216324421
 10
34.137045744924848
 20
3.6373250179896539
 10
33.825703272745997
 20
3.8487262258111739
 10
33.500613485227248
 20
4.0480359459728721
 10
33.161937435965839
 20
4.2347743793506183
 10
32.788243316467039
 20
4.4263061931699994
 10
32.474259825056301
 20
4.5716366721280766
 10
32.328669019794461
 20
4.6289667132298531
 10
32.184817217447247
 20
4.6771347832511712
 10
32.038308199978857
 20
4.7169370030703224
 10
31.88474574935351
 20
4.7491694935655966
 10
31.719733647535399
 20
4.7746283756152827
 10
31.538875676488718
 20
4.7941097700976716
 10
31.112037254566498
 20
4.818324579873714
 10
29.874776386404289
 20
4.8300536672629661
 10
29.180492033508109
 20
4.8281828899200399
 10
28.63751551824209
 20
4.818324579873714
 10
28.21067709631987
 20
4.7941097700976716
 10
28.029819125273189
 20
4.7746283756152827
 10
27.864807023455079
 20
4.7491694935655966
 10
27.711244572829731
 20
4.7169370030703224
 10
27.564735555361349
 20
4.6771347832511712
 10
27.420883753014131
 20
4.6289667132298531
 10
27.275292947752291
 20
4.5716366721280766
 10
26.961309456341549
 20
4.4263061931699994
 10
26.587615336842759
 20
4.2347743793506183
 10
26.248939287581351
 20
4.0480359459728721
 10
25.923849500062602
 20
3.848726225811173
 10
25.612507027883751
 20
3.637325017989653
 10
25.315072924642031
 20
3.4143121216324399
 10
25.03170824393467
 20
3.1801673358636648
 10
24.76257403935891
 20
2.9353704598074581
 10
24.507831364511969
 20
2.6804012925879479
 10
24.267641272991099
 20
2.415739633329268
 10
24.04216481839352
 20
2.1418652811555439
 10
23.831563054316469
 20
1.8592580351909089
 10
23.635997034357171
 20
1.5683976945594911
 10
23.455627812112869
 20
1.2697640583854211
 10
23.290616441180781
 20
0.9638369257928291
 10
23.14112397515817
 20
0.6510960959058447
 10
23.007311467642239
 20
0.3320213678485981
 10
22.889339972230228
 20
0.0070925407452194
 10
22.78737054251938
 20
-0.3232105862801617
 10
22.701564232106911
 20
-0.658408214103415
 10
22.632082094590071
 20
-0.9980205436004105
 10
22.579085183566079
 20
-1.341567775647019
 10
22.542734552632179
 20
-1.688570111119108
 10
22.523191255385591
 20
-2.0385477508925511
 10
22.520616345423559
 20
-2.3910208958432162
 10
22.535170876343319
 20
-2.7455097468469729
 10
22.567015901742089
 20
-3.1015345047796932
 10
22.616312475217111
 20
-3.458615370517244
 10
22.683221650365621
 20
-3.8162725449354982
 10
22.767904480784839
 20
-4.1740262289103249
 10
22.870522020072009
 20
-4.531396623317594
 10
22.991235321824359
 20
-4.8879039290331754
 10
23.13020543963912
 20
-5.2430683469329393
 10
23.287593427113531
 20
-5.5964100778927559
 10
23.408870340701331
 20
-5.8335272871620214
 10
23.549544519952551
 20
-6.0743824461519988
 10
23.70798479867625
 20
-6.3173542003449317
 10
23.88256001068147
 20
-6.5608211952230642
 10
24.071638989777281
 20
-6.8031620762686398
 10
24.273590569772711
 20
-7.0427554889639028
 10
24.486783584476829
 20
-7.2779800787910984
 10
24.709586867698679
 20
-7.5072144912324674
 10
24.940369253247312
 20
-7.7288373717702568
 10
25.17749957493178
 20
-7.9412273658867099
 10
25.419346666561129
 20
-8.142763119064071
 10
25.66427936194443
 20
-8.3318232767845828
 10
25.910666494890709
 20
-8.5067864845304886
 10
26.156876899209021
 20
-8.6660313877840345
 10
26.401279408708429
 20
-8.8079366320274666
 10
26.642242857197971
 20
-8.9308808627430238
 10
27.00743892322614
 20
-9.0887273965866946
 10
27.389199214428729
 20
-9.2253394790106782
 10
27.785106046580179
 20
-9.3407240843064869
 10
28.192741735454948
 20
-9.434888186765626
 10
28.609688596827471
 20
-9.5078387606796095
 10
29.033528946472199
 20
-9.5595827803399445
 10
29.461845100163568
 20
-9.5901272200381431
 10
29.892219373676049
 20
-9.5994790540657142
 10
30.32223408278406
 20
-9.5876452567141666
 10
30.749471543262072
 20
-9.5546328022750124
 10
31.171514070884509
 20
-9.5004486650397588
 10
31.585943981425839
 20
-9.4250998192999198
 10
31.990343590660501
 20
-9.3285932393470041
 10
32.382295214362927
 20
-9.2109358994725206
 10
32.759381168307577
 20
-9.0721347739679778
  0
LWPOLYLINE
  5
47
  8
LAYER_1
 62
256
370
-1
  6
ByLayer
100
AcDbEntity
100
AcDbPolyline
 90
17
 70
1
 10
26.055477239385279
 20
21.48171342222366
 10
22.325623530648912
 20
30.411449016100171
 10
21.145658955351848
 20
31.216457960644
 10
-22.468572424645519
 20
31.216457960644
 10
-22.991058239773139
 20
30.946270044989259
 10
-23.10006453345914
 20
30.884427657337579
 10
-23.20958677133374
 20
30.812105610274109
 10
-23.418351612989191
 20
30.646538142015761
 10
-23.511680483440259
 20
30.55855052287286
 10
-23.593697831420371
 20
30.470598848422121
 10
-23.661446790264641
 20
30.385312019689518
 10
-23.711970493308161
 20
30.30531893770107
 10
-27.563427446179791
 20
21.164399749251999
 10
-31.216457960644011
 20
12.394243752436349
 10
-31.216457960644011
 20
12.25402504472272
 10
29.785330948121651
 20
12.25402504472272
 10
29.785330948121651
 20
12.551977828347139
  0
ENDSEC
  0
SECTION
  2
OBJECTS
  0
DICTIONARY
  5
C
100
AcDbDictionary
280
0
281
1
  3
ACAD_GROUP
350
D
  3
ACAD_LAYOUT
350
1A
  3
ACAD_MLINESTYLE
350
17
  3
ACAD_PLOTSETTINGS
350
19
  3
ACAD_PLOTSTYLENAME
350
E
  3
AcDbVariableDictionary
350
48
  0
DICTIONARY
  5
D
100
AcDbDictionary
280
0
281
1
  0
ACDBDICTIONARYWDFLT
  5
E
100
AcDbDictionary
281
1
  3
Normal
350
F
100
AcDbDictionaryWithDefault
340
F
  0
ACDBPLACEHOLDER
  5
F
  0
DICTIONARY
  5
17
100
AcDbDictionary
280
0
281
1
  3
Standard
350
18
  0
MLINESTYLE
  5
18
100
AcDbMlineStyle
  2
STANDARD
 70
0
  3

 62
256
 51
90.0
 52
90.0
 71
2
 49
0.5
 62
256
  6
BYLAYER
 49
-0.5
 62
256
  6
BYLAYER
  0
DICTIONARY
  5
19
100
AcDbDictionary
280
0
281
1
  0
DICTIONARY
  5
1A
100
AcDbDictionary
281
1
  3
Layout1
350
1E
  3
Layout2
350
26
  3
Model
350
22
  0
LAYOUT
  5
1E
100
AcDbPlotSettings
  1

  2
C:\Program Files\AutoCAD 2002\plotters\DWF ePlot (optimized for plotting).pc3
  4

  6

 40
0.0
 41
0.0
 42
0.0
 43
0.0
 44
0.0
 45
0.0
 46
0.0
 47
0.0
 48
0.0
 49
0.0
140
0.0
141
0.0
142
1.0
143
1.0
 70
688
 72
0
 73
0
 74
5
  7

 75
16
147
1.0
148
0.0
149
0.0
100
AcDbLayout
  1
Layout1
 70
1
 71
1
 10
0.0
 20
0.0
 11
420.0
 21
297.0
 12
0.0
 22
0.0
 32
0.0
 14
100000000000000000000.0
 24
100000000000000000000.0
 34
100000000000000000000.0
 15
-100000000000000000000.0
 25
-100000000000000000000.0
 35
-100000000000000000000.0
146
0.0
 13
0.0
 23
0.0
 33
0.0
 16
1.0
 26
0.0
 36
0.0
 17
0.0
 27
1.0
 37
0.0
 76
0
330
1B
  0
LAYOUT
  5
22
100
AcDbPlotSettings
  1

  2
C:\Program Files\AutoCAD 2002\plotters\DWF ePlot (optimized for plotting).pc3
  4

  6

 40
0.0
 41
0.0
 42
0.0
 43
0.0
 44
0.0
 45
0.0
 46
0.0
 47
0.0
 48
0.0
 49
0.0
140
0.0
141
0.0
142
1.0
143
1.0
 70
1712
 72
0
 73
0
 74
0
  7

 75
0
147
1.0
148
0.0
149
0.0
100
AcDbLayout
  1
Model
 70
1
 71
0
 10
0.0
 20
0.0
 11
12.0
 21
9.0
 12
0.0
 22
0.0
 32
0.0
 14
0.0
 24
0.0
 34
0.0
 15
0.0
 25
0.0
 35
0.0
146
0.0
 13
0.0
 23
0.0
 33
0.0
 16
1.0
 26
0.0
 36
0.0
 17
0.0
 27
1.0
 37
0.0
 76
0
330
1F
  0
LAYOUT
  5
26
100
AcDbPlotSettings
  1

  2
C:\Program Files\AutoCAD 2002\plotters\DWF ePlot (optimized for plotting).pc3
  4

  6

 40
0.0
 41
0.0
 42
0.0
 43
0.0
 44
0.0
 45
0.0
 46
0.0
 47
0.0
 48
0.0
 49
0.0
140
0.0
141
0.0
142
1.0
143
1.0
 70
688
 72
0
 73
0
 74
5
  7

 75
16
147
1.0
148
0.0
149
0.0
100
AcDbLayout
  1
Layout2
 70
1
 71
2
 10
0.0
 20
0.0
 11
12.0
 21
9.0
 12
0.0
 22
0.0
 32
0.0
 14
0.0
 24
0.0
 34
0.0
 15
0.0
 25
0.0
 35
0.0
146
0.0
 13
0.0
 23
0.0
 33
0.0
 16
1.0
 26
0.0
 36
0.0
 17
0.0
 27
1.0
 37
0.0
 76
0
330
23
  0
DICTIONARY
  5
48
100
AcDbDictionary
281
1
  3
DIMASSOC
350
4A
  3
HIDETEXT
350
49
  0
DICTIONARYVAR
  5
49
100
DictionaryVariables
280
0
  1
2
  0
DICTIONARYVAR
  5
4A
100
DictionaryVariables
280
0
  1
1
  0
ENDSEC
  0
EOF
