999
dxflib 2.0.4.8
  0
SECTION
  2
HEADER
  9
$ACADVER
  1
AC1015
  9
$HANDSEED
  5
FFFF
  9
$USERR4
 40
0.0
  9
$DIMTAD
 70
0
  9
$VISRETAIN
 70
1
  9
$TILEMODE
 70
1
  9
$SHADEDIF
 70
70
  9
$USERR5
 40
0.0
  9
$UCSYDIR
 10
0.0
 20
1.0
 30
0.0
  9
$ATTREQ
 70
1
  9
$CHAMFERA
 40
0.5
  9
$MENU
  1
.
  9
$CLAYER
  8
0
  9
$UCSXDIR
 10
1.0
 20
0.0
 30
0.0
  9
$CHAMFERB
 40
0.5
  9
$DIMASZ
 40
0.18
  9
$TRACEWID
 40
0.05
  9
$REGENMODE
 70
1
  9
$ORTHOMODE
 70
0
  9
$EXTMIN
 10
-42.630811505156132
 20
-46.515118018926103
 30
0.0
  9
$PUCSYDIR
 10
0.0
 20
1.0
 30
0.0
  9
$ANGBASE
 50
0.0
  9
$USRTIMER
 70
1
  9
$SKETCHINC
 40
0.1
  9
$DIMGAP
 40
0.09
  9
$DIMTFAC
 40
1.0
  9
$DIMSAH
 70
0
  9
$DIMALT
 70
0
  9
$DIMSHO
 70
1
  9
$PUCSXDIR
 10
1.0
 20
0.0
 30
0.0
  9
$SURFTYPE
 70
6
  9
$SPLFRAME
 70
0
  9
$DIMTSZ
 40
0.0
  9
$LIMMIN
 10
0.0
 20
0.0
  9
$SURFTAB1
 70
6
  9
$SPLINESEGS
 70
8
  9
$AUPREC
 70
0
  9
$LUNITS
 70
2
  9
$DWGCODEPAGE
  3
ansi_1252
  9
$UNITMODE
 70
0
  9
$USERI1
 70
0
  9
$SURFTAB2
 70
6
  9
$SKPOLY
 70
0
  9
$ELEVATION
 40
0.0
  9
$DIMCEN
 40
0.09
  9
$DIMRND
 40
0.0
  9
$INSBASE
 10
0.0
 20
0.0
 30
0.0
  9
$USERI2
 70
0
  9
$UCSORG
 10
0.0
 20
0.0
 30
0.0
  9
$PELEVATION
 40
0.0
  9
$DIMEXO
 40
0.0625
  9
$TEXTSIZE
 40
0.2
  9
$DRAGMODE
 70
2
  9
$FILLMODE
 70
1
  9
$EXTMAX
 10
42.931925490898202
 20
45.263696359325252
 30
0.0
  9
$INSUNITS
 70
4
  9
$USERI3
 70
0
  9
$SURFU
 70
6
  9
$ANGDIR
 70
0
  9
$TDUSRTIMER
 40
0.0000000116
  9
$DIMZIN
 70
0
  9
$DIMDLE
 40
0.0
  9
$DIMSCALE
 40
1.0
  9
$WORLDVIEW
 70
1
  9
$USERI4
 70
0
  9
$SURFV
 70
6
  9
$OSMODE
 70
37
  9
$QTEXTMODE
 70
0
  9
$LIMMAX
 10
12.0
 20
9.0
  9
$USERI5
 70
0
  9
$HANDLING
 70
1
  9
$PDMODE
 70
0
  9
$LIMCHECK
 70
0
  9
$THICKNESS
 40
0.0
  9
$DIMSE1
 70
0
  9
$DIMLIM
 70
0
  9
$DIMTXT
 40
0.18
  9
$ATTMODE
 70
1
  9
$PEXTMAX
 10
-100000000000000000000.0
 20
-100000000000000000000.0
 30
-100000000000000000000.0
  9
$PEXTMIN
 10
100000000000000000000.0
 20
100000000000000000000.0
 30
100000000000000000000.0
  9
$PUCSORG
 10
0.0
 20
0.0
 30
0.0
  9
$SPLINETYPE
 70
6
  9
$TDINDWG
 40
0.0000000116
  9
$LUPREC
 70
4
  9
$DIMSOXD
 70
0
  9
$DIMLFAC
 40
1.0
  9
$DIMSE2
 70
0
  9
$DIMTOH
 70
1
  9
$CELTYPE
  6
BYLAYER
  9
$PLIMCHECK
 70
0
  9
$PLINEWID
 40
0.0
  9
$DIMSTYLE
  2
STANDARD
  9
$DIMTVP
 40
0.0
  9
$DIMASO
 70
1
  9
$DIMTM
 40
0.0
  9
$DIMDLI
 40
0.38
  9
$CECOLOR
 62
256
  9
$PLIMMAX
 10
12.0
 20
9.0
  9
$PLIMMIN
 10
0.0
 20
0.0
  9
$MAXACTVP
 70
64
  9
$TDUPDATE
 40
2456264.8189823381
  9
$FILLETRAD
 40
0.5
  9
$DIMCLRT
 70
0
  9
$DIMALTD
 70
2
  9
$DIMTIH
 70
1
  9
$LTSCALE
 40
1.0
  9
$USERR1
 40
0.0
  9
$ATTDIA
 70
0
  9
$PDSIZE
 40
0.0
  9
$DIMCLRD
 70
0
  9
$DIMEXE
 40
0.18
  9
$PSLTSCALE
 70
1
  9
$PLINEGEN
 70
0
  9
$SHADEDGE
 70
3
  9
$USERR2
 40
0.0
  9
$COORDS
 70
1
  9
$TDCREATE
 40
2454910.5
  9
$DIMCLRE
 70
0
  9
$DIMTOFL
 70
0
  9
$DIMALTF
 40
25.399999999999999
  9
$DIMTOL
 70
0
  9
$DIMTP
 40
0.0
  9
$TEXTSTYLE
  7
STANDARD
  9
$USERR3
 40
0.0
  9
$AUNITS
 70
0
  9
$DIMTIX
 70
0
  9
$MIRRTEXT
 70
1
  0
ENDSEC
  0
SECTION
  2
TABLES
  0
TABLE
  2
VPORT
  5
8
100
AcDbSymbolTable
 70
1
  0
VPORT
  5
30
100
AcDbSymbolTableRecord
100
AcDbViewportTableRecord
  2
*Active
 70
0
 10
0.0
 20
0.0
 11
1.0
 21
1.0
 12
286.30555555555549
 22
148.5
 13
0.0
 23
0.0
 14
10.0
 24
10.0
 15
10.0
 25
10.0
 16
0.0
 26
0.0
 36
1.0
 17
0.0
 27
0.0
 37
0.0
 40
297.0
 41
1.92798353909465
 42
50.0
 43
0.0
 44
0.0
 50
0.0
 51
0.0
 71
0
 72
100
 73
1
 74
3
 75
1
 76
1
 77
0
 78
0
281
0
 65
1
110
0.0
120
0.0
130
0.0
111
1.0
121
0.0
131
0.0
112
0.0
122
1.0
132
0.0
 79
0
146
0.0
  0
ENDTAB
  0
TABLE
  2
LTYPE
  5
5
100
AcDbSymbolTable
 70
21
  0
LTYPE
  5
14
100
AcDbSymbolTableRecord
100
AcDbLinetypeTableRecord
  2
ByBlock
 70
0
  3

 72
65
 73
0
 40
0.0
  0
LTYPE
  5
15
100
AcDbSymbolTableRecord
100
AcDbLinetypeTableRecord
  2
ByLayer
 70
0
  3

 72
65
 73
0
 40
0.0
  0
LTYPE
  5
16
100
AcDbSymbolTableRecord
100
AcDbLinetypeTableRecord
  2
CONTINUOUS
 70
0
  3
Solid line
 72
65
 73
0
 40
0.0
  0
LTYPE
  5
31
100
AcDbSymbolTableRecord
100
AcDbLinetypeTableRecord
  2
DOT
 70
0
  3
Dot . . . . . . . . . . . . . . . . . . . . . .
 72
65
 73
2
 40
6.3499999999999996
 49
0.0
 74
0
 49
-6.3499999999999996
 74
0
  0
LTYPE
  5
32
100
AcDbSymbolTableRecord
100
AcDbLinetypeTableRecord
  2
DOT2
 70
0
  3
Dot (.5x) .....................................
 72
65
 73
2
 40
3.1749999999999998
 49
0.0
 74
0
 49
-3.1749999999999998
 74
0
  0
LTYPE
  5
33
100
AcDbSymbolTableRecord
100
AcDbLinetypeTableRecord
  2
DOTX2
 70
0
  3
Dot (2x) .  .  .  .  .  .  .  .  .  .  .  .  .
 72
65
 73
2
 40
12.699999999999999
 49
0.0
 74
0
 49
-12.699999999999999
 74
0
  0
LTYPE
  5
34
100
AcDbSymbolTableRecord
100
AcDbLinetypeTableRecord
  2
DASHED
 70
0
  3
Dashed __ __ __ __ __ __ __ __ __ __ __ __ __ _
 72
65
 73
2
 40
19.050000000000001
 49
12.699999999999999
 74
0
 49
-6.3499999999999996
 74
0
  0
LTYPE
  5
35
100
AcDbSymbolTableRecord
100
AcDbLinetypeTableRecord
  2
DASHED2
 70
0
  3
Dashed (.5x) _ _ _ _ _ _ _ _ _ _ _ _ _ _ _ _ _
 72
65
 73
2
 40
9.5250000000000004
 49
6.3499999999999996
 74
0
 49
-3.1749999999999998
 74
0
  0
LTYPE
  5
36
100
AcDbSymbolTableRecord
100
AcDbLinetypeTableRecord
  2
DASHEDX2
 70
0
  3
Dashed (2x) ____  ____  ____  ____  ____  ___
 72
65
 73
2
 40
38.100000000000001
 49
25.399999999999999
 74
0
 49
-12.699999999999999
 74
0
  0
LTYPE
  5
37
100
AcDbSymbolTableRecord
100
AcDbLinetypeTableRecord
  2
DASHDOT
 70
0
  3
Dash dot __ . __ . __ . __ . __ . __ . __ . __
 72
65
 73
4
 40
25.399999999999999
 49
12.699999999999999
 74
0
 49
-6.3499999999999996
 74
0
 49
0.0
 74
0
 49
-6.3499999999999996
 74
0
  0
LTYPE
  5
38
100
AcDbSymbolTableRecord
100
AcDbLinetypeTableRecord
  2
DASHDOT2
 70
0
  3
Dash dot (.5x) _._._._._._._._._._._._._._._.
 72
65
 73
4
 40
12.699999999999999
 49
6.3499999999999996
 74
0
 49
-3.1749999999999998
 74
0
 49
0.0
 74
0
 49
-3.1749999999999998
 74
0
  0
LTYPE
  5
39
100
AcDbSymbolTableRecord
100
AcDbLinetypeTableRecord
  2
DASHDOTX2
 70
0
  3
Dash dot (2x) ____  .  ____  .  ____  .  ___
 72
65
 73
4
 40
50.799999999999997
 49
25.399999999999999
 74
0
 49
-12.699999999999999
 74
0
 49
0.0
 74
0
 49
-12.699999999999999
 74
0
  0
LTYPE
  5
3A
100
AcDbSymbolTableRecord
100
AcDbLinetypeTableRecord
  2
DIVIDE
 70
0
  3
Divide ____ . . ____ . . ____ . . ____ . . ____
 72
65
 73
6
 40
31.75
 49
12.699999999999999
 74
0
 49
-6.3499999999999996
 74
0
 49
0.0
 74
0
 49
-6.3499999999999996
 74
0
 49
0.0
 74
0
 49
-6.3499999999999996
 74
0
  0
LTYPE
  5
3B
100
AcDbSymbolTableRecord
100
AcDbLinetypeTableRecord
  2
DIVIDE2
 70
0
  3
Divide (.5x) __..__..__..__..__..__..__..__.._
 72
65
 73
6
 40
15.875
 49
6.3499999999999996
 74
0
 49
-3.1749999999999998
 74
0
 49
0.0
 74
0
 49
-3.1749999999999998
 74
0
 49
0.0
 74
0
 49
-3.1749999999999998
 74
0
  0
LTYPE
  5
3C
100
AcDbSymbolTableRecord
100
AcDbLinetypeTableRecord
  2
DIVIDEX2
 70
0
  3
Divide (2x) ________  .  .  ________  .  .  _
 72
65
 73
6
 40
63.5
 49
25.399999999999999
 74
0
 49
-12.699999999999999
 74
0
 49
0.0
 74
0
 49
-12.699999999999999
 74
0
 49
0.0
 74
0
 49
-12.699999999999999
 74
0
  0
LTYPE
  5
3D
100
AcDbSymbolTableRecord
100
AcDbLinetypeTableRecord
  2
CENTER
 70
0
  3
Center ____ _ ____ _ ____ _ ____ _ ____ _ ____
 72
65
 73
4
 40
50.799999999999997
 49
31.75
 74
0
 49
-6.3499999999999996
 74
0
 49
6.3499999999999996
 74
0
 49
-6.3499999999999996
 74
0
  0
LTYPE
  5
3E
100
AcDbSymbolTableRecord
100
AcDbLinetypeTableRecord
  2
CENTER2
 70
0
  3
Center (.5x) ___ _ ___ _ ___ _ ___ _ ___ _ ___
 72
65
 73
4
 40
28.574999999999999
 49
19.050000000000001
 74
0
 49
-3.1749999999999998
 74
0
 49
3.1749999999999998
 74
0
 49
-3.1749999999999998
 74
0
  0
LTYPE
  5
3F
100
AcDbSymbolTableRecord
100
AcDbLinetypeTableRecord
  2
CENTERX2
 70
0
  3
Center (2x) ________  __  ________  __  _____
 72
65
 73
4
 40
101.59999999999999
 49
63.5
 74
0
 49
-12.699999999999999
 74
0
 49
12.699999999999999
 74
0
 49
-12.699999999999999
 74
0
  0
LTYPE
  5
40
100
AcDbSymbolTableRecord
100
AcDbLinetypeTableRecord
  2
BORDER
 70
0
  3
Border __ __ . __ __ . __ __ . __ __ . __ __ .
 72
65
 73
6
 40
44.450000000000003
 49
12.699999999999999
 74
0
 49
-6.3499999999999996
 74
0
 49
12.699999999999999
 74
0
 49
-6.3499999999999996
 74
0
 49
0.0
 74
0
 49
-6.3499999999999996
 74
0
  0
LTYPE
  5
41
100
AcDbSymbolTableRecord
100
AcDbLinetypeTableRecord
  2
BORDER2
 70
0
  3
Border (.5x) __.__.__.__.__.__.__.__.__.__.__.
 72
65
 73
6
 40
22.225000000000001
 49
6.3499999999999996
 74
0
 49
-3.1749999999999998
 74
0
 49
6.3499999999999996
 74
0
 49
-3.1749999999999998
 74
0
 49
0.0
 74
0
 49
-3.1749999999999998
 74
0
  0
LTYPE
  5
42
100
AcDbSymbolTableRecord
100
AcDbLinetypeTableRecord
  2
BORDERX2
 70
0
  3
Border (2x) ____  ____  .  ____  ____  .  ___
 72
65
 73
6
 40
88.900000000000006
 49
25.399999999999999
 74
0
 49
-12.699999999999999
 74
0
 49
25.399999999999999
 74
0
 49
-12.699999999999999
 74
0
 49
0.0
 74
0
 49
-12.699999999999999
 74
0
  0
ENDTAB
  0
TABLE
  2
LAYER
  5
2
100
AcDbSymbolTable
 70
2
  0
LAYER
  5
10
100
AcDbSymbolTableRecord
100
AcDbLayerTableRecord
  2
0
 70
0
 62
7
  6
CONTINUOUS
390
F
  0
LAYER
  5
43
100
AcDbSymbolTableRecord
100
AcDbLayerTableRecord
  2
LAYER_1
 70
0
 62
18
  6
CONTINUOUS
390
F
  0
ENDTAB
  0
TABLE
  2
STYLE
  5
3
100
AcDbSymbolTable
 70
1
  0
STYLE
  5
11
100
AcDbSymbolTableRecord
100
AcDbTextStyleTableRecord
  2
Standard
 70
0
 40
0.0
 41
0.75
 50
0.0
 71
0
 42
2.5
  3
txt
  4

  0
ENDTAB
  0
TABLE
  2
VIEW
  5
6
100
AcDbSymbolTable
 70
0
  0
ENDTAB
  0
TABLE
  2
UCS
  5
7
100
AcDbSymbolTable
 70
0
  0
ENDTAB
  0
TABLE
  2
APPID
  5
9
100
AcDbSymbolTable
 70
1
  0
APPID
  5
12
100
AcDbSymbolTableRecord
100
AcDbRegAppTableRecord
  2
ACAD
 70
0
  0
ENDTAB
  0
TABLE
  2
DIMSTYLE
  5
A
100
AcDbSymbolTable
 70
1
100
AcDbDimStyleTable
 71
0
  0
DIMSTYLE
105
27
100
AcDbSymbolTableRecord
100
AcDbDimStyleTableRecord
  2
Standard
 41
0.18
 42
0.0625
 43
3.75
 44
0.18
 70
0
 73
0
 74
0
 77
1
 78
8
140
0.18
141
2.5
143
0.03937007874016
147
0.09
171
3
172
1
271
2
272
2
274
3
278
44
283
0
284
8
340
11
  0
ENDTAB
  0
TABLE
  2
BLOCK_RECORD
  5
1
100
AcDbSymbolTable
 70
1
  0
BLOCK_RECORD
  5
1F
100
AcDbSymbolTableRecord
100
AcDbBlockTableRecord
  2
*Model_Space
340
22
  0
BLOCK_RECORD
  5
1B
100
AcDbSymbolTableRecord
100
AcDbBlockTableRecord
  2
*Paper_Space
340
1E
  0
BLOCK_RECORD
  5
23
100
AcDbSymbolTableRecord
100
AcDbBlockTableRecord
  2
*Paper_Space0
340
26
  0
ENDTAB
  0
ENDSEC
  0
SECTION
  2
BLOCKS
  0
BLOCK
  5
20
100
AcDbEntity
  8
0
100
AcDbBlockBegin
  2
*Model_Space
 70
0
 10
0.0
 20
0.0
 30
0.0
  3
*Model_Space
  1

  0
ENDBLK
  5
21
100
AcDbEntity
  8
0
100
AcDbBlockEnd
  0
BLOCK
  5
1C
100
AcDbEntity
 67
1
  8
0
100
AcDbBlockBegin
  2
*Paper_Space
 70
0
 10
0.0
 20
0.0
 30
0.0
  3
*Paper_Space
  1

  0
ENDBLK
  5
1D
100
AcDbEntity
 67
1
  8
0
100
AcDbBlockEnd
  0
BLOCK
  5
24
100
AcDbEntity
  8
0
100
AcDbBlockBegin
  2
*Paper_Space0
 70
0
 10
0.0
 20
0.0
 30
0.0
  3
*Paper_Space0
  1

  0
ENDBLK
  5
25
100
AcDbEntity
  8
0
100
AcDbBlockEnd
  0
ENDSEC
  0
SECTION
  2
ENTITIES
  0
LWPOLYLINE
  5
44
  8
LAYER_1
 62
256
370
-1
  6
ByLayer
100
AcDbEntity
100
AcDbPolyline
 90
496
 70
1
 10
5.78125
 20
-46.408634999305093
 10
14.0625
 20
-46.302151979684083
 10
17.197395984665931
 20
-45.804183727954268
 10
18.277116720036041
 20
-45.620191156716302
 10
19.32065111877225
 20
-45.417478809416167
 10
20.324925297796351
 20
-45.197280276354959
 10
21.286865374030111
 20
-44.960829147833721
 10
22.203397464395341
 20
-44.709359014153499
 10
23.07144768581384
 20
-44.444103465615363
 10
23.88794215520738
 20
-44.166296092520341
 10
24.649806989497751
 20
-43.877170485169522
 10
25.009292705017319
 20
-43.728748840617257
 10
25.35396830560676
 20
-43.577960233863948
 10
25.68344955588131
 20
-43.424958863697213
 10
25.99735222045619
 20
-43.269898928904681
 10
26.295292063946629
 20
-43.11293462827399
 10
26.57688485096784
 20
-42.954220160592769
 10
26.84174634613505
 20
-42.793909724648657
 10
27.089492314063492
 20
-42.632157519229267
 10
27.319738519368379
 20
-42.469117743122247
 10
27.53210072666494
 20
-42.304944595115238
 10
27.726194700568389
 20
-42.139792273995873
 10
27.901636205693968
 20
-41.973814978551751
 10
28.058041006656889
 20
-41.807166907570533
 10
28.19502486807237
 20
-41.640002259839832
 10
28.312203554555651
 20
-41.472475234147304
 10
28.409192830721949
 20
-41.304740029280559
 10
28.853116509183341
 20
-40.44628629557721
 10
35.54587493801229
 20
-12.96875
 10
38.191676921498953
 20
-2.0722012555278582
 10
39.447595168077846
 20
-1.2021551569186639
 10
39.72134989721124
 20
-0.9939274465102913
 10
40.018237661840232
 20
-0.7349992122983091
 10
40.328793242878767
 20
-0.435661776287979
 10
40.643551421240801
 20
-0.1062064604845627
 10
40.953046977840259
 20
0.2430754131066783
 10
41.247814693591103
 20
0.6018925224804825
 10
41.518389349407236
 20
0.9599535456315883
 10
41.755305726202643
 20
1.3069671605547339
 10
42.056918060729977
 20
1.793844120627855
 10
42.18502930677198
 20
2.0169678570125331
 10
42.299233680056147
 20
2.230597593208651
 10
42.400448486624938
 20
2.4377702009007289
 10
42.489591032520828
 20
2.6415225517732899
 10
42.567578623786282
 20
2.8448915175108551
 10
42.635328566463741
 20
3.050913969797945
 10
42.6937581665957
 20
3.2626267803190818
 10
42.74378473022459
 20
3.4830668207587872
 10
42.786325563392893
 20
3.7152709628015819
 10
42.822297972143048
 20
3.9622760781319868
 10
42.878206740558859
 20
4.5128367153937141
 10
42.918849483811698
 20
5.1590437060201424
 10
42.931925490898202
 20
5.5652623683446567
 10
42.92975550339925
 20
5.9638519484676706
 10
42.912358484802489
 20
6.3547879841462791
 10
42.879753398595568
 20
6.7380460131375779
 10
42.831959208266163
 20
7.1136015731986646
 10
42.768994877301907
 20
7.481430202086635
 10
42.690879369190462
 20
7.8415074375585849
 10
42.597631647419483
 20
8.1938088173716128
 10
42.489270675476618
 20
8.5383098792828136
 10
42.365815416849543
 20
8.874986161049284
 10
42.227284835025877
 20
9.2038132004281188
 10
42.073697893493318
 20
9.5247665351764184
 10
41.905073555739477
 20
9.8378217030512776
 10
41.721430785252032
 20
10.14295424180979
 10
41.52278854551863
 20
10.44013968920906
 10
41.309165800026932
 20
10.729353583006169
 10
41.080581512264587
 20
11.01057146095823
 10
40.837054645719242
 20
11.283768860822329
 10
40.578604163878573
 20
11.548921320355561
 10
40.3052490302302
 20
11.80600437731503
 10
40.017008208261807
 20
12.054993569457841
 10
39.713900661461039
 20
12.29586443454107
 10
39.395945353315547
 20
12.52859251032182
 10
39.063161247312991
 20
12.75315333455719
 10
38.715567306941033
 20
12.96952244500428
 10
38.353182495687292
 20
13.17767537942018
 10
37.976025777039453
 20
13.37758767556199
 10
37.584116114485163
 20
13.56923487118681
 10
37.177472471512083
 20
13.752592504051719
 10
36.756113811607847
 20
13.92763611191384
 10
36.320059098260131
 20
14.094341232530249
 10
35.869327294956591
 20
14.25268340365805
 10
35.208156975468832
 20
14.479342573794479
 10
34.936235990904777
 20
14.579124101365389
 10
34.698407349396739
 20
14.674297880000809
 10
34.49090822064683
 20
14.76818212674778
 10
34.309975774357127
 20
14.864095058653341
 10
34.151847180229773
 20
14.965354892764511
 10
34.012759607966821
 20
15.075279846128341
 10
33.888950227270414
 20
15.197188135791849
 10
33.77665620784262
 20
15.33439797880208
 10
33.672114719385569
 20
15.490227592206081
 10
33.571562931601349
 20
15.66799519305086
 10
33.471238014192068
 20
15.87101899838347
 10
33.367377136859822
 20
16.102617225250938
 10
33.133996181234828
 20
16.664809811778611
 10
33.006992887672837
 20
16.96629109830408
 10
32.873190241904538
 20
17.262554531377599
 10
32.732647432044082
 20
17.553543925341462
 10
32.585423646205562
 20
17.839203094537929
 10
32.4315780725031
 20
18.1194758533093
 10
32.271169899050832
 20
18.394306015997859
 10
32.104258313962873
 20
18.66363739694588
 10
31.930902505353341
 20
18.927413810495651
 10
31.751161661336351
 20
19.185579070989441
 10
31.565094970026031
 20
19.438076992769549
 10
31.372761619536501
 20
19.684851390178238
 10
31.174220797981882
 20
19.925846077557811
 10
30.969531693476291
 20
20.161004869250529
 10
30.758753494133838
 20
20.390271579598689
 10
30.541945388068662
 20
20.61359002294456
 10
30.319166563394869
 20
20.830904013630441
 10
30.09047620822659
 20
21.042157365998602
 10
29.855933510677939
 20
21.24729389439133
 10
29.615597658863049
 20
21.446257413150899
 10
29.369527840896019
 20
21.638991736619591
 10
29.11778324489098
 20
21.8254406791397
 10
28.860423058962059
 20
22.005548055053499
 10
28.597506471223362
 20
22.179257678703269
 10
28.329092669789009
 20
22.346513364431289
 10
28.055240842773141
 20
22.507258926579851
 10
27.776010178289859
 20
22.661438179491231
 10
27.49145986445329
 20
22.80899493750772
 10
27.20164908937755
 20
22.94987301497158
 10
26.906637041176769
 20
23.08401622622511
 10
26.606482907965049
 20
23.211368385610591
 10
26.301245877856541
 20
23.3318733074703
 10
25.990985138965328
 20
23.44547480614651
 10
25.416036832500119
 20
23.654542696967269
 10
25.1780815053563
 20
23.75009570108401
 10
24.969037191564151
 20
23.844216597566142
 10
24.785827738093051
 20
23.940321776334489
 10
24.625376991912379
 20
24.0418276273099
 10
24.484608799991481
 20
24.152150540413221
 10
24.360447009299751
 20
24.27470690556531
 10
24.249815466806549
 20
24.41291311268699
 10
24.149638019481252
 20
24.57018555169914
 10
24.056838514293212
 20
24.749940612522579
 10
23.968340798211809
 20
24.955594685078161
 10
23.881068718206421
 20
25.19056415928673
 10
23.791946121246411
 20
25.45826542506914
 10
23.595844764340001
 20
26.105528891038858
 10
23.514110841044989
 20
26.362837582458098
 10
23.420240751850411
 20
26.620537521038539
 10
23.314654096870921
 20
26.878219169611349
 10
23.197770476221169
 20
27.135472991007671
 10
23.070009490015821
 20
27.391889448058659
 10
22.931790738369521
 20
27.647059003595469
 10
22.783533821396929
 20
27.900572120449262
 10
22.625658339212709
 20
28.152019261451191
 10
22.4585838919315
 20
28.400990889432411
 10
22.282730079667971
 20
28.647077467224069
 10
22.098516502536761
 20
28.88986945765733
 10
21.906362760652542
 20
29.128957323563341
 10
21.70668845412996
 20
29.363931527773261
 10
21.499913183083681
 20
29.594382533118239
 10
21.28645654762834
 20
29.819900802429441
 10
21.06673814787862
 20
30.040076798537999
 10
20.84117758394914
 20
30.25450098427509
 10
20.610194455954591
 20
30.46276382247186
 10
20.374208364009601
 20
30.664455775959471
 10
20.13363890822885
 20
30.859167307569059
 10
19.888905688726972
 20
31.0464888801318
 10
19.640428305618631
 20
31.226010956478831
 10
19.388626359018481
 20
31.397323999441319
 10
19.13391944904118
 20
31.560018471850409
 10
18.876727175801381
 20
31.713684836537269
 10
18.617469139413728
 20
31.857913556333038
 10
18.3565649399929
 20
31.99229509406889
 10
18.09443417765354
 20
32.11641991257595
 10
17.831496452510301
 20
32.229878474685393
 10
17.568171364677831
 20
32.332261243228388
 10
17.304878514270801
 20
32.423158681036057
 10
17.042037501403851
 20
32.502161250939579
 10
16.78434173552105
 20
32.563837149773008
 10
16.474694891091389
 20
32.621444098616408
 10
16.124825068949331
 20
32.673716371864657
 10
15.74646036992937
 20
32.719388243912633
 10
15.351328894865979
 20
32.757193989155198
 10
14.951158744593631
 20
32.785867881987237
 10
14.557678019946801
 20
32.80414419680362
 10
14.182614821759961
 20
32.810757207999217
 10
12.42772964351993
 20
32.8125
 10
12.275710798814149
 20
34.921875
 10
12.23415105272008
 20
35.374508349432261
 10
12.175401005687521
 20
35.818946728368893
 10
12.099619227616261
 20
36.25502250507364
 10
12.006964288406101
 20
36.682568047810278
 10
11.897594757956851
 20
37.101415724842518
 10
11.771669206168299
 20
37.511397904434183
 10
11.62934620294028
 20
37.912346954848942
 10
11.470784318172569
 20
38.304095244350592
 10
11.296142121764991
 20
38.686475141202877
 10
11.105578183617331
 20
39.059319013669572
 10
10.899251073629401
 20
39.42245923001439
 10
10.677319361701009
 20
39.77572815850111
 10
10.43994161773195
 20
40.118958167393473
 10
10.18727641162204
 20
40.451981624955238
 10
9.9194823132710717
 20
40.774630899450173
 10
9.6367178925788526
 20
41.086738359141989
 10
9.339141719445184
 20
41.388136372294468
 10
9.026912363769874
 20
41.678657307171363
 10
8.7001883954527202
 20
41.958133532036413
 10
8.3591283843935322
 20
42.226397415153393
 10
8.0038909004921113
 20
42.48328132478602
 10
7.6346345136482618
 20
42.728617629198069
 10
7.2515177937617867
 20
42.962238696653287
 10
6.8546993107324914
 20
43.183976895415448
 10
6.4443376344601768
 20
43.393664593748277
 10
6.0205913348446476
 20
43.591134159915534
 10
5.58361898178571
 20
43.776217962180972
 10
5.133579145183166
 20
43.948748368808353
 10
4.6706303949368184
 20
44.108557748061408
 10
4.1949313009464717
 20
44.255478468203897
 10
3.70664043311193
 20
44.389342897499603
 10
3.2059163613329962
 20
44.509983404212242
 10
2.3491074274445518
 20
44.687739931059333
 10
1.430189912076878
 20
44.853266352717867
 10
0.5035181972155637
 20
44.999734087774428
 10
-0.376553335153802
 20
45.120314554815558
 10
-1.1556703030456299
 20
45.208179172427833
 10
-1.779478324474332
 20
45.256499359197818
 10
-2.0161557358945141
 20
45.263696359325252
 10
-2.1936230174543181
 20
45.258446533712068
 10
-2.305085871405546
 20
45.239896309681598
 10
-2.333942419981633
 20
45.225366806798419
 10
-2.34375
 20
45.207192114557159
 10
-2.3342220335384889
 20
45.16165369736219
 10
-2.3069146081296599
 20
45.083854160461257
 10
-2.2066202243242801
 20
44.848384048047123
 10
-2.0581845362923139
 20
44.534606418326021
 10
-1.87692523174222
 20
44.17634591230923
 10
-1.7726837007466349
 20
43.965193999646132
 10
-1.682312982646861
 20
43.757727118639671
 10
-1.6058124648476759
 20
43.553411041175821
 10
-1.5431815347538571
 20
43.351711539140517
 10
-1.4944195797701829
 20
43.152094384419733
 10
-1.459525987301431
 20
42.954025348899407
 10
-1.4385001447523791
 20
42.756970204465482
 10
-1.431341439527805
 20
42.560394723003917
 10
-1.4380492590324869
 20
42.363764676400663
 10
-1.4586229906712029
 20
42.166545836541673
 10
-1.4930620218487309
 20
41.968203975312903
 10
-1.541365739969849
 20
41.768204864600293
 10
-1.6035335324393341
 20
41.566014276289799
 10
-1.679564786661965
 20
41.361097982267367
 10
-1.769458890042519
 20
41.152921754418969
 10
-1.8732152299857741
 20
40.940951364630543
 10
-1.9631707546295309
 20
40.780491224014213
 10
-2.0677222363000118
 20
40.617433162015047
 10
-2.1848893316946132
 20
40.453564074081598
 10
-2.3126916975107279
 20
40.290670855662341
 10
-2.4491489904457522
 20
40.130540402205817
 10
-2.5922808671970792
 20
39.974959609160543
 10
-2.7401069844621051
 20
39.825715371975022
 10
-2.8906469989382209
 20
39.684594586097788
 10
-3.0419205673228249
 20
39.553384146977351
 10
-3.1919473463133099
 20
39.433870950062222
 10
-3.3387469926070721
 20
39.327841890800933
 10
-3.4803391629015028
 20
39.237083864641967
 10
-3.6147435138939992
 20
39.163383767033892
 10
-3.7399797022819539
 20
39.108528493425197
 10
-3.854067384762764
 20
39.074304939264387
 10
-3.9550262180338218
 20
39.062500000000007
 10
-3.9781752140850828
 20
39.066958427429213
 10
-4.001681679534892
 20
39.080039978027358
 10
-4.0491085295893674
 20
39.130310058593757
 10
-4.0959897901156737
 20
39.209785461425803
 10
-4.1410084830322411
 20
39.314941406250007
 10
-4.1828476302574948
 20
39.442253112792983
 10
-4.2201902537098643
 20
39.588195800781257
 10
-4.2517193753077747
 20
39.74924468994142
 10
-4.2761180169696544
 20
39.921875
 10
-4.3136330729817596
 20
40.189157183473242
 10
-4.3372788714032389
 20
40.299009327699508
 10
-4.3666062233774587
 20
40.39432083811316
 10
-4.4034321588612642
 20
40.47608071310993
 10
-4.4495737078114983
 20
40.545277951085517
 10
-4.5068479001850044
 20
40.602901550435668
 10
-4.5770717659386264
 20
40.649940509556103
 10
-4.6620623350292067
 20
40.687383826842513
 10
-4.7636366374135903
 20
40.716220500690639
 10
-4.8836117030486186
 20
40.7374395294962
 10
-5.0238045618911373
 20
40.75202991165493
 10
-5.3721117790260164
 20
40.765280729614709
 10
-5.8230945284729714
 20
40.763884941735739
 10
-6.1102885498886543
 20
40.751312320994849
 10
-6.4065816999215377
 20
40.720768576194807
 10
-6.7110859723910616
 20
40.672857402843157
 10
-7.0229133611166654
 20
40.608182496447412
 10
-7.3411758599177874
 20
40.52734755251511
 10
-7.664985462613866
 20
40.4309562665538
 10
-7.9934541630243423
 20
40.31961233407101
 10
-8.3256939549686528
 20
40.193919450574271
 10
-8.6608168322662387
 20
40.054481311571116
 10
-8.9979347887365382
 20
39.901901612569091
 10
-9.3361598181989915
 20
39.736784049075723
 10
-9.6746039144730354
 20
39.559732316598542
 10
-10.01237907137811
 20
39.371350110645089
 10
-10.34859728273366
 20
39.172241126722902
 10
-10.682370542359109
 20
38.963009060339523
 10
-11.01281084407392
 20
38.744257607002467
 10
-11.33903018169751
 20
38.516590462219277
 10
-11.660140549049331
 20
38.280611321497503
 10
-11.975253939948811
 20
38.036923880344659
 10
-12.283482348215401
 20
37.786131834268289
 10
-12.58393776766853
 20
37.528838878775929
 10
-12.875732192127639
 20
37.265648709375107
 10
-13.157977615412181
 20
36.997165021573373
 10
-13.42978603134158
 20
36.723991510878243
 10
-13.690269433735271
 20
36.446731872797258
 10
-13.93853981641271
 20
36.165989802837963
 10
-14.17370917319332
 20
35.882368996507878
 10
-14.39488949789656
 20
35.596473149314548
 10
-14.601192784341841
 20
35.308905956765507
 10
-14.79173102634863
 20
35.020271114368299
 10
-14.96561621773634
 20
34.731172317630453
 10
-15.121960352324439
 20
34.442213262059482
 10
-15.32595399880493
 20
34.062928043236042
 10
-15.4238910309274
 20
33.900940598772998
 10
-15.52220263786289
 20
33.75514229014297
 10
-15.62319964628006
 20
33.623847386746391
 10
-15.72919288284756
 20
33.505370157983712
 10
-15.842493174234059
 20
33.398024873255324
 10
-15.965411347108191
 20
33.300125801961677
 10
-16.100258228138639
 20
33.209987213503197
 10
-16.249344643994039
 20
33.12592337728033
 10
-16.41498142134305
 20
33.046248562693478
 10
-16.59947938685433
 20
32.96927703914308
 10
-17.034302189038339
 20
32.816700942753371
 10
-17.572299663895311
 20
32.654709243314642
 10
-17.912829371480441
 20
32.55192831035275
 10
-18.246836169824508
 20
32.44126674825128
 10
-18.57409804290856
 20
32.322933132955029
 10
-18.89439297471359
 20
32.1971360404088
 10
-19.20749894922065
 20
32.064084046557383
 10
-19.513193950410749
 20
31.92398572734557
 10
-19.811255962264919
 20
31.777049658718159
 10
-20.101462968764199
 20
31.623484416619959
 10
-20.3835929538896
 20
31.46349857699575
 10
-20.657423901622149
 20
31.29730071579035
 10
-20.922733795942889
 20
31.12509940894854
 10
-21.17930062083283
 20
30.94710323241512
 10
-21.426902360273001
 20
30.763520762134899
 10
-21.665316998244428
 20
30.574560574052661
 10
-21.894322518728149
 20
30.380431244113201
 10
-22.113696905705179
 20
30.181341348261331
 10
-22.323218143156549
 20
29.977499462441841
 10
-22.522664215063291
 20
29.769114162599521
 10
-22.71181310540641
 20
29.556394024679179
 10
-22.890442798166958
 20
29.339547624625599
 10
-23.058331277325951
 20
29.1187835383836
 10
-23.215256526864419
 20
28.894310341897949
 10
-23.36099653076338
 20
28.666336611113469
 10
-23.495329273003868
 20
28.435070921974951
 10
-23.61803273756691
 20
28.200721850427179
 10
-23.728884908433521
 20
27.96349797241497
 10
-23.827663769584749
 20
27.72360786388311
 10
-23.91414730500161
 20
27.481260100776399
 10
-23.988113498665118
 20
27.23666325903962
 10
-24.049340334556309
 20
26.9900259146176
 10
-24.097605796656222
 20
26.741556643455109
 10
-24.132687868945869
 20
26.49146402149697
 10
-24.283950543118319
 20
25.15625
 10
-26.204475271559161
 20
25.11706917386989
 10
-26.688521077952149
 20
25.09594756115715
 10
-27.17049779817857
 20
25.052557285670051
 10
-27.649688337144799
 20
24.987186295874501
 10
-28.125375599757241
 20
24.90012254023641
 10
-28.59684249092231
 20
24.791653967221659
 10
-29.063371915546391
 20
24.662068525296149
 10
-29.52424677853589
 20
24.51165416292578
 10
-29.978749984797211
 20
24.34069882857645
 10
-30.42616443923675
 20
24.14949047071406
 10
-30.865773046760911
 20
23.938317037804499
 10
-31.29685871227608
 20
23.70746647831367
 10
-31.718704340688689
 20
23.45722674070748
 10
-32.130592836905109
 20
23.187885773451811
 10
-32.531807105831753
 20
22.899731525012569
 10
-32.921630052375008
 20
22.593051943855649
 10
-33.299344581441296
 20
22.268134978446948
 10
-33.797432519150327
 20
21.80131241786189
 10
-34.261774776392578
 20
21.326648065582901
 10
-34.481360739164117
 20
21.086226182270721
 10
-34.69259363900953
 20
20.843665008690099
 10
-34.895501261658978
 20
20.598904930726071
 10
-35.090111392842658
 20
20.351886334263639
 10
-35.276451818290752
 20
20.102549605187821
 10
-35.454550323733443
 20
19.85083512938364
 10
-35.624434694900913
 20
19.596683292736099
 10
-35.786132717523337
 20
19.340034481130228
 10
-35.939672177330927
 20
19.08082908045105
 10
-36.085080860053857
 20
18.819007476583561
 10
-36.222386551422318
 20
18.554510055412781
 10
-36.351617037166477
 20
18.287277202823741
 10
-36.472800103016539
 20
18.017249304701451
 10
-36.585963534702671
 20
17.744366746930929
 10
-36.691135117955064
 20
17.46856991539719
 10
-36.788342638503899
 20
17.189799195985241
 10
-36.877613882079373
 20
16.907994974580109
 10
-36.958976634411648
 20
16.62309763706681
 10
-37.032458681230928
 20
16.335047569330349
 10
-37.098087808267387
 20
16.043785157255769
 10
-37.155891801251229
 20
15.749250786728069
 10
-37.205898445912617
 20
15.45138484363226
 10
-37.248135527981759
 20
15.150127713853371
 10
-37.282630833188819
 20
14.845419783276411
 10
-37.309412147263977
 20
14.53720143778639
 10
-37.328507255937453
 20
14.22541306326834
 10
-37.339943944939392
 20
13.909995045607269
 10
-37.34375
 20
13.590887770688211
 10
-37.348285243806629
 20
13.002046007663109
 10
-37.366611182191527
 20
12.53794850308147
 10
-37.383158258865691
 20
12.346299647795419
 10
-37.405808125602228
 20
12.178181817226401
 10
-37.435445821207111
 20
12.0310433314098
 10
-37.472956384486267
 20
11.90233251038102
 10
-37.519224854245643
 20
11.78949767417542
 10
-37.57513626929115
 20
11.68998714282842
 10
-37.641575668428771
 20
11.60124923637539
 10
-37.719428090464419
 20
11.520732274851721
 10
-37.809578574204039
 20
11.44588457829281
 10
-37.91291215845358
 20
11.374154466734041
 10
-38.162668783706167
 20
11.229840278758481
 10
-38.417201834385963
 20
11.078187341137619
 10
-38.681468722641057
 20
10.89165855147079
 10
-38.953000825193669
 20
10.673368335136161
 10
-39.229329518766022
 20
10.42643111751188
 10
-39.507986180080337
 20
10.153961323976111
 10
-39.786502185858843
 20
9.8590733799070094
 10
-40.062408912823742
 20
9.5448817106827395
 10
-40.33323773769726
 20
9.2145007416814551
 10
-40.596520037201607
 20
8.8710448982813173
 10
-40.84978718805904
 20
8.5176286058604838
 10
-41.09057056699173
 20
8.157366289797114
 10
-41.316401550721928
 20
7.7933723754693656
 10
-41.524811515971862
 20
7.4287612882553988
 10
-41.71333183946372
 20
7.0666474535333714
 10
-41.879493897919737
 20
6.7101452966814428
 10
-42.020829068062127
 20
6.3623692430777723
 10
-42.163400908518931
 20
5.9539433137384554
 10
-42.286668864562422
 20
5.5430269941413499
 10
-42.390810016139241
 20
5.1301256490608189
 10
-42.47600144319604
 20
4.7157446432712282
 10
-42.542420225679479
 20
4.3003893415469392
 10
-42.590243443536203
 20
3.8845651086623172
 10
-42.619648176712872
 20
3.468777309391724
 10
-42.630811505156132
 20
3.0535313085095228
 10
-42.623910508812642
 20
2.639332470790078
 10
-42.599122267629042
 20
2.2266861610077529
 10
-42.556623861551991
 20
1.8160977439369099
 10
-42.496592370528148
 20
1.4080725843519131
 10
-42.419204874504153
 20
1.003116047027125
 10
-42.324638453426672
 20
0.60173349673691
 10
-42.213070187242337
 20
0.204430298255631
 10
-42.084677155897808
 20
-0.1882881836423485
 10
-41.93963643933975
 20
-0.5759165841826651
 10
-41.778125117514797
 20
-0.9579495385909556
 10
-41.600320270369608
 20
-1.333881682092857
 10
-41.406398977850827
 20
-1.7032076499140041
 10
-41.19653831990513
 20
-2.065422077280036
 10
-40.970915376479141
 20
-2.420019599416587
 10
-40.729707227519533
 20
-2.7664948515492971
 10
-40.473090952972939
 20
-3.1043424689037988
 10
-40.201243632786017
 20
-3.4330570867057322
 10
-39.914342346905428
 20
-3.7521333401807309
 10
-39.612564175277811
 20
-4.0610658645544344
 10
-39.296086197849831
 20
-4.3593492950524766
 10
-38.965085494568129
 20
-4.6464782669004974
 10
-38.61973914537937
 20
-4.92194741532413
 10
-38.260224230230193
 20
-5.1852513755490133
 10
-37.886717829067251
 20
-5.4358847828007839
 10
-36.357986340281343
 20
-6.4168690761592302
 10
-23.4375
 20
-42.03125
 10
-21.435677877248111
 20
-43.01640826484978
 10
-21.167974833915149
 20
-43.142958971998681
 10
-20.880686884372171
 20
-43.268855347622988
 10
-20.574311998979969
 20
-43.393995919372948
 10
-20.24934814809934
 20
-43.518279214898818
 10
-19.545645431316029
 20
-43.763868087879167
 10
-18.773562496908649
 20
-44.004810187765983
 10
-17.93708310776363
 20
-44.240293735761171
 10
-17.040191026767388
 20
-44.469506953066677
 10
-16.086870016806341
 20
-44.691638060884429
 10
-15.081103840766909
 20
-44.905875280416339
 10
-14.02687626153552
 20
-45.111406832864347
 10
-12.92817104199858
 20
-45.307420939430372
 10
-11.78897194504251
 20
-45.493105821316348
 10
-10.613262733553739
 20
-45.667649699724187
 10
-9.4050271704186859
 20
-45.830240795855843
 10
-8.1682490185237633
 20
-45.980067330913222
 10
-6.9069120407553957
 20
-46.116317526098257
 10
-5.625
 20
-46.238179602612867
 10
-2.5
 20
-46.515118018926103
  0
LWPOLYLINE
  5
45
  8
LAYER_1
 62
256
370
-1
  6
ByLayer
100
AcDbEntity
100
AcDbPolyline
 90
144
 70
1
 10
-29.258992362845831
 20
-7.9802186907834134
 10
-27.335487815499128
 20
-8.4686762428536717
 10
-25.426202459663902
 20
-8.9258647944489784
 10
-23.530181021840431
 20
-9.3517826956558459
 10
-21.64646822852901
 20
-9.7464282965607882
 10
-19.774108806229929
 20
-10.10979994725032
 10
-17.912147481443451
 20
-10.441895997810949
 10
-16.059628980669888
 20
-10.7427147983292
 10
-14.21559803040951
 20
-11.01225469889158
 10
-13.29646686375311
 20
-11.135294546091361
 10
-12.37909935716262
 20
-11.2505140495846
 10
-11.46337610145056
 20
-11.35791300313214
 10
-10.549177687429481
 20
-11.457491200494781
 10
-9.6363847059119152
 20
-11.54924843543334
 10
-8.7248777477103978
 20
-11.63318450170863
 10
-7.8145374036374626
 20
-11.70929919308146
 10
-6.9052442645056473
 20
-11.777592303312661
 10
-5.9968789211274878
 20
-11.838063626163031
 10
-5.0893219643155181
 20
-11.890712955393379
 10
-4.1824539848822759
 20
-11.93554008476454
 10
-3.2761555736402959
 20
-11.97254480803732
 10
-2.3703073214021151
 20
-12.00172691897253
 10
-1.4647898189802671
 20
-12.02308621133098
 10
-0.5594836571872899
 20
-12.0366224788735
 10
0.3457305731642819
 20
-12.042335515360881
 10
1.250972281261912
 20
-12.04022511455396
 10
2.1563608762930651
 20
-12.030291070213529
 10
3.0620157674452062
 20
-12.01253317610043
 10
3.9680563639057982
 20
-11.986951225975449
 10
4.874602074862306
 20
-11.95354501359941
 10
5.7817723095021929
 20
-11.912314332733141
 10
6.6896864770129234
 20
-11.863258977137439
 10
7.5984639865819634
 20
-11.80637874057312
 10
8.5082242473967753
 20
-11.74167341680101
 10
9.4190866686448231
 20
-11.669142799581911
 10
10.331170659513569
 20
-11.588786682676639
 10
11.24459562919049
 20
-11.500604859846019
 10
12.159480986863031
 20
-11.40459712485085
 10
13.075946141718671
 20
-11.300763271451959
 10
13.99411050294486
 20
-11.18910309341015
 10
14.914093479729081
 20
-11.06961638448624
 10
16.759992916721441
 20
-10.80716254903539
 10
18.614599726195461
 20
-10.513400115185901
 10
20.47886918165085
 20
-10.188327433024311
 10
22.353756556587332
 20
-9.8319428526371091
 10
24.240217124504611
 20
-9.4442447241108241
 10
26.1392061589024
 20
-9.025231397531968
 10
28.051678933280431
 20
-8.5749012229870516
 10
29.978590721138399
 20
-8.093252550562589
 10
30.057465184265379
 20
-8.0606686979965083
 10
30.1312509723519
 20
-8.0173503653885732
 10
30.19994808539797
 20
-7.9641254374539656
 10
30.263556523403601
 20
-7.9018217989078634
 10
30.32207628636877
 20
-7.8312673344654442
 10
30.375507374293491
 20
-7.7532899288418911
 10
30.467103525021599
 20
-7.5783778329120963
 10
30.53834497558789
 20
-7.3837085888399141
 10
30.589231725992391
 20
-7.1759052743467819
 10
30.619763776235089
 20
-6.9615909671541338
 10
30.629941126315991
 20
-6.7473887449834073
 10
30.619763776235089
 20
-6.5399216855560374
 10
30.589231725992391
 20
-6.3458128665934614
 10
30.53834497558789
 20
-6.1716853658171136
 10
30.505268587824968
 20
-6.0941843215367246
 10
30.467103525021599
 20
-6.0241622609484313
 10
30.423849787177769
 20
-5.962447068767414
 10
30.375507374293491
 20
-5.9098666297088513
 10
30.32207628636877
 20
-5.8672488284879218
 10
30.263556523403601
 20
-5.8354215498198068
 10
30.19994808539797
 20
-5.8152126784196856
 10
30.1312509723519
 20
-5.8074500990027369
 10
30.057465184265379
 20
-5.8129616962841411
 10
29.978590721138399
 20
-5.8325753549790758
 10
28.051678933280431
 20
-6.3142240274035384
 10
26.1392061589024
 20
-6.7645542019484548
 10
24.240217124504611
 20
-7.1835675285273126
 10
22.353756556587332
 20
-7.571265657053595
 10
20.47886918165085
 20
-7.9276502374407922
 10
18.614599726195461
 20
-8.2527229196023892
 10
16.759992916721441
 20
-8.546485353451871
 10
14.914093479729081
 20
-8.8089391889027269
 10
13.99411050294486
 20
-8.9284258978266351
 10
13.075946141718671
 20
-9.0400860758684427
 10
12.159480986863031
 20
-9.1439199292673372
 10
11.24459562919049
 20
-9.2399276642625043
 10
10.331170659513569
 20
-9.3281094870931298
 10
9.4190866686448231
 20
-9.4084656039983976
 10
8.5082242473967753
 20
-9.4809962212174952
 10
7.5984639865819634
 20
-9.5457015449896083
 10
6.6896864770129243
 20
-9.6025817815539227
 10
5.7817723095021929
 20
-9.6516371371496241
 10
4.874602074862306
 20
-9.6928678180158983
 10
3.9680563639057991
 20
-9.7262740303919308
 10
3.0620157674452071
 20
-9.7518559805169112
 10
2.1563608762930659
 20
-9.7696138746300178
 10
1.2509722812619131
 20
-9.7795479189704437
 10
0.3457305731642828
 20
-9.7816583197773674
 10
-0.559483657187289
 20
-9.7759452832899818
 10
-1.4647898189802659
 20
-9.762409015747469
 10
-2.3703073214021142
 20
-9.7410497233890165
 10
-3.276155573640295
 20
-9.7118676124538066
 10
-4.1824539848822759
 20
-9.6748628891810302
 10
-5.0893219643155181
 20
-9.6300357598098696
 10
-5.9968789211274869
 20
-9.5773864305795122
 10
-6.9052442645056473
 20
-9.5169151077291421
 10
-7.8145374036374626
 20
-9.4486219974979484
 10
-8.7248777477103978
 20
-9.3725073061251116
 10
-9.6363847059119152
 20
-9.2885712398498228
 10
-10.549177687429481
 20
-9.1968140049112641
 10
-11.46337610145056
 20
-9.0972358075486248
 10
-12.37909935716262
 20
-8.9898368540010871
 10
-13.29646686375311
 20
-8.8746173505078403
 10
-14.21559803040951
 20
-8.7515775033080665
 10
-16.059628980669888
 20
-8.4820376027456881
 10
-17.912147481443451
 20
-8.1812188022274395
 10
-19.774108806229929
 20
-7.8491227516668047
 10
-21.64646822852901
 20
-7.485751100977275
 10
-23.530181021840431
 20
-7.0911055000723318
 10
-25.426202459663902
 20
-6.6651875988654643
 10
-27.335487815499128
 20
-6.2079990472701576
 10
-29.258992362845831
 20
-5.7195414951999002
 10
-29.33768224581242
 20
-5.6995718629417986
 10
-29.41129536213602
 20
-5.6937272581335634
 10
-29.479831711816601
 20
-5.7011797960600124
 10
-29.543291294854178
 20
-5.7211015920059669
 10
-29.601674111248752
 20
-5.7526647612562494
 10
-29.65498016100031
 20
-5.7950414190956794
 10
-29.703209444108872
 20
-5.8474036808090766
 10
-29.746361960574419
 20
-5.9089236616812606
 10
-29.784437710396968
 20
-5.9787734769970564
 10
-29.817436693576511
 20
-6.0561252420412766
 10
-29.868204360006569
 20
-6.2300230824542924
 10
-29.898664959864611
 20
-6.4239941051988696
 10
-29.908818493150619
 20
-6.6314152325535733
 10
-29.898664959864611
 20
-6.845663386796967
 10
-29.868204360006569
 20
-7.0601154902076146
 10
-29.817436693576511
 20
-7.2681484650640789
 10
-29.746361960574419
 20
-7.4631392336449256
 10
-29.65498016100031
 20
-7.6384647182287191
 10
-29.601674111248752
 20
-7.7166832672337717
 10
-29.543291294854178
 20
-7.7875018410940218
 10
-29.479831711816601
 20
-7.8500925550942906
 10
-29.41129536213602
 20
-7.9036275245193988
 10
-29.33768224581242
 20
-7.9472788646541659
  0
ENDSEC
  0
SECTION
  2
OBJECTS
  0
DICTIONARY
  5
C
100
AcDbDictionary
280
0
281
1
  3
ACAD_GROUP
350
D
  3
ACAD_LAYOUT
350
1A
  3
ACAD_MLINESTYLE
350
17
  3
ACAD_PLOTSETTINGS
350
19
  3
ACAD_PLOTSTYLENAME
350
E
  3
AcDbVariableDictionary
350
46
  0
DICTIONARY
  5
D
100
AcDbDictionary
280
0
281
1
  0
ACDBDICTIONARYWDFLT
  5
E
100
AcDbDictionary
281
1
  3
Normal
350
F
100
AcDbDictionaryWithDefault
340
F
  0
ACDBPLACEHOLDER
  5
F
  0
DICTIONARY
  5
17
100
AcDbDictionary
280
0
281
1
  3
Standard
350
18
  0
MLINESTYLE
  5
18
100
AcDbMlineStyle
  2
STANDARD
 70
0
  3

 62
256
 51
90.0
 52
90.0
 71
2
 49
0.5
 62
256
  6
BYLAYER
 49
-0.5
 62
256
  6
BYLAYER
  0
DICTIONARY
  5
19
100
AcDbDictionary
280
0
281
1
  0
DICTIONARY
  5
1A
100
AcDbDictionary
281
1
  3
Layout1
350
1E
  3
Layout2
350
26
  3
Model
350
22
  0
LAYOUT
  5
1E
100
AcDbPlotSettings
  1

  2
C:\Program Files\AutoCAD 2002\plotters\DWF ePlot (optimized for plotting).pc3
  4

  6

 40
0.0
 41
0.0
 42
0.0
 43
0.0
 44
0.0
 45
0.0
 46
0.0
 47
0.0
 48
0.0
 49
0.0
140
0.0
141
0.0
142
1.0
143
1.0
 70
688
 72
0
 73
0
 74
5
  7

 75
16
147
1.0
148
0.0
149
0.0
100
AcDbLayout
  1
Layout1
 70
1
 71
1
 10
0.0
 20
0.0
 11
420.0
 21
297.0
 12
0.0
 22
0.0
 32
0.0
 14
100000000000000000000.0
 24
100000000000000000000.0
 34
100000000000000000000.0
 15
-100000000000000000000.0
 25
-100000000000000000000.0
 35
-100000000000000000000.0
146
0.0
 13
0.0
 23
0.0
 33
0.0
 16
1.0
 26
0.0
 36
0.0
 17
0.0
 27
1.0
 37
0.0
 76
0
330
1B
  0
LAYOUT
  5
22
100
AcDbPlotSettings
  1

  2
C:\Program Files\AutoCAD 2002\plotters\DWF ePlot (optimized for plotting).pc3
  4

  6

 40
0.0
 41
0.0
 42
0.0
 43
0.0
 44
0.0
 45
0.0
 46
0.0
 47
0.0
 48
0.0
 49
0.0
140
0.0
141
0.0
142
1.0
143
1.0
 70
1712
 72
0
 73
0
 74
0
  7

 75
0
147
1.0
148
0.0
149
0.0
100
AcDbLayout
  1
Model
 70
1
 71
0
 10
0.0
 20
0.0
 11
12.0
 21
9.0
 12
0.0
 22
0.0
 32
0.0
 14
0.0
 24
0.0
 34
0.0
 15
0.0
 25
0.0
 35
0.0
146
0.0
 13
0.0
 23
0.0
 33
0.0
 16
1.0
 26
0.0
 36
0.0
 17
0.0
 27
1.0
 37
0.0
 76
0
330
1F
  0
LAYOUT
  5
26
100
AcDbPlotSettings
  1

  2
C:\Program Files\AutoCAD 2002\plotters\DWF ePlot (optimized for plotting).pc3
  4

  6

 40
0.0
 41
0.0
 42
0.0
 43
0.0
 44
0.0
 45
0.0
 46
0.0
 47
0.0
 48
0.0
 49
0.0
140
0.0
141
0.0
142
1.0
143
1.0
 70
688
 72
0
 73
0
 74
5
  7

 75
16
147
1.0
148
0.0
149
0.0
100
AcDbLayout
  1
Layout2
 70
1
 71
2
 10
0.0
 20
0.0
 11
12.0
 21
9.0
 12
0.0
 22
0.0
 32
0.0
 14
0.0
 24
0.0
 34
0.0
 15
0.0
 25
0.0
 35
0.0
146
0.0
 13
0.0
 23
0.0
 33
0.0
 16
1.0
 26
0.0
 36
0.0
 17
0.0
 27
1.0
 37
0.0
 76
0
330
23
  0
DICTIONARY
  5
46
100
AcDbDictionary
281
1
  3
DIMASSOC
350
48
  3
HIDETEXT
350
47
  0
DICTIONARYVAR
  5
47
100
DictionaryVariables
280
0
  1
2
  0
DICTIONARYVAR
  5
48
100
DictionaryVariables
280
0
  1
1
  0
ENDSEC
  0
EOF
