999
dxflib 2.0.4.8
  0
SECTION
  2
HEADER
  9
$ACADVER
  1
AC1015
  9
$HANDSEED
  5
FFFF
  9
$DIMTAD
 70
0
  9
$USERR4
 40
0.0
  9
$CLAYER
  8
0
  9
$MENU
  1
.
  9
$CHAMFERA
 40
0.5
  9
$ATTREQ
 70
1
  9
$UCSYDIR
 10
0.0
 20
1.0
 30
0.0
  9
$USERR5
 40
0.0
  9
$SHADEDIF
 70
70
  9
$TILEMODE
 70
1
  9
$VISRETAIN
 70
1
  9
$EXTMIN
 10
-48.845310529129577
 20
-43.961538461538453
 30
0.0
  9
$ORTHOMODE
 70
0
  9
$REGENMODE
 70
1
  9
$TRACEWID
 40
0.05
  9
$DIMASZ
 40
0.18
  9
$CHAMFERB
 40
0.5
  9
$UCSXDIR
 10
1.0
 20
0.0
 30
0.0
  9
$DIMSHO
 70
1
  9
$DIMALT
 70
0
  9
$DIMSAH
 70
0
  9
$DIMTFAC
 40
1.0
  9
$DIMGAP
 40
0.09
  9
$SKETCHINC
 40
0.1
  9
$USRTIMER
 70
1
  9
$ANGBASE
 50
0.0
  9
$PUCSYDIR
 10
0.0
 20
1.0
 30
0.0
  9
$LIMMIN
 10
0.0
 20
0.0
  9
$DIMTSZ
 40
0.0
  9
$SPLFRAME
 70
0
  9
$SURFTYPE
 70
6
  9
$PUCSXDIR
 10
1.0
 20
0.0
 30
0.0
  9
$DWGCODEPAGE
  3
ansi_1252
  9
$LUNITS
 70
2
  9
$AUPREC
 70
0
  9
$SPLINESEGS
 70
8
  9
$SURFTAB1
 70
6
  9
$INSBASE
 10
0.0
 20
0.0
 30
0.0
  9
$DIMRND
 40
0.0
  9
$DIMCEN
 40
0.09
  9
$ELEVATION
 40
0.0
  9
$SKPOLY
 70
0
  9
$SURFTAB2
 70
6
  9
$USERI1
 70
0
  9
$UNITMODE
 70
0
  9
$INSUNITS
 70
4
  9
$EXTMAX
 10
48.84615384615384
 20
43.957673468784378
 30
0.0
  9
$FILLMODE
 70
1
  9
$DRAGMODE
 70
2
  9
$TEXTSIZE
 40
0.2
  9
$DIMEXO
 40
0.0625
  9
$PELEVATION
 40
0.0
  9
$UCSORG
 10
0.0
 20
0.0
 30
0.0
  9
$USERI2
 70
0
  9
$DIMSCALE
 40
1.0
  9
$DIMDLE
 40
0.0
  9
$DIMZIN
 70
0
  9
$TDUSRTIMER
 40
0.0000000116
  9
$ANGDIR
 70
0
  9
$SURFU
 70
6
  9
$USERI3
 70
0
  9
$LIMMAX
 10
12.0
 20
9.0
  9
$QTEXTMODE
 70
0
  9
$OSMODE
 70
37
  9
$SURFV
 70
6
  9
$USERI4
 70
0
  9
$WORLDVIEW
 70
1
  9
$ATTMODE
 70
1
  9
$DIMTXT
 40
0.18
  9
$DIMLIM
 70
0
  9
$DIMSE1
 70
0
  9
$THICKNESS
 40
0.0
  9
$LIMCHECK
 70
0
  9
$PDMODE
 70
0
  9
$HANDLING
 70
1
  9
$USERI5
 70
0
  9
$CELTYPE
  6
BYLAYER
  9
$DIMTOH
 70
1
  9
$DIMSE2
 70
0
  9
$DIMLFAC
 40
1.0
  9
$DIMSOXD
 70
0
  9
$LUPREC
 70
4
  9
$TDINDWG
 40
0.0000000116
  9
$SPLINETYPE
 70
6
  9
$PUCSORG
 10
0.0
 20
0.0
 30
0.0
  9
$PEXTMIN
 10
100000000000000000000.0
 20
100000000000000000000.0
 30
100000000000000000000.0
  9
$PEXTMAX
 10
-100000000000000000000.0
 20
-100000000000000000000.0
 30
-100000000000000000000.0
  9
$CECOLOR
 62
256
  9
$DIMDLI
 40
0.38
  9
$DIMTM
 40
0.0
  9
$DIMASO
 70
1
  9
$DIMTVP
 40
0.0
  9
$DIMSTYLE
  2
STANDARD
  9
$PLINEWID
 40
0.0
  9
$PLIMCHECK
 70
0
  9
$LTSCALE
 40
1.0
  9
$DIMTIH
 70
1
  9
$DIMALTD
 70
2
  9
$DIMCLRT
 70
0
  9
$FILLETRAD
 40
0.5
  9
$TDUPDATE
 40
2456264.842113819
  9
$MAXACTVP
 70
64
  9
$PLIMMIN
 10
0.0
 20
0.0
  9
$PLIMMAX
 10
12.0
 20
9.0
  9
$DIMEXE
 40
0.18
  9
$DIMCLRD
 70
0
  9
$PDSIZE
 40
0.0
  9
$ATTDIA
 70
0
  9
$USERR1
 40
0.0
  9
$TEXTSTYLE
  7
STANDARD
  9
$DIMTP
 40
0.0
  9
$DIMTOL
 70
0
  9
$DIMALTF
 40
25.399999999999999
  9
$DIMTOFL
 70
0
  9
$DIMCLRE
 70
0
  9
$TDCREATE
 40
2454910.5
  9
$COORDS
 70
1
  9
$USERR2
 40
0.0
  9
$SHADEDGE
 70
3
  9
$PLINEGEN
 70
0
  9
$PSLTSCALE
 70
1
  9
$MIRRTEXT
 70
1
  9
$DIMTIX
 70
0
  9
$AUNITS
 70
0
  9
$USERR3
 40
0.0
  0
ENDSEC
  0
SECTION
  2
TABLES
  0
TABLE
  2
VPORT
  5
8
100
AcDbSymbolTable
 70
1
  0
VPORT
  5
30
100
AcDbSymbolTableRecord
100
AcDbViewportTableRecord
  2
*Active
 70
0
 10
0.0
 20
0.0
 11
1.0
 21
1.0
 12
286.30555555555549
 22
148.5
 13
0.0
 23
0.0
 14
10.0
 24
10.0
 15
10.0
 25
10.0
 16
0.0
 26
0.0
 36
1.0
 17
0.0
 27
0.0
 37
0.0
 40
297.0
 41
1.92798353909465
 42
50.0
 43
0.0
 44
0.0
 50
0.0
 51
0.0
 71
0
 72
100
 73
1
 74
3
 75
1
 76
1
 77
0
 78
0
281
0
 65
1
110
0.0
120
0.0
130
0.0
111
1.0
121
0.0
131
0.0
112
0.0
122
1.0
132
0.0
 79
0
146
0.0
  0
ENDTAB
  0
TABLE
  2
LTYPE
  5
5
100
AcDbSymbolTable
 70
21
  0
LTYPE
  5
14
100
AcDbSymbolTableRecord
100
AcDbLinetypeTableRecord
  2
ByBlock
 70
0
  3

 72
65
 73
0
 40
0.0
  0
LTYPE
  5
15
100
AcDbSymbolTableRecord
100
AcDbLinetypeTableRecord
  2
ByLayer
 70
0
  3

 72
65
 73
0
 40
0.0
  0
LTYPE
  5
16
100
AcDbSymbolTableRecord
100
AcDbLinetypeTableRecord
  2
CONTINUOUS
 70
0
  3
Solid line
 72
65
 73
0
 40
0.0
  0
LTYPE
  5
31
100
AcDbSymbolTableRecord
100
AcDbLinetypeTableRecord
  2
DOT
 70
0
  3
Dot . . . . . . . . . . . . . . . . . . . . . .
 72
65
 73
2
 40
6.3499999999999996
 49
0.0
 74
0
 49
-6.3499999999999996
 74
0
  0
LTYPE
  5
32
100
AcDbSymbolTableRecord
100
AcDbLinetypeTableRecord
  2
DOT2
 70
0
  3
Dot (.5x) .....................................
 72
65
 73
2
 40
3.1749999999999998
 49
0.0
 74
0
 49
-3.1749999999999998
 74
0
  0
LTYPE
  5
33
100
AcDbSymbolTableRecord
100
AcDbLinetypeTableRecord
  2
DOTX2
 70
0
  3
Dot (2x) .  .  .  .  .  .  .  .  .  .  .  .  .
 72
65
 73
2
 40
12.699999999999999
 49
0.0
 74
0
 49
-12.699999999999999
 74
0
  0
LTYPE
  5
34
100
AcDbSymbolTableRecord
100
AcDbLinetypeTableRecord
  2
DASHED
 70
0
  3
Dashed __ __ __ __ __ __ __ __ __ __ __ __ __ _
 72
65
 73
2
 40
19.050000000000001
 49
12.699999999999999
 74
0
 49
-6.3499999999999996
 74
0
  0
LTYPE
  5
35
100
AcDbSymbolTableRecord
100
AcDbLinetypeTableRecord
  2
DASHED2
 70
0
  3
Dashed (.5x) _ _ _ _ _ _ _ _ _ _ _ _ _ _ _ _ _
 72
65
 73
2
 40
9.5250000000000004
 49
6.3499999999999996
 74
0
 49
-3.1749999999999998
 74
0
  0
LTYPE
  5
36
100
AcDbSymbolTableRecord
100
AcDbLinetypeTableRecord
  2
DASHEDX2
 70
0
  3
Dashed (2x) ____  ____  ____  ____  ____  ___
 72
65
 73
2
 40
38.100000000000001
 49
25.399999999999999
 74
0
 49
-12.699999999999999
 74
0
  0
LTYPE
  5
37
100
AcDbSymbolTableRecord
100
AcDbLinetypeTableRecord
  2
DASHDOT
 70
0
  3
Dash dot __ . __ . __ . __ . __ . __ . __ . __
 72
65
 73
4
 40
25.399999999999999
 49
12.699999999999999
 74
0
 49
-6.3499999999999996
 74
0
 49
0.0
 74
0
 49
-6.3499999999999996
 74
0
  0
LTYPE
  5
38
100
AcDbSymbolTableRecord
100
AcDbLinetypeTableRecord
  2
DASHDOT2
 70
0
  3
Dash dot (.5x) _._._._._._._._._._._._._._._.
 72
65
 73
4
 40
12.699999999999999
 49
6.3499999999999996
 74
0
 49
-3.1749999999999998
 74
0
 49
0.0
 74
0
 49
-3.1749999999999998
 74
0
  0
LTYPE
  5
39
100
AcDbSymbolTableRecord
100
AcDbLinetypeTableRecord
  2
DASHDOTX2
 70
0
  3
Dash dot (2x) ____  .  ____  .  ____  .  ___
 72
65
 73
4
 40
50.799999999999997
 49
25.399999999999999
 74
0
 49
-12.699999999999999
 74
0
 49
0.0
 74
0
 49
-12.699999999999999
 74
0
  0
LTYPE
  5
3A
100
AcDbSymbolTableRecord
100
AcDbLinetypeTableRecord
  2
DIVIDE
 70
0
  3
Divide ____ . . ____ . . ____ . . ____ . . ____
 72
65
 73
6
 40
31.75
 49
12.699999999999999
 74
0
 49
-6.3499999999999996
 74
0
 49
0.0
 74
0
 49
-6.3499999999999996
 74
0
 49
0.0
 74
0
 49
-6.3499999999999996
 74
0
  0
LTYPE
  5
3B
100
AcDbSymbolTableRecord
100
AcDbLinetypeTableRecord
  2
DIVIDE2
 70
0
  3
Divide (.5x) __..__..__..__..__..__..__..__.._
 72
65
 73
6
 40
15.875
 49
6.3499999999999996
 74
0
 49
-3.1749999999999998
 74
0
 49
0.0
 74
0
 49
-3.1749999999999998
 74
0
 49
0.0
 74
0
 49
-3.1749999999999998
 74
0
  0
LTYPE
  5
3C
100
AcDbSymbolTableRecord
100
AcDbLinetypeTableRecord
  2
DIVIDEX2
 70
0
  3
Divide (2x) ________  .  .  ________  .  .  _
 72
65
 73
6
 40
63.5
 49
25.399999999999999
 74
0
 49
-12.699999999999999
 74
0
 49
0.0
 74
0
 49
-12.699999999999999
 74
0
 49
0.0
 74
0
 49
-12.699999999999999
 74
0
  0
LTYPE
  5
3D
100
AcDbSymbolTableRecord
100
AcDbLinetypeTableRecord
  2
CENTER
 70
0
  3
Center ____ _ ____ _ ____ _ ____ _ ____ _ ____
 72
65
 73
4
 40
50.799999999999997
 49
31.75
 74
0
 49
-6.3499999999999996
 74
0
 49
6.3499999999999996
 74
0
 49
-6.3499999999999996
 74
0
  0
LTYPE
  5
3E
100
AcDbSymbolTableRecord
100
AcDbLinetypeTableRecord
  2
CENTER2
 70
0
  3
Center (.5x) ___ _ ___ _ ___ _ ___ _ ___ _ ___
 72
65
 73
4
 40
28.574999999999999
 49
19.050000000000001
 74
0
 49
-3.1749999999999998
 74
0
 49
3.1749999999999998
 74
0
 49
-3.1749999999999998
 74
0
  0
LTYPE
  5
3F
100
AcDbSymbolTableRecord
100
AcDbLinetypeTableRecord
  2
CENTERX2
 70
0
  3
Center (2x) ________  __  ________  __  _____
 72
65
 73
4
 40
101.59999999999999
 49
63.5
 74
0
 49
-12.699999999999999
 74
0
 49
12.699999999999999
 74
0
 49
-12.699999999999999
 74
0
  0
LTYPE
  5
40
100
AcDbSymbolTableRecord
100
AcDbLinetypeTableRecord
  2
BORDER
 70
0
  3
Border __ __ . __ __ . __ __ . __ __ . __ __ .
 72
65
 73
6
 40
44.450000000000003
 49
12.699999999999999
 74
0
 49
-6.3499999999999996
 74
0
 49
12.699999999999999
 74
0
 49
-6.3499999999999996
 74
0
 49
0.0
 74
0
 49
-6.3499999999999996
 74
0
  0
LTYPE
  5
41
100
AcDbSymbolTableRecord
100
AcDbLinetypeTableRecord
  2
BORDER2
 70
0
  3
Border (.5x) __.__.__.__.__.__.__.__.__.__.__.
 72
65
 73
6
 40
22.225000000000001
 49
6.3499999999999996
 74
0
 49
-3.1749999999999998
 74
0
 49
6.3499999999999996
 74
0
 49
-3.1749999999999998
 74
0
 49
0.0
 74
0
 49
-3.1749999999999998
 74
0
  0
LTYPE
  5
42
100
AcDbSymbolTableRecord
100
AcDbLinetypeTableRecord
  2
BORDERX2
 70
0
  3
Border (2x) ____  ____  .  ____  ____  .  ___
 72
65
 73
6
 40
88.900000000000006
 49
25.399999999999999
 74
0
 49
-12.699999999999999
 74
0
 49
25.399999999999999
 74
0
 49
-12.699999999999999
 74
0
 49
0.0
 74
0
 49
-12.699999999999999
 74
0
  0
ENDTAB
  0
TABLE
  2
LAYER
  5
2
100
AcDbSymbolTable
 70
3
  0
LAYER
  5
10
100
AcDbSymbolTableRecord
100
AcDbLayerTableRecord
  2
0
 70
0
 62
7
  6
CONTINUOUS
390
F
  0
LAYER
  5
43
100
AcDbSymbolTableRecord
100
AcDbLayerTableRecord
  2
LAYER_1
 70
0
 62
7
  6
CONTINUOUS
370
-3
390
F
  0
LAYER
  5
44
100
AcDbSymbolTableRecord
100
AcDbLayerTableRecord
  2
noname
 70
0
 62
3
  6
CONTINUOUS
370
0
390
F
  0
ENDTAB
  0
TABLE
  2
STYLE
  5
3
100
AcDbSymbolTable
 70
1
  0
STYLE
  5
11
100
AcDbSymbolTableRecord
100
AcDbTextStyleTableRecord
  2
Standard
 70
0
 40
0.0
 41
0.75
 50
0.0
 71
0
 42
2.5
  3
txt
  4

  0
ENDTAB
  0
TABLE
  2
VIEW
  5
6
100
AcDbSymbolTable
 70
0
  0
ENDTAB
  0
TABLE
  2
UCS
  5
7
100
AcDbSymbolTable
 70
0
  0
ENDTAB
  0
TABLE
  2
APPID
  5
9
100
AcDbSymbolTable
 70
1
  0
APPID
  5
12
100
AcDbSymbolTableRecord
100
AcDbRegAppTableRecord
  2
ACAD
 70
0
  0
ENDTAB
  0
TABLE
  2
DIMSTYLE
  5
A
100
AcDbSymbolTable
 70
1
100
AcDbDimStyleTable
 71
0
  0
DIMSTYLE
105
27
100
AcDbSymbolTableRecord
100
AcDbDimStyleTableRecord
  2
Standard
 41
0.18
 42
0.0625
 43
3.75
 44
0.18
 70
0
 73
0
 74
0
 77
1
 78
8
140
0.18
141
2.5
143
0.03937007874016
147
0.09
171
3
172
1
271
2
272
2
274
3
278
44
283
0
284
8
340
11
  0
ENDTAB
  0
TABLE
  2
BLOCK_RECORD
  5
1
100
AcDbSymbolTable
 70
1
  0
BLOCK_RECORD
  5
1F
100
AcDbSymbolTableRecord
100
AcDbBlockTableRecord
  2
*Model_Space
340
22
  0
BLOCK_RECORD
  5
1B
100
AcDbSymbolTableRecord
100
AcDbBlockTableRecord
  2
*Paper_Space
340
1E
  0
BLOCK_RECORD
  5
23
100
AcDbSymbolTableRecord
100
AcDbBlockTableRecord
  2
*Paper_Space0
340
26
  0
ENDTAB
  0
ENDSEC
  0
SECTION
  2
BLOCKS
  0
BLOCK
  5
20
100
AcDbEntity
  8
0
100
AcDbBlockBegin
  2
*Model_Space
 70
0
 10
0.0
 20
0.0
 30
0.0
  3
*Model_Space
  1

  0
ENDBLK
  5
21
100
AcDbEntity
  8
0
100
AcDbBlockEnd
  0
BLOCK
  5
1C
100
AcDbEntity
 67
1
  8
0
100
AcDbBlockBegin
  2
*Paper_Space
 70
0
 10
0.0
 20
0.0
 30
0.0
  3
*Paper_Space
  1

  0
ENDBLK
  5
1D
100
AcDbEntity
 67
1
  8
0
100
AcDbBlockEnd
  0
BLOCK
  5
24
100
AcDbEntity
  8
0
100
AcDbBlockBegin
  2
*Paper_Space0
 70
0
 10
0.0
 20
0.0
 30
0.0
  3
*Paper_Space0
  1

  0
ENDBLK
  5
25
100
AcDbEntity
  8
0
100
AcDbBlockEnd
  0
ENDSEC
  0
SECTION
  2
ENTITIES
  0
LWPOLYLINE
  5
45
  8
LAYER_1
 62
256
370
-1
  6
ByLayer
100
AcDbEntity
100
AcDbPolyline
 90
443
 70
1
 10
-5.9408051961702597
 20
-43.929586188668409
 10
2.2837742230440838
 20
-43.961538461538453
 10
5.6194512140861477
 20
-43.462046160168448
 10
6.4792001234263257
 20
-43.3289767503164
 10
7.3243495173811564
 20
-43.189343944641912
 10
8.1563873161184226
 20
-43.042786211246913
 10
8.9768014398059091
 20
-42.888942018233358
 10
9.787079808611395
 20
-42.727449833703197
 10
10.588710342702671
 20
-42.557948125758401
 10
11.38318096224751
 20
-42.380075362500889
 10
12.1719795874137
 20
-42.193470012032591
 10
12.956594138369031
 20
-41.997770542455477
 10
13.738512535281281
 20
-41.792615421871503
 10
14.519222698318231
 20
-41.577643118382589
 10
15.300212547647661
 20
-41.3524921000907
 10
16.08297000343736
 20
-41.11680083509777
 10
16.868982985855109
 20
-40.870207791505749
 10
17.659739415068699
 20
-40.612351437416592
 10
18.456727211245909
 20
-40.342870240932228
 10
22.096787755825151
 20
-39.090653420047929
 10
23.85784702364813
 20
-38.256831138112567
 10
24.104087591639679
 20
-38.13651538718851
 10
24.33787113474585
 20
-38.014259723074318
 10
24.56061072967406
 20
-37.888817034076567
 10
24.773719453131712
 20
-37.758940208501848
 10
24.978610381826211
 20
-37.623382134656701
 10
25.176696592464971
 20
-37.480895700847711
 10
25.369391161755399
 20
-37.330233795381439
 10
25.558107166404891
 20
-37.170149306564447
 10
25.744257683120871
 20
-36.999395122703334
 10
25.929255788610732
 20
-36.816724132104618
 10
26.114514559581881
 20
-36.620889223074911
 10
26.30144707274172
 20
-36.410643283920763
 10
26.68598563245715
 20
-35.941929868465429
 10
27.094176081416251
 20
-35.400606992191172
 10
27.690080802113592
 20
-34.562898860187808
 10
28.26383629073451
 20
-33.714128016106137
 10
28.815342502977511
 20
-32.854694167283
 10
29.344499394541071
 20
-31.984997021055161
 10
29.85120692112368
 20
-31.105436284759438
 10
30.33536503842382
 20
-30.21641166573264
 10
30.796873702139958
 20
-29.318322871311551
 10
31.235632867970601
 20
-28.411569608832981
 10
31.651542491614229
 20
-27.49655158563375
 10
32.044502528769307
 20
-26.573668509050631
 10
32.414412935134351
 20
-25.643320086420431
 10
32.761173666407828
 20
-24.705906025079969
 10
33.08468467828822
 20
-23.761826032366031
 10
33.384845926474007
 20
-22.811479815615439
 10
33.661557366663693
 20
-21.855267082164971
 10
33.914718954555738
 20
-20.893587539351451
 10
34.144230645848637
 20
-19.92684089451166
 10
34.349992396240879
 20
-18.955426854982409
 10
34.531904161430937
 20
-17.979745128100511
 10
34.689865897117308
 20
-17.000195421202751
 10
34.823777558998493
 20
-16.01717744162595
 10
34.933539102772933
 20
-15.031090896706891
 10
35.019050484139122
 20
-14.04233549378238
 10
35.080211658795562
 20
-13.05131094018923
 10
35.116922582440743
 20
-12.058416943264231
 10
35.129083210773118
 20
-11.06405321034419
 10
35.116593499491202
 20
-10.06861944876591
 10
35.079353404293457
 20
-9.0725153658661917
 10
35.017262880878377
 20
-8.0761406689818376
 10
34.930221884944473
 20
-7.0798950654496497
 10
34.818130372190168
 20
-6.0841782626064296
 10
34.680888298314002
 20
-5.089389967788982
 10
34.576577446107933
 20
-4.428513217905234
 10
34.463769136319769
 20
-3.77353578680908
 10
34.342503808407379
 20
-3.1246060677005119
 10
34.212821901828598
 20
-2.4818724537795211
 10
34.074763856041301
 20
-1.8454833382460969
 10
33.928370110503323
 20
-1.2155871143002319
 10
33.773681104672512
 20
-0.5923321751419165
 10
33.610737278006717
 20
0.0241330860288587
 10
33.439579069963798
 20
0.6336602760121024
 10
33.260246920001613
 20
1.236101001607824
 10
33.07278126757798
 20
1.8313068696160331
 10
32.877222552150783
 20
2.419129486836737
 10
32.673611213177857
 20
2.999420460069945
 10
32.46198769011707
 20
3.5720313961156691
 10
32.242392422426249
 20
4.1368139017739152
 10
32.014865849563257
 20
4.6936195838446926
 10
31.790969503369698
 20
5.2428461266919024
 10
31.620951234319708
 20
5.6989370660895187
 10
31.50237214333178
 20
6.0773069408497751
 10
31.461610133648101
 20
6.2421635223697169
 10
31.432793331324351
 20
6.3933702897849063
 10
31.41561687397536
 20
6.5328540604468728
 10
31.409775899215919
 20
6.6625416517071443
 10
31.414965544660831
 20
6.7843598809172523
 10
31.43088094792493
 20
6.9002355654287264
 10
31.457217246622999
 20
7.0120955225930954
 10
31.493669578369861
 20
7.1218665697618846
 10
31.539933080780319
 20
7.231475524286628
 10
31.59570289146917
 20
7.3428492035188526
 10
31.66130362781216
 20
7.4578162334034186
 10
31.73049177634644
 20
7.5606598608284648
 10
31.806632079036451
 20
7.6522545501075951
 10
31.89308927784662
 20
7.733474765554412
 10
31.99322811474136
 20
7.8051949714825204
 10
32.110413331685109
 20
7.8682896322055242
 10
32.24800967064229
 20
7.9236332120370268
 10
32.409381873577317
 20
7.9721001752906329
 10
32.597894682454623
 20
8.0145649862799431
 10
32.81691283923864
 20
8.0519021093185668
 10
33.359924164384473
 20
8.1146911487981619
 10
34.065333784730207
 20
8.1674630082382436
 10
34.960059635991271
 20
8.2172134021476424
 10
35.678571379098088
 20
8.2633359589700781
 10
36.365786393290158
 20
8.3271903102593061
 10
37.020100256637193
 20
8.4084914311182999
 10
37.639908547208933
 20
8.5069542966500258
 10
38.223606843075068
 20
8.622293881957459
 10
38.76959072230536
 20
8.7542251621435696
 10
39.276255762969512
 20
8.9024631123113238
 10
39.741997543137231
 20
9.0667227075636987
 10
40.070362759786562
 20
9.2005848161456036
 10
40.399120210088647
 20
9.3478984733963255
 10
40.727839193055893
 20
9.5082227836804769
 10
41.056089007700649
 20
9.6811168513626686
 10
41.383438953035323
 20
9.8661397808075151
 10
41.709458328072273
 20
10.062850676379631
 10
42.033716431823891
 20
10.270808642443621
 10
42.355782563302547
 20
10.48957278336411
 10
42.67522602152065
 20
10.71870220350571
 10
42.991616105490543
 20
10.95775600723303
 10
43.304522114224618
 20
11.206293298910669
 10
43.61351334673526
 20
11.463873182903271
 10
43.918159102034842
 20
11.730054763575421
 10
44.218028679135763
 20
12.004397145291749
 10
44.512691377050373
 20
12.28645943241686
 10
44.801716494791073
 20
12.57580072931537
 10
45.08467333137024
 20
12.871980140351891
 10
45.36113118580024
 20
13.174556769891041
 10
45.630659357093457
 20
13.48308972229742
 10
45.892827144262277
 20
13.79713810193565
 10
46.147203846319087
 20
14.116261013170339
 10
46.393358762276257
 20
14.440017560366121
 10
46.630861191146167
 20
14.76796684788758
 10
46.859280431941201
 20
15.099667980099341
 10
47.078185783673732
 20
15.43468006136602
 10
47.287146545356137
 20
15.772562196052229
 10
47.485732016000817
 20
16.11287348852257
 10
47.673511494620129
 20
16.455173043141681
 10
47.850054280226459
 20
16.799019964274152
 10
48.014929671832192
 20
17.143973356284601
 10
48.1677069684497
 20
17.48959232353765
 10
48.307955469091368
 20
17.835435970397899
 10
48.381640982817324
 20
18.039080909662871
 10
48.448927345579328
 20
18.25402132646353
 10
48.510041572150833
 20
18.482805193466159
 10
48.565210677305259
 20
18.727980483337038
 10
48.614661675816038
 20
18.992095168742459
 10
48.65862158245659
 20
19.27769722234871
 10
48.697317412000338
 20
19.587334616822059
 10
48.730976179220733
 20
19.923555324828801
 10
48.784090585785087
 20
20.685938572107599
 10
48.819780920337116
 20
21.585230745515371
 10
48.839863301064227
 20
22.641815626382389
 10
48.84615384615384
 20
23.876076996038918
 10
48.84615384615384
 20
28.52615384615385
 10
48.064615384615379
 20
29.307692307692289
 10
34.616861750476893
 20
29.307692307692321
 10
34.018729940227828
 20
30.691666666666659
 10
33.833925335971678
 20
31.104726158494628
 10
33.637060904545997
 20
31.516882227880391
 10
33.428481919764472
 20
31.927764221321048
 10
33.208533655440732
 20
32.337001485313714
 10
32.977561385388483
 20
32.744223366355499
 10
32.735910383421377
 20
33.149059210943513
 10
32.483925923353112
 20
33.551138365574843
 10
32.221953278997333
 20
33.950090176746613
 10
31.95033772416771
 20
34.345543990955917
 10
31.669424532677919
 20
34.737129154699893
 10
31.379558978341631
 20
35.124475014475607
 10
31.081086334972522
 20
35.507210916780203
 10
30.774351876384252
 20
35.884966208110761
 10
30.459700876390489
 20
36.257370234964412
 10
30.137478608804919
 20
36.624052343838237
 10
29.8080303474412
 20
36.984641881229372
 10
29.47170136611301
 20
37.338768193634913
 10
29.128836938634009
 20
37.686060627551953
 10
28.779782338817871
 20
38.026148529477616
 10
28.424882840478279
 20
38.358661245908998
 10
28.064483717428889
 20
38.683228123343227
 10
27.698930243483371
 20
38.999478508277392
 10
27.328567692455401
 20
39.307041747208601
 10
26.95374133815864
 20
39.60554718663397
 10
26.57479645440678
 20
39.894624173050602
 10
26.192078315013472
 20
40.173902052955597
 10
25.80593219379239
 20
40.443010172846073
 10
25.416703364557211
 20
40.701577879219137
 10
25.024737101121591
 20
40.949234518571899
 10
24.63037867729922
 20
41.185609437401453
 10
24.233973366903751
 20
41.410331982204923
 10
23.83586644374887
 20
41.623031499479403
 10
23.135193287507331
 20
41.980207638188361
 10
22.481134423532591
 20
42.30004553980433
 10
21.86474691706238
 20
42.584510226115
 10
21.277087833334381
 20
42.835566718908112
 10
20.709214237586298
 20
43.055180039971368
 10
20.152183195055859
 20
43.245315211092503
 10
19.597051770980759
 20
43.407937254059213
 10
19.03487703059869
 20
43.54501119065921
 10
18.456716039147381
 20
43.65850204268024
 10
17.853625861864518
 20
43.750374831910023
 10
17.216663563987829
 20
43.82259458013624
 10
16.536886210755011
 20
43.877126309146647
 10
15.80535086740375
 20
43.915935040728947
 10
15.013114599171789
 20
43.940985796670859
 10
14.15123447129681
 20
43.954243598760087
 10
13.21076754901652
 20
43.957673468784378
 10
8.6294871794871781
 20
43.953808476030297
 10
6.8384615384615373
 20
43.477806206173803
 10
6.4414712003103762
 20
43.36675219634904
 10
6.0421932979050528
 20
43.244114264109903
 10
5.6410532308558654
 20
43.110178278024733
 10
5.23847639877311
 20
42.965230106661892
 10
4.8348882012670868
 20
42.809555618589727
 10
4.4307140379480927
 20
42.643440682376621
 10
4.0263793084264252
 20
42.467171166590909
 10
3.6223094123123838
 20
42.281032939800959
 10
3.2189297492162661
 20
42.085311870575133
 10
2.8166657187483701
 20
41.880293827481772
 10
2.4159427205189918
 20
41.666264679089252
 10
2.0171861541384311
 20
41.443510293965943
 10
1.6208214192169861
 20
41.212316540680163
 10
1.2272739153649539
 20
40.972969287800296
 10
0.8369690421926326
 20
40.725754403894712
 10
0.4503321993103206
 20
40.470957757531743
 10
0.0677887863283158
 20
40.208865217279751
 10
-0.3102357971430839
 20
39.939762651707113
 10
-0.6833161514935806
 20
39.663935929382163
 10
-1.0510268771128759
 20
39.381670918873269
 10
-1.4129425743906729
 20
39.093253488748793
 10
-1.768637843716673
 20
38.798969507577098
 10
-2.1176872854805779
 20
38.499104843926531
 10
-2.4596655000720888
 20
38.193945366365448
 10
-2.7941470878809098
 20
37.88377694346223
 10
-3.1207066492967419
 20
37.568885443785213
 10
-3.438918784709287
 20
37.249556735902743
 10
-3.748358094508248
 20
36.926076688383212
 10
-4.0485991790833253
 20
36.598731169794959
 10
-4.3392166388242224
 20
36.267806048706348
 10
-4.6197850741206414
 20
35.933587193685717
 10
-4.8898790853622813
 20
35.596360473301459
 10
-5.1366382345671564
 20
35.274131903591872
 10
-5.3770507811503467
 20
34.946975326740827
 10
-5.6111033621278201
 20
34.615026954150302
 10
-5.8387826145155444
 20
34.278422997222258
 10
-6.0600751753294846
 20
33.937299667358673
 10
-6.2749676815856112
 20
33.591793175961499
 10
-6.4834467702998886
 20
33.242039734432723
 10
-6.6854990784882879
 20
32.888175554174282
 10
-7.0702699013513133
 20
32.168659823076332
 10
-7.4291732463024269
 20
31.434335673883371
 10
-7.7621022094693668
 20
30.686292797811141
 10
-8.0689498869798726
 20
29.925620886075379
 10
-8.349609374961684
 20
29.153409629891829
 10
-8.603973769542538
 20
28.3707487204762
 10
-8.831936166850177
 20
27.578727849044238
 10
-9.033389663012338
 20
26.778436706811689
 10
-9.2082273541567581
 20
25.970964984994261
 10
-9.3563423364111813
 20
25.157402374807699
 10
-9.4776277059033429
 20
24.33883856746775
 10
-9.5719765587609835
 20
23.516363254190122
 10
-9.6392819911118419
 20
22.69106612619056
 10
-9.6794370990836569
 20
21.86403687468481
 10
-9.6923349788041691
 20
21.036365190888581
 10
-9.6778687264011136
 20
20.209140766017619
 10
-9.6359314380022347
 20
19.383453291287651
 10
-9.5664162097352659
 20
18.560392457914421
 10
-9.4692161377279511
 20
17.741047957113661
 10
-9.3442243181080293
 20
16.9265094801011
 10
-9.1913338470032357
 20
16.117866718092461
 10
-9.0104378205413127
 20
15.3162093623035
 10
-8.801429334849999
 20
14.52262710394993
 10
-8.5642014860570317
 20
13.73820963424749
 10
-8.4349718930373463
 20
13.349778223645361
 10
-8.2986473702901513
 20
12.96404664441191
 10
-8.1552145548314137
 20
12.58115110794912
 10
-8.0046600836770985
 20
12.20122782565894
 10
-7.8469705938431753
 20
11.82441300894334
 10
-7.6821327223456102
 20
11.450842869204299
 10
-7.5101331062003709
 20
11.080653617843771
 10
-7.3309583824234252
 20
10.71398146626372
 10
-6.2545798648242297
 20
8.5651424197069161
 10
-15.467948717948721
 20
8.1623522576820591
 10
-16.444871794871791
 20
7.9824768700062947
 10
-16.746252980496742
 20
7.9369223689006603
 10
-16.877371239882709
 20
7.9278687694791063
 10
-16.998137125841009
 20
7.9298386167719261
 10
-17.110572525014138
 20
7.9442376702492696
 10
-17.216699324044608
 20
7.9724716893812868
 10
-17.318539409574921
 20
8.0159464336381259
 10
-17.418114668247579
 20
8.076067662489935
 10
-17.517446986705089
 20
8.1542411354068669
 10
-17.618558251589949
 20
8.2518726118590635
 10
-17.723470349544659
 20
8.3703678513166828
 10
-17.834205167211721
 20
8.5111326132498668
 10
-18.081230508252929
 20
8.8650937424235376
 10
-18.375809367853599
 20
9.3250020751412706
 10
-18.72175085709473
 20
9.8537623210903327
 10
-19.09853256772767
 20
10.386218528512879
 10
-19.50436270991117
 20
10.92109628123286
 10
-19.937449493803971
 20
11.457121163074209
 10
-20.396001129564851
 20
11.9930187578609
 10
-20.878225827352551
 20
12.52751464941686
 10
-21.382331797325818
 20
13.059334421566041
 10
-21.90652724964341
 20
13.587203658132401
 10
-22.449020394464089
 20
14.10984794293987
 10
-23.00801944194659
 20
14.62599285981241
 10
-23.581732602249691
 20
15.13436399257397
 10
-24.168368085532119
 20
15.63368692504849
 10
-24.766134101952652
 20
16.122687241059928
 10
-25.373238861670021
 20
16.600090524432218
 10
-25.987890574843
 20
17.064622358989318
 10
-26.608297451630321
 20
17.515008328555179
 10
-27.23266770219076
 20
17.94997401695375
 10
-27.85920953668305
 20
18.368245008008959
 10
-28.486131165265959
 20
18.768546885544769
 10
-29.111640798098239
 20
19.149605233385131
 10
-29.73394664533863
 20
19.510145635353989
 10
-30.3512569171459
 20
19.848893675275288
 10
-30.9617798236788
 20
20.16457493697299
 10
-31.563723575096081
 20
20.45591500427102
 10
-32.155296381556489
 20
20.721639460993341
 10
-32.734706453218777
 20
20.9604738909639
 10
-33.300162000241713
 20
21.171143878006639
 10
-33.849871232784047
 20
21.352375005945522
 10
-34.382042361004537
 20
21.502892858604469
 10
-34.894883595061913
 20
21.621423019807452
 10
-35.386603145114947
 20
21.706691073378408
 10
-35.62398235431445
 20
21.736453554746859
 10
-35.85540922132239
 20
21.75742260314129
 10
-36.268052317488888
 20
21.78359680289212
 10
-36.640197519321809
 20
21.79600806241578
 10
-36.9785508462762
 20
21.789912192321431
 10
-37.289818317807132
 20
21.76056500321825
 10
-37.437390488868523
 20
21.735689604853729
 10
-37.580705953369687
 20
21.703222305715439
 10
-37.720602963742543
 20
21.66257008212953
 10
-37.857919772418938
 20
21.613139910422149
 10
-37.993494631830792
 20
21.55433876691945
 10
-38.128165794409952
 20
21.485573627947581
 10
-38.26277151258833
 20
21.406251469832679
 10
-38.398150038797787
 20
21.315779268900901
 10
-38.535139625470237
 20
21.213564001478389
 10
-38.674578525037539
 20
21.099012643891289
 10
-38.964157272584274
 20
20.830529563527929
 10
-39.273592300893043
 20
20.50558583842
 10
-39.609589629418942
 20
20.119437279176669
 10
-39.978855277617029
 20
19.667339696407129
 10
-40.388095264942393
 20
19.14454890072054
 10
-41.35332233479518
 20
17.867910913032979
 10
-41.969791918224203
 20
17.022897006687689
 10
-42.560648541207428
 20
16.171557689708688
 10
-43.12601138870167
 20
15.31364231630849
 10
-43.665999645663767
 20
14.448900240699579
 10
-44.180732497050563
 20
13.57708081709448
 10
-44.670329127818853
 20
12.697933399705679
 10
-45.134908722925481
 20
11.811207342745689
 10
-45.57459046732729
 20
10.91665200042701
 10
-45.989493545981112
 20
10.01401672696214
 10
-46.379737143843748
 20
9.1030508765635965
 10
-46.745440445872063
 20
8.1835038034438732
 10
-47.086722637022859
 20
7.255124861815478
 10
-47.403702902252988
 20
6.3176634058909116
 10
-47.696500426519258
 20
5.3708687898826781
 10
-47.965234394778527
 20
4.4144903680032801
 10
-48.210023991987612
 20
3.448277494465223
 10
-48.307019570826199
 20
3.0281464778093379
 10
-48.3938006497646
 20
2.6142993919216209
 10
-48.470915867141599
 20
2.196698239371401
 10
-48.538913861295967
 20
1.7653050227280009
 10
-48.598343270566502
 20
1.310081744560752
 10
-48.649752733291962
 20
0.8209904074389782
 10
-48.693690887811151
 20
0.2879930139320082
 10
-48.730706372462841
 20
-0.2989484333908319
 10
-48.761347825585808
 20
-0.9498719319602148
 10
-48.786163885518832
 20
-1.674815479206814
 10
-48.820514379170191
 20
-3.3869147094543521
 10
-48.838146960127148
 20
-5.5155501035788301
 10
-48.843450735099971
 20
-8.1410256410256352
 10
-48.845310529129577
 20
-17.09615384615384
 10
-48.032978379757971
 20
-20.449149261066019
 10
-47.784455609747248
 20
-21.410193400852631
 10
-47.498230878691963
 20
-22.402225573576469
 10
-47.178206168545927
 20
-23.416480585864321
 10
-46.828283461262998
 20
-24.444193244342969
 10
-46.452364738797002
 20
-25.476598355639201
 10
-46.054351983101768
 20
-26.50493072637979
 10
-45.638147176131142
 20
-27.52042516319154
 10
-45.207652299838941
 20
-28.514316472701228
 10
-44.76676933617901
 20
-29.477839461535648
 10
-44.319400267105173
 20
-30.402228936321581
 10
-43.869447074571269
 20
-31.278719703685798
 10
-43.420811740531143
 20
-32.09854657025511
 10
-42.977396246938603
 20
-32.852944342656293
 10
-42.758865309670753
 20
-33.202868195614712
 10
-42.543102575747497
 20
-33.533147827516132
 10
-42.330595792913059
 20
-33.84268758918892
 10
-42.121832708911647
 20
-34.130391831461409
 10
-41.917301071487529
 20
-34.395164905161963
 10
-41.71748862838492
 20
-34.635911161118919
 10
-41.56133669642395
 20
-34.796675814402377
 10
-41.360584334199558
 20
-34.970084251909412
 10
-41.117241211997253
 20
-35.155290489628229
 10
-40.833317000102532
 20
-35.351448543547029
 10
-40.51082136880089
 20
-35.557712429654003
 10
-40.151763988377837
 20
-35.773236163937369
 10
-39.758154529118883
 20
-35.99717376238533
 10
-39.332002661309502
 20
-36.228679240986061
 10
-38.875318055235233
 20
-36.46690661572778
 10
-38.390110381181543
 20
-36.711009902598697
 10
-37.342164510277968
 20
-37.213460276680919
 10
-36.204242410882799
 20
-37.729262491138307
 10
-34.992421445280037
 20
-38.25164867387651
 10
-33.722778975753712
 20
-38.773850952801112
 10
-32.411392364587812
 20
-39.289101455817729
 10
-31.074338974066361
 20
-39.790632310831981
 10
-29.727696166473379
 20
-40.271675645749482
 10
-28.387541304092881
 20
-40.725463588475833
 10
-27.069951749208869
 20
-41.145228266916646
 10
-25.791004864105371
 20
-41.524201808977551
 10
-25.171046598435069
 20
-41.69627694383604
 10
-24.56677801106639
 20
-41.855616342564161
 10
-23.340637751838759
 20
-42.164914303027992
 10
-22.194739755498929
 20
-42.442241511144744
 10
-21.113661164522291
 20
-42.689315275415012
 10
-20.081979121384201
 20
-42.907852904339393
 10
-19.084270768560049
 20
-43.09957170641848
 10
-18.105113248525189
 20
-43.266188990152862
 10
-17.129083703755001
 20
-43.409422064043127
 10
-16.140759276724872
 20
-43.530988236589877
 10
-15.124717109910151
 20
-43.6326048162937
 10
-14.065534345786229
 20
-43.71598911165519
 10
-12.947788126828479
 20
-43.782858431174937
 10
-11.75605559551226
 20
-43.834930083353562
 10
-10.47491389431296
 20
-43.873921376691612
 10
-9.0889401657059441
 20
-43.901549619689717
 10
-7.582711552166586
 20
-43.919532120848437
  0
CIRCLE
  5
46
100
AcDbEntity
100
AcDbCircle
  8
LAYER_1
 62
256
370
-1
  6
ByLayer
 10
17.687888790715878
 20
28.786171953517997
 30
0.0
 40
4.9078590916920319
  0
LINE
  5
47
100
AcDbEntity
100
AcDbLine
  8
LAYER_1
 62
256
370
-1
  6
ByLayer
 10
-26.468517687483349
 20
-16.292084312473367
 30
0.0
 11
-23.140688141681313
 21
-16.797500918811267
 31
0.0
  0
LINE
  5
48
100
AcDbEntity
100
AcDbLine
  8
LAYER_1
 62
256
370
-1
  6
ByLayer
 10
-23.140688141681313
 20
-16.797500918811267
 30
0.0
 11
-19.658966190650265
 21
-17.089135466175595
 31
0.0
  0
LINE
  5
49
100
AcDbEntity
100
AcDbLine
  8
LAYER_1
 62
256
370
-1
  6
ByLayer
 10
-19.658966190650265
 20
-17.089135466175595
 30
0.0
 11
-14.905299670708317
 21
-17.150569833349792
 31
0.0
  0
LINE
  5
4A
100
AcDbEntity
100
AcDbLine
  8
LAYER_1
 62
256
370
-1
  6
ByLayer
 10
-14.905299670708317
 20
-17.150569833349792
 30
0.0
 11
-10.422573307120926
 21
-16.822486343129068
 31
0.0
  0
LINE
  5
4B
100
AcDbEntity
100
AcDbLine
  8
LAYER_1
 62
256
370
-1
  6
ByLayer
 10
-10.422573307120926
 20
-16.822486343129068
 30
0.0
 11
-5.9370894881510843
 21
-16.007587614353152
 31
0.0
  0
LINE
  5
4C
100
AcDbEntity
100
AcDbLine
  8
LAYER_1
 62
256
370
-1
  6
ByLayer
 10
-5.9370894881510843
 20
-16.007587614353152
 30
0.0
 11
-1.3899034448127656
 21
-14.543953252208809
 31
0.0
  0
LINE
  5
4D
100
AcDbEntity
100
AcDbLine
  8
LAYER_1
 62
256
370
-1
  6
ByLayer
 10
-1.3899034448127656
 20
-14.543953252208809
 30
0.0
 11
2.6544812085610179
 21
-12.572520221276939
 31
0.0
  0
LINE
  5
4E
100
AcDbEntity
100
AcDbLine
  8
LAYER_1
 62
256
370
-1
  6
ByLayer
 10
2.6544812085610179
 20
-12.572520221276939
 30
0.0
 11
6.1320628885763639
 21
-10.243510989460097
 31
0.0
  0
LINE
  5
4F
100
AcDbEntity
100
AcDbLine
  8
LAYER_1
 62
256
370
-1
  6
ByLayer
 10
6.1320628885763639
 20
-10.243510989460097
 30
0.0
 11
9.1313186230095802
 21
-7.7094032787711004
 31
0.0
  0
LINE
  5
50
100
AcDbEntity
100
AcDbLine
  8
LAYER_1
 62
256
370
-1
  6
ByLayer
 10
9.1313186230095802
 20
-7.7094032787711004
 30
0.0
 11
11.918132094344113
 21
-4.8818412707548138
 31
0.0
  0
LINE
  5
51
100
AcDbEntity
100
AcDbLine
  8
LAYER_1
 62
256
370
-1
  6
ByLayer
 10
11.918132094344113
 20
-4.8818412707548138
 30
0.0
 11
14.290800639284003
 21
-2.4657147363800891
 31
0.0
  0
LINE
  5
52
100
AcDbEntity
100
AcDbLine
  8
LAYER_1
 62
256
370
-1
  6
ByLayer
 10
14.290800639284003
 20
-2.4657147363800891
 30
0.0
 11
14.616304057049639
 21
-3.169336948189823
 31
0.0
  0
LINE
  5
53
100
AcDbEntity
100
AcDbLine
  8
LAYER_1
 62
256
370
-1
  6
ByLayer
 10
14.616304057049639
 20
-3.169336948189823
 30
0.0
 11
13.361929133949337
 21
-5.9112673487642473
 31
0.0
  0
LINE
  5
54
100
AcDbEntity
100
AcDbLine
  8
LAYER_1
 62
256
370
-1
  6
ByLayer
 10
13.361929133949337
 20
-5.9112673487642473
 30
0.0
 11
10.658589950777298
 21
-9.3967549098882923
 31
0.0
  0
LINE
  5
55
100
AcDbEntity
100
AcDbLine
  8
LAYER_1
 62
256
370
-1
  6
ByLayer
 10
10.658589950777298
 20
-9.3967549098882923
 30
0.0
 11
7.1324274255905955
 21
-12.87515310984649
 31
0.0
  0
LINE
  5
56
100
AcDbEntity
100
AcDbLine
  8
LAYER_1
 62
256
370
-1
  6
ByLayer
 10
7.1324274255905955
 20
-12.87515310984649
 30
0.0
 11
2.8315752043478803
 21
-15.954171681281828
 31
0.0
  0
LINE
  5
57
100
AcDbEntity
100
AcDbLine
  8
LAYER_1
 62
256
370
-1
  6
ByLayer
 10
2.8315752043478803
 20
-15.954171681281828
 30
0.0
 11
-1.8525082210957682
 21
-18.177487124922376
 31
0.0
  0
LINE
  5
58
100
AcDbEntity
100
AcDbLine
  8
LAYER_1
 62
256
370
-1
  6
ByLayer
 10
-1.8525082210957682
 20
-18.177487124922376
 30
0.0
 11
-7.4945493478212066
 21
-19.801186336519915
 31
0.0
  0
LINE
  5
59
100
AcDbEntity
100
AcDbLine
  8
LAYER_1
 62
256
370
-1
  6
ByLayer
 10
-7.4945493478212066
 20
-19.801186336519915
 30
0.0
 11
-13.156771719776504
 21
-20.436542290800446
 31
0.0
  0
LINE
  5
5A
100
AcDbEntity
100
AcDbLine
  8
LAYER_1
 62
256
370
-1
  6
ByLayer
 10
-13.156771719776504
 20
-20.436542290800446
 30
0.0
 11
-19.562360582194419
 21
-20.096063354542242
 31
0.0
  0
LINE
  5
5B
100
AcDbEntity
100
AcDbLine
  8
LAYER_1
 62
256
370
-1
  6
ByLayer
 10
-19.562360582194419
 20
-20.096063354542242
 30
0.0
 11
-24.48218982048088
 21
-19.060671819346421
 31
0.0
  0
LINE
  5
5C
100
AcDbEntity
100
AcDbLine
  8
LAYER_1
 62
256
370
-1
  6
ByLayer
 10
-24.48218982048088
 20
-19.060671819346421
 30
0.0
 11
-27.523408878916253
 21
-17.589771540488151
 31
0.0
  0
LINE
  5
5D
100
AcDbEntity
100
AcDbLine
  8
LAYER_1
 62
256
370
-1
  6
ByLayer
 10
-27.523408878916253
 20
-17.589771540488151
 30
0.0
 11
-28.151506621149618
 21
-16.497584127741806
 31
0.0
  0
LINE
  5
5E
100
AcDbEntity
100
AcDbLine
  8
LAYER_1
 62
256
370
-1
  6
ByLayer
 10
-28.151506621149618
 20
-16.497584127741806
 30
0.0
 11
-27.347473362545561
 21
-16.136066845935236
 31
0.0
  0
LINE
  5
5F
100
AcDbEntity
100
AcDbLine
  8
LAYER_1
 62
256
370
-1
  6
ByLayer
 10
-27.347473362545561
 20
-16.136066845935236
 30
0.0
 11
-26.468517687483349
 21
-16.292084312473367
 31
0.0
  0
ENDSEC
  0
SECTION
  2
OBJECTS
  0
DICTIONARY
  5
C
100
AcDbDictionary
280
0
281
1
  3
ACAD_GROUP
350
D
  3
ACAD_LAYOUT
350
1A
  3
ACAD_MLINESTYLE
350
17
  3
ACAD_PLOTSETTINGS
350
19
  3
ACAD_PLOTSTYLENAME
350
E
  3
AcDbVariableDictionary
350
60
  0
DICTIONARY
  5
D
100
AcDbDictionary
280
0
281
1
  0
ACDBDICTIONARYWDFLT
  5
E
100
AcDbDictionary
281
1
  3
Normal
350
F
100
AcDbDictionaryWithDefault
340
F
  0
ACDBPLACEHOLDER
  5
F
  0
DICTIONARY
  5
17
100
AcDbDictionary
280
0
281
1
  3
Standard
350
18
  0
MLINESTYLE
  5
18
100
AcDbMlineStyle
  2
STANDARD
 70
0
  3

 62
256
 51
90.0
 52
90.0
 71
2
 49
0.5
 62
256
  6
BYLAYER
 49
-0.5
 62
256
  6
BYLAYER
  0
DICTIONARY
  5
19
100
AcDbDictionary
280
0
281
1
  0
DICTIONARY
  5
1A
100
AcDbDictionary
281
1
  3
Layout1
350
1E
  3
Layout2
350
26
  3
Model
350
22
  0
LAYOUT
  5
1E
100
AcDbPlotSettings
  1

  2
C:\Program Files\AutoCAD 2002\plotters\DWF ePlot (optimized for plotting).pc3
  4

  6

 40
0.0
 41
0.0
 42
0.0
 43
0.0
 44
0.0
 45
0.0
 46
0.0
 47
0.0
 48
0.0
 49
0.0
140
0.0
141
0.0
142
1.0
143
1.0
 70
688
 72
0
 73
0
 74
5
  7

 75
16
147
1.0
148
0.0
149
0.0
100
AcDbLayout
  1
Layout1
 70
1
 71
1
 10
0.0
 20
0.0
 11
420.0
 21
297.0
 12
0.0
 22
0.0
 32
0.0
 14
100000000000000000000.0
 24
100000000000000000000.0
 34
100000000000000000000.0
 15
-100000000000000000000.0
 25
-100000000000000000000.0
 35
-100000000000000000000.0
146
0.0
 13
0.0
 23
0.0
 33
0.0
 16
1.0
 26
0.0
 36
0.0
 17
0.0
 27
1.0
 37
0.0
 76
0
330
1B
  0
LAYOUT
  5
22
100
AcDbPlotSettings
  1

  2
C:\Program Files\AutoCAD 2002\plotters\DWF ePlot (optimized for plotting).pc3
  4

  6

 40
0.0
 41
0.0
 42
0.0
 43
0.0
 44
0.0
 45
0.0
 46
0.0
 47
0.0
 48
0.0
 49
0.0
140
0.0
141
0.0
142
1.0
143
1.0
 70
1712
 72
0
 73
0
 74
0
  7

 75
0
147
1.0
148
0.0
149
0.0
100
AcDbLayout
  1
Model
 70
1
 71
0
 10
0.0
 20
0.0
 11
12.0
 21
9.0
 12
0.0
 22
0.0
 32
0.0
 14
0.0
 24
0.0
 34
0.0
 15
0.0
 25
0.0
 35
0.0
146
0.0
 13
0.0
 23
0.0
 33
0.0
 16
1.0
 26
0.0
 36
0.0
 17
0.0
 27
1.0
 37
0.0
 76
0
330
1F
  0
LAYOUT
  5
26
100
AcDbPlotSettings
  1

  2
C:\Program Files\AutoCAD 2002\plotters\DWF ePlot (optimized for plotting).pc3
  4

  6

 40
0.0
 41
0.0
 42
0.0
 43
0.0
 44
0.0
 45
0.0
 46
0.0
 47
0.0
 48
0.0
 49
0.0
140
0.0
141
0.0
142
1.0
143
1.0
 70
688
 72
0
 73
0
 74
5
  7

 75
16
147
1.0
148
0.0
149
0.0
100
AcDbLayout
  1
Layout2
 70
1
 71
2
 10
0.0
 20
0.0
 11
12.0
 21
9.0
 12
0.0
 22
0.0
 32
0.0
 14
0.0
 24
0.0
 34
0.0
 15
0.0
 25
0.0
 35
0.0
146
0.0
 13
0.0
 23
0.0
 33
0.0
 16
1.0
 26
0.0
 36
0.0
 17
0.0
 27
1.0
 37
0.0
 76
0
330
23
  0
DICTIONARY
  5
60
100
AcDbDictionary
281
1
  3
DIMASSOC
350
62
  3
HIDETEXT
350
61
  0
DICTIONARYVAR
  5
61
100
DictionaryVariables
280
0
  1
2
  0
DICTIONARYVAR
  5
62
100
DictionaryVariables
280
0
  1
1
  0
ENDSEC
  0
EOF
