999
dxflib 2.0.4.8
  0
SECTION
  2
HEADER
  9
$ACADVER
  1
AC1015
  9
$HANDSEED
  5
FFFF
  9
$USERR4
 40
0.0
  9
$DIMTAD
 70
0
  9
$VISRETAIN
 70
1
  9
$TILEMODE
 70
1
  9
$SHADEDIF
 70
70
  9
$USERR5
 40
0.0
  9
$UCSYDIR
 10
0.0
 20
1.0
 30
0.0
  9
$ATTREQ
 70
1
  9
$CHAMFERA
 40
0.5
  9
$MENU
  1
.
  9
$CLAYER
  8
0
  9
$UCSXDIR
 10
1.0
 20
0.0
 30
0.0
  9
$CHAMFERB
 40
0.5
  9
$DIMASZ
 40
0.18
  9
$TRACEWID
 40
0.05
  9
$REGENMODE
 70
1
  9
$ORTHOMODE
 70
0
  9
$EXTMIN
 10
-38.687558883407462
 20
-18.888518391692308
 30
0.0
  9
$PUCSYDIR
 10
0.0
 20
1.0
 30
0.0
  9
$ANGBASE
 50
0.0
  9
$USRTIMER
 70
1
  9
$SKETCHINC
 40
0.1
  9
$DIMGAP
 40
0.09
  9
$DIMTFAC
 40
1.0
  9
$DIMSAH
 70
0
  9
$DIMALT
 70
0
  9
$DIMSHO
 70
1
  9
$PUCSXDIR
 10
1.0
 20
0.0
 30
0.0
  9
$SURFTYPE
 70
6
  9
$SPLFRAME
 70
0
  9
$DIMTSZ
 40
0.0
  9
$LIMMIN
 10
0.0
 20
0.0
  9
$SURFTAB1
 70
6
  9
$SPLINESEGS
 70
8
  9
$AUPREC
 70
0
  9
$LUNITS
 70
2
  9
$DWGCODEPAGE
  3
ansi_1252
  9
$UNITMODE
 70
0
  9
$USERI1
 70
0
  9
$SURFTAB2
 70
6
  9
$SKPOLY
 70
0
  9
$ELEVATION
 40
0.0
  9
$DIMCEN
 40
0.09
  9
$DIMRND
 40
0.0
  9
$INSBASE
 10
0.0
 20
0.0
 30
0.0
  9
$USERI2
 70
0
  9
$UCSORG
 10
0.0
 20
0.0
 30
0.0
  9
$PELEVATION
 40
0.0
  9
$DIMEXO
 40
0.0625
  9
$TEXTSIZE
 40
0.2
  9
$DRAGMODE
 70
2
  9
$FILLMODE
 70
1
  9
$EXTMAX
 10
38.685931575521849
 20
18.888815935785338
 30
0.0
  9
$INSUNITS
 70
4
  9
$USERI3
 70
0
  9
$SURFU
 70
6
  9
$ANGDIR
 70
0
  9
$TDUSRTIMER
 40
0.0000000116
  9
$DIMZIN
 70
0
  9
$DIMDLE
 40
0.0
  9
$DIMSCALE
 40
1.0
  9
$WORLDVIEW
 70
1
  9
$USERI4
 70
0
  9
$SURFV
 70
6
  9
$OSMODE
 70
37
  9
$QTEXTMODE
 70
0
  9
$LIMMAX
 10
12.0
 20
9.0
  9
$USERI5
 70
0
  9
$HANDLING
 70
1
  9
$PDMODE
 70
0
  9
$LIMCHECK
 70
0
  9
$THICKNESS
 40
0.0
  9
$DIMSE1
 70
0
  9
$DIMLIM
 70
0
  9
$DIMTXT
 40
0.18
  9
$ATTMODE
 70
1
  9
$PEXTMAX
 10
-100000000000000000000.0
 20
-100000000000000000000.0
 30
-100000000000000000000.0
  9
$PEXTMIN
 10
100000000000000000000.0
 20
100000000000000000000.0
 30
100000000000000000000.0
  9
$PUCSORG
 10
0.0
 20
0.0
 30
0.0
  9
$SPLINETYPE
 70
6
  9
$TDINDWG
 40
0.0000000116
  9
$LUPREC
 70
4
  9
$DIMSOXD
 70
0
  9
$DIMLFAC
 40
1.0
  9
$DIMSE2
 70
0
  9
$DIMTOH
 70
1
  9
$CELTYPE
  6
BYLAYER
  9
$PLIMCHECK
 70
0
  9
$PLINEWID
 40
0.0
  9
$DIMSTYLE
  2
STANDARD
  9
$DIMTVP
 40
0.0
  9
$DIMASO
 70
1
  9
$DIMTM
 40
0.0
  9
$DIMDLI
 40
0.38
  9
$CECOLOR
 62
256
  9
$PLIMMAX
 10
12.0
 20
9.0
  9
$PLIMMIN
 10
0.0
 20
0.0
  9
$MAXACTVP
 70
64
  9
$TDUPDATE
 40
2456284.3098273841
  9
$FILLETRAD
 40
0.5
  9
$DIMCLRT
 70
0
  9
$DIMALTD
 70
2
  9
$DIMTIH
 70
1
  9
$LTSCALE
 40
1.0
  9
$USERR1
 40
0.0
  9
$ATTDIA
 70
0
  9
$PDSIZE
 40
0.0
  9
$DIMCLRD
 70
0
  9
$DIMEXE
 40
0.18
  9
$PSLTSCALE
 70
1
  9
$PLINEGEN
 70
0
  9
$SHADEDGE
 70
3
  9
$USERR2
 40
0.0
  9
$COORDS
 70
1
  9
$TDCREATE
 40
2454910.5
  9
$DIMCLRE
 70
0
  9
$DIMTOFL
 70
0
  9
$DIMALTF
 40
25.399999999999999
  9
$DIMTOL
 70
0
  9
$DIMTP
 40
0.0
  9
$TEXTSTYLE
  7
STANDARD
  9
$USERR3
 40
0.0
  9
$AUNITS
 70
0
  9
$DIMTIX
 70
0
  9
$MIRRTEXT
 70
1
  0
ENDSEC
  0
SECTION
  2
TABLES
  0
TABLE
  2
VPORT
  5
8
100
AcDbSymbolTable
 70
1
  0
VPORT
  5
30
100
AcDbSymbolTableRecord
100
AcDbViewportTableRecord
  2
*Active
 70
0
 10
0.0
 20
0.0
 11
1.0
 21
1.0
 12
286.30555555555549
 22
148.5
 13
0.0
 23
0.0
 14
10.0
 24
10.0
 15
10.0
 25
10.0
 16
0.0
 26
0.0
 36
1.0
 17
0.0
 27
0.0
 37
0.0
 40
297.0
 41
1.92798353909465
 42
50.0
 43
0.0
 44
0.0
 50
0.0
 51
0.0
 71
0
 72
100
 73
1
 74
3
 75
1
 76
1
 77
0
 78
0
281
0
 65
1
110
0.0
120
0.0
130
0.0
111
1.0
121
0.0
131
0.0
112
0.0
122
1.0
132
0.0
 79
0
146
0.0
  0
ENDTAB
  0
TABLE
  2
LTYPE
  5
5
100
AcDbSymbolTable
 70
21
  0
LTYPE
  5
14
100
AcDbSymbolTableRecord
100
AcDbLinetypeTableRecord
  2
ByBlock
 70
0
  3

 72
65
 73
0
 40
0.0
  0
LTYPE
  5
15
100
AcDbSymbolTableRecord
100
AcDbLinetypeTableRecord
  2
ByLayer
 70
0
  3

 72
65
 73
0
 40
0.0
  0
LTYPE
  5
16
100
AcDbSymbolTableRecord
100
AcDbLinetypeTableRecord
  2
CONTINUOUS
 70
0
  3
Solid line
 72
65
 73
0
 40
0.0
  0
LTYPE
  5
31
100
AcDbSymbolTableRecord
100
AcDbLinetypeTableRecord
  2
DOT
 70
0
  3
Dot . . . . . . . . . . . . . . . . . . . . . .
 72
65
 73
2
 40
6.3499999999999996
 49
0.0
 74
0
 49
-6.3499999999999996
 74
0
  0
LTYPE
  5
32
100
AcDbSymbolTableRecord
100
AcDbLinetypeTableRecord
  2
DOT2
 70
0
  3
Dot (.5x) .....................................
 72
65
 73
2
 40
3.1749999999999998
 49
0.0
 74
0
 49
-3.1749999999999998
 74
0
  0
LTYPE
  5
33
100
AcDbSymbolTableRecord
100
AcDbLinetypeTableRecord
  2
DOTX2
 70
0
  3
Dot (2x) .  .  .  .  .  .  .  .  .  .  .  .  .
 72
65
 73
2
 40
12.699999999999999
 49
0.0
 74
0
 49
-12.699999999999999
 74
0
  0
LTYPE
  5
34
100
AcDbSymbolTableRecord
100
AcDbLinetypeTableRecord
  2
DASHED
 70
0
  3
Dashed __ __ __ __ __ __ __ __ __ __ __ __ __ _
 72
65
 73
2
 40
19.050000000000001
 49
12.699999999999999
 74
0
 49
-6.3499999999999996
 74
0
  0
LTYPE
  5
35
100
AcDbSymbolTableRecord
100
AcDbLinetypeTableRecord
  2
DASHED2
 70
0
  3
Dashed (.5x) _ _ _ _ _ _ _ _ _ _ _ _ _ _ _ _ _
 72
65
 73
2
 40
9.5250000000000004
 49
6.3499999999999996
 74
0
 49
-3.1749999999999998
 74
0
  0
LTYPE
  5
36
100
AcDbSymbolTableRecord
100
AcDbLinetypeTableRecord
  2
DASHEDX2
 70
0
  3
Dashed (2x) ____  ____  ____  ____  ____  ___
 72
65
 73
2
 40
38.100000000000001
 49
25.399999999999999
 74
0
 49
-12.699999999999999
 74
0
  0
LTYPE
  5
37
100
AcDbSymbolTableRecord
100
AcDbLinetypeTableRecord
  2
DASHDOT
 70
0
  3
Dash dot __ . __ . __ . __ . __ . __ . __ . __
 72
65
 73
4
 40
25.399999999999999
 49
12.699999999999999
 74
0
 49
-6.3499999999999996
 74
0
 49
0.0
 74
0
 49
-6.3499999999999996
 74
0
  0
LTYPE
  5
38
100
AcDbSymbolTableRecord
100
AcDbLinetypeTableRecord
  2
DASHDOT2
 70
0
  3
Dash dot (.5x) _._._._._._._._._._._._._._._.
 72
65
 73
4
 40
12.699999999999999
 49
6.3499999999999996
 74
0
 49
-3.1749999999999998
 74
0
 49
0.0
 74
0
 49
-3.1749999999999998
 74
0
  0
LTYPE
  5
39
100
AcDbSymbolTableRecord
100
AcDbLinetypeTableRecord
  2
DASHDOTX2
 70
0
  3
Dash dot (2x) ____  .  ____  .  ____  .  ___
 72
65
 73
4
 40
50.799999999999997
 49
25.399999999999999
 74
0
 49
-12.699999999999999
 74
0
 49
0.0
 74
0
 49
-12.699999999999999
 74
0
  0
LTYPE
  5
3A
100
AcDbSymbolTableRecord
100
AcDbLinetypeTableRecord
  2
DIVIDE
 70
0
  3
Divide ____ . . ____ . . ____ . . ____ . . ____
 72
65
 73
6
 40
31.75
 49
12.699999999999999
 74
0
 49
-6.3499999999999996
 74
0
 49
0.0
 74
0
 49
-6.3499999999999996
 74
0
 49
0.0
 74
0
 49
-6.3499999999999996
 74
0
  0
LTYPE
  5
3B
100
AcDbSymbolTableRecord
100
AcDbLinetypeTableRecord
  2
DIVIDE2
 70
0
  3
Divide (.5x) __..__..__..__..__..__..__..__.._
 72
65
 73
6
 40
15.875
 49
6.3499999999999996
 74
0
 49
-3.1749999999999998
 74
0
 49
0.0
 74
0
 49
-3.1749999999999998
 74
0
 49
0.0
 74
0
 49
-3.1749999999999998
 74
0
  0
LTYPE
  5
3C
100
AcDbSymbolTableRecord
100
AcDbLinetypeTableRecord
  2
DIVIDEX2
 70
0
  3
Divide (2x) ________  .  .  ________  .  .  _
 72
65
 73
6
 40
63.5
 49
25.399999999999999
 74
0
 49
-12.699999999999999
 74
0
 49
0.0
 74
0
 49
-12.699999999999999
 74
0
 49
0.0
 74
0
 49
-12.699999999999999
 74
0
  0
LTYPE
  5
3D
100
AcDbSymbolTableRecord
100
AcDbLinetypeTableRecord
  2
CENTER
 70
0
  3
Center ____ _ ____ _ ____ _ ____ _ ____ _ ____
 72
65
 73
4
 40
50.799999999999997
 49
31.75
 74
0
 49
-6.3499999999999996
 74
0
 49
6.3499999999999996
 74
0
 49
-6.3499999999999996
 74
0
  0
LTYPE
  5
3E
100
AcDbSymbolTableRecord
100
AcDbLinetypeTableRecord
  2
CENTER2
 70
0
  3
Center (.5x) ___ _ ___ _ ___ _ ___ _ ___ _ ___
 72
65
 73
4
 40
28.574999999999999
 49
19.050000000000001
 74
0
 49
-3.1749999999999998
 74
0
 49
3.1749999999999998
 74
0
 49
-3.1749999999999998
 74
0
  0
LTYPE
  5
3F
100
AcDbSymbolTableRecord
100
AcDbLinetypeTableRecord
  2
CENTERX2
 70
0
  3
Center (2x) ________  __  ________  __  _____
 72
65
 73
4
 40
101.59999999999999
 49
63.5
 74
0
 49
-12.699999999999999
 74
0
 49
12.699999999999999
 74
0
 49
-12.699999999999999
 74
0
  0
LTYPE
  5
40
100
AcDbSymbolTableRecord
100
AcDbLinetypeTableRecord
  2
BORDER
 70
0
  3
Border __ __ . __ __ . __ __ . __ __ . __ __ .
 72
65
 73
6
 40
44.450000000000003
 49
12.699999999999999
 74
0
 49
-6.3499999999999996
 74
0
 49
12.699999999999999
 74
0
 49
-6.3499999999999996
 74
0
 49
0.0
 74
0
 49
-6.3499999999999996
 74
0
  0
LTYPE
  5
41
100
AcDbSymbolTableRecord
100
AcDbLinetypeTableRecord
  2
BORDER2
 70
0
  3
Border (.5x) __.__.__.__.__.__.__.__.__.__.__.
 72
65
 73
6
 40
22.225000000000001
 49
6.3499999999999996
 74
0
 49
-3.1749999999999998
 74
0
 49
6.3499999999999996
 74
0
 49
-3.1749999999999998
 74
0
 49
0.0
 74
0
 49
-3.1749999999999998
 74
0
  0
LTYPE
  5
42
100
AcDbSymbolTableRecord
100
AcDbLinetypeTableRecord
  2
BORDERX2
 70
0
  3
Border (2x) ____  ____  .  ____  ____  .  ___
 72
65
 73
6
 40
88.900000000000006
 49
25.399999999999999
 74
0
 49
-12.699999999999999
 74
0
 49
25.399999999999999
 74
0
 49
-12.699999999999999
 74
0
 49
0.0
 74
0
 49
-12.699999999999999
 74
0
  0
ENDTAB
  0
TABLE
  2
LAYER
  5
2
100
AcDbSymbolTable
 70
2
  0
LAYER
  5
10
100
AcDbSymbolTableRecord
100
AcDbLayerTableRecord
  2
0
 70
0
 62
7
  6
CONTINUOUS
390
F
  0
LAYER
  5
43
100
AcDbSymbolTableRecord
100
AcDbLayerTableRecord
  2
LAYER_1
 70
0
 62
7
  6
CONTINUOUS
370
-3
390
F
  0
ENDTAB
  0
TABLE
  2
STYLE
  5
3
100
AcDbSymbolTable
 70
1
  0
STYLE
  5
11
100
AcDbSymbolTableRecord
100
AcDbTextStyleTableRecord
  2
Standard
 70
0
 40
0.0
 41
0.75
 50
0.0
 71
0
 42
2.5
  3
txt
  4

  0
ENDTAB
  0
TABLE
  2
VIEW
  5
6
100
AcDbSymbolTable
 70
0
  0
ENDTAB
  0
TABLE
  2
UCS
  5
7
100
AcDbSymbolTable
 70
0
  0
ENDTAB
  0
TABLE
  2
APPID
  5
9
100
AcDbSymbolTable
 70
1
  0
APPID
  5
12
100
AcDbSymbolTableRecord
100
AcDbRegAppTableRecord
  2
ACAD
 70
0
  0
ENDTAB
  0
TABLE
  2
DIMSTYLE
  5
A
100
AcDbSymbolTable
 70
1
100
AcDbDimStyleTable
 71
0
  0
DIMSTYLE
105
27
100
AcDbSymbolTableRecord
100
AcDbDimStyleTableRecord
  2
Standard
 41
0.18
 42
0.0625
 43
3.75
 44
0.18
 70
0
 73
0
 74
0
 77
1
 78
8
140
0.18
141
2.5
143
0.03937007874016
147
0.09
171
3
172
1
271
2
272
2
274
3
278
44
283
0
284
8
340
11
  0
ENDTAB
  0
TABLE
  2
BLOCK_RECORD
  5
1
100
AcDbSymbolTable
 70
1
  0
BLOCK_RECORD
  5
1F
100
AcDbSymbolTableRecord
100
AcDbBlockTableRecord
  2
*Model_Space
340
22
  0
BLOCK_RECORD
  5
1B
100
AcDbSymbolTableRecord
100
AcDbBlockTableRecord
  2
*Paper_Space
340
1E
  0
BLOCK_RECORD
  5
23
100
AcDbSymbolTableRecord
100
AcDbBlockTableRecord
  2
*Paper_Space0
340
26
  0
ENDTAB
  0
ENDSEC
  0
SECTION
  2
BLOCKS
  0
BLOCK
  5
20
100
AcDbEntity
  8
0
100
AcDbBlockBegin
  2
*Model_Space
 70
0
 10
0.0
 20
0.0
 30
0.0
  3
*Model_Space
  1

  0
ENDBLK
  5
21
100
AcDbEntity
  8
0
100
AcDbBlockEnd
  0
BLOCK
  5
1C
100
AcDbEntity
 67
1
  8
0
100
AcDbBlockBegin
  2
*Paper_Space
 70
0
 10
0.0
 20
0.0
 30
0.0
  3
*Paper_Space
  1

  0
ENDBLK
  5
1D
100
AcDbEntity
 67
1
  8
0
100
AcDbBlockEnd
  0
BLOCK
  5
24
100
AcDbEntity
  8
0
100
AcDbBlockBegin
  2
*Paper_Space0
 70
0
 10
0.0
 20
0.0
 30
0.0
  3
*Paper_Space0
  1

  0
ENDBLK
  5
25
100
AcDbEntity
  8
0
100
AcDbBlockEnd
  0
ENDSEC
  0
SECTION
  2
ENTITIES
  0
LWPOLYLINE
  5
44
  8
LAYER_1
 62
256
370
-1
  6
ByLayer
100
AcDbEntity
100
AcDbPolyline
 90
95
 70
1
 10
27.45827444992587
 20
4.348826002637086
 10
27.45401817008878
 20
4.5374725947413541
 10
27.441352800911289
 20
4.720853390847056
 10
27.420433547894088
 20
4.8988449772031766
 10
27.391415616537859
 20
5.0713239400587042
 10
27.354454212343288
 20
5.2381668656626248
 10
27.309704540811051
 20
5.3992503402639258
 10
27.25732180744183
 20
5.5544509501115922
 10
27.197461217736318
 20
5.7036452814546124
 10
27.130277977195188
 20
5.8467099205419721
 10
27.055927291319129
 20
5.9835214536226591
 10
26.974564365608821
 20
6.113956466945659
 10
26.886344405564952
 20
6.2378915467599576
 10
26.791422616688191
 20
6.3552032793145452
 10
26.689954204479239
 20
6.4657682508584049
 10
26.582094374438771
 20
6.5694630476405251
 10
26.467998332067459
 20
6.6661642559098926
 10
26.347821282866001
 20
6.7557484619154931
 10
26.221718432335081
 20
6.8380922519063141
 10
26.089844985975368
 20
6.9130722121313406
 10
25.95235614928756
 20
6.9805649288395628
 10
25.809407127772332
 20
7.0404469882799647
 10
25.661153126930369
 20
7.0925949767015339
 10
25.507749352262351
 20
7.1368854803532562
 10
25.349351009268961
 20
7.1731950854841191
 10
25.186113303450881
 20
7.2014003783431093
 10
25.018191440308801
 20
7.2213779451792126
 10
24.845740625343399
 20
7.2330043722414183
 10
24.66891606405536
 20
7.2361562457787096
 10
24.487872961945371
 20
7.2307101520400749
 10
24.302766524514102
 20
7.2165426772745009
 10
24.113751957262242
 20
7.1935304077309743
 10
23.920984465690481
 20
7.1615499296584817
 10
23.712855385844978
 20
7.1134257112808408
 10
23.514363509512979
 20
7.0494949083518783
 10
23.325678593585248
 20
6.9706044681319481
 10
23.146970394952611
 20
6.8776013378814067
 10
22.978408670505829
 20
6.7713324648606088
 10
22.820163177135719
 20
6.6526447963299109
 10
22.672403671733068
 20
6.5223852795496677
 10
22.53529991118868
 20
6.3814008617802349
 10
22.409021652393331
 20
6.2305384902819689
 10
22.293738652237831
 20
6.0706451123152227
 10
22.189620667612989
 20
5.9025676751403537
 10
22.09683745540956
 20
5.7271531260177166
 10
22.015558772518379
 20
5.545248412207668
 10
21.945954375830219
 20
5.3577004809705624
 10
21.888194022235879
 20
5.1653562795667547
 10
21.842447468626151
 20
4.9690627552566031
 10
21.80888447189184
 20
4.7696668553004606
 10
21.787674788923741
 20
4.568015526958682
 10
21.778988176612629
 20
4.3649557174916254
 10
21.782994391849321
 20
4.1613343741596438
 10
21.799863191524611
 20
3.9579984442230942
 10
21.82976433252928
 20
3.7557948749423309
 10
21.872867571754131
 20
3.5555706135777099
 10
21.929342666089951
 20
3.3581726073895881
 10
21.999359372427548
 20
3.164447803638319
 10
22.083087447657711
 20
2.9752431495842599
 10
22.18069664867123
 20
2.7914055924877639
 10
22.292356732358911
 20
2.6137820796091891
 10
22.418237455611539
 20
2.4432195582088889
 10
22.558508575319919
 20
2.280564975547219
 10
22.71333984837484
 20
2.1266652788845368
 10
22.882901031667089
 20
1.9823674154811961
 10
23.059777758646931
 20
1.8578776697321
 10
23.252943295088301
 20
1.749786576879087
 10
23.462182775634719
 20
1.6581557745534661
 10
23.68728133492975
 20
1.5830469003865411
 10
23.92802410761691
 20
1.524521592009622
 10
24.184196228339719
 20
1.482641487054013
 10
24.45558283174174
 20
1.457468223151023
 10
24.741969052466501
 20
1.449063437931958
 10
25.080968673895651
 20
1.4564039747001281
 10
25.37035210161952
 20
1.4815678771893159
 10
25.499930767898391
 20
1.5023065400408611
 10
25.62129701581863
 20
1.5292685836765429
 10
25.735848055402819
 20
1.5630431878809881
 10
25.8449810966735
 20
1.6042195324388251
 10
25.95009334965324
 20
1.6533867971346801
 10
26.052582024364629
 20
1.711134161753181
 10
26.1538443308302
 20
1.7780508060789559
 10
26.255277479072529
 20
1.854725909896632
 10
26.464245140977731
 20
2.0397082151461938
 10
26.690662690260751
 20
2.270794515778888
 10
26.90278625702889
 20
2.5099713048539321
 10
27.073828515990929
 20
2.7336699032722489
 10
27.145176855067479
 20
2.8430519708994542
 10
27.207734107219899
 20
2.9525689987596619
 10
27.26199335245731
 20
3.0635558228185999
 10
27.308447670788869
 20
3.1773472790419981
 10
27.34759014222368
 20
3.2952782033955819
 10
27.37991384677089
 20
3.4186834318450821
 10
27.426077275239031
 20
3.6872561448947421
 10
27.450882596266329
 20
3.9937441059168011
  0
LWPOLYLINE
  5
45
  8
LAYER_1
 62
256
370
-1
  6
ByLayer
100
AcDbEntity
100
AcDbPolyline
 90
379
 70
1
 10
12.6416077832592
 20
-18.88768695714538
 10
13.073675400997789
 20
-18.888518391692308
 10
13.544118988784071
 20
-18.87295706920138
 10
14.04750442220514
 20
-18.841924778269941
 10
14.57839757684811
 20
-18.796343307495359
 10
15.131364328300091
 20
-18.737134445474979
 10
15.700970552148179
 20
-18.665219980806171
 10
16.2817821239795
 20
-18.581521702086281
 10
16.86836491938115
 20
-18.486961397912658
 10
17.455284813940239
 20
-18.38246085688267
 10
18.03710768324386
 20
-18.268941867593671
 10
18.60839940287914
 20
-18.147326218643009
 10
19.16372584843317
 20
-18.01853569862805
 10
19.697652895493061
 20
-17.883492096146139
 10
20.204746419645939
 20
-17.74311719979465
 10
20.679572296478881
 20
-17.598332798170912
 10
21.116696401579009
 20
-17.450060679872301
 10
22.113289514233841
 20
-17.078521964424159
 10
23.091147878391109
 20
-16.68692363545561
 10
24.051606612634838
 20
-16.274451620765021
 10
24.99600083554904
 20
-15.84029184815075
 10
25.925665665717741
 20
-15.38363024541118
 10
26.841936221724939
 20
-14.90365274034469
 10
27.74614762215467
 20
-14.399545260749649
 10
28.639634985590941
 20
-13.87049373442443
 10
29.523733430617781
 20
-13.315684089167419
 10
30.399778075819189
 20
-12.73430225277697
 10
31.26910403977919
 20
-12.125534153051481
 10
32.133046441081802
 20
-11.48856571778931
 10
32.992940398311028
 20
-10.822582874788839
 10
33.850121030050907
 20
-10.126771551848449
 10
34.705923454885458
 20
-9.4003176767664929
 10
35.561682791398681
 20
-8.6424071773413615
 10
38.505716132871513
 20
-5.9812730643991934
 10
38.662031139200522
 20
-5.5739226875814047
 10
38.685931575521849
 20
-5.4736415338835576
 10
38.682105842697133
 20
-5.3707101043437957
 10
38.650952974727161
 20
-5.2657261064382856
 10
38.59287200561279
 20
-5.159287247643193
 10
38.508261969354827
 20
-5.0519912354346834
 10
38.397521899954107
 20
-4.9444357772889198
 10
38.261050831411453
 20
-4.8372185806820713
 10
38.099247797727699
 20
-4.7309373530903009
 10
37.472964961666491
 20
-4.3448713760756323
 10
36.895319257729113
 20
-3.9746360953322371
 10
36.365174845750673
 20
-3.6190703420547958
 10
35.881395885566263
 20
-3.277012947437989
 10
35.442846537010958
 20
-2.9473027426764959
 10
35.048390959919843
 20
-2.6287785589649988
 10
34.696893314128019
 20
-2.3202792274981769
 10
34.387217759470573
 20
-2.020643579470712
 10
34.118228455782592
 20
-1.728710446077282
 10
33.888789562899163
 20
-1.443318658512569
 10
33.697765240655372
 20
-1.1633070479712539
 10
33.616303593471812
 20
-1.024955943832708
 10
33.544019648886319
 20
-0.8875144456480163
 10
33.480771426878277
 20
-0.7508374073165142
 10
33.426416947427093
 20
-0.6147796827375365
 10
33.380814230512122
 20
-0.4791961258104185
 10
33.343821296112758
 20
-0.3439415904344951
 10
33.315296164208412
 20
-0.2088709305091015
 10
33.295096854778443
 20
-0.0738389999335726
 10
33.283081387802227
 20
0.0612993473927565
 10
33.279107783259192
 20
0.1966892575705508
 10
33.284294894563018
 20
0.3029837095879302
 10
33.300343753828741
 20
0.4114287821363394
 10
33.327985649087687
 20
0.5230576783907202
 10
33.367951868371208
 20
0.6389036015260146
 10
33.420973699710629
 20
0.7599997547171649
 10
33.48778243113729
 20
0.8873793411391129
 10
33.569109350682538
 20
1.0220755639668
 10
33.665685746377697
 20
1.16512162637517
 10
33.907512118343149
 20
1.4803960826337219
 10
34.219111851284353
 20
1.841468335314306
 10
34.606335249452023
 20
2.2566040098164581
 10
35.075032617096838
 20
2.7340687315397139
 10
36.870957450934483
 20
4.5299935653773602
 10
37.720865950430181
 20
4.9061996364825973
 10
37.891594640221463
 20
4.9864799862867173
 10
38.050869484999993
 20
5.0704765409784009
 10
38.195204531935829
 20
5.1557000649729918
 10
38.32111382819901
 20
5.2396613226858388
 10
38.425111420959567
 20
5.3198710785322874
 10
38.50371135738753
 20
5.3938400969276827
 10
38.553427684652959
 20
5.4590791422873739
 10
38.570774449925857
 20
5.5130989790267044
 10
38.56517755026465
 20
5.5646324481000171
 10
38.548623676080368
 20
5.6264970128552783
 10
38.48406595293887
 20
5.7795049805644823
 10
38.379943178093903
 20
5.9686939844600033
 10
38.239097249137949
 20
6.190635126847531
 10
38.064370063663553
 20
6.4418995100327514
 10
37.858603519263177
 20
6.7190582363213558
 10
37.624639513529402
 20
7.0186824080190302
 10
37.36531994405469
 20
7.3373431274314633
 10
36.78198170425253
 20
8.0180586186233604
 10
36.131323980596832
 20
8.7337735283425495
 10
35.43608195382766
 20
9.4570566750345399
 10
35.078846570756809
 20
9.8129640930095547
 10
34.71899080468512
 20
10.160476877144831
 10
34.252710854769752
 20
10.59290522898333
 10
33.770600102165247
 20
11.019445748656169
 10
33.272964953985017
 20
11.43989507489886
 10
32.760111817342491
 20
11.85404984644695
 10
32.232347099351053
 20
12.261706702035941
 10
31.689977207124109
 20
12.66266228040138
 10
31.133308547775069
 20
13.056713220278789
 10
30.562647528417351
 20
13.4436561604037
 10
29.978300556164349
 20
13.823287739511629
 10
29.380574038129481
 20
14.195404596338109
 10
28.769774381426149
 20
14.559803369618679
 10
28.14620799316776
 20
14.916280698088849
 10
27.51018128046773
 20
15.26463322048415
 10
26.862000650439459
 20
15.60465757554012
 10
26.201972510196349
 20
15.936150401992281
 10
25.53040326685182
 20
16.258908338576148
 10
24.817479188512319
 20
16.586558878657161
 10
24.13294976038334
 20
16.884944090197859
 10
23.47074161763717
 20
17.155377864544612
 10
22.824781395446092
 20
17.399174093043829
 10
22.188995728982359
 20
17.617646667041889
 10
21.55731125341828
 20
17.81210947788518
 10
20.923654603926121
 20
17.983876416920101
 10
20.281952415678159
 20
18.13426137549304
 10
19.626131323846671
 20
18.264578244950378
 10
18.95011796360393
 20
18.376140916638519
 10
18.247838970122231
 20
18.470263281903851
 10
17.513220978573841
 20
18.54825923209275
 10
16.740190624131039
 20
18.611442658551621
 10
15.92267454196611
 20
18.66112745262685
 10
15.054599367251329
 20
18.698627505664831
 10
14.129891735158971
 20
18.725256709011941
 10
9.9296340203920614
 20
18.820392097364099
 10
8.970516735158963
 20
18.61226071595129
 10
7.8268120274630908
 20
18.379196231816739
 10
6.4238994499258659
 20
18.111119305562291
 10
5.8753678864466803
 20
18.00174643809174
 10
5.3034132446790796
 20
17.872643731074501
 10
4.7155072283944737
 20
17.726466260032119
 10
4.1191215413642723
 20
17.565869100486111
 10
3.5217278873598841
 20
17.393507327958002
 10
2.930797970152716
 20
17.212036017969329
 10
2.3538034935141798
 20
17.024110246041609
 10
1.798216161215684
 20
16.83238508769638
 10
1.271507677028636
 20
16.63951561845515
 10
0.7811497447244455
 20
16.448156913839458
 10
0.334614068074522
 20
16.260964049370841
 10
-0.0606276491497258
 20
16.080592100570801
 10
-0.397103703176889
 20
15.909696142960881
 10
-0.6673423902355584
 20
15.7509312520626
 10
-0.7752878137231427
 20
15.67692766773081
 10
-0.8638720065543254
 20
15.606952503397491
 10
-0.93216100575768
 20
15.54133764350285
 10
-0.9792208483617806
 20
15.480414972487081
 10
-1.028269652302932
 20
15.425571374839301
 10
-1.103321540988434
 20
15.37440712404393
 10
-1.200639218850976
 20
15.328042021316911
 10
-1.3164853903232461
 20
15.287595867874179
 10
-1.4471227598379319
 20
15.25418846493171
 10
-1.588814031827722
 20
15.228939613705441
 10
-1.7378219107253059
 20
15.21296911541131
 10
-1.890409100963371
 20
15.20739677126528
 10
-2.0534036506718198
 20
15.19650137048882
 10
-2.2322393205873841
 20
15.16527483907686
 10
-2.4210873840530112
 20
15.11590668340552
 10
-2.6141191144116491
 20
15.05058640985094
 10
-2.8055057850062441
 20
14.971503524789251
 10
-2.989418669179746
 20
14.88084753459658
 10
-3.1600290402751008
 20
14.78080794564907
 10
-3.311508171635257
 20
14.67357426432284
 10
-3.4684618809345942
 20
14.55681444353888
 10
-3.6547625495685669
 20
14.42947266542784
 10
-4.0876892405386096
 20
14.159458637986891
 10
-4.5548571959417554
 20
13.896362983524821
 10
-5.0008353671743784
 20
13.673016503566449
 10
-5.2893883350803801
 20
13.529123104175399
 10
-5.6501499736475136
 20
13.331769422298651
 10
-6.0741472372173861
 20
13.086844890188811
 10
-6.5524070801316041
 20
12.800238940098479
 10
-7.6358223213595071
 20
12.12554051498673
 10
-8.8286113320640798
 20
11.354789604984219
 10
-10.058989746978179
 20
10.53510166811175
 10
-11.255173200834671
 20
9.7135921623901247
 10
-12.3453773283664
 20
8.9373765458401593
 10
-12.828304530614499
 20
8.5809775266360528
 10
-13.257817764306241
 20
8.2535702764826624
 10
-13.609794471105349
 20
7.9895345053825197
 10
-13.96228538600414
 20
7.7432123640401871
 10
-14.305850477060931
 20
7.5199949571645659
 10
-14.631049712334031
 20
7.3252733894645568
 10
-14.928443059881751
 20
7.1644387656490576
 10
-15.188590487762401
 20
7.0428821904269681
 10
-15.4020519640343
 20
6.965994768507187
 10
-15.48832546033519
 20
6.9459867102571948
 10
-15.55938745675576
 20
6.9391676045986168
 10
-15.729853864942051
 20
6.9534046874618909
 10
-15.926204009152579
 20
6.9951380524105211
 10
-16.146012060053021
 20
7.0629008739827164
 10
-16.386852188308989
 20
7.1552263267166829
 10
-16.64629856458615
 20
7.2706475851506269
 10
-16.921925359550141
 20
7.4076978238227582
 10
-17.211306743866611
 20
7.564910217271283
 10
-17.512016888201199
 20
7.7408179400344066
 10
-17.821629963219539
 20
7.9339541666503406
 10
-18.137720139587291
 20
8.1428520716572894
 10
-18.4578615879701
 20
8.3660448295934593
 10
-18.779628479033601
 20
8.6020656149970609
 10
-19.10059498344345
 20
8.8494476024062987
 10
-19.418335271865271
 20
9.1067239663593806
 10
-19.73042351496473
 20
9.3724278813945148
 10
-20.034433883407459
 20
9.6450925220499073
 10
-20.683799931584549
 20
10.23234072001005
 10
-21.473932581324132
 20
10.930182632126581
 10
-22.304992965438711
 20
11.651237517222199
 10
-23.077142216740789
 20
12.30812463411964
 10
-25.146561859597931
 20
14.08291760459862
 10
-25.29669590221275
 20
14.211333538843411
 10
-25.447020287824181
 20
14.316495078556949
 10
-25.580083023618378
 20
14.38755017295799
 10
-25.634687525079691
 20
14.406896537297181
 10
-25.678432116781519
 20
14.413646771265279
 10
-25.730121621269959
 20
14.42763054731371
 10
-25.80749647086137
 20
14.467708450916639
 10
-26.024189867567411
 20
14.614906093531729
 10
-26.29828763132836
 20
14.83275860460207
 10
-26.599565086572959
 20
15.098784889619161
 10
-26.759870013670469
 20
15.23905054721028
 10
-26.939248371696831
 20
15.380559397095549
 10
-27.136888963116231
 20
15.52302760010928
 10
-27.351980590392859
 20
15.66617131708581
 10
-27.583712055990869
 20
15.809706708859441
 10
-27.83127216237445
 20
15.953349936264519
 10
-28.37063350735508
 20
16.239824541306259
 10
-28.963575045048181
 20
16.52332441888559
 10
-29.603607195167189
 20
16.801578855677089
 10
-30.284240377425569
 20
17.072317138355348
 10
-30.99898501153676
 20
17.33326855359493
 10
-31.741351517214198
 20
17.582162388070401
 10
-32.504850314171343
 20
17.816727928456341
 10
-33.282991822121623
 20
18.034694461427321
 10
-34.0692864607785
 20
18.233791273657928
 10
-34.857244649855417
 20
18.411747651822729
 10
-35.640376809065799
 20
18.56629288259629
 10
-36.412193358123098
 20
18.695156252653199
 10
-37.166204716740793
 20
18.796067048668029
 10
-37.654843442806389
 20
18.85072274322458
 10
-38.025861179233438
 20
18.883238375029361
 10
-38.295429927236611
 20
18.888815935785338
 10
-38.397224680958821
 20
18.880003561927222
 10
-38.479721688030551
 20
18.862657417195521
 10
-38.544942448603649
 20
18.836177750553119
 10
-38.594908462829942
 20
18.799964810962891
 10
-38.631641230861263
 20
18.75341884738771
 10
-38.657162252849453
 20
18.695940108790449
 10
-38.673493028946318
 20
18.626928844133971
 10
-38.682655059303727
 20
18.545785302381169
 10
-38.687558883407448
 20
18.344702383438062
 10
-38.687558883407462
 20
17.716868992828971
 10
-29.294850550074131
 20
8.6008117627272647
 10
-28.333483482176259
 20
7.2077501003296094
 10
-28.0887421342774
 20
6.8460429156945377
 10
-27.863397853219482
 20
6.4979267368321683
 10
-27.656958781067608
 20
6.1621143593209551
 10
-27.468933059886869
 20
5.837318578739354
 10
-27.298828831742352
 20
5.52225219066582
 10
-27.146154238699161
 20
5.2156279906788079
 10
-27.010417422822389
 20
4.916158774356771
 10
-26.891126526177121
 20
4.622557337278165
 10
-26.787789690828461
 20
4.3335364750214449
 10
-26.699915058841501
 20
4.0478089831650657
 10
-26.627010772281341
 20
3.7640876572874808
 10
-26.56858497321306
 20
3.4810852929671472
 10
-26.52414580370176
 20
3.1975146857825179
 10
-26.493201405812531
 20
2.9120886313120482
 10
-26.47525992161048
 20
2.6235199251341932
 10
-26.469829493160681
 20
2.3305213628274069
 10
-26.480285629199422
 20
1.9348778528959529
 10
-26.510988920554421
 20
1.5536380704138191
 10
-26.56365113015687
 20
1.1837687441853371
 10
-26.639984020937948
 20
0.8222366030148424
 10
-26.74169935582886
 20
0.4660083757066686
 10
-26.8705088977608
 20
0.1120507910651497
 10
-27.028124409664951
 20
-0.2426694221053802
 10
-27.2162576544725
 20
-0.6011855350005871
 10
-27.436620395114641
 20
-0.966530818816137
 10
-27.690924394522568
 20
-1.3417385447476959
 10
-27.980881415627469
 20
-1.72984198399093
 10
-28.30820322136055
 20
-2.1338744077415051
 10
-28.674601574652971
 20
-2.556869087195087
 10
-29.081788238435959
 20
-3.001859293547342
 10
-29.531474975640691
 20
-3.471878297993936
 10
-30.025373549198349
 20
-3.969959371730535
 10
-32.469850550074128
 20
-6.3981017814351686
 10
-33.925058883407459
 20
-7.5272935104713063
 10
-34.620571985620998
 20
-8.0810379310882521
 10
-35.438558232365793
 20
-8.7540224677268554
 10
-36.277008346298082
 20
-9.4612487972509953
 10
-37.033913050074119
 20
-10.117718596524551
 10
-38.687558883407448
 20
-11.57895195354166
 10
-38.687558883407448
 20
-12.07640259113818
 10
-38.683393653792798
 20
-12.14042368454486
 10
-38.670847910404703
 20
-12.20001208275432
 10
-38.649846571426892
 20
-12.255165161559869
 10
-38.620314555043137
 20
-12.305880296754861
 10
-38.582176779437212
 20
-12.35215486413259
 10
-38.535358162792853
 20
-12.3939862394864
 10
-38.479783623293798
 20
-12.431371798609611
 10
-38.415378079123833
 20
-12.464308917295551
 10
-38.259773649506158
 20
-12.51682733652892
 10
-38.067944219409881
 20
-12.55152050353308
 10
-37.839289134305027
 20
-12.568367424654671
 10
-37.573207739661648
 20
-12.567347106240261
 10
-37.269099380949811
 20
-12.548438554636469
 10
-36.926363403639542
 20
-12.51162077618989
 10
-36.544399153200899
 20
-12.456872777247129
 10
-36.122605975103923
 20
-12.3841735641548
 10
-35.660383214818673
 20
-12.293502143259481
 10
-35.157130217815173
 20
-12.184837520907781
 10
-34.61224632956349
 20
-12.05815870344631
 10
-34.025130895533657
 20
-11.91344469722166
 10
-33.141934309750447
 20
-11.681877692681621
 10
-32.29447511285835
 20
-11.44201560436508
 10
-31.479259091335109
 20
-11.19218972784001
 10
-30.692792031658499
 20
-10.930731358674381
 10
-29.931579720306299
 20
-10.65597179243613
 10
-29.19212794375628
 20
-10.36624232469325
 10
-28.47094248848618
 20
-10.059874251013699
 10
-27.76452914097381
 20
-9.7351988669654261
 10
-27.069393687696909
 20
-9.3905474681164094
 10
-26.382041915133239
 20
-9.0242513500346071
 10
-25.698979609760599
 20
-8.6346418082879861
 10
-25.016712558056732
 20
-8.2200501384445097
 10
-24.331746546499399
 20
-7.7788076360721412
 10
-23.6405873615664
 20
-7.3092455967388439
 10
-22.93974078973547
 20
-6.8096953160125828
 10
-22.225712617484401
 20
-6.2784880894613231
 10
-18.54799572388405
 20
-3.631717500680157
 10
-18.342773559016351
 20
-3.5146323632395529
 10
-18.12633087628819
 20
-3.405402232588838
 10
-17.905191657306901
 20
-3.3064177629684148
 10
-17.68587988367981
 20
-3.220069608618684
 10
-17.474919537014241
 20
-3.148748423780046
 10
-17.27883459891752
 20
-3.094844862692903
 10
-17.10414905099697
 20
-3.060749579597656
 10
-16.957386874859921
 20
-3.048853228734707
 10
-16.324049518692529
 20
-3.048853228734707
 10
-9.9802672167407955
 20
-9.4522216063582398
 10
-8.1281838834074627
 20
-10.97576813194677
 10
-7.5385767082878168
 20
-11.45203147794291
 10
-6.9460271778469362
 20
-11.913179411847739
 10
-6.3504459868784684
 20
-12.35924595304645
 10
-5.7517438301760624
 20
-12.790265120924261
 10
-5.1498314025333638
 20
-13.206270934866369
 10
-4.5446193987440218
 20
-13.607297414257991
 10
-3.9360185136016859
 20
-13.993378578484309
 10
-3.3239394419000039
 20
-14.36454844693055
 10
-2.7082928784326228
 20
-14.7208410389819
 10
-2.0889895179931921
 20
-15.062290374023579
 10
-1.4659400553753581
 20
-15.388930471440769
 10
-0.8390551853727705
 20
-15.7007953506187
 10
-0.2082456027790769
 20
-15.997919030942571
 10
0.4265779976120743
 20
-16.280335531797569
 10
1.0655049210070351
 20
-16.548078872568919
 10
1.708624472612158
 20
-16.801183072641809
 10
2.356025957633793
 20
-17.03968215140145
 10
3.007798681278294
 20
-17.263610128233051
 10
3.664031948752013
 20
-17.47300102252181
 10
4.3248150652613004
 20
-17.66788885365294
 10
4.9902373360125081
 20
-17.84830764101164
 10
5.6603880662119881
 20
-18.014291403983108
 10
6.335356561066094
 20
-18.165874161952559
 10
7.0152321257811749
 20
-18.303089934305191
 10
7.7001040655635844
 20
-18.425972740426211
 10
8.3900616856196741
 20
-18.534556599700831
 10
9.0851942911557959
 20
-18.62887553151424
 10
9.7855911873783015
 20
-18.70896355525165
 10
10.491341679493541
 20
-18.774854690298259
 10
11.202535072707869
 20
-18.826582956039289
 10
11.91926067222764
 20
-18.864182371859929
  0
ENDSEC
  0
SECTION
  2
OBJECTS
  0
DICTIONARY
  5
C
100
AcDbDictionary
280
0
281
1
  3
ACAD_GROUP
350
D
  3
ACAD_LAYOUT
350
1A
  3
ACAD_MLINESTYLE
350
17
  3
ACAD_PLOTSETTINGS
350
19
  3
ACAD_PLOTSTYLENAME
350
E
  3
AcDbVariableDictionary
350
46
  0
DICTIONARY
  5
D
100
AcDbDictionary
280
0
281
1
  0
ACDBDICTIONARYWDFLT
  5
E
100
AcDbDictionary
281
1
  3
Normal
350
F
100
AcDbDictionaryWithDefault
340
F
  0
ACDBPLACEHOLDER
  5
F
  0
DICTIONARY
  5
17
100
AcDbDictionary
280
0
281
1
  3
Standard
350
18
  0
MLINESTYLE
  5
18
100
AcDbMlineStyle
  2
STANDARD
 70
0
  3

 62
256
 51
90.0
 52
90.0
 71
2
 49
0.5
 62
256
  6
BYLAYER
 49
-0.5
 62
256
  6
BYLAYER
  0
DICTIONARY
  5
19
100
AcDbDictionary
280
0
281
1
  0
DICTIONARY
  5
1A
100
AcDbDictionary
281
1
  3
Layout1
350
1E
  3
Layout2
350
26
  3
Model
350
22
  0
LAYOUT
  5
1E
100
AcDbPlotSettings
  1

  2
C:\Program Files\AutoCAD 2002\plotters\DWF ePlot (optimized for plotting).pc3
  4

  6

 40
0.0
 41
0.0
 42
0.0
 43
0.0
 44
0.0
 45
0.0
 46
0.0
 47
0.0
 48
0.0
 49
0.0
140
0.0
141
0.0
142
1.0
143
1.0
 70
688
 72
0
 73
0
 74
5
  7

 75
16
147
1.0
148
0.0
149
0.0
100
AcDbLayout
  1
Layout1
 70
1
 71
1
 10
0.0
 20
0.0
 11
420.0
 21
297.0
 12
0.0
 22
0.0
 32
0.0
 14
100000000000000000000.0
 24
100000000000000000000.0
 34
100000000000000000000.0
 15
-100000000000000000000.0
 25
-100000000000000000000.0
 35
-100000000000000000000.0
146
0.0
 13
0.0
 23
0.0
 33
0.0
 16
1.0
 26
0.0
 36
0.0
 17
0.0
 27
1.0
 37
0.0
 76
0
330
1B
  0
LAYOUT
  5
22
100
AcDbPlotSettings
  1

  2
C:\Program Files\AutoCAD 2002\plotters\DWF ePlot (optimized for plotting).pc3
  4

  6

 40
0.0
 41
0.0
 42
0.0
 43
0.0
 44
0.0
 45
0.0
 46
0.0
 47
0.0
 48
0.0
 49
0.0
140
0.0
141
0.0
142
1.0
143
1.0
 70
1712
 72
0
 73
0
 74
0
  7

 75
0
147
1.0
148
0.0
149
0.0
100
AcDbLayout
  1
Model
 70
1
 71
0
 10
0.0
 20
0.0
 11
12.0
 21
9.0
 12
0.0
 22
0.0
 32
0.0
 14
0.0
 24
0.0
 34
0.0
 15
0.0
 25
0.0
 35
0.0
146
0.0
 13
0.0
 23
0.0
 33
0.0
 16
1.0
 26
0.0
 36
0.0
 17
0.0
 27
1.0
 37
0.0
 76
0
330
1F
  0
LAYOUT
  5
26
100
AcDbPlotSettings
  1

  2
C:\Program Files\AutoCAD 2002\plotters\DWF ePlot (optimized for plotting).pc3
  4

  6

 40
0.0
 41
0.0
 42
0.0
 43
0.0
 44
0.0
 45
0.0
 46
0.0
 47
0.0
 48
0.0
 49
0.0
140
0.0
141
0.0
142
1.0
143
1.0
 70
688
 72
0
 73
0
 74
5
  7

 75
16
147
1.0
148
0.0
149
0.0
100
AcDbLayout
  1
Layout2
 70
1
 71
2
 10
0.0
 20
0.0
 11
12.0
 21
9.0
 12
0.0
 22
0.0
 32
0.0
 14
0.0
 24
0.0
 34
0.0
 15
0.0
 25
0.0
 35
0.0
146
0.0
 13
0.0
 23
0.0
 33
0.0
 16
1.0
 26
0.0
 36
0.0
 17
0.0
 27
1.0
 37
0.0
 76
0
330
23
  0
DICTIONARY
  5
46
100
AcDbDictionary
281
1
  3
DIMASSOC
350
48
  3
HIDETEXT
350
47
  0
DICTIONARYVAR
  5
47
100
DictionaryVariables
280
0
  1
2
  0
DICTIONARYVAR
  5
48
100
DictionaryVariables
280
0
  1
1
  0
ENDSEC
  0
EOF
