  999
file created by SolveSpace
  0
SECTION
  2
HEADER
  9
$ACADVER
  1
AC1006
  9
$ANGDIR
  70
0
  9
$AUNITS
  70
0
  9
$AUPREC
  70
0
  9
$INSBASE
  10
0.0
  20
0.0
  30
0.0
  9
$EXTMIN
  10
0.0
  20
0.0
  9
$EXTMAX
  10
10000.0
  20
10000.0
  0
ENDSEC
  0
SECTION
  2
ENTITIES
  0
ARC
  8
0
  10
0.000000
  20
0.000000
  30
0.000000
  40
6.000000
  50
0.000000
  51
90.000000
  0
ARC
  8
0
  10
0.000000
  20
-0.000000
  30
0.000000
  40
6.000000
  50
90.000000
  51
180.000000
  0
ARC
  8
0
  10
0.000000
  20
0.000000
  30
0.000000
  40
6.000000
  50
180.000000
  51
-90.000000
  0
ARC
  8
0
  10
-0.000000
  20
0.000000
  30
0.000000
  40
6.000000
  50
-90.000000
  51
-0.000000
  0
ARC
  8
0
  10
0.000000
  20
-0.000000
  30
0.000000
  40
4.000000
  50
-90.000000
  51
-0.000000
  0
ARC
  8
0
  10
-0.000000
  20
0.000000
  30
0.000000
  40
4.000000
  50
180.000000
  51
-90.000000
  0
ARC
  8
0
  10
0.000000
  20
-0.000000
  30
0.000000
  40
4.000000
  50
90.000000
  51
180.000000
  0
ARC
  8
0
  10
0.000000
  20
0.000000
  30
0.000000
  40
4.000000
  50
0.000000
  51
90.000000
  0
ARC
  8
0
  10
-0.000000
  20
10.996557
  30
0.000000
  40
5.957668
  50
-5.725919
  51
58.091360
  0
ARC
  8
0
  10
0.000000
  20
10.996557
  30
0.000000
  40
5.957668
  50
58.091360
  51
121.908640
  0
ARC
  8
0
  10
0.000000
  20
10.996557
  30
0.000000
  40
5.957668
  50
121.908640
  51
-174.274081
  0
LINE
  8
0
  10
-5.927943
  20
10.402162
  30
0.000000
  11
-3.468890
  21
4.895590
  31
0.000000
  0
ARC
  8
0
  10
0.000000
  20
-0.000000
  30
0.000000
  40
6.000000
  50
54.679588
  51
125.320412
  0
LINE
  8
0
  10
3.468890
  20
4.895590
  30
0.000000
  11
5.927943
  21
10.402162
  31
0.000000
  0
ARC
  8
0
  10
-0.000000
  20
10.996557
  30
0.000000
  40
5.957668
  50
-5.725919
  51
58.091360
  0
ARC
  8
0
  10
0.000000
  20
10.996557
  30
0.000000
  40
5.957668
  50
58.091360
  51
121.908640
  0
ARC
  8
0
  10
0.000000
  20
10.996557
  30
0.000000
  40
5.957668
  50
121.908640
  51
-174.274081
  0
LINE
  8
0
  10
-5.927943
  20
10.402162
  30
0.000000
  11
-3.468890
  21
4.895590
  31
0.000000
  0
ARC
  8
0
  10
0.000000
  20
-0.000000
  30
0.000000
  40
6.000000
  50
54.679588
  51
125.320412
  0
LINE
  8
0
  10
3.468890
  20
4.895590
  30
0.000000
  11
5.927943
  21
10.402162
  31
0.000000
  0
ARC
  8
0
  10
-10.458348
  20
3.398123
  30
0.000000
  40
5.957668
  50
66.274081
  51
130.091360
  0
ARC
  8
0
  10
-10.458348
  20
3.398123
  30
0.000000
  40
5.957668
  50
130.091360
  51
-166.091360
  0
ARC
  8
0
  10
-10.458348
  20
3.398123
  30
0.000000
  40
5.957668
  50
-166.091360
  51
-102.274081
  0
LINE
  8
0
  10
-11.724879
  20
-2.423364
  30
0.000000
  11
-5.727929
  21
-1.786290
  31
0.000000
  0
ARC
  8
0
  10
0.000000
  20
-0.000000
  30
0.000000
  40
6.000000
  50
126.679588
  51
-162.679588
  0
LINE
  8
0
  10
-3.584037
  20
4.811931
  30
0.000000
  11
-8.061208
  21
8.852253
  31
0.000000
  0
ARC
  8
0
  10
10.458348
  20
3.398123
  30
0.000000
  40
5.957668
  50
-77.725919
  51
-13.908640
  0
ARC
  8
0
  10
10.458348
  20
3.398123
  30
0.000000
  40
5.957668
  50
-13.908640
  51
49.908640
  0
ARC
  8
0
  10
10.458348
  20
3.398123
  30
0.000000
  40
5.957668
  50
49.908640
  51
113.725919
  0
LINE
  8
0
  10
8.061208
  20
8.852253
  30
0.000000
  11
3.584037
  21
4.811931
  31
0.000000
  0
ARC
  8
0
  10
0.000000
  20
0.000000
  30
0.000000
  40
6.000000
  50
-17.320412
  51
53.320412
  0
LINE
  8
0
  10
5.727929
  20
-1.786290
  30
0.000000
  11
11.724879
  21
-2.423364
  31
0.000000
  0
ARC
  8
0
  10
-6.463614
  20
-8.896402
  30
0.000000
  40
5.957668
  50
138.274081
  51
-157.908640
  0
ARC
  8
0
  10
-6.463614
  20
-8.896402
  30
0.000000
  40
5.957668
  50
-157.908640
  51
-94.091360
  0
ARC
  8
0
  10
-6.463614
  20
-8.896402
  30
0.000000
  40
5.957668
  50
-94.091360
  51
-30.274081
  0
LINE
  8
0
  10
-1.318431
  20
-11.899883
  30
0.000000
  11
-0.071165
  21
-5.999578
  31
0.000000
  0
ARC
  8
0
  10
-0.000000
  20
0.000000
  30
0.000000
  40
6.000000
  50
-161.320412
  51
-90.679588
  0
LINE
  8
0
  10
-5.683947
  20
-1.921653
  30
0.000000
  11
-10.910043
  21
-4.931168
  31
0.000000
  0
ARC
  8
0
  10
6.463614
  20
-8.896402
  30
0.000000
  40
5.957668
  50
-149.725919
  51
-85.908640
  0
ARC
  8
0
  10
6.463614
  20
-8.896402
  30
0.000000
  40
5.957668
  50
-85.908640
  51
-22.091360
  0
ARC
  8
0
  10
6.463614
  20
-8.896402
  30
0.000000
  40
5.957668
  50
-22.091360
  51
41.725919
  0
LINE
  8
0
  10
10.910043
  20
-4.931168
  30
0.000000
  11
5.683947
  21
-1.921653
  31
0.000000
  0
ARC
  8
0
  10
0.000000
  20
-0.000000
  30
0.000000
  40
6.000000
  50
-89.320412
  51
-18.679588
  0
LINE
  8
0
  10
0.071165
  20
-5.999578
  30
0.000000
  11
1.318431
  21
-11.899883
  31
0.000000
  0
ENDSEC
  0
EOF
