999
dxflib 2.0.4.8
  0
SECTION
  2
HEADER
  9
$ACADVER
  1
AC1015
  9
$HANDSEED
  5
FFFF
  9
$DIMTAD
 70
0
  9
$USERR4
 40
0.0
  9
$CLAYER
  8
0
  9
$MENU
  1
.
  9
$CHAMFERA
 40
0.5
  9
$ATTREQ
 70
1
  9
$UCSYDIR
 10
0.0
 20
1.0
 30
0.0
  9
$USERR5
 40
0.0
  9
$SHADEDIF
 70
70
  9
$TILEMODE
 70
1
  9
$VISRETAIN
 70
1
  9
$EXTMIN
 10
-35.329523404563382
 20
-41.875798362161511
 30
0.0
  9
$ORTHOMODE
 70
0
  9
$REGENMODE
 70
1
  9
$TRACEWID
 40
0.05
  9
$DIMASZ
 40
0.18
  9
$CHAMFERB
 40
0.5
  9
$UCSXDIR
 10
1.0
 20
0.0
 30
0.0
  9
$DIMSHO
 70
1
  9
$DIMALT
 70
0
  9
$DIMSAH
 70
0
  9
$DIMTFAC
 40
1.0
  9
$DIMGAP
 40
0.09
  9
$SKETCHINC
 40
0.1
  9
$USRTIMER
 70
1
  9
$ANGBASE
 50
0.0
  9
$PUCSYDIR
 10
0.0
 20
1.0
 30
0.0
  9
$LIMMIN
 10
0.0
 20
0.0
  9
$DIMTSZ
 40
0.0
  9
$SPLFRAME
 70
0
  9
$SURFTYPE
 70
6
  9
$PUCSXDIR
 10
1.0
 20
0.0
 30
0.0
  9
$DWGCODEPAGE
  3
ansi_1252
  9
$LUNITS
 70
2
  9
$AUPREC
 70
0
  9
$SPLINESEGS
 70
8
  9
$SURFTAB1
 70
6
  9
$INSBASE
 10
0.0
 20
0.0
 30
0.0
  9
$DIMRND
 40
0.0
  9
$DIMCEN
 40
0.09
  9
$ELEVATION
 40
0.0
  9
$SKPOLY
 70
0
  9
$SURFTAB2
 70
6
  9
$USERI1
 70
0
  9
$UNITMODE
 70
0
  9
$INSUNITS
 70
4
  9
$EXTMAX
 10
31.528271475044718
 20
39.727798149112367
 30
0.0
  9
$FILLMODE
 70
1
  9
$DRAGMODE
 70
2
  9
$TEXTSIZE
 40
0.2
  9
$DIMEXO
 40
0.0625
  9
$PELEVATION
 40
0.0
  9
$UCSORG
 10
0.0
 20
0.0
 30
0.0
  9
$USERI2
 70
0
  9
$DIMSCALE
 40
1.0
  9
$DIMDLE
 40
0.0
  9
$DIMZIN
 70
0
  9
$TDUSRTIMER
 40
0.0000000116
  9
$ANGDIR
 70
0
  9
$SURFU
 70
6
  9
$USERI3
 70
0
  9
$LIMMAX
 10
12.0
 20
9.0
  9
$QTEXTMODE
 70
0
  9
$OSMODE
 70
37
  9
$SURFV
 70
6
  9
$USERI4
 70
0
  9
$WORLDVIEW
 70
1
  9
$ATTMODE
 70
1
  9
$DIMTXT
 40
0.18
  9
$DIMLIM
 70
0
  9
$DIMSE1
 70
0
  9
$THICKNESS
 40
0.0
  9
$LIMCHECK
 70
0
  9
$PDMODE
 70
0
  9
$HANDLING
 70
1
  9
$USERI5
 70
0
  9
$CELTYPE
  6
BYLAYER
  9
$DIMTOH
 70
1
  9
$DIMSE2
 70
0
  9
$DIMLFAC
 40
1.0
  9
$DIMSOXD
 70
0
  9
$LUPREC
 70
4
  9
$TDINDWG
 40
0.0000000116
  9
$SPLINETYPE
 70
6
  9
$PUCSORG
 10
0.0
 20
0.0
 30
0.0
  9
$PEXTMIN
 10
100000000000000000000.0
 20
100000000000000000000.0
 30
100000000000000000000.0
  9
$PEXTMAX
 10
-100000000000000000000.0
 20
-100000000000000000000.0
 30
-100000000000000000000.0
  9
$CECOLOR
 62
256
  9
$DIMDLI
 40
0.38
  9
$DIMTM
 40
0.0
  9
$DIMASO
 70
1
  9
$DIMTVP
 40
0.0
  9
$DIMSTYLE
  2
STANDARD
  9
$PLINEWID
 40
0.0
  9
$PLIMCHECK
 70
0
  9
$LTSCALE
 40
1.0
  9
$DIMTIH
 70
1
  9
$DIMALTD
 70
2
  9
$DIMCLRT
 70
0
  9
$FILLETRAD
 40
0.5
  9
$TDUPDATE
 40
2456264.8865374648
  9
$MAXACTVP
 70
64
  9
$PLIMMIN
 10
0.0
 20
0.0
  9
$PLIMMAX
 10
12.0
 20
9.0
  9
$DIMEXE
 40
0.18
  9
$DIMCLRD
 70
0
  9
$PDSIZE
 40
0.0
  9
$ATTDIA
 70
0
  9
$USERR1
 40
0.0
  9
$TEXTSTYLE
  7
STANDARD
  9
$DIMTP
 40
0.0
  9
$DIMTOL
 70
0
  9
$DIMALTF
 40
25.399999999999999
  9
$DIMTOFL
 70
0
  9
$DIMCLRE
 70
0
  9
$TDCREATE
 40
2454910.5
  9
$COORDS
 70
1
  9
$USERR2
 40
0.0
  9
$SHADEDGE
 70
3
  9
$PLINEGEN
 70
0
  9
$PSLTSCALE
 70
1
  9
$MIRRTEXT
 70
1
  9
$DIMTIX
 70
0
  9
$AUNITS
 70
0
  9
$USERR3
 40
0.0
  0
ENDSEC
  0
SECTION
  2
TABLES
  0
TABLE
  2
VPORT
  5
8
100
AcDbSymbolTable
 70
1
  0
VPORT
  5
30
100
AcDbSymbolTableRecord
100
AcDbViewportTableRecord
  2
*Active
 70
0
 10
0.0
 20
0.0
 11
1.0
 21
1.0
 12
286.30555555555549
 22
148.5
 13
0.0
 23
0.0
 14
10.0
 24
10.0
 15
10.0
 25
10.0
 16
0.0
 26
0.0
 36
1.0
 17
0.0
 27
0.0
 37
0.0
 40
297.0
 41
1.92798353909465
 42
50.0
 43
0.0
 44
0.0
 50
0.0
 51
0.0
 71
0
 72
100
 73
1
 74
3
 75
1
 76
1
 77
0
 78
0
281
0
 65
1
110
0.0
120
0.0
130
0.0
111
1.0
121
0.0
131
0.0
112
0.0
122
1.0
132
0.0
 79
0
146
0.0
  0
ENDTAB
  0
TABLE
  2
LTYPE
  5
5
100
AcDbSymbolTable
 70
21
  0
LTYPE
  5
14
100
AcDbSymbolTableRecord
100
AcDbLinetypeTableRecord
  2
ByBlock
 70
0
  3

 72
65
 73
0
 40
0.0
  0
LTYPE
  5
15
100
AcDbSymbolTableRecord
100
AcDbLinetypeTableRecord
  2
ByLayer
 70
0
  3

 72
65
 73
0
 40
0.0
  0
LTYPE
  5
16
100
AcDbSymbolTableRecord
100
AcDbLinetypeTableRecord
  2
CONTINUOUS
 70
0
  3
Solid line
 72
65
 73
0
 40
0.0
  0
LTYPE
  5
31
100
AcDbSymbolTableRecord
100
AcDbLinetypeTableRecord
  2
DOT
 70
0
  3
Dot . . . . . . . . . . . . . . . . . . . . . .
 72
65
 73
2
 40
6.3499999999999996
 49
0.0
 74
0
 49
-6.3499999999999996
 74
0
  0
LTYPE
  5
32
100
AcDbSymbolTableRecord
100
AcDbLinetypeTableRecord
  2
DOT2
 70
0
  3
Dot (.5x) .....................................
 72
65
 73
2
 40
3.1749999999999998
 49
0.0
 74
0
 49
-3.1749999999999998
 74
0
  0
LTYPE
  5
33
100
AcDbSymbolTableRecord
100
AcDbLinetypeTableRecord
  2
DOTX2
 70
0
  3
Dot (2x) .  .  .  .  .  .  .  .  .  .  .  .  .
 72
65
 73
2
 40
12.699999999999999
 49
0.0
 74
0
 49
-12.699999999999999
 74
0
  0
LTYPE
  5
34
100
AcDbSymbolTableRecord
100
AcDbLinetypeTableRecord
  2
DASHED
 70
0
  3
Dashed __ __ __ __ __ __ __ __ __ __ __ __ __ _
 72
65
 73
2
 40
19.050000000000001
 49
12.699999999999999
 74
0
 49
-6.3499999999999996
 74
0
  0
LTYPE
  5
35
100
AcDbSymbolTableRecord
100
AcDbLinetypeTableRecord
  2
DASHED2
 70
0
  3
Dashed (.5x) _ _ _ _ _ _ _ _ _ _ _ _ _ _ _ _ _
 72
65
 73
2
 40
9.5250000000000004
 49
6.3499999999999996
 74
0
 49
-3.1749999999999998
 74
0
  0
LTYPE
  5
36
100
AcDbSymbolTableRecord
100
AcDbLinetypeTableRecord
  2
DASHEDX2
 70
0
  3
Dashed (2x) ____  ____  ____  ____  ____  ___
 72
65
 73
2
 40
38.100000000000001
 49
25.399999999999999
 74
0
 49
-12.699999999999999
 74
0
  0
LTYPE
  5
37
100
AcDbSymbolTableRecord
100
AcDbLinetypeTableRecord
  2
DASHDOT
 70
0
  3
Dash dot __ . __ . __ . __ . __ . __ . __ . __
 72
65
 73
4
 40
25.399999999999999
 49
12.699999999999999
 74
0
 49
-6.3499999999999996
 74
0
 49
0.0
 74
0
 49
-6.3499999999999996
 74
0
  0
LTYPE
  5
38
100
AcDbSymbolTableRecord
100
AcDbLinetypeTableRecord
  2
DASHDOT2
 70
0
  3
Dash dot (.5x) _._._._._._._._._._._._._._._.
 72
65
 73
4
 40
12.699999999999999
 49
6.3499999999999996
 74
0
 49
-3.1749999999999998
 74
0
 49
0.0
 74
0
 49
-3.1749999999999998
 74
0
  0
LTYPE
  5
39
100
AcDbSymbolTableRecord
100
AcDbLinetypeTableRecord
  2
DASHDOTX2
 70
0
  3
Dash dot (2x) ____  .  ____  .  ____  .  ___
 72
65
 73
4
 40
50.799999999999997
 49
25.399999999999999
 74
0
 49
-12.699999999999999
 74
0
 49
0.0
 74
0
 49
-12.699999999999999
 74
0
  0
LTYPE
  5
3A
100
AcDbSymbolTableRecord
100
AcDbLinetypeTableRecord
  2
DIVIDE
 70
0
  3
Divide ____ . . ____ . . ____ . . ____ . . ____
 72
65
 73
6
 40
31.75
 49
12.699999999999999
 74
0
 49
-6.3499999999999996
 74
0
 49
0.0
 74
0
 49
-6.3499999999999996
 74
0
 49
0.0
 74
0
 49
-6.3499999999999996
 74
0
  0
LTYPE
  5
3B
100
AcDbSymbolTableRecord
100
AcDbLinetypeTableRecord
  2
DIVIDE2
 70
0
  3
Divide (.5x) __..__..__..__..__..__..__..__.._
 72
65
 73
6
 40
15.875
 49
6.3499999999999996
 74
0
 49
-3.1749999999999998
 74
0
 49
0.0
 74
0
 49
-3.1749999999999998
 74
0
 49
0.0
 74
0
 49
-3.1749999999999998
 74
0
  0
LTYPE
  5
3C
100
AcDbSymbolTableRecord
100
AcDbLinetypeTableRecord
  2
DIVIDEX2
 70
0
  3
Divide (2x) ________  .  .  ________  .  .  _
 72
65
 73
6
 40
63.5
 49
25.399999999999999
 74
0
 49
-12.699999999999999
 74
0
 49
0.0
 74
0
 49
-12.699999999999999
 74
0
 49
0.0
 74
0
 49
-12.699999999999999
 74
0
  0
LTYPE
  5
3D
100
AcDbSymbolTableRecord
100
AcDbLinetypeTableRecord
  2
CENTER
 70
0
  3
Center ____ _ ____ _ ____ _ ____ _ ____ _ ____
 72
65
 73
4
 40
50.799999999999997
 49
31.75
 74
0
 49
-6.3499999999999996
 74
0
 49
6.3499999999999996
 74
0
 49
-6.3499999999999996
 74
0
  0
LTYPE
  5
3E
100
AcDbSymbolTableRecord
100
AcDbLinetypeTableRecord
  2
CENTER2
 70
0
  3
Center (.5x) ___ _ ___ _ ___ _ ___ _ ___ _ ___
 72
65
 73
4
 40
28.574999999999999
 49
19.050000000000001
 74
0
 49
-3.1749999999999998
 74
0
 49
3.1749999999999998
 74
0
 49
-3.1749999999999998
 74
0
  0
LTYPE
  5
3F
100
AcDbSymbolTableRecord
100
AcDbLinetypeTableRecord
  2
CENTERX2
 70
0
  3
Center (2x) ________  __  ________  __  _____
 72
65
 73
4
 40
101.59999999999999
 49
63.5
 74
0
 49
-12.699999999999999
 74
0
 49
12.699999999999999
 74
0
 49
-12.699999999999999
 74
0
  0
LTYPE
  5
40
100
AcDbSymbolTableRecord
100
AcDbLinetypeTableRecord
  2
BORDER
 70
0
  3
Border __ __ . __ __ . __ __ . __ __ . __ __ .
 72
65
 73
6
 40
44.450000000000003
 49
12.699999999999999
 74
0
 49
-6.3499999999999996
 74
0
 49
12.699999999999999
 74
0
 49
-6.3499999999999996
 74
0
 49
0.0
 74
0
 49
-6.3499999999999996
 74
0
  0
LTYPE
  5
41
100
AcDbSymbolTableRecord
100
AcDbLinetypeTableRecord
  2
BORDER2
 70
0
  3
Border (.5x) __.__.__.__.__.__.__.__.__.__.__.
 72
65
 73
6
 40
22.225000000000001
 49
6.3499999999999996
 74
0
 49
-3.1749999999999998
 74
0
 49
6.3499999999999996
 74
0
 49
-3.1749999999999998
 74
0
 49
0.0
 74
0
 49
-3.1749999999999998
 74
0
  0
LTYPE
  5
42
100
AcDbSymbolTableRecord
100
AcDbLinetypeTableRecord
  2
BORDERX2
 70
0
  3
Border (2x) ____  ____  .  ____  ____  .  ___
 72
65
 73
6
 40
88.900000000000006
 49
25.399999999999999
 74
0
 49
-12.699999999999999
 74
0
 49
25.399999999999999
 74
0
 49
-12.699999999999999
 74
0
 49
0.0
 74
0
 49
-12.699999999999999
 74
0
  0
ENDTAB
  0
TABLE
  2
LAYER
  5
2
100
AcDbSymbolTable
 70
3
  0
LAYER
  5
10
100
AcDbSymbolTableRecord
100
AcDbLayerTableRecord
  2
0
 70
0
 62
7
  6
CONTINUOUS
390
F
  0
LAYER
  5
43
100
AcDbSymbolTableRecord
100
AcDbLayerTableRecord
  2
LAYER_1
 70
0
 62
6
  6
CONTINUOUS
370
-3
390
F
  0
LAYER
  5
44
100
AcDbSymbolTableRecord
100
AcDbLayerTableRecord
  2
noname
 70
0
 62
7
  6
CONTINUOUS
370
0
390
F
  0
ENDTAB
  0
TABLE
  2
STYLE
  5
3
100
AcDbSymbolTable
 70
1
  0
STYLE
  5
11
100
AcDbSymbolTableRecord
100
AcDbTextStyleTableRecord
  2
Standard
 70
0
 40
0.0
 41
0.75
 50
0.0
 71
0
 42
2.5
  3
txt
  4

  0
ENDTAB
  0
TABLE
  2
VIEW
  5
6
100
AcDbSymbolTable
 70
0
  0
ENDTAB
  0
TABLE
  2
UCS
  5
7
100
AcDbSymbolTable
 70
0
  0
ENDTAB
  0
TABLE
  2
APPID
  5
9
100
AcDbSymbolTable
 70
1
  0
APPID
  5
12
100
AcDbSymbolTableRecord
100
AcDbRegAppTableRecord
  2
ACAD
 70
0
  0
ENDTAB
  0
TABLE
  2
DIMSTYLE
  5
A
100
AcDbSymbolTable
 70
1
100
AcDbDimStyleTable
 71
0
  0
DIMSTYLE
105
27
100
AcDbSymbolTableRecord
100
AcDbDimStyleTableRecord
  2
Standard
 41
0.18
 42
0.0625
 43
3.75
 44
0.18
 70
0
 73
0
 74
0
 77
1
 78
8
140
0.18
141
2.5
143
0.03937007874016
147
0.09
171
3
172
1
271
2
272
2
274
3
278
44
283
0
284
8
340
11
  0
ENDTAB
  0
TABLE
  2
BLOCK_RECORD
  5
1
100
AcDbSymbolTable
 70
1
  0
BLOCK_RECORD
  5
1F
100
AcDbSymbolTableRecord
100
AcDbBlockTableRecord
  2
*Model_Space
340
22
  0
BLOCK_RECORD
  5
1B
100
AcDbSymbolTableRecord
100
AcDbBlockTableRecord
  2
*Paper_Space
340
1E
  0
BLOCK_RECORD
  5
23
100
AcDbSymbolTableRecord
100
AcDbBlockTableRecord
  2
*Paper_Space0
340
26
  0
ENDTAB
  0
ENDSEC
  0
SECTION
  2
BLOCKS
  0
BLOCK
  5
20
100
AcDbEntity
  8
0
100
AcDbBlockBegin
  2
*Model_Space
 70
0
 10
0.0
 20
0.0
 30
0.0
  3
*Model_Space
  1

  0
ENDBLK
  5
21
100
AcDbEntity
  8
0
100
AcDbBlockEnd
  0
BLOCK
  5
1C
100
AcDbEntity
 67
1
  8
0
100
AcDbBlockBegin
  2
*Paper_Space
 70
0
 10
0.0
 20
0.0
 30
0.0
  3
*Paper_Space
  1

  0
ENDBLK
  5
1D
100
AcDbEntity
 67
1
  8
0
100
AcDbBlockEnd
  0
BLOCK
  5
24
100
AcDbEntity
  8
0
100
AcDbBlockBegin
  2
*Paper_Space0
 70
0
 10
0.0
 20
0.0
 30
0.0
  3
*Paper_Space0
  1

  0
ENDBLK
  5
25
100
AcDbEntity
  8
0
100
AcDbBlockEnd
  0
ENDSEC
  0
SECTION
  2
ENTITIES
  0
LWPOLYLINE
  5
45
  8
LAYER_1
 62
256
370
-1
  6
ByLayer
100
AcDbEntity
100
AcDbPolyline
 90
39
 70
1
 10
-10.05253962857417
 20
22.077269070068851
 10
-9.3650340681320543
 20
21.920584010463859
 10
-8.756439370070499
 20
21.76202849239208
 10
-8.2046456236966367
 20
21.592828181795081
 10
-7.9431397603010678
 20
21.501494249906369
 10
-7.6875429183175958
 20
21.404208744614429
 10
-7.4350913589096121
 20
21.299874874161979
 10
-7.1830213432405081
 20
21.187395846791699
 10
-6.6689709877725019
 20
20.933615154268459
 10
-6.1232819412207071
 20
20.63409233298627
 10
-5.523844292892254
 20
20.28005304888671
 10
-4.3047996312525054
 20
19.540905976146899
 10
-4.3574888484262431
 20
20.824171777121169
 10
-4.3757824435546677
 20
21.393411161622559
 10
-4.386642146357481
 20
21.994688368282379
 10
-4.3892392392134703
 20
22.556383405539741
 10
-4.3827450045014222
 20
23.006876281833769
 10
-4.3764190541661989
 20
23.53025873729236
 10
-4.3794743470581263
 20
24.29041549999782
 10
-4.4101338734711533
 20
26.11332990863206
 10
-4.5002206749247966
 20
28.9589693352466
 10
-4.5273549156816024
 20
29.25490156254688
 10
-4.5474406628231989
 20
29.356750388136469
 10
-4.5728477588197913
 20
29.429898062526831
 10
-4.6043079019310262
 20
29.475877366348829
 10
-4.6425527904165547
 20
29.496221080233351
 10
-4.6883141225360223
 20
29.492461984811229
 10
-4.7423235965490784
 20
29.466132860713341
 10
-6.6374830338608097
 20
27.937600675204141
 10
-7.0837883694044299
 20
27.56096750529451
 10
-7.5122034165550033
 20
27.183779335015561
 10
-7.9295153028621304
 20
26.799339492887569
 10
-8.3425111558754121
 20
26.400951307430809
 10
-8.7579781031444508
 20
25.981918107165551
 10
-9.1827032722188449
 20
25.535543220612059
 10
-9.6234737906481982
 20
25.055129976290619
 10
-10.087076785982109
 20
24.53398170272148
 10
-11.848349151030581
 20
22.527433937660209
 10
-11.745313653985169
 20
22.443044543971119
  0
LWPOLYLINE
  5
46
  8
LAYER_1
 62
256
370
-1
  6
ByLayer
100
AcDbEntity
100
AcDbPolyline
 90
49
 70
1
 10
-20.64803881820324
 20
9.6500851109878596
 10
-20.63357897055419
 20
9.6183631917149732
 10
-20.5986097231924
 20
9.5871449440331737
 10
-20.545432343817399
 20
9.557229784006994
 10
-20.476348100128671
 20
9.5294171277009632
 10
-20.299664090608161
 20
9.4832969905074727
 10
-20.08696783622695
 20
9.455179860968947
 10
-19.693743917646739
 20
9.4033198577973192
 10
-19.025524188772518
 20
9.2925532824938735
 10
-18.175789701065309
 20
9.1391487377589264
 10
-17.23802150598614
 20
8.959374826292791
 10
-14.933476782887601
 20
8.5047427601959171
 10
-13.696509866340371
 20
8.12942148630178
 10
-13.231276809780139
 20
7.981276238264793
 10
-12.75631625064039
 20
7.8163901207415361
 10
-12.27293370875438
 20
7.635427069397144
 10
-11.782434703955349
 20
7.4390510198967554
 10
-11.286124756076539
 20
7.2279259079055036
 10
-10.785309384951219
 20
7.0027156690885271
 10
-10.28129411041262
 20
6.7640842391109608
 10
-9.7753844522940003
 20
6.5126955536379434
 10
-9.268885930428608
 20
6.2492135483346072
 10
-8.7631040646496885
 20
5.9743021588660916
 10
-8.2593443747904924
 20
5.6886253208975308
 10
-7.7589123806842686
 20
5.3928469700940624
 10
-7.2631136021642666
 20
5.0876310421208224
 10
-6.7732535590637362
 20
4.7736414726429466
 10
-6.2906377712159252
 20
4.4515421973255744
 10
-5.8165717584540824
 20
4.1219971518338374
 10
-4.5523800887941412
 20
3.2249492733191989
 10
-4.563700643893065
 20
3.891800821568248
 10
-4.5889005241617307
 20
5.8912854125767717
 10
-4.6185588611473136
 20
8.266420067552005
 10
-4.6540555184646939
 20
10.663522587802589
 10
-4.6737731639662217
 20
12.018123495837409
 10
-8.2296601655465178
 20
14.929895576242039
 10
-9.093824920240877
 20
15.257564177256921
 10
-9.337612196357199
 20
15.34490214305904
 10
-9.6122941492249296
 20
15.4341472985609
 10
-10.24011295289468
 20
15.61531757206795
 10
-10.94882306661026
 20
15.794991784586241
 10
-11.709966225731799
 20
15.967086722923939
 10
-12.495084165619449
 20
16.125519173889209
 10
-13.275718621633329
 20
16.264205924290231
 10
-14.023411329133589
 20
16.377063760935169
 10
-14.709704023480359
 20
16.458009470632199
 10
-15.749470163155941
 20
16.55933278258215
 10
-19.216992182015261
 20
12.398214068873999
 10
-20.66470819303726
 20
9.803817392427483
  0
LWPOLYLINE
  5
47
  8
LAYER_1
 62
256
370
-1
  6
ByLayer
100
AcDbEntity
100
AcDbPolyline
 90
83
 70
1
 10
-23.686462669916629
 20
-0.5962011015215412
 10
-23.786438536338839
 20
-1.0526083373310819
 10
-23.874559580518319
 20
-1.519696880441423
 10
-23.950780812650201
 20
-1.995285216864793
 10
-24.01505724292965
 20
-2.477191832613419
 10
-24.067343881551821
 20
-2.9632352136995319
 10
-24.107595738711861
 20
-3.451233846135358
 10
-24.13576782460494
 20
-3.9390062159331269
 10
-24.151815149426199
 20
-4.4243708091050671
 10
-24.155692723370791
 20
-4.9051461116634076
 10
-24.14735555663388
 20
-5.3791506096203756
 10
-24.126758659410601
 20
-5.844202788988202
 10
-24.09385704189614
 20
-6.2981211357791116
 10
-24.048605714285621
 20
-6.7387241360053363
 10
-23.990959686774211
 20
-7.1638302756791026
 10
-23.920873969557061
 20
-7.5712580408126424
 10
-23.838303572829339
 20
-7.9588259174181797
 10
-23.689269641212871
 20
-8.591201535162444
 10
-22.343003236789968
 20
-8.7729741626578956
 10
-21.795963451129239
 20
-8.8549245888469059
 10
-21.20747942115273
 20
-8.9579788355839902
 10
-20.584486028130009
 20
-9.0801949337978254
 10
-19.933918153330669
 20
-9.2196309144170883
 10
-19.262710678024291
 20
-9.374344808370461
 10
-18.577798483480439
 20
-9.542394646586617
 10
-17.886116450968689
 20
-9.7218384599942382
 10
-17.194599461758639
 20
-9.9107342795219981
 10
-16.510182397119859
 20
-10.107140136098581
 10
-15.83980013832192
 20
-10.309114060652661
 10
-15.190387566634399
 20
-10.51471408411291
 10
-14.568879563326879
 20
-10.72199823740802
 10
-13.982211009668941
 20
-10.929024551466661
 10
-13.437316786930159
 20
-11.1338510572175
 10
-12.94113177638012
 20
-11.334535785589241
 10
-12.500590859288391
 20
-11.52913676751054
 10
-11.777464800545379
 20
-11.88015621853571
 10
-11.054720150857539
 20
-12.26047026900112
 10
-10.33055948485854
 20
-12.671208363743711
 10
-9.6031853771820277
 20
-13.11349994760047
 10
-8.8708004024616613
 20
-13.588474465408339
 10
-8.131607135331091
 20
-14.09726136200428
 10
-7.3838081504239739
 20
-14.640990082225271
 10
-6.6256060223739643
 20
-15.220790070908251
 10
-4.7795249706886827
 20
-16.66626641104374
 10
-4.8043268533917418
 20
-15.130177007456989
 10
-4.8138557226626304
 20
-13.779661145427159
 10
-4.8019373815819426
 20
-12.68973791622197
 10
-4.7935188822304298
 20
-12.14636086689007
 10
-4.7906979632665756
 20
-11.335393738056091
 10
-4.8018591362072609
 20
-9.3491424029931753
 10
-4.828972245345426
 20
-6.9128965774126563
 10
-4.941930610582479
 20
-6.5841697938676136
 10
-6.2978547509050662
 20
-5.1549881113747009
 10
-6.6659966102298469
 20
-4.7755561534716708
 10
-7.0455570280517303
 20
-4.4020362633905332
 10
-7.4429475167306958
 20
-4.0287925044772006
 10
-7.8645795886267171
 20
-3.6501889400775842
 10
-8.3168647560997737
 20
-3.2605896335375961
 10
-8.8062145315098395
 20
-2.8543586482031511
 10
-9.3390404272168919
 20
-2.4258600474201599
 10
-9.9217539555809093
 20
-1.969457894534536
 10
-12.18972901993417
 20
-0.2131093601872864
 10
-13.73407319808879
 20
0.4992810330482227
 10
-14.136611887133061
 20
0.6802076582964689
 10
-14.54129631676556
 20
0.8523780778881553
 10
-14.949942769006009
 20
1.0162923392704351
 10
-15.364367525874091
 20
1.1724504898904611
 10
-15.786386869389499
 20
1.321352577195386
 10
-16.217817081571951
 20
1.463498648632362
 10
-16.660474444441139
 20
1.599388751648543
 10
-17.116175240016759
 20
1.729522933691082
 10
-17.58673575031851
 20
1.8544012422071301
 10
-18.073972257366101
 20
1.974523724643841
 10
-18.57970104317922
 20
2.090390428448369
 10
-19.105738389777581
 20
2.2025014010678641
 10
-20.226003893408791
 20
2.4174563425403721
 10
-21.44929902441735
 20
2.623388928638589
 10
-22.770706043395428
 20
2.8327594610996929
 10
-22.834313043249441
 20
2.739501880348401
 10
-22.870209246486841
 20
2.659588405648595
 10
-22.92256204904912
 20
2.497941806371021
 10
-23.084079967839081
 20
1.9003158272187139
 10
-23.33375183100102
 20
0.8883571291637648
  0
LWPOLYLINE
  5
48
  8
LAYER_1
 62
256
370
-1
  6
ByLayer
100
AcDbEntity
100
AcDbPolyline
 90
25
 70
1
 10
1.489557787481925
 20
25.249728574487019
 10
1.503749213180757
 20
25.23533560075516
 10
1.5244544070081041
 20
25.225711442849001
 10
1.583823611186167
 20
25.220233086123269
 10
1.6645004242917629
 20
25.232220527528831
 10
1.7633198706005411
 20
25.260600790284709
 10
1.87711697438815
 20
25.304300897609881
 10
2.0027267599302401
 20
25.362247872723369
 10
2.1369842515024589
 20
25.43336873884417
 10
2.2767244733804559
 20
25.51659051919129
 10
2.6015693973582019
 20
25.706107246826409
 10
2.9812633442833749
 20
25.904761079721279
 10
3.3685715758887009
 20
26.088973730052601
 10
3.7162593539069082
 20
26.235166909997041
 10
4.0186499487306406
 20
26.366134709036871
 10
4.1458201655869864
 20
26.43303345986498
 10
4.2540319117037466
 20
26.498927107133781
 10
4.3410788743039994
 20
26.56235439751968
 10
4.4047547406108194
 20
26.621854077699091
 10
4.4428531978472803
 20
26.675964894348439
 10
4.4531679332364549
 20
26.723225594144129
 10
4.4333913283990016
 20
26.922013937741941
 10
1.558299424484568
 20
29.52037570340703
 10
1.38307158894785
 20
29.296259191374588
 10
1.3852407979428301
 20
25.41217268003923
  0
LWPOLYLINE
  5
49
  8
LAYER_1
 62
256
370
-1
  6
ByLayer
100
AcDbEntity
100
AcDbPolyline
 90
64
 70
1
 10
2.108937375963329
 20
13.978784983764189
 10
2.110058225772987
 20
12.3520963997794
 10
2.1324599096936372
 20
10.882825026118059
 10
2.170016126996348
 20
9.5256537870809872
 10
2.6425906415232379
 20
9.950222464968796
 10
2.8427860234510169
 20
10.124048290024721
 10
3.0686482292459609
 20
10.30936723896407
 10
3.5846858563448039
 20
10.706083634558089
 10
4.1653290106346823
 20
11.12356990388095
 10
4.7852031799305133
 20
11.545024299062741
 10
5.4189338520472132
 20
11.953645072233581
 10
6.0411465147996992
 20
12.332630475523571
 10
6.6264666560028882
 20
12.665178761062791
 10
7.1495197634716954
 20
12.93448818098136
 10
7.7406626632761144
 20
13.211227998902009
 10
8.2924146897465167
 20
13.4531404706104
 10
8.8246206433423602
 20
13.667004817225781
 10
9.3571253245231034
 20
13.859600259867451
 10
9.9097735337482007
 20
14.03770601965466
 10
10.50241007147711
 20
14.20810131770671
 10
11.15487973816929
 20
14.37756537514286
 10
11.8870273342842
 20
14.55287741308239
 10
13.490001836470091
 20
14.9244797242447
 10
13.59795818140074
 20
15.05628936492203
 10
13.66503650542505
 20
15.15688704584794
 10
13.678308712190111
 20
15.193331583801051
 10
13.67471165115534
 20
15.21365516627186
 10
13.45913940886795
 20
15.5121404037614
 10
12.98466550212634
 20
16.193887749121679
 10
12.42640967439803
 20
16.97620109717797
 10
12.18425030258212
 20
17.29829076888193
 10
12.00940430292987
 20
17.516472681574939
 10
11.68591522386577
 20
17.9126739765493
 10
11.352496439576999
 20
18.348605564929979
 10
11.13128123934097
 20
18.62196270668214
 10
10.78066391193223
 20
19.023082129719992
 10
10.348830569013201
 20
19.498013492401011
 10
9.8839673222462814
 20
19.9928064530827
 10
8.7559281429249403
 20
21.17278296815628
 10
8.4357486215553656
 20
21.17070642110788
 10
8.2461208899481768
 20
21.154670012272138
 10
8.0261027216513714
 20
21.109970749563399
 10
7.7788419080418052
 20
21.038350110507011
 10
7.5074862404963394
 20
20.941549572628318
 10
7.2151835103918289
 20
20.82131061345267
 10
6.9050815091051341
 20
20.679374710505432
 10
6.5803280280131116
 20
20.51748334131193
 10
6.2440708584926208
 20
20.33737798339752
 10
5.8994577919205176
 20
20.140800114287561
 10
5.5496366196736613
 20
19.92949121150739
 10
5.1977551331289096
 20
19.705192752582359
 10
4.84696112366312
 20
19.46964621503783
 10
4.5004023826531512
 20
19.224593076399131
 10
4.1612267014758606
 20
18.971774814191619
 10
3.8325818715081081
 20
18.712932905940651
 10
3.5176156841267492
 20
18.44980882917157
 10
2.2641610303381321
 20
17.307903504770191
 10
2.22963331191026
 20
17.251429708769631
 10
2.198059900956491
 20
17.17153501016471
 10
2.1700862110570531
 20
17.071913673323191
 10
2.1463576557921722
 20
16.95625996261284
 10
2.1142176034869919
 20
16.691632477056729
 10
2.1068030526827681
 20
16.407206668438501
 10
2.1140993129732819
 20
15.40938420006351
  0
LWPOLYLINE
  5
4A
  8
LAYER_1
 62
256
370
-1
  6
ByLayer
100
AcDbEntity
100
AcDbPolyline
 90
76
 70
1
 10
-21.769341550993079
 20
-18.8232340214049
 10
-21.582957754045729
 20
-19.258646730372309
 10
-21.38759627151034
 20
-19.68996634853535
 10
-21.183405810590031
 20
-20.11702295839801
 10
-20.970535078487909
 20
-20.539646642464309
 10
-20.749132782407099
 20
-20.957667483238229
 10
-20.519347629550708
 20
-21.370915563223789
 10
-20.281328327121852
 20
-21.779220964924988
 10
-20.035223582323631
 20
-22.18241377084583
 10
-19.781182102359178
 20
-22.580324063490309
 10
-19.519352594431609
 20
-22.97278192536243
 10
-19.24988376574403
 20
-23.3596174389662
 10
-18.972924323499551
 20
-23.740660686805612
 10
-18.688622974901289
 20
-24.115741751384679
 10
-18.39712842715236
 20
-24.4846907152074
 10
-18.098589387455881
 20
-24.847337660777779
 10
-17.793154563014969
 20
-25.20351267059981
 10
-17.48097266103272
 20
-25.553045827177499
 10
-17.16219238871227
 20
-25.89576721301485
 10
-16.836962453256721
 20
-26.23150691061587
 10
-16.505431561869191
 20
-26.560095002484559
 10
-16.16774842175279
 20
-26.881361571124909
 10
-15.82406174011064
 20
-27.19513669904094
 10
-15.47452022414585
 20
-27.501250468736639
 10
-15.11927258106153
 20
-27.799532962716011
 10
-14.758467518060799
 20
-28.089814263483071
 10
-14.392253742346769
 20
-28.371924453541801
 10
-14.02077996112256
 20
-28.645693615396219
 10
-13.644194881591281
 20
-28.910951831550321
 10
-13.26264721095604
 20
-29.167529184508108
 10
-12.87628565641997
 20
-29.41525575677359
 10
-12.485258925186169
 20
-29.653961630850759
 10
-12.089715724457751
 20
-29.883476889243632
 10
-11.55948638964507
 20
-30.167999679100351
 10
-11.00016813723872
 20
-30.442721452943651
 10
-10.47834172378715
 20
-30.67633698103559
 10
-10.25229444309079
 20
-30.767947018631681
 10
-10.06058790583878
 20
-30.8375410336382
 10
-9.5019418539492335
 20
-31.006909837629131
 10
-8.8737797617518694
 20
-31.168732397590041
 10
-8.2064758084842104
 20
-31.31759417627401
 10
-7.5304041733837739
 20
-31.448080636434099
 10
-6.8759390356880754
 20
-31.554777240823359
 10
-6.2734545746346306
 20
-31.632269452194858
 10
-5.7533249694609596
 20
-31.675142733301659
 10
-5.533635168840763
 20
-31.681905232116129
 10
-5.3459243994045798
 20
-31.677982546896821
 10
-4.830715568872523
 20
-31.649295986294579
 10
-4.9280185430914436
 20
-26.45037374766957
 10
-5.6642848625122397
 20
-25.51091690847154
 10
-5.9852023123646134
 20
-25.109572132102709
 10
-6.3147153285591608
 20
-24.71127889205513
 10
-6.6140944813352238
 20
-24.362070983409609
 10
-6.8446103409321486
 20
-24.107982201246951
 10
-7.6036382679256853
 20
-23.321336728852071
 10
-8.2635534877988448
 20
-22.65161419226683
 10
-8.8516263576545207
 20
-22.073841498071669
 10
-9.3951272345956074
 20
-21.563045552847061
 10
-9.921326475725003
 20
-21.094253263173449
 10
-10.4574944381456
 20
-20.642491535631301
 10
-11.030901478960301
 20
-20.182787276801069
 10
-11.66881795527199
 20
-19.69016739326322
 10
-13.697708961544031
 20
-18.14473507338246
 10
-14.16957881722017
 20
-17.966626088951021
 10
-15.898517891415731
 20
-17.312033136999482
 10
-16.196335835355949
 20
-17.206429820799979
 10
-16.561742516281409
 20
-17.08879706768009
 10
-17.43828549955224
 20
-16.833208603938889
 10
-18.414073662156721
 20
-16.576798452295161
 10
-19.375033825023369
 20
-16.351097319268231
 10
-21.59448054011159
 20
-15.866645469057101
 10
-22.8248504268776
 20
-15.80432749862385
 10
-22.591750147781848
 20
-16.605033053276671
 10
-22.45474157059623
 20
-17.027781254388739
 10
-22.254013757348151
 20
-17.586920628958609
 10
-22.016551990119719
 20
-18.209666457719571
  0
LWPOLYLINE
  5
4B
  8
LAYER_1
 62
256
370
-1
  6
ByLayer
100
AcDbEntity
100
AcDbPolyline
 90
106
 70
1
 10
2.8373668748899661
 20
-6.8813550078491748
 10
2.82290731218208
 20
-9.0360227238814961
 10
2.8980060964990688
 20
-9.1049106048042709
 10
2.916475390702419
 20
-9.1098710990721141
 10
2.9475386451042089
 20
-9.1036831133148226
 10
3.0427558404982138
 20
-9.0611291824467273
 10
3.1742752946713031
 20
-8.9837837736437614
 10
3.332714619613697
 20
-8.8781818483496977
 10
3.692823329767279
 20
-8.60834829406339
 10
3.8757279389589079
 20
-8.4571865879586934
 10
4.0480228668807232
 20
-8.3039082111380047
 10
4.4436406385867979
 20
-7.9544643301155231
 10
4.895345289756059
 20
-7.5875200877343438
 10
5.3951382368668481
 20
-7.2086251683428362
 10
5.9350208963975062
 20
-6.8233292562893713
 10
6.5069946848263722
 20
-6.4371820359223202
 10
7.1030610186317862
 20
-6.055733191590055
 10
7.7152213142920889
 20
-5.6845324076409458
 10
8.3354769882856203
 20
-5.3291293684233629
 10
8.76540422173073
 20
-5.094444580488771
 10
9.1855872599326194
 20
-4.8743528934347058
 10
9.5991875226564307
 20
-4.6677447936288683
 10
10.00936642966731
 20
-4.4735107674389649
 10
10.4192854007304
 20
-4.2905413012327003
 10
10.832105855610839
 20
-4.1177268813777781
 10
11.250989214073771
 20
-3.953957994241903
 10
11.679096895884349
 20
-3.7981251261927791
 10
12.119590320807699
 20
-3.649118763598111
 10
12.575630908608989
 20
-3.505829392825603
 10
13.05038007905334
 20
-3.3671475002429578
 10
13.5469992519059
 20
-3.2319635722178832
 10
14.06864984693182
 20
-3.0991680951180811
 10
14.618493283896241
 20
-2.967651555311257
 10
15.81540436270115
 20
-2.7040172330473569
 10
17.816520993305531
 20
-2.2838400788248712
 10
19.005520845858701
 20
-2.148062793151241
 10
19.47983166586873
 20
-2.0876419455470892
 10
19.892324477863841
 20
-2.023500742581418
 10
20.19872712732613
 20
-1.963296803003262
 10
20.298309592820619
 20
-1.9370643128435741
 10
20.35476745973769
 20
-1.9146877455616511
 10
20.39225266035827
 20
-1.877456881281415
 10
20.423559512855721
 20
-1.8162788914927519
 10
20.448753220956618
 20
-1.7327509010790549
 10
20.46789898838755
 20
-1.6284700349237129
 10
20.488307516145731
 20
-1.364038174921663
 10
20.485306725942831
 20
-1.0357603105537301
 10
20.459418247591369
 20
-0.6564134408870409
 10
20.41116371090391
 20
-0.2387745649887248
 10
20.341064745693011
 20
0.2043793180740905
 10
20.249642981771199
 20
0.6602712092342769
 10
20.089870461760121
 20
1.4011703653599581
 10
20.01851838041582
 20
1.776773293604913
 10
20.004560371152191
 20
1.8717131737821051
 10
19.97443820265249
 20
2.0042267033654979
 10
19.870894985193281
 20
2.3675013100238651
 10
19.718275922534989
 20
2.8376503121259642
 10
19.526968209174441
 20
3.3857269082177459
 10
19.30735903960845
 20
3.9827842968451601
 10
19.069835608333829
 20
4.5998756765541549
 10
18.824785109847401
 20
5.2080542458906818
 10
18.58259473864597
 20
5.7783732034006912
 10
17.837104430163521
 20
7.4802933050220242
 10
17.674716367232541
 20
7.6132943635509074
 10
17.621856638739679
 20
7.6325447557705939
 10
17.528058023787821
 20
7.6398819027862821
 10
17.39723155003399
 20
7.6360675658394506
 10
17.233288245135221
 20
7.6218635061715752
 10
16.821695252531011
 20
7.5653332636386104
 10
16.324567267231451
 20
7.4763852651192124
 10
15.773192510492811
 20
7.361113600545206
 10
15.19885920357132
 20
7.2256123598484159
 10
14.63285556772327
 20
7.0759756329606667
 10
14.106469824204909
 20
6.9182975098137804
 10
13.77812241828166
 20
6.8073793431757643
 10
13.44326061630715
 20
6.6840211272841374
 10
13.10250186312317
 20
6.5486596966625044
 10
12.75646360357155
 20
6.4017318858344758
 10
12.405763282494091
 20
6.2436745293236591
 10
12.051018344732579
 20
6.0749244616536622
 10
11.331864398524701
 20
5.7070935309305657
 10
10.603941323682349
 20
5.301733769854053
 10
9.8721886789400095
 20
4.8623398546129923
 10
9.1415460230321202
 20
4.3924064613962486
 10
8.4169529146931428
 20
3.8954282663926931
 10
7.7033489126575354
 20
3.3748999457911899
 10
7.0056735756597561
 20
2.834316175780609
 10
6.3288664624342603
 20
2.277171632549817
 10
5.6778671317155069
 20
1.7069609922876801
 10
5.0576151422379514
 20
1.1271789311830669
 10
4.7605630125691407
 20
0.8347907041238529
 10
4.4730500527360508
 20
0.5413201254248452
 10
4.1956937075804888
 20
0.247204029609652
 10
3.9291114219442629
 20
-0.0471207487981181
 10
3.6739206406691811
 20
-0.3412173752748566
 10
3.4307388085970469
 20
-0.6346490152969553
 10
3.2434253200573382
 20
-0.871232679285963
 10
3.101502529100058
 20
-1.073946156724916
 10
3.0455988861642682
 20
-1.1707502723009671
 10
2.9986864067634111
 20
-1.2688652774149169
 10
2.959979587277263
 20
-1.3715506507919051
 10
2.9286929240855999
 20
-1.4820658711570689
 10
2.9040409135681968
 20
-1.603670417235546
 10
2.88523805210483
 20
-1.7396237677524751
 10
2.8620377618593058
 20
-2.0676147970022378
 10
2.851264810726811
 20
-3.0391995726692471
  0
LWPOLYLINE
  5
4C
  8
LAYER_1
 62
256
370
-1
  6
ByLayer
100
AcDbEntity
100
AcDbPolyline
 90
91
 70
1
 10
2.9714006357552178
 20
-26.17892220769151
 10
3.0141552646411229
 20
-27.97474149462403
 10
3.036131531685573
 20
-29.886941127883439
 10
3.0433110865095951
 20
-31.882017674436241
 10
3.117919112040521
 20
-31.943124052523771
 10
3.1466169411657741
 20
-31.958202198034719
 10
3.1889098802965421
 20
-31.968028513595829
 10
3.3117304485011272
 20
-31.97263223879381
 10
3.4812795365072922
 20
-31.958348395968269
 10
3.6924558641680512
 20
-31.92659015296972
 10
3.940158151336417
 20
-31.87877067764871
 10
4.2192851178654021
 20
-31.81630313785579
 10
4.8514079684172904
 20
-31.653076536256378
 10
5.5480141746478271
 20
-31.44821569097579
 10
6.2682934953811191
 20
-31.213025944818352
 10
6.9714356894412806
 20
-30.958812640588381
 10
7.3038271636014702
 20
-30.828105073822559
 10
7.6166305156524183
 20
-30.696881121090211
 10
7.8851999575046694
 20
-30.57438730940985
 10
8.1741734829917849
 20
-30.432004122110069
 10
8.8013494337237255
 20
-30.095291267037549
 10
9.4741916655544642
 20
-29.70218584864336
 10
10.168733476190219
 20
-29.268131159698211
 10
10.861008163337219
 20
-28.808570492972802
 10
11.527049024701689
 20
-28.338947141237849
 10
12.14288935798985
 20
-27.87470439726405
 10
12.424494732138511
 20
-27.649426782178431
 10
12.68456246090793
 20
-27.431285553822111
 10
12.98023910895829
 20
-27.17039902770296
 10
13.28282621875144
 20
-26.891602186461181
 10
13.59057828624093
 20
-26.596880173397771
 10
13.901749807380289
 20
-26.28821813181375
 10
14.52736919442283
 20
-25.637014536287818
 10
15.14572034750741
 20
-24.95387254629139
 10
15.74283923426238
 20
-24.254673308232451
 10
16.304761822316099
 20
-23.55529796851901
 10
16.568160744213841
 20
-23.21050711879435
 10
16.817524079296909
 20
-22.871627673559061
 10
17.05110632351883
 20
-22.540644776114149
 10
17.267161972833168
 20
-22.21954356976061
 10
17.582697915980152
 20
-21.72111818913092
 10
17.882495730559921
 20
-21.21153479951121
 10
18.170804202583259
 20
-20.682025465026921
 10
18.451872118060979
 20
-20.12382224980351
 10
18.729948263003859
 20
-19.528157217966399
 10
19.009281423422681
 20
-18.886262433641061
 10
19.294120385328242
 20
-18.18936996095292
 10
19.588713934731331
 20
-17.428711864027431
 10
19.812808785666771
 20
-16.790254683764879
 10
20.041257413777231
 20
-16.05604912662098
 10
20.265860495421869
 20
-15.25944899853792
 10
20.478418706959811
 20
-14.433808105457921
 10
20.670732724750192
 20
-13.612480253323159
 10
20.834603225152151
 20
-12.82881924807584
 10
20.961830884524819
 20
-12.11617889565817
 10
21.00914136018741
 20
-11.796914528617391
 10
21.04421637922734
 20
-11.50791300201235
 10
21.172794310543068
 20
-10.28358439716847
 10
21.08805676383664
 20
-10.214181614687559
 10
21.028041935546511
 20
-10.191989718143169
 10
20.92211780066237
 20
-10.183390104683941
 10
20.774315097269209
 20
-10.187587758860889
 10
20.588664563451989
 20
-10.203787665225009
 10
20.119942956885339
 20
-10.26901417271883
 10
19.54819888564225
 20
-10.37270950357347
 10
18.90567825440257
 20
-10.508513534197011
 10
18.224626967846149
 20
-10.6700661409975
 10
17.537290930652819
 20
-10.85100720038303
 10
16.875916047502429
 20
-11.044976588761649
 10
14.427594008547169
 20
-11.889014304533561
 10
13.743788113668121
 20
-12.20620517457931
 10
13.06175311164364
 20
-12.55342986498467
 10
12.38192872266991
 20
-12.930332648376179
 10
11.704754666943121
 20
-13.336557797380379
 10
11.030670664659469
 20
-13.77174958462381
 10
10.36011643601514
 20
-14.235552282733
 10
9.6935317012063358
 20
-14.7276101643345
 10
9.031356180429233
 20
-15.247567502054849
 10
8.3740295938800298
 20
-15.79506856852058
 10
7.7219916617549158
 20
-16.369757636358241
 10
7.0756821042500819
 20
-16.97127897819437
 10
6.4355406415617171
 20
-17.599276866655511
 10
5.8020069938860139
 20
-18.253395574368191
 10
5.1755208814191622
 20
-18.93327937395896
 10
4.5565220243573537
 20
-19.638572538054351
 10
3.9454501428967781
 20
-20.368919339280911
 10
2.937422854516555
 20
-21.602468679522449
 10
2.9256360745827301
 20
-23.034224256787422
 10
2.9256006494457218
 20
-23.725309961192291
 10
2.934217367704449
 20
-24.548578455487299
 10
2.9499845796954389
 20
-25.400844338158379
  0
LINE
  5
4D
100
AcDbEntity
100
AcDbLine
  8
LAYER_1
 62
256
370
-1
  6
ByLayer
 10
-1.6941627094967304
 20
39.685168424911808
 30
0.0
 11
-6.804872181539424
 21
36.587015022982882
 31
0.0
  0
LINE
  5
4E
100
AcDbEntity
100
AcDbLine
  8
LAYER_1
 62
256
370
-1
  6
ByLayer
 10
-6.804872181539424
 20
36.587015022982882
 30
0.0
 11
-12.745916442538778
 21
31.278765515472539
 31
0.0
  0
LINE
  5
4F
100
AcDbEntity
100
AcDbLine
  8
LAYER_1
 62
256
370
-1
  6
ByLayer
 10
-12.745916442538778
 20
31.278765515472539
 30
0.0
 11
-21.368550349960767
 21
22.461883844332206
 31
0.0
  0
LINE
  5
50
100
AcDbEntity
100
AcDbLine
  8
LAYER_1
 62
256
370
-1
  6
ByLayer
 10
-21.368550349960767
 20
22.461883844332206
 30
0.0
 11
-29.957236565371627
 21
10.889741070470725
 31
0.0
  0
LINE
  5
51
100
AcDbEntity
100
AcDbLine
  8
LAYER_1
 62
256
370
-1
  6
ByLayer
 10
-29.957236565371627
 20
10.889741070470725
 30
0.0
 11
-34.712551219844045
 21
-0.7778385921429681
 31
0.0
  0
LINE
  5
52
100
AcDbEntity
100
AcDbLine
  8
LAYER_1
 62
256
370
-1
  6
ByLayer
 10
-34.712551219844045
 20
-0.7778385921429681
 30
0.0
 11
-35.117329788283769
 21
-10.065545992646454
 31
0.0
  0
LINE
  5
53
100
AcDbEntity
100
AcDbLine
  8
LAYER_1
 62
256
370
-1
  6
ByLayer
 10
-35.117329788283769
 20
-10.065545992646454
 30
0.0
 11
-33.742663740061843
 21
-17.39722680233195
 31
0.0
  0
LINE
  5
54
100
AcDbEntity
100
AcDbLine
  8
LAYER_1
 62
256
370
-1
  6
ByLayer
 10
-33.742663740061843
 20
-17.39722680233195
 30
0.0
 11
-30.262826043660045
 21
-25.606850395084212
 31
0.0
  0
LINE
  5
55
100
AcDbEntity
100
AcDbLine
  8
LAYER_1
 62
256
370
-1
  6
ByLayer
 10
-30.262826043660045
 20
-25.606850395084212
 30
0.0
 11
-24.597470980747154
 21
-32.6333006078968
 31
0.0
  0
LINE
  5
56
100
AcDbEntity
100
AcDbLine
  8
LAYER_1
 62
256
370
-1
  6
ByLayer
 10
-24.597470980747154
 20
-32.6333006078968
 30
0.0
 11
-17.1547530503655
 21
-37.85568688917661
 31
0.0
  0
LINE
  5
57
100
AcDbEntity
100
AcDbLine
  8
LAYER_1
 62
256
370
-1
  6
ByLayer
 10
-17.1547530503655
 20
-37.85568688917661
 30
0.0
 11
-7.4820244766744404
 21
-41.271777368816309
 31
0.0
  0
LINE
  5
58
100
AcDbEntity
100
AcDbLine
  8
LAYER_1
 62
256
370
-1
  6
ByLayer
 10
-7.4820244766744404
 20
-41.271777368816309
 30
0.0
 11
-1.1450719927787414
 21
-41.862914263730715
 31
0.0
  0
LINE
  5
59
100
AcDbEntity
100
AcDbLine
  8
LAYER_1
 62
256
370
-1
  6
ByLayer
 10
-1.1450719927787414
 20
-41.862914263730715
 30
0.0
 11
8.8736284683148146
 21
-38.998319304998248
 31
0.0
  0
LINE
  5
5A
100
AcDbEntity
100
AcDbLine
  8
LAYER_1
 62
256
370
-1
  6
ByLayer
 10
8.8736284683148146
 20
-38.998319304998248
 30
0.0
 11
17.822011489592779
 21
-33.971952553331498
 31
0.0
  0
LINE
  5
5B
100
AcDbEntity
100
AcDbLine
  8
LAYER_1
 62
256
370
-1
  6
ByLayer
 10
17.822011489592779
 20
-33.971952553331498
 30
0.0
 11
26.698285696332999
 21
-25.540934179703928
 31
0.0
  0
LINE
  5
5C
100
AcDbEntity
100
AcDbLine
  8
LAYER_1
 62
256
370
-1
  6
ByLayer
 10
26.698285696332999
 20
-25.540934179703928
 30
0.0
 11
30.76114541763215
 21
-15.628858246437877
 31
0.0
  0
LINE
  5
5D
100
AcDbEntity
100
AcDbLine
  8
LAYER_1
 62
256
370
-1
  6
ByLayer
 10
30.76114541763215
 20
-15.628858246437877
 30
0.0
 11
31.485610240511484
 21
-6.0438798887189735
 31
0.0
  0
LINE
  5
5E
100
AcDbEntity
100
AcDbLine
  8
LAYER_1
 62
256
370
-1
  6
ByLayer
 10
31.485610240511484
 20
-6.0438798887189735
 30
0.0
 11
29.456315079732576
 21
3.0615699799479832
 31
0.0
  0
LINE
  5
5F
100
AcDbEntity
100
AcDbLine
  8
LAYER_1
 62
256
370
-1
  6
ByLayer
 10
29.456315079732576
 20
3.0615699799479832
 30
0.0
 11
24.203502776073382
 21
13.000939650829682
 31
0.0
  0
LINE
  5
60
100
AcDbEntity
100
AcDbLine
  8
LAYER_1
 62
256
370
-1
  6
ByLayer
 10
24.203502776073382
 20
13.000939650829682
 30
0.0
 11
17.006248666509347
 21
22.442761493465333
 31
0.0
  0
LINE
  5
61
100
AcDbEntity
100
AcDbLine
  8
LAYER_1
 62
256
370
-1
  6
ByLayer
 10
17.006248666509347
 20
22.442761493465333
 30
0.0
 11
9.4751791318546736
 21
30.278120929047383
 31
0.0
  0
LINE
  5
62
100
AcDbEntity
100
AcDbLine
  8
LAYER_1
 62
256
370
-1
  6
ByLayer
 10
9.4751791318546736
 20
30.278120929047383
 30
0.0
 11
1.4517838777714123
 21
37.483249499953388
 31
0.0
  0
LINE
  5
63
100
AcDbEntity
100
AcDbLine
  8
LAYER_1
 62
256
370
-1
  6
ByLayer
 10
1.4517838777714123
 20
37.483249499953388
 30
0.0
 11
-1.6941627094967304
 21
39.685168424911808
 31
0.0
  0
ENDSEC
  0
SECTION
  2
OBJECTS
  0
DICTIONARY
  5
C
100
AcDbDictionary
280
0
281
1
  3
ACAD_GROUP
350
D
  3
ACAD_LAYOUT
350
1A
  3
ACAD_MLINESTYLE
350
17
  3
ACAD_PLOTSETTINGS
350
19
  3
ACAD_PLOTSTYLENAME
350
E
  3
AcDbVariableDictionary
350
64
  0
DICTIONARY
  5
D
100
AcDbDictionary
280
0
281
1
  0
ACDBDICTIONARYWDFLT
  5
E
100
AcDbDictionary
281
1
  3
Normal
350
F
100
AcDbDictionaryWithDefault
340
F
  0
ACDBPLACEHOLDER
  5
F
  0
DICTIONARY
  5
17
100
AcDbDictionary
280
0
281
1
  3
Standard
350
18
  0
MLINESTYLE
  5
18
100
AcDbMlineStyle
  2
STANDARD
 70
0
  3

 62
256
 51
90.0
 52
90.0
 71
2
 49
0.5
 62
256
  6
BYLAYER
 49
-0.5
 62
256
  6
BYLAYER
  0
DICTIONARY
  5
19
100
AcDbDictionary
280
0
281
1
  0
DICTIONARY
  5
1A
100
AcDbDictionary
281
1
  3
Layout1
350
1E
  3
Layout2
350
26
  3
Model
350
22
  0
LAYOUT
  5
1E
100
AcDbPlotSettings
  1

  2
C:\Program Files\AutoCAD 2002\plotters\DWF ePlot (optimized for plotting).pc3
  4

  6

 40
0.0
 41
0.0
 42
0.0
 43
0.0
 44
0.0
 45
0.0
 46
0.0
 47
0.0
 48
0.0
 49
0.0
140
0.0
141
0.0
142
1.0
143
1.0
 70
688
 72
0
 73
0
 74
5
  7

 75
16
147
1.0
148
0.0
149
0.0
100
AcDbLayout
  1
Layout1
 70
1
 71
1
 10
0.0
 20
0.0
 11
420.0
 21
297.0
 12
0.0
 22
0.0
 32
0.0
 14
100000000000000000000.0
 24
100000000000000000000.0
 34
100000000000000000000.0
 15
-100000000000000000000.0
 25
-100000000000000000000.0
 35
-100000000000000000000.0
146
0.0
 13
0.0
 23
0.0
 33
0.0
 16
1.0
 26
0.0
 36
0.0
 17
0.0
 27
1.0
 37
0.0
 76
0
330
1B
  0
LAYOUT
  5
22
100
AcDbPlotSettings
  1

  2
C:\Program Files\AutoCAD 2002\plotters\DWF ePlot (optimized for plotting).pc3
  4

  6

 40
0.0
 41
0.0
 42
0.0
 43
0.0
 44
0.0
 45
0.0
 46
0.0
 47
0.0
 48
0.0
 49
0.0
140
0.0
141
0.0
142
1.0
143
1.0
 70
1712
 72
0
 73
0
 74
0
  7

 75
0
147
1.0
148
0.0
149
0.0
100
AcDbLayout
  1
Model
 70
1
 71
0
 10
0.0
 20
0.0
 11
12.0
 21
9.0
 12
0.0
 22
0.0
 32
0.0
 14
0.0
 24
0.0
 34
0.0
 15
0.0
 25
0.0
 35
0.0
146
0.0
 13
0.0
 23
0.0
 33
0.0
 16
1.0
 26
0.0
 36
0.0
 17
0.0
 27
1.0
 37
0.0
 76
0
330
1F
  0
LAYOUT
  5
26
100
AcDbPlotSettings
  1

  2
C:\Program Files\AutoCAD 2002\plotters\DWF ePlot (optimized for plotting).pc3
  4

  6

 40
0.0
 41
0.0
 42
0.0
 43
0.0
 44
0.0
 45
0.0
 46
0.0
 47
0.0
 48
0.0
 49
0.0
140
0.0
141
0.0
142
1.0
143
1.0
 70
688
 72
0
 73
0
 74
5
  7

 75
16
147
1.0
148
0.0
149
0.0
100
AcDbLayout
  1
Layout2
 70
1
 71
2
 10
0.0
 20
0.0
 11
12.0
 21
9.0
 12
0.0
 22
0.0
 32
0.0
 14
0.0
 24
0.0
 34
0.0
 15
0.0
 25
0.0
 35
0.0
146
0.0
 13
0.0
 23
0.0
 33
0.0
 16
1.0
 26
0.0
 36
0.0
 17
0.0
 27
1.0
 37
0.0
 76
0
330
23
  0
DICTIONARY
  5
64
100
AcDbDictionary
281
1
  3
DIMASSOC
350
66
  3
HIDETEXT
350
65
  0
DICTIONARYVAR
  5
65
100
DictionaryVariables
280
0
  1
2
  0
DICTIONARYVAR
  5
66
100
DictionaryVariables
280
0
  1
1
  0
ENDSEC
  0
EOF
