999
dxflib 2.0.4.8
  0
SECTION
  2
HEADER
  9
$ACADVER
  1
AC1015
  9
$HANDSEED
  5
FFFF
  9
$DIMTAD
 70
0
  9
$USERR4
 40
0.0
  9
$CLAYER
  8
0
  9
$MENU
  1
.
  9
$CHAMFERA
 40
0.5
  9
$ATTREQ
 70
1
  9
$UCSYDIR
 10
0.0
 20
1.0
 30
0.0
  9
$USERR5
 40
0.0
  9
$SHADEDIF
 70
70
  9
$TILEMODE
 70
1
  9
$VISRETAIN
 70
1
  9
$EXTMIN
 10
-42.330741745994892
 20
-14.110169491525429
 30
0.0
  9
$ORTHOMODE
 70
0
  9
$REGENMODE
 70
1
  9
$TRACEWID
 40
0.05
  9
$DIMASZ
 40
0.18
  9
$CHAMFERB
 40
0.5
  9
$UCSXDIR
 10
1.0
 20
0.0
 30
0.0
  9
$DIMSHO
 70
1
  9
$DIMALT
 70
0
  9
$DIMSAH
 70
0
  9
$DIMTFAC
 40
1.0
  9
$DIMGAP
 40
0.09
  9
$SKETCHINC
 40
0.1
  9
$USRTIMER
 70
1
  9
$ANGBASE
 50
0.0
  9
$PUCSYDIR
 10
0.0
 20
1.0
 30
0.0
  9
$LIMMIN
 10
0.0
 20
0.0
  9
$DIMTSZ
 40
0.0
  9
$SPLFRAME
 70
0
  9
$SURFTYPE
 70
6
  9
$PUCSXDIR
 10
1.0
 20
0.0
 30
0.0
  9
$DWGCODEPAGE
  3
ansi_1252
  9
$LUNITS
 70
2
  9
$AUPREC
 70
0
  9
$SPLINESEGS
 70
8
  9
$SURFTAB1
 70
6
  9
$INSBASE
 10
0.0
 20
0.0
 30
0.0
  9
$DIMRND
 40
0.0
  9
$DIMCEN
 40
0.09
  9
$ELEVATION
 40
0.0
  9
$SKPOLY
 70
0
  9
$SURFTAB2
 70
6
  9
$USERI1
 70
0
  9
$UNITMODE
 70
0
  9
$INSUNITS
 70
4
  9
$EXTMAX
 10
37.617536266542849
 20
14.11016949152542
 30
0.0
  9
$FILLMODE
 70
1
  9
$DRAGMODE
 70
2
  9
$TEXTSIZE
 40
0.2
  9
$DIMEXO
 40
0.0625
  9
$PELEVATION
 40
0.0
  9
$UCSORG
 10
0.0
 20
0.0
 30
0.0
  9
$USERI2
 70
0
  9
$DIMSCALE
 40
1.0
  9
$DIMDLE
 40
0.0
  9
$DIMZIN
 70
0
  9
$TDUSRTIMER
 40
0.0000000116
  9
$ANGDIR
 70
0
  9
$SURFU
 70
6
  9
$USERI3
 70
0
  9
$LIMMAX
 10
12.0
 20
9.0
  9
$QTEXTMODE
 70
0
  9
$OSMODE
 70
37
  9
$SURFV
 70
6
  9
$USERI4
 70
0
  9
$WORLDVIEW
 70
1
  9
$ATTMODE
 70
1
  9
$DIMTXT
 40
0.18
  9
$DIMLIM
 70
0
  9
$DIMSE1
 70
0
  9
$THICKNESS
 40
0.0
  9
$LIMCHECK
 70
0
  9
$PDMODE
 70
0
  9
$HANDLING
 70
1
  9
$USERI5
 70
0
  9
$CELTYPE
  6
BYLAYER
  9
$DIMTOH
 70
1
  9
$DIMSE2
 70
0
  9
$DIMLFAC
 40
1.0
  9
$DIMSOXD
 70
0
  9
$LUPREC
 70
4
  9
$TDINDWG
 40
0.0000000116
  9
$SPLINETYPE
 70
6
  9
$PUCSORG
 10
0.0
 20
0.0
 30
0.0
  9
$PEXTMIN
 10
100000000000000000000.0
 20
100000000000000000000.0
 30
100000000000000000000.0
  9
$PEXTMAX
 10
-100000000000000000000.0
 20
-100000000000000000000.0
 30
-100000000000000000000.0
  9
$CECOLOR
 62
256
  9
$DIMDLI
 40
0.38
  9
$DIMTM
 40
0.0
  9
$DIMASO
 70
1
  9
$DIMTVP
 40
0.0
  9
$DIMSTYLE
  2
STANDARD
  9
$PLINEWID
 40
0.0
  9
$PLIMCHECK
 70
0
  9
$LTSCALE
 40
1.0
  9
$DIMTIH
 70
1
  9
$DIMALTD
 70
2
  9
$DIMCLRT
 70
0
  9
$FILLETRAD
 40
0.5
  9
$TDUPDATE
 40
2456286.3588404399
  9
$MAXACTVP
 70
64
  9
$PLIMMIN
 10
0.0
 20
0.0
  9
$PLIMMAX
 10
12.0
 20
9.0
  9
$DIMEXE
 40
0.18
  9
$DIMCLRD
 70
0
  9
$PDSIZE
 40
0.0
  9
$ATTDIA
 70
0
  9
$USERR1
 40
0.0
  9
$TEXTSTYLE
  7
STANDARD
  9
$DIMTP
 40
0.0
  9
$DIMTOL
 70
0
  9
$DIMALTF
 40
25.399999999999999
  9
$DIMTOFL
 70
0
  9
$DIMCLRE
 70
0
  9
$TDCREATE
 40
2454910.5
  9
$COORDS
 70
1
  9
$USERR2
 40
0.0
  9
$SHADEDGE
 70
3
  9
$PLINEGEN
 70
0
  9
$PSLTSCALE
 70
1
  9
$MIRRTEXT
 70
1
  9
$DIMTIX
 70
0
  9
$AUNITS
 70
0
  9
$USERR3
 40
0.0
  0
ENDSEC
  0
SECTION
  2
TABLES
  0
TABLE
  2
VPORT
  5
8
100
AcDbSymbolTable
 70
1
  0
VPORT
  5
30
100
AcDbSymbolTableRecord
100
AcDbViewportTableRecord
  2
*Active
 70
0
 10
0.0
 20
0.0
 11
1.0
 21
1.0
 12
286.30555555555549
 22
148.5
 13
0.0
 23
0.0
 14
10.0
 24
10.0
 15
10.0
 25
10.0
 16
0.0
 26
0.0
 36
1.0
 17
0.0
 27
0.0
 37
0.0
 40
297.0
 41
1.92798353909465
 42
50.0
 43
0.0
 44
0.0
 50
0.0
 51
0.0
 71
0
 72
100
 73
1
 74
3
 75
1
 76
1
 77
0
 78
0
281
0
 65
1
110
0.0
120
0.0
130
0.0
111
1.0
121
0.0
131
0.0
112
0.0
122
1.0
132
0.0
 79
0
146
0.0
  0
ENDTAB
  0
TABLE
  2
LTYPE
  5
5
100
AcDbSymbolTable
 70
21
  0
LTYPE
  5
14
100
AcDbSymbolTableRecord
100
AcDbLinetypeTableRecord
  2
ByBlock
 70
0
  3

 72
65
 73
0
 40
0.0
  0
LTYPE
  5
15
100
AcDbSymbolTableRecord
100
AcDbLinetypeTableRecord
  2
ByLayer
 70
0
  3

 72
65
 73
0
 40
0.0
  0
LTYPE
  5
16
100
AcDbSymbolTableRecord
100
AcDbLinetypeTableRecord
  2
CONTINUOUS
 70
0
  3
Solid line
 72
65
 73
0
 40
0.0
  0
LTYPE
  5
31
100
AcDbSymbolTableRecord
100
AcDbLinetypeTableRecord
  2
DOT
 70
0
  3
Dot . . . . . . . . . . . . . . . . . . . . . .
 72
65
 73
2
 40
6.3499999999999996
 49
0.0
 74
0
 49
-6.3499999999999996
 74
0
  0
LTYPE
  5
32
100
AcDbSymbolTableRecord
100
AcDbLinetypeTableRecord
  2
DOT2
 70
0
  3
Dot (.5x) .....................................
 72
65
 73
2
 40
3.1749999999999998
 49
0.0
 74
0
 49
-3.1749999999999998
 74
0
  0
LTYPE
  5
33
100
AcDbSymbolTableRecord
100
AcDbLinetypeTableRecord
  2
DOTX2
 70
0
  3
Dot (2x) .  .  .  .  .  .  .  .  .  .  .  .  .
 72
65
 73
2
 40
12.699999999999999
 49
0.0
 74
0
 49
-12.699999999999999
 74
0
  0
LTYPE
  5
34
100
AcDbSymbolTableRecord
100
AcDbLinetypeTableRecord
  2
DASHED
 70
0
  3
Dashed __ __ __ __ __ __ __ __ __ __ __ __ __ _
 72
65
 73
2
 40
19.050000000000001
 49
12.699999999999999
 74
0
 49
-6.3499999999999996
 74
0
  0
LTYPE
  5
35
100
AcDbSymbolTableRecord
100
AcDbLinetypeTableRecord
  2
DASHED2
 70
0
  3
Dashed (.5x) _ _ _ _ _ _ _ _ _ _ _ _ _ _ _ _ _
 72
65
 73
2
 40
9.5250000000000004
 49
6.3499999999999996
 74
0
 49
-3.1749999999999998
 74
0
  0
LTYPE
  5
36
100
AcDbSymbolTableRecord
100
AcDbLinetypeTableRecord
  2
DASHEDX2
 70
0
  3
Dashed (2x) ____  ____  ____  ____  ____  ___
 72
65
 73
2
 40
38.100000000000001
 49
25.399999999999999
 74
0
 49
-12.699999999999999
 74
0
  0
LTYPE
  5
37
100
AcDbSymbolTableRecord
100
AcDbLinetypeTableRecord
  2
DASHDOT
 70
0
  3
Dash dot __ . __ . __ . __ . __ . __ . __ . __
 72
65
 73
4
 40
25.399999999999999
 49
12.699999999999999
 74
0
 49
-6.3499999999999996
 74
0
 49
0.0
 74
0
 49
-6.3499999999999996
 74
0
  0
LTYPE
  5
38
100
AcDbSymbolTableRecord
100
AcDbLinetypeTableRecord
  2
DASHDOT2
 70
0
  3
Dash dot (.5x) _._._._._._._._._._._._._._._.
 72
65
 73
4
 40
12.699999999999999
 49
6.3499999999999996
 74
0
 49
-3.1749999999999998
 74
0
 49
0.0
 74
0
 49
-3.1749999999999998
 74
0
  0
LTYPE
  5
39
100
AcDbSymbolTableRecord
100
AcDbLinetypeTableRecord
  2
DASHDOTX2
 70
0
  3
Dash dot (2x) ____  .  ____  .  ____  .  ___
 72
65
 73
4
 40
50.799999999999997
 49
25.399999999999999
 74
0
 49
-12.699999999999999
 74
0
 49
0.0
 74
0
 49
-12.699999999999999
 74
0
  0
LTYPE
  5
3A
100
AcDbSymbolTableRecord
100
AcDbLinetypeTableRecord
  2
DIVIDE
 70
0
  3
Divide ____ . . ____ . . ____ . . ____ . . ____
 72
65
 73
6
 40
31.75
 49
12.699999999999999
 74
0
 49
-6.3499999999999996
 74
0
 49
0.0
 74
0
 49
-6.3499999999999996
 74
0
 49
0.0
 74
0
 49
-6.3499999999999996
 74
0
  0
LTYPE
  5
3B
100
AcDbSymbolTableRecord
100
AcDbLinetypeTableRecord
  2
DIVIDE2
 70
0
  3
Divide (.5x) __..__..__..__..__..__..__..__.._
 72
65
 73
6
 40
15.875
 49
6.3499999999999996
 74
0
 49
-3.1749999999999998
 74
0
 49
0.0
 74
0
 49
-3.1749999999999998
 74
0
 49
0.0
 74
0
 49
-3.1749999999999998
 74
0
  0
LTYPE
  5
3C
100
AcDbSymbolTableRecord
100
AcDbLinetypeTableRecord
  2
DIVIDEX2
 70
0
  3
Divide (2x) ________  .  .  ________  .  .  _
 72
65
 73
6
 40
63.5
 49
25.399999999999999
 74
0
 49
-12.699999999999999
 74
0
 49
0.0
 74
0
 49
-12.699999999999999
 74
0
 49
0.0
 74
0
 49
-12.699999999999999
 74
0
  0
LTYPE
  5
3D
100
AcDbSymbolTableRecord
100
AcDbLinetypeTableRecord
  2
CENTER
 70
0
  3
Center ____ _ ____ _ ____ _ ____ _ ____ _ ____
 72
65
 73
4
 40
50.799999999999997
 49
31.75
 74
0
 49
-6.3499999999999996
 74
0
 49
6.3499999999999996
 74
0
 49
-6.3499999999999996
 74
0
  0
LTYPE
  5
3E
100
AcDbSymbolTableRecord
100
AcDbLinetypeTableRecord
  2
CENTER2
 70
0
  3
Center (.5x) ___ _ ___ _ ___ _ ___ _ ___ _ ___
 72
65
 73
4
 40
28.574999999999999
 49
19.050000000000001
 74
0
 49
-3.1749999999999998
 74
0
 49
3.1749999999999998
 74
0
 49
-3.1749999999999998
 74
0
  0
LTYPE
  5
3F
100
AcDbSymbolTableRecord
100
AcDbLinetypeTableRecord
  2
CENTERX2
 70
0
  3
Center (2x) ________  __  ________  __  _____
 72
65
 73
4
 40
101.59999999999999
 49
63.5
 74
0
 49
-12.699999999999999
 74
0
 49
12.699999999999999
 74
0
 49
-12.699999999999999
 74
0
  0
LTYPE
  5
40
100
AcDbSymbolTableRecord
100
AcDbLinetypeTableRecord
  2
BORDER
 70
0
  3
Border __ __ . __ __ . __ __ . __ __ . __ __ .
 72
65
 73
6
 40
44.450000000000003
 49
12.699999999999999
 74
0
 49
-6.3499999999999996
 74
0
 49
12.699999999999999
 74
0
 49
-6.3499999999999996
 74
0
 49
0.0
 74
0
 49
-6.3499999999999996
 74
0
  0
LTYPE
  5
41
100
AcDbSymbolTableRecord
100
AcDbLinetypeTableRecord
  2
BORDER2
 70
0
  3
Border (.5x) __.__.__.__.__.__.__.__.__.__.__.
 72
65
 73
6
 40
22.225000000000001
 49
6.3499999999999996
 74
0
 49
-3.1749999999999998
 74
0
 49
6.3499999999999996
 74
0
 49
-3.1749999999999998
 74
0
 49
0.0
 74
0
 49
-3.1749999999999998
 74
0
  0
LTYPE
  5
42
100
AcDbSymbolTableRecord
100
AcDbLinetypeTableRecord
  2
BORDERX2
 70
0
  3
Border (2x) ____  ____  .  ____  ____  .  ___
 72
65
 73
6
 40
88.900000000000006
 49
25.399999999999999
 74
0
 49
-12.699999999999999
 74
0
 49
25.399999999999999
 74
0
 49
-12.699999999999999
 74
0
 49
0.0
 74
0
 49
-12.699999999999999
 74
0
  0
ENDTAB
  0
TABLE
  2
LAYER
  5
2
100
AcDbSymbolTable
 70
2
  0
LAYER
  5
10
100
AcDbSymbolTableRecord
100
AcDbLayerTableRecord
  2
0
 70
0
 62
7
  6
CONTINUOUS
390
F
  0
LAYER
  5
43
100
AcDbSymbolTableRecord
100
AcDbLayerTableRecord
  2
LAYER_1
 70
0
 62
18
  6
CONTINUOUS
390
F
  0
ENDTAB
  0
TABLE
  2
STYLE
  5
3
100
AcDbSymbolTable
 70
1
  0
STYLE
  5
11
100
AcDbSymbolTableRecord
100
AcDbTextStyleTableRecord
  2
Standard
 70
0
 40
0.0
 41
0.75
 50
0.0
 71
0
 42
2.5
  3
txt
  4

  0
ENDTAB
  0
TABLE
  2
VIEW
  5
6
100
AcDbSymbolTable
 70
0
  0
ENDTAB
  0
TABLE
  2
UCS
  5
7
100
AcDbSymbolTable
 70
0
  0
ENDTAB
  0
TABLE
  2
APPID
  5
9
100
AcDbSymbolTable
 70
1
  0
APPID
  5
12
100
AcDbSymbolTableRecord
100
AcDbRegAppTableRecord
  2
ACAD
 70
0
  0
ENDTAB
  0
TABLE
  2
DIMSTYLE
  5
A
100
AcDbSymbolTable
 70
1
100
AcDbDimStyleTable
 71
0
  0
DIMSTYLE
105
27
100
AcDbSymbolTableRecord
100
AcDbDimStyleTableRecord
  2
Standard
 41
0.18
 42
0.0625
 43
3.75
 44
0.18
 70
0
 73
0
 74
0
 77
1
 78
8
140
0.18
141
2.5
143
0.03937007874016
147
0.09
171
3
172
1
271
2
272
2
274
3
278
44
283
0
284
8
340
11
  0
ENDTAB
  0
TABLE
  2
BLOCK_RECORD
  5
1
100
AcDbSymbolTable
 70
1
  0
BLOCK_RECORD
  5
1F
100
AcDbSymbolTableRecord
100
AcDbBlockTableRecord
  2
*Model_Space
340
22
  0
BLOCK_RECORD
  5
1B
100
AcDbSymbolTableRecord
100
AcDbBlockTableRecord
  2
*Paper_Space
340
1E
  0
BLOCK_RECORD
  5
23
100
AcDbSymbolTableRecord
100
AcDbBlockTableRecord
  2
*Paper_Space0
340
26
  0
ENDTAB
  0
ENDSEC
  0
SECTION
  2
BLOCKS
  0
BLOCK
  5
20
100
AcDbEntity
  8
0
100
AcDbBlockBegin
  2
*Model_Space
 70
0
 10
0.0
 20
0.0
 30
0.0
  3
*Model_Space
  1

  0
ENDBLK
  5
21
100
AcDbEntity
  8
0
100
AcDbBlockEnd
  0
BLOCK
  5
1C
100
AcDbEntity
 67
1
  8
0
100
AcDbBlockBegin
  2
*Paper_Space
 70
0
 10
0.0
 20
0.0
 30
0.0
  3
*Paper_Space
  1

  0
ENDBLK
  5
1D
100
AcDbEntity
 67
1
  8
0
100
AcDbBlockEnd
  0
BLOCK
  5
24
100
AcDbEntity
  8
0
100
AcDbBlockBegin
  2
*Paper_Space0
 70
0
 10
0.0
 20
0.0
 30
0.0
  3
*Paper_Space0
  1

  0
ENDBLK
  5
25
100
AcDbEntity
  8
0
100
AcDbBlockEnd
  0
ENDSEC
  0
SECTION
  2
ENTITIES
  0
LWPOLYLINE
  5
44
  8
LAYER_1
 62
256
370
-1
  6
ByLayer
100
AcDbEntity
100
AcDbPolyline
 90
58
 70
1
 10
-24.729872881355931
 20
-0.8474576271186476
 10
-24.720603813559311
 20
-1.108315677966105
 10
-24.692796610169491
 20
-1.3612288135593249
 10
-24.67061705508474
 20
-1.4823887711864441
 10
-24.641154661016952
 20
-1.596927966101698
 10
-24.6044094279661
 20
-1.7048463983050881
 10
-24.560381355932201
 20
-1.806144067796613
 10
-24.508739406779661
 20
-1.8994968220339019
 10
-24.449152542372879
 20
-1.9835805084745799
 10
-24.381620762711862
 20
-2.058395127118648
 10
-24.306144067796609
 20
-2.1239406779661052
 10
-24.22139830508474
 20
-2.177237817796613
 10
-24.126059322033889
 20
-2.215307203389834
 10
-24.020127118644069
 20
-2.2381488347457661
 10
-23.903601694915249
 20
-2.2457627118644101
 10
-23.806773040254239
 20
-2.2404661016949192
 10
-23.71226165254237
 20
-2.2245762711864439
 10
-23.620067531779661
 20
-2.1980932203389858
 10
-23.5301906779661
 20
-2.1610169491525459
 10
-23.442631091101699
 20
-2.1133474576271221
 10
-23.357388771186439
 20
-2.055084745762715
 10
-23.274463718220339
 20
-1.986228813559326
 10
-23.19385593220338
 20
-1.906779661016953
 10
-23.040254237288131
 20
-1.7286811440678
 10
-22.897245762711862
 20
-1.5333686440678
 10
-22.764830508474571
 20
-1.320842161016953
 10
-22.64300847457627
 20
-1.0911016949152581
 10
-22.53211069915254
 20
-0.8507680084745796
 10
-22.432468220338979
 20
-0.606461864406783
 10
-22.344081038135592
 20
-0.3581832627118678
 10
-22.26694915254237
 20
-0.105932203389834
 10
-22.14909957627118
 20
0.3601694915254209
 10
-22.109043961864401
 20
0.5614406779660988
 10
-22.08156779661017
 20
0.7415254237288105
 10
-21.435381355932201
 20
3.8559322033898269
 10
-21.651218220338979
 20
3.8423596398305051
 10
-21.86440677966101
 20
3.8016419491525388
 10
-22.074947033898301
 20
3.733779131355929
 10
-22.282838983050841
 20
3.6387711864406751
 10
-22.486427436440671
 20
3.5205905720338948
 10
-22.68405720338983
 20
3.3832097457627088
 10
-22.875728283898301
 20
3.2266287076271158
 10
-23.0614406779661
 20
3.0508474576271158
 10
-23.240532309322031
 20
2.858845338983047
 10
-23.41234110169491
 20
2.6536016949152512
 10
-23.57686705508474
 20
2.4351165254237261
 10
-23.734110169491519
 20
2.2033898305084718
 10
-23.882415254237291
 20
1.962063029661014
 10
-24.020127118644059
 20
1.7147775423728779
 10
-24.147245762711862
 20
1.4615333686440639
 10
-24.263771186440671
 20
1.202330508474573
 10
-24.36871027542373
 20
0.9398172669491491
 10
-24.461069915254239
 20
0.676641949152539
 10
-24.540850105932201
 20
0.4128045550847425
 10
-24.608050847457619
 20
0.1483050847457594
 10
-24.661347987288131
 20
-0.1125529661016982
 10
-24.699417372881349
 20
-0.3654661016949186
 10
-24.72225900423728
 20
-0.6104343220339019
  0
LWPOLYLINE
  5
45
  8
LAYER_1
 62
256
370
-1
  6
ByLayer
100
AcDbEntity
100
AcDbPolyline
 90
58
 70
1
 10
4.301858300441161
 20
-0.8474576271186476
 10
4.3111273682377718
 20
-1.108315677966105
 10
4.3389345716276022
 20
-1.3612288135593249
 10
4.3611141267123479
 20
-1.4823887711864441
 10
4.3905765207801446
 20
-1.596927966101698
 10
4.4273217538309932
 20
-1.7048463983050881
 10
4.4713498258648912
 20
-1.806144067796613
 10
4.5229917750174344
 20
-1.8994968220339019
 10
4.582578639424213
 20
-1.9835805084745799
 10
4.6501104190852294
 20
-2.058395127118648
 10
4.7255871140004828
 20
-2.1239406779661052
 10
4.8103328767123479
 20
-2.177237817796613
 10
4.9056718597631956
 20
-2.215307203389834
 10
5.0116040631530261
 20
-2.2381488347457661
 10
5.1281294868818392
 20
-2.2457627118644101
 10
5.2249581415428574
 20
-2.2404661016949192
 10
5.3194695292547216
 20
-2.2245762711864439
 10
5.4116636500174327
 20
-2.1980932203389858
 10
5.5015405038309924
 20
-2.1610169491525459
 10
5.5891000906953998
 20
-2.1133474576271221
 10
5.6743424106106541
 20
-2.055084745762715
 10
5.7572674635767553
 20
-1.986228813559326
 10
5.8378752495937043
 20
-1.906779661016953
 10
5.9914769445089577
 20
-1.7286811440678
 10
6.1344854190852294
 20
-1.5333686440678
 10
6.2669006733225174
 20
-1.320842161016953
 10
6.3887227072208237
 20
-1.0911016949152581
 10
6.4996204826445521
 20
-0.8507680084745796
 10
6.5992629614581109
 20
-0.606461864406783
 10
6.687650143661501
 20
-0.3581832627118678
 10
6.7647820292547216
 20
-0.105932203389834
 10
6.8826316055259076
 20
0.3601694915254209
 10
6.922687219932687
 20
0.5614406779660988
 10
6.950163385186924
 20
0.7415254237288105
 10
7.5963498258648912
 20
3.8559322033898269
 10
7.3805129614581109
 20
3.8423596398305051
 10
7.167324402136078
 20
3.8016419491525388
 10
6.9567841478987891
 20
3.733779131355929
 10
6.7488921987462458
 20
3.6387711864406751
 10
6.5453037453564153
 20
3.5205905720338948
 10
6.3476739784072631
 20
3.3832097457627088
 10
6.1560028978987882
 20
3.2266287076271158
 10
5.9702905038309906
 20
3.0508474576271158
 10
5.7911988724750598
 20
2.858845338983047
 10
5.6193900801021792
 20
2.6536016949152512
 10
5.4548641267123479
 20
2.4351165254237261
 10
5.2976210123055694
 20
2.2033898305084718
 10
5.1493159275598064
 20
1.962063029661014
 10
5.0116040631530261
 20
1.7147775423728779
 10
4.8844854190852303
 20
1.4615333686440639
 10
4.7679599953564171
 20
1.202330508474573
 10
4.6630209063733661
 20
0.9398172669491491
 10
4.5706612665428574
 20
0.676641949152539
 10
4.4908810758648912
 20
0.4128045550847425
 10
4.4236803343394673
 20
0.1483050847457594
 10
4.3703831945089586
 20
-0.1125529661016982
 10
4.3323138089157371
 20
-0.3654661016949186
 10
4.3094721775598046
 20
-0.6104343220339019
  0
LWPOLYLINE
  5
46
  8
LAYER_1
 62
256
370
-1
  6
ByLayer
100
AcDbEntity
100
AcDbPolyline
 90
72
 70
1
 10
15.329400673322519
 20
-2.2457627118644101
 10
15.41911200806828
 20
-2.240052304025427
 10
15.50816126654286
 20
-2.222921080508478
 10
15.596548448746249
 20
-2.1943690413135628
 10
15.68427355467845
 20
-2.1543961864406809
 10
15.771336584339471
 20
-2.103002515889834
 10
15.8577375377293
 20
-2.04018802966102
 10
15.94347641484794
 20
-1.965952727754241
 10
16.0285532156954
 20
-1.8802966101694949
 10
16.192748130949639
 20
-1.6856461864406811
 10
16.346349825864891
 20
-1.467161016949156
 10
16.489358300441161
 20
-1.224841101694919
 10
16.621773554678452
 20
-0.9586864406779698
 10
16.742602474169981
 20
-0.6733315677966136
 10
16.85085194450896
 20
-0.373411016949156
 10
16.9465219656954
 20
-0.0589247881355967
 10
17.0296125377293
 20
0.2701271186440639
 10
17.096813279254729
 20
0.6028204449152504
 10
17.144813808915739
 20
0.9282309322033863
 10
17.173614126712351
 20
1.2463585805084709
 10
17.183214232644549
 20
1.5572033898305051
 10
17.178579698746251
 20
1.796543961864403
 10
17.164676097051331
 20
2.0272775423728779
 10
17.141503427559801
 20
2.249404131355929
 10
17.10906169027167
 20
2.4629237288135561
 10
17.067350885186929
 20
2.6651880296610142
 10
17.016371012305569
 20
2.8535487288135561
 10
16.9561220716276
 20
3.0280058262711829
 10
16.88660406315303
 20
3.1885593220338939
 10
16.807154910610659
 20
3.3342161016949121
 10
16.7171125377293
 20
3.4639830508474549
 10
16.61647694450896
 20
3.577860169491522
 10
16.505248130949639
 20
3.6758474576271158
 10
16.382764020780151
 20
3.7546345338983032
 10
16.2483625377293
 20
3.81091101694915
 10
16.102043681797099
 20
3.8446769067796569
 10
15.943807452983529
 20
3.8559322033898269
 10
15.835889020780151
 20
3.8501390360169458
 10
15.72929474111913
 20
3.8327595338983018
 10
15.624024614000479
 20
3.8037936970338948
 10
15.520078639424209
 20
3.7632415254237248
 10
15.41745681739031
 20
3.7111030190677932
 10
15.316159147898791
 20
3.647378177966099
 10
15.21618563094964
 20
3.5720670021186409
 10
15.11753626654286
 20
3.4851694915254199
 10
14.92752037671235
 20
3.2868776483050808
 10
14.749421859763199
 20
3.0627648305084709
 10
14.5832407156954
 20
2.8128310381355899
 10
14.42897694450896
 20
2.5370762711864381
 10
14.288616775017431
 20
2.2407971398305051
 10
14.164146436034381
 20
1.929290254237285
 10
14.05556592755981
 20
1.602555614406777
 10
13.962875249593701
 20
1.26059322033898
 10
13.888722707220831
 20
0.9143273305084716
 10
13.83575660552591
 20
0.5746822033898273
 10
13.80397694450896
 20
0.2416578389830476
 10
13.793383724169979
 20
-0.0847457627118677
 10
13.798680334339471
 20
-0.3038930084745794
 10
13.81457016484794
 20
-0.5164194915254268
 10
13.8410532156954
 20
-0.7223252118644099
 10
13.878129486881839
 20
-0.9216101694915286
 10
13.92646105467845
 20
-1.1112950211864441
 10
13.986709995356421
 20
-1.2884004237288169
 10
14.058876308915741
 20
-1.452926377118648
 10
14.142959995356421
 20
-1.6048728813559361
 10
14.24028520722082
 20
-1.7432468220339019
 10
14.352176097051331
 20
-1.8670550847457661
 10
14.47863266484794
 20
-1.9762976694915291
 10
14.619654910610659
 20
-2.07097457627119
 10
14.775242834339471
 20
-2.1474443855932228
 10
14.945396436034381
 20
-2.2020656779661052
 10
15.1301157156954
 20
-2.234838453389834
  0
LWPOLYLINE
  5
47
  8
LAYER_1
 62
256
370
-1
  6
ByLayer
100
AcDbEntity
100
AcDbPolyline
 90
58
 70
1
 10
23.380248130949632
 20
-0.8474576271186476
 10
23.38951719874624
 20
-1.108315677966105
 10
23.417324402136071
 20
-1.3612288135593249
 10
23.439503957220818
 20
-1.4823887711864441
 10
23.468966351288611
 20
-1.596927966101698
 10
23.505711584339469
 20
-1.7048463983050881
 10
23.549739656373362
 20
-1.806144067796613
 10
23.601381605525901
 20
-1.8994968220339019
 10
23.66096846993268
 20
-1.9835805084745799
 10
23.728500249593701
 20
-2.058395127118648
 10
23.80397694450895
 20
-2.1239406779661052
 10
23.888722707220811
 20
-2.177237817796613
 10
23.98406169027167
 20
-2.215307203389834
 10
24.089993893661489
 20
-2.2381488347457661
 10
24.20651931739031
 20
-2.2457627118644101
 10
24.303347972051331
 20
-2.2404661016949192
 10
24.397859359763189
 20
-2.2245762711864439
 10
24.490053480525901
 20
-2.1980932203389858
 10
24.579930334339458
 20
-2.1610169491525459
 10
24.66748992120387
 20
-2.1133474576271221
 10
24.752732241119119
 20
-2.055084745762715
 10
24.83565729408522
 20
-1.986228813559326
 10
24.916265080102171
 20
-1.906779661016953
 10
25.06986677501742
 20
-1.7286811440678
 10
25.21287524959369
 20
-1.5333686440678
 10
25.345290503830991
 20
-1.320842161016953
 10
25.467112537729289
 20
-1.0911016949152581
 10
25.578010313153019
 20
-0.8507680084745796
 10
25.67765279196658
 20
-0.606461864406783
 10
25.766039974169971
 20
-0.3581832627118678
 10
25.843171859763189
 20
-0.105932203389834
 10
25.961021436034379
 20
0.3601694915254209
 10
26.00107705044115
 20
0.5614406779660988
 10
26.028553215695389
 20
0.7415254237288105
 10
26.674739656373362
 20
3.8559322033898269
 10
26.45890279196658
 20
3.8423596398305051
 10
26.245714232644541
 20
3.8016419491525388
 10
26.035173978407251
 20
3.733779131355929
 10
25.827282029254711
 20
3.6387711864406751
 10
25.623693575864891
 20
3.5205905720338948
 10
25.426063808915728
 20
3.3832097457627088
 10
25.234392728407261
 20
3.2266287076271158
 10
25.048680334339458
 20
3.0508474576271158
 10
24.869588702983531
 20
2.858845338983047
 10
24.697779910610649
 20
2.6536016949152512
 10
24.533253957220818
 20
2.4351165254237261
 10
24.37601084281404
 20
2.2033898305084718
 10
24.227705758068279
 20
1.962063029661014
 10
24.0899938936615
 20
1.7147775423728779
 10
23.962875249593701
 20
1.4615333686440639
 10
23.846349825864881
 20
1.202330508474573
 10
23.741410736881829
 20
0.9398172669491491
 10
23.649051097051331
 20
0.676641949152539
 10
23.569270906373362
 20
0.4128045550847425
 10
23.50207016484794
 20
0.1483050847457594
 10
23.448773025017431
 20
-0.1125529661016982
 10
23.410703639424209
 20
-0.3654661016949186
 10
23.387862008068279
 20
-0.6104343220339019
  0
LWPOLYLINE
  5
48
  8
LAYER_1
 62
256
370
-1
  6
ByLayer
100
AcDbEntity
100
AcDbPolyline
 90
1526
 70
1
 10
-34.470572254469467
 20
14.11016949152542
 10
-33.871393229045736
 20
14.099245233050841
 10
-33.270890051079633
 20
14.066472457627111
 10
-32.669062720571162
 20
14.011851165254241
 10
-32.065911237520311
 20
13.935381355932201
 10
-31.468056364638951
 20
13.839049258474571
 10
-30.882118864638951
 20
13.72484110169491
 10
-30.308098737520311
 20
13.59275688559322
 10
-29.74599598328302
 20
13.44279661016949
 10
-29.19912098328302
 20
13.27562235169491
 10
-28.670784118876242
 20
13.091896186440669
 10
-28.160985390062681
 20
12.89161811440678
 10
-27.669724796842349
 20
12.67478813559322
 10
-27.203292063791501
 20
12.44372351694915
 10
-26.767976915486411
 20
12.200741525423719
 10
-26.363779351927089
 20
11.945842161016939
 10
-25.990699373113529
 20
11.67902542372881
 10
-25.81673883285929
 20
11.54123079978813
 10
-25.652378398537259
 20
11.40062235169491
 10
-25.497618070147428
 20
11.25720007944915
 10
-25.352457847689799
 20
11.110963983050841
 10
-25.21689773116438
 20
10.9619140625
 10
-25.090937720571159
 20
10.810050317796611
 10
-24.974577815910141
 20
10.655372748940669
 10
-24.867818017181332
 20
10.497881355932201
 10
-24.772230755528788
 20
10.33815545550847
 10
-24.689388462096581
 20
10.17677436440678
 10
-24.619291136884719
 20
10.013738082627119
 10
-24.56193877989319
 20
9.8490466101694878
 10
-24.51733139112201
 20
9.6826999470338961
 10
-24.485468970571159
 20
9.5146980932203356
 10
-24.46635151824065
 20
9.3450410487288114
 10
-24.45997903413048
 20
9.17372881355932
 10
-24.465523922901671
 20
8.9701403601694878
 10
-24.482158589215221
 20
8.7672139830508442
 10
-24.509883033071159
 20
8.5649496822033875
 10
-24.548697254469459
 20
8.3633474576271158
 10
-24.598601253410141
 20
8.1624073093220311
 10
-24.65959502989319
 20
7.9621292372881332
 10
-24.731678583918619
 20
7.7625132415254203
 10
-24.814851915486411
 20
7.5635593220338961
 10
-24.909859860401671
 20
7.3673364671610164
 10
-25.017447254469459
 20
7.1759136652542352
 10
-25.137614097689799
 20
6.989290916313557
 10
-25.270360390062681
 20
6.8074682203389809
 10
-25.41568613158811
 20
6.6304455773305051
 10
-25.573591322266079
 20
6.4582229872881323
 10
-25.744075962096581
 20
6.2908004502118606
 10
-25.927140051079629
 20
6.128177966101692
 10
-26.123114627350819
 20
5.9715141684322006
 10
-26.33233072904574
 20
5.8219676906779636
 10
-26.55478835616438
 20
5.6795385328389791
 10
-26.79048750870675
 20
5.5442266949152508
 10
-27.039428186672851
 20
5.4160321769067759
 10
-27.301610390062681
 20
5.2949549788135561
 10
-27.577034118876249
 20
5.1809951006355899
 10
-27.865699373113529
 20
5.0741525423728788
 10
-28.168350988579629
 20
4.9768273305084696
 10
-28.485733801079629
 20
4.8914194915254203
 10
-28.817847810613529
 20
4.8179290254237248
 10
-29.164693017181332
 20
4.7563559322033866
 10
-29.52626942078302
 20
4.706700211864403
 10
-29.902577021418619
 20
4.6689618644067767
 10
-30.2936158190881
 20
4.6431408898305051
 10
-30.699385813791491
 20
4.6292372881355899
 10
-30.441341587096581
 20
4.6240234374999956
 10
-30.191573313791501
 20
4.608381885593217
 10
-29.950080993876242
 20
4.5823126324152508
 10
-29.716864627350819
 20
4.5458156779660994
 10
-29.491924214215231
 20
4.4988910222457594
 10
-29.275259754469459
 20
4.4415386652542344
 10
-29.066871248113529
 20
4.3737586069915224
 10
-28.866758695147428
 20
4.2955508474576236
 10
-28.674756576503359
 20
4.2084878177966081
 10
-28.490699373113529
 20
4.1141419491525397
 10
-28.314587084977941
 20
4.0125132415254203
 10
-28.146419712096581
 20
3.9036016949152512
 10
-27.986197254469459
 20
3.7874073093220302
 10
-27.833919712096581
 20
3.663930084745759
 10
-27.689587084977941
 20
3.5331700211864372
 10
-27.553199373113529
 20
3.3951271186440639
 10
-27.424922095571159
 20
3.250711731991522
 10
-27.304920771418619
 20
3.100834216101692
 10
-27.19319540065591
 20
2.945494570974573
 10
-27.08974598328302
 20
2.784692796610166
 10
-26.994572519299972
 20
2.6184288930084709
 10
-26.90767500870675
 20
2.4467028601694891
 10
-26.829053451503359
 20
2.269514698093217
 10
-26.758707847689799
 20
2.0868644067796578
 10
-26.674489909128141
 20
1.813998285839868
 10
-26.604872881355931
 20
1.9650423728813531
 10
-26.39996027542373
 20
2.3593087923728788
 10
-26.177171610169491
 20
2.7423199152542339
 10
-25.936506885593221
 20
3.1140757415254199
 10
-25.67796610169491
 20
3.4745762711864381
 10
-25.404197563559318
 20
3.8181938559322002
 10
-25.11784957627118
 20
4.1393008474576236
 10
-24.818922139830509
 20
4.4378972457627093
 10
-24.50741525423728
 20
4.7139830508474549
 10
-24.185315148305079
 20
4.9652409957627093
 10
-23.85460805084745
 20
5.1893538135593191
 10
-23.515293961864401
 20
5.3863215042372854
 10
-23.167372881355931
 20
5.5561440677966072
 10
-22.990846795550841
 20
5.6293862552966072
 10
-22.813493114406771
 20
5.6928628177966072
 10
-22.635311837923719
 20
5.7465737552966072
 10
-22.456302966101688
 20
5.7905190677966072
 10
-22.276466498940671
 20
5.8246987552966072
 10
-22.095802436440671
 20
5.8491128177966072
 10
-21.914310778601688
 20
5.8637612552966072
 10
-21.731991525423719
 20
5.8686440677966072
 10
-21.61679025423728
 20
5.8626853813559299
 10
-21.514830508474571
 20
5.8448093220338952
 10
-21.426112288135592
 20
5.8150158898305051
 10
-21.350635593220339
 20
5.7733050847457594
 10
-21.22484110169491
 20
5.6713453389830466
 10
-21.122881355932201
 20
5.5561440677966072
 10
-20.948093220338979
 20
5.3177966101694878
 10
-20.903072033898301
 20
5.2635063559321997
 10
-20.852754237288131
 20
5.2171610169491487
 10
-20.79713983050847
 20
5.1787605932203364
 10
-20.736228813559318
 20
5.1483050847457594
 10
-20.607786016949149
 20
5.1046080508474541
 10
-20.476694915254232
 20
5.0794491525423702
 10
-20.342955508474571
 20
5.0675317796610138
 10
-20.20656779661017
 20
5.0635593220338944
 10
-19.968220338983048
 20
5.0688559322033857
 10
-19.729872881355931
 20
5.0741525423728788
 10
-19.576271186440671
 20
5.0662076271186409
 10
-19.433262711864401
 20
5.042372881355929
 10
-19.366393008474571
 20
5.0218485169491487
 10
-19.303495762711862
 20
4.9920550847457594
 10
-19.24457097457627
 20
4.9529925847457594
 10
-19.189618644067789
 20
4.9046610169491496
 10
-19.139631885593221
 20
4.846398305084743
 10
-19.095603813559318
 20
4.7775423728813529
 10
-19.0575344279661
 20
4.6980932203389791
 10
-19.025423728813561
 20
4.6080508474576236
 10
-18.999933792372879
 20
4.5041048728813529
 10
-18.981726694915249
 20
4.3829449152542326
 10
-18.970802436440671
 20
4.2445709745762681
 10
-18.967161016949149
 20
4.0889830508474549
 10
-18.97177849663067
 20
3.8737270818038669
 10
-18.985945663215599
 20
3.6490085831292589
 10
-19.010134608014528
 20
3.4148965005650922
 10
-19.044817422338031
 20
3.1714597798528299
 10
-18.950882400742969
 20
3.1779661016949121
 10
-14.205119688878559
 20
3.1779661016949121
 10
-14.0568146041328
 20
3.1700211864406751
 10
-13.88732307870907
 20
3.1461864406779632
 10
-13.73626585234123
 20
3.10696809745007
 10
-13.598454581720119
 20
3.0434552204289198
 10
-13.590090852101209
 20
3.0826271186440639
 10
-13.40868195379613
 20
4.0002648305084714
 10
-13.245811191084259
 20
4.8887711864406747
 10
-13.09883025888087
 20
5.7653601694915224
 10
-12.965090852101209
 20
6.6472457627118624
 10
-12.84591712328765
 20
7.5436970338983027
 10
-12.742633224982569
 20
8.4639830508474549
 10
-12.652590852101209
 20
9.4279661016949117
 10
-12.573141699558841
 20
10.45550847457627
 10
-12.573141699558841
 20
10.699152542372881
 10
-12.58108661481308
 20
10.843485169491521
 10
-12.604921360575791
 20
10.979872881355931
 10
-12.64861839447409
 20
11.103019067796611
 10
-12.679404941084259
 20
11.15764036016949
 10
-12.716150174135111
 20
11.20762711864406
 10
-12.760840322440201
 20
11.24933792372881
 10
-12.81546161481308
 20
11.279131355932201
 10
-12.880014051253751
 20
11.29700741525423
 10
-12.95449763176223
 20
11.30296610169491
 10
-13.06605748345714
 20
11.29038665254237
 10
-13.18887263176223
 20
11.25264830508474
 10
-13.322943076677481
 20
11.189751059322029
 10
-13.46826881820291
 20
11.10169491525423
 10
-13.620546360575791
 20
10.99145921610169
 10
-13.77547220803342
 20
10.86202330508474
 10
-13.933046360575791
 20
10.713387182203389
 10
-14.09326881820291
 20
10.545550847457619
 10
-14.255477504643579
 20
10.360500529661021
 10
-14.419010343626629
 20
10.160222457627119
 10
-14.58386733515206
 20
9.944716631355929
 10
-14.750048479219849
 20
9.7139830508474549
 10
-14.913250280067309
 20
9.4710010593220311
 10
-15.06916924193172
 20
9.21875
 10
-15.217805364813071
 20
8.9572298728813564
 10
-15.35915864871138
 20
8.6864406779661003
 10
-15.395572843626629
 20
8.6126191737288114
 10
-15.4412561063385
 20
8.550052966101692
 10
-15.49620843684697
 20
8.4987420550847439
 10
-15.56042983515206
 20
8.4586864406779636
 10
-15.63127199616901
 20
8.4285619703389809
 10
-15.706086614813071
 20
8.4070444915254203
 10
-15.784873691084259
 20
8.3941340042372836
 10
-15.867633224982569
 20
8.3898305084745726
 10
-15.93715123345714
 20
8.3954581567796573
 10
-16.007993394474092
 20
8.4123411016949099
 10
-16.08015970803341
 20
8.4404793432203338
 10
-16.153650174135109
 20
8.479872881355929
 10
-16.296658648711379
 20
8.5791843220338961
 10
-16.429073902948669
 20
8.6970338983050812
 10
-16.54559932667749
 20
8.8281249999999964
 10
-16.64093830972833
 20
8.9671610169491487
 10
-16.67801458091477
 20
9.0370100635593182
 10
-16.70449763176223
 20
9.103548728813557
 10
-16.7203874622707
 20
9.1667770127118615
 10
-16.725684072440199
 20
9.2266949152542335
 10
-16.715090852101209
 20
9.28495762711864
 10
-16.683311191084261
 20
9.3326271186440639
 10
-16.50223333091477
 20
9.9083024364406747
 10
-16.308576021592739
 20
10.43829449152542
 10
-16.102339263118161
 20
10.922603283898299
 10
-15.994503590448669
 20
11.14762645656779
 10
-15.88352305549104
 20
11.36122881355932
 10
-15.65510674193172
 20
11.75715042372881
 10
-15.420069665660529
 20
12.113347457627119
 10
-15.178411826677481
 20
12.429819915254241
 10
-15.05510012116901
 20
12.5731594279661
 10
-14.930133224982569
 20
12.70656779661017
 10
-14.677551127524939
 20
12.94590836864406
 10
-14.422982801253751
 20
13.150158898305079
 10
-14.294953802313071
 20
13.239125397245759
 10
-14.16642824616901
 20
13.319319385593211
 10
-14.03740613282155
 20
13.39074086334745
 10
-13.9078874622707
 20
13.45338983050847
 10
-13.649677716507989
 20
13.55534957627119
 10
-13.394116275830021
 20
13.62817796610169
 10
-13.141203140236801
 20
13.671875
 10
-12.89093830972833
 20
13.6864406779661
 10
-12.52977570379613
 20
13.67220603813559
 10
-12.360366937906299
 20
13.65441273834745
 10
-12.198406530067309
 20
13.629502118644069
 10
-12.04389448027918
 20
13.59747417902542
 10
-11.896830788541889
 20
13.558328919491521
 10
-11.75721545485545
 20
13.51206634004237
 10
-11.625048479219849
 20
13.458686440677971
 10
-11.499667785363931
 20
13.398934057203389
 10
-11.380411297016471
 20
13.33355402542373
 10
-11.267279014177481
 20
13.262546345338979
 10
-11.16027093684697
 20
13.18591101694915
 10
-11.059387065024939
 20
13.103648040254241
 10
-10.96462739871138
 20
13.01575741525423
 10
-10.875991937906299
 20
12.92223914194915
 10
-10.79348068260969
 20
12.823093220338979
 10
-10.71684535421986
 20
12.71856792902542
 10
-10.645837674135111
 20
12.60891154661017
 10
-10.52070525888087
 20
12.374205508474571
 10
-10.41808343684697
 20
12.118975105932201
 10
-10.33797220803342
 20
11.84322033898305
 10
-10.27772326735545
 20
11.54925847457627
 10
-10.23468830972833
 20
11.23940677966101
 10
-10.20886733515206
 20
10.913665254237291
 10
-10.200260343626629
 20
10.572033898305079
 10
-10.20754318260968
 20
10.21583686440677
 10
-10.229391699558841
 20
9.8463983050847403
 10
-10.26580589447409
 20
9.4637182203389791
 10
-10.31678576735545
 20
9.0677966101694878
 10
-10.380345089389349
 20
8.6616128177966054
 10
-10.45449763176223
 20
8.2481461864406747
 10
-10.53924339447409
 20
7.8273967161016911
 10
-10.634582377524939
 20
7.3993644067796573
 10
-10.849095089389349
 20
6.526747881355929
 10
-11.090090852101209
 20
5.6355932203389791
 10
-11.60915864871138
 20
3.8453389830508442
 10
-11.429073902948669
 20
3.7817796610169458
 10
-11.06493195379613
 20
4.827529131355929
 10
-10.70343830972833
 20
5.8037605932203364
 10
-10.34459297074528
 20
6.710474046610166
 10
-9.9883959368469739
 20
7.5476694915254203
 10
-9.6351782461690085
 20
8.3209745762711833
 10
-9.2852709368469739
 20
9.0360169491525397
 10
-8.9386740088808736
 20
9.6927966101694878
 10
-8.5953874622707023
 20
10.291313559322029
 10
-8.2564044114232438
 20
10.8348781779661
 10
-7.9227179707452793
 20
11.326800847457619
 10
-7.5943281402368052
 20
11.767081567796611
 10
-7.2712349198978226
 20
12.15572033898305
 10
-6.9527762334571426
 20
12.49900688559322
 10
-6.6382900046435847
 20
12.803230932203389
 10
-6.3277762334571452
 20
13.06839247881355
 10
-6.0212349198978226
 20
13.294491525423719
 10
-5.7193281402368052
 20
13.48516949152542
 10
-5.4227179707452802
 20
13.64406779661017
 10
-5.1314044114232464
 20
13.77118644067796
 10
-4.845387462270704
 20
13.86652542372881
 10
-4.5643360851520596
 20
13.936043432203389
 10
-4.2879192419317196
 20
13.98569915254237
 10
-4.0161369326096867
 20
14.015492584745759
 10
-3.7489891571859588
 20
14.025423728813561
 10
-3.5982012864232469
 20
14.020789194915251
 10
-3.4530410639656202
 20
14.006885593220341
 10
-3.3135084898130769
 20
13.98371292372881
 10
-3.1796035639656188
 20
13.95127118644068
 10
-3.051326286423246
 20
13.909560381355931
 10
-2.9286766571859579
 20
13.85858050847458
 10
-2.8116546762537551
 20
13.798331567796611
 10
-2.7002603436266361
 20
13.728813559322029
 10
-2.4926994326096881
 20
13.56991525423728
 10
-2.3043387334571448
 20
13.389830508474571
 10
-2.135178246169009
 20
13.1885593220339
 10
-1.9852179707452799
 20
12.966101694915251
 10
-1.8544579071859579
 20
12.72709216101695
 10
-1.742898055491042
 20
12.476165254237291
 10
-1.6505384156605341
 20
12.21332097457627
 10
-1.577378987694432
 20
11.9385593220339
 10
-1.521764580914772
 20
11.65916313559322
 10
-1.4820400046435851
 20
11.382415254237291
 10
-1.458205258880874
 20
11.1083156779661
 10
-1.4502603436266359
 20
10.836864406779659
 10
-1.456550068202908
 20
10.51012976694915
 10
-1.475419241931722
 20
10.165519067796611
 10
-1.506867864813078
 20
9.8030323093220311
 10
-1.550895936846975
 20
9.4226694915254203
 10
-1.6634489029486701
 20
8.6215572033898269
 10
-1.799836614813076
 20
7.775423728813557
 10
-1.956086614813078
 20
6.8922139830508442
 10
-2.1282264453215518
 20
5.979872881355929
 10
-2.3003662758300258
 20
5.0556144067796573
 10
-2.4566162758300272
 20
4.1366525423728788
 10
-2.5930039876944329
 20
3.2282838983050821
 10
-2.7055569537961279
 20
2.335805084745759
 10
-2.7495850258300258
 20
1.899827860169488
 10
-2.7810336487113818
 20
1.476430084745759
 10
-2.7999028224401958
 20
1.065611758474573
 10
-2.806192547016467
 20
0.667372881355929
 10
-2.7903027165079921
 20
0.1006355932203356
 10
-2.7651438182029069
 20
-0.2145127118644101
 10
-2.7214467843046029
 20
-0.5349576271186476
 10
-2.6565633097283312
 20
-0.8540783898305118
 10
-2.5678450893893481
 20
-1.1652542372881389
 10
-2.512892758880874
 20
-1.3148834745762741
 10
-2.4486713605757888
 20
-1.4565677966101731
 10
-2.3751808944740942
 20
-1.590307203389834
 10
-2.2924213605757879
 20
-1.7161016949152581
 10
-2.1997306826096872
 20
-1.831965042372885
 10
-2.096446784304602
 20
-1.935911016949156
 10
-1.9825696656605349
 20
-2.027939618644071
 10
-1.8580993266774839
 20
-2.1080508474576298
 10
-1.722042652948671
 20
-2.172934322033901
 10
-1.573406530067315
 20
-2.219279661016953
 10
-1.412190958033416
 20
-2.247086864406783
 10
-1.238395936846975
 20
-2.2563559322033928
 10
-1.1103669379062979
 20
-2.2523834745762739
 10
-0.9805172292198572
 20
-2.2404661016949192
 10
-0.7153556826096877
 20
-2.1927966101694949
 10
-0.4429112970164669
 20
-2.1133474576271221
 10
-0.1631840724401946
 20
-2.0021186440677998
 10
0.1188604190852295
 20
-1.8667240466101731
 10
0.3982566055259078
 20
-1.714777542372885
 10
0.6750044868818399
 20
-1.5462791313559361
 10
0.9491040631530254
 20
-1.3612288135593249
 10
1.285436087725532
 20
-1.1123365335475719
 10
1.609493381894437
 20
-0.8487119932432456
 10
1.6383192456144
 20
-0.5584711219720242
 10
1.6818530541572181
 20
-0.2655482641769256
 10
1.7399465612900711
 20
0.0300681850229423
 10
1.8124515207801439
 20
0.3283898305084714
 10
1.93427355467845
 20
0.7445047669491494
 10
2.0772820292547221
 20
1.155985169491522
 10
2.2414769445089591
 20
1.5628310381355901
 10
2.426858300441161
 20
1.9650423728813531
 10
2.6317709063733652
 20
2.3593087923728788
 10
2.8545595716276022
 20
2.7423199152542339
 10
3.0952242962038738
 20
3.1140757415254199
 10
3.3537650801021779
 20
3.4745762711864381
 10
3.6275336182377722
 20
3.8181938559322002
 10
3.913881605525908
 20
4.1393008474576236
 10
4.2128090419665858
 20
4.4378972457627093
 10
4.5243159275598064
 20
4.7139830508474549
 10
4.8464160334920097
 20
4.9652409957627093
 10
5.1771231309496359
 20
5.1893538135593191
 10
5.516437219932687
 20
5.3863215042372854
 10
5.864358300441161
 20
5.5561440677966072
 10
6.0408843862462458
 20
5.6293862552966072
 10
6.2182380673903141
 20
5.6928628177966072
 10
6.3964193438733652
 20
5.7465737552966072
 10
6.5754282156953998
 20
5.7905190677966072
 10
6.7552646828564162
 20
5.8246987552966072
 10
6.9359287453564162
 20
5.8491128177966072
 10
7.1174204031953989
 20
5.8637612552966072
 10
7.2997396563733652
 20
5.8686440677966072
 10
7.4149409275598064
 20
5.8626853813559299
 10
7.5169006733225183
 20
5.8448093220338952
 10
7.6056188936615019
 20
5.8150158898305051
 10
7.6810955885767562
 20
5.7733050847457594
 10
7.8068900801021792
 20
5.6713453389830466
 10
7.9088498258648912
 20
5.5561440677966072
 10
8.0836379614581109
 20
5.3177966101694878
 10
8.1286591478987873
 20
5.2635063559321997
 10
8.1789769445089586
 20
5.2171610169491487
 10
8.2345913512886177
 20
5.1787605932203364
 10
8.2955023682377718
 20
5.1483050847457594
 10
8.4239451648479413
 20
5.1046080508474541
 10
8.5550362665428565
 20
5.0794491525423702
 10
8.6887756733225174
 20
5.0675317796610138
 10
8.825163385186924
 20
5.0635593220338944
 10
9.0635108428140434
 20
5.0688559322033857
 10
9.301858300441161
 20
5.0741525423728788
 10
9.4554599953564171
 20
5.0662076271186409
 10
9.598468469932687
 20
5.042372881355929
 10
9.6653381733225174
 20
5.0218485169491487
 10
9.7282354190852303
 20
4.9920550847457594
 10
9.7871602072208219
 20
4.9529925847457594
 10
9.8421125377292977
 20
4.9046610169491496
 10
9.8920992962038738
 20
4.846398305084743
 10
9.9361273682377718
 20
4.7775423728813529
 10
9.9741967538309932
 20
4.6980932203389791
 10
10.006307452983529
 20
4.6080508474576236
 10
10.031797389424209
 20
4.5041048728813529
 10
10.050004486881839
 20
4.3829449152542326
 10
10.060928745356421
 20
4.2445709745762681
 10
10.06457016484794
 20
4.0889830508474549
 10
10.05397694450896
 20
3.7658898305084709
 10
10.022197283492011
 20
3.34745762711864
 10
9.9718794868818392
 20
2.854872881355929
 10
9.9056718597631956
 20
2.3093220338983018
 10
9.7414769445089586
 20
1.0963983050847419
 10
9.5560955885767562
 20
-0.1588983050847492
 10
9.3177481309496368
 20
-1.671080508474579
 10
9.0476210123055694
 20
-3.2838983050847488
 10
9.3786591478987891
 20
-3.082627118644071
 10
9.7361803343394673
 20
-2.8389830508474612
 10
9.926858300441161
 20
-2.695312500000004
 10
10.128129486881839
 20
-2.5291313559322068
 10
10.3399938936615
 20
-2.340439618644071
 10
10.56245152078014
 20
-2.129237288135597
 10
10.792140073109181
 20
-1.8974072385674501
 10
11.03451414676397
 20
-1.638164165583877
 10
11.289527157119011
 20
-1.3514690735646859
 10
11.55713251954878
 20
-1.037282966889687
 10
11.496995837134071
 20
-0.6934501595357554
 10
11.45433902498451
 20
-0.347664682768738
 10
11.42892142228933
 20
0.000026461456836
 10
11.42050236823777
 20
0.3495762711864376
 10
11.425964497475061
 20
0.6384898040254206
 10
11.442350885186929
 20
0.9226032838983019
 10
11.469661531373371
 20
1.2019167108050819
 10
11.507896436034381
 20
1.4764300847457601
 10
11.557055599169979
 20
1.746143405720336
 10
11.617139020780151
 20
2.01105667372881
 10
11.688146700864889
 20
2.2711698887711829
 10
11.770078639424209
 20
2.5264830508474541
 10
11.86219000065303
 20
2.775258209745759
 10
11.963735948746249
 20
3.0157574152542339
 10
12.07471648370387
 20
3.2479806673728779
 10
12.19513160552591
 20
3.471927966101692
 10
12.32498131421235
 20
3.6875993114406751
 10
12.464265609763199
 20
3.8949947033898269
 10
12.61298449217845
 20
4.0941141419491487
 10
12.771137961458111
 20
4.28495762711864
 10
12.938560498534381
 20
4.4666975635593182
 10
13.115086584339471
 20
4.6385063559321988
 10
13.300716218873371
 20
4.8003840042372854
 10
13.49544940213608
 20
4.9523305084745726
 10
13.6992861341276
 20
5.0943458686440639
 10
13.91222641484794
 20
5.2264300847457594
 10
14.134270244297101
 20
5.3485831567796573
 10
14.365417622475061
 20
5.4608050847457594
 10
14.60475819450896
 20
5.5613579184321988
 10
14.85138160552591
 20
5.6485037076271141
 10
15.10528785552591
 20
5.7222424523305042
 10
15.36647694450896
 20
5.7825741525423693
 10
15.634948872475061
 20
5.8294988082627084
 10
15.910703639424209
 20
5.8630164194915224
 10
16.193741245356421
 20
5.8831269862288096
 10
16.48406169027167
 20
5.8898305084745726
 10
16.73366444450896
 20
5.8849476959745726
 10
16.97929474111913
 20
5.8702992584745726
 10
17.220952580102178
 20
5.8458851959745726
 10
17.458637961458109
 20
5.8117055084745726
 10
17.692350885186929
 20
5.7677601959745726
 10
17.922091351288621
 20
5.7140492584745726
 10
18.147859359763199
 20
5.6505726959745726
 10
18.369654910610649
 20
5.5773305084745726
 10
18.802321753830991
 20
5.4078389830508442
 10
19.221084995356421
 20
5.2118644067796582
 10
19.625944635186929
 20
4.9894067796610138
 10
20.016900673322521
 20
4.7404661016949117
 10
20.394284147898791
 20
4.4686837923728779
 10
20.758426097051331
 20
4.1777012711864376
 10
21.10932652078014
 20
3.8675185381355899
 10
21.44698541908523
 20
3.538135593220336
 10
22.03695265361894
 20
2.9029741812999852
 10
22.228243818564341
 20
3.192758928952069
 10
22.432154910610649
 20
3.4745762711864381
 10
22.70592344874624
 20
3.8181938559322002
 10
22.992271436034379
 20
4.1393008474576236
 10
23.29119887247505
 20
4.4378972457627093
 10
23.602705758068279
 20
4.7139830508474549
 10
23.924805864000479
 20
4.9652409957627093
 10
24.255512961458109
 20
5.1893538135593191
 10
24.594827050441161
 20
5.3863215042372854
 10
24.942748130949632
 20
5.5561440677966072
 10
25.119274216754722
 20
5.6293862552966072
 10
25.29662789789878
 20
5.6928628177966072
 10
25.474809174381829
 20
5.7465737552966072
 10
25.65381804620387
 20
5.7905190677966072
 10
25.833654513364891
 20
5.8246987552966072
 10
26.014318575864881
 20
5.8491128177966072
 10
26.19581023370387
 20
5.8637612552966072
 10
26.378129486881829
 20
5.8686440677966072
 10
26.493330758068272
 20
5.8626853813559299
 10
26.595290503830981
 20
5.8448093220338952
 10
26.684008724169971
 20
5.8150158898305051
 10
26.75948541908522
 20
5.7733050847457594
 10
26.885279910610649
 20
5.6713453389830466
 10
26.987239656373362
 20
5.5561440677966072
 10
27.16202779196658
 20
5.3177966101694878
 10
27.207048978407261
 20
5.2635063559321997
 10
27.257366775017431
 20
5.2171610169491487
 10
27.312981181797088
 20
5.1787605932203364
 10
27.37389219874624
 20
5.1483050847457594
 10
27.50233499535641
 20
5.1046080508474541
 10
27.633426097051331
 20
5.0794491525423702
 10
27.767165503830991
 20
5.0675317796610138
 10
27.903553215695389
 20
5.0635593220338944
 10
28.14190067332251
 20
5.0688559322033857
 10
28.380248130949632
 20
5.0741525423728788
 10
28.533849825864881
 20
5.0662076271186409
 10
28.67685830044115
 20
5.042372881355929
 10
28.743728003830981
 20
5.0218485169491487
 10
28.80662524959369
 20
4.9920550847457594
 10
28.865550037729289
 20
4.9529925847457594
 10
28.920502368237759
 20
4.9046610169491496
 10
28.970489126712341
 20
4.846398305084743
 10
29.01451719874624
 20
4.7775423728813529
 10
29.052586584339458
 20
4.6980932203389791
 10
29.084697283492009
 20
4.6080508474576236
 10
29.11018721993268
 20
4.5041048728813529
 10
29.12839431739031
 20
4.3829449152542326
 10
29.139318575864881
 20
4.2445709745762681
 10
29.14295999535641
 20
4.0889830508474549
 10
29.136339232644549
 20
3.8277939618644039
 10
29.11647694450895
 20
3.5527012711864381
 10
29.083373130949632
 20
3.2637049788135561
 10
29.03702779196658
 20
2.960805084745759
 10
28.925798978407261
 20
2.3331567796610142
 10
28.80397694450895
 20
1.6896186440677941
 10
28.682154910610649
 20
1.0381355932203351
 10
28.570926097051331
 20
0.3866525423728779
 10
28.524580758068279
 20
0.0652145127118613
 10
28.49147694450895
 20
-0.247616525423732
 10
28.471614656373362
 20
-0.5518405720339016
 10
28.464993893661489
 20
-0.8474576271186476
 10
28.47062154196658
 20
-1.082825741525427
 10
28.487504486881829
 20
-1.2910487288135619
 10
28.515642728407251
 20
-1.4721265889830539
 10
28.555036266542849
 20
-1.626059322033901
 10
28.58077448158522
 20
-1.6918531514830539
 10
28.61296794027167
 20
-1.748874470338986
 10
28.651616642602171
 20
-1.797123278601698
 10
28.696720588576749
 20
-1.83659957627119
 10
28.7482797781954
 20
-1.8673033633474609
 10
28.806294211458109
 20
-1.889234639830512
 10
28.870763888364891
 20
-1.902393405720342
 10
28.941688808915739
 20
-1.906779661016953
 10
29.05424177501742
 20
-1.8998278601694949
 10
29.16944304620387
 20
-1.8789724576271221
 10
29.28729262247505
 20
-1.844213453389834
 10
29.407790503830991
 20
-1.7955508474576301
 10
29.652758724169971
 20
-1.6671080508474609
 10
29.900375249593701
 20
-1.504237288135597
 10
30.149315927559801
 20
-1.3122351694915291
 10
30.398256605525901
 20
-1.096398305084749
 10
30.64057652078014
 20
-0.8646716101694948
 10
30.869654910610649
 20
-0.6250000000000031
 10
31.019681431751991
 20
-0.4498421326776261
 10
31.178445087552898
 20
0.3789299499094299
 10
31.367536266542849
 20
1.234110169491522
 10
31.596614656373362
 20
2.1808792372881318
 10
31.8389345716276
 20
3.124999999999996
 10
32.073309571627597
 20
4.0307203389830466
 10
32.278553215695403
 20
4.8622881355932162
 10
32.324898554678441
 20
4.9950344279660994
 10
32.389782029254711
 20
5.1178495762711833
 10
32.473203639424213
 20
5.2307335805084714
 10
32.575163385186919
 20
5.3336864406779618
 10
32.690033618237763
 20
5.4270391949152508
 10
32.812186690271673
 20
5.511122881355929
 10
32.941622601288607
 20
5.5859374999999982
 10
33.078341351288607
 20
5.6514830508474549
 10
33.229202376258698
 20
5.711669165624067
 10
33.383277253942587
 20
5.7621449926126447
 10
33.327282029254718
 20
5.8106923844903662
 10
33.223005016542842
 20
5.9251488198717226
 10
33.132631605525901
 20
6.0487088039818921
 10
33.056161796203867
 20
6.1813723368208748
 10
32.993595588576753
 20
6.3231394183886707
 10
32.944932982644538
 20
6.4740100486852814
 10
32.910173978407258
 20
6.6339842277107053
 10
32.889318575864877
 20
6.8030619554649423
 10
32.882366775017417
 20
6.9812432319479942
 10
32.888987537729292
 20
7.1070377234734172
 10
32.908849825864877
 20
7.2407771302530781
 10
32.941953639424213
 20
7.3824614522869769
 10
32.988298978407258
 20
7.5320906895751119
 10
33.049541033492012
 20
7.6833751175412139
 10
33.127334995356406
 20
7.8300250116090098
 10
33.221680864000483
 20
7.9720403717785011
 10
33.332578639424213
 20
8.109421198049688
 10
33.461683512305562
 20
8.2391881472022312
 10
33.61065067332251
 20
8.3583618760157883
 10
33.77948012247505
 20
8.4669423844903662
 10
33.968171859763189
 20
8.5649296726259596
 10
34.070545403195389
 20
8.6083784279225704
 10
34.179043152136067
 20
8.6460340158463005
 10
34.414411266542849
 20
8.7039656895751119
 10
34.674276202983528
 20
8.7387246938124008
 10
34.958637961458102
 20
8.750311028558162
 10
35.141371012305569
 20
8.7450144183886707
 10
35.318807452983528
 20
8.7291245878801966
 10
35.490947283492012
 20
8.7026415370327399
 10
35.657790503830988
 20
8.6655652658462987
 10
35.816688808915742
 20
8.6175647361852814
 10
35.9649938936615
 20
8.5583089099140945
 10
36.102705758068282
 20
8.4877977870327399
 10
36.229824402136067
 20
8.4060313675412139
 10
36.345356711458109
 20
8.3116854988971447
 10
36.448309571627597
 20
8.203436028558162
 10
36.538682982644538
 20
8.0812829565242659
 10
36.616476944508953
 20
7.945226282795451
 10
36.679043152136067
 20
7.7955970455073151
 10
36.723733300441147
 20
7.632726282795451
 10
36.750547389424213
 20
7.4566139946598584
 10
36.759485419085223
 20
7.2672601811005357
 10
36.752202580102171
 20
7.0884995878801957
 10
36.730354063153023
 20
6.9123872997446023
 10
36.693939868237763
 20
6.7389233166937554
 10
36.642959995356406
 20
6.5681076387276551
 10
36.57609029196658
 20
6.4032506472022312
 10
36.492006605525901
 20
6.2476627234734181
 10
36.390708936034372
 20
6.1013438675412139
 10
36.272197283492012
 20
5.9642940794056187
 10
36.136802686034379
 20
5.8381685497446023
 10
35.984856181797092
 20
5.7246224692361274
 10
35.816357770780137
 20
5.6236558378801966
 10
35.631307452983528
 20
5.5352686556768074
 10
35.480308957056117
 20
5.4792762374708097
 10
35.318425585120053
 20
5.4349298115099192
 10
35.145656414655832
 20
5.4022407990681067
 10
34.962000523143907
 20
5.3812206214193461
 10
34.969231181797078
 20
5.2860169491525379
 10
34.962610419085223
 20
5.1565810381355899
 10
34.942748130949617
 20
5.0013241525423693
 10
34.909644317390303
 20
4.8202462923728779
 10
34.863298978407258
 20
4.6133474576271158
 10
34.744125249593701
 20
4.1445974576271158
 10
34.598468469932683
 20
3.6175847457627079
 10
34.259485419085223
 20
2.4205508474576241
 10
34.084697283492012
 20
1.7796610169491489
 10
33.920502368237763
 20
1.1387711864406751
 10
33.774845588576753
 20
0.5058262711864373
 10
33.655671859763189
 20
-0.1112288135593253
 10
33.609326520780137
 20
-0.4081700211864439
 10
33.576222707220822
 20
-0.6898834745762743
 10
33.55636041908523
 20
-0.9563691737288167
 10
33.549739656373362
 20
-1.207627118644071
 10
33.55636041908523
 20
-1.433726165254241
 10
33.576222707220822
 20
-1.635328389830512
 10
33.609326520780137
 20
-1.812433792372885
 10
33.655671859763189
 20
-1.9650423728813591
 10
33.685630811034372
 20
-2.0308362023305109
 10
33.722541563153023
 20
-2.0878575211864439
 10
33.766404116119119
 20
-2.1361063294491558
 10
33.817218469932683
 20
-2.1755826271186471
 10
33.874984624593687
 20
-2.2062864141949192
 10
33.939702580102171
 20
-2.2282176906779698
 10
34.011372336458088
 20
-2.2413764565677998
 10
34.089993893661493
 20
-2.2457627118644101
 10
34.186657029254718
 20
-2.2416247351694949
 10
34.285968469932683
 20
-2.2292108050847488
 10
34.492536266542857
 20
-2.1795550847457661
 10
34.709697283492012
 20
-2.0967955508474612
 10
34.937451520780137
 20
-1.980932203389834
 10
35.171164444508953
 20
-1.8415651483050881
 10
35.406201520780137
 20
-1.688294491525427
 10
35.642562749593687
 20
-1.52112023305085
 10
35.880248130949632
 20
-1.3400423728813591
 10
36.351646436034372
 20
-0.9573622881355963
 10
36.812451520780137
 20
-0.5614406779661048
 10
37.241476944508953
 20
-0.1880296610169526
 10
37.617536266542849
 20
0.1271186440677932
 10
37.617536266542849
 20
-2.0233050847457661
 10
37.415271965695389
 20
-2.2010725635593249
 10
37.189834995356406
 20
-2.3847987288135619
 10
36.941225355525901
 20
-2.574483580508478
 10
36.669443046203867
 20
-2.770127118644071
 10
36.380446753830988
 20
-2.964777542372885
 10
36.080195164847943
 20
-3.1514830508474612
 10
35.768688279254718
 20
-3.3302436440677998
 10
35.445926097051327
 20
-3.501059322033901
 10
35.115881075864877
 20
-3.660950741525427
 10
34.78252567332251
 20
-3.8069385593220368
 10
34.445859889424213
 20
-3.9390227754237319
 10
34.105883724169971
 20
-4.0572033898305113
 10
33.768555864000483
 20
-4.1545286016949188
 10
33.439834995356406
 20
-4.2240466101694949
 10
33.119721118237763
 20
-4.2657574152542406
 10
32.808214232644538
 20
-4.2796610169491558
 10
32.543714762305569
 20
-4.2700609110169534
 10
32.301063808915742
 20
-4.2412605932203427
 10
32.080261372475057
 20
-4.1932600635593253
 10
31.881307452983531
 20
-4.1260593220339006
 10
31.7022158216276
 20
-4.0416445974576298
 10
31.541000249593701
 20
-3.942002118644071
 10
31.397660736881829
 20
-3.8271318855932241
 10
31.272197283492009
 20
-3.6970338983050879
 10
31.190632463246871
 20
-3.591134458880024
 10
31.1181419801032
 20
-3.4769086004712029
 10
31.054765784661718
 20
-3.3543415396755321
 10
31.000543827523192
 20
-3.2234184930899148
 10
30.85906169027167
 20
-3.3474576271186471
 10
30.60018986823777
 20
-3.5460805084745801
 10
30.332048978407261
 20
-3.7288135593220368
 10
30.05463902078014
 20
-3.89565677966102
 10
29.76795999535641
 20
-4.0466101694915286
 10
29.6223032156954
 20
-4.1136453919491549
 10
29.476646436034379
 20
-4.1717425847457648
 10
29.330989656373362
 20
-4.2209017478813582
 10
29.185332876712341
 20
-4.2611228813559352
 10
29.03967609705132
 20
-4.2924059851694949
 10
28.89401931739031
 20
-4.3147510593220364
 10
28.748362537729289
 20
-4.3281581038135624
 10
28.602705758068279
 20
-4.332627118644071
 10
28.43155904196658
 20
-4.3255925582627146
 10
28.26769516484794
 20
-4.3044888771186471
 10
28.111114126712341
 20
-4.2693160752118677
 10
27.961815927559801
 20
-4.2200741525423764
 10
27.81980056739031
 20
-4.1567631091101731
 10
27.68506804620387
 20
-4.0793829449152579
 10
27.557618364000479
 20
-3.9879336599576312
 10
27.43745152078014
 20
-3.8824152542372921
 10
27.322912325864881
 20
-3.763489804025427
 10
27.212345588576749
 20
-3.6318193855932241
 10
27.105751308915728
 20
-3.4874039989406822
 10
27.003129486881829
 20
-3.3302436440677998
 10
26.90448012247505
 20
-3.1603383209745801
 10
26.8098032156954
 20
-2.97768802966102
 10
26.719098766542849
 20
-2.7822927701271221
 10
26.63236677501742
 20
-2.574152542372885
 10
26.49796529196658
 20
-2.723119703389834
 10
26.348998130949632
 20
-2.8734110169491558
 10
26.18546529196658
 20
-3.02502648305085
 10
26.00736677501742
 20
-3.1779661016949192
 10
25.81768192332251
 20
-3.327926377118648
 10
25.619390080102171
 20
-3.4706038135593249
 10
25.41249124535641
 20
-3.605998411016953
 10
25.19698541908522
 20
-3.7341101694915291
 10
24.974858830102171
 20
-3.8529528601694949
 10
24.748097707220811
 20
-3.9605402542372921
 10
24.51670205044115
 20
-4.0568723516949188
 10
24.280671859763189
 20
-4.1419491525423764
 10
24.042324402136071
 20
-4.2114671610169516
 10
23.80397694450895
 20
-4.2611228813559352
 10
23.565629486881829
 20
-4.2909163135593253
 10
23.327282029254711
 20
-4.3008474576271221
 10
23.074699931797088
 20
-4.2879369703389862
 10
22.825428215695389
 20
-4.2492055084745797
 10
22.579466880949632
 20
-4.1846530720339006
 10
22.336815927559801
 20
-4.0942796610169534
 10
22.102771965695389
 20
-3.9797404661016982
 10
21.882631605525901
 20
-3.8426906779661052
 10
21.676394847051331
 20
-3.6831302966101731
 10
21.48406169027167
 20
-3.501059322033901
 10
21.307949402136071
 20
-3.297139830508478
 10
21.15037524959369
 20
-3.0720338983050879
 10
21.011339232644541
 20
-2.8257415254237319
 10
20.890841351288611
 20
-2.5582627118644101
 10
20.83870284493268
 20
-2.416992187500004
 10
20.793516139424209
 20
-2.2712526483050879
 10
20.755281234763189
 20
-2.121044094279664
 10
20.723998130949632
 20
-1.9663665254237319
 10
20.682287325864881
 20
-1.643604343220342
 10
20.668383724169971
 20
-1.302966101694919
 10
20.682287325864881
 20
-0.9030720338983084
 10
20.723998130949632
 20
-0.4978813559322066
 10
20.793516139424209
 20
-0.0873940677966134
 10
20.890841351288611
 20
0.3283898305084714
 10
20.99440593867887
 20
0.6866258445225733
 10
21.11387272827147
 20
1.0413301111931319
 10
21.249464305138289
 20
1.3924007994239
 10
21.40140325435117
 20
1.7397360781186271
 10
21.045364515855649
 20
2.0438893073809621
 10
20.673680334339469
 20
2.3411016949152512
 10
20.13210194450896
 20
2.752913135593217
 10
19.598468469932691
 20
3.1408898305084718
 10
19.105883724169981
 20
3.4864936440677932
 10
18.68745152078014
 20
3.7711864406779618
 10
18.602705758068279
 20
3.65466101694915
 10
18.746707347051331
 20
3.343154131355929
 10
18.871508724169981
 20
3.023040254237285
 10
18.977109889424209
 20
2.694319385593217
 10
19.06351084281404
 20
2.3569915254237261
 10
19.130711584339469
 20
2.019001588983047
 10
19.178712114000479
 20
1.688294491525421
 10
19.207512431797099
 20
1.364870233050844
 10
19.2171125377293
 20
1.048728813559318
 10
19.20850554620387
 20
0.7355667372881322
 10
19.1826845716276
 20
0.4210805084745731
 10
19.139649614000479
 20
0.1052701271186409
 10
19.079400673322521
 20
-0.2118644067796644
 10
19.002930864000479
 20
-0.5270127118644102
 10
18.911233300441161
 20
-0.8368644067796645
 10
18.804307982644549
 20
-1.141419491525427
 10
18.682154910610649
 20
-1.440677966101698
 10
18.545105122475061
 20
-1.732653601694919
 10
18.393489656373369
 20
-2.0153601694915291
 10
18.227308512305569
 20
-2.2887976694915291
 10
18.04656169027167
 20
-2.5529661016949179
 10
17.85191126654286
 20
-2.8038930084745801
 10
17.64401931739032
 20
-3.0376059322033928
 10
17.42288584281404
 20
-3.2541048728813591
 10
17.18851084281404
 20
-3.453389830508478
 10
16.941887431797099
 20
-3.6341366525423759
 10
16.684008724169981
 20
-3.7950211864406809
 10
16.414874719932691
 20
-3.9360434322033928
 10
16.13448541908523
 20
-4.0572033898305113
 10
15.843833936034381
 20
-4.1545286016949188
 10
15.543913385186929
 20
-4.2240466101694949
 10
15.23472376654286
 20
-4.2657574152542406
 10
14.91626508010218
 20
-4.2796610169491558
 10
14.687434968873371
 20
-4.2732885328389862
 10
14.46704633010218
 20
-4.2541710805084776
 10
14.25509916378862
 20
-4.2223086599576298
 10
14.051593469932691
 20
-4.1777012711864439
 10
13.856529248534381
 20
-4.1203489141949179
 10
13.66990649959371
 20
-4.0502515889830537
 10
13.491725223110651
 20
-3.96740929555085
 10
13.32198541908523
 20
-3.871822033898308
 10
13.174236683456829
 20
-3.775662321286644
 10
13.032721120124689
 20
-3.673008398063053
 10
12.89748527342843
 20
-3.563827642814791
 10
12.76857568770764
 20
-3.4480874341291168
 10
12.646038907301911
 20
-3.3257551505932881
 10
12.52992147655085
 20
-3.196798170794561
 10
12.420269939794069
 20
-3.0611838733201941
 10
12.31713084137116
 20
-2.9188796367574441
 10
12.18851084281404
 20
-3.0455508474576298
 10
11.815099825864889
 20
-3.3845338983050879
 10
11.42579897840726
 20
-3.7129237288135619
 10
11.032525673322519
 20
-4.0267478813559361
 10
10.647197283492011
 20
-4.3220338983050883
 10
10.188378427559799
 20
-4.6583686440678012
 10
9.7123455885767562
 20
-4.9894067796610209
 10
9.2190987665428565
 20
-5.3151483050847492
 10
8.7086379614581109
 20
-5.6355932203389862
 10
8.6033678343394655
 20
-6.1986890889830546
 10
8.488828639424213
 20
-6.754502118644071
 10
8.3650203767123479
 20
-7.3030323093220373
 10
8.2319430462038738
 20
-7.8442796610169534
 10
8.0879414572208219
 20
-8.373278601694917
 10
7.9313604190852303
 20
-8.8850635593220364
 10
7.7621999317970944
 20
-9.379634533898308
 10
7.5804599953564153
 20
-9.8569915254237319
 10
7.3858095716276022
 20
-10.31614141949153
 10
7.1779176224750607
 20
-10.756091101694921
 10
6.9567841478987891
 20
-11.1768405720339
 10
6.7224091478987891
 20
-11.578389830508479
 10
6.473468469932687
 20
-11.95643538135594
 10
6.2086379614581109
 20
-12.306673728813561
 10
6.0702640207801446
 20
-12.47136520127119
 10
5.9279176224750607
 20
-12.62910487288136
 10
5.7815987665428574
 20
-12.779892743644069
 10
5.6313074529835347
 20
-12.923728813559331
 10
5.4767954031953998
 20
-13.06019928495763
 10
5.3178143385767536
 20
-13.18889036016949
 10
5.1543642591276022
 20
-13.309802039194921
 10
4.9864451648479413
 20
-13.4229343220339
 10
4.8140570557377718
 20
-13.52828720868645
 10
4.6371999317970944
 20
-13.62586069915255
 10
4.4558737930259076
 20
-13.71565479343221
 10
4.270078639424213
 20
-13.797669491525429
 10
4.079566192390315
 20
-13.870911679025429
 10
3.8840881733225179
 20
-13.934388241525429
 10
3.6836445822208228
 20
-13.988099179025429
 10
3.4782354190852298
 20
-14.032044491525429
 10
3.267860683915738
 20
-14.066224179025429
 10
3.0525203767123479
 20
-14.090638241525429
 10
2.8322144974750598
 20
-14.105286679025429
 10
2.6069430462038738
 20
-14.110169491525429
 10
2.4232168809496368
 20
-14.105534957627119
 10
2.2322078767123492
 20
-14.09163135593221
 10
2.0339160334920101
 20
-14.06845868644068
 10
1.8283413512886191
 20
-14.03601694915255
 10
1.623097707220823
 20
-13.98967161016949
 10
1.425798978407264
 20
-13.92478813559323
 10
1.2364451648479411
 20
-13.84136652542373
 10
1.055036266542857
 20
-13.739406779661021
 10
0.8852137029835341
 20
-13.616260593220341
 10
0.7306188936615001
 20
-13.46927966101695
 10
0.5912518385767545
 20
-13.29846398305085
 10
0.4671125377292969
 20
-13.10381355932204
 10
0.4124912453564156
 20
-12.996226165254241
 10
0.365152791966585
 20
-12.880031779661021
 10
0.3250971775598052
 20
-12.755230402542381
 10
0.2923244021360762
 20
-12.62182203389831
 10
0.266834465695398
 20
-12.47980667372882
 10
0.2486273682377707
 20
-12.3291843220339
 10
0.2377031097631943
 20
-12.169954978813561
 10
0.2340616902716688
 20
-12.002118644067799
 10
0.2492894445089572
 20
-11.75615730932204
 10
0.294972707220822
 20
-11.49496822033899
 10
0.3711114784072629
 20
-11.218551377118651
 10
0.4777057580682796
 20
-10.926906779661021
 10
0.6107830885767545
 20
-10.62367584745763
 10
0.7663710123055683
 20
-10.3125
 10
0.9444695292547209
 20
-9.9933792372881385
 10
1.145078639424213
 20
-9.6663135593220382
 10
1.3668741902716699
 20
-9.3319650423728842
 10
1.6085320292547209
 20
-8.9909957627118668
 10
1.8700521563733661
 20
-8.6434057203389862
 10
2.151434571627604
 20
-8.2891949152542406
 10
2.449037855525908
 20
-7.9320047669491558
 10
2.7592205885767558
 20
-7.5754766949152579
 10
3.081982770780145
 20
-7.2196106991525459
 10
3.417324402136078
 20
-6.86440677966102
 10
3.7629282156953989
 20
-6.5108580508474612
 10
4.1164769445089586
 20
-6.159957627118648
 10
4.8474091478987891
 20
-5.4661016949152579
 10
5.598203639424213
 20
-4.793432203389834
 10
6.3569430462038738
 20
-4.1525423728813591
 10
6.6429599953564153
 20
-3.1673728813559352
 10
6.353963702983533
 20
-3.4093617584745788
 10
6.0590087241699742
 20
-3.6268538135593249
 10
5.7580950589157371
 20
-3.8198490466101722
 10
5.4512227072208219
 20
-3.9883474576271221
 10
5.2968761765004837
 20
-4.0615896451271221
 10
5.1436882792547216
 20
-4.1250662076271221
 10
4.9916590154835347
 20
-4.1787771451271221
 10
4.8407883851869249
 20
-4.2227224576271221
 10
4.6910763883648912
 20
-4.2569021451271221
 10
4.5425230250174344
 20
-4.2813162076271221
 10
4.3951282951445521
 20
-4.2959646451271221
 10
4.2488921987462476
 20
-4.3008474576271221
 10
3.99631010128862
 20
-4.2879369703389862
 10
3.7470383851869249
 20
-4.2492055084745797
 10
3.5010770504411619
 20
-4.1846530720339006
 10
3.258426097051331
 20
-4.0942796610169534
 10
3.024382135186924
 20
-3.9797404661016982
 10
2.8042417750174331
 20
-3.8426906779661052
 10
2.598005016542857
 20
-3.6831302966101731
 10
2.4056718597631961
 20
-3.501059322033901
 10
2.2672471098117568
 20
-3.3438095161517749
 10
2.1421491783563109
 20
-3.172267840120917
 10
1.8471973231280741
 20
-3.3788754042785971
 10
1.542324402136078
 20
-3.575211864406783
 10
1.2625971775598051
 20
-3.7417240466101731
 10
0.9795595716276019
 20
-3.8969809322033928
 10
0.693211584339466
 20
-4.040982521186443
 10
0.4035532156953972
 20
-4.1737288135593253
 10
0.1119086182377707
 20
-4.2938956567796636
 10
-0.1803980554910427
 20
-4.4001588983050883
 10
-0.4733668054910429
 20
-4.492518538135597
 10
-0.7669976317622302
 20
-4.5709745762711904
 10
-1.05996638176223
 20
-4.633540783898308
 10
-1.350948902948671
 20
-4.6782309322033937
 10
-1.6399451953215529
 20
-4.7050450211864447
 10
-1.9269552588808749
 20
-4.7139830508474612
 10
-2.1095227906605358
 20
-4.7100105932203427
 10
-2.2864626741351119
 20
-4.6980932203389862
 10
-2.4577749093046042
 20
-4.6782309322033928
 10
-2.6234594961690099
 20
-4.6504237288135624
 10
-2.7835164347283321
 20
-4.6146716101694949
 10
-2.9379457249825691
 20
-4.5709745762711904
 10
-3.0867473669317209
 20
-4.5193326271186471
 10
-3.2299213605757879
 20
-4.4597457627118677
 10
-3.501041593626637
 20
-4.3213718220339006
 10
-3.7529616148130769
 20
-4.1604872881355961
 10
-3.9856814241351119
 20
-3.9770921610169521
 10
-4.1992010215927396
 20
-3.7711864406779689
 10
-4.3948445597283321
 20
-3.5450873940677998
 10
-4.5739361910842646
 20
-3.301112288135597
 10
-4.7364759156605354
 20
-3.0392611228813591
 10
-4.8824637334571444
 20
-2.7595338983050879
 10
-5.013223797016467
 20
-2.4665651483050879
 10
-5.1300802588808736
 20
-2.164989406779664
 10
-5.2330331190503649
 20
-1.8548066737288169
 10
-5.3220823775249402
 20
-1.5360169491525459
 10
-5.3982211487113814
 20
-1.21159957627119
 10
-5.4624425470164661
 20
-0.8845338983050881
 10
-5.5147465724401954
 20
-0.5548199152542405
 10
-5.5551332249825673
 20
-0.2224576271186471
 10
-5.58525769532155
 20
0.1085805084745732
 10
-5.6067751741351106
 20
0.4343220338983019
 10
-5.6196856614232464
 20
0.7547669491525391
 10
-5.6239891571859584
 20
1.069915254237285
 10
-5.6157132037961279
 20
1.481064618644065
 10
-5.5908853436266366
 20
1.888241525423725
 10
-5.5495055766774843
 20
2.2914459745762681
 10
-5.4915739029486703
 20
2.690677966101692
 10
-5.4217248563385017
 20
3.0862685381355899
 10
-5.3445929707452802
 20
3.4785487288135561
 10
-5.2601782461690103
 20
3.867518538135589
 10
-5.1684806826096876
 20
4.253177966101692
 10
-4.9672094961690094
 20
5.0119173728813529
 10
-4.7447518690503641
 20
5.7521186440677923
 10
-4.5222942419317214
 20
6.4737817796610138
 10
-4.321023055491044
 20
7.1769067796610138
 10
-4.1449107673554506
 20
7.8601694915254203
 10
-3.99792983515206
 20
8.5222457627118615
 10
-3.939998161423246
 20
8.8450079449152526
 10
-3.8986183944740942
 20
9.1618114406779636
 10
-3.873790534304602
 20
9.4726562499999982
 10
-3.865514580914772
 20
9.7775423728813529
 10
-3.8708111910842642
 20
9.962923728813557
 10
-3.8867010215927391
 20
10.201271186440669
 10
-3.91980483515206
 20
10.460805084745759
 10
-3.9767433944740951
 20
10.70974576271186
 10
-4.0161369326096867
 20
10.82759533898305
 10
-4.0654616148130769
 20
10.9375
 10
-4.1247174410842637
 20
11.039459745762709
 10
-4.1939044114232473
 20
11.13347457627118
 10
-4.2746777165079921
 20
11.21226165254237
 10
-4.368692547016467
 20
11.26853813559322
 10
-4.4759489029486712
 20
11.30230402542373
 10
-4.5964467843046029
 20
11.3135593220339
 10
-4.7027927853639264
 20
11.307352356991521
 10
-4.8099663817622309
 20
11.288731461864399
 10
-4.917967573499519
 20
11.25769663665254
 10
-5.0267963605757897
 20
11.214247881355931
 10
-5.1364527429910432
 20
11.158385195974571
 10
-5.2469367207452802
 20
11.09010858050847
 10
-5.3582482938384999
 20
11.009418034957619
 10
-5.4703874622707032
 20
10.916313559322029
 10
-5.696817547016467
 20
10.698821504237291
 10
-5.9258959368469757
 20
10.44359110169491
 10
-6.15762263176223
 20
10.15062235169491
 10
-6.3919976317622291
 20
9.8199152542372836
 10
-6.6280278224401954
 20
9.4541181144067767
 10
-6.8647200893893476
 20
9.0558792372881314
 10
-7.1020744326096867
 20
8.6251986228813529
 10
-7.3400908521012118
 20
8.1620762711864359
 10
-7.5781072715927369
 20
7.6734639830508442
 10
-7.815461614813076
 20
7.1663135593220311
 10
-8.05215388176223
 20
6.6406249999999982
 10
-8.2881840724401954
 20
6.0963983050847439
 10
-8.7569340724401954
 20
4.9602754237288114
 10
-9.2203874622707023
 20
3.7658898305084718
 10
-9.6732476317622282
 20
2.5397245762711829
 10
-10.11021797074528
 20
1.3082627118644039
 10
-10.94178576735545
 20
-1.1228813559322071
 10
-11.693904411423251
 20
-3.379237288135597
 10
-11.7694638658724
 20
-3.5170319120762752
 10
-11.84783714447409
 20
-3.6443988347457661
 10
-11.92902424722833
 20
-3.761338056144071
 10
-12.013025174135111
 20
-3.86784957627119
 10
-12.099839925194431
 20
-3.9639333951271221
 10
-12.189468500406299
 20
-4.0495895127118677
 10
-12.2819108997707
 20
-4.1248179290254274
 10
-12.37716712328765
 20
-4.1896186440678003
 10
-12.47523717095714
 20
-4.2454813294491558
 10
-12.57612104277918
 20
-4.2938956567796636
 10
-12.679818738753751
 20
-4.3348616260593253
 10
-12.78633025888087
 20
-4.3683792372881376
 10
-12.895655603160529
 20
-4.3944484904661056
 10
-13.00779477159274
 20
-4.4130693855932241
 10
-13.122747764177481
 20
-4.4242419226694958
 10
-13.24051458091477
 20
-4.4279661016949188
 10
-13.37723333091477
 20
-4.4206832627118677
 10
-13.511965852101209
 20
-4.3988347457627146
 10
-13.64471214447409
 20
-4.3624205508474603
 10
-13.77547220803342
 20
-4.3114406779661048
 10
-13.901597737694431
 20
-4.2462261652542406
 10
-14.0204404283724
 20
-4.1671080508474603
 10
-14.132000280067309
 20
-4.0740863347457674
 10
-14.23627729277918
 20
-3.9671610169491558
 10
-14.331616275830029
 20
-3.8466631355932228
 10
-14.416362038541889
 20
-3.7129237288135619
 10
-14.49051458091477
 20
-3.5659427966101731
 10
-14.554073902948669
 20
-3.4057203389830542
 10
-14.605053775830021
 20
-3.2332494703389858
 10
-14.64146797074528
 20
-3.0495233050847488
 10
-14.663316487694431
 20
-2.8545418432203422
 10
-14.670599326677481
 20
-2.6483050847457661
 10
-14.6600061063385
 20
-2.2245762711864439
 10
-14.62822644532155
 20
-1.8432203389830539
 10
-14.575260343626629
 20
-1.4804025423728839
 10
-14.501107801253751
 20
-1.1122881355932239
 10
-14.00852305549104
 20
1.1228813559322011
 10
-13.99007252586912
 20
1.209295228844999
 10
-14.112343820996379
 20
1.1807464386449491
 10
-14.247206296337181
 20
1.16036417591571
 10
-14.394657744992919
 20
1.148140581592406
 10
-14.554695960065001
 20
1.144067796610166
 10
-18.950882400742969
 20
1.144067796610166
 10
-19.076187713278792
 20
1.1485859282234649
 10
-19.191276436950641
 20
1.1621844759069959
 10
-19.296121933195622
 20
1.1849296689262141
 10
-19.390697563450811
 20
1.2168877365465689
 10
-19.539194915254232
 20
0.3866525423728779
 10
-19.58554025423728
 20
0.0652145127118613
 10
-19.618644067796609
 20
-0.247616525423732
 10
-19.638506355932201
 20
-0.5518405720339016
 10
-19.645127118644069
 20
-0.8474576271186476
 10
-19.639499470338979
 20
-1.082825741525427
 10
-19.62261652542373
 20
-1.2910487288135619
 10
-19.594478283898301
 20
-1.4721265889830539
 10
-19.555084745762709
 20
-1.626059322033901
 10
-19.529346530720339
 20
-1.6918531514830539
 10
-19.4971530720339
 20
-1.748874470338986
 10
-19.45850436970338
 20
-1.797123278601698
 10
-19.41340042372881
 20
-1.83659957627119
 10
-19.36184123411017
 20
-1.8673033633474609
 10
-19.30382680084745
 20
-1.889234639830512
 10
-19.239357123940671
 20
-1.902393405720342
 10
-19.16843220338983
 20
-1.906779661016953
 10
-19.055879237288138
 20
-1.8998278601694949
 10
-18.940677966101699
 20
-1.8789724576271221
 10
-18.822828389830509
 20
-1.844213453389834
 10
-18.702330508474571
 20
-1.7955508474576301
 10
-18.457362288135592
 20
-1.6671080508474609
 10
-18.209745762711862
 20
-1.504237288135597
 10
-17.960805084745761
 20
-1.3122351694915291
 10
-17.711864406779661
 20
-1.096398305084749
 10
-17.469544491525419
 20
-0.8646716101694948
 10
-17.24046610169491
 20
-0.6250000000000031
 10
-16.98027012711864
 20
-0.3297139830508506
 10
-16.71875
 20
-0.0158898305084778
 10
-16.455905720338979
 20
0.3164724576271155
 10
-16.191737288135592
 20
0.667372881355929
 10
-15.683262711864399
 20
-1.684322033898308
 10
-15.967955508474571
 20
-2.0524364406779698
 10
-16.334745762711862
 20
-2.4788135593220368
 10
-16.544954978813561
 20
-2.703919491525427
 10
-16.767743644067789
 20
-2.9237288135593249
 10
-17.003111758474571
 20
-3.1382415254237319
 10
-17.251059322033889
 20
-3.3474576271186471
 10
-17.509931144067789
 20
-3.5460805084745801
 10
-17.778072033898301
 20
-3.7288135593220368
 10
-18.055481991525419
 20
-3.89565677966102
 10
-18.342161016949149
 20
-4.0466101694915286
 10
-18.48781779661017
 20
-4.1136453919491549
 10
-18.63347457627118
 20
-4.1717425847457648
 10
-18.779131355932201
 20
-4.2209017478813582
 10
-18.924788135593221
 20
-4.2611228813559352
 10
-19.070444915254239
 20
-4.2924059851694949
 10
-19.216101694915249
 20
-4.3147510593220364
 10
-19.36175847457627
 20
-4.3281581038135624
 10
-19.50741525423728
 20
-4.332627118644071
 10
-19.678561970338979
 20
-4.3255925582627146
 10
-19.84242584745763
 20
-4.3044888771186471
 10
-19.999006885593221
 20
-4.2693160752118677
 10
-20.148305084745761
 20
-4.2200741525423764
 10
-20.290320444915249
 20
-4.1567631091101731
 10
-20.425052966101699
 20
-4.0793829449152579
 10
-20.552502648305079
 20
-3.9879336599576312
 10
-20.672669491525419
 20
-3.8824152542372921
 10
-20.787208686440671
 20
-3.763489804025427
 10
-20.89777542372881
 20
-3.6318193855932241
 10
-21.00436970338983
 20
-3.4874039989406822
 10
-21.106991525423719
 20
-3.3302436440677998
 10
-21.205640889830509
 20
-3.1603383209745801
 10
-21.30031779661017
 20
-2.97768802966102
 10
-21.391022245762709
 20
-2.7822927701271221
 10
-21.477754237288131
 20
-2.574152542372885
 10
-21.612155720338979
 20
-2.723119703389834
 10
-21.761122881355931
 20
-2.8734110169491558
 10
-21.924655720338979
 20
-3.02502648305085
 10
-22.102754237288131
 20
-3.1779661016949192
 10
-22.292439088983041
 20
-3.327926377118648
 10
-22.49073093220338
 20
-3.4706038135593249
 10
-22.697629766949149
 20
-3.605998411016953
 10
-22.913135593220339
 20
-3.7341101694915291
 10
-23.13526218220338
 20
-3.8529528601694949
 10
-23.36202330508474
 20
-3.9605402542372921
 10
-23.593418961864401
 20
-4.0568723516949188
 10
-23.82944915254237
 20
-4.1419491525423764
 10
-24.067796610169491
 20
-4.2114671610169516
 10
-24.306144067796609
 20
-4.2611228813559352
 10
-24.544491525423719
 20
-4.2909163135593253
 10
-24.782838983050841
 20
-4.3008474576271221
 10
-25.03542108050847
 20
-4.2879369703389862
 10
-25.28469279661017
 20
-4.2492055084745797
 10
-25.530654131355931
 20
-4.1846530720339006
 10
-25.773305084745761
 20
-4.0942796610169534
 10
-26.00734904661017
 20
-3.9797404661016982
 10
-26.227489406779661
 20
-3.8426906779661052
 10
-26.433726165254239
 20
-3.6831302966101731
 10
-26.6260593220339
 20
-3.501059322033901
 10
-26.802171610169491
 20
-3.297139830508478
 10
-26.959745762711862
 20
-3.0720338983050879
 10
-27.09878177966101
 20
-2.8257415254237319
 10
-27.219279661016941
 20
-2.5582627118644101
 10
-27.306445234762631
 20
-2.3012132137776522
 10
-27.481539138656309
 20
-2.573486052322743
 10
-27.674765355621201
 20
-2.837635857434107
 10
-27.88588021623605
 20
-3.0938112915101188
 10
-28.114640051079629
 20
-3.3421610169491558
 10
-28.396353504469459
 20
-3.6112950211864439
 10
-28.701239627350819
 20
-3.8625529661016982
 10
-29.029298419723698
 20
-4.0959348516949188
 10
-29.38052988158811
 20
-4.3114406779661048
 10
-29.564835363579629
 20
-4.4119935116525451
 10
-29.754934012944041
 20
-4.5070842161016973
 10
-30.152510813791501
 20
-4.6808792372881376
 10
-30.57326028413048
 20
-4.8328257415254257
 10
-31.017182423960989
 20
-4.9629237288135624
 10
-31.247750485401671
 20
-5.0187864141949188
 10
-31.483946195147428
 20
-5.0672007415254274
 10
-31.72576955319828
 20
-5.1081667108050883
 10
-31.97322055955421
 20
-5.1416843220339006
 10
-32.226299214215217
 20
-5.1677535752118686
 10
-32.485005517181321
 20
-5.1863744703389871
 10
-32.749339468452519
 20
-5.1975470074152588
 10
-33.019301068028788
 20
-5.2012711864406818
 10
-33.368215262944041
 20
-5.195643538135597
 10
-33.726398525655902
 20
-5.1787605932203427
 10
-34.09385085616438
 20
-5.1506223516949188
 10
-34.470572254469467
 20
-5.1112288135593253
 10
-34.85292130107964
 20
-5.0622351694915286
 10
-35.237256576503363
 20
-5.0052966101694949
 10
-36.011885813791501
 20
-4.8675847457627146
 10
-36.399531470571162
 20
-4.7871424788135633
 10
-36.783866745994892
 20
-4.69941737288136
 10
-37.164891640062677
 20
-4.6044094279661056
 10
-37.542606152774553
 20
-4.5021186440678003
 10
-38.27353835616438
 20
-4.2823093220339006
 10
-38.962097678198283
 20
-4.0466101694915286
 10
-39.106099267181328
 20
-4.0048993644067838
 10
-39.241493864638947
 20
-3.953919491525427
 10
-39.368281470571162
 20
-3.8936705508474612
 10
-39.486462084977937
 20
-3.824152542372885
 10
-39.539841984342353
 20
-3.7834348516949192
 10
-39.586104563791501
 20
-3.735434322033901
 10
-39.625249823325397
 20
-3.680150953389834
 10
-39.657277762944041
 20
-3.617584745762715
 10
-39.682188382647432
 20
-3.5477356991525451
 10
-39.699981682435563
 20
-3.4706038135593249
 10
-39.710657662308449
 20
-3.3861890889830542
 10
-39.714216322266083
 20
-3.2944915254237319
 10
-39.708588673960989
 20
-2.4099576271186471
 10
-39.691705729045736
 20
-1.514830508474579
 10
-39.663567487520311
 20
-0.6091101694915286
 10
-39.624173949384719
 20
0.3072033898305051
 10
-39.567566428198283
 20
1.2235169491525391
 10
-39.487786237520311
 20
2.1292372881355899
 10
-39.384833377350823
 20
3.0243644067796569
 10
-39.258707847689813
 20
3.9088983050847421
 10
-39.186044976927093
 20
4.345951403601692
 10
-39.105768229045736
 20
4.7778734110169463
 10
-39.017877604045736
 20
5.204664327330506
 10
-38.922373101927093
 20
5.6263241525423693
 10
-38.819254722689799
 20
6.0428528866525388
 10
-38.708522466333868
 20
6.4542505296610138
 10
-38.590176332859293
 20
6.8605170815677941
 10
-38.464216322266083
 20
7.2616525423728771
 10
-38.329152762944041
 20
7.6550086069915206
 10
-38.183495983283031
 20
8.0379369703389791
 10
-38.027245983283031
 20
8.410437632415249
 10
-37.860402762944041
 20
8.7725105932203356
 10
-37.682966322266068
 20
9.1241558527542352
 10
-37.494936661249127
 20
9.4653734110169481
 10
-37.29631377989319
 20
9.7961632680084723
 10
-37.087097678198283
 20
10.11652542372881
 10
-36.901219765062677
 20
10.23818193855932
 10
-36.719645347689813
 20
10.343617584745759
 10
-36.542374426079633
 20
10.43283236228813
 10
-36.369407000232172
 20
10.505826271186439
 10
-36.200743070147418
 20
10.562599311440669
 10
-36.03638263582539
 20
10.603151483050841
 10
-35.876325697266068
 20
10.627482786016939
 10
-35.720572254469467
 20
10.635593220338979
 10
-35.531218440910138
 20
10.622020656779659
 10
-35.349809542605058
 20
10.58130296610169
 10
-35.176345559554207
 20
10.513440148305079
 10
-35.010826491757598
 20
10.41843220338983
 10
-34.853252339215217
 20
10.296279131355931
 10
-34.703623101927093
 20
10.146980932203389
 10
-34.56193877989319
 20
9.9705376059321988
 10
-34.428199373113529
 20
9.7669491525423684
 10
-34.66290541124912
 20
9.4292902542372872
 10
-34.879735390062677
 20
9.0730932203389809
 10
-35.078689309554207
 20
8.6983580508474549
 10
-35.259767169723702
 20
8.3050847457627093
 10
-35.424955199384719
 20
7.8975768008474532
 10
-35.576239627350823
 20
7.4801377118644039
 10
-35.713620453622013
 20
7.052767478813557
 10
-35.837097678198283
 20
6.6154661016949117
 10
-35.947995453622013
 20
6.170881885593217
 10
-36.047637932435563
 20
5.721663135593217
 10
-36.136025114638947
 20
5.2678098516949117
 10
-36.213157000232172
 20
4.8093220338983027
 10
-36.341599796842353
 20
3.898305084745759
 10
-36.440911237520311
 20
3.008474576271182
 10
-36.48990488158811
 20
2.4947033898305051
 10
-36.530953610401667
 20
1.9491525423728779
 10
-36.599809542605058
 20
0.8050847457627084
 10
-36.627616745994892
 20
0.2237817796610136
 10
-36.647479034130477
 20
-0.3548728813559356
 10
-36.65939640701184
 20
-0.9202860169491557
 10
-36.663368864638947
 20
-1.461864406779664
 10
-36.658072254469467
 20
-1.6949152542372921
 10
-36.631589203622013
 20
-2.0021186440677998
 10
-36.605106152774553
 20
-2.1543961864406809
 10
-36.56802988158811
 20
-2.293432203389834
 10
-36.544195135825397
 20
-2.3553363347457661
 10
-36.515063779893197
 20
-2.4086334745762739
 10
-36.480635813791508
 20
-2.4533236228813591
 10
-36.440911237520311
 20
-2.48940677966102
 10
-36.111859330740643
 20
-2.5913665254237319
 10
-35.770890051079633
 20
-2.6853813559322068
 10
-35.418003398537252
 20
-2.7714512711864439
 10
-35.053199373113529
 20
-2.8495762711864439
 10
-34.682436661249127
 20
-2.914459745762715
 10
-34.311673949384712
 20
-2.9608050847457661
 10
-33.940911237520311
 20
-2.988612288135597
 10
-33.570148525655902
 20
-2.9978813559322068
 10
-33.123247042605058
 20
-2.984308792372885
 10
-32.682966322266083
 20
-2.9435911016949192
 10
-32.249306364638947
 20
-2.875728283898308
 10
-31.822267169723698
 20
-2.7807203389830542
 10
-31.61338210616438
 20
-2.722457627118648
 10
-31.41045572904574
 20
-2.656250000000004
 10
-31.213488038367771
 20
-2.5820974576271221
 10
-31.02247903413048
 20
-2.500000000000004
 10
-30.837428716333871
 20
-2.4099576271186471
 10
-30.658337084977941
 20
-2.3119703389830542
 10
-30.485204140062692
 20
-2.2060381355932228
 10
-30.31802988158811
 20
-2.0921610169491558
 10
-30.157890183494889
 20
-1.9701734639830539
 10
-30.005860919723698
 20
-1.8399099576271221
 10
-29.86194209027455
 20
-1.7013704978813591
 10
-29.726133695147428
 20
-1.5545550847457661
 10
-29.598435734342349
 20
-1.399463718220342
 10
-29.47884820785929
 20
-1.2360963983050881
 10
-29.36737111569828
 20
-1.0644531250000031
 10
-29.26400445785929
 20
-0.8845338983050879
 10
-29.170899982223698
 20
-0.6955938824152574
 10
-29.090209436672851
 20
-0.496888241525427
 10
-29.02193282120675
 20
-0.2884169756355966
 10
-28.966070135825401
 20
-0.0701800847457661
 10
-28.922621380528788
 20
0.1578224311440644
 10
-28.89158655531692
 20
0.395590572033895
 10
-28.872965660189799
 20
0.6431243379237257
 10
-28.866758695147428
 20
0.9004237288135562
 10
-28.870400114638951
 20
1.0507978019067761
 10
-28.881324373113529
 20
1.194716631355929
 10
-28.899531470571159
 20
1.332180217161014
 10
-28.92502140701183
 20
1.4631885593220311
 10
-28.95779418243556
 20
1.58774165783898
 10
-28.997849796842338
 20
1.7058395127118611
 10
-29.045188250232179
 20
1.8174821239406751
 10
-29.099809542605058
 20
1.9226694915254201
 10
-29.225272995994889
 20
2.1183130296610129
 10
-29.36861250870675
 20
2.2974046610169458
 10
-29.52982808074065
 20
2.459944385593217
 10
-29.708919712096581
 20
2.6059322033898278
 10
-29.90357013582539
 20
2.73669226694915
 10
-30.111462084977941
 20
2.8535487288135561
 10
-30.33259555955421
 20
2.9565015889830479
 10
-30.56697055955421
 20
3.0455508474576241
 10
-31.054258695147428
 20
3.2018008474576241
 10
-31.552140051079629
 20
3.34216101694915
 10
-32.537309542605058
 20
3.6016949152542339
 10
-32.771684542605058
 20
3.6695577330508451
 10
-32.992818017181328
 20
3.7460275423728779
 10
-33.200709966333868
 20
3.831104343220336
 10
-33.395360390062677
 20
3.9247881355932162
 10
-33.574452021418622
 20
4.0287341101694878
 10
-33.735667593452519
 20
4.1445974576271158
 10
-33.87900710616438
 20
4.2723781779660994
 10
-34.004470559554207
 20
4.4120762711864376
 10
-34.059091851927093
 20
4.4876357256355899
 10
-34.10643030531692
 20
4.5686573093220311
 10
-34.146485919723702
 20
4.6551410222457594
 10
-34.179258695147418
 20
4.7470868644067767
 10
-34.204748631588103
 20
4.8444948358050821
 10
-34.222955729045729
 20
4.9473649364406764
 10
-34.233879987520311
 20
5.055697166313557
 10
-34.237521407011833
 20
5.1694915254237266
 10
-34.230900644299972
 20
5.3773834745762672
 10
-34.21103835616438
 20
5.5561440677966072
 10
-34.193162296842353
 20
5.6346001059322024
 10
-34.166017169723702
 20
5.705773305084743
 10
-34.129602974808449
 20
5.7696636652542344
 10
-34.083919712096581
 20
5.8262711864406747
 10
-34.027643229045729
 20
5.8759269067796573
 10
-33.959449373113529
 20
5.9189618644067759
 10
-33.879338144299972
 20
5.9553760593220302
 10
-33.787309542605058
 20
5.9851694915254203
 10
-33.680384224808449
 20
6.0083421610169454
 10
-33.555582847689813
 20
6.0248940677966063
 10
-33.252351915486408
 20
6.0381355932203364
 10
-32.816705729045736
 20
6.0288665254237257
 10
-32.420784118876242
 20
6.0010593220338961
 10
-32.030159118876242
 20
5.9732521186440648
 10
-31.610402762944041
 20
5.9639830508474549
 10
-31.359227577562681
 20
5.9678727489406764
 10
-31.114176597689809
 20
5.9795418432203364
 10
-30.875249823325401
 20
5.9989903336864376
 10
-30.64244725446947
 20
6.02621822033898
 10
-30.41576889112201
 20
6.0612255031779636
 10
-30.19521473328302
 20
6.1040121822033866
 10
-29.980784780952511
 20
6.1545782574152517
 10
-29.77247903413048
 20
6.212923728813557
 10
-29.571042328621999
 20
6.2778899629237257
 10
-29.377219500232169
 20
6.3483183262711833
 10
-29.191010548960989
 20
6.424208818855929
 10
-29.012415474808449
 20
6.5055614406779627
 10
-28.84143427777455
 20
6.5923761917372854
 10
-28.67806695785929
 20
6.6846530720338952
 10
-28.522313515062681
 20
6.7823920815677932
 10
-28.374173949384719
 20
6.8855932203389791
 10
-28.233979298960989
 20
6.9937599311440639
 10
-28.102060601927089
 20
7.1063956567796573
 10
-27.97841785828302
 20
7.2235003972457594
 10
-27.863051068028788
 20
7.3450741525423693
 10
-27.75596023116438
 20
7.4711169226694878
 10
-27.657145347689809
 20
7.6016287076271158
 10
-27.566606417605058
 20
7.7366095074152508
 10
-27.484343440910141
 20
7.8760593220338961
 10
-27.411101253410141
 20
8.0189850370762699
 10
-27.347624690910141
 20
8.1643935381355917
 10
-27.293913753410141
 20
8.3122848252118615
 10
-27.249968440910141
 20
8.462658898305083
 10
-27.215788753410141
 20
8.6155157574152526
 10
-27.191374690910141
 20
8.7708554025423702
 10
-27.176726253410141
 20
8.9286778336864376
 10
-27.171843440910141
 20
9.0889830508474549
 10
-27.175650379469459
 20
9.193839380296609
 10
-27.187071195147428
 20
9.2965439618644048
 10
-27.206105887944041
 20
9.3970967955508442
 10
-27.23275445785929
 20
9.4954978813559308
 10
-27.26701690489319
 20
9.5917472192796573
 10
-27.30889322904574
 20
9.6858448093220311
 10
-27.35838343031692
 20
9.7777906514830484
 10
-27.41548750870675
 20
9.8675847457627093
 10
-27.54955795362201
 20
10.04038665254237
 10
-27.708125220571159
 20
10.20391949152542
 10
-27.89118930955421
 20
10.35818326271186
 10
-28.098750220571159
 20
10.50317796610169
 10
-28.328159648537259
 20
10.63923463983051
 10
-28.576769288367771
 20
10.766684322033891
 10
-28.844579140062681
 20
10.88552701271186
 10
-29.13158920362201
 20
10.995762711864399
 10
-29.434820135825401
 20
11.097391419491521
 10
-29.751292593452511
 20
11.19041313559322
 10
-30.081006576503359
 20
11.27482786016949
 10
-30.423962084977941
 20
11.350635593220341
 10
-30.778172890062681
 20
11.41750529661017
 10
-31.141652762944041
 20
11.475105932203389
 10
-31.51440170362201
 20
11.5234375
 10
-31.896419712096581
 20
11.5625
 10
-32.284396407011833
 20
11.592624470338979
 10
-32.675021407011833
 20
11.61414194915254
 10
-33.068294712096566
 20
11.627052436440669
 10
-33.464216322266083
 20
11.631355932203389
 10
-33.965739097689799
 20
11.624404131355931
 10
-34.463951491757598
 20
11.603548728813561
 10
-34.958853504469459
 20
11.56878972457627
 10
-35.450445135825397
 20
11.52012711864406
 10
-35.931774584977937
 20
11.457229872881349
 10
-36.395890051079633
 20
11.37976694915254
 10
-36.842791534130477
 20
11.28773834745763
 10
-37.272479034130477
 20
11.181144067796611
 10
-37.681642169723702
 20
11.05998411016949
 10
-38.066970559554207
 20
10.92425847457627
 10
-38.428464203622013
 20
10.77396716101695
 10
-38.766123101927093
 20
10.609110169491521
 10
-38.924111052138947
 20
10.52130230402542
 10
-39.072333377350823
 20
10.43001853813559
 10
-39.210790077562677
 20
10.335258871822029
 10
-39.339481152774553
 20
10.23702330508474
 10
-39.458406602986408
 20
10.13531183792373
 10
-39.567566428198283
 20
10.030124470338979
 10
-39.666960628410138
 20
9.9214612023305051
 10
-39.756589203622013
 20
9.8093220338983009
 10
-40.091599796842353
 20
9.2233845338983009
 10
-40.408072254469459
 20
8.7155720338983009
 10
-40.706006576503363
 20
8.2858845338983009
 10
-40.848021936672851
 20
8.1003376588983009
 10
-40.985402762944041
 20
7.9343220338983009
 10
-41.117321459977937
 20
7.7878376588983018
 10
-41.242950432435563
 20
7.6608845338983018
 10
-41.36228968031692
 20
7.5534626588983018
 10
-41.475339203622013
 20
7.4655720338983018
 10
-41.582099002350823
 20
7.3972126588983018
 10
-41.682569076503363
 20
7.3483845338983018
 10
-41.776749426079633
 20
7.3190876588983018
 10
-41.864640051079633
 20
7.3093220338983009
 10
-41.921082053198283
 20
7.3135013903601651
 10
-41.97388263582539
 20
7.3260394597457594
 10
-42.023041798960989
 20
7.3469362420550812
 10
-42.068559542605058
 20
7.3761917372881314
 10
-42.110435866757598
 20
7.4138059454449117
 10
-42.148670771418608
 20
7.4597788665254203
 10
-42.214216322266068
 20
7.5768008474576236
 10
-42.265196195147418
 20
7.7272576800847439
 10
-42.301610390062677
 20
7.9111493644067767
 10
-42.323458907011833
 20
8.1284759004237248
 10
-42.330741745994892
 20
8.3792372881355881
 10
-42.326107212096581
 20
8.6354608050847403
 10
-42.312203610401667
 20
8.8850635593220293
 10
-42.289030940910138
 20
9.1280455508474532
 10
-42.256589203622013
 20
9.3644067796610138
 10
-42.214878398537259
 20
9.5941472457627093
 10
-42.16389852565591
 20
9.8172669491525397
 10
-42.103649584977937
 20
10.03376588983051
 10
-42.034131576503363
 20
10.243644067796611
 10
-41.956254855105058
 20
10.447315280720341
 10
-41.87092977565591
 20
10.64519332627118
 10
-41.77815633815591
 20
10.83727820444915
 10
-41.677934542605058
 20
11.02356991525423
 10
-41.57026438900337
 20
11.204068458686439
 10
-41.455145877350823
 20
11.378773834745759
 10
-41.332579007647432
 20
11.547686043432201
 10
-41.20256377989319
 20
11.710805084745759
 10
-41.065679510825397
 20
11.86804819915254
 10
-40.922505517181328
 20
12.01933262711864
 10
-40.773041798960982
 20
12.164658368644069
 10
-40.617288356164373
 20
12.30402542372881
 10
-40.455245188791487
 20
12.437433792372881
 10
-40.286912296842338
 20
12.56488347457627
 10
-40.11228968031692
 20
12.686374470338979
 10
-39.931377339215217
 20
12.80190677966101
 10
-39.554655940910138
 20
13.017081567796611
 10
-39.160720559554207
 20
13.212394067796611
 10
-38.749571195147432
 20
13.38784427966101
 10
-38.321207847689813
 20
13.54343220338983
 10
-37.877947784130477
 20
13.67948887711864
 10
-37.422108271418622
 20
13.79634533898305
 10
-36.953689309554207
 20
13.89400158898305
 10
-36.472690898537259
 20
13.97245762711864
 10
-35.98209238158811
 20
14.032706567796611
 10
-35.484873101927093
 20
14.075741525423719
 10
-34.981033059554207
 20
14.101562499999989
  0
LWPOLYLINE
  5
49
  8
LAYER_1
 62
256
370
-1
  6
ByLayer
100
AcDbEntity
100
AcDbPolyline
 90
50
 70
1
 10
2.88314645853528
 20
-12.38357177723141
 10
2.9936304362895219
 20
-12.3795165600704
 10
3.102624742433592
 20
-12.367350908587349
 10
3.2101293769674899
 20
-12.347074822782259
 10
3.3161443398912178
 20
-12.31868830265514
 10
3.4206696312047749
 20
-12.282191348205989
 10
3.523705250908161
 20
-12.237583959434801
 10
3.6252511990013789
 20
-12.184866136341579
 10
3.7253074754844291
 20
-12.12403787892632
 10
3.9199578992132551
 20
-11.984008747570391
 10
4.1066634076878339
 20
-11.82345525180768
 10
4.2854240009081703
 20
-11.64237739163819
 10
4.4562396788742697
 20
-11.44077516706192
 10
4.6194414797217274
 20
-11.221627921299209
 10
4.7753604415861348
 20
-10.987914997570391
 10
4.9239965644674886
 20
-10.739636395875481
 10
5.0653498483657851
 20
-10.47679211621446
 10
5.1990892551454531
 20
-10.20500980689242
 10
5.3248837466708787
 20
-9.9299171162144564
 10
5.442733322942062
 20
-9.6515140441805602
 10
5.552637983959003
 20
-9.3698005907907351
 10
5.7486125602302014
 20
-8.8096840653669997
 10
5.9128074754844286
 20
-8.2628090653669943
 10
6.0452227297217309
 20
-7.7516861840110671
 10
6.1458583229420629
 20
-7.2988260145195474
 10
5.938297411925114
 20
-7.4431586416381883
 10
5.7287502720946097
 20
-7.6007327941805576
 10
5.5172169034505441
 20
-7.771548472146657
 10
5.3036973059929133
 20
-7.9556056755364883
 10
4.879968492433588
 20
-8.3515272857059841
 10
4.4668328992132604
 20
-8.7765802518076725
 10
4.069587136501398
 20
-9.2228196585873405
 10
3.6935278144674881
 20
-9.6823005907907351
 10
3.35057230599292
 20
-10.13913321790937
 10
3.052637983959031
 20
-10.577427709434801
 10
2.9222089585352951
 20
-10.78829900180768
 10
2.8063456110776639
 20
-10.99188745519751
 10
2.7050479415861348
 20
-11.18819306960429
 10
2.6183159500607061
 20
-11.377215845028021
 10
2.5487979415861388
 20
-11.554652285705989
 10
2.4991422212471588
 20
-11.716198895875481
 10
2.46934878904377
 20
-11.861855675536489
 10
2.4594176449759719
 20
-11.991622624689031
 10
2.4660384076878361
 20
-12.08348570731615
 10
2.4859006958234282
 20
-12.16310037892632
 10
2.5190045093827478
 20
-12.230466639519539
 10
2.5653498483657962
 20
-12.28558448909582
 10
2.6249367127725729
 20
-12.32845392765514
 10
2.6977651026030789
 20
-12.35907495519751
 10
2.783835017857315
 20
-12.377447571722939
  0
ENDSEC
  0
SECTION
  2
OBJECTS
  0
DICTIONARY
  5
C
100
AcDbDictionary
280
0
281
1
  3
ACAD_GROUP
350
D
  3
ACAD_LAYOUT
350
1A
  3
ACAD_MLINESTYLE
350
17
  3
ACAD_PLOTSETTINGS
350
19
  3
ACAD_PLOTSTYLENAME
350
E
  3
AcDbVariableDictionary
350
4A
  0
DICTIONARY
  5
D
100
AcDbDictionary
280
0
281
1
  0
ACDBDICTIONARYWDFLT
  5
E
100
AcDbDictionary
281
1
  3
Normal
350
F
100
AcDbDictionaryWithDefault
340
F
  0
ACDBPLACEHOLDER
  5
F
  0
DICTIONARY
  5
17
100
AcDbDictionary
280
0
281
1
  3
Standard
350
18
  0
MLINESTYLE
  5
18
100
AcDbMlineStyle
  2
STANDARD
 70
0
  3

 62
256
 51
90.0
 52
90.0
 71
2
 49
0.5
 62
256
  6
BYLAYER
 49
-0.5
 62
256
  6
BYLAYER
  0
DICTIONARY
  5
19
100
AcDbDictionary
280
0
281
1
  0
DICTIONARY
  5
1A
100
AcDbDictionary
281
1
  3
Layout1
350
1E
  3
Layout2
350
26
  3
Model
350
22
  0
LAYOUT
  5
1E
100
AcDbPlotSettings
  1

  2
C:\Program Files\AutoCAD 2002\plotters\DWF ePlot (optimized for plotting).pc3
  4

  6

 40
0.0
 41
0.0
 42
0.0
 43
0.0
 44
0.0
 45
0.0
 46
0.0
 47
0.0
 48
0.0
 49
0.0
140
0.0
141
0.0
142
1.0
143
1.0
 70
688
 72
0
 73
0
 74
5
  7

 75
16
147
1.0
148
0.0
149
0.0
100
AcDbLayout
  1
Layout1
 70
1
 71
1
 10
0.0
 20
0.0
 11
420.0
 21
297.0
 12
0.0
 22
0.0
 32
0.0
 14
100000000000000000000.0
 24
100000000000000000000.0
 34
100000000000000000000.0
 15
-100000000000000000000.0
 25
-100000000000000000000.0
 35
-100000000000000000000.0
146
0.0
 13
0.0
 23
0.0
 33
0.0
 16
1.0
 26
0.0
 36
0.0
 17
0.0
 27
1.0
 37
0.0
 76
0
330
1B
  0
LAYOUT
  5
22
100
AcDbPlotSettings
  1

  2
C:\Program Files\AutoCAD 2002\plotters\DWF ePlot (optimized for plotting).pc3
  4

  6

 40
0.0
 41
0.0
 42
0.0
 43
0.0
 44
0.0
 45
0.0
 46
0.0
 47
0.0
 48
0.0
 49
0.0
140
0.0
141
0.0
142
1.0
143
1.0
 70
1712
 72
0
 73
0
 74
0
  7

 75
0
147
1.0
148
0.0
149
0.0
100
AcDbLayout
  1
Model
 70
1
 71
0
 10
0.0
 20
0.0
 11
12.0
 21
9.0
 12
0.0
 22
0.0
 32
0.0
 14
0.0
 24
0.0
 34
0.0
 15
0.0
 25
0.0
 35
0.0
146
0.0
 13
0.0
 23
0.0
 33
0.0
 16
1.0
 26
0.0
 36
0.0
 17
0.0
 27
1.0
 37
0.0
 76
0
330
1F
  0
LAYOUT
  5
26
100
AcDbPlotSettings
  1

  2
C:\Program Files\AutoCAD 2002\plotters\DWF ePlot (optimized for plotting).pc3
  4

  6

 40
0.0
 41
0.0
 42
0.0
 43
0.0
 44
0.0
 45
0.0
 46
0.0
 47
0.0
 48
0.0
 49
0.0
140
0.0
141
0.0
142
1.0
143
1.0
 70
688
 72
0
 73
0
 74
5
  7

 75
16
147
1.0
148
0.0
149
0.0
100
AcDbLayout
  1
Layout2
 70
1
 71
2
 10
0.0
 20
0.0
 11
12.0
 21
9.0
 12
0.0
 22
0.0
 32
0.0
 14
0.0
 24
0.0
 34
0.0
 15
0.0
 25
0.0
 35
0.0
146
0.0
 13
0.0
 23
0.0
 33
0.0
 16
1.0
 26
0.0
 36
0.0
 17
0.0
 27
1.0
 37
0.0
 76
0
330
23
  0
DICTIONARY
  5
4A
100
AcDbDictionary
281
1
  3
DIMASSOC
350
4C
  3
HIDETEXT
350
4B
  0
DICTIONARYVAR
  5
4B
100
DictionaryVariables
280
0
  1
2
  0
DICTIONARYVAR
  5
4C
100
DictionaryVariables
280
0
  1
1
  0
ENDSEC
  0
EOF
