999
dxflib 2.0.4.8
  0
SECTION
  2
HEADER
  9
$ACADVER
  1
AC1015
  9
$HANDSEED
  5
FFFF
  9
$DIMTAD
 70
0
  9
$USERR4
 40
0.0
  9
$CLAYER
  8
0
  9
$MENU
  1
.
  9
$CHAMFERA
 40
0.5
  9
$ATTREQ
 70
1
  9
$UCSYDIR
 10
0.0
 20
1.0
 30
0.0
  9
$USERR5
 40
0.0
  9
$SHADEDIF
 70
70
  9
$TILEMODE
 70
1
  9
$VISRETAIN
 70
1
  9
$EXTMIN
 10
-27.99698248341371
 20
-38.405184873805467
 30
0.0
  9
$ORTHOMODE
 70
0
  9
$REGENMODE
 70
1
  9
$TRACEWID
 40
0.05
  9
$DIMASZ
 40
0.18
  9
$CHAMFERB
 40
0.5
  9
$UCSXDIR
 10
1.0
 20
0.0
 30
0.0
  9
$DIMSHO
 70
1
  9
$DIMALT
 70
0
  9
$DIMSAH
 70
0
  9
$DIMTFAC
 40
1.0
  9
$DIMGAP
 40
0.09
  9
$SKETCHINC
 40
0.1
  9
$USRTIMER
 70
1
  9
$ANGBASE
 50
0.0
  9
$PUCSYDIR
 10
0.0
 20
1.0
 30
0.0
  9
$LIMMIN
 10
0.0
 20
0.0
  9
$DIMTSZ
 40
0.0
  9
$SPLFRAME
 70
0
  9
$SURFTYPE
 70
6
  9
$PUCSXDIR
 10
1.0
 20
0.0
 30
0.0
  9
$DWGCODEPAGE
  3
ansi_1252
  9
$LUNITS
 70
2
  9
$AUPREC
 70
0
  9
$SPLINESEGS
 70
8
  9
$SURFTAB1
 70
6
  9
$INSBASE
 10
0.0
 20
0.0
 30
0.0
  9
$DIMRND
 40
0.0
  9
$DIMCEN
 40
0.09
  9
$ELEVATION
 40
0.0
  9
$SKPOLY
 70
0
  9
$SURFTAB2
 70
6
  9
$USERI1
 70
0
  9
$UNITMODE
 70
0
  9
$INSUNITS
 70
4
  9
$EXTMAX
 10
27.464264443120921
 20
41.372282608695663
 30
0.0
  9
$FILLMODE
 70
1
  9
$DRAGMODE
 70
2
  9
$TEXTSIZE
 40
0.2
  9
$DIMEXO
 40
0.0625
  9
$PELEVATION
 40
0.0
  9
$UCSORG
 10
0.0
 20
0.0
 30
0.0
  9
$USERI2
 70
0
  9
$DIMSCALE
 40
1.0
  9
$DIMDLE
 40
0.0
  9
$DIMZIN
 70
0
  9
$TDUSRTIMER
 40
0.0000000116
  9
$ANGDIR
 70
0
  9
$SURFU
 70
6
  9
$USERI3
 70
0
  9
$LIMMAX
 10
12.0
 20
9.0
  9
$QTEXTMODE
 70
0
  9
$OSMODE
 70
37
  9
$SURFV
 70
6
  9
$USERI4
 70
0
  9
$WORLDVIEW
 70
1
  9
$ATTMODE
 70
1
  9
$DIMTXT
 40
0.18
  9
$DIMLIM
 70
0
  9
$DIMSE1
 70
0
  9
$THICKNESS
 40
0.0
  9
$LIMCHECK
 70
0
  9
$PDMODE
 70
0
  9
$HANDLING
 70
1
  9
$USERI5
 70
0
  9
$CELTYPE
  6
BYLAYER
  9
$DIMTOH
 70
1
  9
$DIMSE2
 70
0
  9
$DIMLFAC
 40
1.0
  9
$DIMSOXD
 70
0
  9
$LUPREC
 70
4
  9
$TDINDWG
 40
0.0000000116
  9
$SPLINETYPE
 70
6
  9
$PUCSORG
 10
0.0
 20
0.0
 30
0.0
  9
$PEXTMIN
 10
100000000000000000000.0
 20
100000000000000000000.0
 30
100000000000000000000.0
  9
$PEXTMAX
 10
-100000000000000000000.0
 20
-100000000000000000000.0
 30
-100000000000000000000.0
  9
$CECOLOR
 62
256
  9
$DIMDLI
 40
0.38
  9
$DIMTM
 40
0.0
  9
$DIMASO
 70
1
  9
$DIMTVP
 40
0.0
  9
$DIMSTYLE
  2
STANDARD
  9
$PLINEWID
 40
0.0
  9
$PLIMCHECK
 70
0
  9
$LTSCALE
 40
1.0
  9
$DIMTIH
 70
1
  9
$DIMALTD
 70
2
  9
$DIMCLRT
 70
0
  9
$FILLETRAD
 40
0.5
  9
$TDUPDATE
 40
2456264.8725598259
  9
$MAXACTVP
 70
64
  9
$PLIMMIN
 10
0.0
 20
0.0
  9
$PLIMMAX
 10
12.0
 20
9.0
  9
$DIMEXE
 40
0.18
  9
$DIMCLRD
 70
0
  9
$PDSIZE
 40
0.0
  9
$ATTDIA
 70
0
  9
$USERR1
 40
0.0
  9
$TEXTSTYLE
  7
STANDARD
  9
$DIMTP
 40
0.0
  9
$DIMTOL
 70
0
  9
$DIMALTF
 40
25.399999999999999
  9
$DIMTOFL
 70
0
  9
$DIMCLRE
 70
0
  9
$TDCREATE
 40
2454910.5
  9
$COORDS
 70
1
  9
$USERR2
 40
0.0
  9
$SHADEDGE
 70
3
  9
$PLINEGEN
 70
0
  9
$PSLTSCALE
 70
1
  9
$MIRRTEXT
 70
1
  9
$DIMTIX
 70
0
  9
$AUNITS
 70
0
  9
$USERR3
 40
0.0
  0
ENDSEC
  0
SECTION
  2
TABLES
  0
TABLE
  2
VPORT
  5
8
100
AcDbSymbolTable
 70
1
  0
VPORT
  5
30
100
AcDbSymbolTableRecord
100
AcDbViewportTableRecord
  2
*Active
 70
0
 10
0.0
 20
0.0
 11
1.0
 21
1.0
 12
286.30555555555549
 22
148.5
 13
0.0
 23
0.0
 14
10.0
 24
10.0
 15
10.0
 25
10.0
 16
0.0
 26
0.0
 36
1.0
 17
0.0
 27
0.0
 37
0.0
 40
297.0
 41
1.92798353909465
 42
50.0
 43
0.0
 44
0.0
 50
0.0
 51
0.0
 71
0
 72
100
 73
1
 74
3
 75
1
 76
1
 77
0
 78
0
281
0
 65
1
110
0.0
120
0.0
130
0.0
111
1.0
121
0.0
131
0.0
112
0.0
122
1.0
132
0.0
 79
0
146
0.0
  0
ENDTAB
  0
TABLE
  2
LTYPE
  5
5
100
AcDbSymbolTable
 70
21
  0
LTYPE
  5
14
100
AcDbSymbolTableRecord
100
AcDbLinetypeTableRecord
  2
ByBlock
 70
0
  3

 72
65
 73
0
 40
0.0
  0
LTYPE
  5
15
100
AcDbSymbolTableRecord
100
AcDbLinetypeTableRecord
  2
ByLayer
 70
0
  3

 72
65
 73
0
 40
0.0
  0
LTYPE
  5
16
100
AcDbSymbolTableRecord
100
AcDbLinetypeTableRecord
  2
CONTINUOUS
 70
0
  3
Solid line
 72
65
 73
0
 40
0.0
  0
LTYPE
  5
31
100
AcDbSymbolTableRecord
100
AcDbLinetypeTableRecord
  2
DOT
 70
0
  3
Dot . . . . . . . . . . . . . . . . . . . . . .
 72
65
 73
2
 40
6.3499999999999996
 49
0.0
 74
0
 49
-6.3499999999999996
 74
0
  0
LTYPE
  5
32
100
AcDbSymbolTableRecord
100
AcDbLinetypeTableRecord
  2
DOT2
 70
0
  3
Dot (.5x) .....................................
 72
65
 73
2
 40
3.1749999999999998
 49
0.0
 74
0
 49
-3.1749999999999998
 74
0
  0
LTYPE
  5
33
100
AcDbSymbolTableRecord
100
AcDbLinetypeTableRecord
  2
DOTX2
 70
0
  3
Dot (2x) .  .  .  .  .  .  .  .  .  .  .  .  .
 72
65
 73
2
 40
12.699999999999999
 49
0.0
 74
0
 49
-12.699999999999999
 74
0
  0
LTYPE
  5
34
100
AcDbSymbolTableRecord
100
AcDbLinetypeTableRecord
  2
DASHED
 70
0
  3
Dashed __ __ __ __ __ __ __ __ __ __ __ __ __ _
 72
65
 73
2
 40
19.050000000000001
 49
12.699999999999999
 74
0
 49
-6.3499999999999996
 74
0
  0
LTYPE
  5
35
100
AcDbSymbolTableRecord
100
AcDbLinetypeTableRecord
  2
DASHED2
 70
0
  3
Dashed (.5x) _ _ _ _ _ _ _ _ _ _ _ _ _ _ _ _ _
 72
65
 73
2
 40
9.5250000000000004
 49
6.3499999999999996
 74
0
 49
-3.1749999999999998
 74
0
  0
LTYPE
  5
36
100
AcDbSymbolTableRecord
100
AcDbLinetypeTableRecord
  2
DASHEDX2
 70
0
  3
Dashed (2x) ____  ____  ____  ____  ____  ___
 72
65
 73
2
 40
38.100000000000001
 49
25.399999999999999
 74
0
 49
-12.699999999999999
 74
0
  0
LTYPE
  5
37
100
AcDbSymbolTableRecord
100
AcDbLinetypeTableRecord
  2
DASHDOT
 70
0
  3
Dash dot __ . __ . __ . __ . __ . __ . __ . __
 72
65
 73
4
 40
25.399999999999999
 49
12.699999999999999
 74
0
 49
-6.3499999999999996
 74
0
 49
0.0
 74
0
 49
-6.3499999999999996
 74
0
  0
LTYPE
  5
38
100
AcDbSymbolTableRecord
100
AcDbLinetypeTableRecord
  2
DASHDOT2
 70
0
  3
Dash dot (.5x) _._._._._._._._._._._._._._._.
 72
65
 73
4
 40
12.699999999999999
 49
6.3499999999999996
 74
0
 49
-3.1749999999999998
 74
0
 49
0.0
 74
0
 49
-3.1749999999999998
 74
0
  0
LTYPE
  5
39
100
AcDbSymbolTableRecord
100
AcDbLinetypeTableRecord
  2
DASHDOTX2
 70
0
  3
Dash dot (2x) ____  .  ____  .  ____  .  ___
 72
65
 73
4
 40
50.799999999999997
 49
25.399999999999999
 74
0
 49
-12.699999999999999
 74
0
 49
0.0
 74
0
 49
-12.699999999999999
 74
0
  0
LTYPE
  5
3A
100
AcDbSymbolTableRecord
100
AcDbLinetypeTableRecord
  2
DIVIDE
 70
0
  3
Divide ____ . . ____ . . ____ . . ____ . . ____
 72
65
 73
6
 40
31.75
 49
12.699999999999999
 74
0
 49
-6.3499999999999996
 74
0
 49
0.0
 74
0
 49
-6.3499999999999996
 74
0
 49
0.0
 74
0
 49
-6.3499999999999996
 74
0
  0
LTYPE
  5
3B
100
AcDbSymbolTableRecord
100
AcDbLinetypeTableRecord
  2
DIVIDE2
 70
0
  3
Divide (.5x) __..__..__..__..__..__..__..__.._
 72
65
 73
6
 40
15.875
 49
6.3499999999999996
 74
0
 49
-3.1749999999999998
 74
0
 49
0.0
 74
0
 49
-3.1749999999999998
 74
0
 49
0.0
 74
0
 49
-3.1749999999999998
 74
0
  0
LTYPE
  5
3C
100
AcDbSymbolTableRecord
100
AcDbLinetypeTableRecord
  2
DIVIDEX2
 70
0
  3
Divide (2x) ________  .  .  ________  .  .  _
 72
65
 73
6
 40
63.5
 49
25.399999999999999
 74
0
 49
-12.699999999999999
 74
0
 49
0.0
 74
0
 49
-12.699999999999999
 74
0
 49
0.0
 74
0
 49
-12.699999999999999
 74
0
  0
LTYPE
  5
3D
100
AcDbSymbolTableRecord
100
AcDbLinetypeTableRecord
  2
CENTER
 70
0
  3
Center ____ _ ____ _ ____ _ ____ _ ____ _ ____
 72
65
 73
4
 40
50.799999999999997
 49
31.75
 74
0
 49
-6.3499999999999996
 74
0
 49
6.3499999999999996
 74
0
 49
-6.3499999999999996
 74
0
  0
LTYPE
  5
3E
100
AcDbSymbolTableRecord
100
AcDbLinetypeTableRecord
  2
CENTER2
 70
0
  3
Center (.5x) ___ _ ___ _ ___ _ ___ _ ___ _ ___
 72
65
 73
4
 40
28.574999999999999
 49
19.050000000000001
 74
0
 49
-3.1749999999999998
 74
0
 49
3.1749999999999998
 74
0
 49
-3.1749999999999998
 74
0
  0
LTYPE
  5
3F
100
AcDbSymbolTableRecord
100
AcDbLinetypeTableRecord
  2
CENTERX2
 70
0
  3
Center (2x) ________  __  ________  __  _____
 72
65
 73
4
 40
101.59999999999999
 49
63.5
 74
0
 49
-12.699999999999999
 74
0
 49
12.699999999999999
 74
0
 49
-12.699999999999999
 74
0
  0
LTYPE
  5
40
100
AcDbSymbolTableRecord
100
AcDbLinetypeTableRecord
  2
BORDER
 70
0
  3
Border __ __ . __ __ . __ __ . __ __ . __ __ .
 72
65
 73
6
 40
44.450000000000003
 49
12.699999999999999
 74
0
 49
-6.3499999999999996
 74
0
 49
12.699999999999999
 74
0
 49
-6.3499999999999996
 74
0
 49
0.0
 74
0
 49
-6.3499999999999996
 74
0
  0
LTYPE
  5
41
100
AcDbSymbolTableRecord
100
AcDbLinetypeTableRecord
  2
BORDER2
 70
0
  3
Border (.5x) __.__.__.__.__.__.__.__.__.__.__.
 72
65
 73
6
 40
22.225000000000001
 49
6.3499999999999996
 74
0
 49
-3.1749999999999998
 74
0
 49
6.3499999999999996
 74
0
 49
-3.1749999999999998
 74
0
 49
0.0
 74
0
 49
-3.1749999999999998
 74
0
  0
LTYPE
  5
42
100
AcDbSymbolTableRecord
100
AcDbLinetypeTableRecord
  2
BORDERX2
 70
0
  3
Border (2x) ____  ____  .  ____  ____  .  ___
 72
65
 73
6
 40
88.900000000000006
 49
25.399999999999999
 74
0
 49
-12.699999999999999
 74
0
 49
25.399999999999999
 74
0
 49
-12.699999999999999
 74
0
 49
0.0
 74
0
 49
-12.699999999999999
 74
0
  0
ENDTAB
  0
TABLE
  2
LAYER
  5
2
100
AcDbSymbolTable
 70
2
  0
LAYER
  5
10
100
AcDbSymbolTableRecord
100
AcDbLayerTableRecord
  2
0
 70
0
 62
7
  6
CONTINUOUS
390
F
  0
LAYER
  5
43
100
AcDbSymbolTableRecord
100
AcDbLayerTableRecord
  2
LAYER_1
 70
0
 62
7
  6
CONTINUOUS
370
-3
390
F
  0
ENDTAB
  0
TABLE
  2
STYLE
  5
3
100
AcDbSymbolTable
 70
1
  0
STYLE
  5
11
100
AcDbSymbolTableRecord
100
AcDbTextStyleTableRecord
  2
Standard
 70
0
 40
0.0
 41
0.75
 50
0.0
 71
0
 42
2.5
  3
txt
  4

  0
ENDTAB
  0
TABLE
  2
VIEW
  5
6
100
AcDbSymbolTable
 70
0
  0
ENDTAB
  0
TABLE
  2
UCS
  5
7
100
AcDbSymbolTable
 70
0
  0
ENDTAB
  0
TABLE
  2
APPID
  5
9
100
AcDbSymbolTable
 70
1
  0
APPID
  5
12
100
AcDbSymbolTableRecord
100
AcDbRegAppTableRecord
  2
ACAD
 70
0
  0
ENDTAB
  0
TABLE
  2
DIMSTYLE
  5
A
100
AcDbSymbolTable
 70
1
100
AcDbDimStyleTable
 71
0
  0
DIMSTYLE
105
27
100
AcDbSymbolTableRecord
100
AcDbDimStyleTableRecord
  2
Standard
 41
0.18
 42
0.0625
 43
3.75
 44
0.18
 70
0
 73
0
 74
0
 77
1
 78
8
140
0.18
141
2.5
143
0.03937007874016
147
0.09
171
3
172
1
271
2
272
2
274
3
278
44
283
0
284
8
340
11
  0
ENDTAB
  0
TABLE
  2
BLOCK_RECORD
  5
1
100
AcDbSymbolTable
 70
1
  0
BLOCK_RECORD
  5
1F
100
AcDbSymbolTableRecord
100
AcDbBlockTableRecord
  2
*Model_Space
340
22
  0
BLOCK_RECORD
  5
1B
100
AcDbSymbolTableRecord
100
AcDbBlockTableRecord
  2
*Paper_Space
340
1E
  0
BLOCK_RECORD
  5
23
100
AcDbSymbolTableRecord
100
AcDbBlockTableRecord
  2
*Paper_Space0
340
26
  0
ENDTAB
  0
ENDSEC
  0
SECTION
  2
BLOCKS
  0
BLOCK
  5
20
100
AcDbEntity
  8
0
100
AcDbBlockBegin
  2
*Model_Space
 70
0
 10
0.0
 20
0.0
 30
0.0
  3
*Model_Space
  1

  0
ENDBLK
  5
21
100
AcDbEntity
  8
0
100
AcDbBlockEnd
  0
BLOCK
  5
1C
100
AcDbEntity
 67
1
  8
0
100
AcDbBlockBegin
  2
*Paper_Space
 70
0
 10
0.0
 20
0.0
 30
0.0
  3
*Paper_Space
  1

  0
ENDBLK
  5
1D
100
AcDbEntity
 67
1
  8
0
100
AcDbBlockEnd
  0
BLOCK
  5
24
100
AcDbEntity
  8
0
100
AcDbBlockBegin
  2
*Paper_Space0
 70
0
 10
0.0
 20
0.0
 30
0.0
  3
*Paper_Space0
  1

  0
ENDBLK
  5
25
100
AcDbEntity
  8
0
100
AcDbBlockEnd
  0
ENDSEC
  0
SECTION
  2
ENTITIES
  0
LWPOLYLINE
  5
44
  8
LAYER_1
 62
256
370
-1
  6
ByLayer
100
AcDbEntity
100
AcDbPolyline
 90
404
 70
1
 10
6.4820563766928636
 20
-38.221742883768727
 10
7.5492836057918753
 20
-38.121774576720497
 10
8.0129689715991645
 20
-38.068774373396018
 10
8.4331015715195186
 20
-38.012815922786949
 10
8.8119809555088473
 20
-37.95318856433002
 10
9.1519066735230616
 20
-37.889181637461959
 10
9.4551782755180653
 20
-37.820084481619517
 10
9.7240953114497675
 20
-37.745186436239443
 10
9.9609573312740771
 20
-37.663776840758437
 10
10.16806388494691
 20
-37.575145034613271
 10
10.347714522424161
 20
-37.478580357240659
 10
10.502208793661749
 20
-37.373372148077351
 10
10.633846248615569
 20
-37.258809746560082
 10
10.744926437241549
 20
-37.134182492125589
 10
10.837748909495589
 20
-36.998779724210607
 10
10.91461321533359
 20
-36.851890782251871
 10
10.97320861216825
 20
-36.711332247098213
 10
11.025714900997791
 20
-36.56083908873147
 10
11.072220211829571
 20
-36.401136686679628
 10
11.11281267467098
 20
-36.23295042047063
 10
11.17661157641221
 20
-35.874027813692983
 10
11.21781664628052
 20
-35.489874304622127
 10
11.237132924334951
 20
-35.086292929481708
 10
11.23526545063455
 20
-34.669086724495351
 10
11.21291926523835
 20
-34.244058725886667
 10
11.17079940820539
 20
-33.817011969879289
 10
11.109610919594729
 20
-33.393749492696827
 10
11.03005883946541
 20
-32.980074330562907
 10
10.93284820787645
 20
-32.581789519701182
 10
10.81868406488692
 20
-32.204698096335242
 10
10.688271450555851
 20
-31.85460309668872
 10
10.542315404942279
 20
-31.537307556985251
 10
10.46372892042301
 20
-31.392773033432039
 10
10.381520968105249
 20
-31.258614513448439
 10
10.2957796779964
 20
-31.135557376562421
 10
10.20659318010382
 20
-31.02432700230192
 10
10.14238457662416
 20
-30.94571179302007
 10
10.09097797552994
 20
-30.87032780917313
 10
10.05384728643835
 20
-30.795655033724518
 10
10.03246641896656
 20
-30.719173449637669
 10
10.028309282731749
 20
-30.638363039875959
 10
10.04284978735112
 20
-30.550703787402838
 10
10.07756184244184
 20
-30.45367567518171
 10
10.133919357621091
 20
-30.344758686175972
 10
10.21339624250607
 20
-30.22143280334905
 10
10.31746640671394
 20
-30.08117800966436
 10
10.60528221156712
 20
-29.739801621575349
 10
11.009158049118099
 20
-29.300469385616221
 10
11.54088519630432
 20
-28.743021165494302
 10
13.28253098328415
 20
-26.932698034544359
 10
14.17710391849128
 20
-25.55369148275679
 10
16.10686757567321
 20
-26.51158368062794
 10
16.700503965614111
 20
-26.799643748557369
 10
17.204214613748022
 20
-27.02402677248287
 10
17.432742400455421
 20
-27.11476907495565
 10
17.65126229069276
 20
-27.19250773484125
 10
17.863932130787259
 20
-27.258214624944269
 10
18.07490976706616
 20
-27.31286161806932
 10
18.288353045856681
 20
-27.357420587020989
 10
18.508419813486061
 20
-27.39286340460389
 10
18.739267916281509
 20
-27.42016194362262
 10
18.98505520057028
 20
-27.440288076881771
 10
19.538078698936669
 20
-27.462910617339769
 10
20.200753079203039
 20
-27.468506008414689
 10
20.842715899589319
 20
-27.462765450684849
 10
21.375064345281249
 20
-27.442654612976199
 10
21.82214439162701
 20
-27.402892046976849
 10
22.021316882341399
 20
-27.373990913270699
 10
22.208302013974819
 20
-27.338196304374922
 10
22.386143033445791
 20
-27.294848039250521
 10
22.557883187672861
 20
-27.243285936858531
 10
22.726565723574531
 20
-27.182849816159941
 10
22.895233888069338
 20
-27.112879496115799
 10
23.24470009051246
 20
-26.941695533834839
 10
23.630627770350419
 20
-26.724452601703771
 10
23.87839348771751
 20
-26.573407557955701
 10
24.11494578868481
 20
-26.417376374110329
 10
24.341321216796189
 20
-26.255165592267311
 10
24.558556315595538
 20
-26.08558175452632
 10
24.767687628626732
 20
-25.907431402987019
 10
24.969751699433651
 20
-25.719521079749089
 10
25.165785071560169
 20
-25.520657326912211
 10
25.356824288550168
 20
-25.309646686576031
 10
25.543905893947532
 20
-25.085295700840231
 10
25.728066431296131
 20
-24.84641091180448
 10
25.91034244413984
 20
-24.591798861568449
 10
26.09177047602255
 20
-24.320266092231801
 10
26.27338707048813
 20
-24.030619145894221
 10
26.456228771080472
 20
-23.721664564655359
 10
26.82973366482091
 20
-23.04105866587253
 10
26.938363629175651
 20
-22.830649210072419
 10
27.033840985516669
 20
-22.632244861888651
 10
27.11701352725515
 20
-22.43562571793279
 10
27.188729047802301
 20
-22.23057187481643
 10
27.249835340569319
 20
-22.00686342915116
 10
27.301180198967408
 20
-21.754280477548541
 10
27.343611416407771
 20
-21.46260311662018
 10
27.377976786301591
 20
-21.121611442977649
 10
27.405124102060089
 20
-20.721085553232541
 10
27.42590115709444
 20
-20.250805543996439
 10
27.451735658635549
 20
-19.060103553497569
 10
27.462262638214511
 20
-17.467746244373711
 10
27.464264443120921
 20
-15.39197438951755
 10
27.464264443120921
 20
-8.9506402620607339
 10
26.601351651669809
 20
-6.4806838080270204
 10
26.305269849578391
 20
-5.6576798679255162
 10
25.999748142388899
 20
-4.8569545725702223
 10
25.68432771141444
 20
-4.0776876407962943
 10
25.358549737968161
 20
-3.3190587914388852
 10
25.021955403363162
 20
-2.580247743333147
 10
24.674085888912561
 20
-1.8604342153142319
 10
24.314482375929501
 20
-1.158797926217296
 10
23.94268604572709
 20
-0.4745185948774888
 10
23.558238079618459
 20
0.1932240598700346
 10
23.16067965891672
 20
0.8452503191901217
 10
22.749551964934991
 20
1.4823804642476199
 10
22.324396178986412
 20
2.105434776207376
 10
21.884753482384092
 20
2.7152335362342361
 10
21.430165056441151
 20
3.3125970254930488
 10
20.960172082470709
 20
3.8983455251486601
 10
20.474315741785912
 20
4.4732993163659174
 10
19.074548442116939
 20
6.0881263277884088
 10
20.42670319837455
 20
7.6939663800943308
 10
20.762394187339769
 20
8.1060211071934329
 10
21.081881259591619
 20
8.5253750146804812
 10
21.38509798697639
 20
8.9516153801974347
 10
21.671977941340341
 20
9.384329481386251
 10
21.942454694529751
 20
9.8231045958888856
 10
22.196461818390869
 20
10.2675280013473
 10
22.43393288476998
 20
10.71718697540344
 10
22.654801465513358
 20
11.17166879569927
 10
22.85900113246726
 20
11.63056073987674
 10
23.04646545747795
 20
12.093450085577819
 10
23.217128012391701
 20
12.559924110444459
 10
23.370922369054799
 20
13.029570092118609
 10
23.507782099313491
 20
13.50197530824223
 10
23.627640775014051
 20
13.97672703645728
 10
23.73043196800274
 20
14.45341255440572
 10
23.816089250125849
 20
14.93161913972949
 10
23.884546193229632
 20
15.410934070070571
 10
23.935736369160349
 20
15.890944623070901
 10
23.969593349764288
 20
16.371238076372439
 10
23.98605070688771
 20
16.85140170761715
 10
23.98504201237688
 20
17.33102279444698
 10
23.966500838078069
 20
17.809688614503902
 10
23.930360755837551
 20
18.28698644542985
 10
23.876555337501571
 20
18.762503564866801
 10
23.805018154916429
 20
19.235827250456701
 10
23.715682779928379
 20
19.706544779841511
 10
23.608482784383689
 20
20.174243430663189
 10
23.483351740128629
 20
20.638510480563689
 10
23.34022321900947
 20
21.09893320718496
 10
23.179030792872481
 20
21.55509888816897
 10
22.99970803356393
 20
22.006594801157679
 10
22.80218851293008
 20
22.453008223793031
 10
22.051283461510121
 20
24.065486370159011
 10
23.411795591223679
 20
28.78754679777435
 10
22.9368290240891
 20
32.060539330989627
 10
22.511221155968681
 20
34.98683948487389
 10
22.185215145021811
 20
37.177465675298961
 10
21.935478874401038
 20
38.738907816185097
 10
21.831920605198111
 20
39.316962966151152
 10
21.738680227258889
 20
39.777655821452562
 10
21.652841225977479
 20
40.134297621329367
 10
21.571487086747911
 20
40.400199605021612
 10
21.49170129496428
 20
40.588673011769323
 10
21.45148511855033
 20
40.658033761051477
 10
21.410567336020641
 20
40.713029080812518
 10
21.368583383049469
 20
40.75532287595744
 10
21.32516869531106
 20
40.786579051391243
 10
21.232588858229612
 20
40.822634162745537
 10
21.12991131017036
 20
40.834505654115418
 10
21.01421953652736
 20
40.835504764740932
 10
20.411265793323651
 20
40.835504764740932
 10
14.368461444227529
 20
31.57608695652176
 10
14.195686976017139
 20
31.377261792914972
 10
14.168396876043341
 20
31.361070195077112
 10
14.12285876175415
 20
31.353303418165169
 10
13.981223199612421
 20
31.361846286765481
 10
13.77914970835765
 20
31.4004943180088
 10
13.52500770675557
 20
31.466851431188029
 10
13.22716661357186
 20
31.55852154559609
 10
12.89399584757224
 20
31.673108580525849
 10
12.533864827522409
 20
31.80821645527023
 10
12.15514297218807
 20
31.961449089122119
 10
11.49119243186102
 20
32.229309548590109
 10
10.81559404446514
 20
32.481267589011487
 10
10.129035720593251
 20
32.71730580029174
 10
9.4322053708381883
 20
32.937406772336331
 10
8.7257909057927812
 20
33.141553095050753
 10
8.0104802360498546
 20
33.329727358340463
 10
7.286961272202241
 20
33.50191215211094
 10
6.5559219248427647
 20
33.658090066267647
 10
5.8180501045642554
 20
33.798243690716077
 10
5.0740337219595428
 20
33.922355615361703
 10
4.3245606876214513
 20
34.030408430109972
 10
3.5703189121428132
 20
34.122384724866379
 10
2.811996306116455
 20
34.198267089536401
 10
2.0502807801352052
 20
34.258038114025503
 10
1.285860244791891
 20
34.301680388239149
 10
0.5194226106793427
 20
34.329176502082831
 10
-0.2483442116096129
 20
34.340509045462007
 10
-1.0167523114821471
 20
34.335660608282168
 10
-1.7851137783454321
 20
34.314613780448767
 10
-2.552740701606639
 20
34.2773511518673
 10
-3.3189451706729391
 20
34.22385531244322
 10
-4.0830392749515054
 20
34.154108852082018
 10
-4.8443351038495086
 20
34.068094360689138
 10
-5.6021447467741208
 20
33.965794428170099
 10
-6.355780293132514
 20
33.847191644430339
 10
-7.1045538323318604
 20
33.712268599375349
 10
-7.8477774537793303
 20
33.561007882910587
 10
-8.5847632468820976
 20
33.393392084941539
 10
-9.3148233010473334
 20
33.209403795373667
 10
-10.037269705682199
 20
33.009025604112459
 10
-10.751414550193889
 20
32.792240101063378
 10
-11.45656992398956
 20
32.559029876131909
 10
-13.739609150435919
 20
31.772099800994109
 10
-20.525008123397889
 20
41.372282608695663
 10
-21.155055431561959
 20
41.372282608695663
 10
-21.281799224294598
 20
41.368174213820673
 10
-21.400389109920589
 20
41.35639943616458
 10
-21.508204621508462
 20
41.337783886180752
 10
-21.602625292126781
 20
41.313153174322522
 10
-21.681030654844101
 20
41.28333291104326
 10
-21.74080024272898
 20
41.249148706796291
 10
-21.77931358884998
 20
41.211426172034962
 10
-21.793950226275651
 20
41.170990917212642
 10
-22.558135077647002
 20
35.151124373648543
 10
-23.313472442468711
 20
29.332549521567451
 10
-22.03302529665746
 20
25.5147467741808
 10
-22.586134173323121
 20
24.737976984835381
 10
-22.940294004592619
 20
24.215392411317382
 10
-23.267298059650621
 20
23.68120727856537
 10
-23.567232942171511
 20
23.136332830815331
 10
-23.840185255829709
 20
22.581680312303241
 10
-24.086241604299619
 20
22.018160967265061
 10
-24.305488591255649
 20
21.446686039936768
 10
-24.498012820372232
 20
20.868166774554339
 10
-24.663900895323749
 20
20.283514415353739
 10
-24.803239419784632
 20
19.693640206570951
 10
-24.916114997429268
 20
19.099455392441929
 10
-25.002614231932078
 20
18.501871217202648
 10
-25.06282372696748
 20
17.901798925089089
 10
-25.096830086209881
 20
17.30014976033722
 10
-25.104719913333689
 20
16.69783496718301
 10
-25.086579812013301
 20
16.09576578986243
 10
-25.042496385923151
 20
15.49485347261145
 10
-24.972556238737631
 20
14.89600925966606
 10
-24.87684597413115
 20
14.300144395262199
 10
-24.75545219577813
 20
13.70817012363587
 10
-24.608461507352981
 20
13.120997689023021
 10
-24.435960512530102
 20
12.539538335659641
 10
-24.23803581498391
 20
11.964703307781679
 10
-24.01477401838881
 20
11.397403849625141
 10
-23.766261726419209
 20
10.83855120542596
 10
-23.492585542749531
 20
10.28905661942014
 10
-23.193832071054171
 20
9.7498313358436377
 10
-22.870087915007559
 20
9.2217865989324252
 10
-22.521439678284079
 20
8.7058336529224736
 10
-22.147973964558162
 20
8.2028837420497567
 10
-21.749777377504198
 20
7.7138481105502468
 10
-21.326936520796622
 20
7.2396380026599134
 10
-20.879537998109829
 20
6.7811646626147279
 10
-19.678415148633771
 20
5.6044675027160338
 10
-20.98106159217841
 20
4.0391789758944734
 10
-21.465970982778369
 20
3.4431020695816721
 10
-21.935076443754401
 20
2.8390795315439461
 10
-22.388729214702789
 20
2.2264827875774751
 10
-22.827280535219799
 20
1.6046832634784349
 10
-23.251081644901721
 20
0.9730523850430035
 10
-23.660483783344819
 20
0.3309615780673585
 10
-24.055838190145369
 20
-0.3222177316523228
 10
-24.437496104899669
 20
-0.9871141183198628
 10
-24.805808767203981
 20
-1.6643561561390841
 10
-25.16112741665458
 20
-2.3545724193138091
 10
-25.503803292847749
 20
-3.0583914820478602
 10
-25.834187635379759
 20
-3.7764419185450602
 10
-26.152631683846899
 20
-4.5093523030092308
 10
-26.459486677845451
 20
-5.2577512096441961
 10
-26.755103856971669
 20
-6.0222672126537766
 10
-27.03983446082184
 20
-6.8035288862417964
 10
-27.281320397215779
 20
-7.5066924229259664
 10
-27.380591099889099
 20
-7.8233705994864327
 10
-27.46700222084047
 20
-8.1301496297381313
 10
-27.541645206540259
 20
-8.4370569498402936
 10
-27.60561150345881
 20
-8.7541199959521538
 10
-27.659992558066499
 20
-9.0913662042329442
 10
-27.70587981683369
 20
-9.4588230108418934
 10
-27.744364726230732
 20
-9.8665178519382408
 10
-27.776538732728
 20
-10.324478163681221
 10
-27.82631982290463
 20
-11.43130494374398
 10
-27.863954659126481
 20
-12.85952284030405
 10
-27.898174813156441
 20
-14.689351342635289
 10
-27.99698248341371
 20
-20.428062423209841
 10
-27.403295493722691
 20
-22.015566630303621
 10
-27.252185413676312
 20
-22.387213040370309
 10
-27.077321376344209
 20
-22.75916437231631
 10
-26.8802867240545
 20
-23.129622485154389
 10
-26.6626647991353
 20
-23.496789237897381
 10
-26.42603894391473
 20
-23.858866489558071
 10
-26.171992500720879
 20
-24.214056099149278
 10
-25.90210881188187
 20
-24.560559925683801
 10
-25.617971219725831
 20
-24.896579828174421
 10
-25.321163066580858
 20
-25.220317665633971
 10
-25.01326769477507
 20
-25.52997529707525
 10
-24.695868446636581
 20
-25.82375458151105
 10
-24.370548664493491
 20
-26.099857377954169
 10
-24.038891690673928
 20
-26.356485545417431
 10
-23.702480867506001
 20
-26.591840942913631
 10
-23.36289953731783
 20
-26.80412542945556
 10
-23.021731042437509
 20
-26.991540864056041
 10
-22.620765784615681
 20
-27.186201619719121
 10
-22.246070393079219
 20
-27.343396182026559
 10
-22.06273813638153
 20
-27.409143367669401
 10
-21.87897043331143
 20
-27.466963677370309
 10
-21.692432979554319
 20
-27.517337001928279
 10
-21.500791470795619
 20
-27.5607432321423
 10
-21.092859071015098
 20
-27.62857397273449
 10
-20.636498799453189
 20
-27.674295025538829
 10
-20.11303622159318
 20
-27.701745516947248
 10
-19.503796902918388
 20
-27.714764573351719
 10
-19.047466590885101
 20
-27.712125365127719
 10
-18.57338219092777
 20
-27.695590983682841
 10
-18.095378343472209
 20
-27.666529559391211
 10
-17.627289688944231
 20
-27.626309222626961
 10
-17.182950867769652
 20
-27.57629810376422
 10
-16.776196520374281
 20
-27.517864333177108
 10
-16.420861287183939
 20
-27.45237604123977
 10
-16.130779808624439
 20
-27.381201358326312
 10
-14.904874090149431
 20
-27.024537916176151
 10
-11.085228193318709
 20
-30.84418381300685
 10
-11.469970409941061
 20
-31.765001550310611
 10
-11.552055817506981
 20
-31.99479094482113
 10
-11.62415866896607
 20
-32.263591770252162
 10
-11.68619839477196
 20
-32.565571689286287
 10
-11.738094425378261
 20
-32.894898364606142
 10
-11.7797661912386
 20
-33.245739458894278
 10
-11.811133122806609
 20
-33.612262634833307
 10
-11.8321146505359
 20
-33.988635555105859
 10
-11.84263020488009
 20
-34.369025882394482
 10
-11.84259921629282
 20
-34.747601279381797
 10
-11.8319411152277
 20
-35.118529408750419
 10
-11.81057533213836
 20
-35.475977933182918
 10
-11.77842129747841
 20
-35.814114515361908
 10
-11.73539844170149
 20
-36.127106817969967
 10
-11.68142619526121
 20
-36.409122503689723
 10
-11.616423988611199
 20
-36.654329235203747
 10
-11.54031125220507
 20
-36.856894675194653
 10
-11.474811864588659
 20
-36.987160727471867
 10
-11.401661848071701
 20
-37.106954038253782
 10
-11.320620071844379
 20
-37.21637610082486
 10
-11.23144540509684
 20
-37.315528408469568
 10
-11.13389671701923
 20
-37.404512454472368
 10
-11.02773287680173
 20
-37.483429732117763
 10
-10.912712753634491
 20
-37.552381734690179
 10
-10.788595216707661
 20
-37.611469955474121
 10
-10.65513913521141
 20
-37.660795887754041
 10
-10.51210337833589
 20
-37.700461024814423
 10
-10.35924681527127
 20
-37.730566859939707
 10
-10.196328315207699
 20
-37.751214886414402
 10
-10.023106747335341
 20
-37.762506597522943
 10
-9.8393409808443479
 20
-37.764543486549833
 10
-9.6447898849248848
 20
-37.757427046779497
 10
-9.439212328767109
 20
-37.741258771496447
 10
-9.2724480714951163
 20
-37.732796639183967
 10
-9.0550504772635065
 20
-37.734035714084477
 10
-8.5050698886926952
 20
-37.762896601399497
 10
-7.8626997845971722
 20
-37.822399665191533
 10
-7.2013693865194401
 20
-37.907103137210562
 10
-6.8445628188801173
 20
-37.955020371836142
 10
-6.5237880462569082
 20
-37.986641019610794
 10
-6.2369904504380438
 20
-38.000201464962103
 10
-5.9821154132117522
 20
-37.993938092317677
 10
-5.7571083163662653
 20
-37.96608728610515
 10
-5.6551631773951456
 20
-37.943515465544458
 10
-5.559914541689813
 20
-37.914885430752108
 10
-5.4711055819737968
 20
-37.879976729781532
 10
-5.3884794709706254
 20
-37.838568910686178
 10
-5.3117793814038254
 20
-37.790441521519497
 10
-5.2407484859969307
 20
-37.735374110334952
 10
-5.1751299574734659
 20
-37.673146225185988
 10
-5.1146669685569606
 20
-37.603537414126052
 10
-5.0591026919709448
 20
-37.526327225208597
 10
-5.0081803004389451
 20
-37.441295206487077
 10
-4.9192338634311126
 20
-37.246883871845661
 10
-4.8457730393216973
 20
-37.018539794629383
 10
-4.785743209898925
 20
-36.754499359265857
 10
-4.7370897569510273
 20
-36.452998950182717
 10
-4.6977580622662334
 20
-36.112274951807549
 10
-4.6656935076327741
 20
-35.730563748567981
 10
-4.5535531452885607
 20
-34.179198927933278
 10
1.967316855271005
 20
-34.179198927933278
 10
3.9156738866458158
 20
-33.764404006181479
 10
3.7861017153337571
 20
-34.913964908747907
 10
3.7665081429653928
 20
-35.168784259198048
 10
3.7606681745081159
 20
-35.45270362064737
 10
3.7678201519343162
 20
-35.756205766707197
 10
3.787202417216383
 20
-36.069773470988828
 10
3.8180533123267071
 20
-36.383889507103603
 10
3.8596111792376768
 20
-36.689036648662821
 10
3.9111143599216831
 20
-36.975697669277821
 10
3.9718011963511159
 20
-37.234355342559901
 10
4.287072848680527
 20
-38.405184873805467
  0
LWPOLYLINE
  5
45
  8
LAYER_1
 62
256
370
-1
  6
ByLayer
100
AcDbEntity
100
AcDbPolyline
 90
3
 70
1
 10
-5.6635273972602693
 20
3.9554794520547958
 10
5.3364726027397307
 20
3.9554794520547958
 10
-0.1635273972602747
 20
-5.5707999895740272
  0
POINT
  5
46
100
AcDbEntity
100
AcDbPoint
  8
LAYER_1
 62
256
370
-1
  6
ByLayer
 10
-9.4970627365519764
 20
15.330310697455912
 30
0.0
  0
POINT
  5
47
100
AcDbEntity
100
AcDbPoint
  8
LAYER_1
 62
256
370
-1
  6
ByLayer
 10
9.2166863431607169
 20
15.785900508467094
 30
0.0
  0
POINT
  5
48
100
AcDbEntity
100
AcDbPoint
  8
LAYER_1
 62
256
370
-1
  6
ByLayer
 10
-14.833047945205461
 20
-12.765410958904107
 30
0.0
  0
POINT
  5
49
100
AcDbEntity
100
AcDbPoint
  8
LAYER_1
 62
256
370
-1
  6
ByLayer
 10
-5.6635273972602711
 20
-11.506849315068491
 30
0.0
  0
POINT
  5
4A
100
AcDbEntity
100
AcDbPoint
  8
LAYER_1
 62
256
370
-1
  6
ByLayer
 10
3.8655821917808271
 20
-11.327054794520549
 30
0.0
  0
POINT
  5
4B
100
AcDbEntity
100
AcDbPoint
  8
LAYER_1
 62
256
370
-1
  6
ByLayer
 10
12.855308219178081
 20
-12.405821917808218
 30
0.0
  0
POINT
  5
4C
100
AcDbEntity
100
AcDbPoint
  8
LAYER_1
 62
256
370
-1
  6
ByLayer
 10
3.8655821917808275
 20
-19.957191780821919
 30
0.0
  0
POINT
  5
4D
100
AcDbEntity
100
AcDbPoint
  8
LAYER_1
 62
256
370
-1
  6
ByLayer
 10
-6.2029109589041012
 20
-19.777397260273968
 30
0.0
  0
CIRCLE
  5
4E
100
AcDbEntity
100
AcDbCircle
  8
LAYER_1
 62
256
370
-1
  6
ByLayer
 10
-9.4970627365519764
 20
15.330310697455912
 30
0.0
 40
8.0
  0
CIRCLE
  5
4F
100
AcDbEntity
100
AcDbCircle
  8
LAYER_1
 62
256
370
-1
  6
ByLayer
 10
9.2166863431607169
 20
15.785900508467094
 30
0.0
 40
8.0
  0
CIRCLE
  5
50
100
AcDbEntity
100
AcDbCircle
  8
LAYER_1
 62
256
370
-1
  6
ByLayer
 10
-5.6635273972602711
 20
-11.506849315068491
 30
0.0
 40
3.0
  0
CIRCLE
  5
51
100
AcDbEntity
100
AcDbCircle
  8
LAYER_1
 62
256
370
-1
  6
ByLayer
 10
3.8655821917808271
 20
-11.327054794520549
 30
0.0
 40
3.0
  0
CIRCLE
  5
52
100
AcDbEntity
100
AcDbCircle
  8
LAYER_1
 62
256
370
-1
  6
ByLayer
 10
-14.833047945205461
 20
-12.765410958904107
 30
0.0
 40
1.5
  0
CIRCLE
  5
53
100
AcDbEntity
100
AcDbCircle
  8
LAYER_1
 62
256
370
-1
  6
ByLayer
 10
12.855308219178081
 20
-12.405821917808218
 30
0.0
 40
1.5
  0
CIRCLE
  5
54
100
AcDbEntity
100
AcDbCircle
  8
LAYER_1
 62
256
370
-1
  6
ByLayer
 10
3.8655821917808275
 20
-19.957191780821919
 30
0.0
 40
1.5
  0
CIRCLE
  5
55
100
AcDbEntity
100
AcDbCircle
  8
LAYER_1
 62
256
370
-1
  6
ByLayer
 10
-6.2029109589041012
 20
-19.777397260273968
 30
0.0
 40
1.5
  0
ENDSEC
  0
SECTION
  2
OBJECTS
  0
DICTIONARY
  5
C
100
AcDbDictionary
280
0
281
1
  3
ACAD_GROUP
350
D
  3
ACAD_LAYOUT
350
1A
  3
ACAD_MLINESTYLE
350
17
  3
ACAD_PLOTSETTINGS
350
19
  3
ACAD_PLOTSTYLENAME
350
E
  3
AcDbVariableDictionary
350
56
  0
DICTIONARY
  5
D
100
AcDbDictionary
280
0
281
1
  0
ACDBDICTIONARYWDFLT
  5
E
100
AcDbDictionary
281
1
  3
Normal
350
F
100
AcDbDictionaryWithDefault
340
F
  0
ACDBPLACEHOLDER
  5
F
  0
DICTIONARY
  5
17
100
AcDbDictionary
280
0
281
1
  3
Standard
350
18
  0
MLINESTYLE
  5
18
100
AcDbMlineStyle
  2
STANDARD
 70
0
  3

 62
256
 51
90.0
 52
90.0
 71
2
 49
0.5
 62
256
  6
BYLAYER
 49
-0.5
 62
256
  6
BYLAYER
  0
DICTIONARY
  5
19
100
AcDbDictionary
280
0
281
1
  0
DICTIONARY
  5
1A
100
AcDbDictionary
281
1
  3
Layout1
350
1E
  3
Layout2
350
26
  3
Model
350
22
  0
LAYOUT
  5
1E
100
AcDbPlotSettings
  1

  2
C:\Program Files\AutoCAD 2002\plotters\DWF ePlot (optimized for plotting).pc3
  4

  6

 40
0.0
 41
0.0
 42
0.0
 43
0.0
 44
0.0
 45
0.0
 46
0.0
 47
0.0
 48
0.0
 49
0.0
140
0.0
141
0.0
142
1.0
143
1.0
 70
688
 72
0
 73
0
 74
5
  7

 75
16
147
1.0
148
0.0
149
0.0
100
AcDbLayout
  1
Layout1
 70
1
 71
1
 10
0.0
 20
0.0
 11
420.0
 21
297.0
 12
0.0
 22
0.0
 32
0.0
 14
100000000000000000000.0
 24
100000000000000000000.0
 34
100000000000000000000.0
 15
-100000000000000000000.0
 25
-100000000000000000000.0
 35
-100000000000000000000.0
146
0.0
 13
0.0
 23
0.0
 33
0.0
 16
1.0
 26
0.0
 36
0.0
 17
0.0
 27
1.0
 37
0.0
 76
0
330
1B
  0
LAYOUT
  5
22
100
AcDbPlotSettings
  1

  2
C:\Program Files\AutoCAD 2002\plotters\DWF ePlot (optimized for plotting).pc3
  4

  6

 40
0.0
 41
0.0
 42
0.0
 43
0.0
 44
0.0
 45
0.0
 46
0.0
 47
0.0
 48
0.0
 49
0.0
140
0.0
141
0.0
142
1.0
143
1.0
 70
1712
 72
0
 73
0
 74
0
  7

 75
0
147
1.0
148
0.0
149
0.0
100
AcDbLayout
  1
Model
 70
1
 71
0
 10
0.0
 20
0.0
 11
12.0
 21
9.0
 12
0.0
 22
0.0
 32
0.0
 14
0.0
 24
0.0
 34
0.0
 15
0.0
 25
0.0
 35
0.0
146
0.0
 13
0.0
 23
0.0
 33
0.0
 16
1.0
 26
0.0
 36
0.0
 17
0.0
 27
1.0
 37
0.0
 76
0
330
1F
  0
LAYOUT
  5
26
100
AcDbPlotSettings
  1

  2
C:\Program Files\AutoCAD 2002\plotters\DWF ePlot (optimized for plotting).pc3
  4

  6

 40
0.0
 41
0.0
 42
0.0
 43
0.0
 44
0.0
 45
0.0
 46
0.0
 47
0.0
 48
0.0
 49
0.0
140
0.0
141
0.0
142
1.0
143
1.0
 70
688
 72
0
 73
0
 74
5
  7

 75
16
147
1.0
148
0.0
149
0.0
100
AcDbLayout
  1
Layout2
 70
1
 71
2
 10
0.0
 20
0.0
 11
12.0
 21
9.0
 12
0.0
 22
0.0
 32
0.0
 14
0.0
 24
0.0
 34
0.0
 15
0.0
 25
0.0
 35
0.0
146
0.0
 13
0.0
 23
0.0
 33
0.0
 16
1.0
 26
0.0
 36
0.0
 17
0.0
 27
1.0
 37
0.0
 76
0
330
23
  0
DICTIONARY
  5
56
100
AcDbDictionary
281
1
  3
DIMASSOC
350
58
  3
HIDETEXT
350
57
  0
DICTIONARYVAR
  5
57
100
DictionaryVariables
280
0
  1
2
  0
DICTIONARYVAR
  5
58
100
DictionaryVariables
280
0
  1
1
  0
ENDSEC
  0
EOF
