999
dxflib 2.0.4.8
  0
SECTION
  2
HEADER
  9
$ACADVER
  1
AC1015
  9
$HANDSEED
  5
FFFF
  9
$USERR4
 40
0.0
  9
$DIMTAD
 70
0
  9
$VISRETAIN
 70
1
  9
$TILEMODE
 70
1
  9
$SHADEDIF
 70
70
  9
$USERR5
 40
0.0
  9
$UCSYDIR
 10
0.0
 20
1.0
 30
0.0
  9
$ATTREQ
 70
1
  9
$CHAMFERA
 40
0.5
  9
$MENU
  1
.
  9
$CLAYER
  8
0
  9
$UCSXDIR
 10
1.0
 20
0.0
 30
0.0
  9
$CHAMFERB
 40
0.5
  9
$DIMASZ
 40
0.18
  9
$TRACEWID
 40
0.05
  9
$REGENMODE
 70
1
  9
$ORTHOMODE
 70
0
  9
$EXTMIN
 10
-46.927022869746963
 20
-11.520127118644069
 30
0.0
  9
$PUCSYDIR
 10
0.0
 20
1.0
 30
0.0
  9
$ANGBASE
 50
0.0
  9
$USRTIMER
 70
1
  9
$SKETCHINC
 40
0.1
  9
$DIMGAP
 40
0.09
  9
$DIMTFAC
 40
1.0
  9
$DIMSAH
 70
0
  9
$DIMALT
 70
0
  9
$DIMSHO
 70
1
  9
$PUCSXDIR
 10
1.0
 20
0.0
 30
0.0
  9
$SURFTYPE
 70
6
  9
$SPLFRAME
 70
0
  9
$DIMTSZ
 40
0.0
  9
$LIMMIN
 10
0.0
 20
0.0
  9
$SURFTAB1
 70
6
  9
$SPLINESEGS
 70
8
  9
$AUPREC
 70
0
  9
$LUNITS
 70
2
  9
$DWGCODEPAGE
  3
ansi_1252
  9
$UNITMODE
 70
0
  9
$USERI1
 70
0
  9
$SURFTAB2
 70
6
  9
$SKPOLY
 70
0
  9
$ELEVATION
 40
0.0
  9
$DIMCEN
 40
0.09
  9
$DIMRND
 40
0.0
  9
$INSBASE
 10
0.0
 20
0.0
 30
0.0
  9
$USERI2
 70
0
  9
$UCSORG
 10
0.0
 20
0.0
 30
0.0
  9
$PELEVATION
 40
0.0
  9
$DIMEXO
 40
0.0625
  9
$TEXTSIZE
 40
0.2
  9
$DRAGMODE
 70
2
  9
$FILLMODE
 70
1
  9
$EXTMAX
 10
46.927022869746963
 20
11.520127118644069
 30
0.0
  9
$INSUNITS
 70
4
  9
$USERI3
 70
0
  9
$SURFU
 70
6
  9
$ANGDIR
 70
0
  9
$TDUSRTIMER
 40
0.0000000116
  9
$DIMZIN
 70
0
  9
$DIMDLE
 40
0.0
  9
$DIMSCALE
 40
1.0
  9
$WORLDVIEW
 70
1
  9
$USERI4
 70
0
  9
$SURFV
 70
6
  9
$OSMODE
 70
37
  9
$QTEXTMODE
 70
0
  9
$LIMMAX
 10
12.0
 20
9.0
  9
$USERI5
 70
0
  9
$HANDLING
 70
1
  9
$PDMODE
 70
0
  9
$LIMCHECK
 70
0
  9
$THICKNESS
 40
0.0
  9
$DIMSE1
 70
0
  9
$DIMLIM
 70
0
  9
$DIMTXT
 40
0.18
  9
$ATTMODE
 70
1
  9
$PEXTMAX
 10
-100000000000000000000.0
 20
-100000000000000000000.0
 30
-100000000000000000000.0
  9
$PEXTMIN
 10
100000000000000000000.0
 20
100000000000000000000.0
 30
100000000000000000000.0
  9
$PUCSORG
 10
0.0
 20
0.0
 30
0.0
  9
$SPLINETYPE
 70
6
  9
$TDINDWG
 40
0.0000000116
  9
$LUPREC
 70
4
  9
$DIMSOXD
 70
0
  9
$DIMLFAC
 40
1.0
  9
$DIMSE2
 70
0
  9
$DIMTOH
 70
1
  9
$CELTYPE
  6
BYLAYER
  9
$PLIMCHECK
 70
0
  9
$PLINEWID
 40
0.0
  9
$DIMSTYLE
  2
STANDARD
  9
$DIMTVP
 40
0.0
  9
$DIMASO
 70
1
  9
$DIMTM
 40
0.0
  9
$DIMDLI
 40
0.38
  9
$CECOLOR
 62
256
  9
$PLIMMAX
 10
12.0
 20
9.0
  9
$PLIMMIN
 10
0.0
 20
0.0
  9
$MAXACTVP
 70
64
  9
$TDUPDATE
 40
2456286.3511593291
  9
$FILLETRAD
 40
0.5
  9
$DIMCLRT
 70
0
  9
$DIMALTD
 70
2
  9
$DIMTIH
 70
1
  9
$LTSCALE
 40
1.0
  9
$USERR1
 40
0.0
  9
$ATTDIA
 70
0
  9
$PDSIZE
 40
0.0
  9
$DIMCLRD
 70
0
  9
$DIMEXE
 40
0.18
  9
$PSLTSCALE
 70
1
  9
$PLINEGEN
 70
0
  9
$SHADEDGE
 70
3
  9
$USERR2
 40
0.0
  9
$COORDS
 70
1
  9
$TDCREATE
 40
2454910.5
  9
$DIMCLRE
 70
0
  9
$DIMTOFL
 70
0
  9
$DIMALTF
 40
25.399999999999999
  9
$DIMTOL
 70
0
  9
$DIMTP
 40
0.0
  9
$TEXTSTYLE
  7
STANDARD
  9
$USERR3
 40
0.0
  9
$AUNITS
 70
0
  9
$DIMTIX
 70
0
  9
$MIRRTEXT
 70
1
  0
ENDSEC
  0
SECTION
  2
TABLES
  0
TABLE
  2
VPORT
  5
8
100
AcDbSymbolTable
 70
1
  0
VPORT
  5
30
100
AcDbSymbolTableRecord
100
AcDbViewportTableRecord
  2
*Active
 70
0
 10
0.0
 20
0.0
 11
1.0
 21
1.0
 12
286.30555555555549
 22
148.5
 13
0.0
 23
0.0
 14
10.0
 24
10.0
 15
10.0
 25
10.0
 16
0.0
 26
0.0
 36
1.0
 17
0.0
 27
0.0
 37
0.0
 40
297.0
 41
1.92798353909465
 42
50.0
 43
0.0
 44
0.0
 50
0.0
 51
0.0
 71
0
 72
100
 73
1
 74
3
 75
1
 76
1
 77
0
 78
0
281
0
 65
1
110
0.0
120
0.0
130
0.0
111
1.0
121
0.0
131
0.0
112
0.0
122
1.0
132
0.0
 79
0
146
0.0
  0
ENDTAB
  0
TABLE
  2
LTYPE
  5
5
100
AcDbSymbolTable
 70
21
  0
LTYPE
  5
14
100
AcDbSymbolTableRecord
100
AcDbLinetypeTableRecord
  2
ByBlock
 70
0
  3

 72
65
 73
0
 40
0.0
  0
LTYPE
  5
15
100
AcDbSymbolTableRecord
100
AcDbLinetypeTableRecord
  2
ByLayer
 70
0
  3

 72
65
 73
0
 40
0.0
  0
LTYPE
  5
16
100
AcDbSymbolTableRecord
100
AcDbLinetypeTableRecord
  2
CONTINUOUS
 70
0
  3
Solid line
 72
65
 73
0
 40
0.0
  0
LTYPE
  5
31
100
AcDbSymbolTableRecord
100
AcDbLinetypeTableRecord
  2
DOT
 70
0
  3
Dot . . . . . . . . . . . . . . . . . . . . . .
 72
65
 73
2
 40
6.3499999999999996
 49
0.0
 74
0
 49
-6.3499999999999996
 74
0
  0
LTYPE
  5
32
100
AcDbSymbolTableRecord
100
AcDbLinetypeTableRecord
  2
DOT2
 70
0
  3
Dot (.5x) .....................................
 72
65
 73
2
 40
3.1749999999999998
 49
0.0
 74
0
 49
-3.1749999999999998
 74
0
  0
LTYPE
  5
33
100
AcDbSymbolTableRecord
100
AcDbLinetypeTableRecord
  2
DOTX2
 70
0
  3
Dot (2x) .  .  .  .  .  .  .  .  .  .  .  .  .
 72
65
 73
2
 40
12.699999999999999
 49
0.0
 74
0
 49
-12.699999999999999
 74
0
  0
LTYPE
  5
34
100
AcDbSymbolTableRecord
100
AcDbLinetypeTableRecord
  2
DASHED
 70
0
  3
Dashed __ __ __ __ __ __ __ __ __ __ __ __ __ _
 72
65
 73
2
 40
19.050000000000001
 49
12.699999999999999
 74
0
 49
-6.3499999999999996
 74
0
  0
LTYPE
  5
35
100
AcDbSymbolTableRecord
100
AcDbLinetypeTableRecord
  2
DASHED2
 70
0
  3
Dashed (.5x) _ _ _ _ _ _ _ _ _ _ _ _ _ _ _ _ _
 72
65
 73
2
 40
9.5250000000000004
 49
6.3499999999999996
 74
0
 49
-3.1749999999999998
 74
0
  0
LTYPE
  5
36
100
AcDbSymbolTableRecord
100
AcDbLinetypeTableRecord
  2
DASHEDX2
 70
0
  3
Dashed (2x) ____  ____  ____  ____  ____  ___
 72
65
 73
2
 40
38.100000000000001
 49
25.399999999999999
 74
0
 49
-12.699999999999999
 74
0
  0
LTYPE
  5
37
100
AcDbSymbolTableRecord
100
AcDbLinetypeTableRecord
  2
DASHDOT
 70
0
  3
Dash dot __ . __ . __ . __ . __ . __ . __ . __
 72
65
 73
4
 40
25.399999999999999
 49
12.699999999999999
 74
0
 49
-6.3499999999999996
 74
0
 49
0.0
 74
0
 49
-6.3499999999999996
 74
0
  0
LTYPE
  5
38
100
AcDbSymbolTableRecord
100
AcDbLinetypeTableRecord
  2
DASHDOT2
 70
0
  3
Dash dot (.5x) _._._._._._._._._._._._._._._.
 72
65
 73
4
 40
12.699999999999999
 49
6.3499999999999996
 74
0
 49
-3.1749999999999998
 74
0
 49
0.0
 74
0
 49
-3.1749999999999998
 74
0
  0
LTYPE
  5
39
100
AcDbSymbolTableRecord
100
AcDbLinetypeTableRecord
  2
DASHDOTX2
 70
0
  3
Dash dot (2x) ____  .  ____  .  ____  .  ___
 72
65
 73
4
 40
50.799999999999997
 49
25.399999999999999
 74
0
 49
-12.699999999999999
 74
0
 49
0.0
 74
0
 49
-12.699999999999999
 74
0
  0
LTYPE
  5
3A
100
AcDbSymbolTableRecord
100
AcDbLinetypeTableRecord
  2
DIVIDE
 70
0
  3
Divide ____ . . ____ . . ____ . . ____ . . ____
 72
65
 73
6
 40
31.75
 49
12.699999999999999
 74
0
 49
-6.3499999999999996
 74
0
 49
0.0
 74
0
 49
-6.3499999999999996
 74
0
 49
0.0
 74
0
 49
-6.3499999999999996
 74
0
  0
LTYPE
  5
3B
100
AcDbSymbolTableRecord
100
AcDbLinetypeTableRecord
  2
DIVIDE2
 70
0
  3
Divide (.5x) __..__..__..__..__..__..__..__.._
 72
65
 73
6
 40
15.875
 49
6.3499999999999996
 74
0
 49
-3.1749999999999998
 74
0
 49
0.0
 74
0
 49
-3.1749999999999998
 74
0
 49
0.0
 74
0
 49
-3.1749999999999998
 74
0
  0
LTYPE
  5
3C
100
AcDbSymbolTableRecord
100
AcDbLinetypeTableRecord
  2
DIVIDEX2
 70
0
  3
Divide (2x) ________  .  .  ________  .  .  _
 72
65
 73
6
 40
63.5
 49
25.399999999999999
 74
0
 49
-12.699999999999999
 74
0
 49
0.0
 74
0
 49
-12.699999999999999
 74
0
 49
0.0
 74
0
 49
-12.699999999999999
 74
0
  0
LTYPE
  5
3D
100
AcDbSymbolTableRecord
100
AcDbLinetypeTableRecord
  2
CENTER
 70
0
  3
Center ____ _ ____ _ ____ _ ____ _ ____ _ ____
 72
65
 73
4
 40
50.799999999999997
 49
31.75
 74
0
 49
-6.3499999999999996
 74
0
 49
6.3499999999999996
 74
0
 49
-6.3499999999999996
 74
0
  0
LTYPE
  5
3E
100
AcDbSymbolTableRecord
100
AcDbLinetypeTableRecord
  2
CENTER2
 70
0
  3
Center (.5x) ___ _ ___ _ ___ _ ___ _ ___ _ ___
 72
65
 73
4
 40
28.574999999999999
 49
19.050000000000001
 74
0
 49
-3.1749999999999998
 74
0
 49
3.1749999999999998
 74
0
 49
-3.1749999999999998
 74
0
  0
LTYPE
  5
3F
100
AcDbSymbolTableRecord
100
AcDbLinetypeTableRecord
  2
CENTERX2
 70
0
  3
Center (2x) ________  __  ________  __  _____
 72
65
 73
4
 40
101.59999999999999
 49
63.5
 74
0
 49
-12.699999999999999
 74
0
 49
12.699999999999999
 74
0
 49
-12.699999999999999
 74
0
  0
LTYPE
  5
40
100
AcDbSymbolTableRecord
100
AcDbLinetypeTableRecord
  2
BORDER
 70
0
  3
Border __ __ . __ __ . __ __ . __ __ . __ __ .
 72
65
 73
6
 40
44.450000000000003
 49
12.699999999999999
 74
0
 49
-6.3499999999999996
 74
0
 49
12.699999999999999
 74
0
 49
-6.3499999999999996
 74
0
 49
0.0
 74
0
 49
-6.3499999999999996
 74
0
  0
LTYPE
  5
41
100
AcDbSymbolTableRecord
100
AcDbLinetypeTableRecord
  2
BORDER2
 70
0
  3
Border (.5x) __.__.__.__.__.__.__.__.__.__.__.
 72
65
 73
6
 40
22.225000000000001
 49
6.3499999999999996
 74
0
 49
-3.1749999999999998
 74
0
 49
6.3499999999999996
 74
0
 49
-3.1749999999999998
 74
0
 49
0.0
 74
0
 49
-3.1749999999999998
 74
0
  0
LTYPE
  5
42
100
AcDbSymbolTableRecord
100
AcDbLinetypeTableRecord
  2
BORDERX2
 70
0
  3
Border (2x) ____  ____  .  ____  ____  .  ___
 72
65
 73
6
 40
88.900000000000006
 49
25.399999999999999
 74
0
 49
-12.699999999999999
 74
0
 49
25.399999999999999
 74
0
 49
-12.699999999999999
 74
0
 49
0.0
 74
0
 49
-12.699999999999999
 74
0
  0
ENDTAB
  0
TABLE
  2
LAYER
  5
2
100
AcDbSymbolTable
 70
2
  0
LAYER
  5
10
100
AcDbSymbolTableRecord
100
AcDbLayerTableRecord
  2
0
 70
0
 62
7
  6
CONTINUOUS
390
F
  0
LAYER
  5
43
100
AcDbSymbolTableRecord
100
AcDbLayerTableRecord
  2
LAYER_1
 70
0
 62
18
  6
CONTINUOUS
390
F
  0
ENDTAB
  0
TABLE
  2
STYLE
  5
3
100
AcDbSymbolTable
 70
1
  0
STYLE
  5
11
100
AcDbSymbolTableRecord
100
AcDbTextStyleTableRecord
  2
Standard
 70
0
 40
0.0
 41
0.75
 50
0.0
 71
0
 42
2.5
  3
txt
  4

  0
ENDTAB
  0
TABLE
  2
VIEW
  5
6
100
AcDbSymbolTable
 70
0
  0
ENDTAB
  0
TABLE
  2
UCS
  5
7
100
AcDbSymbolTable
 70
0
  0
ENDTAB
  0
TABLE
  2
APPID
  5
9
100
AcDbSymbolTable
 70
1
  0
APPID
  5
12
100
AcDbSymbolTableRecord
100
AcDbRegAppTableRecord
  2
ACAD
 70
0
  0
ENDTAB
  0
TABLE
  2
DIMSTYLE
  5
A
100
AcDbSymbolTable
 70
1
100
AcDbDimStyleTable
 71
0
  0
DIMSTYLE
105
27
100
AcDbSymbolTableRecord
100
AcDbDimStyleTableRecord
  2
Standard
 41
0.18
 42
0.0625
 43
3.75
 44
0.18
 70
0
 73
0
 74
0
 77
1
 78
8
140
0.18
141
2.5
143
0.03937007874016
147
0.09
171
3
172
1
271
2
272
2
274
3
278
44
283
0
284
8
340
11
  0
ENDTAB
  0
TABLE
  2
BLOCK_RECORD
  5
1
100
AcDbSymbolTable
 70
1
  0
BLOCK_RECORD
  5
1F
100
AcDbSymbolTableRecord
100
AcDbBlockTableRecord
  2
*Model_Space
340
22
  0
BLOCK_RECORD
  5
1B
100
AcDbSymbolTableRecord
100
AcDbBlockTableRecord
  2
*Paper_Space
340
1E
  0
BLOCK_RECORD
  5
23
100
AcDbSymbolTableRecord
100
AcDbBlockTableRecord
  2
*Paper_Space0
340
26
  0
ENDTAB
  0
ENDSEC
  0
SECTION
  2
BLOCKS
  0
BLOCK
  5
20
100
AcDbEntity
  8
0
100
AcDbBlockBegin
  2
*Model_Space
 70
0
 10
0.0
 20
0.0
 30
0.0
  3
*Model_Space
  1

  0
ENDBLK
  5
21
100
AcDbEntity
  8
0
100
AcDbBlockEnd
  0
BLOCK
  5
1C
100
AcDbEntity
 67
1
  8
0
100
AcDbBlockBegin
  2
*Paper_Space
 70
0
 10
0.0
 20
0.0
 30
0.0
  3
*Paper_Space
  1

  0
ENDBLK
  5
1D
100
AcDbEntity
 67
1
  8
0
100
AcDbBlockEnd
  0
BLOCK
  5
24
100
AcDbEntity
  8
0
100
AcDbBlockBegin
  2
*Paper_Space0
 70
0
 10
0.0
 20
0.0
 30
0.0
  3
*Paper_Space0
  1

  0
ENDBLK
  5
25
100
AcDbEntity
  8
0
100
AcDbBlockEnd
  0
ENDSEC
  0
SECTION
  2
ENTITIES
  0
LWPOLYLINE
  5
44
  8
LAYER_1
 62
256
370
-1
  6
ByLayer
100
AcDbEntity
100
AcDbPolyline
 90
58
 70
1
 10
-19.903717785001191
 20
-5.3866525423728859
 10
-19.894448717204579
 20
-5.6475105932203409
 10
-19.866641513814731
 20
-5.9004237288135641
 10
-19.84446195872998
 20
-6.0215836864406809
 10
-19.814999564662191
 20
-6.1361228813559352
 10
-19.77825433161134
 20
-6.2440413135593253
 10
-19.73422625957744
 20
-6.3453389830508513
 10
-19.68258431042489
 20
-6.4386917372881394
 10
-19.622997446018111
 20
-6.5227754237288158
 10
-19.555465666357101
 20
-6.5975900423728824
 10
-19.479988971441859
 20
-6.6631355932203391
 10
-19.39524320872999
 20
-6.7164327330508469
 10
-19.299904225679139
 20
-6.7545021186440666
 10
-19.193972022289309
 20
-6.7773437499999991
 10
-19.077446598560499
 20
-6.7849576271186436
 10
-18.980617943899482
 20
-6.7796610169491514
 10
-18.88610655618761
 20
-6.7637711864406773
 10
-18.7939124354249
 20
-6.7372881355932197
 10
-18.70403558161134
 20
-6.7002118644067803
 10
-18.616475994746931
 20
-6.6525423728813564
 10
-18.531233674831679
 20
-6.5942796610169507
 10
-18.448308621865589
 20
-6.5254237288135606
 10
-18.367700835848641
 20
-6.4459745762711904
 10
-18.214099140933371
 20
-6.2678760593220364
 10
-18.071090666357101
 20
-6.0725635593220346
 10
-17.93867541211981
 20
-5.8600370762711878
 10
-17.816853378221509
 20
-5.6302966101694949
 10
-17.705955602797779
 20
-5.3899629237288149
 10
-17.606313123984211
 20
-5.1456567796610191
 10
-17.51792594178082
 20
-4.8973781779661039
 10
-17.440794056187599
 20
-4.6451271186440692
 10
-17.32294447991643
 20
-4.1790254237288131
 10
-17.282888865509651
 20
-3.9777542372881358
 10
-17.25541270025542
 20
-3.7976694915254261
 10
-16.60922625957744
 20
-0.6832627118644084
 10
-16.825063123984219
 20
-0.6968352754237303
 10
-17.03825168330625
 20
-0.7375529661016964
 10
-17.24879193754354
 20
-0.8054157838983075
 10
-17.45668388669608
 20
-0.9004237288135641
 10
-17.660272340085911
 20
-1.018604343220342
 10
-17.85790210703507
 20
-1.1559851694915271
 10
-18.049573187543551
 20
-1.3125662076271201
 10
-18.23528558161135
 20
-1.488347457627121
 10
-18.41437721296727
 20
-1.68034957627119
 10
-18.586186005340149
 20
-1.8855932203389849
 10
-18.75071195872998
 20
-2.10407838983051
 10
-18.90795507313678
 20
-2.3358050847457652
 10
-19.056260157882541
 20
-2.5771318855932202
 10
-19.193972022289309
 20
-2.8244173728813551
 10
-19.321090666357112
 20
-3.0776615466101682
 10
-19.437616090085921
 20
-3.3368644067796609
 10
-19.54255517906897
 20
-3.5993776483050861
 10
-19.634914818899471
 20
-3.8625529661016968
 10
-19.71469500957744
 20
-4.126390360169494
 10
-19.781895751102869
 20
-4.3908898305084776
 10
-19.835192890933381
 20
-4.6517478813559352
 10
-19.87326227652661
 20
-4.9046610169491558
 10
-19.896103907882541
 20
-5.1496292372881394
  0
LWPOLYLINE
  5
45
  8
LAYER_1
 62
256
370
-1
  6
ByLayer
100
AcDbEntity
100
AcDbPolyline
 90
58
 70
1
 10
3.8250957743208862
 20
-5.3866525423728859
 10
3.8343648421174952
 20
-5.6475105932203409
 10
3.8621720455073221
 20
-5.9004237288135641
 10
3.8843516005920642
 20
-6.0215836864406809
 10
3.9138139946598578
 20
-6.1361228813559352
 10
3.9505592277107051
 20
-6.2440413135593253
 10
3.9945872997446088
 20
-6.3453389830508513
 10
4.046229248897145
 20
-6.4386917372881394
 10
4.105816113303927
 20
-6.5227754237288158
 10
4.1733478929649461
 20
-6.5975900423728824
 10
4.2488245878801933
 20
-6.6631355932203391
 10
4.333570350592062
 20
-6.7164327330508469
 10
4.4289093336429097
 20
-6.7545021186440666
 10
4.5348415370327384
 20
-6.7773437499999991
 10
4.6513669607615498
 20
-6.7849576271186436
 10
4.7481956154225724
 20
-6.7796610169491514
 10
4.8427070031344366
 20
-6.7637711864406773
 10
4.9349011238971503
 20
-6.7372881355932197
 10
5.0247779777107091
 20
-6.7002118644067803
 10
5.1123375645751139
 20
-6.6525423728813564
 10
5.1975798844903656
 20
-6.5942796610169507
 10
5.280504937456465
 20
-6.5254237288135606
 10
5.3611127234734113
 20
-6.4459745762711904
 10
5.5147144183886754
 20
-6.2678760593220364
 10
5.6577228929649479
 20
-6.0725635593220346
 10
5.7901381472022342
 20
-5.8600370762711878
 10
5.9119601811005396
 20
-5.6302966101694949
 10
6.0228579565242706
 20
-5.3899629237288149
 10
6.1225004353378303
 20
-5.1456567796610191
 10
6.2108876175412142
 20
-4.8973781779661039
 10
6.2880195031344206
 20
-4.6451271186440692
 10
6.405869079405619
 20
-4.1790254237288131
 10
6.4459246938124002
 20
-3.9777542372881358
 10
6.4734008590666292
 20
-3.7976694915254261
 10
7.1195872997446088
 20
-0.6832627118644084
 10
6.9037504353378321
 20
-0.6968352754237303
 10
6.6905618760157992
 20
-0.7375529661016964
 10
6.4800216217785103
 20
-0.8054157838983075
 10
6.2721296726259652
 20
-0.9004237288135641
 10
6.068541219236133
 20
-1.018604343220342
 10
5.870911452286979
 20
-1.1559851694915271
 10
5.6792403717785014
 20
-1.3125662076271201
 10
5.4935279777106976
 20
-1.488347457627121
 10
5.3144363463547721
 20
-1.68034957627119
 10
5.1426275539818889
 20
-1.8855932203389849
 10
4.978101600592054
 20
-2.10407838983051
 10
4.8208584861852728
 20
-2.3358050847457652
 10
4.6725534014395134
 20
-2.5771318855932202
 10
4.5348415370327366
 20
-2.8244173728813551
 10
4.4077228929649408
 20
-3.0776615466101682
 10
4.2911974692361241
 20
-3.3368644067796609
 10
4.1862583802530811
 20
-3.5993776483050861
 10
4.0938987404225706
 20
-3.8625529661016968
 10
4.0141185497446017
 20
-4.126390360169494
 10
3.9469178082191831
 20
-4.3908898305084776
 10
3.89362066838867
 20
-4.6517478813559352
 10
3.855551282795453
 20
-4.9046610169491558
 10
3.8327096514395271
 20
-5.1496292372881394
  0
LWPOLYLINE
  5
46
  8
LAYER_1
 62
256
370
-1
  6
ByLayer
100
AcDbEntity
100
AcDbPolyline
 90
45
 70
1
 10
34.225751683306271
 20
4.3167372881355917
 10
34.516734204492707
 20
5.0953389830508486
 10
34.764681768052043
 20
5.8103813559322042
 10
34.969594373984243
 20
6.46186440677966
 10
35.13147202228933
 20
7.0497881355932179
 10
35.254287170594409
 20
7.5695180084745752
 10
35.342012276526603
 20
8.0164194915254221
 10
35.394647340085918
 20
8.3904925847457612
 10
35.407806105975752
 20
8.5502184851694913
 10
35.412192361272361
 20
8.6917372881355917
 10
35.40888197991643
 20
8.8804290254237266
 10
35.398950835848638
 20
9.0439618644067785
 10
35.382398929068977
 20
9.1823358050847439
 10
35.359226259577447
 20
9.2955508474576263
 10
35.329432827374063
 20
9.3836069915254239
 10
35.293018632458811
 20
9.4465042372881349
 10
35.249983674831697
 20
9.4842425847457612
 10
35.200327954492707
 20
9.4968220338983045
 10
35.127334045594409
 20
9.4827529131355934
 10
35.046064183306271
 20
9.4405455508474567
 10
34.956518367628313
 20
9.3701999470338979
 10
34.858696598560513
 20
9.2717161016949152
 10
34.75259887610288
 20
9.1450940148305104
 10
34.638225200255413
 20
8.9903336864406782
 10
34.515575571018132
 20
8.8074351165254239
 10
34.384649988390997
 20
8.5963983050847439
 10
34.102605496865593
 20
8.095206567796609
 10
33.796726259577447
 20
7.4920550847457612
 10
33.467012276526617
 20
6.7869438559322024
 10
33.113463547713053
 20
5.9798728813559308
 10
32.939999564662202
 20
5.3866525423728779
 10
32.779777107035073
 20
4.7722457627118686
 10
32.634120327374063
 20
4.148569915254237
 10
32.504353378221509
 20
3.5275423728813489
 10
32.3878279544927
 20
2.9131355932203391
 10
32.281895751102873
 20
2.309322033898304
 10
32.187880920594402
 20
1.7253707627118611
 10
32.107107615509648
 20
1.1705508474576261
 10
32.022361852797793
 20
0.543564618644068
 10
31.9482093104249
 20
-0.0768008474576272
 10
31.884649988391001
 20
-0.6905455508474586
 10
31.83168388669608
 20
-1.2976694915254261
 10
32.456683886696077
 20
0.1536016949152526
 10
33.124056768052007
 20
1.7055084745762701
 10
33.743760157882548
 20
3.1567796610169481
  0
LWPOLYLINE
  5
47
  8
LAYER_1
 62
256
370
-1
  6
ByLayer
100
AcDbEntity
100
AcDbPolyline
 90
217
 70
1
 10
18.597849431158579
 20
-1.477754237288138
 10
18.60314604132807
 20
-2.6483050847457652
 10
18.620360024378929
 20
-3.4096927966101731
 10
18.661408753192489
 20
-4.2213983050847466
 10
18.691864261667071
 20
-4.641154661016949
 10
18.730264685395881
 20
-5.0635593220338979
 10
18.776610024378929
 20
-5.4886122881355934
 10
18.830900278616209
 20
-5.9163135593220346
 10
18.896114791328081
 20
-6.3350768008474594
 10
18.97523290573486
 20
-6.733315677966103
 10
19.068254621836559
 20
-7.1110301906779672
 10
19.175179939633178
 20
-7.4682203389830519
 10
19.2963398972603
 20
-7.7992584745762734
 10
19.432065532853521
 20
-8.0985169491525433
 10
19.582356846412839
 20
-8.3659957627118633
 10
19.662964632429791
 20
-8.487817796610166
 10
19.747213837938261
 20
-8.6016949152542352
 10
19.83601481781114
 20
-8.7047305349576263
 10
19.93027792692131
 20
-8.7940280720338997
 10
20.03000316526877
 20
-8.8695875264830519
 10
20.13519053285351
 20
-8.9314088983050866
 10
20.245840029675541
 20
-8.9794921875000018
 10
20.36195165573486
 20
-9.0138373940677994
 10
20.483525411031469
 20
-9.0344445180084758
 10
20.610561295565361
 20
-9.0413135593220346
 10
20.743142068870451
 20
-9.0354376324152561
 10
20.870757270141631
 20
-9.017809851694917
 10
20.993406899378918
 20
-8.9884302171610191
 10
21.111090956582309
 20
-8.9472987288135606
 10
21.223809441751811
 20
-8.8944153866525433
 10
21.331562354887399
 20
-8.8297801906779689
 10
21.434349695989098
 20
-8.753393140889834
 10
21.532171465056901
 20
-8.6652542372881385
 10
21.625524219294189
 20
-8.5677635063559343
 10
21.714904515904351
 20
-8.4633209745762734
 10
21.88174773624333
 20
-8.2335805084745779
 10
22.032701126073839
 20
-7.9760328389830537
 10
22.16776468539587
 20
-7.6906779661016964
 10
22.288262566751811
 20
-7.3814883474576298
 10
22.395518922684019
 20
-7.0524364406779698
 10
22.489533753192489
 20
-6.7035222457627146
 10
22.570307058277219
 20
-6.3347457627118686
 10
22.639825066751811
 20
-5.9557070974576281
 10
22.70007400742977
 20
-5.5760063559322033
 10
22.75105388031113
 20
-5.1956435381355943
 10
22.79276468539587
 20
-4.8146186440677994
 10
22.853675702345029
 20
-4.0691207627118642
 10
22.888103668446721
 20
-3.3580508474576258
 10
22.903993498955209
 20
-2.7158368644067812
 10
22.909290109124701
 20
-2.1769067796610169
 10
22.909290109124701
 20
-1.6790254237288169
 10
22.493175172684008
 20
-1.509533898305085
 10
22.12406765149758
 20
-1.350635593220338
 10
21.801967545565379
 20
-1.202330508474577
 10
21.52687485488741
 20
-1.0646186440677989
 10
21.290844664209441
 20
-0.9335275423728819
 10
21.08593205827724
 20
-0.8050847457627111
 10
20.912137037090801
 20
-0.6792902542372867
 10
20.769459600650119
 20
-0.556144067796609
 10
20.653927291328088
 20
-0.4326668432203382
 10
20.56156765149758
 20
-0.3058792372881349
 10
20.4923806811586
 20
-0.1757812499999991
 10
20.44636638031113
 20
-0.0423728813559308
 10
20.41624190997215
 20
0.0983183262711885
 10
20.39472443115859
 20
0.2502648305084767
 10
20.381813943870469
 20
0.4134666313559331
 10
20.37751044810776
 20
0.587923728813557
 10
20.388103668446721
 20
0.9639830508474603
 10
20.407965956582331
 20
1.1387711864406791
 10
20.44636638031113
 20
1.292372881355931
 10
20.47284943115859
 20
1.360566737288136
 10
20.504629092175541
 20
1.422139830508474
 10
20.541705363361981
 20
1.477092161016947
 10
20.584078244717919
 20
1.525423728813557
 10
20.63340292692131
 20
1.56481726694915
 10
20.691334600650119
 20
1.5929555084745739
 10
20.757873265904351
 20
1.6098384533898289
 10
20.833018922684001
 20
1.615466101694913
 10
20.934978668446721
 20
1.6048728813559301
 10
21.028993498955199
 20
1.5730932203389829
 10
21.256747736243341
 20
1.4565677966101731
 10
21.59043417692131
 20
1.283103813559324
 10
21.892340956582331
 20
1.1440677966101731
 10
22.379629092175549
 20
0.9480932203389827
 10
22.602086719294189
 20
0.8739406779660994
 10
22.80335790573486
 20
0.8209745762711833
 10
22.808654515904351
 20
1.3665254237288169
 10
22.82719265149758
 20
1.803495762711864
 10
22.872213837938261
 20
2.2987288135593218
 10
22.906310765904351
 20
2.56389036016949
 10
22.950338837938251
 20
2.8350105932203382
 10
23.004298054039939
 20
3.1120895127118628
 10
23.06818841420943
 20
3.3951271186440661
 10
23.144989261667071
 20
3.6751853813559312
 10
23.237679939633171
 20
3.943326271186439
 10
23.346260448107749
 20
4.1995497881355934
 10
23.47073078709079
 20
4.443855932203391
 10
23.613077185395881
 20
4.6719412076271176
 10
23.775285871836559
 20
4.8795021186440657
 10
23.957356846412829
 20
5.0665386652542352
 10
24.159290109124701
 20
5.2330508474576263
 10
24.268367174802659
 20
5.3062930349576272
 10
24.383733965056901
 20
5.3697695974576272
 10
24.50539047988741
 20
5.4234805349576272
 10
24.633336719294189
 20
5.4674258474576272
 10
24.76757268327724
 20
5.5016055349576272
 10
24.908098371836569
 20
5.5260195974576272
 10
25.054913784972161
 20
5.5406680349576272
 10
25.20801892268403
 20
5.5455508474576263
 10
25.401345193870469
 20
5.5362817796610164
 10
25.5999680752264
 20
5.5084745762711833
 10
25.69828640149758
 20
5.485963983050846
 10
25.791970193870469
 20
5.4555084745762699
 10
25.881019452345051
 20
5.4171080508474558
 10
25.96543417692132
 20
5.3707627118644048
 10
26.0442212531925
 20
5.3161414194915242
 10
26.116387566751818
 20
5.2529131355932197
 10
26.181933117599279
 20
5.1810778601694896
 10
26.240857905734881
 20
5.1006355932203391
 10
26.289520511667082
 20
5.0099311440677958
 10
26.324279515904369
 20
4.9073093220338961
 10
26.345134918446739
 20
4.7927701271186436
 10
26.352086719294189
 20
4.6663135593220346
 10
26.346790109124701
 20
4.5656779661016964
 10
26.341493498955199
 20
4.4968220338983036
 10
25.695307058277251
 20
1.7743644067796609
 10
25.5999680752264
 20
0.9375
 10
26.101159812514531
 20
1.028866525423727
 10
26.338348636667071
 20
1.0834878177966081
 10
26.5665994311586
 20
1.1440677966101671
 10
26.785912195989109
 20
1.2106064618644039
 10
26.9962869311586
 20
1.2831038135593189
 10
27.197723636667071
 20
1.3615598516949119
 10
27.390222312514538
 20
1.4459745762711831
 10
27.750060765904362
 20
1.6287076271186429
 10
27.91781434111622
 20
1.7260328389830499
 10
28.07745748200605
 20
1.8273305084745759
 10
28.228990188573849
 20
1.932600635593221
 10
28.372412460819611
 20
2.041843220338984
 10
28.507724298743341
 20
2.1550582627118651
 10
28.63492570234504
 20
2.2722457627118651
 10
28.7540994311586
 20
2.392909163135593
 10
28.865328244717929
 20
2.51655190677966
 10
28.968612143023019
 20
2.643173993644067
 10
29.06395112607386
 20
2.7727754237288118
 10
29.151345193870469
 20
2.905356197033897
 10
29.230794346412839
 20
3.04091631355932
 10
29.302298583700981
 20
3.1794557733050821
 10
29.365857905734881
 20
3.3209745762711829
 10
29.470134918446739
 20
3.6089777542372858
 10
29.544618498955209
 20
3.9009533898305069
 10
29.570687752133171
 20
4.0484308792372872
 10
29.589308647260289
 20
4.1969014830508469
 10
29.604205363361981
 20
4.4968220338983036
 10
29.589970723531479
 20
4.7950873940677949
 10
29.54726680403996
 20
5.0966631355932179
 10
29.476093604887421
 20
5.4015492584745752
 10
29.376451126073849
 20
5.7097457627118651
 10
29.31429871611622
 20
5.8629336599576263
 10
29.24171860488741
 20
6.01264565677966
 10
29.15871079238741
 20
6.1588817531779636
 10
29.06527527861622
 20
6.3016419491525406
 10
28.961412063573849
 20
6.4409262447033884
 10
28.847121147260289
 20
6.5767346398305069
 10
28.722402529675549
 20
6.7090671345338961
 10
28.587256210819621
 20
6.837923728813557
 10
28.440937354887421
 20
6.9622285487288122
 10
28.28270112607386
 20
7.0809057203389827
 10
28.11254752437895
 20
7.1939552436440666
 10
27.93047654980267
 20
7.3013771186440666
 10
27.73648820234504
 20
7.4031713453389827
 10
27.530582482006061
 20
7.4993379237288131
 10
27.312759388785729
 20
7.5898768538135597
 10
27.08301892268403
 20
7.6747881355932206
 10
26.839705893023009
 20
7.7517545021186436
 10
26.581165109124701
 20
7.8184586864406782
 10
26.307396570989109
 20
7.8749006885593209
 10
26.01840027861623
 20
7.9210805084745743
 10
25.714176232006061
 20
7.9569981461864394
 10
25.3947244311586
 20
7.9826536016949126
 10
25.060044876073839
 20
7.9980468749999982
 10
24.710137566751801
 20
8.003177966101692
 10
24.44580361548061
 20
7.9968054819915233
 10
24.187759388785711
 20
7.9776880296610138
 10
23.93600488666706
 20
7.945825609110166
 10
23.69054010912469
 20
7.9012182203389809
 10
23.45136505615859
 20
7.8438658633474558
 10
23.218479727768759
 20
7.7737685381355917
 10
22.991884123955199
 20
7.6909262447033866
 10
22.771578244717919
 20
7.5953389830508442
 10
22.557396570989109
 20
7.4888274629237257
 10
22.349173583700971
 20
7.3732123940677941
 10
22.14690928285351
 20
7.2484937764830484
 10
21.950603668446739
 20
7.1146716101694896
 10
21.760256740480639
 20
6.9717458951271176
 10
21.575868498955209
 20
6.8197166313559334
 10
21.397438943870469
 20
6.6585838188559334
 10
21.2249680752264
 20
6.4883474576271176
 10
21.058290373955209
 20
6.3099179025423728
 10
20.897240320989098
 20
6.1242055084745761
 10
20.741817916328081
 20
5.9312102754237293
 10
20.59202315997215
 20
5.7309322033898296
 10
20.447856051921299
 20
5.5233712923728824
 10
20.309316592175541
 20
5.3085275423728824
 10
20.17640478073486
 20
5.0864009533898322
 10
20.049120617599272
 20
4.8569915254237301
 10
19.811104198107749
 20
4.3832759533898296
 10
19.594936295565368
 20
3.8943326271186418
 10
19.40061690997215
 20
3.3901615466101669
 10
19.22814604132807
 20
2.8707627118644048
 10
19.07719265149758
 20
2.3397775423728802
 10
18.94742570234504
 20
1.800847457627117
 10
18.838845193870451
 20
1.253972457627117
 10
18.751451126073849
 20
0.6991525423728788
 10
18.68425038454842
 20
0.1440015889830479
 10
18.636249854887399
 20
-0.4038665254237319
 10
18.60744953709078
 20
-0.9444518008474607
  0
LWPOLYLINE
  5
48
  8
LAYER_1
 62
256
370
-1
  6
ByLayer
100
AcDbEntity
100
AcDbPolyline
 90
1589
 70
1
 10
35.549904225679143
 20
11.520127118644069
 10
35.823010687543558
 20
11.509533898305079
 10
36.070296174831697
 20
11.47775423728813
 10
36.291760687543558
 20
11.42478813559322
 10
36.487404225679143
 20
11.350635593220341
 10
36.660868208729987
 20
11.25728283898305
 10
36.815794056187627
 20
11.14671610169491
 10
36.952181768052029
 20
11.018935381355931
 10
37.070031344323212
 20
10.8739406779661
 10
37.170335899407959
 20
10.712725105932201
 10
37.254088547713053
 20
10.536281779661021
 10
37.321289289238479
 20
10.34461069915254
 10
37.371938123984251
 20
10.13771186440678
 10
37.409014395170693
 20
9.9169094279661003
 10
37.435497446018147
 20
9.6835275423728806
 10
37.451387276526617
 20
9.4375662076271176
 10
37.456683886696112
 20
9.1790254237288131
 10
37.442780285001191
 20
8.7764830508474549
 10
37.401069479916437
 20
8.3527542372881332
 10
37.33155147144187
 20
7.907838983050846
 10
37.234226259577468
 20
7.4417372881355917
 10
37.114059416357122
 20
6.9604078389830502
 10
36.976016513814741
 20
6.469809322033897
 10
36.82009755195034
 20
5.9699417372881349
 10
36.646302530763897
 20
5.4608050847457612
 10
36.457279755340167
 20
4.9453787076271176
 10
36.25567753076389
 20
4.4266419491525406
 10
36.041495857035081
 20
3.9045948093220328
 10
35.814734734153717
 20
3.3792372881355921
 10
35.343336429068977
 20
2.3411016949152539
 10
34.861344903645261
 20
1.334745762711862
 10
34.378029225679157
 20
0.3720868644067767
 10
33.902658462967281
 20
-0.5349576271186436
 10
33.071090666357122
 20
-2.0815677966101731
 10
33.282955073136783
 20
-2.2298728813559312
 10
33.743760157882527
 20
-1.636652542372881
 10
34.257531344323212
 20
-1.0010593220338959
 10
34.530306768052029
 20
-0.6782971398305085
 10
34.80837880195034
 20
-0.3667902542372898
 10
35.091747446018132
 20
-0.0665386652542393
 10
35.38041270025542
 20
0.2224576271186436
 10
35.671395221441863
 20
0.4939088983050852
 10
35.961715666357122
 20
0.7415254237288131
 10
36.251374035001177
 20
0.96530720338983
 10
36.540370327374063
 20
1.165254237288138
 10
36.683627080552029
 20
1.253393140889832
 10
36.824732085848638
 20
1.329780190677966
 10
36.96368534326389
 20
1.3944153866525419
 10
37.100486852797793
 20
1.447298728813559
 10
37.235136614450333
 20
1.4884302171610171
 10
37.367634628221523
 20
1.517809851694915
 10
37.49798089411135
 20
1.535437632415255
 10
37.626175412119842
 20
1.5413135593220351
 10
37.76123897144187
 20
1.5293961864406771
 10
37.912192361272361
 20
1.493644067796609
 10
37.990648399407959
 20
1.4648437499999989
 10
38.067118208730001
 20
1.426112288135593
 10
38.141601789238479
 20
1.3774496822033899
 10
38.214099140933399
 20
1.318855932203391
 10
38.282624035001191
 20
1.249006885593219
 10
38.345190242628313
 20
1.166578389830506
 10
38.401797763814741
 20
1.071570444915253
 10
38.452446598560499
 20
0.9639830508474603
 10
38.494157403645247
 20
0.8418299788135586
 10
38.523950835848638
 20
0.7031249999999982
 10
38.541826895170672
 20
0.5478681144067779
 10
38.54778558161135
 20
0.3760593220338961
 10
38.535206132458811
 20
0.0182070974576239
 10
38.497467785001177
 20
-0.3350105932203418
 10
38.434570539238479
 20
-0.6835937500000017
 10
38.346514395170693
 20
-1.027542372881356
 10
38.135974140933392
 20
-1.7108050847457621
 10
37.906895751102887
 20
-2.3940677966101731
 10
37.679141513814741
 20
-3.083951271186443
 10
37.472573717204568
 20
-3.787076271186443
 10
37.386834840085939
 20
-4.145921610169494
 10
37.325592785001191
 20
-4.5127118644067821
 10
37.288847551950347
 20
-4.8874470338983071
 10
37.276599140933399
 20
-5.2701271186440692
 10
37.284544056187642
 20
-5.4713983050847466
 10
37.308378801950347
 20
-5.6514830508474576
 10
37.348103378221538
 20
-5.8103813559322033
 10
37.403717785001191
 20
-5.9480932203389827
 10
37.471911640933392
 20
-6.0593220338983054
 10
37.549374564662202
 20
-6.1387711864406773
 10
37.591581926950333
 20
-6.1665783898305078
 10
37.63610655618762
 20
-6.1864406779661003
 10
37.682948452374063
 20
-6.1983580508474558
 10
37.732107615509648
 20
-6.2023305084745743
 10
37.861212488391018
 20
-6.1957097457627102
 10
37.994289818899503
 20
-6.1758474576271194
 10
38.131339607035088
 20
-6.1427436440677976
 10
38.272361852797793
 20
-6.0963983050847466
 10
38.55837880195034
 20
-5.974576271186443
 10
38.844395751102887
 20
-5.8209745762711904
 10
39.127764395170672
 20
-5.639565677966103
 10
39.405836429068977
 20
-5.4343220338983036
 10
39.673315242628313
 20
-5.2131885593220364
 10
39.924904225679143
 20
-4.9841101694915304
 10
40.42496766964851
 20
-4.4840467255221634
 10
40.543042703066853
 20
-3.9007734990830891
 10
40.677022869746963
 20
-3.3050847457627128
 10
40.906101259577468
 20
-2.3583156779661061
 10
41.148421174831697
 20
-1.4141949152542419
 10
41.382796174831697
 20
-0.5084745762711886
 10
41.588039818899489
 20
0.3230932203389827
 10
41.634385157882527
 20
0.4558395127118635
 10
41.699268632458811
 20
0.5786546610169481
 10
41.782690242628313
 20
0.691538665254235
 10
41.884649988391033
 20
0.794491525423723
 10
41.99952022144187
 20
0.8878442796610149
 10
42.121673293475773
 20
0.9719279661016937
 10
42.251109204492707
 20
1.046742584745761
 10
42.387827954492707
 20
1.1122881355932179
 10
42.578333073958653
 20
1.1862970676967151
 10
42.774318711953917
 20
1.2433387910602181
 10
42.636768632458818
 20
1.3588344555374969
 10
42.532491619746949
 20
1.4732908909188529
 10
42.442118208730001
 20
1.596850875029022
 10
42.365648399407966
 20
1.7295144078680049
 10
42.303082191780852
 20
1.871281489435801
 10
42.254419585848638
 20
2.0221521197324108
 10
42.219660581611357
 20
2.1821262987578351
 10
42.198805179068991
 20
2.3512040265120731
 10
42.191853378221538
 20
2.5293853029951241
 10
42.198474140933413
 20
2.6551797945205471
 10
42.218336429068998
 20
2.7889192013002089
 10
42.25144024262832
 20
2.9306035233341081
 10
42.29778558161135
 20
3.0802327606222448
 10
42.359027636696098
 20
3.2315171885883451
 10
42.436821598560513
 20
3.378167082656141
 10
42.531167467204583
 20
3.5201824428256319
 10
42.64206524262832
 20
3.6575632690968192
 10
42.771170115509662
 20
3.787330218249362
 10
42.920137276526617
 20
3.9065039470629208
 10
43.088966725679157
 20
4.0150844555374956
 10
43.27765846296731
 20
4.113071743673089
 10
43.38003200639951
 20
4.1565204989696998
 10
43.488529755340203
 20
4.1941760868934299
 10
43.723897869746963
 20
4.2521077606222439
 10
43.983762806187642
 20
4.2868667648595311
 10
44.268124564662202
 20
4.2984530996052932
 10
44.450857615509683
 20
4.293156489435801
 10
44.628294056187642
 20
4.277266658927326
 10
44.800433886696112
 20
4.2507836080798684
 10
44.967277107035102
 20
4.2137073368934281
 10
45.126175412119842
 20
4.1657068072324117
 10
45.274480496865607
 20
4.1064509809612257
 10
45.412192361272382
 20
4.0359398580798702
 10
45.539311005340181
 20
3.9541734385883451
 10
45.654843314662223
 20
3.8598275699442781
 10
45.757796174831697
 20
3.751578099605295
 10
45.848169585848652
 20
3.629425027571398
 10
45.925963547713053
 20
3.4933683538425839
 10
45.988529755340167
 20
3.3437391165544481
 10
46.033219903645261
 20
3.180868353842583
 10
46.060033992628313
 20
3.0047560657069892
 10
46.06897202228933
 20
2.8154022521476669
 10
46.061689183306278
 20
2.6366416589273269
 10
46.039840666357136
 20
2.4605293707917331
 10
46.003426471441877
 20
2.2870653877408849
 10
45.952446598560527
 20
2.116249709774785
 10
45.885576895170693
 20
1.951392718249362
 10
45.801493208730008
 20
1.7958047945205491
 10
45.700195539238479
 20
1.6494859385883449
 10
45.581683886696112
 20
1.5124361504527499
 10
45.446289289238493
 20
1.3863106207917311
 10
45.294342785001191
 20
1.272764540283257
 10
45.125844373984243
 20
1.171797908927326
 10
44.940794056187627
 20
1.0834107267239399
 10
44.786553144595999
 20
1.0263912489001259
 10
44.62096773687901
 20
0.98156129790158
 10
44.444032701158847
 20
0.9489890111855217
 10
44.255742905557668
 20
0.9287425262091702
 10
44.273311657683173
 20
0.8415741470187887
 10
44.278717785001191
 20
0.7468220338983045
 10
44.272097022289323
 20
0.6173861228813562
 10
44.252234734153731
 20
0.4621292372881349
 10
44.219130920594409
 20
0.281051377118642
 10
44.172785581611379
 20
0.0741525423728788
 10
44.053611852797808
 20
-0.3945974576271212
 10
43.907955073136797
 20
-0.9216101694915295
 10
43.56897202228933
 20
-2.118644067796609
 10
43.394183886696112
 20
-2.759533898305087
 10
43.229988971441877
 20
-3.4004237288135641
 10
43.084332191780852
 20
-4.0333686440677976
 10
42.965158462967281
 20
-4.6504237288135641
 10
42.918813123984251
 20
-4.9473649364406809
 10
42.885709310424929
 20
-5.2290783898305104
 10
42.865847022289337
 20
-5.495564088983051
 10
42.859226259577468
 20
-5.7468220338983036
 10
42.865847022289337
 20
-5.9729210805084758
 10
42.885709310424929
 20
-6.1745233050847466
 10
42.918813123984251
 20
-6.3516287076271194
 10
42.965158462967281
 20
-6.5042372881355917
 10
42.995117414238457
 20
-6.5700311175847448
 10
43.032028166357122
 20
-6.6270524364406773
 10
43.075890719323233
 20
-6.6753012447033893
 10
43.12670507313679
 20
-6.7147775423728806
 10
43.184471227797808
 20
-6.7454813294491522
 10
43.249189183306292
 20
-6.7674126059322033
 10
43.320858939662223
 20
-6.7805713718220328
 10
43.399480496865607
 20
-6.7849576271186436
 10
43.496143632458818
 20
-6.7808196504237284
 10
43.59545507313679
 20
-6.7684057203389827
 10
43.802022869746963
 20
-6.7187500000000018
 10
44.019183886696112
 20
-6.6359904661016973
 10
44.246938123984251
 20
-6.5201271186440692
 10
44.480651047713067
 20
-6.3807600635593218
 10
44.715688123984251
 20
-6.22748940677966
 10
44.952049352797808
 20
-6.0603151483050839
 10
45.189734734153753
 20
-5.8792372881355917
 10
45.661133039238493
 20
-5.4965572033898296
 10
46.121938123984251
 20
-5.1006355932203391
 10
46.550963547713053
 20
-4.7272245762711904
 10
46.927022869746963
 20
-4.412076271186443
 10
46.927022869746963
 20
-6.5625
 10
46.724758568899503
 20
-6.7402674788135597
 10
46.499321598560527
 20
-6.9239936440677967
 10
46.250711958730008
 20
-7.1136784957627119
 10
45.978929649407966
 20
-7.3093220338983036
 10
45.689933357035088
 20
-7.5039724576271203
 10
45.389681768052043
 20
-7.6906779661016982
 10
45.078174882458818
 20
-7.8694385593220373
 10
44.755412700255448
 20
-8.0402542372881385
 10
44.425367679068998
 20
-8.2001456567796644
 10
44.092012276526617
 20
-8.3461334745762734
 10
43.75534649262832
 20
-8.4782176906779672
 10
43.415370327374092
 20
-8.5963983050847474
 10
43.078042467204597
 20
-8.6937235169491558
 10
42.749321598560527
 20
-8.7632415254237301
 10
42.42920772144187
 20
-8.8049523305084776
 10
42.117700835848638
 20
-8.818855932203391
 10
41.853201365509662
 20
-8.8092558262711886
 10
41.610550412119842
 20
-8.7804555084745779
 10
41.389747975679157
 20
-8.7324549788135624
 10
41.190794056187627
 20
-8.6652542372881385
 10
41.011702424831697
 20
-8.5808395127118668
 10
40.8504868527978
 20
-8.4811970338983063
 10
40.707147340085939
 20
-8.3663268008474585
 10
40.581683886696112
 20
-8.2362288135593218
 10
40.473434416357122
 20
-8.0909030720338997
 10
40.3817368527978
 20
-7.9303495762711878
 10
40.306591196018132
 20
-7.7545683262711869
 10
40.247997446018132
 20
-7.5635593220338961
 10
40.209467081659881
 20
-7.350628361106601
 10
40.12087880195034
 20
-7.4152542372881376
 10
39.751440242628313
 20
-7.6655190677966116
 10
39.352870327374063
 20
-7.918432203389834
 10
38.93841058161135
 20
-8.1581038135593236
 10
38.521302530763897
 20
-8.368644067796609
 10
38.312086429068977
 20
-8.4623278601694913
 10
38.102870327374063
 20
-8.5474046610169481
 10
37.893654225679157
 20
-8.6238744703389827
 10
37.684438123984251
 20
-8.6917372881355917
 10
37.477539289238479
 20
-8.7473516949152543
 10
37.275274988391018
 20
-8.787076271186443
 10
37.07764522144187
 20
-8.810911016949154
 10
36.884649988390997
 20
-8.818855932203391
 10
36.741393235213039
 20
-8.813973119703391
 10
36.602936535001177
 20
-8.799324682203391
 10
36.46927988775542
 20
-8.774910619703391
 10
36.340423293475773
 20
-8.740730932203391
 10
36.216366752162202
 20
-8.696785619703391
 10
36.097110263814749
 20
-8.643074682203391
 10
35.982653828433392
 20
-8.579598119703391
 10
35.872997446018132
 20
-8.506355932203391
 10
35.668084840085932
 20
-8.3395127118644048
 10
35.482372446018132
 20
-8.1514830508474567
 10
35.315860263814741
 20
-7.9422669491525406
 10
35.168548293475773
 20
-7.7118644067796609
 10
35.039443420594402
 20
-7.4652409957627111
 10
34.92755253076389
 20
-7.2073622881355934
 10
34.832875623984229
 20
-6.9382282838983054
 10
34.75541270025542
 20
-6.6578389830508513
 10
34.695163759577447
 20
-6.3757944915254274
 10
34.65212880195034
 20
-6.1016949152542388
 10
34.626307827374063
 20
-5.8355402542372881
 10
34.617700835848638
 20
-5.5773305084745743
 10
34.623328484153717
 20
-5.402873411016949
 10
34.640211429068977
 20
-5.218485169491526
 10
34.668349670594402
 20
-5.0241657838983054
 10
34.707743208729987
 20
-4.8199152542372872
 10
34.80837880195034
 20
-4.4001588983050874
 10
34.930200835848638
 20
-3.977754237288138
 10
35.070561005340167
 20
-3.5593220338983058
 10
35.226811005340181
 20
-3.1514830508474598
 10
35.534014395170693
 20
-2.431144067796609
 10
35.66775380195034
 20
-2.1424788135593218
 10
35.782955073136783
 20
-1.912076271186443
 10
35.870349140933399
 20
-1.753177966101698
 10
35.920666937543558
 20
-1.6790254237288169
 10
35.698209310424907
 20
-1.647245762711862
 10
35.592608145170679
 20
-1.728019067796609
 10
35.455889395170672
 20
-1.8538135593220351
 10
35.288053060424907
 20
-2.024629237288138
 10
35.089099140933399
 20
-2.240466101694921
 10
34.867634628221531
 20
-2.4943723516949192
 10
34.632266513814741
 20
-2.7793961864406809
 10
34.382994797713053
 20
-3.0955376059322068
 10
34.11981947991643
 20
-3.4427966101694949
 10
33.847375094323198
 20
-3.816869703389834
 10
33.570296174831682
 20
-4.2134533898305122
 10
33.288582721441848
 20
-4.6325476694915304
 10
33.002234734153717
 20
-5.0741525423728859
 10
32.720521280763883
 20
-5.5306541313559334
 10
32.45271142906897
 20
-5.9944385593220337
 10
32.19880517906897
 20
-6.465505826271186
 10
31.958802530763901
 20
-6.943855932203391
 10
31.74693812398424
 20
-7.3900953389830537
 10
31.577446598560499
 20
-7.7754237288135641
 10
31.430465666357112
 20
-8.0985169491525433
 10
31.286133039238479
 20
-8.3580508474576263
 10
31.212973611272371
 20
-8.464976165254237
 10
31.13650380195033
 20
-8.5579978813559325
 10
31.056723611272371
 20
-8.6371159957627128
 10
30.973633039238479
 20
-8.7023305084745743
 10
30.882928590085939
 20
-8.7533103813559325
 10
30.780306768052029
 20
-8.7897245762711869
 10
30.665767573136769
 20
-8.8115730932203409
 10
30.539311005340149
 20
-8.818855932203391
 10
30.373791937543551
 20
-8.8062764830508478
 10
30.226811005340171
 20
-8.7685381355932215
 10
30.160272340085928
 20
-8.740234375
 10
30.098368208730001
 20
-8.7056408898305087
 10
30.041098611272371
 20
-8.6647576800847457
 10
29.988463547713049
 20
-8.6175847457627128
 10
29.893786640933381
 20
-8.5086731991525433
 10
29.81102710703507
 20
-8.3832097457627128
 10
29.740184946018129
 20
-8.2411943855932215
 10
29.681260157882551
 20
-8.0826271186440692
 10
29.632928590085928
 20
-7.9101562500000018
 10
29.593866090085928
 20
-7.7264300847457648
 10
29.564072657882541
 20
-7.5314486228813582
 10
29.543548293475769
 20
-7.3252118644067821
 10
29.519713547713039
 20
-6.896186440677968
 10
29.5117686324588
 20
-6.4565677966101731
 10
29.527658462967281
 20
-4.5974576271186436
 10
29.539906873984229
 20
-4.0072166313559316
 10
29.560762276526599
 20
-3.3858580508474581
 10
29.628294056187631
 20
-2.0497881355932179
 10
29.705565962812191
 20
-0.9439193885654769
 10
29.807882112539492
 20
0.2062228446155459
 10
29.496858193372379
 20
-0.0324001249870519
 10
29.163874402730741
 20
-0.25808223964557
 10
28.809337567834689
 20
-0.471334896208773
 10
28.433654515904351
 20
-0.6726694915254257
 10
28.118423451285722
 20
-0.8231263241525435
 10
27.789785342175549
 20
-0.9619968220338988
 10
27.44774018857386
 20
-1.089280985169492
 10
27.092287990480639
 20
-1.204978813559322
 10
26.723428747895891
 20
-1.309090307203389
 10
26.341162460819621
 20
-1.4016154661016951
 10
25.945489129251818
 20
-1.482554290254237
 10
25.536408753192489
 20
-1.5519067796610171
 10
25.483442651497601
 20
-2.971398305084747
 10
25.462256210819621
 20
-3.522245762711862
 10
25.44636638031113
 20
-4.0254237288135641
 10
25.435773159972172
 20
-4.4226694915254257
 10
25.43047654980268
 20
-4.6557203389830519
 10
25.411607376073849
 20
-5.0301244703389836
 10
25.376186295565379
 20
-5.4118114406779672
 10
25.324213308277251
 20
-5.8007812500000009
 10
25.255688414209459
 20
-6.1970338983050874
 10
25.17028057522641
 20
-6.5946106991525442
 10
25.0676587531925
 20
-6.9875529661016964
 10
24.947822948107749
 20
-7.3758606991525424
 10
24.81077315997214
 20
-7.7595338983050874
 10
24.657171465056891
 20
-8.1359242584745779
 10
24.487679939633171
 20
-8.5023834745762699
 10
24.302298583700971
 20
-8.8589115466101696
 10
24.101027397260282
 20
-9.2055084745762699
 10
23.88320430403995
 20
-9.5365466101694913
 10
23.64816722776877
 20
-9.8463983050847474
 10
23.395916168446728
 20
-10.135063559322029
 10
23.126451126073849
 20
-10.40254237288136
 10
22.98534612077723
 20
-10.52767478813559
 10
22.8401031387857
 20
-10.646186440677971
 10
22.690722180099261
 20
-10.75807733050847
 10
22.537203244717912
 20
-10.863347457627119
 10
22.379546332641642
 20
-10.9619968220339
 10
22.217751443870451
 20
-11.05402542372881
 10
22.051818578404351
 20
-11.13943326271187
 10
21.881747736243341
 20
-11.21822033898305
 10
21.707621676921299
 20
-11.2889797404661
 10
21.52952315997215
 20
-11.350304555084749
 10
21.34745218539587
 20
-11.402194782838979
 10
21.161408753192489
 20
-11.44465042372881
 10
20.971392863361981
 20
-11.477671477754241
 10
20.777404515904351
 20
-11.50125794491526
 10
20.579443710819611
 20
-11.51540982521187
 10
20.37751044810776
 20
-11.520127118644069
 10
20.16324601484504
 20
-11.513092558262709
 10
19.954774748955209
 20
-11.491988877118651
 10
19.752096650438251
 20
-11.45681607521187
 10
19.555211719294181
 20
-11.40757415254237
 10
19.364119955522991
 20
-11.34426310911017
 10
19.17882135912469
 20
-11.266882944915251
 10
18.999315930099261
 20
-11.17543365995763
 10
18.825603668446721
 20
-11.069915254237291
 10
18.657436295565368
 20
-10.95247947563559
 10
18.49456553285351
 20
-10.8252780720339
 10
18.33699138031114
 20
-10.688311043432201
 10
18.184713837938251
 20
-10.54157838983051
 10
18.03773290573486
 20
-10.38508011122881
 10
17.89604858370096
 20
-10.218816207627119
 10
17.759660871836559
 20
-10.04278667902542
 10
17.628569770141642
 20
-9.8569915254237301
 10
17.50260975954842
 20
-9.6626721398305087
 10
17.381615320989091
 20
-9.4610699152542388
 10
17.265586454463669
 20
-9.252184851694917
 10
17.15452315997215
 20
-9.0360169491525433
 10
17.048425437514521
 20
-8.8125662076271194
 10
16.947293287090801
 20
-8.5818326271186471
 10
16.75992570234504
 20
-8.0985169491525468
 10
16.590765215056901
 20
-7.5950079449152579
 10
16.43815663454842
 20
-7.0802436440677994
 10
16.302099960819611
 20
-6.5542240466101713
 10
16.182595193870469
 20
-6.0169491525423737
 10
16.078980257429791
 20
-5.4730534957627119
 10
15.990593075226389
 20
-4.9271716101694922
 10
15.917433647260291
 20
-4.3793034957627128
 10
15.859501973531479
 20
-3.8294491525423742
 10
15.78787220574617
 20
-2.8140657776208831
 10
15.676514975621069
 20
-2.9872881355932179
 10
15.59739686121431
 20
-3.071040783898304
 10
15.503050992570239
 20
-3.14751059322034
 10
15.39347736968889
 20
-3.2166975635593231
 10
15.26867599257025
 20
-3.278601694915253
 10
15.125005441722781
 20
-3.3295815677966099
 10
14.95882429765499
 20
-3.3659957627118651
 10
14.770132560366861
 20
-3.3878442796610182
 10
14.55893022985839
 20
-3.3951271186440688
 10
10.162743789180411
 20
-3.3951271186440688
 10
10.00185925528212
 20
-3.3875132415254252
 10
9.8581887044346601
 20
-3.3646716101694931
 10
9.7317321366380458
 20
-3.326602224576273
 10
9.6224895518922722
 20
-3.2733050847457652
 10
9.5274816069770232
 20
-3.20908368644068
 10
9.4437289586719437
 20
-3.138241525423731
 10
9.3712316069770267
 20
-3.0607786016949179
 10
9.3099895518922722
 20
-2.9766949152542419
 10
9.2480755312622875
 20
-2.853764178641093
 10
9.0157737404225884
 20
-4.1525423728813564
 10
8.9694284014395329
 20
-4.4739804025423728
 10
8.9363245878802076
 20
-4.7868114406779672
 10
8.9164622997446124
 20
-5.0910354872881376
 10
8.9098415370327473
 20
-5.3866525423728859
 10
8.9154691853378321
 20
-5.6220206567796618
 10
8.9323521302530864
 20
-5.8302436440677967
 10
8.9604903717785103
 20
-6.0113215042372889
 10
8.9998839099141037
 20
-6.1652542372881376
 10
9.0256221249564774
 20
-6.2310480667372898
 10
9.0578155836429204
 20
-6.2880693855932206
 10
9.096464285973429
 20
-6.3363181938559343
 10
9.1415682319480069
 20
-6.3757944915254257
 10
9.1931274215666505
 20
-6.4064982786016973
 10
9.2511418548293598
 20
-6.4284295550847492
 10
9.3156115317361365
 20
-6.4415883209745797
 10
9.3865364522869754
 20
-6.4459745762711904
 10
9.4990894183886763
 20
-6.4390227754237328
 10
9.614290689575121
 20
-6.4181673728813591
 10
9.7321402658463096
 20
-6.383408368644071
 10
9.8526381472022422
 20
-6.3347457627118686
 10
10.09760636754122
 20
-6.2063029661016973
 10
10.34522289296496
 20
-6.043432203389834
 10
10.594163570931061
 20
-5.8514300847457639
 10
10.843104248897159
 20
-5.6355932203389827
 10
11.085424164151391
 20
-5.4038665254237301
 10
11.3145025539819
 20
-5.1641949152542352
 10
11.574698528558169
 20
-4.8689088983050857
 10
11.83621865567682
 20
-4.5550847457627137
 10
12.099062935337839
 20
-4.2227224576271203
 10
12.36323136754123
 20
-3.871822033898304
 10
12.871705943812399
 20
-6.2235169491525468
 10
12.58701314720224
 20
-6.5916313559322042
 10
12.22022289296496
 20
-7.0180084745762699
 10
12.010013676863259
 20
-7.24311440677966
 10
11.78722501160903
 20
-7.4629237288135588
 10
11.551856897202249
 20
-7.677436440677968
 10
11.303909333642929
 20
-7.8866525423728859
 10
11.04503751160903
 20
-8.0852754237288167
 10
10.776896621778519
 20
-8.2680084745762734
 10
10.4994866641514
 20
-8.4348516949152561
 10
10.21280763872767
 20
-8.5858050847457648
 10
10.067150859066651
 20
-8.652840307203391
 10
9.9214940794056297
 20
-8.7109375000000018
 10
9.7758372997446141
 20
-8.7600966631355952
 10
9.6301805200835986
 20
-8.8003177966101696
 10
9.4845237404225831
 20
-8.8316009004237301
 10
9.3388669607615675
 20
-8.8539459745762699
 10
9.1932101811005502
 20
-8.8673530190677958
 10
9.0475534014395294
 20
-8.8718220338983045
 10
8.8764066853378321
 20
-8.8647874735169481
 10
8.7125428082191867
 20
-8.8436837923728806
 10
8.555961770083595
 20
-8.8085109904661003
 10
8.4066635709310518
 20
-8.759269067796609
 10
8.2646482107615622
 20
-8.6959580243644066
 10
8.129915689575121
 20
-8.6185778601694931
 10
8.0024660073717317
 20
-8.5271285752118668
 10
7.8822991641513909
 20
-8.4216101694915295
 10
7.7677599692361348
 20
-8.3026847192796662
 10
7.6571932319479989
 20
-8.1710143008474621
 10
7.5505989522869834
 20
-8.0265989141949188
 10
7.4479771302530864
 20
-7.8694385593220373
 10
7.3493277658463088
 20
-7.6995332362288158
 10
7.2546508590666479
 20
-7.516882944915257
 10
7.1639464099141046
 20
-7.3214876853813582
 10
7.077214418388678
 20
-7.1133474576271212
 10
6.9428129353378321
 20
-7.2623146186440684
 10
6.7938457743208822
 20
-7.4126059322033893
 10
6.6303129353378303
 20
-7.5642213983050857
 10
6.452214418388678
 20
-7.7171610169491558
 10
6.2625295666937646
 20
-7.8671212923728833
 10
6.0642377234734246
 20
-8.0097987288135606
 10
5.8573388887276607
 20
-8.1451933262711869
 10
5.6418330624564703
 20
-8.2733050847457648
 10
5.4197064734734148
 20
-8.3921477754237301
 10
5.1929453505920549
 20
-8.499735169491526
 10
4.9615496938123904
 20
-8.5960672669491522
 10
4.7255195031344206
 20
-8.681144067796609
 10
4.4871720455073163
 20
-8.7506620762711869
 10
4.248824587880204
 20
-8.8003177966101696
 10
4.0104771302530864
 20
-8.8301112288135606
 10
3.7721296726259652
 20
-8.8400423728813564
 10
3.5195475751683318
 20
-8.8271318855932197
 10
3.2702758590666399
 20
-8.7884004237288131
 10
3.02431452432088
 20
-8.7238479872881349
 10
2.7816635709310451
 20
-8.6334745762711904
 10
2.547619609066643
 20
-8.5189353813559343
 10
2.327479248897149
 20
-8.3818855932203391
 10
2.121242490422568
 20
-8.2223252118644083
 10
1.928909333642906
 20
-8.0402542372881385
 10
1.819315268976843
 20
-7.9183523552173334
 10
1.716886164930745
 20
-7.7884139690133987
 10
1.6218883130676489
 20
-7.6502867677511359
 10
1.534588004950592
 20
-7.5038184405053494
 10
1.3429077134744689
 20
-7.6590737091751606
 10
1.1459015728061419
 20
-7.8070357134931276
 10
0.9438846583492233
 20
-7.9480912508518857
 10
0.7371720455073216
 20
-8.0826271186440692
 10
0.4739967277107096
 20
-8.2368908898305087
 10
0.1982419607615533
 20
-8.3765889830508478
 10
-0.0900922553401444
 20
-8.5017213983050883
 10
-0.391005920594381
 20
-8.612288135593225
 10
-0.547090401526583
 20
-8.6607024629237301
 10
-0.7081404544926837
 20
-8.7026615466101696
 10
-1.0451372765265821
 20
-8.7672139830508478
 10
-1.401996386696075
 20
-8.8059454449152543
 10
-1.7787177850011631
 20
-8.818855932203391
 10
-1.872153298772347
 20
-8.8149662341101713
 10
-1.961781873984211
 20
-8.8032971398305087
 10
-2.0476035106367538
 20
-8.7838486493644083
 10
-2.1296182087299762
 20
-8.7566207627118651
 10
-2.2078259682638768
 20
-8.7216134798728824
 10
-2.282226789238456
 20
-8.6788268008474585
 10
-2.352820671653713
 20
-8.6282607256355952
 10
-2.4196076155096482
 20
-8.5699152542372872
 10
-2.5430848400859092
 20
-8.4331965042372889
 10
-2.6539826155096371
 20
-8.271980932203391
 10
-2.752300941780824
 20
-8.0862685381355934
 10
-2.83803981889946
 20
-7.8760593220338961
 10
-2.9118613231367561
 20
-7.6436705508474567
 10
-2.974427530763879
 20
-7.391419491525423
 10
-3.025738441780828
 20
-7.1193061440677949
 10
-3.0657940561875989
 20
-6.8273305084745743
 10
-3.0959185265265892
 20
-6.5188029661016929
 10
-3.1174360053401529
 20
-6.1970338983050839
 10
-3.1303464926282909
 20
-5.8620233050847457
 10
-3.1346499883910042
 20
-5.5137711864406782
 10
-3.1227326155096442
 20
-4.8265360169491531
 10
-3.086980496865579
 20
-4.099576271186443
 10
-3.0300419375435328
 20
-3.3487817796610182
 10
-2.9545652426282909
 20
-2.590042372881356
 10
-3.113463547713025
 20
-2.590042372881356
 10
-5.2638872765265887
 20
-8.0667372881355917
 10
-5.4055715985604813
 20
-8.2709878177966125
 10
-5.4793931027977703
 20
-8.3594577595338997
 10
-5.5552008358486198
 20
-8.4388241525423755
 10
-5.6329947977130281
 20
-8.5090869968220382
 10
-5.7127749883909953
 20
-8.5702462923728859
 10
-5.7945414078825186
 20
-8.6223020391949188
 10
-5.8782940561875989
 20
-8.6652542372881385
 10
-6.0544063443231968
 20
-8.7324549788135624
 10
-6.2437601578825186
 20
-8.7804555084745779
 10
-6.4463554968655723
 20
-8.8092558262711886
 10
-6.6621923612723606
 20
-8.818855932203391
 10
-6.8230768951706562
 20
-8.8072695974576298
 10
-6.9667474460181076
 20
-8.7725105932203409
 10
-7.093204013814713
 20
-8.7145789194915295
 10
-7.2024465985604706
 20
-8.6334745762711904
 10
-7.2974545434757339
 20
-8.5341631355932215
 10
-7.3812071917808204
 20
-8.421610169491526
 10
-7.4537045434757321
 20
-8.2958156779661039
 10
-7.5149465985604706
 20
-8.1567796610169481
 10
-7.5659264714418359
 20
-8.0074814618644066
 10
-7.6076372765265852
 20
-7.8509004237288149
 10
-7.6400790138147201
 20
-7.6870365466101722
 10
-7.6632516833062434
 20
-7.5158898305084776
 10
-7.6910588866960694
 20
-7.1716101694915277
 10
-7.7003279544926784
 20
-6.8379237288135641
 10
-7.6791415138147272
 20
-6.4459745762711904
 10
-7.6155821917808169
 20
-5.8633474576271212
 10
-7.5202432087299664
 20
-5.1694915254237301
 10
-7.4143110053401529
 20
-4.443855932203391
 10
-7.284544056187606
 20
-3.564618644067798
 10
-7.1282940561875989
 20
-2.621822033898304
 10
-7.2871923612723606
 20
-2.621822033898304
 10
-7.4235800731367618
 20
-2.8204449152542401
 10
-7.578505920594381
 20
-3.0985169491525402
 10
-8.0393110053401529
 20
-4.0307203389830519
 10
-8.79672625957744
 20
-5.625
 10
-9.325063123984215
 20
-6.7280190677966107
 10
-9.9884635477130246
 20
-8.0773305084745743
 10
-10.09869924686557
 20
-8.2769465042372872
 10
-10.21754193754354
 20
-8.4414724576271212
 10
-10.280190904704559
 20
-8.5105766684322059
 10
-10.34499161974693
 20
-8.5709083686440692
 10
-10.411944082670651
 20
-8.6224675582627146
 10
-10.481048293475739
 20
-8.6652542372881385
 10
-10.625049882458789
 20
-8.7324549788135624
 10
-10.77633431042489
 20
-8.7804555084745779
 10
-10.934901577374051
 20
-8.8092558262711886
 10
-11.100751683306241
 20
-8.818855932203391
 10
-11.307319479916419
 20
-8.8072695974576298
 10
-11.49270083584863
 20
-8.7725105932203409
 10
-11.65689575110286
 20
-8.7145789194915295
 10
-11.73104829347575
 20
-8.6769233315677994
 10
-11.799904225679141
 20
-8.6334745762711904
 10
-11.924705602797779
 20
-8.5328389830508495
 10
-12.034279225679141
 20
-8.4163135593220346
 10
-12.12862509432321
 20
-8.2838983050847457
 10
-12.20774320872999
 20
-8.1355932203389827
 10
-12.27344340791946
 20
-7.9735855592560831
 10
-12.327106133474841
 20
-7.8009117492074864
 10
-12.424904225679141
 20
-7.8866525423728859
 10
-12.683776047713041
 20
-8.0852754237288167
 10
-12.95191693754354
 20
-8.2680084745762734
 10
-13.22932689517066
 20
-8.4348516949152561
 10
-13.516005920594379
 20
-8.5858050847457648
 10
-13.6616627002554
 20
-8.652840307203391
 10
-13.807319479916419
 20
-8.7109375000000018
 10
-13.95297625957744
 20
-8.7600966631355952
 10
-14.098633039238459
 20
-8.8003177966101696
 10
-14.24428981889948
 20
-8.8316009004237301
 10
-14.389946598560501
 20
-8.8539459745762699
 10
-14.535603378221509
 20
-8.8673530190677958
 10
-14.681260157882519
 20
-8.8718220338983045
 10
-14.85240687398422
 20
-8.8647874735169481
 10
-15.01627075110286
 20
-8.8436837923728806
 10
-15.17285178923845
 20
-8.8085109904661003
 10
-15.322149988391001
 20
-8.759269067796609
 10
-15.46416534856049
 20
-8.6959580243644066
 10
-15.59889786974693
 20
-8.6185778601694931
 10
-15.726347551950321
 20
-8.5271285752118668
 10
-15.84651439517066
 20
-8.4216101694915295
 10
-15.961053590085911
 20
-8.3026847192796662
 10
-16.071620327374049
 20
-8.1710143008474621
 10
-16.17821460703507
 20
-8.0265989141949188
 10
-16.280836429068959
 20
-7.8694385593220373
 10
-16.379485793475741
 20
-7.6995332362288158
 10
-16.474162700255398
 20
-7.516882944915257
 10
-16.564867149407949
 20
-7.3214876853813582
 10
-16.651599140933371
 20
-7.1133474576271212
 10
-16.786000623984219
 20
-7.2623146186440684
 10
-16.93496778500117
 20
-7.4126059322033893
 10
-17.098500623984219
 20
-7.5642213983050857
 10
-17.276599140933371
 20
-7.7171610169491558
 10
-17.466283992628281
 20
-7.8671212923728833
 10
-17.66457583584862
 20
-8.0097987288135606
 10
-17.871474670594392
 20
-8.1451933262711869
 10
-18.086980496865579
 20
-8.2733050847457648
 10
-18.30910708584863
 20
-8.3921477754237301
 10
-18.53586820872999
 20
-8.499735169491526
 10
-18.767263865509641
 20
-8.5960672669491522
 10
-19.003294056187599
 20
-8.681144067796609
 10
-19.24164151381472
 20
-8.7506620762711869
 10
-19.479988971441841
 20
-8.8003177966101696
 10
-19.718336429068959
 20
-8.8301112288135606
 10
-19.95668388669608
 20
-8.8400423728813564
 10
-20.209265984153721
 20
-8.8271318855932197
 10
-20.45853770025542
 20
-8.7884004237288131
 10
-20.704499035001181
 20
-8.7238479872881349
 10
-20.947149988391001
 20
-8.6334745762711904
 10
-21.18119395025542
 20
-8.5189353813559343
 10
-21.401334310424911
 20
-8.3818855932203391
 10
-21.607571068899489
 20
-8.2223252118644083
 10
-21.799904225679139
 20
-8.0402542372881385
 10
-21.934642288392961
 20
-7.8881762816125596
 10
-22.05878040294035
 20
-7.7239985264770539
 10
-22.172296032059329
 20
-7.5477096420267316
 10
-22.27516663848786
 20
-7.3592982984067064
 10
-22.474419061894679
 20
-7.554634170915608
 10
-22.6753357245525
 20
-7.7349257071836943
 10
-22.877797156230059
 20
-7.9002908288683908
 10
-23.08168388669608
 20
-8.0508474576271212
 10
-23.3739905604249
 20
-8.2405323093220382
 10
-23.66828346296727
 20
-8.4017478813559343
 10
-23.964562594323201
 20
-8.5344941737288149
 10
-24.26282795449271
 20
-8.6387711864406782
 10
-24.561755390933381
 20
-8.7175582627118651
 10
-24.860020751102869
 20
-8.7738347457627128
 10
-25.15762403500117
 20
-8.8076006355932215
 10
-25.454565242628291
 20
-8.818855932203391
 10
-25.738927001102869
 20
-8.8062764830508478
 10
-26.019978378221509
 20
-8.7685381355932215
 10
-26.297719373984219
 20
-8.7056408898305087
 10
-26.572149988391001
 20
-8.6175847457627128
 10
-26.83731153500117
 20
-8.5047007415254257
 10
-27.087245327374049
 20
-8.3673199152542388
 10
-27.321951365509641
 20
-8.2054422669491558
 10
-27.541429649407949
 20
-8.0190677966101731
 10
-27.644713547713032
 20
-7.9167770127118668
 10
-27.74270083584863
 20
-7.8085275423728824
 10
-27.835391513814731
 20
-7.6943193855932206
 10
-27.92278558161134
 20
-7.5741525423728824
 10
-28.004883039238461
 20
-7.448027012711866
 10
-28.081683886696091
 20
-7.3159427966101713
 10
-28.219395751102869
 20
-7.0338983050847466
 10
-28.278982615509641
 20
-6.8841863082627128
 10
-28.33062456466218
 20
-6.7290121822033901
 10
-28.374321598560481
 20
-6.5683759269067794
 10
-28.410073717204551
 20
-6.4022775423728806
 10
-28.437880920594381
 20
-6.2307170286016964
 10
-28.45774320872998
 20
-6.0536943855932206
 10
-28.469660581611329
 20
-5.8712096133474594
 10
-28.47363303923845
 20
-5.6832627118644083
 10
-28.46833642906898
 20
-5.5031779661016964
 10
-28.452446598560499
 20
-5.3125
 10
-28.425301471441848
 20
-4.9519994703389827
 10
-28.386238971441848
 20
-4.5802436440677967
 10
-28.335259098560499
 20
-4.1972325211864421
 10
-28.27236185279779
 20
-3.802966101694921
 10
-28.125380920594399
 20
-2.9912605932203391
 10
-27.95986185279779
 20
-2.1557203389830519
 10
-27.594395751102869
 20
-0.4290254237288167
 10
-27.41166270025542
 20
0.4488877118644057
 10
-27.24481947991643
 20
1.324152542372879
 10
-27.099162700255409
 20
2.19279661016949
 10
-26.979988971441859
 20
3.0508474576271181
 10
-26.9336436324588
 20
3.472921080508474
 10
-26.900539818899471
 20
3.8863877118644061
 10
-26.880677530763879
 20
4.2912473516949143
 10
-26.874056768052011
 20
4.6875
 10
-26.88200168330626
 20
5.1416843220338961
 10
-26.90583642906898
 20
5.5508474576271176
 10
-26.925698717204568
 20
5.7368908898305069
 10
-26.953505920594399
 20
5.9083686440677941
 10
-26.989258039238461
 20
6.0652807203389809
 10
-27.03295507313678
 20
6.2076271186440657
 10
-27.085921174831679
 20
6.3350768008474558
 10
-27.149480496865579
 20
6.4472987288135588
 10
-27.223633039238461
 20
6.5442929025423719
 10
-27.308378801950312
 20
6.6260593220338961
 10
-27.40570401381472
 20
6.6909427966101687
 10
-27.517594903645239
 20
6.7372881355932197
 10
-27.644051471441848
 20
6.765095338983051
 10
-27.785073717204568
 20
6.7743644067796609
 10
-27.924440772289309
 20
6.768240201271186
 10
-28.061821598560499
 20
6.7498675847457621
 10
-28.197216196018129
 20
6.7192465572033893
 10
-28.330624564662191
 20
6.6763771186440666
 10
-28.4620467044927
 20
6.6212592690677958
 10
-28.591482615509651
 20
6.5538930084745752
 10
-28.718932297713039
 20
6.4742783368644057
 10
-28.844395751102869
 20
6.3824152542372872
 10
-28.968038494746938
 20
6.2797934322033893
 10
-29.090026047713049
 20
6.1679025423728797
 10
-29.210358410001181
 20
6.0467425847457612
 10
-29.32903558161135
 20
5.916313559322032
 10
-29.56142435279779
 20
5.6276483050847448
 10
-29.787192361272361
 20
5.3019067796610173
 10
-30.006008568899489
 20
4.9417372881355917
 10
-30.217541937543562
 20
4.5497881355932179
 10
-30.421792467204579
 20
4.1260593220338961
 10
-30.618760157882551
 20
3.6705508474576258
 10
-30.80943812398424
 20
3.1895524364406782
 10
-30.99481947991644
 20
2.6893538135593218
 10
-31.17490422567915
 20
2.1699549788135588
 10
-31.349692361272361
 20
1.631355932203391
 10
-31.518852848560499
 20
1.076536016949152
 10
-31.682054649407959
 20
0.5084745762711851
 10
-31.839297763814741
 20
-0.0728283898305091
 10
-31.990582191780849
 20
-0.6673728813559308
 10
-32.276599140933392
 20
-1.8736758474576289
 10
-32.541429649407966
 20
-3.0879237288135641
 10
-32.787722022289323
 20
-4.2981991525423764
 10
-33.018124564662202
 20
-5.4925847457627128
 10
-33.431260157882548
 20
-7.7383474576271212
 10
-33.479260687543558
 20
-7.8810248940677967
 10
-33.538516513814741
 20
-8.0124470338983045
 10
-33.609027636696091
 20
-8.1326138771186454
 10
-33.690794056187627
 20
-8.2415254237288167
 10
-33.781498505340167
 20
-8.33984375
 10
-33.878823717204583
 20
-8.4282309322033893
 10
-33.982769691780852
 20
-8.5066869703389827
 10
-34.093336429068977
 20
-8.5752118644067821
 10
-34.208868738391018
 20
-8.6344676906779654
 10
-34.327711429068977
 20
-8.6851165254237284
 10
-34.44986450110288
 20
-8.7271583686440657
 10
-34.575327954492707
 20
-8.7605932203389827
 10
-34.829565242628291
 20
-8.8042902542372889
 10
-35.083802530763897
 20
-8.818855932203391
 10
-35.194700306187627
 20
-8.8135593220338997
 10
-35.304936005340167
 20
-8.7976694915254257
 10
-35.414509628221523
 20
-8.7711864406779689
 10
-35.523421174831697
 20
-8.7341101694915295
 10
-35.62869130195034
 20
-8.6854475635593236
 10
-35.727340666357122
 20
-8.6242055084745779
 10
-35.819369268052029
 20
-8.5503840042372889
 10
-35.904777107035073
 20
-8.4639830508474603
 10
-35.982902107035073
 20
-8.3650026483050866
 10
-36.053082191780831
 20
-8.2534427966101731
 10
-36.115317361272361
 20
-8.1293034957627128
 10
-36.169607615509648
 20
-7.9925847457627128
 10
-36.213635687543537
 20
-7.8416313559322042
 10
-36.2450843104249
 20
-7.6747881355932206
 10
-36.263953484153717
 20
-7.4920550847457648
 10
-36.270243208729987
 20
-7.293432203389834
 10
-36.262298293475752
 20
-7.1308924788135597
 10
-36.238463547713053
 20
-6.9186970338983054
 10
-36.198738971441863
 20
-6.6568458686440692
 10
-36.143124564662202
 20
-6.3453389830508513
 10
-35.998791937543558
 20
-5.6064618644067812
 10
-35.820031344323212
 20
-4.7351694915254257
 10
-35.396302530763897
 20
-2.6800847457627128
 10
-35.176493208729987
 20
-1.551906779661018
 10
-34.972573717204568
 20
-0.4025423728813564
 10
-34.878889924831682
 20
0.1757812499999978
 10
-34.793813123984222
 20
0.7507944915254226
 10
-34.717343314662187
 20
1.322497351694915
 10
-34.649480496865579
 20
1.890889830508474
 10
-34.593866090085918
 20
2.4463718220338961
 10
-34.554141513814727
 20
2.9793432203389809
 10
-34.530306768052029
 20
3.489804025423727
 10
-34.522361852797793
 20
3.9777542372881309
 10
-34.530306768052029
 20
4.6001059322033866
 10
-34.554141513814727
 20
5.1536016949152534
 10
-34.5753279544927
 20
5.4032044491525406
 10
-34.607107615509648
 20
5.6329449152542352
 10
-34.649480496865593
 20
5.8428230932203364
 10
-34.702446598560499
 20
6.0328389830508442
 10
-34.766999035001177
 20
6.2023305084745743
 10
-34.844130920594409
 20
6.3506355932203373
 10
-34.933842255340167
 20
6.4777542372881349
 10
-35.036133039238479
 20
6.5836864406779654
 10
-35.15365157737407
 20
6.6671080508474567
 10
-35.289046174831697
 20
6.726694915254237
 10
-35.442316831611357
 20
6.7624470338983036
 10
-35.613463547713053
 20
6.7743644067796609
 10
-35.688940242628313
 20
6.7680746822033893
 10
-35.767065242628313
 20
6.7492055084745761
 10
-35.847838547713053
 20
6.7177568855932188
 10
-35.931260157882541
 20
6.67372881355932
 10
-36.017330073136783
 20
6.6171212923728788
 10
-36.106048293475773
 20
6.5479343220338961
 10
-36.291429649407966
 20
6.3718220338983036
 10
-36.485749035001191
 20
6.1513506355932197
 10
-36.687351259577447
 20
5.8924788135593218
 10
-36.896236323136769
 20
5.5952065677966107
 10
-37.112404225679143
 20
5.2595338983050874
 10
-37.333868738391018
 20
4.8891022245762699
 10
-37.558643632458811
 20
4.487552966101692
 10
-37.786728907882541
 20
4.0548861228813529
 10
-38.018124564662202
 20
3.591101694915253
 10
-38.250844373984243
 20
3.102158368644067
 10
-38.482902107035088
 20
2.594014830508474
 10
-38.714297763814741
 20
2.066671080508474
 10
-38.945031344323212
 20
1.520127118644069
 10
-39.173447657882548
 20
0.957693326271186
 10
-39.397891513814763
 20
0.3826800847457612
 10
-39.618362912119842
 20
-0.2049126059322051
 10
-39.834861852797793
 20
-0.8050847457627128
 10
-40.045071068899489
 20
-1.4115466101694909
 10
-40.246673293475773
 20
-2.0180084745762712
 10
-40.439668526526617
 20
-2.624470338983051
 10
-40.624056768052043
 20
-3.230932203389834
 10
-40.798844903645261
 20
-3.83408368644068
 10
-40.963039818899503
 20
-4.4306144067796618
 10
-41.116641513814763
 20
-5.0205243644067794
 10
-41.259649988391033
 20
-5.6038135593220346
 10
-41.388754861272368
 20
-6.1748543432203409
 10
-41.50064575110288
 20
-6.7280190677966134
 10
-41.595322657882541
 20
-7.2633077330508504
 10
-41.67278558161135
 20
-7.7807203389830519
 10
-41.701254861272368
 20
-7.9323358050847466
 10
-41.744289818899489
 20
-8.0693855932203391
 10
-41.801890454492721
 20
-8.1918697033898304
 10
-41.874056768052043
 20
-8.2997881355932179
 10
-41.957478378221531
 20
-8.3951271186440675
 10
-42.048844903645261
 20
-8.4798728813559325
 10
-42.148156344323233
 20
-8.5540254237288149
 10
-42.25541270025542
 20
-8.6175847457627128
 10
-42.368627742628313
 20
-8.6715439618644083
 10
-42.485815242628313
 20
-8.7168961864406782
 10
-42.60697520025542
 20
-8.753641419491526
 10
-42.732107615509683
 20
-8.7817796610169481
 10
-42.981048293475773
 20
-8.8175317796610173
 10
-43.219395751102887
 20
-8.8294491525423737
 10
-43.49084702228933
 20
-8.8148834745762716
 10
-43.623593314662209
 20
-8.7966763771186436
 10
-43.754353378221538
 20
-8.7711864406779654
 10
-43.880478907882541
 20
-8.7380826271186418
 10
-43.999321598560513
 20
-8.697033898305083
 10
-44.11088145025542
 20
-8.6480402542372854
 10
-44.215158462967281
 20
-8.5911016949152526
 10
-44.310497446018132
 20
-8.5268802966101696
 10
-44.395243208730001
 20
-8.4560381355932215
 10
-44.46939575110288
 20
-8.3785752118644083
 10
-44.532955073136783
 20
-8.2944915254237301
 10
-44.583934946018132
 20
-8.2041181144067803
 10
-44.620349140933399
 20
-8.1077860169491522
 10
-44.642197657882548
 20
-8.0054952330508495
 10
-44.649480496865607
 20
-7.8972457627118686
 10
-44.638887276526617
 20
-7.4801377118644066
 10
-44.607107615509683
 20
-7.0974576271186436
 10
-44.554141513814763
 20
-6.7306673728813573
 10
-44.479988971441863
 20
-6.3612288135593218
 10
-44.201916937543572
 20
-5.1655190677966107
 10
-43.960921174831697
 20
-4.0572033898305122
 10
-43.754353378221523
 20
-3.0203919491525419
 10
-43.57956524262832
 20
-2.0391949152542419
 10
-43.431260157882548
 20
-1.100370762711864
 10
-43.304141513814763
 20
-0.1906779661016955
 10
-43.1942368527978
 20
0.7070974576271181
 10
-43.097573717204568
 20
1.6101694915254221
 10
-43.011503801950333
 20
2.5304555084745739
 10
-42.93337880195034
 20
3.4798728813559312
 10
-42.774480496865607
 20
5.5455508474576263
 10
-42.774480496865607
 20
5.7891949152542352
 10
-42.782425412119842
 20
5.9335275423728806
 10
-42.806260157882548
 20
6.0699152542372872
 10
-42.849957191780852
 20
6.1930614406779636
 10
-42.880743738391018
 20
6.2476827330508451
 10
-42.917488971441863
 20
6.2976694915254221
 10
-42.962179119746942
 20
6.3393802966101704
 10
-43.016800412119821
 20
6.3691737288135588
 10
-43.081352848560499
 20
6.3870497881355934
 10
-43.155836429068977
 20
6.3930084745762699
 10
-43.289906873984243
 20
6.3820842161016937
 10
-43.437880920594409
 20
6.3493114406779654
 10
-43.599758568899489
 20
6.294690148305083
 10
-43.775539818899489
 20
6.2182203389830484
 10
-43.960590136696112
 20
6.1232123940677941
 10
-44.150274988391018
 20
6.0129766949152543
 10
-44.344594373984243
 20
5.8875132415254239
 10
-44.543548293475773
 20
5.7468220338983036
 10
-44.744819479916437
 20
5.592227224576269
 10
-44.946090666357122
 20
5.425052966101692
 10
-45.1473618527978
 20
5.2452992584745726
 10
-45.348633039238479
 20
5.0529661016949126
 10
-45.545931768052043
 20
4.8507018008474576
 10
-45.735285581611357
 20
4.6411546610169498
 10
-45.916694479916437
 20
4.424324682203391
 10
-46.090158462967281
 20
4.2002118644067794
 10
-46.126572657882541
 20
4.1263903601694896
 10
-46.172255920594409
 20
4.0638241525423702
 10
-46.227208251102887
 20
4.0125132415254212
 10
-46.291429649407966
 20
3.972457627118644
 10
-46.362271810424907
 20
3.94233315677966
 10
-46.437086429068977
 20
3.9208156779661012
 10
-46.515873505340167
 20
3.9079051906779649
 10
-46.598633039238479
 20
3.903601694915253
 10
-46.625447128221531
 20
3.9092293432203369
 10
-46.652923293475773
 20
3.9261122881355921
 10
-46.709861852797808
 20
3.993644067796609
 10
-46.765476259577468
 20
4.0929555084745743
 10
-46.815794056187627
 20
4.2108050847457612
 10
-46.859491090085939
 20
4.3418961864406764
 10
-46.895243208729987
 20
4.4809322033898269
 10
-46.919077954492721
 20
4.617319915254237
 10
-46.927022869746963
 20
4.7404661016949126
 10
-46.916429649407966
 20
4.7987288135593191
 10
-46.884649988391033
 20
4.8463983050847439
 10
-46.687682297713053
 20
5.4459083686440666
 10
-46.478135157882541
 20
5.9944385593220328
 10
-46.368644294535081
 20
6.2495862023305069
 10
-46.256008568899489
 20
6.4919888771186418
 10
-46.140227980975773
 20
6.7216465836864376
 10
-46.021302530763897
 20
6.9385593220338961
 10
-45.776996386696098
 20
7.3384533898305051
 10
-45.526069479916437
 20
7.6959745762711833
 10
-45.398123240509662
 20
7.8588453389830466
 10
-45.268521810424929
 20
8.011122881355929
 10
-45.137265189662223
 20
8.1528072033898287
 10
-45.004353378221538
 20
8.2838983050847439
 10
-44.735550412119842
 20
8.5172801906779654
 10
-44.600155814662209
 20
8.6203158103813546
 10
-44.464099140933392
 20
8.7142478813559308
 10
-44.327380390933392
 20
8.7990764036016937
 10
-44.189999564662209
 20
8.8748013771186436
 10
-44.051956662119842
 20
8.9414228019067785
 10
-43.913251683306271
 20
8.9989406779661003
 10
-43.638158992628313
 20
9.0916313559322006
 10
-43.369024988391011
 20
9.157838983050846
 10
-43.105849670594409
 20
9.1975635593220311
 10
-42.848633039238479
 20
9.2108050847457612
 10
-42.687914024407966
 20
9.2069153866525415
 10
-42.534146810424922
 20
9.1952462923728788
 10
-42.387331397289323
 20
9.1757978019067785
 10
-42.247467785001191
 20
9.1485699152542352
 10
-42.114555973560513
 20
9.1135626324152526
 10
-41.988595962967288
 20
9.0707759533898304
 10
-41.869587753221523
 20
9.0202098781779654
 10
-41.757531344323212
 20
8.9618644067796609
 10
-41.651764660001177
 20
8.8964843749999982
 10
-41.551625623984229
 20
8.8248146186440657
 10
-41.457114236272368
 20
8.7468551377118615
 10
-41.368230496865593
 20
8.6626059322033875
 10
-41.284974405763897
 20
8.5720670021186418
 10
-41.207345962967288
 20
8.4752383474576245
 10
-41.135345168475773
 20
8.3721199682203373
 10
-41.06897202228933
 20
8.2627118644067785
 10
-40.951453484153738
 20
8.0260195974576263
 10
-40.853135157882548
 20
7.7661546610169481
 10
-40.774017043475773
 20
7.4831170550847457
 10
-40.714099140933399
 20
7.1769067796610173
 10
-40.670071068899503
 20
6.8505031779661012
 10
-40.638622446018147
 20
6.5068855932203382
 10
-40.619753272289323
 20
6.1460540254237266
 10
-40.613463547713053
 20
5.7680084745762699
 10
-40.619422234153731
 20
5.4588188559322033
 10
-40.637298293475773
 20
5.1244703389830502
 10
-40.667091725679157
 20
4.7649629237288122
 10
-40.708802530763897
 20
4.3802966101694878
 10
-40.816058886696098
 20
3.56594279661017
 10
-40.947149988391033
 20
2.7118644067796609
 10
-41.096779225679157
 20
1.8365995762711851
 10
-41.259649988391033
 20
0.9586864406779654
 10
-41.588039818899489
 20
-0.6832627118644084
 10
-41.410934416357122
 20
0.0142346398305067
 10
-41.218601259577461
 20
0.6978283898305073
 10
-41.011040348560513
 20
1.367518538135593
 10
-40.788251683306271
 20
2.0233050847457612
 10
-40.552552530763897
 20
2.6615466101694909
 10
-40.306260157882548
 20
3.2786016949152539
 10
-40.049374564662209
 20
3.874470338983051
 10
-39.781895751102887
 20
4.4491525423728788
 10
-39.504816831611357
 20
4.9999999999999982
 10
-39.219130920594409
 20
5.5243644067796591
 10
-38.924838018052043
 20
6.0222457627118624
 10
-38.621938123984251
 20
6.493644067796609
 10
-38.312417467204568
 20
6.9355799788135597
 10
-37.998262276526603
 20
7.3450741525423737
 10
-37.679472551950333
 20
7.722126588983051
 10
-37.356048293475773
 20
8.0667372881355917
 10
-37.029313653645247
 20
8.3765889830508478
 10
-36.700592785001177
 20
8.6493644067796591
 10
-36.535487514874063
 20
8.7718485169491505
 10
-36.369885687543537
 20
8.8850635593220328
 10
-36.203787303009648
 20
8.9890095338983045
 10
-36.037192361272361
 20
9.0836864406779654
 10
-35.870514660001177
 20
9.168101165254237
 10
-35.704167996865579
 20
9.2412605932203391
 10
-35.538152371865593
 20
9.3031647245762716
 10
-35.372467785001177
 20
9.3538135593220328
 10
-35.207114236272368
 20
9.3932070974576245
 10
-35.04209172567915
 20
9.4213453389830484
 10
-34.877400253221523
 20
9.4382282838983027
 10
-34.713039818899489
 20
9.4438559322033875
 10
-34.474030285001177
 20
9.4306144067796573
 10
-34.244289818899489
 20
9.390889830508474
 10
-34.023818420594402
 20
9.3246822033898304
 10
-33.812616090085918
 20
9.2319915254237301
 10
-33.711152901526603
 20
9.1753840042372872
 10
-33.613331132458811
 20
9.1114936440677958
 10
-33.519150782882527
 20
9.0403204449152526
 10
-33.428611852797793
 20
8.9618644067796609
 10
-33.341714342204568
 20
8.8761255296610155
 10
-33.25845825110288
 20
8.7831038135593218
 10
-33.102870327374063
 20
8.5752118644067785
 10
-32.962841196018132
 20
8.3381885593220328
 10
-32.839363971441863
 20
8.072033898305083
 10
-32.732438653645247
 20
7.7767478813559308
 10
-32.642065242628291
 20
7.4523305084745743
 10
-32.570229967204568
 20
7.0974576271186418
 10
-32.51891905618762
 20
6.7108050847457612
 10
-32.488132509577447
 20
6.2923728813559308
 10
-32.477870327374063
 20
5.8421610169491522
 10
-32.493760157882548
 20
5.5773305084745743
 10
-32.536133039238479
 20
5.1641949152542352
 10
-32.599692361272361
 20
4.6610169491525397
 10
-32.668548293475773
 20
4.1260593220338961
 10
-32.848633039238479
 20
2.7489406779660999
 10
-32.626175412119842
 20
2.759533898305087
 10
-32.519912170594409
 20
3.146517478813561
 10
-32.407690242628313
 20
3.5235699152542379
 10
-32.289509628221523
 20
3.890691207627119
 10
-32.165370327374063
 20
4.2478813559322033
 10
-32.035272340085918
 20
4.5951403601694913
 10
-31.899215666357101
 20
4.9324682203389818
 10
-31.75720030618761
 20
5.2598649364406764
 10
-31.60922625957744
 20
5.5773305084745743
 10
-31.455955602797779
 20
5.8839545815677958
 10
-31.29805041211981
 20
6.1788268008474567
 10
-31.13551068754354
 20
6.4619471663135588
 10
-30.96833642906897
 20
6.7333156779661012
 10
-30.796527636696091
 20
6.9929323358050848
 10
-30.620084310424911
 20
7.2407971398305078
 10
-30.43900645025542
 20
7.4769100900423728
 10
-30.253294056187631
 20
7.7012711864406782
 10
-30.063443685424911
 20
7.9133838718220337
 10
-29.869951895170669
 20
8.1127515889830519
 10
-29.672818685424911
 20
8.2993743379237301
 10
-29.47204405618762
 20
8.4732521186440675
 10
-29.267628007458811
 20
8.6343849311440692
 10
-29.059570539238472
 20
8.7827727754237301
 10
-28.84787165152661
 20
8.9184156514830519
 10
-28.632531344323208
 20
9.0413135593220346
 10
-28.41437721296727
 20
9.1505561440677958
 10
-28.194236852797779
 20
9.2452330508474567
 10
-27.972110263814731
 20
9.3253442796610173
 10
-27.747997446018118
 20
9.390889830508474
 10
-27.521898399407959
 20
9.4418697033898304
 10
-27.293813123984229
 20
9.478283898305083
 10
-27.063741619746938
 20
9.500132415254237
 10
-26.83168388669608
 20
9.5074152542372872
 10
-26.672371783941841
 20
9.501456567796609
 10
-26.517528696018111
 20
9.4835805084745743
 10
-26.3671546229249
 20
9.4537870762711833
 10
-26.221249564662191
 20
9.4120762711864394
 10
-26.07981352122999
 20
9.3584480932203373
 10
-25.942846492628291
 20
9.2929025423728788
 10
-25.810348478857112
 20
9.2154396186440657
 10
-25.68231947991643
 20
9.1260593220338961
 10
-25.559090533941848
 20
9.0264996027542352
 10
-25.44099267906897
 20
8.9184984110169481
 10
-25.328025915297779
 20
8.8020557468220328
 10
-25.220190242628291
 20
8.6771716101694896
 10
-25.117485661060488
 20
8.54384600105932
 10
-25.019912170594392
 20
8.4020789194915224
 10
-24.92746977122999
 20
8.2518703654660985
 10
-24.840158462967281
 20
8.0932203389830484
 10
-24.68059808161134
 20
7.7535752118644048
 10
-24.540899988391011
 20
7.3861228813559299
 10
-24.42106418330626
 20
6.9908633474576236
 10
-24.32109066635709
 20
6.5677966101694878
 10
-24.242303590085911
 20
6.1245365466101669
 10
-24.18602710703507
 20
5.6686970338983036
 10
-24.152261217204579
 20
5.200278072033897
 10
-24.141005920594409
 20
4.7192796610169481
 10
-24.148619797713049
 20
4.2607918432203382
 10
-24.17146142906898
 20
3.796345338983051
 10
-24.209530814662191
 20
3.3259401483050839
 10
-24.26282795449271
 20
2.849576271186439
 10
-24.327380390933381
 20
2.3715572033898291
 10
-24.399215666357101
 20
1.896186440677964
 10
-24.47833378076389
 20
1.4234639830508451
 10
-24.564734734153721
 20
0.9533898305084705
 10
-24.751440242628291
 20
0.0251588983050803
 10
-24.951387276526589
 20
-0.8845338983050866
 10
-25.338039818899489
 20
-2.590042372881356
 10
-25.503558886696091
 20
-3.3646716101694931
 10
-25.639946598560499
 20
-4.0783898305084776
 10
-25.693243738391001
 20
-4.4084348516949179
 10
-25.731313123984219
 20
-4.7153072033898322
 10
-25.754154755340149
 20
-4.9990068855932224
 10
-25.7617686324588
 20
-5.2595338983050874
 10
-25.75820997250117
 20
-5.4104045286016964
 10
-25.747533992628291
 20
-5.550516419491526
 10
-25.72974069284016
 20
-5.6798695709745761
 10
-25.704830073136769
 20
-5.7984639830508478
 10
-25.672802133518129
 20
-5.9062996557203391
 10
-25.633656873984229
 20
-6.0033765889830519
 10
-25.58739429453507
 20
-6.0896947828389836
 10
-25.534014395170662
 20
-6.1652542372881376
 10
-25.473848214026589
 20
-6.2310480667372898
 10
-25.407226789238461
 20
-6.2880693855932206
 10
-25.33415012080625
 20
-6.3363181938559343
 10
-25.25461820872998
 20
-6.3757944915254257
 10
-25.168631053009641
 20
-6.4064982786016973
 10
-25.076188653645239
 20
-6.4284295550847492
 10
-24.977291010636758
 20
-6.4415883209745797
 10
-24.871938123984219
 20
-6.4459745762711904
 10
-24.748460899407959
 20
-6.4376986228813591
 10
-24.621673293475759
 20
-6.412870762711866
 10
-24.49157530618762
 20
-6.3714909957627119
 10
-24.358166937543562
 20
-6.3135593220338961
 10
-24.22310337822152
 20
-6.242055084745763
 10
-24.088039818899489
 20
-6.1599576271186454
 10
-23.952976259577451
 20
-6.0672669491525433
 10
-23.81791270025542
 20
-5.9639830508474603
 10
-23.549109734153721
 20
-5.7309322033898296
 10
-23.28295507313678
 20
-5.4661016949152534
 10
-23.023421174831689
 20
-5.1814088983050874
 10
-22.774480496865579
 20
-4.8887711864406782
 10
-22.45800768026049
 20
-4.4879928166894913
 10
-22.393124564662202
 20
-4.2108050847457648
 10
-22.27130253076389
 20
-3.794690148305087
 10
-22.12829405618762
 20
-3.3832097457627142
 10
-21.964099140933389
 20
-2.9763638771186458
 10
-21.778717785001191
 20
-2.5741525423728859
 10
-21.57380517906898
 20
-2.1798861228813569
 10
-21.351016513814741
 20
-1.7968750000000011
 10
-21.110351789238472
 20
-1.425119173728816
 10
-20.851811005340149
 20
-1.0646186440677989
 10
-20.578042467204561
 20
-0.7210010593220364
 10
-20.29169447991643
 20
-0.3998940677966125
 10
-19.992767043475752
 20
-0.1012976694915277
 10
-19.681260157882519
 20
0.1747881355932179
 10
-19.359160051950319
 20
0.4260460805084723
 10
-19.028452954492689
 20
0.650158898305083
 10
-18.689138865509641
 20
0.8471265889830502
 10
-18.34121778500116
 20
1.0169491525423739
 10
-18.16469169919608
 20
1.0901913400423739
 10
-17.987338018052011
 20
1.1536679025423751
 10
-17.809156741568959
 20
1.2073788400423751
 10
-17.630147869746921
 20
1.2513241525423751
 10
-17.450311402585911
 20
1.2855038400423751
 10
-17.269647340085911
 20
1.3099179025423739
 10
-17.088155682246921
 20
1.3245663400423739
 10
-16.905836429068959
 20
1.3294491525423739
 10
-16.790635157882519
 20
1.323490466101696
 10
-16.68867541211981
 20
1.305614406779662
 10
-16.599957191780831
 20
1.275820974576271
 10
-16.524480496865579
 20
1.234110169491522
 10
-16.39868600534016
 20
1.1321504237288129
 10
-16.29672625957744
 20
1.0169491525423739
 10
-16.121938123984219
 20
0.7786016949152526
 10
-16.076916937543551
 20
0.7243114406779638
 10
-16.026599140933381
 20
0.6779661016949135
 10
-15.970984734153721
 20
0.6395656779661001
 10
-15.91007371720457
 20
0.6091101694915224
 10
-15.78163092059439
 20
0.5654131355932188
 10
-15.65053981889946
 20
0.5402542372881385
 10
-15.516800412119821
 20
0.5283368644067785
 10
-15.38041270025542
 20
0.5243644067796609
 10
-15.14206524262829
 20
0.5296610169491487
 10
-14.90371778500116
 20
0.5349576271186436
 10
-14.750116090085911
 20
0.5270127118644066
 10
-14.60710761550965
 20
0.5031779661016955
 10
-14.540237912119821
 20
0.4826536016949128
 10
-14.477340666357099
 20
0.4528601694915224
 10
-14.418415878221509
 20
0.4137976694915231
 10
-14.363463547713019
 20
0.3654661016949134
 10
-14.313476789238459
 20
0.3072033898305065
 10
-14.269448717204559
 20
0.2383474576271167
 10
-14.231379331611331
 20
0.1588983050847447
 10
-14.1992686324588
 20
0.068855932203391
 10
-14.17377869601812
 20
-0.0350900423728816
 10
-14.15557159856049
 20
-0.1562500000000009
 10
-14.144647340085911
 20
-0.2946239406779675
 10
-14.141005920594379
 20
-0.4502118644067821
 10
-14.14762668330625
 20
-0.7114009533898341
 10
-14.167488971441839
 20
-0.9864936440678003
 10
-14.20059278500117
 20
-1.2754899364406811
 10
-14.24693812398422
 20
-1.578389830508478
 10
-14.358166937543549
 20
-2.2060381355932228
 10
-14.479988971441861
 20
-2.849576271186443
 10
-14.60181100534016
 20
-3.5010593220339001
 10
-14.71303981889946
 20
-4.1525423728813564
 10
-14.759385157882519
 20
-4.4739804025423728
 10
-14.792488971441839
 20
-4.7868114406779672
 10
-14.81235125957744
 20
-5.0910354872881376
 10
-14.8189720222893
 20
-5.3866525423728859
 10
-14.81334437398422
 20
-5.6220206567796618
 10
-14.796461429068961
 20
-5.8302436440677967
 10
-14.76832318754354
 20
-6.0113215042372889
 10
-14.72892964940795
 20
-6.1652542372881376
 10
-14.70319143436557
 20
-6.2310480667372898
 10
-14.67099797567913
 20
-6.2880693855932206
 10
-14.63234927334863
 20
-6.3363181938559343
 10
-14.587245327374051
 20
-6.3757944915254257
 10
-14.535686137755411
 20
-6.4064982786016973
 10
-14.4776717044927
 20
-6.4284295550847492
 10
-14.413202027585919
 20
-6.4415883209745797
 10
-14.34227710703507
 20
-6.4459745762711904
 10
-14.229724140933371
 20
-6.4390227754237328
 10
-14.11452286974693
 20
-6.4181673728813591
 10
-13.996673293475739
 20
-6.383408368644071
 10
-13.87617541211981
 20
-6.3347457627118686
 10
-13.631207191780829
 20
-6.2063029661016973
 10
-13.38359066635709
 20
-6.043432203389834
 10
-13.134649988391001
 20
-5.8514300847457639
 10
-12.88570931042489
 20
-5.6355932203389827
 10
-12.64338939517067
 20
-5.4038665254237301
 10
-12.414311005340149
 20
-5.1641949152542352
 10
-12.337763796896381
 20
-5.0748250779848476
 10
-12.25541270025542
 20
-4.3273305084745743
 10
-12.164046174831681
 20
-3.6639300847457639
 10
-12.05943812398422
 20
-2.9872881355932179
 10
-11.94556100534016
 20
-2.3185911016949148
 10
-11.82638727652659
 20
-1.6790254237288169
 10
-11.703241090085919
 20
-1.0805084745762701
 10
-11.577446598560501
 20
-0.5349576271186436
 10
-11.455624564662189
 20
-0.0635593220338997
 10
-11.344395751102869
 20
0.3125
 10
-11.241111852797779
 20
0.6170550847457612
 10
-11.1431245646622
 20
0.8527542372881385
 10
-11.0937998824588
 20
0.9477621822033882
 10
-11.04116481889948
 20
1.031514830508472
 10
-10.98521937398422
 20
1.104012182203389
 10
-10.925963547713019
 20
1.165254237288138
 10
-10.86207318754354
 20
1.2162341101694929
 10
-10.792224140933371
 20
1.2579449152542379
 10
-10.716416407882519
 20
1.2903866525423719
 10
-10.634649988391001
 20
1.3135593220338959
 10
-10.441323717204559
 20
1.341366525423729
 10
-10.20032795449268
 20
1.3506355932203391
 10
-9.8414826155096407
 20
1.344014830508474
 10
-9.5700313443231835
 20
1.324152542372879
 10
-9.4634370646621697
 20
1.3062764830508471
 10
-9.3714084629672563
 20
1.2791313559322031
 10
-9.2939455392384431
 20
1.242717161016949
 10
-9.2310482934757374
 20
1.197033898305087
 10
-9.1810615350011631
 20
1.14108845338983
 10
-9.1423300731367547
 20
1.073887711864405
 10
-9.1148539078825159
 20
0.9954316737288096
 10
-9.0986330392384502
 20
0.9057203389830448
 10
-9.0827432087299727
 20
0.6806144067796591
 10
-9.0774465985604706
 20
0.3866525423728788
 10
-9.0933364290689553
 20
-0.0264830508474603
 10
-9.141005920594381
 20
-0.5243644067796609
 10
-9.2098618527977578
 20
-1.069915254237287
 10
-9.2893110053401529
 20
-1.615466101694921
 10
-9.4905821917808169
 20
-2.9078389830508509
 10
-9.3740567680520144
 20
-3.034957627118644
 10
-9.1463025307638759
 20
-2.6324152542372872
 10
-8.6378279544926784
 20
-1.742584745762713
 10
-8.3240038019503189
 20
-1.21159957627119
 10
-7.9863449036452323
 20
-0.6567796610169552
 10
-7.6447135477130246
 20
-0.1231461864406809
 10
-7.3189720222893024
 20
0.3442796610169481
 10
-7.1630530604248968
 20
0.5521716101694917
 10
-7.0024995646621839
 20
0.741525423728814
 10
-6.8373115350011613
 20
0.9123411016949145
 10
-6.6674889714418271
 20
1.0646186440677921
 10
-6.5793500678401342
 20
1.1316538665254201
 10
-6.4870731875435279
 20
1.1897510593220311
 10
-6.3906583305520046
 20
1.2389102224576241
 10
-6.2901054968655679
 20
1.279131355932202
 10
-6.185414686484215
 20
1.3104144597457621
 10
-6.0765858994079451
 20
1.332759533898304
 10
-5.96361913563676
 20
1.34616657838983
 10
-5.846514395170658
 20
1.3506355932203391
 10
-5.7372718104248976
 20
1.346580376059322
 10
-5.6320016833062541
 20
1.334414724576271
 10
-5.5307040138147281
 20
1.314138638771186
 10
-5.4333788019503189
 20
1.285752118644067
 10
-5.340026047713029
 20
1.2492551641949139
 10
-5.2506457511028577
 20
1.204647775423727
 10
-5.1652379121198067
 20
1.1519299523305071
 10
-5.0838025307638759
 20
1.091101694915253
 10
-5.0093189502554027
 20
1.0228250794491509
 10
-4.9447665138147254
 20
0.9477621822033892
 10
-4.890145221441843
 20
0.8659130031779659
 10
-4.8454550731367583
 20
0.7772775423728815
 10
-4.8106960688994684
 20
0.6818557997881359
 10
-4.7858682087299762
 20
0.5796477754237289
 10
-4.7709714926282798
 20
0.4706534692796606
 10
-4.766005920594381
 20
0.3548728813559308
 10
-4.7792474460181111
 20
-0.0476694915254239
 10
-4.8189720222893024
 20
-0.4290254237288167
 10
-4.8785588866960801
 20
-0.7944915254237293
 10
-4.9513872765265887
 20
-1.1493644067796609
 10
-5.1155821917808169
 20
-1.832627118644069
 10
-5.2744804968655794
 20
-2.515889830508478
 10
-5.3380398188994604
 20
-2.8230932203389831
 10
-5.3486330392384502
 20
-2.9078389830508509
 10
-5.2321076155096478
 20
-3.034957627118644
 10
-4.9884635477130246
 20
-2.6377118644067821
 10
-4.4429127002553912
 20
-1.753177966101696
 10
-3.7543533782215088
 20
-0.662076271186443
 10
-3.400804649407938
 20
-0.1244703389830528
 10
-3.0710906663570938
 20
0.3442796610169481
 10
-2.9174889714418408
 20
0.5478681144067789
 10
-2.7638872765265892
 20
0.734904661016949
 10
-2.6102855816113362
 20
0.9053893008474577
 10
-2.4566838866960841
 20
1.059322033898304
 10
-2.3777312913571009
 20
1.1275986493644059
 10
-2.294475200255405
 20
1.186771716101694
 10
-2.2069156133909971
 20
1.236841234110168
 10
-2.1150525307638759
 20
1.27780720338983
 10
-2.0188859523740419
 20
1.3096696239406771
 10
-1.9184158782214951
 20
1.3324284957627111
 10
-1.813642308306235
 20
1.3460838188559321
 10
-1.7045652426282629
 20
1.3506355932203391
 10
-1.5824949301282649
 20
1.346580376059322
 10
-1.465224670594367
 20
1.334414724576271
 10
-1.352754464026571
 20
1.314138638771186
 10
-1.245084310424875
 20
1.285752118644067
 10
-1.142214209789282
 20
1.2492551641949139
 10
-1.04414416211979
 20
1.204647775423727
 10
-0.950874167416401
 20
1.1519299523305071
 10
-0.8624042256791142
 20
1.091101694915253
 10
-0.7817136801282687
 20
1.0228250794491509
 10
-0.7117818739842026
 20
0.9477621822033892
 10
-0.6526088072469158
 20
0.8659130031779659
 10
-0.6041944799164085
 20
0.7772775423728815
 10
-0.5665388919926806
 20
0.6818557997881359
 10
-0.5396420434757321
 20
0.5796477754237289
 10
-0.523503934365563
 20
0.4706534692796606
 10
-0.5181245646621733
 20
0.3548728813559308
 10
-0.5227590985604778
 20
-0.0059586864406782
 10
-0.5366627002553912
 20
-0.3575211864406782
 10
-0.5598353697469136
 20
-0.6998146186440692
 10
-0.592277107035045
 20
-1.0328389830508511
 10
-0.6717262595774329
 20
-1.6843220338983069
 10
-0.7617686324587965
 20
-2.3252118644067821
 10
-0.8518110053401351
 20
-2.9647775423728842
 10
-0.9312601578825195
 20
-3.6122881355932179
 10
-0.9637018951706509
 20
-3.9429952330508482
 10
-0.9868745646621733
 20
-4.2836334745762734
 10
-1.0007781663570869
 20
-4.6342028601694931
 10
-1.005412700255391
 20
-4.9947033898305122
 10
-0.9961436324587818
 20
-5.2674788135593227
 10
-0.9683364290689518
 20
-5.5137711864406773
 10
-0.9219910900858985
 20
-5.7335805084745752
 10
-0.8571076155096193
 20
-5.9269067796610173
 10
-0.7789826155096264
 20
-6.084480932203391
 10
-0.7369407722892891
 20
-6.1463850635593236
 10
-0.6929127002553912
 20
-6.1970338983050874
 10
-0.6468983994079327
 20
-6.23642743644068
 10
-0.5988978697469136
 20
-6.2645656779661039
 10
-0.5489111112723339
 20
-6.2814486228813582
 10
-0.4969381239841937
 20
-6.287076271186443
 10
-0.3843851578825093
 20
-6.2811175847457656
 10
-0.269183886696073
 20
-6.263241525423731
 10
-0.1513343104248874
 20
-6.23344809322034
 10
-0.0308364290689553
 20
-6.1917372881355917
 10
0.2154559438124046
 20
-6.0831567796610173
 10
0.4670449268632524
 20
-5.9480932203389827
 10
0.7186339099141001
 20
-5.7878707627118642
 10
0.9649262827954601
 20
-5.6038135593220346
 10
1.126431628019134
 20
-5.4624963822513237
 10
1.154277003640485
 20
-5.1541791317509036
 10
1.198476059679251
 20
-4.842794192984309
 10
1.2589672415481441
 20
-4.5283375244748303
 10
1.335688994659876
 20
-4.2108050847457648
 10
1.4575110285581689
 20
-3.794690148305087
 10
1.6005195031344359
 20
-3.3832097457627142
 10
1.764714418388674
 20
-2.9763638771186458
 10
1.950095774320886
 20
-2.5741525423728859
 10
2.1550083802530842
 20
-2.1798861228813569
 10
2.3777970455073221
 20
-1.7968750000000011
 10
2.6184617700835942
 20
-1.425119173728816
 10
2.877002553981896
 20
-1.0646186440677989
 10
3.1507710921174841
 20
-0.7210010593220364
 10
3.437119079405619
 20
-0.3998940677966125
 10
3.7360465158463012
 20
-0.1012976694915277
 10
4.0475534014395294
 20
0.1747881355932179
 10
4.3696535073717273
 20
0.4260460805084723
 10
4.7003606048293562
 20
0.650158898305083
 10
5.0396746938124108
 20
0.8471265889830502
 10
5.3875957743208858
 20
1.0169491525423739
 10
5.5641218601259679
 20
1.0901913400423739
 10
5.7414755412700336
 20
1.1536679025423751
 10
5.9196568177530819
 20
1.2073788400423751
 10
6.0986656895751139
 20
1.2513241525423751
 10
6.2785021567361303
 20
1.2855038400423751
 10
6.4591662192361321
 20
1.3099179025423739
 10
6.6406578770751201
 20
1.3245663400423739
 10
6.8229771302530926
 20
1.3294491525423739
 10
6.9381784014395329
 20
1.323490466101696
 10
7.0401381472022422
 20
1.305614406779662
 10
7.1288563675412213
 20
1.275820974576271
 10
7.2043330624564703
 20
1.234110169491522
 10
7.3301275539819031
 20
1.1321504237288129
 10
7.4320872997446088
 20
1.0169491525423739
 10
7.6068754353378267
 20
0.7786016949152526
 10
7.651896621778512
 20
0.7243114406779638
 10
7.7022144183886816
 20
0.6779661016949135
 10
7.7578288251683443
 20
0.6395656779661001
 10
7.8187398421175089
 20
0.6091101694915224
 10
7.9471826387276714
 20
0.5654131355932188
 10
8.0782737404225884
 20
0.5402542372881385
 10
8.2120131472022351
 20
0.5283368644067785
 10
8.3484008590666576
 20
0.5243644067796609
 10
8.5867483166937575
 20
0.5296610169491487
 10
8.8250957743208858
 20
0.5349576271186436
 10
8.9786974692361419
 20
0.5270127118644066
 10
9.1217059438124011
 20
0.5031779661016955
 10
9.1885756472022422
 20
0.4826536016949128
 10
9.251472892964955
 20
0.4528601694915224
 10
9.3103976811005467
 20
0.4137976694915231
 10
9.3653500116090242
 20
0.3654661016949134
 10
9.4153367700836039
 20
0.3072033898305065
 10
9.4593648421175018
 20
0.2383474576271167
 10
9.497434227710718
 20
0.1588983050847447
 10
9.5295449268632524
 20
0.068855932203391
 10
9.5550348633039377
 20
-0.0350900423728816
 10
9.5732419607615675
 20
-0.1562500000000009
 10
9.5841662192361419
 20
-0.2946239406779675
 10
9.5878076387276678
 20
-0.4502118644067821
 10
9.5818296928618807
 20
-0.6973691737039669
 10
9.5637653627934469
 20
-0.9569796528869325
 10
9.5334189098157509
 20
-1.2290112940706379
 10
9.4905945952221771
 20
-1.5134320893700419
 10
9.6171929417227773
 20
-1.4459745762711831
 10
9.7287527934176978
 20
-1.408898305084745
 10
9.8568645518922793
 20
-1.3824152542372881
 10
10.00152821714652
 20
-1.366525423728814
 10
10.162743789180411
 20
-1.361228813559322
 10
14.90850650104483
 20
-1.361228813559322
 10
15.056811585790591
 20
-1.369173728813559
 10
15.226303111214319
 20
-1.3930084745762701
 10
15.31435925528212
 20
-1.412539724576273
 10
15.39844294172279
 20
-1.4393538135593229
 10
15.47855417053634
 20
-1.473450741525423
 10
15.554692941722781
 20
-1.5148305084745739
 10
15.665359035940201
 20
-1.596711132423581
 10
15.760079971598911
 20
-1.7007424528736479
 10
15.76553995907171
 20
-1.2910811195502729
 10
15.78039483192871
 20
-0.8849482193553322
 10
15.804631252812809
 20
-0.4823437138750583
 10
15.838235884366931
 20
-0.0832675646956851
 10
15.881195389233961
 20
0.312280266596554
 10
15.93349643005682
 20
0.7042998184154254
 10
15.99512566947841
 20
1.0927911291746959
 10
16.066069770141642
 20
1.4777542372881309
 10
16.147008594294181
 20
1.863992981991522
 10
16.236223371836559
 20
2.244107521186439
 10
16.333714102768759
 20
2.6180978548728802
 10
16.43948078709079
 20
2.985963983050846
 10
16.553523424802659
 20
3.3477059057203382
 10
16.675842015904362
 20
3.7033236228813551
 10
16.806436560395891
 20
4.052817134533897
 10
16.945307058277251
 20
4.3961864406779654
 10
17.092122471412839
 20
4.7327694650423728
 10
17.246551761667071
 20
5.0619041313559316
 10
17.40859492903995
 20
5.3835904396186436
 10
17.578251973531479
 20
5.6978283898305069
 10
17.755522895141642
 20
6.0046179819915242
 10
17.940407693870451
 20
6.3039592161016929
 10
18.132906369717901
 20
6.5958520921610146
 10
18.333018922684001
 20
6.8802966101694878
 10
18.540166036031469
 20
7.1560513771186418
 10
18.753768393023002
 20
7.4218749999999982
 10
18.97382599365859
 20
7.6777674788135588
 10
19.200338837938251
 20
7.9237288135593218
 10
19.433306925861981
 20
8.1597590042372889
 10
19.67273025742978
 20
8.3858580508474567
 10
19.918608832641642
 20
8.6020259533898304
 10
20.170942651497569
 20
8.8082627118644048
 10
20.429317916328081
 20
9.0038234904661003
 10
20.69332082946368
 20
9.1879634533898304
 10
20.962951390904351
 20
9.3606826006355917
 10
21.238209600650119
 20
9.5219809322033875
 10
21.519095458700971
 20
9.6718584480932179
 10
21.805608965056891
 20
9.810315148305083
 10
22.097750119717912
 20
9.9373510328389827
 10
22.395518922684001
 20
10.05296610169491
 10
22.6985015762857
 20
10.156001721398299
 10
23.00628428285351
 20
10.245299258474571
 10
23.31886704238741
 20
10.32085871292373
 10
23.63624985488741
 20
10.382680084745759
 10
23.95843272035351
 20
10.430763373940669
 10
24.285415638785711
 20
10.46510858050847
 10
24.617198610184019
 20
10.48571570444915
 10
24.95378163454842
 20
10.492584745762709
 10
25.39182784747215
 20
10.48505362817796
 10
25.81613597776877
 20
10.46246027542373
 10
26.226706025438261
 20
10.4248046875
 10
26.623537990480639
 20
10.37208686440678
 10
27.006631872895891
 20
10.304306806144069
 10
27.37598767268403
 20
10.22146451271187
 10
27.731605389845051
 20
10.12355998411017
 10
28.07348502437895
 20
10.010593220338979
 10
28.401461057217929
 20
9.8851297669491522
 10
28.715367969294199
 20
9.7497351694915242
 10
29.01520576060776
 20
9.6044094279661021
 10
29.3009744311586
 20
9.4491525423728806
 10
29.572673980946739
 20
9.2839645127118633
 10
29.830304409972161
 20
9.1088453389830484
 10
30.07386571823486
 20
8.9237950211864394
 10
30.30335790573486
 20
8.7288135593220346
 10
30.59093768381841
 20
8.4522825890098261
 10
30.853366248677119
 20
8.1621041782113419
 10
31.090494698398171
 20
7.8581863564287602
 10
31.302174131068771
 20
7.5404371531642589
 10
31.487793760519931
 20
8.0005497606611424
 10
31.686539102978109
 20
8.4384685999816575
 10
31.898307788218951
 20
8.8542327665854579
 10
32.122997446018132
 20
9.2478813559322006
 10
32.28396473945034
 20
9.5020358845338961
 10
32.451718314662202
 20
9.7427833686440657
 10
32.626258171653731
 20
9.9701238082627111
 10
32.807584310424907
 20
10.18405720338983
 10
32.995696730975773
 20
10.38458355402542
 10
33.190595433306271
 20
10.57170286016949
 10
33.392280417416437
 20
10.745415121822029
 10
33.600751683306271
 20
10.90572033898305
 10
33.816588547713053
 20
11.0497219279661
 10
34.04037032737407
 20
11.17452330508474
 10
34.272097022289323
 20
11.280124470338979
 10
34.511768632458811
 20
11.36652542372881
 10
34.759385157882541
 20
11.433726165254241
 10
35.014946598560513
 20
11.481726694915251
 10
35.278452954492707
 20
11.51052701271186
  0
ENDSEC
  0
SECTION
  2
OBJECTS
  0
DICTIONARY
  5
C
100
AcDbDictionary
280
0
281
1
  3
ACAD_GROUP
350
D
  3
ACAD_LAYOUT
350
1A
  3
ACAD_MLINESTYLE
350
17
  3
ACAD_PLOTSETTINGS
350
19
  3
ACAD_PLOTSTYLENAME
350
E
  3
AcDbVariableDictionary
350
49
  0
DICTIONARY
  5
D
100
AcDbDictionary
280
0
281
1
  0
ACDBDICTIONARYWDFLT
  5
E
100
AcDbDictionary
281
1
  3
Normal
350
F
100
AcDbDictionaryWithDefault
340
F
  0
ACDBPLACEHOLDER
  5
F
  0
DICTIONARY
  5
17
100
AcDbDictionary
280
0
281
1
  3
Standard
350
18
  0
MLINESTYLE
  5
18
100
AcDbMlineStyle
  2
STANDARD
 70
0
  3

 62
256
 51
90.0
 52
90.0
 71
2
 49
0.5
 62
256
  6
BYLAYER
 49
-0.5
 62
256
  6
BYLAYER
  0
DICTIONARY
  5
19
100
AcDbDictionary
280
0
281
1
  0
DICTIONARY
  5
1A
100
AcDbDictionary
281
1
  3
Layout1
350
1E
  3
Layout2
350
26
  3
Model
350
22
  0
LAYOUT
  5
1E
100
AcDbPlotSettings
  1

  2
C:\Program Files\AutoCAD 2002\plotters\DWF ePlot (optimized for plotting).pc3
  4

  6

 40
0.0
 41
0.0
 42
0.0
 43
0.0
 44
0.0
 45
0.0
 46
0.0
 47
0.0
 48
0.0
 49
0.0
140
0.0
141
0.0
142
1.0
143
1.0
 70
688
 72
0
 73
0
 74
5
  7

 75
16
147
1.0
148
0.0
149
0.0
100
AcDbLayout
  1
Layout1
 70
1
 71
1
 10
0.0
 20
0.0
 11
420.0
 21
297.0
 12
0.0
 22
0.0
 32
0.0
 14
100000000000000000000.0
 24
100000000000000000000.0
 34
100000000000000000000.0
 15
-100000000000000000000.0
 25
-100000000000000000000.0
 35
-100000000000000000000.0
146
0.0
 13
0.0
 23
0.0
 33
0.0
 16
1.0
 26
0.0
 36
0.0
 17
0.0
 27
1.0
 37
0.0
 76
0
330
1B
  0
LAYOUT
  5
22
100
AcDbPlotSettings
  1

  2
C:\Program Files\AutoCAD 2002\plotters\DWF ePlot (optimized for plotting).pc3
  4

  6

 40
0.0
 41
0.0
 42
0.0
 43
0.0
 44
0.0
 45
0.0
 46
0.0
 47
0.0
 48
0.0
 49
0.0
140
0.0
141
0.0
142
1.0
143
1.0
 70
1712
 72
0
 73
0
 74
0
  7

 75
0
147
1.0
148
0.0
149
0.0
100
AcDbLayout
  1
Model
 70
1
 71
0
 10
0.0
 20
0.0
 11
12.0
 21
9.0
 12
0.0
 22
0.0
 32
0.0
 14
0.0
 24
0.0
 34
0.0
 15
0.0
 25
0.0
 35
0.0
146
0.0
 13
0.0
 23
0.0
 33
0.0
 16
1.0
 26
0.0
 36
0.0
 17
0.0
 27
1.0
 37
0.0
 76
0
330
1F
  0
LAYOUT
  5
26
100
AcDbPlotSettings
  1

  2
C:\Program Files\AutoCAD 2002\plotters\DWF ePlot (optimized for plotting).pc3
  4

  6

 40
0.0
 41
0.0
 42
0.0
 43
0.0
 44
0.0
 45
0.0
 46
0.0
 47
0.0
 48
0.0
 49
0.0
140
0.0
141
0.0
142
1.0
143
1.0
 70
688
 72
0
 73
0
 74
5
  7

 75
16
147
1.0
148
0.0
149
0.0
100
AcDbLayout
  1
Layout2
 70
1
 71
2
 10
0.0
 20
0.0
 11
12.0
 21
9.0
 12
0.0
 22
0.0
 32
0.0
 14
0.0
 24
0.0
 34
0.0
 15
0.0
 25
0.0
 35
0.0
146
0.0
 13
0.0
 23
0.0
 33
0.0
 16
1.0
 26
0.0
 36
0.0
 17
0.0
 27
1.0
 37
0.0
 76
0
330
23
  0
DICTIONARY
  5
49
100
AcDbDictionary
281
1
  3
DIMASSOC
350
4B
  3
HIDETEXT
350
4A
  0
DICTIONARYVAR
  5
4A
100
DictionaryVariables
280
0
  1
2
  0
DICTIONARYVAR
  5
4B
100
DictionaryVariables
280
0
  1
1
  0
ENDSEC
  0
EOF
