999
dxflib 2.0.4.8
  0
SECTION
  2
HEADER
  9
$ACADVER
  1
AC1015
  9
$HANDSEED
  5
FFFF
  9
$DIMTAD
 70
0
  9
$USERR4
 40
0.0
  9
$CLAYER
  8
0
  9
$MENU
  1
.
  9
$CHAMFERA
 40
0.5
  9
$ATTREQ
 70
1
  9
$UCSYDIR
 10
0.0
 20
1.0
 30
0.0
  9
$USERR5
 40
0.0
  9
$SHADEDIF
 70
70
  9
$TILEMODE
 70
1
  9
$VISRETAIN
 70
1
  9
$EXTMIN
 10
-42.350377765888112
 20
-46.565838279282389
 30
0.0
  9
$ORTHOMODE
 70
0
  9
$REGENMODE
 70
1
  9
$TRACEWID
 40
0.05
  9
$DIMASZ
 40
0.18
  9
$CHAMFERB
 40
0.5
  9
$UCSXDIR
 10
1.0
 20
0.0
 30
0.0
  9
$DIMSHO
 70
1
  9
$DIMALT
 70
0
  9
$DIMSAH
 70
0
  9
$DIMTFAC
 40
1.0
  9
$DIMGAP
 40
0.09
  9
$SKETCHINC
 40
0.1
  9
$USRTIMER
 70
1
  9
$ANGBASE
 50
0.0
  9
$PUCSYDIR
 10
0.0
 20
1.0
 30
0.0
  9
$LIMMIN
 10
0.0
 20
0.0
  9
$DIMTSZ
 40
0.0
  9
$SPLFRAME
 70
0
  9
$SURFTYPE
 70
6
  9
$PUCSXDIR
 10
1.0
 20
0.0
 30
0.0
  9
$DWGCODEPAGE
  3
ansi_1252
  9
$LUNITS
 70
2
  9
$AUPREC
 70
0
  9
$SPLINESEGS
 70
8
  9
$SURFTAB1
 70
6
  9
$INSBASE
 10
0.0
 20
0.0
 30
0.0
  9
$DIMRND
 40
0.0
  9
$DIMCEN
 40
0.09
  9
$ELEVATION
 40
0.0
  9
$SKPOLY
 70
0
  9
$SURFTAB2
 70
6
  9
$USERI1
 70
0
  9
$UNITMODE
 70
0
  9
$INSUNITS
 70
4
  9
$EXTMAX
 10
42.392686798772182
 20
46.438963502152362
 30
0.0
  9
$FILLMODE
 70
1
  9
$DRAGMODE
 70
2
  9
$TEXTSIZE
 40
0.2
  9
$DIMEXO
 40
0.0625
  9
$PELEVATION
 40
0.0
  9
$UCSORG
 10
0.0
 20
0.0
 30
0.0
  9
$USERI2
 70
0
  9
$DIMSCALE
 40
1.0
  9
$DIMDLE
 40
0.0
  9
$DIMZIN
 70
0
  9
$TDUSRTIMER
 40
0.0000000116
  9
$ANGDIR
 70
0
  9
$SURFU
 70
6
  9
$USERI3
 70
0
  9
$LIMMAX
 10
12.0
 20
9.0
  9
$QTEXTMODE
 70
0
  9
$OSMODE
 70
37
  9
$SURFV
 70
6
  9
$USERI4
 70
0
  9
$WORLDVIEW
 70
1
  9
$ATTMODE
 70
1
  9
$DIMTXT
 40
0.18
  9
$DIMLIM
 70
0
  9
$DIMSE1
 70
0
  9
$THICKNESS
 40
0.0
  9
$LIMCHECK
 70
0
  9
$PDMODE
 70
0
  9
$HANDLING
 70
1
  9
$USERI5
 70
0
  9
$CELTYPE
  6
BYLAYER
  9
$DIMTOH
 70
1
  9
$DIMSE2
 70
0
  9
$DIMLFAC
 40
1.0
  9
$DIMSOXD
 70
0
  9
$LUPREC
 70
4
  9
$TDINDWG
 40
0.0000000116
  9
$SPLINETYPE
 70
6
  9
$PUCSORG
 10
0.0
 20
0.0
 30
0.0
  9
$PEXTMIN
 10
100000000000000000000.0
 20
100000000000000000000.0
 30
100000000000000000000.0
  9
$PEXTMAX
 10
-100000000000000000000.0
 20
-100000000000000000000.0
 30
-100000000000000000000.0
  9
$CECOLOR
 62
256
  9
$DIMDLI
 40
0.38
  9
$DIMTM
 40
0.0
  9
$DIMASO
 70
1
  9
$DIMTVP
 40
0.0
  9
$DIMSTYLE
  2
STANDARD
  9
$PLINEWID
 40
0.0
  9
$PLIMCHECK
 70
0
  9
$LTSCALE
 40
1.0
  9
$DIMTIH
 70
1
  9
$DIMALTD
 70
2
  9
$DIMCLRT
 70
0
  9
$FILLETRAD
 40
0.5
  9
$TDUPDATE
 40
2456285.8543871408
  9
$MAXACTVP
 70
64
  9
$PLIMMIN
 10
0.0
 20
0.0
  9
$PLIMMAX
 10
12.0
 20
9.0
  9
$DIMEXE
 40
0.18
  9
$DIMCLRD
 70
0
  9
$PDSIZE
 40
0.0
  9
$ATTDIA
 70
0
  9
$USERR1
 40
0.0
  9
$TEXTSTYLE
  7
STANDARD
  9
$DIMTP
 40
0.0
  9
$DIMTOL
 70
0
  9
$DIMALTF
 40
25.399999999999999
  9
$DIMTOFL
 70
0
  9
$DIMCLRE
 70
0
  9
$TDCREATE
 40
2454910.5
  9
$COORDS
 70
1
  9
$USERR2
 40
0.0
  9
$SHADEDGE
 70
3
  9
$PLINEGEN
 70
0
  9
$PSLTSCALE
 70
1
  9
$MIRRTEXT
 70
1
  9
$DIMTIX
 70
0
  9
$AUNITS
 70
0
  9
$USERR3
 40
0.0
  0
ENDSEC
  0
SECTION
  2
TABLES
  0
TABLE
  2
VPORT
  5
8
100
AcDbSymbolTable
 70
1
  0
VPORT
  5
30
100
AcDbSymbolTableRecord
100
AcDbViewportTableRecord
  2
*Active
 70
0
 10
0.0
 20
0.0
 11
1.0
 21
1.0
 12
286.30555555555549
 22
148.5
 13
0.0
 23
0.0
 14
10.0
 24
10.0
 15
10.0
 25
10.0
 16
0.0
 26
0.0
 36
1.0
 17
0.0
 27
0.0
 37
0.0
 40
297.0
 41
1.92798353909465
 42
50.0
 43
0.0
 44
0.0
 50
0.0
 51
0.0
 71
0
 72
100
 73
1
 74
3
 75
1
 76
1
 77
0
 78
0
281
0
 65
1
110
0.0
120
0.0
130
0.0
111
1.0
121
0.0
131
0.0
112
0.0
122
1.0
132
0.0
 79
0
146
0.0
  0
ENDTAB
  0
TABLE
  2
LTYPE
  5
5
100
AcDbSymbolTable
 70
21
  0
LTYPE
  5
14
100
AcDbSymbolTableRecord
100
AcDbLinetypeTableRecord
  2
ByBlock
 70
0
  3

 72
65
 73
0
 40
0.0
  0
LTYPE
  5
15
100
AcDbSymbolTableRecord
100
AcDbLinetypeTableRecord
  2
ByLayer
 70
0
  3

 72
65
 73
0
 40
0.0
  0
LTYPE
  5
16
100
AcDbSymbolTableRecord
100
AcDbLinetypeTableRecord
  2
CONTINUOUS
 70
0
  3
Solid line
 72
65
 73
0
 40
0.0
  0
LTYPE
  5
31
100
AcDbSymbolTableRecord
100
AcDbLinetypeTableRecord
  2
DOT
 70
0
  3
Dot . . . . . . . . . . . . . . . . . . . . . .
 72
65
 73
2
 40
6.3499999999999996
 49
0.0
 74
0
 49
-6.3499999999999996
 74
0
  0
LTYPE
  5
32
100
AcDbSymbolTableRecord
100
AcDbLinetypeTableRecord
  2
DOT2
 70
0
  3
Dot (.5x) .....................................
 72
65
 73
2
 40
3.1749999999999998
 49
0.0
 74
0
 49
-3.1749999999999998
 74
0
  0
LTYPE
  5
33
100
AcDbSymbolTableRecord
100
AcDbLinetypeTableRecord
  2
DOTX2
 70
0
  3
Dot (2x) .  .  .  .  .  .  .  .  .  .  .  .  .
 72
65
 73
2
 40
12.699999999999999
 49
0.0
 74
0
 49
-12.699999999999999
 74
0
  0
LTYPE
  5
34
100
AcDbSymbolTableRecord
100
AcDbLinetypeTableRecord
  2
DASHED
 70
0
  3
Dashed __ __ __ __ __ __ __ __ __ __ __ __ __ _
 72
65
 73
2
 40
19.050000000000001
 49
12.699999999999999
 74
0
 49
-6.3499999999999996
 74
0
  0
LTYPE
  5
35
100
AcDbSymbolTableRecord
100
AcDbLinetypeTableRecord
  2
DASHED2
 70
0
  3
Dashed (.5x) _ _ _ _ _ _ _ _ _ _ _ _ _ _ _ _ _
 72
65
 73
2
 40
9.5250000000000004
 49
6.3499999999999996
 74
0
 49
-3.1749999999999998
 74
0
  0
LTYPE
  5
36
100
AcDbSymbolTableRecord
100
AcDbLinetypeTableRecord
  2
DASHEDX2
 70
0
  3
Dashed (2x) ____  ____  ____  ____  ____  ___
 72
65
 73
2
 40
38.100000000000001
 49
25.399999999999999
 74
0
 49
-12.699999999999999
 74
0
  0
LTYPE
  5
37
100
AcDbSymbolTableRecord
100
AcDbLinetypeTableRecord
  2
DASHDOT
 70
0
  3
Dash dot __ . __ . __ . __ . __ . __ . __ . __
 72
65
 73
4
 40
25.399999999999999
 49
12.699999999999999
 74
0
 49
-6.3499999999999996
 74
0
 49
0.0
 74
0
 49
-6.3499999999999996
 74
0
  0
LTYPE
  5
38
100
AcDbSymbolTableRecord
100
AcDbLinetypeTableRecord
  2
DASHDOT2
 70
0
  3
Dash dot (.5x) _._._._._._._._._._._._._._._.
 72
65
 73
4
 40
12.699999999999999
 49
6.3499999999999996
 74
0
 49
-3.1749999999999998
 74
0
 49
0.0
 74
0
 49
-3.1749999999999998
 74
0
  0
LTYPE
  5
39
100
AcDbSymbolTableRecord
100
AcDbLinetypeTableRecord
  2
DASHDOTX2
 70
0
  3
Dash dot (2x) ____  .  ____  .  ____  .  ___
 72
65
 73
4
 40
50.799999999999997
 49
25.399999999999999
 74
0
 49
-12.699999999999999
 74
0
 49
0.0
 74
0
 49
-12.699999999999999
 74
0
  0
LTYPE
  5
3A
100
AcDbSymbolTableRecord
100
AcDbLinetypeTableRecord
  2
DIVIDE
 70
0
  3
Divide ____ . . ____ . . ____ . . ____ . . ____
 72
65
 73
6
 40
31.75
 49
12.699999999999999
 74
0
 49
-6.3499999999999996
 74
0
 49
0.0
 74
0
 49
-6.3499999999999996
 74
0
 49
0.0
 74
0
 49
-6.3499999999999996
 74
0
  0
LTYPE
  5
3B
100
AcDbSymbolTableRecord
100
AcDbLinetypeTableRecord
  2
DIVIDE2
 70
0
  3
Divide (.5x) __..__..__..__..__..__..__..__.._
 72
65
 73
6
 40
15.875
 49
6.3499999999999996
 74
0
 49
-3.1749999999999998
 74
0
 49
0.0
 74
0
 49
-3.1749999999999998
 74
0
 49
0.0
 74
0
 49
-3.1749999999999998
 74
0
  0
LTYPE
  5
3C
100
AcDbSymbolTableRecord
100
AcDbLinetypeTableRecord
  2
DIVIDEX2
 70
0
  3
Divide (2x) ________  .  .  ________  .  .  _
 72
65
 73
6
 40
63.5
 49
25.399999999999999
 74
0
 49
-12.699999999999999
 74
0
 49
0.0
 74
0
 49
-12.699999999999999
 74
0
 49
0.0
 74
0
 49
-12.699999999999999
 74
0
  0
LTYPE
  5
3D
100
AcDbSymbolTableRecord
100
AcDbLinetypeTableRecord
  2
CENTER
 70
0
  3
Center ____ _ ____ _ ____ _ ____ _ ____ _ ____
 72
65
 73
4
 40
50.799999999999997
 49
31.75
 74
0
 49
-6.3499999999999996
 74
0
 49
6.3499999999999996
 74
0
 49
-6.3499999999999996
 74
0
  0
LTYPE
  5
3E
100
AcDbSymbolTableRecord
100
AcDbLinetypeTableRecord
  2
CENTER2
 70
0
  3
Center (.5x) ___ _ ___ _ ___ _ ___ _ ___ _ ___
 72
65
 73
4
 40
28.574999999999999
 49
19.050000000000001
 74
0
 49
-3.1749999999999998
 74
0
 49
3.1749999999999998
 74
0
 49
-3.1749999999999998
 74
0
  0
LTYPE
  5
3F
100
AcDbSymbolTableRecord
100
AcDbLinetypeTableRecord
  2
CENTERX2
 70
0
  3
Center (2x) ________  __  ________  __  _____
 72
65
 73
4
 40
101.59999999999999
 49
63.5
 74
0
 49
-12.699999999999999
 74
0
 49
12.699999999999999
 74
0
 49
-12.699999999999999
 74
0
  0
LTYPE
  5
40
100
AcDbSymbolTableRecord
100
AcDbLinetypeTableRecord
  2
BORDER
 70
0
  3
Border __ __ . __ __ . __ __ . __ __ . __ __ .
 72
65
 73
6
 40
44.450000000000003
 49
12.699999999999999
 74
0
 49
-6.3499999999999996
 74
0
 49
12.699999999999999
 74
0
 49
-6.3499999999999996
 74
0
 49
0.0
 74
0
 49
-6.3499999999999996
 74
0
  0
LTYPE
  5
41
100
AcDbSymbolTableRecord
100
AcDbLinetypeTableRecord
  2
BORDER2
 70
0
  3
Border (.5x) __.__.__.__.__.__.__.__.__.__.__.
 72
65
 73
6
 40
22.225000000000001
 49
6.3499999999999996
 74
0
 49
-3.1749999999999998
 74
0
 49
6.3499999999999996
 74
0
 49
-3.1749999999999998
 74
0
 49
0.0
 74
0
 49
-3.1749999999999998
 74
0
  0
LTYPE
  5
42
100
AcDbSymbolTableRecord
100
AcDbLinetypeTableRecord
  2
BORDERX2
 70
0
  3
Border (2x) ____  ____  .  ____  ____  .  ___
 72
65
 73
6
 40
88.900000000000006
 49
25.399999999999999
 74
0
 49
-12.699999999999999
 74
0
 49
25.399999999999999
 74
0
 49
-12.699999999999999
 74
0
 49
0.0
 74
0
 49
-12.699999999999999
 74
0
  0
ENDTAB
  0
TABLE
  2
LAYER
  5
2
100
AcDbSymbolTable
 70
2
  0
LAYER
  5
10
100
AcDbSymbolTableRecord
100
AcDbLayerTableRecord
  2
0
 70
0
 62
7
  6
CONTINUOUS
390
F
  0
LAYER
  5
43
100
AcDbSymbolTableRecord
100
AcDbLayerTableRecord
  2
LAYER_1
 70
0
 62
9
  6
CONTINUOUS
370
-3
390
F
  0
ENDTAB
  0
TABLE
  2
STYLE
  5
3
100
AcDbSymbolTable
 70
1
  0
STYLE
  5
11
100
AcDbSymbolTableRecord
100
AcDbTextStyleTableRecord
  2
Standard
 70
0
 40
0.0
 41
0.75
 50
0.0
 71
0
 42
2.5
  3
txt
  4

  0
ENDTAB
  0
TABLE
  2
VIEW
  5
6
100
AcDbSymbolTable
 70
0
  0
ENDTAB
  0
TABLE
  2
UCS
  5
7
100
AcDbSymbolTable
 70
0
  0
ENDTAB
  0
TABLE
  2
APPID
  5
9
100
AcDbSymbolTable
 70
1
  0
APPID
  5
12
100
AcDbSymbolTableRecord
100
AcDbRegAppTableRecord
  2
ACAD
 70
0
  0
ENDTAB
  0
TABLE
  2
DIMSTYLE
  5
A
100
AcDbSymbolTable
 70
1
100
AcDbDimStyleTable
 71
0
  0
DIMSTYLE
105
27
100
AcDbSymbolTableRecord
100
AcDbDimStyleTableRecord
  2
Standard
 41
0.18
 42
0.0625
 43
3.75
 44
0.18
 70
0
 73
0
 74
0
 77
1
 78
8
140
0.18
141
2.5
143
0.03937007874016
147
0.09
171
3
172
1
271
2
272
2
274
3
278
44
283
0
284
8
340
11
  0
ENDTAB
  0
TABLE
  2
BLOCK_RECORD
  5
1
100
AcDbSymbolTable
 70
1
  0
BLOCK_RECORD
  5
1F
100
AcDbSymbolTableRecord
100
AcDbBlockTableRecord
  2
*Model_Space
340
22
  0
BLOCK_RECORD
  5
1B
100
AcDbSymbolTableRecord
100
AcDbBlockTableRecord
  2
*Paper_Space
340
1E
  0
BLOCK_RECORD
  5
23
100
AcDbSymbolTableRecord
100
AcDbBlockTableRecord
  2
*Paper_Space0
340
26
  0
ENDTAB
  0
ENDSEC
  0
SECTION
  2
BLOCKS
  0
BLOCK
  5
20
100
AcDbEntity
  8
0
100
AcDbBlockBegin
  2
*Model_Space
 70
0
 10
0.0
 20
0.0
 30
0.0
  3
*Model_Space
  1

  0
ENDBLK
  5
21
100
AcDbEntity
  8
0
100
AcDbBlockEnd
  0
BLOCK
  5
1C
100
AcDbEntity
 67
1
  8
0
100
AcDbBlockBegin
  2
*Paper_Space
 70
0
 10
0.0
 20
0.0
 30
0.0
  3
*Paper_Space
  1

  0
ENDBLK
  5
1D
100
AcDbEntity
 67
1
  8
0
100
AcDbBlockEnd
  0
BLOCK
  5
24
100
AcDbEntity
  8
0
100
AcDbBlockBegin
  2
*Paper_Space0
 70
0
 10
0.0
 20
0.0
 30
0.0
  3
*Paper_Space0
  1

  0
ENDBLK
  5
25
100
AcDbEntity
  8
0
100
AcDbBlockEnd
  0
ENDSEC
  0
SECTION
  2
ENTITIES
  0
LWPOLYLINE
  5
44
  8
LAYER_1
 62
256
370
-1
  6
ByLayer
100
AcDbEntity
100
AcDbPolyline
 90
738
 70
1
 10
3.837445743519794
 20
-46.058748136111973
 10
4.3858920387255633
 20
-45.912318177718433
 10
4.9247030622957038
 20
-45.748071351131401
 10
5.4536067815700893
 20
-45.56629570141844
 10
5.9723311638885974
 20
-45.3672792736471
 10
6.480604176591104
 20
-45.151310112884907
 10
6.978153787017483
 20
-44.918676264199412
 10
7.4647079625076111
 20
-44.669665772658149
 10
7.9399946704013642
 20
-44.404566683328653
 10
8.4037418780386179
 20
-44.123667041278473
 10
8.8556775527592464
 20
-43.827254891575159
 10
9.295529661903128
 20
-43.51561827928623
 10
9.7230261728101368
 20
-43.189045249479257
 10
10.13789505282015
 20
-42.847823847221761
 10
10.539864269273041
 20
-42.492242117581277
 10
10.928661789508689
 20
-42.122588105625368
 10
11.30401558086697
 20
-41.739149856421569
 10
11.66565361068775
 20
-41.342215415037423
 10
12.013303846310921
 20
-40.932072826540448
 10
12.34669425507634
 20
-40.50901013599821
 10
12.665552804323889
 20
-40.07331538847825
 10
12.96960746139346
 20
-39.625276629048088
 10
13.258586193624909
 20
-39.165181902775302
 10
13.532216968358121
 20
-38.693319254727413
 10
13.790227752932971
 20
-38.209976729971942
 10
14.03234651468933
 20
-37.715442373576458
 10
14.25830122096707
 20
-37.21000423060849
 10
14.467819839106079
 20
-36.69395034613558
 10
14.66063033644623
 20
-36.167568765225283
 10
14.8364606803274
 20
-35.631147532945128
 10
14.995038838089449
 20
-35.084974694362657
 10
15.136092777072269
 20
-34.529338294545411
 10
15.259350464615739
 20
-33.96452637856094
 10
15.34675536660977
 20
-33.504149487582133
 10
15.4208765002886
 20
-33.058341288343847
 10
15.48163437862274
 20
-32.6248185440406
 10
15.52894951458271
 20
-32.201298017866883
 10
15.562742421139021
 20
-31.785496473017179
 10
15.58293361126217
 20
-31.375130672685991
 10
15.58944359792269
 20
-30.96791738006781
 10
15.58219289409109
 20
-30.561573358357141
 10
15.561102012737869
 20
-30.153815370748461
 10
15.526091466833559
 20
-29.74236018043629
 10
15.47708176934866
 20
-29.324924550615091
 10
15.41399343325368
 20
-28.899225244479378
 10
15.336746971519149
 20
-28.46297902522365
 10
15.24526289711557
 20
-28.01390265604239
 10
15.139461723013451
 20
-27.549712900130089
 10
15.01926396218332
 20
-27.068126520681261
 10
14.585530311072869
 20
-25.42579075425791
 10
14.499049003013701
 20
-25.12165450121654
 10
15.322487563324399
 20
-26.005768103191979
 10
15.742593420333
 20
-26.438059216928121
 10
16.193466454628439
 20
-26.86710721646898
 10
16.668245390463941
 20
-27.287439884583542
 10
17.16006895209275
 20
-27.693585004040798
 10
17.662075863768109
 20
-28.080070357609738
 10
18.167404849743249
 20
-28.441423728059359
 10
18.66919463427141
 20
-28.77217289815863
 10
19.160583941605839
 20
-29.066845650676559
 10
19.568309065722008
 20
-29.290090671003071
 10
19.982180279866679
 20
-29.50035948400518
 10
20.40179153804727
 20
-29.697634237973681
 10
20.82673679427122
 20
-29.881897081199391
 10
21.256610002545941
 20
-30.053130161973112
 10
21.69100511687887
 20
-30.211315628585641
 10
22.129516091277441
 20
-30.356435629327809
 10
22.571736879749071
 20
-30.488472312490391
 10
23.017261436301201
 20
-30.607407826364199
 10
23.46568371494125
 20
-30.713224319240059
 10
23.916597669676641
 20
-30.805903939408761
 10
24.369597254514812
 20
-30.885428835161111
 10
24.824276423463179
 20
-30.951781154787909
 10
25.28022913052919
 20
-31.004943046579971
 10
25.73704932972025
 20
-31.044896658828112
 10
26.194330975043801
 20
-31.071624139823111
 10
26.65166802050727
 20
-31.085107637855799
 10
27.108654420118079
 20
-31.085329301216959
 10
27.564884127883669
 20
-31.07227127819742
 10
28.01995109781145
 20
-31.045915717087968
 10
28.47344928390886
 20
-31.006244766179432
 10
28.924972640183331
 20
-30.953240573762589
 10
29.37411512064228
 20
-30.886885288128259
 10
29.820470679293141
 20
-30.807161057567249
 10
30.263633270143341
 20
-30.714050030370359
 10
30.70319684720031
 20
-30.60753435482841
 10
31.138755364471479
 20
-30.487596179232181
 10
31.56990277596427
 20
-30.35421765187251
 10
31.996233035686121
 20
-30.20738092104018
 10
32.417340097644441
 20
-30.047068135025999
 10
32.832817915846682
 20
-29.873261442120778
 10
33.242260444300243
 20
-29.68594299061532
 10
33.689801363647668
 20
-29.465262519547839
 10
34.12554628943019
 20
-29.236410546200471
 10
34.549576469678229
 20
-28.99932326914065
 10
34.96197315242226
 20
-28.75393688693579
 10
35.362817585692738
 20
-28.500187598153321
 10
35.752191017520111
 20
-28.238011601360679
 10
36.130174695934841
 20
-27.96734509512526
 10
36.496849868967388
 20
-27.68812427801452
 10
36.852297784648201
 20
-27.400285348595851
 10
37.196599691007727
 20
-27.1037645054367
 10
37.529836836076448
 20
-26.798497947104469
 10
37.852090467884807
 20
-26.4844218721666
 10
38.163441834463264
 20
-26.161472479190511
 10
38.463972183842252
 20
-25.829585966743629
 10
38.753762764052247
 20
-25.488698533393372
 10
39.032894823123712
 20
-25.138746377707161
 10
39.396780079667899
 20
-24.658487644097299
 10
39.712049116952137
 20
-24.22010864676059
 10
39.988270899709804
 20
-23.80712771652686
 10
40.235014392674223
 20
-23.4030631842259
 10
40.461848560578723
 20
-22.991433380687528
 10
40.678342368156649
 20
-22.55575663674157
 10
40.894064780141349
 20
-22.079551283217821
 10
41.118584761266163
 20
-21.546335650946109
 10
41.277970914747243
 20
-21.143906909934771
 10
41.426718384648957
 20
-20.74165916613606
 10
41.564827987479283
 20
-20.33965160138111
 10
41.692300539746157
 20
-19.937943397501041
 10
41.809136857957569
 20
-19.53659373632696
 10
41.915337758621469
 20
-19.135661799689991
 10
42.010904058245814
 20
-18.735206769421271
 10
42.095836573338573
 20
-18.335287827351902
 10
42.170136120407697
 20
-17.935964155312998
 10
42.233803515961171
 20
-17.537294935135701
 10
42.286839576506942
 20
-17.139339348651109
 10
42.329245118552947
 20
-16.74215657769037
 10
42.361020958607199
 20
-16.34580580408457
 10
42.382167913177618
 20
-15.950346209664851
 10
42.392686798772182
 20
-15.555836976262331
 10
42.392578431898848
 20
-15.16233728570813
 10
42.381843629065592
 20
-14.76990631983336
 10
42.360483206780359
 20
-14.37860326046914
 10
42.328497981551124
 20
-13.98848728944661
 10
42.28588876988583
 20
-13.599617588596869
 10
42.232656388292448
 20
-13.21205333975105
 10
42.168801653278948
 20
-12.82585372474027
 10
42.094325381353293
 20
-12.441077925395639
 10
42.009228389023427
 20
-12.057785123548291
 10
41.913511492797333
 20
-11.67603450102933
 10
41.807175509182947
 20
-11.295885239669889
 10
41.690221254688247
 20
-10.91739652130109
 10
41.562649545821202
 20
-10.540627527754051
 10
41.424461199089762
 20
-10.165637440859889
 10
41.275657031001899
 20
-9.7924854424497241
 10
41.11623785806556
 20
-9.4212307143546745
 10
40.946204496788717
 20
-9.0519324384058635
 10
40.622355164382611
 20
-8.4005689152857705
 10
40.292021980965252
 20
-7.7971012373609092
 10
40.121924260223032
 20
-7.5098391098576291
 10
39.947205954842829
 20
-7.2303638670662824
 10
39.766867190862897
 20
-6.9572798167912442
 10
39.579908094321553
 20
-6.6891912668368896
 10
39.385328791257017
 20
-6.4247025250075946
 10
39.182129407707592
 20
-6.1624178991077354
 10
38.969310069711547
 20
-5.9009416969416844
 10
38.745870903307157
 20
-5.6388782263138193
 10
38.263133589426452
 20
-5.1074067108901442
 10
37.725918474371618
 20
-4.5568378152717131
 10
36.374695863746958
 20
-3.2134323215409921
 10
35.523114355231137
 20
-2.652206549616146
 10
35.196503430372019
 20
-2.443780092921171
 10
34.856461610409632
 20
-2.2398794901114751
 10
34.504596221986702
 20
-2.04116100721434
 10
34.142514591745979
 20
-1.8482809102570461
 10
33.771824046330202
 20
-1.6618954652668709
 10
33.394131912382093
 20
-1.4826609382710969
 10
33.011045516544428
 20
-1.311233595297002
 10
32.624172185459898
 20
-1.1482697023718671
 10
32.235119245771287
 20
-0.9944255255229721
 10
31.845494024121301
 20
-0.8503573307775967
 10
31.456903847152699
 20
-0.7167213841630207
 10
31.0709560415082
 20
-0.5941739517065242
 10
30.68925793383055
 20
-0.483371299435387
 10
30.313416850762501
 20
-0.3849696933768889
 10
29.945040118946778
 20
-0.29962539955831
 10
29.585735065026132
 20
-0.22799468400693
 10
29.122898082898949
 20
-0.137549824774969
 10
29.013247801783219
 20
-0.1030847949982308
 10
28.989800289100081
 20
-0.0867112615818509
 10
28.987627604671641
 20
-0.0702130992466747
 10
29.00699705575154
 20
-0.0530673455676104
 10
29.048175949593439
 20
-0.0347510381195662
 10
29.19703129457778
 20
0.0074850877838294
 10
29.768216816850948
 20
0.1290143315224199
 10
30.216215393816181
 20
0.2266788841770228
 10
30.65862438570608
 20
0.335683707609285
 10
31.0953134630623
 20
0.4559301823723272
 10
31.526152296426488
 20
0.5873196890192702
 10
31.951010556340279
 20
0.7297536081032346
 10
32.369757913345317
 20
0.8831333201773413
 10
32.782264037983282
 20
1.0473602057947109
 10
33.188398600795772
 20
1.2223356455084631
 10
33.588031272324457
 20
1.4079610198717201
 10
33.981031723110974
 20
1.604137709437601
 10
34.367269623696977
 20
1.810767094759228
 10
34.74661464462411
 20
2.0277505563897211
 10
35.118936456434007
 20
2.2549894748822008
 10
35.484104729668331
 20
2.4923852307897891
 10
35.841989134868719
 20
2.7398392046656039
 10
36.192459342576818
 20
2.9972527770627679
 10
36.535385023334271
 20
3.2645273285344021
 10
36.870635847682721
 20
3.541564239633626
 10
37.198081486163822
 20
3.828264890913561
 10
37.517591609319197
 20
4.1245306629273264
 10
37.829035887690523
 20
4.4302629362280452
 10
38.132283991819421
 20
4.7453630913688354
 10
38.42720559224756
 20
5.0697325089028196
 10
38.713670359516563
 20
5.4032725693831187
 10
38.991547964168078
 20
5.745884653362852
 10
39.260708076743782
 20
6.0974701413951404
 10
39.521020367785269
 20
6.4579304140331057
 10
39.772354507834223
 20
6.827166851829868
 10
40.014580167432271
 20
7.2050808353385474
 10
40.247567017121071
 20
7.5915737451122656
 10
40.471184727442257
 20
7.9865469617041409
 10
40.685302968937492
 20
8.3899018656672979
 10
40.91313524899352
 20
8.8439156254776865
 10
41.120841599561977
 20
9.2808029268268761
 10
41.309151405839273
 20
9.7036521985470028
 10
41.478794053021723
 20
10.115551869470201
 10
41.630498926305712
 20
10.519590368428601
 10
41.764995410887593
 20
10.91885612425434
 10
41.883012891963759
 20
11.31643756577955
 10
41.985280754730567
 20
11.715423121836359
 10
42.072528384384391
 20
12.11890122125692
 10
42.145485166121581
 20
12.529960292873341
 10
42.204880485138517
 20
12.951688765517771
 10
42.251443726631557
 20
13.387175068022341
 10
42.28590427579708
 20
13.839507629219179
 10
42.308991517831437
 20
14.311774877940429
 10
42.321434837931022
 20
14.80706524301822
 10
42.323963621292179
 20
15.328467153284681
 10
42.315771707346578
 20
17.335766423357668
 10
42.113447032965382
 20
18.309002433090029
 10
41.97607968009217
 20
18.920634658187289
 10
41.821592274121222
 20
19.515247395575461
 10
41.649438702340092
 20
20.09383516374999
 10
41.4590728520364
 20
20.657392481206319
 10
41.249948610497732
 20
21.206913866439908
 10
41.021519865011669
 20
21.743393837946201
 10
40.773240502865811
 20
22.267826914220642
 10
40.504564411347758
 20
22.781207613758689
 10
40.214945477745097
 20
23.284530455055791
 10
39.903837589345429
 20
23.77878995660739
 10
39.570694633436332
 20
24.264980636908948
 10
39.21497049730538
 20
24.74409701445591
 10
38.836119068240208
 20
25.217133607743719
 10
38.433594233528368
 20
25.685084935267842
 10
38.006849880457487
 20
26.14894551552371
 10
37.555339896315147
 20
26.609709867006771
 10
37.328029178415633
 20
26.826962361206039
 10
37.069261600604293
 20
27.06073371867549
 10
36.493369101736128
 20
27.548473740941869
 10
35.899688872690668
 20
28.014211368839781
 10
35.618686632157718
 20
28.22047973334864
 10
35.360247386447952
 20
28.399228037403091
 10
34.176457591260807
 20
29.18730884687535
 10
33.450759209255708
 20
29.511393171575289
 10
33.026475716323247
 20
29.695739619963419
 10
32.610205252542102
 20
29.866043422927611
 10
32.200629707105762
 20
30.02259060434077
 10
31.79643096920773
 20
30.165667188075791
 10
31.39629092804152
 20
30.295559198005591
 10
30.99889147280064
 20
30.412552658003069
 10
30.6029144926786
 20
30.516933591941129
 10
30.2070418768689
 20
30.608988023692689
 10
29.809955514565051
 20
30.68900197713063
 10
29.410337294960559
 20
30.757261476127859
 10
29.006869107248921
 20
30.814052544557288
 10
28.59823284062367
 20
30.859661206291829
 10
28.18311038427828
 20
30.894373485204369
 10
27.760183627406281
 20
30.918475405167829
 10
27.32813445920117
 20
30.93225299005509
 10
26.885644768856451
 20
30.935992263739081
 10
26.478320661964059
 20
30.93021181587498
 10
26.074352005626341
 20
30.915037534788031
 10
25.67375626213315
 20
30.890476860437591
 10
25.276550893774321
 20
30.85653723278298
 10
24.88275336283969
 20
30.813226091783559
 10
24.492381131619101
 20
30.760550877398661
 10
24.10545166240238
 20
30.69851902958764
 10
23.721982417479381
 20
30.62713798830983
 10
23.34199085913993
 20
30.546415193524592
 10
22.96549444967388
 20
30.456358085191251
 10
22.59251065137105
 20
30.35697410326917
 10
22.223056926521291
 20
30.248270687717671
 10
21.85715073741444
 20
30.130255278496119
 10
21.494809546340338
 20
30.00293531556385
 10
21.13605081558882
 20
29.866318238880201
 10
20.780892007449719
 20
29.720411488404519
 10
20.42935058421288
 20
29.565222504096159
 10
20.081444008168148
 20
29.400758725914461
 10
19.737189741605349
 20
29.227027593818761
 10
19.396605246814332
 20
29.0440365477684
 10
19.05970798608492
 20
28.851793027722739
 10
18.726515421706971
 20
28.650304473641111
 10
18.39704501597031
 20
28.439578325482859
 10
18.071314231164781
 20
28.219622023207339
 10
17.74934052958022
 20
27.990443006773891
 10
17.43114137350647
 20
27.752048716141839
 10
17.116734225233369
 20
27.504446591270561
 10
16.806136547050752
 20
27.247644072119371
 10
16.499365801248459
 20
26.98164859864762
 10
16.196439450116319
 20
26.70646761081467
 10
15.897374955944191
 20
26.42210854857985
 10
15.60218978102189
 20
26.1285788519025
 10
14.53771289537713
 20
25.04641328023709
 10
14.53771289537713
 20
25.12726817078028
 10
14.56124772519124
 20
25.236845207974788
 10
14.62532770735838
 20
25.475427950185772
 10
14.835976085100549
 20
26.198952041610639
 10
15.016143460568429
 20
26.83708645708013
 10
15.170766706887649
 20
27.469995936146368
 10
15.29983522853979
 20
28.098236496361359
 10
15.403338430006469
 20
28.722364155277091
 10
15.48126571576927
 20
29.342934930445558
 10
15.533606490309779
 20
29.96050483941875
 10
15.5603501581096
 20
30.57562989974868
 10
15.561486123650321
 20
31.188866128987321
 10
15.537003791413539
 20
31.80076954468668
 10
15.48689256588084
 20
32.411896164398748
 10
15.411141851533831
 20
33.02280200567553
 10
15.3097410528541
 20
33.634043086068992
 10
15.182679574323229
 20
34.246175423131149
 10
15.029946820422831
 20
34.859755034414007
 10
14.85153219563448
 20
35.475337937469547
 10
14.64742510443979
 20
36.093480149849768
 10
14.465735513116231
 20
36.585786134262939
 10
14.26868642105998
 20
37.069205965580203
 10
14.05658471949255
 20
37.543480414413857
 10
13.82973729963545
 20
38.008350251376193
 10
13.58845105271021
 20
38.463556247079502
 10
13.33303286993832
 20
38.908839172136076
 10
13.0637896425413
 20
39.343939797158221
 10
12.781028261740669
 20
39.76859889275822
 10
12.485055618757929
 20
40.182557229548372
 10
12.1761786048146
 20
40.585555578140948
 10
11.85470411113219
 20
40.977334709148273
 10
11.52093902893222
 20
41.357635393182598
 10
11.175190249436181
 20
41.726198400856262
 10
10.81776466386561
 20
42.082764502781536
 10
10.448969163441999
 20
42.427074469570726
 10
10.06911063938688
 20
42.758869071836102
 10
9.6784959829217456
 20
43.077889080189983
 10
9.2774320852681207
 20
43.383875265244633
 10
8.8662258376475123
 20
43.676568397612357
 10
8.4451841312814331
 20
43.95570924790546
 10
8.0146138573913976
 20
44.221038586736221
 10
7.5748219071989151
 20
44.472297184716943
 10
7.1261151719254991
 20
44.70922581245992
 10
6.6688005427926624
 20
44.931565240577427
 10
6.2031849110219159
 20
45.139056239681771
 10
5.7295751678347733
 20
45.331439580385251
 10
5.2482782044527463
 20
45.508456033300149
 10
4.7596009120973459
 20
45.669846369038758
 10
4.2638501819900858
 20
45.815351358213377
 10
3.7613329053524769
 20
45.944711771436303
 10
3.2523559734060332
 20
46.057668379319807
 10
2.7372262773722649
 20
46.153961952476209
 10
2.034556102933418
 20
46.264757310557371
 10
1.387223301862275
 20
46.348296578833867
 10
0.7833760898643287
 20
46.404938323037378
 10
0.2111626826450701
 20
46.435041108899647
 10
-0.3412687040900085
 20
46.438963502152362
 10
-0.8857698546354152
 20
46.417064068527218
 10
-1.4341925532856581
 20
46.36970137375593
 10
-1.9983885843352449
 20
46.297233983570187
 10
-2.565221330547836
 20
46.204015082266039
 10
-3.1243754946953208
 20
46.092721783259421
 10
-3.6755378257533371
 20
45.963615264166279
 10
-4.2183950726975166
 20
45.816956702602539
 10
-4.7526339845034986
 20
45.653007276184141
 10
-5.2779413101469137
 20
45.472028162527018
 10
-5.7940037986033994
 20
45.274280539247108
 10
-6.3005081988485889
 20
45.060025583960339
 10
-6.7971412598581189
 20
44.82952447428265
 10
-7.2835897306076216
 20
44.583038387829959
 10
-7.7595403600727364
 20
44.320828502218212
 10
-8.2246798972290929
 20
44.043155995063337
 10
-8.6786950910523295
 20
43.750282043981287
 10
-9.1212726905180794
 20
43.442467826587972
 10
-9.5520994446019802
 20
43.119974520499333
 10
-9.9708621022796642
 20
42.783063303331303
 10
-10.377247412526771
 20
42.431995352699822
 10
-10.770942124318919
 20
42.067031846220807
 10
-11.151632986631769
 20
41.688433961510228
 10
-11.51900674844094
 20
41.296462876183973
 10
-11.872750158722059
 20
40.891379767858012
 10
-12.21254996645078
 20
40.473445814148249
 10
-12.538092920602731
 20
40.04292219267063
 10
-12.84906577015354
 20
39.600070081041103
 10
-13.14515526407885
 20
39.145150656875572
 10
-13.4260481513543
 20
38.678425097789997
 10
-13.69143118095551
 20
38.200154581400298
 10
-13.940991101858121
 20
37.710600285322407
 10
-14.174414663037769
 20
37.210023387172278
 10
-14.39138861347009
 20
36.698685064565829
 10
-14.591599702130731
 20
36.176846495118987
 10
-14.774734677995299
 20
35.644768856447698
 10
-14.964067124914269
 20
35.013975204007693
 10
-15.125239401753809
 20
34.37457237552092
 10
-15.258282426412199
 20
33.727543466447671
 10
-15.363227116787691
 20
33.07387157224818
 10
-15.44010439077856
 20
32.414539788382733
 10
-15.48894516628307
 20
31.750531210311578
 10
-15.5097803611995
 20
31.082828933494991
 10
-15.502640893426101
 20
30.41241605339324
 10
-15.467557680861161
 20
29.740275665466569
 10
-15.404561641402941
 20
29.06739086517527
 10
-15.313683692949709
 20
28.394744747979569
 10
-15.194954753399729
 20
27.72332040933976
 10
-15.04840574065128
 20
27.054100944716101
 10
-14.874067572602611
 20
26.388069449568849
 10
-14.671971167152011
 20
25.726209019358269
 10
-14.44214744219774
 20
25.069502749544629
 10
-14.37090159605405
 20
24.87834549878346
 10
-15.33009922277075
 20
25.89429670171744
 10
-15.64381079858469
 20
26.2182386669501
 10
-15.96487833477887
 20
26.533448532670551
 10
-16.2927196714971
 20
26.83951841717505
 10
-16.626752648883169
 20
27.136040438759839
 10
-16.966395107080899
 20
27.422606715721159
 10
-17.311064886234071
 20
27.69880936635527
 10
-17.660179826486502
 20
27.964240508958429
 10
-18.013157767981991
 20
28.21849226182686
 10
-18.369416550864329
 20
28.46115674325684
 10
-18.728374015277321
 20
28.6918260715446
 10
-19.08944800136479
 20
28.910092364986401
 10
-19.452056349270499
 20
29.11554774187848
 10
-19.815616899138291
 20
29.307784320517101
 10
-20.17954749111194
 20
29.486394219198498
 10
-20.543265965335252
 20
29.650969556218929
 10
-20.90619016195204
 20
29.801102449874652
 10
-21.45369473859806
 20
30.006320069790799
 10
-22.003144055506539
 20
30.191415485461821
 10
-22.5541240938303
 20
30.356465155382629
 10
-23.106220834722169
 20
30.50154553804812
 10
-23.659020259335001
 20
30.626733091953231
 10
-24.212108348821609
 20
30.73210427559285
 10
-24.765071084334849
 20
30.817735547461901
 10
-25.317494447027531
 20
30.88370336605529
 10
-25.86896441805251
 20
30.93008418986793
 10
-26.419066978562618
 20
30.956954477394738
 10
-26.967388109710679
 20
30.964390687130621
 10
-27.51351379264954
 20
30.95246927757049
 10
-28.057030008532031
 20
30.921266707209259
 10
-28.597522738510971
 20
30.870859434541849
 10
-29.134577963739218
 20
30.801323918063151
 10
-29.667781665369599
 20
30.712736616268081
 10
-30.19671982455494
 20
30.605173987651561
 10
-30.720978422448081
 20
30.478712490708499
 10
-31.240143440201859
 20
30.333428583933809
 10
-31.753800858969111
 20
30.16939872582239
 10
-32.26153665990266
 20
29.986699374869168
 10
-32.762936824155346
 20
29.785406989569051
 10
-33.257587332880021
 20
29.56559802841694
 10
-33.74507416722949
 20
29.327348949907769
 10
-34.224983308356599
 20
29.070736212536421
 10
-34.696900737414197
 20
28.795836274797839
 10
-35.160412435555102
 20
28.502725595186909
 10
-35.615104383932142
 20
28.191480632198559
 10
-36.06056256369817
 20
27.862177844327679
 10
-36.496372956006013
 20
27.514893690069211
 10
-36.922121542008497
 20
27.149704627918041
 10
-37.337394302858478
 20
26.766687116369098
 10
-37.69350361320555
 20
26.41562712641716
 10
-38.040648365996013
 20
26.052265678340309
 10
-38.378080657715557
 20
25.677750538926091
 10
-38.705052584849902
 20
25.293229474962018
 10
-39.020816243884738
 20
24.89985025323562
 10
-39.324623731305799
 20
24.49876064053441
 10
-39.615727143598768
 20
24.091108403645919
 10
-39.893378577249358
 20
23.67804130935766
 10
-40.156830128743287
 20
23.26070712445717
 10
-40.405333894566247
 20
22.840253615731971
 10
-40.638141971203957
 20
22.41782854996957
 10
-40.854506455142129
 20
21.994579693957501
 10
-41.053679442866461
 20
21.571654814483288
 10
-41.234913030862657
 20
21.150201678334462
 10
-41.397459315616423
 20
20.731368052298532
 10
-41.540570393613471
 20
20.31630170316302
 10
-41.734184685845818
 20
19.669384971725481
 10
-41.900263391146439
 20
19.01555914220841
 10
-42.038832439775348
 20
18.356228456056819
 10
-42.149917761992548
 20
17.692797154715731
 10
-42.233545288058053
 20
17.02666947963014
 10
-42.289740948231852
 20
16.359249672245081
 10
-42.318530672773953
 20
15.69194197400555
 10
-42.319940391944343
 20
15.026150626356561
 10
-42.293996036003023
 20
14.36327987074313
 10
-42.240723535210009
 20
13.70473394861027
 10
-42.160148819825309
 20
13.05191710140299
 10
-42.052297820108897
 20
12.406233570566309
 10
-41.917196466320817
 20
11.769087597545241
 10
-41.754870688721027
 20
11.14188342378479
 10
-41.565346417569558
 20
10.526025290729971
 10
-41.460392950118191
 20
10.222789814918739
 10
-41.348649583126402
 20
9.9229174398257953
 10
-41.215175204501783
 20
9.5895212342643426
 10
-41.073360585705437
 20
9.258793945018633
 10
-40.923378753853363
 20
8.9309278808545152
 10
-40.765402736061517
 20
8.6061153505378378
 10
-40.599605559445912
 20
8.2845486628344496
 10
-40.426160251122511
 20
7.966420126510199
 10
-40.24523983820729
 20
7.6519220503309358
 10
-40.057017347816227
 20
7.3412467430625057
 10
-39.861665807065329
 20
7.0345865134707584
 10
-39.659358243070557
 20
6.7321336703215451
 10
-39.450267682947917
 20
6.4340805223807109
 10
-39.234567153813359
 20
6.1406193784141063
 10
-39.01242968278288
 20
5.8519425471875781
 10
-38.784028296972473
 20
5.5682423374669767
 10
-38.549536023498078
 20
5.2897110580181508
 10
-38.309125889475723
 20
5.0165410176069463
 10
-38.062970922021357
 20
4.7489245249992136
 10
-37.811244148250992
 20
4.4870538889608014
 10
-37.554118595280578
 20
4.2311214182575592
 10
-37.291767290226133
 20
3.9813194216553351
 10
-37.0243632602036
 20
3.7378402079199762
 10
-36.752079532328992
 20
3.5008760858173309
 10
-36.475089133718271
 20
3.2706193641132502
 10
-36.193565091487429
 20
3.0472623515735808
 10
-35.907680432752443
 20
2.830997356964172
 10
-35.61760818462929
 20
2.6220166890508709
 10
-35.323521374233962
 20
2.420512656599529
 10
-35.025593028682437
 20
2.2266775683759921
 10
-34.72399617509069
 20
2.0407037331461089
 10
-34.418903840574707
 20
1.86278345967573
 10
-34.110489052250472
 20
1.6931090567307019
 10
-33.798924837233969
 20
1.5318728330768749
 10
-33.342114994459003
 20
1.318048277099694
 10
-32.821147964859932
 20
1.1000858877496871
 10
-32.257127831273642
 20
0.8850571240051505
 10
-31.671158676537019
 20
0.6800334448443843
 10
-31.084344583486931
 20
0.4920863092456866
 10
-30.51778963496027
 20
0.3282871761873559
 10
-29.99259791379389
 20
0.1957075046476905
 10
-29.529873502824699
 20
0.1014187536049889
 10
-28.650136305730609
 20
-0.0494394356187584
 10
-29.95767155919134
 20
-0.3393247772301535
 10
-30.46988804729472
 20
-0.461321484993601
 10
-30.974907255047722
 20
-0.5984853331289637
 10
-31.472482569993169
 20
-0.7505965280571246
 10
-31.9623673796739
 20
-0.9174352761989668
 10
-32.444315071632737
 20
-1.0987817839753731
 10
-32.918079033412504
 20
-1.2944162578072269
 10
-33.383412652556032
 20
-1.504118904115411
 10
-33.840069316606147
 20
-1.7276699293208091
 10
-34.28780241310568
 20
-1.964849539844302
 10
-34.726365329597463
 20
-2.2154379421067758
 10
-35.1555114536243
 20
-2.4792153425291121
 10
-35.574994172729042
 20
-2.7559619475321928
 10
-35.984566874454508
 20
-3.045457963536903
 10
-36.383982946343529
 20
-3.3474835969641248
 10
-36.772995775938931
 20
-3.6618190542347411
 10
-37.151358750783537
 20
-3.9882445417696339
 10
-37.518825258420179
 20
-4.3265402659896894
 10
-37.875148686391682
 20
-4.6764864333157874
 10
-38.220082422240893
 20
-5.0378632501688134
 10
-38.553379853510613
 20
-5.4104509229696474
 10
-38.874794367743668
 20
-5.7940296581391753
 10
-39.184079352482897
 20
-6.1883796620982787
 10
-39.480988195271152
 20
-6.5932811412678412
 10
-39.765274283651223
 20
-7.008514302068745
 10
-40.036691005165949
 20
-7.4338593509218747
 10
-40.294991747358146
 20
-7.8690964942481108
 10
-40.539929897770683
 20
-8.3140059384683394
 10
-40.771258843946327
 20
-8.7683678900034412
 10
-40.98873197342796
 20
-9.2319625552743005
 10
-41.192102673758377
 20
-9.7045701407018008
 10
-41.381124332480432
 20
-10.18597085270682
 10
-41.555550337136928
 20
-10.67594489771025
 10
-41.665718133212522
 20
-11.014282399146589
 10
-41.767668401012543
 20
-11.35313365514655
 10
-41.861401891517133
 20
-11.692483549075909
 10
-41.94691935570642
 20
-12.032316964300479
 10
-42.024221544560547
 20
-12.372618784186059
 10
-42.093309209059647
 20
-12.713373892098449
 10
-42.154183100183857
 20
-13.054567171403439
 10
-42.206843968913333
 20
-13.396183505466849
 10
-42.251292566228187
 20
-13.73820777765447
 10
-42.28752964310857
 20
-14.080624871332089
 10
-42.315555950534623
 20
-14.423419669865529
 10
-42.335372239486468
 20
-14.76657705662058
 10
-42.346979260944252
 20
-15.11008191496304
 10
-42.350377765888112
 20
-15.453919128258709
 10
-42.345568505298189
 20
-15.798073579873391
 10
-42.332552230154619
 20
-16.142530153172871
 10
-42.311329691437543
 20
-16.487273731522979
 10
-42.281901640127067
 20
-16.832289198289491
 10
-42.244268827203378
 20
-17.177561436838211
 10
-42.198432003646573
 20
-17.523075330534951
 10
-42.144391920436817
 20
-17.868815762745498
 10
-42.08214932855423
 20
-18.214767616835658
 10
-42.011704978978948
 20
-18.560915776171239
 10
-41.933059622691133
 20
-18.90724512411802
 10
-41.846214010670877
 20
-19.253740544041811
 10
-41.751168893898367
 20
-19.60038691930842
 10
-41.647925023353707
 20
-19.947169133283651
 10
-41.536483150017062
 20
-20.294072069333289
 10
-41.416844024868553
 20
-20.641080610823131
 10
-41.289008398888313
 20
-20.988179641119
 10
-41.152977023056472
 20
-21.33535404358668
 10
-41.008750648353193
 20
-21.682588701591971
 10
-40.818989136767037
 20
-22.114728399390611
 10
-40.626566231325633
 20
-22.528161502252932
 10
-40.430429731064613
 20
-22.924352208632261
 10
-40.229527435019612
 20
-23.304764716981961
 10
-40.022807142226299
 20
-23.670863225755351
 10
-39.809216651720362
 20
-24.024111933405791
 10
-39.587703762537423
 20
-24.365975038386619
 10
-39.357216273713142
 20
-24.697916739151161
 10
-39.116701984283182
 20
-25.02140123415278
 10
-38.865108693283197
 20
-25.33789272184481
 10
-38.60138419974885
 20
-25.648855400680581
 10
-38.324476302715787
 20
-25.955753469113461
 10
-38.033332801219679
 20
-26.26005112559676
 10
-37.726901494296172
 20
-26.56321256858385
 10
-37.404130180980921
 20
-26.86670199652805
 10
-37.063966660309603
 20
-27.171983607882709
 10
-36.687229798674053
 20
-27.493519884137879
 10
-36.30470792454998
 20
-27.80159853656701
 10
-35.916559044380733
 20
-28.09618130281088
 10
-35.522941164609684
 20
-28.37722992051027
 10
-35.12401229168016
 20
-28.644706127305959
 10
-34.719930432035547
 20
-28.898571660838751
 10
-34.310853592119201
 20
-29.138788258749411
 10
-33.896939778374467
 20
-29.36531765867873
 10
-33.478346997244707
 20
-29.578121598267501
 10
-33.055233255173313
 20
-29.777161815156489
 10
-32.627756558603608
 20
-29.962400046986481
 10
-32.196074913978961
 20
-30.133798031398278
 10
-31.760346327742731
 20
-30.291317506032659
 10
-31.32072880633828
 20
-30.434920208530389
 10
-30.87738035620896
 20
-30.56456787653228
 10
-30.43045898379814
 20
-30.680222247679101
 10
-29.98012269554917
 20
-30.78184505961163
 10
-29.526529497905411
 20
-30.869398049970659
 10
-29.069837397310231
 20
-30.942842956396969
 10
-28.610204400206982
 20
-31.002141516531349
 10
-28.147788513039021
 20
-31.04725546801458
 10
-27.682747742249699
 20
-31.07814654848745
 10
-27.2152400942824
 20
-31.094776495590729
 10
-26.74542357558046
 20
-31.09710704696522
 10
-26.27345619258724
 20
-31.085099940251691
 10
-25.79949595174612
 20
-31.05871691309094
 10
-25.32370085950043
 20
-31.017919703123749
 10
-24.846228922293559
 20
-30.962670047990891
 10
-24.367238146568841
 20
-30.892929685333151
 10
-23.886886538769652
 20
-30.808660352791328
 10
-23.40533210533934
 20
-30.70982378800619
 10
-22.922732852721271
 20
-30.596381728618528
 10
-22.410816224227538
 20
-30.463229482364891
 10
-21.949028976206311
 20
-30.330904168889489
 10
-21.52274169155384
 20
-30.19374218229833
 10
-21.117324953166399
 20
-30.04607991669744
 10
-20.718149343940251
 20
-29.882253766192861
 10
-20.31058544677165
 20
-29.696600124890619
 10
-19.88000384455686
 20
-29.483455386896729
 10
-19.41177512019215
 20
-29.23715594631723
 10
-18.909354330168359
 20
-28.95821528446778
 10
-18.452436554247289
 20
-28.684369496679238
 10
-18.025274977035512
 20
-28.403636924017601
 10
-17.612122783139611
 20
-28.104035907548891
 10
-17.197233157166199
 20
-27.773584788339111
 10
-16.764859283721851
 20
-27.400301907454281
 10
-16.29925434741315
 20
-26.972205605960401
 10
-15.784671532846721
 20
-26.4773142249235
 10
-14.53771289537714
 20
-25.257932611336631
 10
-14.53771289537713
 20
-25.354682337546539
 10
-14.56139711648321
 20
-25.470431041402261
 10
-14.62588385711857
 20
-25.714067844641651
 10
-14.83786936087991
 20
-26.442261044043669
 10
-15.003096569470941
 20
-27.02937288500263
 10
-15.145200401854471
 20
-27.622751511992259
 10
-15.26419540036737
 20
-28.221272095302002
 10
-15.36009610734653
 20
-28.823809805221291
 10
-15.432917065128841
 20
-29.42923981203958
 10
-15.48267281605118
 20
-30.03643728604629
 10
-15.50937790245044
 20
-30.644277397530871
 10
-15.51304686666351
 20
-31.25163531678276
 10
-15.49369425102728
 20
-31.857386214091392
 10
-15.451334597878621
 20
-32.460405259746203
 10
-15.38598244955444
 20
-33.059567624036632
 10
-15.29765234839161
 20
-33.65374847725213
 10
-15.186358836727029
 20
-34.24182298968212
 10
-15.05211645689757
 20
-34.822666331616063
 10
-14.89493975124013
 20
-35.395153673343373
 10
-14.714843262091589
 20
-35.958160185153488
 10
-14.524979827748419
 20
-36.48255656089492
 10
-14.31920639824841
 20
-36.996520542395601
 10
-14.097801420770191
 20
-37.499820747030327
 10
-13.86104334249239
 20
-37.992225792173883
 10
-13.60921061059363
 20
-38.473504295201032
 10
-13.34258167225253
 20
-38.94342487348657
 10
-13.0614349746477
 20
-39.401756144405269
 10
-12.76604896495779
 20
-39.848266725331897
 10
-12.456702090361389
 20
-40.282725233641237
 10
-12.13367279803715
 20
-40.704900286708103
 10
-11.79723953516368
 20
-41.114560501907221
 10
-11.447680748919611
 20
-41.511474496613403
 10
-11.08527488648355
 20
-41.895410888201432
 10
-10.710300395034119
 20
-42.266138294046058
 10
-10.323035721749971
 20
-42.623425331522093
 10
-9.9237593138096916
 20
-42.967040618004297
 10
-9.5127496183919238
 20
-43.296752770867457
 10
-9.090285082675285
 20
-43.61233040748634
 10
-8.656644153838398
 20
-43.913542145235738
 10
-8.2121052790598874
 20
-44.200156601490427
 10
-7.7569469055183733
 20
-44.471942393625199
 10
-7.2914474803924776
 20
-44.728668139014808
 10
-6.815885450860824
 20
-44.970102455034052
 10
-6.3305392641020344
 20
-45.196013959057687
 10
-5.8356873672947334
 20
-45.406171268460533
 10
-5.3316082076175402
 20
-45.600343000617329
 10
-4.8185802322490776
 20
-45.778297772902867
 10
-4.2968818883679711
 20
-45.939804202691953
 10
-3.7667916231528409
 20
-46.084630907359333
 10
-3.228587883782311
 20
-46.212546504279793
 10
-2.682549117435002
 20
-46.323319610828108
 10
-2.1289537712895381
 20
-46.416718844379083
 10
-1.77704319335793
 20
-46.465209271394201
 10
-1.4221847926945179
 20
-46.504242265006873
 10
-1.064410548692001
 20
-46.533819743909532
 10
-0.7037524407430835
 20
-46.553943626794691
 10
-0.3402424482404659
 20
-46.564615832354818
 10
0.0260874494231497
 20
-46.565838279282389
 10
0.3952052728550615
 20
-46.557612886269879
 10
0.7670790426625676
 20
-46.539941572009759
 10
1.1416767794529661
 20
-46.512826255194497
 10
1.518966503833556
 20
-46.47626885451659
 10
1.8989162364116341
 20
-46.4302712886685
 10
2.2814939977944988
 20
-46.374835476342703
 10
2.6666678085894491
 20
-46.309963336231682
 10
3.054405689403783
 20
-46.235656787027892
 10
3.444675660844799
 20
-46.151917747423838
  0
ENDSEC
  0
SECTION
  2
OBJECTS
  0
DICTIONARY
  5
C
100
AcDbDictionary
280
0
281
1
  3
ACAD_GROUP
350
D
  3
ACAD_LAYOUT
350
1A
  3
ACAD_MLINESTYLE
350
17
  3
ACAD_PLOTSETTINGS
350
19
  3
ACAD_PLOTSTYLENAME
350
E
  3
AcDbVariableDictionary
350
45
  0
DICTIONARY
  5
D
100
AcDbDictionary
280
0
281
1
  0
ACDBDICTIONARYWDFLT
  5
E
100
AcDbDictionary
281
1
  3
Normal
350
F
100
AcDbDictionaryWithDefault
340
F
  0
ACDBPLACEHOLDER
  5
F
  0
DICTIONARY
  5
17
100
AcDbDictionary
280
0
281
1
  3
Standard
350
18
  0
MLINESTYLE
  5
18
100
AcDbMlineStyle
  2
STANDARD
 70
0
  3

 62
256
 51
90.0
 52
90.0
 71
2
 49
0.5
 62
256
  6
BYLAYER
 49
-0.5
 62
256
  6
BYLAYER
  0
DICTIONARY
  5
19
100
AcDbDictionary
280
0
281
1
  0
DICTIONARY
  5
1A
100
AcDbDictionary
281
1
  3
Layout1
350
1E
  3
Layout2
350
26
  3
Model
350
22
  0
LAYOUT
  5
1E
100
AcDbPlotSettings
  1

  2
C:\Program Files\AutoCAD 2002\plotters\DWF ePlot (optimized for plotting).pc3
  4

  6

 40
0.0
 41
0.0
 42
0.0
 43
0.0
 44
0.0
 45
0.0
 46
0.0
 47
0.0
 48
0.0
 49
0.0
140
0.0
141
0.0
142
1.0
143
1.0
 70
688
 72
0
 73
0
 74
5
  7

 75
16
147
1.0
148
0.0
149
0.0
100
AcDbLayout
  1
Layout1
 70
1
 71
1
 10
0.0
 20
0.0
 11
420.0
 21
297.0
 12
0.0
 22
0.0
 32
0.0
 14
100000000000000000000.0
 24
100000000000000000000.0
 34
100000000000000000000.0
 15
-100000000000000000000.0
 25
-100000000000000000000.0
 35
-100000000000000000000.0
146
0.0
 13
0.0
 23
0.0
 33
0.0
 16
1.0
 26
0.0
 36
0.0
 17
0.0
 27
1.0
 37
0.0
 76
0
330
1B
  0
LAYOUT
  5
22
100
AcDbPlotSettings
  1

  2
C:\Program Files\AutoCAD 2002\plotters\DWF ePlot (optimized for plotting).pc3
  4

  6

 40
0.0
 41
0.0
 42
0.0
 43
0.0
 44
0.0
 45
0.0
 46
0.0
 47
0.0
 48
0.0
 49
0.0
140
0.0
141
0.0
142
1.0
143
1.0
 70
1712
 72
0
 73
0
 74
0
  7

 75
0
147
1.0
148
0.0
149
0.0
100
AcDbLayout
  1
Model
 70
1
 71
0
 10
0.0
 20
0.0
 11
12.0
 21
9.0
 12
0.0
 22
0.0
 32
0.0
 14
0.0
 24
0.0
 34
0.0
 15
0.0
 25
0.0
 35
0.0
146
0.0
 13
0.0
 23
0.0
 33
0.0
 16
1.0
 26
0.0
 36
0.0
 17
0.0
 27
1.0
 37
0.0
 76
0
330
1F
  0
LAYOUT
  5
26
100
AcDbPlotSettings
  1

  2
C:\Program Files\AutoCAD 2002\plotters\DWF ePlot (optimized for plotting).pc3
  4

  6

 40
0.0
 41
0.0
 42
0.0
 43
0.0
 44
0.0
 45
0.0
 46
0.0
 47
0.0
 48
0.0
 49
0.0
140
0.0
141
0.0
142
1.0
143
1.0
 70
688
 72
0
 73
0
 74
5
  7

 75
16
147
1.0
148
0.0
149
0.0
100
AcDbLayout
  1
Layout2
 70
1
 71
2
 10
0.0
 20
0.0
 11
12.0
 21
9.0
 12
0.0
 22
0.0
 32
0.0
 14
0.0
 24
0.0
 34
0.0
 15
0.0
 25
0.0
 35
0.0
146
0.0
 13
0.0
 23
0.0
 33
0.0
 16
1.0
 26
0.0
 36
0.0
 17
0.0
 27
1.0
 37
0.0
 76
0
330
23
  0
DICTIONARY
  5
45
100
AcDbDictionary
281
1
  3
DIMASSOC
350
47
  3
HIDETEXT
350
46
  0
DICTIONARYVAR
  5
46
100
DictionaryVariables
280
0
  1
2
  0
DICTIONARYVAR
  5
47
100
DictionaryVariables
280
0
  1
1
  0
ENDSEC
  0
EOF
