999
dxflib 2.0.4.8
  0
SECTION
  2
HEADER
  9
$ACADVER
  1
AC1015
  9
$HANDSEED
  5
FFFF
  9
$USERR4
 40
0.0
  9
$DIMTAD
 70
0
  9
$VISRETAIN
 70
1
  9
$TILEMODE
 70
1
  9
$SHADEDIF
 70
70
  9
$USERR5
 40
0.0
  9
$UCSYDIR
 10
0.0
 20
1.0
 30
0.0
  9
$ATTREQ
 70
1
  9
$CHAMFERA
 40
0.5
  9
$MENU
  1
.
  9
$CLAYER
  8
0
  9
$UCSXDIR
 10
1.0
 20
0.0
 30
0.0
  9
$CHAMFERB
 40
0.5
  9
$DIMASZ
 40
0.18
  9
$TRACEWID
 40
0.05
  9
$REGENMODE
 70
1
  9
$ORTHOMODE
 70
0
  9
$EXTMIN
 10
-42.350377765888112
 20
-46.565838279282389
 30
0.0
  9
$PUCSYDIR
 10
0.0
 20
1.0
 30
0.0
  9
$ANGBASE
 50
0.0
  9
$USRTIMER
 70
1
  9
$SKETCHINC
 40
0.1
  9
$DIMGAP
 40
0.09
  9
$DIMTFAC
 40
1.0
  9
$DIMSAH
 70
0
  9
$DIMALT
 70
0
  9
$DIMSHO
 70
1
  9
$PUCSXDIR
 10
1.0
 20
0.0
 30
0.0
  9
$SURFTYPE
 70
6
  9
$SPLFRAME
 70
0
  9
$DIMTSZ
 40
0.0
  9
$LIMMIN
 10
0.0
 20
0.0
  9
$SURFTAB1
 70
6
  9
$SPLINESEGS
 70
8
  9
$AUPREC
 70
0
  9
$LUNITS
 70
2
  9
$DWGCODEPAGE
  3
ansi_1252
  9
$UNITMODE
 70
0
  9
$USERI1
 70
0
  9
$SURFTAB2
 70
6
  9
$SKPOLY
 70
0
  9
$ELEVATION
 40
0.0
  9
$DIMCEN
 40
0.09
  9
$DIMRND
 40
0.0
  9
$INSBASE
 10
0.0
 20
0.0
 30
0.0
  9
$USERI2
 70
0
  9
$UCSORG
 10
0.0
 20
0.0
 30
0.0
  9
$PELEVATION
 40
0.0
  9
$DIMEXO
 40
0.0625
  9
$TEXTSIZE
 40
0.2
  9
$DRAGMODE
 70
2
  9
$FILLMODE
 70
1
  9
$EXTMAX
 10
42.392686798772182
 20
46.438963502152362
 30
0.0
  9
$INSUNITS
 70
4
  9
$USERI3
 70
0
  9
$SURFU
 70
6
  9
$ANGDIR
 70
0
  9
$TDUSRTIMER
 40
0.0000000116
  9
$DIMZIN
 70
0
  9
$DIMDLE
 40
0.0
  9
$DIMSCALE
 40
1.0
  9
$WORLDVIEW
 70
1
  9
$USERI4
 70
0
  9
$SURFV
 70
6
  9
$OSMODE
 70
37
  9
$QTEXTMODE
 70
0
  9
$LIMMAX
 10
12.0
 20
9.0
  9
$USERI5
 70
0
  9
$HANDLING
 70
1
  9
$PDMODE
 70
0
  9
$LIMCHECK
 70
0
  9
$THICKNESS
 40
0.0
  9
$DIMSE1
 70
0
  9
$DIMLIM
 70
0
  9
$DIMTXT
 40
0.18
  9
$ATTMODE
 70
1
  9
$PEXTMAX
 10
-100000000000000000000.0
 20
-100000000000000000000.0
 30
-100000000000000000000.0
  9
$PEXTMIN
 10
100000000000000000000.0
 20
100000000000000000000.0
 30
100000000000000000000.0
  9
$PUCSORG
 10
0.0
 20
0.0
 30
0.0
  9
$SPLINETYPE
 70
6
  9
$TDINDWG
 40
0.0000000116
  9
$LUPREC
 70
4
  9
$DIMSOXD
 70
0
  9
$DIMLFAC
 40
1.0
  9
$DIMSE2
 70
0
  9
$DIMTOH
 70
1
  9
$CELTYPE
  6
BYLAYER
  9
$PLIMCHECK
 70
0
  9
$PLINEWID
 40
0.0
  9
$DIMSTYLE
  2
STANDARD
  9
$DIMTVP
 40
0.0
  9
$DIMASO
 70
1
  9
$DIMTM
 40
0.0
  9
$DIMDLI
 40
0.38
  9
$CECOLOR
 62
256
  9
$PLIMMAX
 10
12.0
 20
9.0
  9
$PLIMMIN
 10
0.0
 20
0.0
  9
$MAXACTVP
 70
64
  9
$TDUPDATE
 40
2456285.8543871408
  9
$FILLETRAD
 40
0.5
  9
$DIMCLRT
 70
0
  9
$DIMALTD
 70
2
  9
$DIMTIH
 70
1
  9
$LTSCALE
 40
1.0
  9
$USERR1
 40
0.0
  9
$ATTDIA
 70
0
  9
$PDSIZE
 40
0.0
  9
$DIMCLRD
 70
0
  9
$DIMEXE
 40
0.18
  9
$PSLTSCALE
 70
1
  9
$PLINEGEN
 70
0
  9
$SHADEDGE
 70
3
  9
$USERR2
 40
0.0
  9
$COORDS
 70
1
  9
$TDCREATE
 40
2454910.5
  9
$DIMCLRE
 70
0
  9
$DIMTOFL
 70
0
  9
$DIMALTF
 40
25.399999999999999
  9
$DIMTOL
 70
0
  9
$DIMTP
 40
0.0
  9
$TEXTSTYLE
  7
STANDARD
  9
$USERR3
 40
0.0
  9
$AUNITS
 70
0
  9
$DIMTIX
 70
0
  9
$MIRRTEXT
 70
1
  0
ENDSEC
  0
SECTION
  2
TABLES
  0
TABLE
  2
VPORT
  5
8
100
AcDbSymbolTable
 70
1
  0
VPORT
  5
30
100
AcDbSymbolTableRecord
100
AcDbViewportTableRecord
  2
*Active
 70
0
 10
0.0
 20
0.0
 11
1.0
 21
1.0
 12
286.30555555555549
 22
148.5
 13
0.0
 23
0.0
 14
10.0
 24
10.0
 15
10.0
 25
10.0
 16
0.0
 26
0.0
 36
1.0
 17
0.0
 27
0.0
 37
0.0
 40
297.0
 41
1.92798353909465
 42
50.0
 43
0.0
 44
0.0
 50
0.0
 51
0.0
 71
0
 72
100
 73
1
 74
3
 75
1
 76
1
 77
0
 78
0
281
0
 65
1
110
0.0
120
0.0
130
0.0
111
1.0
121
0.0
131
0.0
112
0.0
122
1.0
132
0.0
 79
0
146
0.0
  0
ENDTAB
  0
TABLE
  2
LTYPE
  5
5
100
AcDbSymbolTable
 70
21
  0
LTYPE
  5
14
100
AcDbSymbolTableRecord
100
AcDbLinetypeTableRecord
  2
ByBlock
 70
0
  3

 72
65
 73
0
 40
0.0
  0
LTYPE
  5
15
100
AcDbSymbolTableRecord
100
AcDbLinetypeTableRecord
  2
ByLayer
 70
0
  3

 72
65
 73
0
 40
0.0
  0
LTYPE
  5
16
100
AcDbSymbolTableRecord
100
AcDbLinetypeTableRecord
  2
CONTINUOUS
 70
0
  3
Solid line
 72
65
 73
0
 40
0.0
  0
LTYPE
  5
31
100
AcDbSymbolTableRecord
100
AcDbLinetypeTableRecord
  2
DOT
 70
0
  3
Dot . . . . . . . . . . . . . . . . . . . . . .
 72
65
 73
2
 40
6.3499999999999996
 49
0.0
 74
0
 49
-6.3499999999999996
 74
0
  0
LTYPE
  5
32
100
AcDbSymbolTableRecord
100
AcDbLinetypeTableRecord
  2
DOT2
 70
0
  3
Dot (.5x) .....................................
 72
65
 73
2
 40
3.1749999999999998
 49
0.0
 74
0
 49
-3.1749999999999998
 74
0
  0
LTYPE
  5
33
100
AcDbSymbolTableRecord
100
AcDbLinetypeTableRecord
  2
DOTX2
 70
0
  3
Dot (2x) .  .  .  .  .  .  .  .  .  .  .  .  .
 72
65
 73
2
 40
12.699999999999999
 49
0.0
 74
0
 49
-12.699999999999999
 74
0
  0
LTYPE
  5
34
100
AcDbSymbolTableRecord
100
AcDbLinetypeTableRecord
  2
DASHED
 70
0
  3
Dashed __ __ __ __ __ __ __ __ __ __ __ __ __ _
 72
65
 73
2
 40
19.050000000000001
 49
12.699999999999999
 74
0
 49
-6.3499999999999996
 74
0
  0
LTYPE
  5
35
100
AcDbSymbolTableRecord
100
AcDbLinetypeTableRecord
  2
DASHED2
 70
0
  3
Dashed (.5x) _ _ _ _ _ _ _ _ _ _ _ _ _ _ _ _ _
 72
65
 73
2
 40
9.5250000000000004
 49
6.3499999999999996
 74
0
 49
-3.1749999999999998
 74
0
  0
LTYPE
  5
36
100
AcDbSymbolTableRecord
100
AcDbLinetypeTableRecord
  2
DASHEDX2
 70
0
  3
Dashed (2x) ____  ____  ____  ____  ____  ___
 72
65
 73
2
 40
38.100000000000001
 49
25.399999999999999
 74
0
 49
-12.699999999999999
 74
0
  0
LTYPE
  5
37
100
AcDbSymbolTableRecord
100
AcDbLinetypeTableRecord
  2
DASHDOT
 70
0
  3
Dash dot __ . __ . __ . __ . __ . __ . __ . __
 72
65
 73
4
 40
25.399999999999999
 49
12.699999999999999
 74
0
 49
-6.3499999999999996
 74
0
 49
0.0
 74
0
 49
-6.3499999999999996
 74
0
  0
LTYPE
  5
38
100
AcDbSymbolTableRecord
100
AcDbLinetypeTableRecord
  2
DASHDOT2
 70
0
  3
Dash dot (.5x) _._._._._._._._._._._._._._._.
 72
65
 73
4
 40
12.699999999999999
 49
6.3499999999999996
 74
0
 49
-3.1749999999999998
 74
0
 49
0.0
 74
0
 49
-3.1749999999999998
 74
0
  0
LTYPE
  5
39
100
AcDbSymbolTableRecord
100
AcDbLinetypeTableRecord
  2
DASHDOTX2
 70
0
  3
Dash dot (2x) ____  .  ____  .  ____  .  ___
 72
65
 73
4
 40
50.799999999999997
 49
25.399999999999999
 74
0
 49
-12.699999999999999
 74
0
 49
0.0
 74
0
 49
-12.699999999999999
 74
0
  0
LTYPE
  5
3A
100
AcDbSymbolTableRecord
100
AcDbLinetypeTableRecord
  2
DIVIDE
 70
0
  3
Divide ____ . . ____ . . ____ . . ____ . . ____
 72
65
 73
6
 40
31.75
 49
12.699999999999999
 74
0
 49
-6.3499999999999996
 74
0
 49
0.0
 74
0
 49
-6.3499999999999996
 74
0
 49
0.0
 74
0
 49
-6.3499999999999996
 74
0
  0
LTYPE
  5
3B
100
AcDbSymbolTableRecord
100
AcDbLinetypeTableRecord
  2
DIVIDE2
 70
0
  3
Divide (.5x) __..__..__..__..__..__..__..__.._
 72
65
 73
6
 40
15.875
 49
6.3499999999999996
 74
0
 49
-3.1749999999999998
 74
0
 49
0.0
 74
0
 49
-3.1749999999999998
 74
0
 49
0.0
 74
0
 49
-3.1749999999999998
 74
0
  0
LTYPE
  5
3C
100
AcDbSymbolTableRecord
100
AcDbLinetypeTableRecord
  2
DIVIDEX2
 70
0
  3
Divide (2x) ________  .  .  ________  .  .  _
 72
65
 73
6
 40
63.5
 49
25.399999999999999
 74
0
 49
-12.699999999999999
 74
0
 49
0.0
 74
0
 49
-12.699999999999999
 74
0
 49
0.0
 74
0
 49
-12.699999999999999
 74
0
  0
LTYPE
  5
3D
100
AcDbSymbolTableRecord
100
AcDbLinetypeTableRecord
  2
CENTER
 70
0
  3
Center ____ _ ____ _ ____ _ ____ _ ____ _ ____
 72
65
 73
4
 40
50.799999999999997
 49
31.75
 74
0
 49
-6.3499999999999996
 74
0
 49
6.3499999999999996
 74
0
 49
-6.3499999999999996
 74
0
  0
LTYPE
  5
3E
100
AcDbSymbolTableRecord
100
AcDbLinetypeTableRecord
  2
CENTER2
 70
0
  3
Center (.5x) ___ _ ___ _ ___ _ ___ _ ___ _ ___
 72
65
 73
4
 40
28.574999999999999
 49
19.050000000000001
 74
0
 49
-3.1749999999999998
 74
0
 49
3.1749999999999998
 74
0
 49
-3.1749999999999998
 74
0
  0
LTYPE
  5
3F
100
AcDbSymbolTableRecord
100
AcDbLinetypeTableRecord
  2
CENTERX2
 70
0
  3
Center (2x) ________  __  ________  __  _____
 72
65
 73
4
 40
101.59999999999999
 49
63.5
 74
0
 49
-12.699999999999999
 74
0
 49
12.699999999999999
 74
0
 49
-12.699999999999999
 74
0
  0
LTYPE
  5
40
100
AcDbSymbolTableRecord
100
AcDbLinetypeTableRecord
  2
BORDER
 70
0
  3
Border __ __ . __ __ . __ __ . __ __ . __ __ .
 72
65
 73
6
 40
44.450000000000003
 49
12.699999999999999
 74
0
 49
-6.3499999999999996
 74
0
 49
12.699999999999999
 74
0
 49
-6.3499999999999996
 74
0
 49
0.0
 74
0
 49
-6.3499999999999996
 74
0
  0
LTYPE
  5
41
100
AcDbSymbolTableRecord
100
AcDbLinetypeTableRecord
  2
BORDER2
 70
0
  3
Border (.5x) __.__.__.__.__.__.__.__.__.__.__.
 72
65
 73
6
 40
22.225000000000001
 49
6.3499999999999996
 74
0
 49
-3.1749999999999998
 74
0
 49
6.3499999999999996
 74
0
 49
-3.1749999999999998
 74
0
 49
0.0
 74
0
 49
-3.1749999999999998
 74
0
  0
LTYPE
  5
42
100
AcDbSymbolTableRecord
100
AcDbLinetypeTableRecord
  2
BORDERX2
 70
0
  3
Border (2x) ____  ____  .  ____  ____  .  ___
 72
65
 73
6
 40
88.900000000000006
 49
25.399999999999999
 74
0
 49
-12.699999999999999
 74
0
 49
25.399999999999999
 74
0
 49
-12.699999999999999
 74
0
 49
0.0
 74
0
 49
-12.699999999999999
 74
0
  0
ENDTAB
  0
TABLE
  2
LAYER
  5
2
100
AcDbSymbolTable
 70
2
  0
LAYER
  5
10
100
AcDbSymbolTableRecord
100
AcDbLayerTableRecord
  2
0
 70
0
 62
7
  6
CONTINUOUS
390
F
  0
LAYER
  5
43
100
AcDbSymbolTableRecord
100
AcDbLayerTableRecord
  2
LAYER_1
 70
0
 62
9
  6
CONTINUOUS
370
-3
390
F
  0
ENDTAB
  0
TABLE
  2
STYLE
  5
3
100
AcDbSymbolTable
 70
1
  0
STYLE
  5
11
100
AcDbSymbolTableRecord
100
AcDbTextStyleTableRecord
  2
Standard
 70
0
 40
0.0
 41
0.75
 50
0.0
 71
0
 42
2.5
  3
txt
  4

  0
ENDTAB
  0
TABLE
  2
VIEW
  5
6
100
AcDbSymbolTable
 70
0
  0
ENDTAB
  0
TABLE
  2
UCS
  5
7
100
AcDbSymbolTable
 70
0
  0
ENDTAB
  0
TABLE
  2
APPID
  5
9
100
AcDbSymbolTable
 70
1
  0
APPID
  5
12
100
AcDbSymbolTableRecord
100
AcDbRegAppTableRecord
  2
ACAD
 70
0
  0
ENDTAB
  0
TABLE
  2
DIMSTYLE
  5
A
100
AcDbSymbolTable
 70
1
100
AcDbDimStyleTable
 71
0
  0
DIMSTYLE
105
27
100
AcDbSymbolTableRecord
100
AcDbDimStyleTableRecord
  2
Standard
 41
0.18
 42
0.0625
 43
3.75
 44
0.18
 70
0
 73
0
 74
0
 77
1
 78
8
140
0.18
141
2.5
143
0.03937007874016
147
0.09
171
3
172
1
271
2
272
2
274
3
278
44
283
0
284
8
340
11
  0
ENDTAB
  0
TABLE
  2
BLOCK_RECORD
  5
1
100
AcDbSymbolTable
 70
1
  0
BLOCK_RECORD
  5
1F
100
AcDbSymbolTableRecord
100
AcDbBlockTableRecord
  2
*Model_Space
340
22
  0
BLOCK_RECORD
  5
1B
100
AcDbSymbolTableRecord
100
AcDbBlockTableRecord
  2
*Paper_Space
340
1E
  0
BLOCK_RECORD
  5
23
100
AcDbSymbolTableRecord
100
AcDbBlockTableRecord
  2
*Paper_Space0
340
26
  0
ENDTAB
  0
ENDSEC
  0
SECTION
  2
BLOCKS
  0
BLOCK
  5
20
100
AcDbEntity
  8
0
100
AcDbBlockBegin
  2
*Model_Space
 70
0
 10
0.0
 20
0.0
 30
0.0
  3
*Model_Space
  1

  0
ENDBLK
  5
21
100
AcDbEntity
  8
0
100
AcDbBlockEnd
  0
BLOCK
  5
1C
100
AcDbEntity
 67
1
  8
0
100
AcDbBlockBegin
  2
*Paper_Space
 70
0
 10
0.0
 20
0.0
 30
0.0
  3
*Paper_Space
  1

  0
ENDBLK
  5
1D
100
AcDbEntity
 67
1
  8
0
100
AcDbBlockEnd
  0
BLOCK
  5
24
100
AcDbEntity
  8
0
100
AcDbBlockBegin
  2
*Paper_Space0
 70
0
 10
0.0
 20
0.0
 30
0.0
  3
*Paper_Space0
  1

  0
ENDBLK
  5
25
100
AcDbEntity
  8
0
100
AcDbBlockEnd
  0
ENDSEC
  0
SECTION
  2
ENTITIES
  0
LWPOLYLINE
  5
44
  8
LAYER_1
 62
256
370
-1
  6
ByLayer
100
AcDbEntity
100
AcDbPolyline
 90
738
 70
1
 10
3.837445743519794
 20
-46.058748136111973
 10
4.3858920387255633
 20
-45.912318177718433
 10
4.9247030622957038
 20
-45.748071351131401
 10
5.4536067815700893
 20
-45.56629570141844
 10
5.9723311638885974
 20
-45.3672792736471
 10
6.480604176591104
 20
-45.151310112884907
 10
6.978153787017483
 20
-44.918676264199412
 10
7.4647079625076111
 20
-44.669665772658149
 10
7.9399946704013642
 20
-44.404566683328653
 10
8.4037418780386179
 20
-44.123667041278473
 10
8.8556775527592464
 20
-43.827254891575159
 10
9.295529661903128
 20
-43.51561827928623
 10
9.7230261728101368
 20
-43.189045249479257
 10
10.13789505282015
 20
-42.847823847221761
 10
10.539864269273041
 20
-42.492242117581277
 10
10.928661789508689
 20
-42.122588105625368
 10
11.30401558086697
 20
-41.739149856421569
 10
11.66565361068775
 20
-41.342215415037423
 10
12.013303846310921
 20
-40.932072826540448
 10
12.34669425507634
 20
-40.50901013599821
 10
12.665552804323889
 20
-40.07331538847825
 10
12.96960746139346
 20
-39.625276629048088
 10
13.258586193624909
 20
-39.165181902775302
 10
13.532216968358121
 20
-38.693319254727413
 10
13.790227752932971
 20
-38.209976729971942
 10
14.03234651468933
 20
-37.715442373576458
 10
14.25830122096707
 20
-37.21000423060849
 10
14.467819839106079
 20
-36.69395034613558
 10
14.66063033644623
 20
-36.167568765225283
 10
14.8364606803274
 20
-35.631147532945128
 10
14.995038838089449
 20
-35.084974694362657
 10
15.136092777072269
 20
-34.529338294545411
 10
15.259350464615739
 20
-33.96452637856094
 10
15.34675536660977
 20
-33.504149487582133
 10
15.4208765002886
 20
-33.058341288343847
 10
15.48163437862274
 20
-32.6248185440406
 10
15.52894951458271
 20
-32.201298017866883
 10
15.562742421139021
 20
-31.785496473017179
 10
15.58293361126217
 20
-31.375130672685991
 10
15.58944359792269
 20
-30.96791738006781
 10
15.58219289409109
 20
-30.561573358357141
 10
15.561102012737869
 20
-30.153815370748461
 10
15.526091466833559
 20
-29.74236018043629
 10
15.47708176934866
 20
-29.324924550615091
 10
15.41399343325368
 20
-28.899225244479378
 10
15.336746971519149
 20
-28.46297902522365
 10
15.24526289711557
 20
-28.01390265604239
 10
15.139461723013451
 20
-27.549712900130089
 10
15.01926396218332
 20
-27.068126520681261
 10
14.585530311072869
 20
-25.42579075425791
 10
14.499049003013701
 20
-25.12165450121654
 10
15.322487563324399
 20
-26.005768103191979
 10
15.742593420333
 20
-26.438059216928121
 10
16.193466454628439
 20
-26.86710721646898
 10
16.668245390463941
 20
-27.287439884583542
 10
17.16006895209275
 20
-27.693585004040798
 10
17.662075863768109
 20
-28.080070357609738
 10
18.167404849743249
 20
-28.441423728059359
 10
18.66919463427141
 20
-28.77217289815863
 10
19.160583941605839
 20
-29.066845650676559
 10
19.568309065722008
 20
-29.290090671003071
 10
19.982180279866679
 20
-29.50035948400518
 10
20.40179153804727
 20
-29.697634237973681
 10
20.82673679427122
 20
-29.881897081199391
 10
21.256610002545941
 20
-30.053130161973112
 10
21.69100511687887
 20
-30.211315628585641
 10
22.129516091277441
 20
-30.356435629327809
 10
22.571736879749071
 20
-30.488472312490391
 10
23.017261436301201
 20
-30.607407826364199
 10
23.46568371494125
 20
-30.713224319240059
 10
23.916597669676641
 20
-30.805903939408761
 10
24.369597254514812
 20
-30.885428835161111
 10
24.824276423463179
 20
-30.951781154787909
 10
25.28022913052919
 20
-31.004943046579971
 10
25.73704932972025
 20
-31.044896658828112
 10
26.194330975043801
 20
-31.071624139823111
 10
26.65166802050727
 20
-31.085107637855799
 10
27.108654420118079
 20
-31.085329301216959
 10
27.564884127883669
 20
-31.07227127819742
 10
28.01995109781145
 20
-31.045915717087968
 10
28.47344928390886
 20
-31.006244766179432
 10
28.924972640183331
 20
-30.953240573762589
 10
29.37411512064228
 20
-30.886885288128259
 10
29.820470679293141
 20
-30.807161057567249
 10
30.263633270143341
 20
-30.714050030370359
 10
30.70319684720031
 20
-30.60753435482841
 10
31.138755364471479
 20
-30.487596179232181
 10
31.56990277596427
 20
-30.35421765187251
 10
31.996233035686121
 20
-30.20738092104018
 10
32.417340097644441
 20
-30.047068135025999
 10
32.832817915846682
 20
-29.873261442120778
 10
33.242260444300243
 20
-29.68594299061532
 10
33.689801363647668
 20
-29.465262519547839
 10
34.12554628943019
 20
-29.236410546200471
 10
34.549576469678229
 20
-28.99932326914065
 10
34.96197315242226
 20
-28.75393688693579
 10
35.362817585692738
 20
-28.500187598153321
 10
35.752191017520111
 20
-28.238011601360679
 10
36.130174695934841
 20
-27.96734509512526
 10
36.496849868967388
 20
-27.68812427801452
 10
36.852297784648201
 20
-27.400285348595851
 10
37.196599691007727
 20
-27.1037645054367
 10
37.529836836076448
 20
-26.798497947104469
 10
37.852090467884807
 20
-26.4844218721666
 10
38.163441834463264
 20
-26.161472479190511
 10
38.463972183842252
 20
-25.829585966743629
 10
38.753762764052247
 20
-25.488698533393372
 10
39.032894823123712
 20
-25.138746377707161
 10
39.396780079667899
 20
-24.658487644097299
 10
39.712049116952137
 20
-24.22010864676059
 10
39.988270899709804
 20
-23.80712771652686
 10
40.235014392674223
 20
-23.4030631842259
 10
40.461848560578723
 20
-22.991433380687528
 10
40.678342368156649
 20
-22.55575663674157
 10
40.894064780141349
 20
-22.079551283217821
 10
41.118584761266163
 20
-21.546335650946109
 10
41.277970914747243
 20
-21.143906909934771
 10
41.426718384648957
 20
-20.74165916613606
 10
41.564827987479283
 20
-20.33965160138111
 10
41.692300539746157
 20
-19.937943397501041
 10
41.809136857957569
 20
-19.53659373632696
 10
41.915337758621469
 20
-19.135661799689991
 10
42.010904058245814
 20
-18.735206769421271
 10
42.095836573338573
 20
-18.335287827351902
 10
42.170136120407697
 20
-17.935964155312998
 10
42.233803515961171
 20
-17.537294935135701
 10
42.286839576506942
 20
-17.139339348651109
 10
42.329245118552947
 20
-16.74215657769037
 10
42.361020958607199
 20
-16.34580580408457
 10
42.382167913177618
 20
-15.950346209664851
 10
42.392686798772182
 20
-15.555836976262331
 10
42.392578431898848
 20
-15.16233728570813
 10
42.381843629065592
 20
-14.76990631983336
 10
42.360483206780359
 20
-14.37860326046914
 10
42.328497981551124
 20
-13.98848728944661
 10
42.28588876988583
 20
-13.599617588596869
 10
42.232656388292448
 20
-13.21205333975105
 10
42.168801653278948
 20
-12.82585372474027
 10
42.094325381353293
 20
-12.441077925395639
 10
42.009228389023427
 20
-12.057785123548291
 10
41.913511492797333
 20
-11.67603450102933
 10
41.807175509182947
 20
-11.295885239669889
 10
41.690221254688247
 20
-10.91739652130109
 10
41.562649545821202
 20
-10.540627527754051
 10
41.424461199089762
 20
-10.165637440859889
 10
41.275657031001899
 20
-9.7924854424497241
 10
41.11623785806556
 20
-9.4212307143546745
 10
40.946204496788717
 20
-9.0519324384058635
 10
40.622355164382611
 20
-8.4005689152857705
 10
40.292021980965252
 20
-7.7971012373609092
 10
40.121924260223032
 20
-7.5098391098576291
 10
39.947205954842829
 20
-7.2303638670662824
 10
39.766867190862897
 20
-6.9572798167912442
 10
39.579908094321553
 20
-6.6891912668368896
 10
39.385328791257017
 20
-6.4247025250075946
 10
39.182129407707592
 20
-6.1624178991077354
 10
38.969310069711547
 20
-5.9009416969416844
 10
38.745870903307157
 20
-5.6388782263138193
 10
38.263133589426452
 20
-5.1074067108901442
 10
37.725918474371618
 20
-4.5568378152717131
 10
36.374695863746958
 20
-3.2134323215409921
 10
35.523114355231137
 20
-2.652206549616146
 10
35.196503430372019
 20
-2.443780092921171
 10
34.856461610409632
 20
-2.2398794901114751
 10
34.504596221986702
 20
-2.04116100721434
 10
34.142514591745979
 20
-1.8482809102570461
 10
33.771824046330202
 20
-1.6618954652668709
 10
33.394131912382093
 20
-1.4826609382710969
 10
33.011045516544428
 20
-1.311233595297002
 10
32.624172185459898
 20
-1.1482697023718671
 10
32.235119245771287
 20
-0.9944255255229721
 10
31.845494024121301
 20
-0.8503573307775967
 10
31.456903847152699
 20
-0.7167213841630207
 10
31.0709560415082
 20
-0.5941739517065242
 10
30.68925793383055
 20
-0.483371299435387
 10
30.313416850762501
 20
-0.3849696933768889
 10
29.945040118946778
 20
-0.29962539955831
 10
29.585735065026132
 20
-0.22799468400693
 10
29.122898082898949
 20
-0.137549824774969
 10
29.013247801783219
 20
-0.1030847949982308
 10
28.989800289100081
 20
-0.0867112615818509
 10
28.987627604671641
 20
-0.0702130992466747
 10
29.00699705575154
 20
-0.0530673455676104
 10
29.048175949593439
 20
-0.0347510381195662
 10
29.19703129457778
 20
0.0074850877838294
 10
29.768216816850948
 20
0.1290143315224199
 10
30.216215393816181
 20
0.2266788841770228
 10
30.65862438570608
 20
0.335683707609285
 10
31.0953134630623
 20
0.4559301823723272
 10
31.526152296426488
 20
0.5873196890192702
 10
31.951010556340279
 20
0.7297536081032346
 10
32.369757913345317
 20
0.8831333201773413
 10
32.782264037983282
 20
1.0473602057947109
 10
33.188398600795772
 20
1.2223356455084631
 10
33.588031272324457
 20
1.4079610198717201
 10
33.981031723110974
 20
1.604137709437601
 10
34.367269623696977
 20
1.810767094759228
 10
34.74661464462411
 20
2.0277505563897211
 10
35.118936456434007
 20
2.2549894748822008
 10
35.484104729668331
 20
2.4923852307897891
 10
35.841989134868719
 20
2.7398392046656039
 10
36.192459342576818
 20
2.9972527770627679
 10
36.535385023334271
 20
3.2645273285344021
 10
36.870635847682721
 20
3.541564239633626
 10
37.198081486163822
 20
3.828264890913561
 10
37.517591609319197
 20
4.1245306629273264
 10
37.829035887690523
 20
4.4302629362280452
 10
38.132283991819421
 20
4.7453630913688354
 10
38.42720559224756
 20
5.0697325089028196
 10
38.713670359516563
 20
5.4032725693831187
 10
38.991547964168078
 20
5.745884653362852
 10
39.260708076743782
 20
6.0974701413951404
 10
39.521020367785269
 20
6.4579304140331057
 10
39.772354507834223
 20
6.827166851829868
 10
40.014580167432271
 20
7.2050808353385474
 10
40.247567017121071
 20
7.5915737451122656
 10
40.471184727442257
 20
7.9865469617041409
 10
40.685302968937492
 20
8.3899018656672979
 10
40.91313524899352
 20
8.8439156254776865
 10
41.120841599561977
 20
9.2808029268268761
 10
41.309151405839273
 20
9.7036521985470028
 10
41.478794053021723
 20
10.115551869470201
 10
41.630498926305712
 20
10.519590368428601
 10
41.764995410887593
 20
10.91885612425434
 10
41.883012891963759
 20
11.31643756577955
 10
41.985280754730567
 20
11.715423121836359
 10
42.072528384384391
 20
12.11890122125692
 10
42.145485166121581
 20
12.529960292873341
 10
42.204880485138517
 20
12.951688765517771
 10
42.251443726631557
 20
13.387175068022341
 10
42.28590427579708
 20
13.839507629219179
 10
42.308991517831437
 20
14.311774877940429
 10
42.321434837931022
 20
14.80706524301822
 10
42.323963621292179
 20
15.328467153284681
 10
42.315771707346578
 20
17.335766423357668
 10
42.113447032965382
 20
18.309002433090029
 10
41.97607968009217
 20
18.920634658187289
 10
41.821592274121222
 20
19.515247395575461
 10
41.649438702340092
 20
20.09383516374999
 10
41.4590728520364
 20
20.657392481206319
 10
41.249948610497732
 20
21.206913866439908
 10
41.021519865011669
 20
21.743393837946201
 10
40.773240502865811
 20
22.267826914220642
 10
40.504564411347758
 20
22.781207613758689
 10
40.214945477745097
 20
23.284530455055791
 10
39.903837589345429
 20
23.77878995660739
 10
39.570694633436332
 20
24.264980636908948
 10
39.21497049730538
 20
24.74409701445591
 10
38.836119068240208
 20
25.217133607743719
 10
38.433594233528368
 20
25.685084935267842
 10
38.006849880457487
 20
26.14894551552371
 10
37.555339896315147
 20
26.609709867006771
 10
37.328029178415633
 20
26.826962361206039
 10
37.069261600604293
 20
27.06073371867549
 10
36.493369101736128
 20
27.548473740941869
 10
35.899688872690668
 20
28.014211368839781
 10
35.618686632157718
 20
28.22047973334864
 10
35.360247386447952
 20
28.399228037403091
 10
34.176457591260807
 20
29.18730884687535
 10
33.450759209255708
 20
29.511393171575289
 10
33.026475716323247
 20
29.695739619963419
 10
32.610205252542102
 20
29.866043422927611
 10
32.200629707105762
 20
30.02259060434077
 10
31.79643096920773
 20
30.165667188075791
 10
31.39629092804152
 20
30.295559198005591
 10
30.99889147280064
 20
30.412552658003069
 10
30.6029144926786
 20
30.516933591941129
 10
30.2070418768689
 20
30.608988023692689
 10
29.809955514565051
 20
30.68900197713063
 10
29.410337294960559
 20
30.757261476127859
 10
29.006869107248921
 20
30.814052544557288
 10
28.59823284062367
 20
30.859661206291829
 10
28.18311038427828
 20
30.894373485204369
 10
27.760183627406281
 20
30.918475405167829
 10
27.32813445920117
 20
30.93225299005509
 10
26.885644768856451
 20
30.935992263739081
 10
26.478320661964059
 20
30.93021181587498
 10
26.074352005626341
 20
30.915037534788031
 10
25.67375626213315
 20
30.890476860437591
 10
25.276550893774321
 20
30.85653723278298
 10
24.88275336283969
 20
30.813226091783559
 10
24.492381131619101
 20
30.760550877398661
 10
24.10545166240238
 20
30.69851902958764
 10
23.721982417479381
 20
30.62713798830983
 10
23.34199085913993
 20
30.546415193524592
 10
22.96549444967388
 20
30.456358085191251
 10
22.59251065137105
 20
30.35697410326917
 10
22.223056926521291
 20
30.248270687717671
 10
21.85715073741444
 20
30.130255278496119
 10
21.494809546340338
 20
30.00293531556385
 10
21.13605081558882
 20
29.866318238880201
 10
20.780892007449719
 20
29.720411488404519
 10
20.42935058421288
 20
29.565222504096159
 10
20.081444008168148
 20
29.400758725914461
 10
19.737189741605349
 20
29.227027593818761
 10
19.396605246814332
 20
29.0440365477684
 10
19.05970798608492
 20
28.851793027722739
 10
18.726515421706971
 20
28.650304473641111
 10
18.39704501597031
 20
28.439578325482859
 10
18.071314231164781
 20
28.219622023207339
 10
17.74934052958022
 20
27.990443006773891
 10
17.43114137350647
 20
27.752048716141839
 10
17.116734225233369
 20
27.504446591270561
 10
16.806136547050752
 20
27.247644072119371
 10
16.499365801248459
 20
26.98164859864762
 10
16.196439450116319
 20
26.70646761081467
 10
15.897374955944191
 20
26.42210854857985
 10
15.60218978102189
 20
26.1285788519025
 10
14.53771289537713
 20
25.04641328023709
 10
14.53771289537713
 20
25.12726817078028
 10
14.56124772519124
 20
25.236845207974788
 10
14.62532770735838
 20
25.475427950185772
 10
14.835976085100549
 20
26.198952041610639
 10
15.016143460568429
 20
26.83708645708013
 10
15.170766706887649
 20
27.469995936146368
 10
15.29983522853979
 20
28.098236496361359
 10
15.403338430006469
 20
28.722364155277091
 10
15.48126571576927
 20
29.342934930445558
 10
15.533606490309779
 20
29.96050483941875
 10
15.5603501581096
 20
30.57562989974868
 10
15.561486123650321
 20
31.188866128987321
 10
15.537003791413539
 20
31.80076954468668
 10
15.48689256588084
 20
32.411896164398748
 10
15.411141851533831
 20
33.02280200567553
 10
15.3097410528541
 20
33.634043086068992
 10
15.182679574323229
 20
34.246175423131149
 10
15.029946820422831
 20
34.859755034414007
 10
14.85153219563448
 20
35.475337937469547
 10
14.64742510443979
 20
36.093480149849768
 10
14.465735513116231
 20
36.585786134262939
 10
14.26868642105998
 20
37.069205965580203
 10
14.05658471949255
 20
37.543480414413857
 10
13.82973729963545
 20
38.008350251376193
 10
13.58845105271021
 20
38.463556247079502
 10
13.33303286993832
 20
38.908839172136076
 10
13.0637896425413
 20
39.343939797158221
 10
12.781028261740669
 20
39.76859889275822
 10
12.485055618757929
 20
40.182557229548372
 10
12.1761786048146
 20
40.585555578140948
 10
11.85470411113219
 20
40.977334709148273
 10
11.52093902893222
 20
41.357635393182598
 10
11.175190249436181
 20
41.726198400856262
 10
10.81776466386561
 20
42.082764502781536
 10
10.448969163441999
 20
42.427074469570726
 10
10.06911063938688
 20
42.758869071836102
 10
9.6784959829217456
 20
43.077889080189983
 10
9.2774320852681207
 20
43.383875265244633
 10
8.8662258376475123
 20
43.676568397612357
 10
8.4451841312814331
 20
43.95570924790546
 10
8.0146138573913976
 20
44.221038586736221
 10
7.5748219071989151
 20
44.472297184716943
 10
7.1261151719254991
 20
44.70922581245992
 10
6.6688005427926624
 20
44.931565240577427
 10
6.2031849110219159
 20
45.139056239681771
 10
5.7295751678347733
 20
45.331439580385251
 10
5.2482782044527463
 20
45.508456033300149
 10
4.7596009120973459
 20
45.669846369038758
 10
4.2638501819900858
 20
45.815351358213377
 10
3.7613329053524769
 20
45.944711771436303
 10
3.2523559734060332
 20
46.057668379319807
 10
2.7372262773722649
 20
46.153961952476209
 10
2.034556102933418
 20
46.264757310557371
 10
1.387223301862275
 20
46.348296578833867
 10
0.7833760898643287
 20
46.404938323037378
 10
0.2111626826450701
 20
46.435041108899647
 10
-0.3412687040900085
 20
46.438963502152362
 10
-0.8857698546354152
 20
46.417064068527218
 10
-1.4341925532856581
 20
46.36970137375593
 10
-1.9983885843352449
 20
46.297233983570187
 10
-2.565221330547836
 20
46.204015082266039
 10
-3.1243754946953208
 20
46.092721783259421
 10
-3.6755378257533371
 20
45.963615264166279
 10
-4.2183950726975166
 20
45.816956702602539
 10
-4.7526339845034986
 20
45.653007276184141
 10
-5.2779413101469137
 20
45.472028162527018
 10
-5.7940037986033994
 20
45.274280539247108
 10
-6.3005081988485889
 20
45.060025583960339
 10
-6.7971412598581189
 20
44.82952447428265
 10
-7.2835897306076216
 20
44.583038387829959
 10
-7.7595403600727364
 20
44.320828502218212
 10
-8.2246798972290929
 20
44.043155995063337
 10
-8.6786950910523295
 20
43.750282043981287
 10
-9.1212726905180794
 20
43.442467826587972
 10
-9.5520994446019802
 20
43.119974520499333
 10
-9.9708621022796642
 20
42.783063303331303
 10
-10.377247412526771
 20
42.431995352699822
 10
-10.770942124318919
 20
42.067031846220807
 10
-11.151632986631769
 20
41.688433961510228
 10
-11.51900674844094
 20
41.296462876183973
 10
-11.872750158722059
 20
40.891379767858012
 10
-12.21254996645078
 20
40.473445814148249
 10
-12.538092920602731
 20
40.04292219267063
 10
-12.84906577015354
 20
39.600070081041103
 10
-13.14515526407885
 20
39.145150656875572
 10
-13.4260481513543
 20
38.678425097789997
 10
-13.69143118095551
 20
38.200154581400298
 10
-13.940991101858121
 20
37.710600285322407
 10
-14.174414663037769
 20
37.210023387172278
 10
-14.39138861347009
 20
36.698685064565829
 10
-14.591599702130731
 20
36.176846495118987
 10
-14.774734677995299
 20
35.644768856447698
 10
-14.964067124914269
 20
35.013975204007693
 10
-15.125239401753809
 20
34.37457237552092
 10
-15.258282426412199
 20
33.727543466447671
 10
-15.363227116787691
 20
33.07387157224818
 10
-15.44010439077856
 20
32.414539788382733
 10
-15.48894516628307
 20
31.750531210311578
 10
-15.5097803611995
 20
31.082828933494991
 10
-15.502640893426101
 20
30.41241605339324
 10
-15.467557680861161
 20
29.740275665466569
 10
-15.404561641402941
 20
29.06739086517527
 10
-15.313683692949709
 20
28.394744747979569
 10
-15.194954753399729
 20
27.72332040933976
 10
-15.04840574065128
 20
27.054100944716101
 10
-14.874067572602611
 20
26.388069449568849
 10
-14.671971167152011
 20
25.726209019358269
 10
-14.44214744219774
 20
25.069502749544629
 10
-14.37090159605405
 20
24.87834549878346
 10
-15.33009922277075
 20
25.89429670171744
 10
-15.64381079858469
 20
26.2182386669501
 10
-15.96487833477887
 20
26.533448532670551
 10
-16.2927196714971
 20
26.83951841717505
 10
-16.626752648883169
 20
27.136040438759839
 10
-16.966395107080899
 20
27.422606715721159
 10
-17.311064886234071
 20
27.69880936635527
 10
-17.660179826486502
 20
27.964240508958429
 10
-18.013157767981991
 20
28.21849226182686
 10
-18.369416550864329
 20
28.46115674325684
 10
-18.728374015277321
 20
28.6918260715446
 10
-19.08944800136479
 20
28.910092364986401
 10
-19.452056349270499
 20
29.11554774187848
 10
-19.815616899138291
 20
29.307784320517101
 10
-20.17954749111194
 20
29.486394219198498
 10
-20.543265965335252
 20
29.650969556218929
 10
-20.90619016195204
 20
29.801102449874652
 10
-21.45369473859806
 20
30.006320069790799
 10
-22.003144055506539
 20
30.191415485461821
 10
-22.5541240938303
 20
30.356465155382629
 10
-23.106220834722169
 20
30.50154553804812
 10
-23.659020259335001
 20
30.626733091953231
 10
-24.212108348821609
 20
30.73210427559285
 10
-24.765071084334849
 20
30.817735547461901
 10
-25.317494447027531
 20
30.88370336605529
 10
-25.86896441805251
 20
30.93008418986793
 10
-26.419066978562618
 20
30.956954477394738
 10
-26.967388109710679
 20
30.964390687130621
 10
-27.51351379264954
 20
30.95246927757049
 10
-28.057030008532031
 20
30.921266707209259
 10
-28.597522738510971
 20
30.870859434541849
 10
-29.134577963739218
 20
30.801323918063151
 10
-29.667781665369599
 20
30.712736616268081
 10
-30.19671982455494
 20
30.605173987651561
 10
-30.720978422448081
 20
30.478712490708499
 10
-31.240143440201859
 20
30.333428583933809
 10
-31.753800858969111
 20
30.16939872582239
 10
-32.26153665990266
 20
29.986699374869168
 10
-32.762936824155346
 20
29.785406989569051
 10
-33.257587332880021
 20
29.56559802841694
 10
-33.74507416722949
 20
29.327348949907769
 10
-34.224983308356599
 20
29.070736212536421
 10
-34.696900737414197
 20
28.795836274797839
 10
-35.160412435555102
 20
28.502725595186909
 10
-35.615104383932142
 20
28.191480632198559
 10
-36.06056256369817
 20
27.862177844327679
 10
-36.496372956006013
 20
27.514893690069211
 10
-36.922121542008497
 20
27.149704627918041
 10
-37.337394302858478
 20
26.766687116369098
 10
-37.69350361320555
 20
26.41562712641716
 10
-38.040648365996013
 20
26.052265678340309
 10
-38.378080657715557
 20
25.677750538926091
 10
-38.705052584849902
 20
25.293229474962018
 10
-39.020816243884738
 20
24.89985025323562
 10
-39.324623731305799
 20
24.49876064053441
 10
-39.615727143598768
 20
24.091108403645919
 10
-39.893378577249358
 20
23.67804130935766
 10
-40.156830128743287
 20
23.26070712445717
 10
-40.405333894566247
 20
22.840253615731971
 10
-40.638141971203957
 20
22.41782854996957
 10
-40.854506455142129
 20
21.994579693957501
 10
-41.053679442866461
 20
21.571654814483288
 10
-41.234913030862657
 20
21.150201678334462
 10
-41.397459315616423
 20
20.731368052298532
 10
-41.540570393613471
 20
20.31630170316302
 10
-41.734184685845818
 20
19.669384971725481
 10
-41.900263391146439
 20
19.01555914220841
 10
-42.038832439775348
 20
18.356228456056819
 10
-42.149917761992548
 20
17.692797154715731
 10
-42.233545288058053
 20
17.02666947963014
 10
-42.289740948231852
 20
16.359249672245081
 10
-42.318530672773953
 20
15.69194197400555
 10
-42.319940391944343
 20
15.026150626356561
 10
-42.293996036003023
 20
14.36327987074313
 10
-42.240723535210009
 20
13.70473394861027
 10
-42.160148819825309
 20
13.05191710140299
 10
-42.052297820108897
 20
12.406233570566309
 10
-41.917196466320817
 20
11.769087597545241
 10
-41.754870688721027
 20
11.14188342378479
 10
-41.565346417569558
 20
10.526025290729971
 10
-41.460392950118191
 20
10.222789814918739
 10
-41.348649583126402
 20
9.9229174398257953
 10
-41.215175204501783
 20
9.5895212342643426
 10
-41.073360585705437
 20
9.258793945018633
 10
-40.923378753853363
 20
8.9309278808545152
 10
-40.765402736061517
 20
8.6061153505378378
 10
-40.599605559445912
 20
8.2845486628344496
 10
-40.426160251122511
 20
7.966420126510199
 10
-40.24523983820729
 20
7.6519220503309358
 10
-40.057017347816227
 20
7.3412467430625057
 10
-39.861665807065329
 20
7.0345865134707584
 10
-39.659358243070557
 20
6.7321336703215451
 10
-39.450267682947917
 20
6.4340805223807109
 10
-39.234567153813359
 20
6.1406193784141063
 10
-39.01242968278288
 20
5.8519425471875781
 10
-38.784028296972473
 20
5.5682423374669767
 10
-38.549536023498078
 20
5.2897110580181508
 10
-38.309125889475723
 20
5.0165410176069463
 10
-38.062970922021357
 20
4.7489245249992136
 10
-37.811244148250992
 20
4.4870538889608014
 10
-37.554118595280578
 20
4.2311214182575592
 10
-37.291767290226133
 20
3.9813194216553351
 10
-37.0243632602036
 20
3.7378402079199762
 10
-36.752079532328992
 20
3.5008760858173309
 10
-36.475089133718271
 20
3.2706193641132502
 10
-36.193565091487429
 20
3.0472623515735808
 10
-35.907680432752443
 20
2.830997356964172
 10
-35.61760818462929
 20
2.6220166890508709
 10
-35.323521374233962
 20
2.420512656599529
 10
-35.025593028682437
 20
2.2266775683759921
 10
-34.72399617509069
 20
2.0407037331461089
 10
-34.418903840574707
 20
1.86278345967573
 10
-34.110489052250472
 20
1.6931090567307019
 10
-33.798924837233969
 20
1.5318728330768749
 10
-33.342114994459003
 20
1.318048277099694
 10
-32.821147964859932
 20
1.1000858877496871
 10
-32.257127831273642
 20
0.8850571240051505
 10
-31.671158676537019
 20
0.6800334448443843
 10
-31.084344583486931
 20
0.4920863092456866
 10
-30.51778963496027
 20
0.3282871761873559
 10
-29.99259791379389
 20
0.1957075046476905
 10
-29.529873502824699
 20
0.1014187536049889
 10
-28.650136305730609
 20
-0.0494394356187584
 10
-29.95767155919134
 20
-0.3393247772301535
 10
-30.46988804729472
 20
-0.461321484993601
 10
-30.974907255047722
 20
-0.5984853331289637
 10
-31.472482569993169
 20
-0.7505965280571246
 10
-31.9623673796739
 20
-0.9174352761989668
 10
-32.444315071632737
 20
-1.0987817839753731
 10
-32.918079033412504
 20
-1.2944162578072269
 10
-33.383412652556032
 20
-1.504118904115411
 10
-33.840069316606147
 20
-1.7276699293208091
 10
-34.28780241310568
 20
-1.964849539844302
 10
-34.726365329597463
 20
-2.2154379421067758
 10
-35.1555114536243
 20
-2.4792153425291121
 10
-35.574994172729042
 20
-2.7559619475321928
 10
-35.984566874454508
 20
-3.045457963536903
 10
-36.383982946343529
 20
-3.3474835969641248
 10
-36.772995775938931
 20
-3.6618190542347411
 10
-37.151358750783537
 20
-3.9882445417696339
 10
-37.518825258420179
 20
-4.3265402659896894
 10
-37.875148686391682
 20
-4.6764864333157874
 10
-38.220082422240893
 20
-5.0378632501688134
 10
-38.553379853510613
 20
-5.4104509229696474
 10
-38.874794367743668
 20
-5.7940296581391753
 10
-39.184079352482897
 20
-6.1883796620982787
 10
-39.480988195271152
 20
-6.5932811412678412
 10
-39.765274283651223
 20
-7.008514302068745
 10
-40.036691005165949
 20
-7.4338593509218747
 10
-40.294991747358146
 20
-7.8690964942481108
 10
-40.539929897770683
 20
-8.3140059384683394
 10
-40.771258843946327
 20
-8.7683678900034412
 10
-40.98873197342796
 20
-9.2319625552743005
 10
-41.192102673758377
 20
-9.7045701407018008
 10
-41.381124332480432
 20
-10.18597085270682
 10
-41.555550337136928
 20
-10.67594489771025
 10
-41.665718133212522
 20
-11.014282399146589
 10
-41.767668401012543
 20
-11.35313365514655
 10
-41.861401891517133
 20
-11.692483549075909
 10
-41.94691935570642
 20
-12.032316964300479
 10
-42.024221544560547
 20
-12.372618784186059
 10
-42.093309209059647
 20
-12.713373892098449
 10
-42.154183100183857
 20
-13.054567171403439
 10
-42.206843968913333
 20
-13.396183505466849
 10
-42.251292566228187
 20
-13.73820777765447
 10
-42.28752964310857
 20
-14.080624871332089
 10
-42.315555950534623
 20
-14.423419669865529
 10
-42.335372239486468
 20
-14.76657705662058
 10
-42.346979260944252
 20
-15.11008191496304
 10
-42.350377765888112
 20
-15.453919128258709
 10
-42.345568505298189
 20
-15.798073579873391
 10
-42.332552230154619
 20
-16.142530153172871
 10
-42.311329691437543
 20
-16.487273731522979
 10
-42.281901640127067
 20
-16.832289198289491
 10
-42.244268827203378
 20
-17.177561436838211
 10
-42.198432003646573
 20
-17.523075330534951
 10
-42.144391920436817
 20
-17.868815762745498
 10
-42.08214932855423
 20
-18.214767616835658
 10
-42.011704978978948
 20
-18.560915776171239
 10
-41.933059622691133
 20
-18.90724512411802
 10
-41.846214010670877
 20
-19.253740544041811
 10
-41.751168893898367
 20
-19.60038691930842
 10
-41.647925023353707
 20
-19.947169133283651
 10
-41.536483150017062
 20
-20.294072069333289
 10
-41.416844024868553
 20
-20.641080610823131
 10
-41.289008398888313
 20
-20.988179641119
 10
-41.152977023056472
 20
-21.33535404358668
 10
-41.008750648353193
 20
-21.682588701591971
 10
-40.818989136767037
 20
-22.114728399390611
 10
-40.626566231325633
 20
-22.528161502252932
 10
-40.430429731064613
 20
-22.924352208632261
 10
-40.229527435019612
 20
-23.304764716981961
 10
-40.022807142226299
 20
-23.670863225755351
 10
-39.809216651720362
 20
-24.024111933405791
 10
-39.587703762537423
 20
-24.365975038386619
 10
-39.357216273713142
 20
-24.697916739151161
 10
-39.116701984283182
 20
-25.02140123415278
 10
-38.865108693283197
 20
-25.33789272184481
 10
-38.60138419974885
 20
-25.648855400680581
 10
-38.324476302715787
 20
-25.955753469113461
 10
-38.033332801219679
 20
-26.26005112559676
 10
-37.726901494296172
 20
-26.56321256858385
 10
-37.404130180980921
 20
-26.86670199652805
 10
-37.063966660309603
 20
-27.171983607882709
 10
-36.687229798674053
 20
-27.493519884137879
 10
-36.30470792454998
 20
-27.80159853656701
 10
-35.916559044380733
 20
-28.09618130281088
 10
-35.522941164609684
 20
-28.37722992051027
 10
-35.12401229168016
 20
-28.644706127305959
 10
-34.719930432035547
 20
-28.898571660838751
 10
-34.310853592119201
 20
-29.138788258749411
 10
-33.896939778374467
 20
-29.36531765867873
 10
-33.478346997244707
 20
-29.578121598267501
 10
-33.055233255173313
 20
-29.777161815156489
 10
-32.627756558603608
 20
-29.962400046986481
 10
-32.196074913978961
 20
-30.133798031398278
 10
-31.760346327742731
 20
-30.291317506032659
 10
-31.32072880633828
 20
-30.434920208530389
 10
-30.87738035620896
 20
-30.56456787653228
 10
-30.43045898379814
 20
-30.680222247679101
 10
-29.98012269554917
 20
-30.78184505961163
 10
-29.526529497905411
 20
-30.869398049970659
 10
-29.069837397310231
 20
-30.942842956396969
 10
-28.610204400206982
 20
-31.002141516531349
 10
-28.147788513039021
 20
-31.04725546801458
 10
-27.682747742249699
 20
-31.07814654848745
 10
-27.2152400942824
 20
-31.094776495590729
 10
-26.74542357558046
 20
-31.09710704696522
 10
-26.27345619258724
 20
-31.085099940251691
 10
-25.79949595174612
 20
-31.05871691309094
 10
-25.32370085950043
 20
-31.017919703123749
 10
-24.846228922293559
 20
-30.962670047990891
 10
-24.367238146568841
 20
-30.892929685333151
 10
-23.886886538769652
 20
-30.808660352791328
 10
-23.40533210533934
 20
-30.70982378800619
 10
-22.922732852721271
 20
-30.596381728618528
 10
-22.410816224227538
 20
-30.463229482364891
 10
-21.949028976206311
 20
-30.330904168889489
 10
-21.52274169155384
 20
-30.19374218229833
 10
-21.117324953166399
 20
-30.04607991669744
 10
-20.718149343940251
 20
-29.882253766192861
 10
-20.31058544677165
 20
-29.696600124890619
 10
-19.88000384455686
 20
-29.483455386896729
 10
-19.41177512019215
 20
-29.23715594631723
 10
-18.909354330168359
 20
-28.95821528446778
 10
-18.452436554247289
 20
-28.684369496679238
 10
-18.025274977035512
 20
-28.403636924017601
 10
-17.612122783139611
 20
-28.104035907548891
 10
-17.197233157166199
 20
-27.773584788339111
 10
-16.764859283721851
 20
-27.400301907454281
 10
-16.29925434741315
 20
-26.972205605960401
 10
-15.784671532846721
 20
-26.4773142249235
 10
-14.53771289537714
 20
-25.257932611336631
 10
-14.53771289537713
 20
-25.354682337546539
 10
-14.56139711648321
 20
-25.470431041402261
 10
-14.62588385711857
 20
-25.714067844641651
 10
-14.83786936087991
 20
-26.442261044043669
 10
-15.003096569470941
 20
-27.02937288500263
 10
-15.145200401854471
 20
-27.622751511992259
 10
-15.26419540036737
 20
-28.221272095302002
 10
-15.36009610734653
 20
-28.823809805221291
 10
-15.432917065128841
 20
-29.42923981203958
 10
-15.48267281605118
 20
-30.03643728604629
 10
-15.50937790245044
 20
-30.644277397530871
 10
-15.51304686666351
 20
-31.25163531678276
 10
-15.49369425102728
 20
-31.857386214091392
 10
-15.451334597878621
 20
-32.460405259746203
 10
-15.38598244955444
 20
-33.059567624036632
 10
-15.29765234839161
 20
-33.65374847725213
 10
-15.186358836727029
 20
-34.24182298968212
 10
-15.05211645689757
 20
-34.822666331616063
 10
-14.89493975124013
 20
-35.395153673343373
 10
-14.714843262091589
 20
-35.958160185153488
 10
-14.524979827748419
 20
-36.48255656089492
 10
-14.31920639824841
 20
-36.996520542395601
 10
-14.097801420770191
 20
-37.499820747030327
 10
-13.86104334249239
 20
-37.992225792173883
 10
-13.60921061059363
 20
-38.473504295201032
 10
-13.34258167225253
 20
-38.94342487348657
 10
-13.0614349746477
 20
-39.401756144405269
 10
-12.76604896495779
 20
-39.848266725331897
 10
-12.456702090361389
 20
-40.282725233641237
 10
-12.13367279803715
 20
-40.704900286708103
 10
-11.79723953516368
 20
-41.114560501907221
 10
-11.447680748919611
 20
-41.511474496613403
 10
-11.08527488648355
 20
-41.895410888201432
 10
-10.710300395034119
 20
-42.266138294046058
 10
-10.323035721749971
 20
-42.623425331522093
 10
-9.9237593138096916
 20
-42.967040618004297
 10
-9.5127496183919238
 20
-43.296752770867457
 10
-9.090285082675285
 20
-43.61233040748634
 10
-8.656644153838398
 20
-43.913542145235738
 10
-8.2121052790598874
 20
-44.200156601490427
 10
-7.7569469055183733
 20
-44.471942393625199
 10
-7.2914474803924776
 20
-44.728668139014808
 10
-6.815885450860824
 20
-44.970102455034052
 10
-6.3305392641020344
 20
-45.196013959057687
 10
-5.8356873672947334
 20
-45.406171268460533
 10
-5.3316082076175402
 20
-45.600343000617329
 10
-4.8185802322490776
 20
-45.778297772902867
 10
-4.2968818883679711
 20
-45.939804202691953
 10
-3.7667916231528409
 20
-46.084630907359333
 10
-3.228587883782311
 20
-46.212546504279793
 10
-2.682549117435002
 20
-46.323319610828108
 10
-2.1289537712895381
 20
-46.416718844379083
 10
-1.77704319335793
 20
-46.465209271394201
 10
-1.4221847926945179
 20
-46.504242265006873
 10
-1.064410548692001
 20
-46.533819743909532
 10
-0.7037524407430835
 20
-46.553943626794691
 10
-0.3402424482404659
 20
-46.564615832354818
 10
0.0260874494231497
 20
-46.565838279282389
 10
0.3952052728550615
 20
-46.557612886269879
 10
0.7670790426625676
 20
-46.539941572009759
 10
1.1416767794529661
 20
-46.512826255194497
 10
1.518966503833556
 20
-46.47626885451659
 10
1.8989162364116341
 20
-46.4302712886685
 10
2.2814939977944988
 20
-46.374835476342703
 10
2.6666678085894491
 20
-46.309963336231682
 10
3.054405689403783
 20
-46.235656787027892
 10
3.444675660844799
 20
-46.151917747423838
  0
LWPOLYLINE
  5
45
  8
LAYER_1
 62
256
370
-1
  6
ByLayer
100
AcDbEntity
100
AcDbPolyline
 90
1991
 70
1
 10
-5.4369210995725012
 20
-33.514952919649623
 10
-5.171704309345559
 20
-33.48797655787201
 10
-4.9158174246459954
 20
-33.443763142009438
 10
-4.6693527258067382
 20
-33.382386524813789
 10
-4.4324024931607173
 20
-33.303920559036939
 10
-4.2050590070408624
 20
-33.208439097430769
 10
-3.987414547780102
 20
-33.096015992747169
 10
-3.7795613957113638
 20
-32.966725097738014
 10
-3.5815918311675792
 20
-32.820640265155191
 10
-3.393598134481675
 20
-32.657835347750577
 10
-3.2156725859865811
 20
-32.478384198276061
 10
-3.0479074660152259
 20
-32.282360669483523
 10
-2.8903950549005399
 20
-32.069838614124833
 10
-2.7432276329754508
 20
-31.84089188495189
 10
-2.6064974805728891
 20
-31.595594334716569
 10
-2.4802968780257819
 20
-31.334019816170748
 10
-2.364718105667059
 20
-31.05624218206632
 10
-2.2968154448483369
 20
-30.857743642916819
 10
-2.2359041927525478
 20
-30.63431702557526
 10
-2.1821042255094532
 20
-30.388949791292209
 10
-2.135535419248809
 20
-30.124629401318199
 10
-2.0963176501003771
 20
-29.844343316903782
 10
-2.0645707941939171
 20
-29.551078999299492
 10
-2.040414727659186
 20
-29.247823909755869
 10
-2.023969326625946
 20
-28.937565509523449
 10
-2.0153544672239549
 20
-28.623291259852792
 10
-2.0146900255829721
 20
-28.307988621994429
 10
-2.0220958778327578
 20
-27.994645057198891
 10
-2.0376919001030709
 20
-27.686248026716751
 10
-2.0615979685236709
 20
-27.38578499179852
 10
-2.093933959224318
 20
-27.096243413694751
 10
-2.13481974833477
 20
-26.820610753655991
 10
-2.1843752119847859
 20
-26.561874472932772
 10
-2.2773691673986711
 20
-26.180163354293381
 10
-2.3897501584312799
 20
-25.802859736820839
 10
-2.52043509213143
 20
-25.431547642380441
 10
-2.6683408755479361
 20
-25.067811092837491
 10
-2.8323844157296159
 20
-24.713234110057272
 10
-3.0114826197252862
 20
-24.36940071590508
 10
-3.204552394583764
 20
-24.037894932246221
 10
-3.4105106473538651
 20
-23.720300780945969
 10
-3.628274285084407
 20
-23.418202283869629
 10
-3.8567602148242059
 20
-23.133183462882499
 10
-4.094885343622078
 20
-22.866828339849871
 10
-4.3415665785268409
 20
-22.620720936637039
 10
-4.5957208265873124
 20
-22.39644527510929
 10
-4.8562649948523049
 20
-22.19558537713193
 10
-5.1221159903706397
 20
-22.019725264570241
 10
-5.392190720191131
 20
-21.870448959289519
 10
-5.5990034581128718
 20
-21.764572480064128
 10
-5.6791214322174994
 20
-21.717956817372102
 10
-5.7431437765583313
 20
-21.673022921565941
 10
-5.7906429662406449
 20
-21.627870829349749
 10
-5.8211914763697159
 20
-21.58060057742761
 10
-5.83436178205082
 20
-21.529312202503601
 10
-5.829726358389232
 20
-21.472105741281801
 10
-5.8068576804902294
 20
-21.407081230466311
 10
-5.7653282234590852
 20
-21.332338706761199
 10
-5.6245768724214837
 20
-21.146099767498459
 10
-5.100333725392737
 20
-20.573407349277272
 10
-4.7940345150954498
 20
-20.25015494792272
 10
-4.5554439417928547
 20
-20.012950663011679
 10
-4.4556315263313957
 20
-19.92473440565978
 10
-4.365656828898806
 20
-19.855771587143511
 10
-4.2831567024218149
 20
-19.80530934403782
 10
-4.2057679998271578
 20
-19.77259481291761
 10
-4.1311275740415638
 20
-19.756875130357809
 10
-4.0568722779917659
 20
-19.757397432933342
 10
-3.9806389646044948
 20
-19.77340885721912
 10
-3.900064486806484
 20
-19.804156539790071
 10
-3.7164394496851672
 20
-19.9068492260872
 10
-3.487091990041669
 20
-20.05945258442409
 10
-3.2348869053765008
 20
-20.242411000195119
 10
-2.973738208834781
 20
-20.453126410254171
 10
-2.7118757824364681
 20
-20.68346762549487
 10
-2.4575295082015161
 20
-20.92530345681083
 10
-2.218929268149886
 20
-21.170502715095679
 10
-2.0043049443015311
 20
-21.410934211243038
 10
-1.821886418676411
 20
-21.638466756146531
 10
-1.679903573294482
 20
-21.844969160699769
 10
-1.602403579539873
 20
-21.957299999702592
 10
-1.576559062244006
 20
-21.977073012348161
 10
-1.5576996705089221
 20
-21.970505521895451
 10
-1.54461150871449
 20
-21.936038354448652
 10
-1.5360806812405809
 20
-21.872112336111979
 10
-1.5278354467738069
 20
-21.649647051185799
 10
-1.5394210524966321
 20
-21.38370013809978
 10
-1.580880696775927
 20
-21.080571179320881
 10
-1.6500627584704379
 20
-20.747597768099411
 10
-1.744815616438915
 20
-20.3921174976857
 10
-1.862987649540105
 20
-20.02146796133006
 10
-2.002427236632756
 20
-19.64298675228282
 10
-2.1609827565756148
 20
-19.264011463794301
 10
-2.336502588227432
 20
-18.89187968911482
 10
-2.4801928299468989
 20
-18.60103865036595
 10
-2.5808881249924709
 20
-18.373915943682199
 10
-2.6145337977705729
 20
-18.278468265161251
 10
-2.636736090189832
 20
-18.19201333001239
 10
-2.6472634543534581
 20
-18.112238858354232
 10
-2.6458843423646621
 20
-18.036832570305361
 10
-2.6323672063266539
 20
-17.9634821859844
 10
-2.6064804983426448
 20
-17.889875425509938
 10
-2.5679926705158449
 20
-17.813700009000591
 10
-2.516672174949464
 20
-17.732643656574961
 10
-2.3746069890107999
 20
-17.546639024449242
 10
-2.178432557352338
 20
-17.313363290081622
 10
-1.5279182539656839
 20
-16.57447036499833
 10
-0.8021495403224179
 20
-15.78312389129437
 10
-0.5441932298036237
 20
-15.51025051332422
 10
-0.3459269431256815
 20
-15.30933011908424
 10
-0.1939758001770061
 20
-15.17462508996136
 10
-0.1311887575662731
 20
-15.130310331502249
 10
-0.0749649208460124
 20
-15.100397807342519
 10
-0.0236324300022757
 20
-15.08417031515553
 10
0.0244805749788849
 20
-15.08091065261466
 10
0.0710459541114177
 20
-15.089901617393259
 10
0.1177355674092708
 20
-15.11042600716471
 10
0.2181749365567306
 20
-15.18320625237962
 10
0.3391735625328494
 20
-15.29351376964631
 10
0.5631166209125545
 20
-15.51854844634329
 10
0.9052868624492687
 20
-15.88060048686873
 10
1.758077723824236
 20
-16.815938423576629
 10
2.815017757753004
 20
-17.999273440827231
 10
2.3507463563018618
 20
-18.944892194866171
 10
2.170546052898592
 20
-19.335305432916002
 10
2.005788837238518
 20
-19.73769487523111
 10
1.860077392360048
 20
-20.13971368068847
 10
1.73701440130159
 20
-20.529015008165061
 10
1.640202547101556
 20
-20.893252016537861
 10
1.573244512798353
 20
-21.220077864683841
 10
1.5397429814303909
 20
-21.497145711479991
 10
1.5366642427966291
 20
-21.613161996520919
 10
1.543300636036079
 20
-21.712108715803272
 10
1.55798749769404
 20
-21.798268931824659
 10
1.579275493717079
 20
-21.85266026283627
 10
1.593975980060633
 20
-21.866895374234701
 10
1.6122240255296161
 20
-21.871931597706261
 10
1.634652055302078
 20
-21.867350044359469
 10
1.661892494556072
 20
-21.852731825302829
 10
1.733340302220872
 20
-21.791709834494149
 10
1.8316268499484341
 20
-21.68551451414838
 10
2.1289537712895381
 20
-21.324199440318338
 10
2.26337941138573
 20
-21.163271019893969
 10
2.406161691764813
 20
-21.004812264810461
 10
2.709727730814858
 20
-20.70041073128581
 10
3.025515003326062
 20
-20.421208800983919
 10
3.3393866241848169
 20
-20.17742043514432
 10
3.637205708277512
 20
-19.979259595006528
 10
3.775677772438585
 20
-19.90048135996317
 10
3.904835370490539
 20
-19.83694024181008
 10
4.0229113917941737
 20
-19.78991298570222
 10
4.1281387257102882
 20
-19.7606763367945
 10
4.2187502615996806
 20
-19.750507040241899
 10
4.2929788888231499
 20
-19.760681841199322
 10
4.3568944488073784
 20
-19.792804151035039
 10
4.4433136740546004
 20
-19.854155720760829
 10
4.6684344232274881
 20
-20.050198893460902
 10
4.9378837421207296
 20
-20.320115866456138
 10
5.2212042365132447
 20
-20.635211146903139
 10
5.900243309002434
 20
-21.430651801186151
 10
5.900243309002434
 20
-21.512371778348012
 10
5.8889942749948609
 20
-21.534755196595171
 10
5.8567542205903793
 20
-21.567173020798879
 10
5.7383433363001322
 20
-21.65597424732503
 10
5.5630952275505674
 20
-21.766500178424579
 10
5.3490944657605581
 20
-21.88647553459565
 10
5.2003749519205371
 20
-21.973052520423579
 10
5.044119043891107
 20
-22.078406148367812
 10
4.8818445959125594
 20
-22.200854686628279
 10
4.7150694622251841
 20
-22.338716403404941
 10
4.5453114970692754
 20
-22.490309566897711
 10
4.3740885546851196
 20
-22.653952445306551
 10
4.0333191551932437
 20
-23.010660419672138
 10
3.7049040976718892
 20
-23.395386472101219
 10
3.4009862160433841
 20
-23.794676748193272
 10
3.262008351789679
 20
-23.995579140612762
 10
3.1337083442300608
 20
-24.195077393547809
 10
3.0176040476048209
 20
-24.391489775198359
 10
2.9152133161542508
 20
-24.583134553764332
 10
2.8045579918848809
 20
-24.812986104227871
 10
2.7011806662541731
 20
-25.048283350053769
 10
2.6050778811836879
 20
-25.288521690772669
 10
2.5162461785949901
 20
-25.53319652591518
 10
2.4346821004096388
 20
-25.781803255011909
 10
2.3603821885491989
 20
-26.033837277593491
 10
2.2933429849352298
 20
-26.288793993190531
 10
2.233561031489296
 20
-26.546168801333661
 10
2.1357550427877778
 20
-27.06615429338062
 10
2.066936557817141
 20
-27.589756949979321
 10
2.0270779119498821
 20
-28.112939967374722
 10
2.0161514405584962
 20
-28.63166654181175
 10
2.0341294790154811
 20
-29.141899869535361
 10
2.0539490442410169
 20
-29.39257006470617
 10
2.0809843626933322
 20
-29.639603146790488
 10
2.115231976293988
 20
-29.882494515318921
 10
2.1566884269645472
 20
-30.120739569822089
 10
2.2053502566265708
 20
-30.35383370983061
 10
2.2612140072016209
 20
-30.581272334875099
 10
2.324276220611261
 20
-30.802550844486181
 10
2.394533438777052
 20
-31.017164638194469
 10
2.4719822036205552
 20
-31.22460911553058
 10
2.556619057063334
 20
-31.42437967602514
 10
2.6484405410269498
 20
-31.615971719208769
 10
2.7474431974329652
 20
-31.798880644612069
 10
2.8536235682029409
 20
-31.97260185176567
 10
2.966978195258442
 20
-32.136630740200182
 10
3.0920433506185261
 20
-32.297489599772931
 10
3.223335274337964
 20
-32.448658205101793
 10
3.3605688201338491
 20
-32.590122838182737
 10
3.5034588417232708
 20
-32.721869781011783
 10
3.6517201928233249
 20
-32.843885315584878
 10
3.8050677271511022
 20
-32.956155723898043
 10
3.9632162984236952
 20
-33.058667287947237
 10
4.1258807603581964
 20
-33.151406289728477
 10
4.2927759666716963
 20
-33.23435901123775
 10
4.4636167710812904
 20
-33.307511734471021
 10
4.638118027304067
 20
-33.370850741424292
 10
4.815994589057123
 20
-33.424362314093543
 10
4.9969613100575483
 20
-33.468032734474782
 10
5.1807330440224337
 20
-33.501848284563962
 10
5.3670246446688754
 20
-33.525795246357092
 10
5.5555509657139606
 20
-33.539859901850157
 10
5.7460268608747871
 20
-33.544028533039153
 10
5.938167183868444
 20
-33.53828742192006
 10
6.1316867884120239
 20
-33.522622850488858
 10
6.3263005282226201
 20
-33.497021100741549
 10
6.5217232570173236
 20
-33.461468454674112
 10
6.7176698285132286
 20
-33.415951194282542
 10
6.9138550964274259
 20
-33.360455601562812
 10
7.1099939144770072
 20
-33.294967958510917
 10
7.3058011363790669
 20
-33.219474547122857
 10
7.5009916158506957
 20
-33.133961649394607
 10
7.6952802066089863
 20
-33.038415547322153
 10
7.8883817623710302
 20
-32.932822522901489
 10
8.0800111368539209
 20
-32.817168858128603
 10
8.269883183774752
 20
-32.691440834999469
 10
8.457712756850615
 20
-32.555624735510101
 10
8.643214709798599
 20
-32.409706841656472
 10
8.8533282528683745
 20
-32.22676622931565
 10
9.0628140947856224
 20
-32.023405813003812
 10
9.2705656607948619
 20
-31.801436192949669
 10
9.4754763761406089
 20
-31.56266796938198
 10
9.6764396660673846
 20
-31.308911742529482
 10
9.8723489558197084
 20
-31.0419781126209
 10
10.0620976706421
 20
-30.763677679884971
 10
10.24457923577908
 20
-30.47582104455045
 10
10.418687076475161
 20
-30.18021880684605
 10
10.58331461797486
 20
-29.87868156700052
 10
10.73735528552271
 20
-29.57301992524259
 10
10.879702504363211
 20
-29.265044481800999
 10
11.0092496997409
 20
-28.956565836904488
 10
11.124890296900279
 20
-28.6493945907818
 10
11.225517721085881
 20
-28.345341343661659
 10
11.310025397542219
 20
-28.046216695772799
 10
11.35787619767391
 20
-27.83332188670995
 10
11.39866440180268
 20
-27.59665528547799
 10
11.43242954640311
 20
-27.339238381441781
 10
11.4592111679498
 20
-27.064092663966179
 10
11.49198198778029
 20
-26.4727007461562
 10
11.497293153090819
 20
-25.846651446966881
 10
11.475460955678111
 20
-25.210116681317089
 10
11.426801687338831
 20
-24.587268364125649
 10
11.3925107427582
 20
-24.288530347113952
 10
11.351631639869691
 20
-24.002278410311401
 10
11.304203915147889
 20
-23.73153404308286
 10
11.25026710506738
 20
-23.479318734793189
 10
11.187603930008409
 20
-23.238944119691169
 10
11.109540079439791
 20
-22.981487282757339
 10
11.017096468804739
 20
-22.70905970263874
 10
10.91129401354646
 20
-22.423772857982431
 10
10.663696230933111
 20
-21.82306728964484
 10
10.37491405514545
 20
-21.19626240692093
 10
10.053114809729211
 20
-20.560250038987089
 10
9.7064658182301109
 20
-19.931922015019669
 10
9.3431344041938811
 20
-19.328170164195061
 10
9.15776507733238
 20
-19.040789000328921
 10
8.9712878911662415
 20
-18.76588631568961
 10
8.2725060827250587
 20
-17.76291618369066
 10
9.0632603406326027
 20
-18.32786312323357
 10
9.4653556438453208
 20
-18.6393799975524
 10
9.9756182042658743
 20
-19.069942270463869
 10
10.528571392228439
 20
-19.562689254584729
 10
11.058738578067191
 20
-20.06076026253179
 10
12.263462557594231
 20
-21.228710462287101
 10
12.193815729307181
 20
-21.031333340316511
 10
12.04174279099564
 20
-20.568348000972421
 10
11.892661873904119
 20
-20.052719641272571
 10
11.74908406348213
 20
-19.495926049071539
 10
11.61352044517921
 20
-18.909445012223859
 10
11.488482104444881
 20
-18.304754318584099
 10
11.37648012672865
 20
-17.69333175600681
 10
11.28002559748005
 20
-17.086655112346531
 10
11.201629602148611
 20
-16.496202175457839
 10
11.18124531572388
 20
-16.309738052589719
 10
11.175512585981149
 20
-16.187910568332441
 10
11.1801244752924
 20
-16.15378891954877
 10
11.19077995828637
 20
-16.138890455056881
 10
11.208272603133819
 20
-16.14423651640314
 10
11.23339597800549
 20
-16.17084844513391
 10
11.30970919050444
 20
-16.291955270934409
 10
11.42606814114917
 20
-16.510381664829271
 10
11.804317438339719
 20
-17.271876086385578
 10
12.122555776439659
 20
-17.903886538469472
 10
12.42773905132263
 20
-18.47454465849583
 10
12.72552959624538
 20
-18.992519685409629
 10
13.02158974446469
 20
-19.46648085815583
 10
13.321581829237299
 20
-19.905097415679371
 10
13.63116818381997
 20
-20.317038596925229
 10
13.956011141469469
 20
-20.71097364083835
 10
14.301773035442549
 20
-21.09557178636371
 10
14.66361809253528
 20
-21.466613017093689
 10
15.032026787009
 20
-21.813048253174401
 10
15.40718924569444
 20
-22.134963751796331
 10
15.78929559542234
 20
-22.43244577015
 10
16.178535963023432
 20
-22.70558056542589
 10
16.575100475328419
 20
-22.954454394814508
 10
16.97917925916806
 20
-23.179153515506371
 10
17.39096244137307
 20
-23.379764184691961
 10
17.81064014877418
 20
-23.556372659561781
 10
18.238402508202121
 20
-23.709065197306352
 10
18.67443964648762
 20
-23.837928055116159
 10
19.118941690461401
 20
-23.943047490181709
 10
19.572098766954209
 20
-24.024509759693501
 10
20.03410100279676
 20
-24.08240112084205
 10
20.505138524819781
 20
-24.116807830817841
 10
20.985401459854021
 20
-24.12781614681138
 10
21.475641417240471
 20
-24.116260514919951
 10
21.94653033189072
 20
-24.083080981810191
 10
22.397703082161449
 20
-24.028461358137221
 10
22.828794546409348
 20
-23.95258545455615
 10
23.239439602991101
 20
-23.855637081722112
 10
23.629273130263389
 20
-23.737800050290222
 10
23.997930006582891
 20
-23.599258170915601
 10
24.345045110306291
 20
-23.440195254253371
 10
24.67025331979028
 20
-23.26079511095865
 10
24.973189513391539
 20
-23.06124155168655
 10
25.25348856946675
 20
-22.841718387092211
 10
25.385035070418549
 20
-22.724525643628919
 10
25.510785366372591
 20
-22.602409427830739
 10
25.630693817123461
 20
-22.47539271602955
 10
25.744714782465749
 20
-22.343498484557259
 10
25.852802622194041
 20
-22.20674970974574
 10
25.954911696102911
 20
-22.065169367926881
 10
26.050996363986961
 20
-21.918780435432591
 10
26.141010985640769
 20
-21.767605888594751
 10
26.224909920858909
 20
-21.611668703745242
 10
26.30264752943599
 20
-21.450991857215961
 10
26.37249933999955
 20
-21.283211494533479
 10
26.432182622866819
 20
-21.10796749187994
 10
26.481727037697151
 20
-20.92629484983906
 10
26.521162244149949
 20
-20.73922856899453
 10
26.550517901884579
 20
-20.547803649930081
 10
26.569823670560421
 20
-20.353055093229411
 10
26.579109209836862
 20
-20.15601789947625
 10
26.578404179373258
 20
-19.9577270692543
 10
26.567738238829008
 20
-19.75921760314727
 10
26.547141047863491
 20
-19.561524501738869
 10
26.516642266136081
 20
-19.365682765612821
 10
26.476271553306159
 20
-19.17272739535283
 10
26.426058569033088
 20
-18.983693391542619
 10
26.366032972976271
 20
-18.799615754765881
 10
26.296224424795081
 20
-18.621529485606342
 10
26.216662584148882
 20
-18.45046958464771
 10
26.065403742817431
 20
-18.18573474977001
 10
25.8790983314126
 20
-17.91878518069058
 10
25.66056269185788
 20
-17.651534302062629
 10
25.412613166076731
 20
-17.385895538539359
 10
25.138066095992649
 20
-17.12378231477399
 10
24.839737823529099
 20
-16.867108055419699
 10
24.520444690609558
 20
-16.61778618512971
 10
24.183003039157519
 20
-16.377730128557221
 10
23.830229211096452
 20
-16.148853310355449
 10
23.464939548349829
 20
-15.933069155177581
 10
23.089950392841128
 20
-15.732291087676829
 10
22.708078086493838
 20
-15.5484325325064
 10
22.322138971231439
 20
-15.383406914319499
 10
21.93494938897739
 20
-15.23912765776933
 10
21.549325681655201
 20
-15.117508187509101
 10
21.16808419118831
 20
-15.020461928192001
 10
20.824580860829471
 20
-14.95348706653686
 10
20.47321687942846
 20
-14.903081947962001
 10
20.11636107569473
 20
-14.868909320937121
 10
19.756382278337739
 20
-14.85063193393191
 10
19.395649316066919
 20
-14.84791253541608
 10
19.036531017591731
 20
-14.860413873859329
 10
18.6813962116216
 20
-14.887798697731339
 10
18.33261372686599
 20
-14.92972975550183
 10
17.992552392034352
 20
-14.98586979564049
 10
17.66358103583611
 20
-15.055881566617019
 10
17.348068486980718
 20
-15.13942781690112
 10
17.048383574177642
 20
-15.236171294962491
 10
16.766895126136301
 20
-15.345774749270831
 10
16.505971971566151
 20
-15.46790092829583
 10
16.267982939176651
 20
-15.602212580507199
 10
16.055296857677231
 20
-15.748372454374641
 10
15.92174589654463
 20
-15.848937918298491
 10
15.818999239745191
 20
-15.91821487344327
 10
15.740038006560781
 20
-15.953763960680959
 10
15.7072835235998
 20
-15.95812825410712
 10
15.67784331627327
 20
-15.95314582088348
 10
15.650840024491419
 20
-15.938511741119051
 10
15.625396288164501
 20
-15.9139210949228
 10
15.57567804151634
 20
-15.833650423670861
 10
15.4563523697293
 20
-15.54021380878101
 10
15.25020488868053
 20
-14.949621234121
 10
15.029101666764181
 20
-14.25411721341691
 10
14.954358850489459
 20
-13.999053575825579
 10
14.909150776168239
 20
-13.80217384176572
 10
14.90006222012904
 20
-13.72117055430742
 10
14.901285293044831
 20
-13.6494543816288
 10
14.91379597607116
 20
-13.585272370028781
 10
14.93857025036356
 20
-13.52687156580631
 10
14.976584097077581
 20
-13.47249901526032
 10
15.02881349736875
 20
-13.420401764689741
 10
15.09623443239261
 20
-13.36882686039352
 10
15.179822883304711
 20
-13.31602134867058
 10
15.39940625741578
 20
-13.199706688140321
 10
15.695371468946281
 20
-13.05743415349043
 10
15.89356718951233
 20
-12.96876595029682
 10
16.112879270250421
 20
-12.880247931466521
 10
16.585809754405211
 20
-12.71307029297652
 10
17.056077405735611
 20
-12.57471693018166
 10
17.272060945443219
 20
-12.5222292559703
 10
17.465596708566579
 20
-12.484003535243181
 10
17.962485277125278
 20
-12.395740419588289
 10
18.100041775681269
 20
-12.36178013324791
 10
18.16994807500976
 20
-12.32900327930596
 10
18.181003101039021
 20
-12.31174674528293
 10
18.17691041855181
 20
-12.293211796317751
 10
18.12563504974845
 20
-12.250207622838561
 10
17.86719614886978
 20
-12.125768958628459
 10
17.554402084295781
 20
-11.996169477711231
 10
17.22979163572051
 20
-11.882648606108511
 10
16.895042112102612
 20
-11.78555361784869
 10
16.551830822400749
 20
-11.705231786960169
 10
16.20183507557357
 20
-11.64203038747133
 10
15.846732180579741
 20
-11.596296693410579
 10
15.4881994463779
 20
-11.568377978806319
 10
15.127914181926711
 20
-11.55862151768692
 10
14.820156605040941
 20
-11.556422270438331
 10
14.58496852282102
 20
-11.54400558781067
 10
14.490005853669111
 20
-11.53073045785395
 10
14.407686931933689
 20
-11.511018668601571
 10
14.3361788821981
 20
-11.48357611990324
 10
14.27364882904569
 20
-11.447108711608671
 10
14.21826389705979
 20
-11.400322343567559
 10
14.16819121082375
 20
-11.34192291562962
 10
14.121597894920921
 20
-11.270616327644539
 10
14.07665107393462
 20
-11.185108479462031
 10
13.98436541504504
 20
-10.96631260190356
 10
13.87667123082174
 20
-10.675182481751831
 10
13.54843257697042
 20
-9.7127813260340616
 10
13.209696157743879
 20
-8.6374695863746922
 10
12.86348405711378
 20
-7.4817518248175148
 10
13.017031630170321
 20
-7.4216320625574212
 10
16.97732502952168
 20
-6.5940381425965313
 10
17.146582628086691
 20
-6.9213462464340552
 10
17.30445232427914
 20
-7.1944671376694558
 10
17.51105694872669
 20
-7.5034876219090876
 10
17.75391666696984
 20
-7.8332556243128959
 10
18.020551644549091
 20
-8.168619070040819
 10
18.298482047004931
 20
-8.4944258842527987
 10
18.57522803987786
 20
-8.7955239921087802
 10
18.838309788708369
 20
-9.0567613187687037
 10
19.075247459036969
 20
-9.2629857893925092
 10
19.312943479263129
 20
-9.44536360275929
 10
19.51345503166533
 20
-9.5888561756533939
 10
19.655675454982269
 20
-9.6790709721310968
 10
19.698330661589619
 20
-9.6997015367313857
 10
19.718498087952671
 20
-9.7016154562486818
 10
19.720187398755709
 20
-9.6768507354934705
 10
19.709883795695841
 20
-9.6210195511787759
 10
19.657597739433712
 20
-9.4304065553142991
 10
19.570239702058871
 20
-9.1582739955419754
 10
19.456409466463921
 20
-8.8331193987485292
 10
19.394411598190601
 20
-8.6485668877585802
 10
19.333644018427201
 20
-8.4417453227973258
 10
19.221957432324739
 20
-7.9893122009618178
 10
19.133665123945718
 20
-7.5318543732438297
 10
19.102140391336619
 20
-7.318751925929476
 10
19.081082509079319
 20
-7.1254061796451893
 10
19.043642424880471
 20
-6.6155582107964719
 10
19.043458253612659
 20
-6.4544152179316976
 10
19.059949376522109
 20
-6.3399430034466029
 10
19.07546021554867
 20
-6.2964936218479863
 10
19.09635432882596
 20
-6.2602541553461526
 10
19.155911645741359
 20
-6.2034612616353169
 10
19.24185986248543
 20
-6.1576769103190596
 10
19.357437514275329
 20
-6.1110136894023483
 10
19.551161494034162
 20
-6.0473363694402469
 10
19.8194589486505
 20
-5.9746215543221073
 10
20.126875358605311
 20
-5.9018300441397509
 10
20.43795620437956
 20
-5.837922638984999
 10
21.016005170316301
 20
-5.7234096493033597
 10
21.380778588807789
 20
-5.6403581439905253
 10
21.442859047300519
 20
-5.6276745808490984
 10
21.49182202084101
 20
-5.6318661562130856
 10
21.529159318140859
 20
-5.6572119292515683
 10
21.55636274791167
 20
-5.7079909591336246
 10
21.574924118865049
 20
-5.7884823050283334
 10
21.586335239712621
 20
-5.9029650261047726
 10
21.593673965936741
 20
-6.2510208304791632
 10
21.601761344024649
 20
-6.5853449771428894
 10
21.626144595062001
 20
-6.9134841289749254
 10
21.66700539420928
 20
-7.2358397315942913
 10
21.72452541662696
 20
-7.5528132306200124
 10
21.798886337475501
 20
-7.8648060716711052
 10
21.890269831915379
 20
-8.1722197003665951
 10
21.998857575107081
 20
-8.4754555623255019
 10
22.124831242211052
 20
-8.7749151031668493
 10
22.268372508387781
 20
-9.0709997685096582
 10
22.429663048797739
 20
-9.3641110039729458
 10
22.608884538601391
 20
-9.6546502551757385
 10
22.80621865295921
 20
-9.9430189677370553
 10
23.021847067031679
 20
-10.229618587275921
 10
23.25595145597925
 20
-10.51485055941135
 10
23.508713494962411
 20
-10.79911632976237
 10
23.78031485914163
 20
-11.08281734394801
 10
24.1261583648302
 20
-11.416371163381809
 10
24.47701937089521
 20
-11.725077851594319
 10
24.83190151525309
 20
-12.00905871947316
 10
25.189808435820279
 20
-12.268435077905901
 10
25.54974377051321
 20
-12.503328237780149
 10
25.910711157248318
 20
-12.713859509983489
 10
26.271714233942049
 20
-12.900150205403531
 10
26.631756638510819
 20
-13.06232163492786
 10
26.989842008871069
 20
-13.20049510944407
 10
27.34497398293923
 20
-13.314791939839759
 10
27.696156198631751
 20
-13.405333437002531
 10
28.04239229386506
 20
-13.47224091181997
 10
28.38268590655559
 20
-13.51563567517967
 10
28.71604067461978
 20
-13.535639037969229
 10
29.04146023597405
 20
-13.532372311076241
 10
29.357948228534848
 20
-13.505956805388299
 10
29.66450829021861
 20
-13.456513831793011
 10
29.960144058941768
 20
-13.38416470117795
 10
30.243859172620759
 20
-13.289030724430731
 10
30.514657269172019
 20
-13.17123321243894
 10
30.77154198651197
 20
-13.030893476090171
 10
31.013516962557059
 20
-12.868132826272021
 10
31.239585835223721
 20
-12.68307257387209
 10
31.44875224242838
 20
-12.47583402977796
 10
31.640019822087481
 20
-12.24653850487724
 10
31.812392212117459
 20
-11.995307310057511
 10
31.96487305043475
 20
-11.722261756206381
 10
32.096465974955777
 20
-11.427523154211441
 10
32.206174623596993
 20
-11.11121281496029
 10
32.293002634274821
 20
-10.773452049340509
 10
32.355953644905703
 20
-10.4143621682397
 10
32.394031293406037
 20
-10.03406448254546
 10
32.403354169776442
 20
-9.8326948179779983
 10
32.405109824756721
 20
-9.6319586172321365
 10
32.399187120065193
 20
-9.4313951746083085
 10
32.385474917420119
 20
-9.2305437844069527
 10
32.363862078539832
 20
-9.0289437409285007
 10
32.334237465142621
 20
-8.8261343384733895
 10
32.296489938946777
 20
-8.621654871342054
 10
32.250508361670597
 20
-8.4150446338349276
 10
32.133398500750452
 20
-7.993589024895047
 10
31.982018776128552
 20
-7.5580818660572291
 10
31.79548008155129
 20
-7.1048375117249538
 10
31.572893310765039
 20
-6.630170316301701
 10
31.398456629721871
 20
-6.2930875827392541
 10
31.215811212232399
 20
-5.9703235617751993
 10
31.024416092643801
 20
-5.6613517511528144
 10
30.823730305303251
 20
-5.3656456486153772
 10
30.613212884557932
 20
-5.0826787519061654
 10
30.392322864755041
 20
-4.8119245587684567
 10
30.160519280241751
 20
-4.5528565669455308
 10
29.91726116536524
 20
-4.3049482741806626
 10
29.662007554472691
 20
-4.0676731782171309
 10
29.394217481911291
 20
-3.8405047767982148
 10
29.113349982028222
 20
-3.6229165676671919
 10
28.81886408917066
 20
-3.4143820485673388
 10
28.510218837685802
 20
-3.2143747172419341
 10
28.186873261920809
 20
-3.0223680714342551
 10
27.848286396222871
 20
-2.83783560888758
 10
27.493917274939179
 20
-2.660250827345187
 10
26.907463875568691
 20
-2.391967082216405
 10
26.630013124194349
 20
-2.2768507643266922
 10
26.359364038925872
 20
-2.173650746304046
 10
26.092729895187201
 20
-2.0817914757114262
 10
25.827323968402279
 20
-2.0006974001117919
 10
25.560359533995051
 20
-1.929792967068106
 10
25.289049867389469
 20
-1.8685026241433269
 10
25.010608244009479
 20
-1.816250818900415
 10
24.722247939279011
 20
-1.77246199890233
 10
24.42118222862204
 20
-1.7365606117120329
 10
24.104624387462479
 20
-1.707971104892483
 10
23.413885415331411
 20
-1.670425522617468
 10
22.627737226277379
 20
-1.6552208325809661
 10
20.68126520681265
 20
-1.642335766423358
 10
20.01216545012166
 20
-1.7324015945987341
 10
19.637697688564479
 20
-1.7786494850620991
 10
19.548120057785891
 20
-1.780831414671703
 10
19.528369021821781
 20
-1.775238486577376
 10
19.52554744525548
 20
-1.764637862647968
 10
19.571405489659369
 20
-1.726758225576926
 10
19.687119829683699
 20
-1.663881900044611
 10
20.1338199513382
 20
-1.449896769940302
 10
20.553389285699289
 20
-1.260931329183232
 10
20.991588245166412
 20
-1.080229978978845
 10
21.44421639712068
 20
-0.909179434193766
 10
21.907073308943222
 20
-0.7491664096946176
 10
22.375958548015142
 20
-0.6015776203480235
 10
22.846671681717549
 20
-0.4677997810206075
 10
23.315012277431581
 20
-0.3492196065789929
 10
23.776779902538351
 20
-0.2472238118898034
 10
24.360839021403081
 20
-0.1247470832107778
 10
24.51992950072405
 20
-0.0843785570574532
 10
24.596547197039669
 20
-0.0533353297810848
 10
24.605370924321001
 20
-0.0402354079294538
 10
24.59530706315163
 20
-0.0281764564462955
 10
24.52082405186162
 20
-0.0054609921177085
 10
24.17058920828245
 20
0.0464034892623673
 10
23.812127610027829
 20
0.10640532941307
 10
23.392304874424489
 20
0.1976622602873452
 10
22.927563754958939
 20
0.3153152618058788
 10
22.434347005117701
 20
0.4545053138893564
 10
21.929097378387279
 20
0.6103733964584639
 10
21.42825762825418
 20
0.7780604894338867
 10
20.94827050820491
 20
0.9527075727363108
 10
20.50557877172599
 20
1.1294556262864219
 10
19.58637469586375
 20
1.516361019244862
 10
24.5742092457421
 20
1.53346991547226
 10
25.547445255474461
 20
1.7991927667716889
 10
25.768507445365799
 20
1.865170884028541
 10
26.02414871554544
 20
1.9510799352351209
 10
26.6026558238908
 20
2.1682030930796818
 10
27.209941234752879
 20
2.4215867474698038
 10
27.77297960237404
 20
2.682255405569919
 10
28.148404283043341
 20
2.8778644864624301
 10
28.509714819749512
 20
3.0875510818690741
 10
28.85681490818309
 20
3.31120759046979
 10
29.189608244034659
 20
3.548726410944516
 10
29.507998522994761
 20
3.799999941973188
 10
29.81188944075398
 20
4.0649205822357466
 10
30.10118469300286
 20
4.343380730412127
 10
30.37578797543198
 20
4.635272785182269
 10
30.635602983731889
 20
4.9404891452261097
 10
30.88053341359316
 20
5.258922209223587
 10
31.110482960706349
 20
5.5904643758546388
 10
31.325355320762021
 20
5.9350080437992032
 10
31.525054189450739
 20
6.2924456117372181
 10
31.70948326246307
 20
6.6626694783486196
 10
31.878546235489569
 20
7.0455720423133492
 10
32.032146804220801
 20
7.4410457023113423
 10
32.123270216798502
 20
7.7028661675645154
 10
32.196257102794789
 20
7.9409858590480367
 10
32.252978424596471
 20
8.1675099658103409
 10
32.29530514459033
 20
8.3945436768998594
 10
32.325108225163163
 20
8.6341921813650302
 10
32.344258628701738
 20
8.8985606682542837
 10
32.358085254223333
 20
9.549878345498783
 10
32.349077378934737
 20
10.03016408157279
 10
32.317687700625243
 20
10.44879531995876
 10
32.292351854610338
 20
10.638769173962981
 10
32.259923160967439
 20
10.817863809278281
 10
32.219902487405633
 20
10.987590694482369
 10
32.171790701633988
 20
11.14946129815295
 10
32.115088671361598
 20
11.30498708886771
 10
32.049297264297543
 20
11.455679535204361
 10
31.973917348150881
 20
11.603050105740589
 10
31.888449790630709
 20
11.748610269054099
 10
31.792395459446109
 20
11.893871493722591
 10
31.685255222306161
 20
12.04034524832376
 10
31.435720500996521
 20
12.342976221634951
 10
31.303112502410642
 20
12.48408850708253
 10
31.16239871068472
 20
12.614847059701461
 10
31.013893029319359
 20
12.735275424671929
 10
30.8579093618151
 20
12.845397147174101
 10
30.69476161167254
 20
12.945235772388139
 10
30.524763682392241
 20
13.034814845494219
 10
30.348229477474788
 20
13.11415791167251
 10
30.165472900420749
 20
13.18328851610319
 10
29.976807854730691
 20
13.24223020396642
 10
29.78254824390519
 20
13.29100652044237
 10
29.583007971444829
 20
13.32964101071121
 10
29.37850094085017
 20
13.358157219953121
 10
29.169341055621789
 20
13.376578693348261
 10
28.955842219260269
 20
13.3849289760768
 10
28.738318335266179
 20
13.383231613318911
 10
28.517083307140091
 20
13.371510150254769
 10
28.29245103838257
 20
13.349788132064541
 10
28.064735432494199
 20
13.318089103928401
 10
27.834250392975559
 20
13.27643661102651
 10
27.60130982332721
 20
13.22485419853904
 10
27.366227627049721
 20
13.16336541164617
 10
27.12931770764369
 20
13.09199379552806
 10
26.890893968609671
 20
13.01076289536489
 10
26.65127031344824
 20
12.91969625633682
 10
26.41076064565997
 20
12.818817423624029
 10
26.169678868745439
 20
12.70814994240668
 10
25.928338886205221
 20
12.58771735786495
 10
25.687054601539892
 20
12.457543215178999
 10
25.446139918250019
 20
12.317651059529011
 10
25.205908739836168
 20
12.16806443609514
 10
24.96667496979893
 20
12.008806890057571
 10
24.72875251163887
 20
11.83990196659647
 10
24.379262243885741
 20
11.565190720879389
 10
24.042856690698791
 20
11.263906884058381
 10
23.72117940512917
 20
10.939149872351781
 10
23.415873940228039
 20
10.594019101977899
 10
23.128583849046571
 20
10.231613989155081
 10
22.860952684635912
 20
9.8550339501016424
 10
22.614624000047229
 20
9.4673784010359086
 10
22.391241348331679
 20
9.071746758176209
 10
22.192448282540429
 20
8.6712384377408664
 10
22.019888355724628
 20
8.2689528559482053
 10
21.875205120935441
 20
7.8679894290165553
 10
21.760042131224029
 20
7.47144757316424
 10
21.676042939641562
 20
7.0824267046095857
 10
21.646243378477159
 20
6.8917052081371084
 10
21.624851099239169
 20
6.7040262395709176
 10
21.61207154605901
 20
6.5197772259383067
 10
21.608110163068051
 20
6.3393455942665629
 10
21.61317239439769
 20
6.1631187715829796
 10
21.627463684179329
 20
5.9914841849148459
 10
21.641920403515829
 20
5.7907304972627784
 10
21.638423984329659
 20
5.6263305961070609
 10
21.61842156892688
 20
5.5152495818126566
 10
21.6026828446149
 20
5.4850052511024998
 10
21.583360299613549
 20
5.4744525547445306
 10
21.152545589327961
 20
5.5508364201993032
 10
20.26010448757728
 20
5.734482735016087
 10
19.55412702275353
 20
5.8907291822217571
 10
19.33711634238902
 20
5.9509971694793791
 10
19.191691195942251
 20
6.0093411366431111
 10
19.14135448681758
 20
6.0401305511592023
 10
19.10355170782783
 20
6.0732456868151434
 10
19.076495374524821
 20
6.1096221189987068
 10
19.05839800246039
 20
6.1501954230976663
 10
19.041930204254552
 20
6.24767494859287
 10
19.039848437624929
 20
6.373168866402942
 10
19.051648675772739
 20
6.6538352191826569
 10
19.08379111499724
 20
6.9739444126645624
 10
19.133251249017871
 20
7.318238115913215
 10
19.197004571554061
 20
7.6714579979931781
 10
19.27202657632527
 20
8.0183457279690096
 10
19.355292757050918
 20
8.3436429749052685
 10
19.443778607450461
 20
8.6320914078665147
 10
19.534459621243329
 20
8.8684326959173063
 10
19.622000861986141
 20
9.0813870611348069
 10
19.684900396235928
 20
9.2645674295530966
 10
19.717289979235421
 20
9.3984480510595105
 10
19.720209712529648
 20
9.4407991598105561
 10
19.713301366227309
 20
9.4635031755413834
 10
19.691251906195209
 20
9.4747506074369205
 10
19.65916163806585
 20
9.4752129412534529
 10
19.567580553280049
 20
9.4457293394749229
 10
19.444001863399269
 20
9.3789464198566588
 10
19.293869319952861
 20
9.2787582320495154
 10
19.122626674470158
 20
9.1490588257043584
 10
18.935717678480518
 20
8.9937422504720459
 10
18.738586083513301
 20
8.8167025560034418
 10
18.53667564109783
 20
8.6218337919494061
 10
18.356595904085719
 20
8.4251963017233749
 10
18.14436017607369
 20
8.1674773299788512
 10
17.91558141842976
 20
7.8705748619477296
 10
17.685872592521921
 20
7.5563868828619114
 10
17.470846659718191
 20
7.2468113779532866
 10
17.286116581386558
 20
6.9637463324537556
 10
17.14729531889504
 20
6.7290897315952121
 10
17.069995833611632
 20
6.5647395606095529
 10
17.031630170316301
 20
6.4515965769702754
 10
13.503649635036499
 20
7.1735508288539194
 10
13.1806893840893
 20
7.2668240762274507
 10
13.075320386285791
 20
7.3014086244864247
 10
13.03511933596617
 20
7.322882880946441
 10
13.003842919239849
 20
7.3511243895913481
 10
12.981942887010741
 20
7.389117598394547
 10
12.96987099018275
 20
7.439846955329438
 10
12.968078979659779
 20
7.5062969083694266
 10
12.977018606345739
 20
7.5914519054879124
 10
13.028899774960101
 20
7.8298148238539884
 10
13.129128503257091
 20
8.1788112942148832
 10
13.48908466782404
 20
9.3042072260699982
 10
14.120440202505961
 20
11.248317128539011
 10
15.36988451452876
 20
11.39507331550926
 10
15.70280964252569
 20
11.439323651592909
 10
16.035152399547449
 20
11.493043244832011
 10
16.362065767304191
 20
11.554531586425419
 10
16.67870272750605
 20
11.622088167572031
 10
17.261759352085679
 20
11.76860401332034
 10
17.518484979883741
 20
11.84416226031979
 10
17.745546126967469
 20
11.91898671166793
 10
17.938095775047021
 20
11.99137685856364
 10
18.091286905832529
 20
12.0596321922058
 10
18.200272501034139
 20
12.12205220379327
 10
18.260205542361991
 20
12.176936384524939
 10
18.27026266210768
 20
12.201021129319489
 10
18.266239011526231
 20
12.22258422559967
 10
18.247528713331409
 20
12.24141310976534
 10
18.21352589023698
 20
12.257295218216351
 10
18.0972191602044
 20
12.27936885357385
 10
17.912471803138619
 20
12.287104622871039
 10
17.697101758475071
 20
12.30066085799927
 10
17.442271457880171
 20
12.339746576708659
 10
17.15613694154429
 20
12.40198729898631
 10
16.84685424965782
 20
12.4850085448193
 10
16.52257942241113
 20
12.586435834194701
 10
16.19146849999462
 20
12.7038946870996
 10
15.861677522598651
 20
12.83501062352107
 10
15.54136253041362
 20
12.9774091634462
 10
15.29768804135345
 20
13.09749823954389
 10
15.19995688059257
 20
13.15277446425719
 10
15.1176684473118
 20
13.20741227266249
 10
15.050351745236631
 20
13.26331700919657
 10
14.99753577809255
 20
13.32239401829619
 10
14.95874954960504
 20
13.38654864439814
 10
14.93352206349959
 20
13.45768623193919
 10
14.9213823235017
 20
13.5377121253561
 10
14.92185933333683
 20
13.62853166908566
 10
14.934482096730489
 20
13.73205020756463
 10
14.95877961740816
 20
13.8501730852298
 10
15.04051494551746
 20
14.137853235865791
 10
15.16329734746863
 20
14.506814876487841
 10
15.326344236528231
 20
14.989695422782029
 10
15.446933328327351
 20
15.338161387546251
 10
15.49683232674548
 20
15.466744108374989
 10
15.542748227638
 20
15.567429431645699
 10
15.586891481601389
 20
15.64211943996651
 10
15.631472539232149
 20
15.692716215945589
 10
15.678701851126799
 20
15.721121842191071
 10
15.730789867881819
 20
15.729238401311109
 10
15.789947040093709
 20
15.71896797591387
 10
15.85838381835898
 20
15.69221264860748
 10
16.031937995435641
 20
15.596855618699889
 10
16.269136003883791
 20
15.45838397245355
 10
16.611241083534679
 20
15.282878398417671
 10
16.971950559923261
 20
15.130819629740831
 10
17.349367708762639
 20
15.00220630595317
 10
17.741595805765929
 20
14.897037066584851
 10
18.146738126646252
 20
14.81531055116603
 10
18.56289794711671
 20
14.75702539922686
 10
18.988178542890431
 20
14.7221802502975
 10
19.420683189680531
 20
14.710773743908099
 10
19.858515163200121
 20
14.722804519588831
 10
20.29977773916232
 20
14.75827121686982
 10
20.742574193280241
 20
14.81717247528125
 10
21.185007801267009
 20
14.89950693435326
 10
21.625181838835729
 20
15.00527323361602
 10
22.061199581699508
 20
15.134470012599669
 10
22.491164305571491
 20
15.28709591083437
 10
22.913179286164759
 20
15.46314956785028
 10
23.21281263749411
 20
15.6053503461962
 10
23.505701156553609
 20
15.759068802419749
 10
23.790962858367351
 20
15.92349542264234
 10
24.067715757959441
 20
16.097820692985401
 10
24.335077870353999
 20
16.28123509957037
 10
24.592167210575099
 20
16.472929128518661
 10
24.838101793646871
 20
16.672093265951691
 10
25.0719996345934
 20
16.87791799799091
 10
25.292978748438792
 20
17.089593810757719
 10
25.500157150207158
 20
17.30631119037356
 10
25.692652854922599
 20
17.52726062295984
 10
25.869583877609202
 20
17.751632594638011
 10
26.03006823329109
 20
17.978617591529471
 10
26.173223936992361
 20
18.207406099755669
 10
26.298169003737112
 20
18.437188605438021
 10
26.40402144854944
 20
18.667155594697949
 10
26.443462644357261
 20
18.77674530565228
 10
26.4804296247442
 20
18.908765158366212
 10
26.543655499466229
 20
19.220019053497939
 10
26.587128193137101
 20
19.560764808943219
 10
26.604276826178349
 20
19.890849953552149
 10
26.599013818430731
 20
20.119243323885311
 10
26.58069195160812
 20
20.342529085134821
 10
26.54950817353215
 20
20.560565720134381
 10
26.505659432024419
 20
20.77321171171771
 10
26.44934267490655
 20
20.980325542718521
 10
26.380754850000159
 20
21.181765695970519
 10
26.30009290512686
 20
21.377390654307419
 10
26.207553788108282
 20
21.56705890056293
 10
26.10333444676602
 20
21.750628917570769
 10
25.9876318289217
 20
21.92795918816465
 10
25.860642882396949
 20
22.098908195178279
 10
25.722564555013371
 20
22.263334421445361
 10
25.57359379459259
 20
22.42109634979963
 10
25.41392754895621
 20
22.572052463074769
 10
25.243762765925862
 20
22.716061244104509
 10
25.063296393323149
 20
22.852981175722551
 10
24.872725378969701
 20
22.982670740762622
 10
24.67224667068712
 20
23.104988422058408
 10
24.46205721629703
 20
23.219792702443652
 10
24.242353963621049
 20
23.32694206475205
 10
24.013333860480792
 20
23.426294991817311
 10
23.775193854697871
 20
23.517709966473149
 10
23.528130894093909
 20
23.60104547155327
 10
23.272341926490519
 20
23.676159989891399
 10
23.008023899709311
 20
23.742912004321251
 10
22.73537376157191
 20
23.80115999767651
 10
22.454588459899941
 20
23.850762452790921
 10
22.16586494251499
 20
23.89157785249817
 10
21.869400157238712
 20
23.923464679631991
 10
21.565391051892689
 20
23.946281417026078
 10
21.254034574298561
 20
23.959886547514149
 10
20.935527672277932
 20
23.96413855392991
 10
20.555991926598612
 20
23.95720706580715
 10
20.186233755663832
 20
23.937375732411251
 10
19.825527169714739
 20
23.904398734379839
 10
19.47314617899244
 20
23.85803025235052
 10
19.128364793738079
 20
23.7980244669609
 10
18.790457024192769
 20
23.724135558848609
 10
18.458696880597639
 20
23.636117708651231
 10
18.13235837319381
 20
23.5337250970064
 10
17.810715512222419
 20
23.416711904551711
 10
17.493042307924579
 20
23.284832311924792
 10
17.178612770541442
 20
23.137840499763239
 10
16.866700910314101
 20
22.975490648704671
 10
16.556580737483699
 20
22.797536939386699
 10
16.24752626229137
 20
22.603733552446929
 10
15.93881149497822
 20
22.393834668522981
 10
15.62971044578539
 20
22.16759446825246
 10
15.3491363017532
 20
21.948709964454029
 10
15.08027875351639
 20
21.725656739395699
 10
14.822082584851261
 20
21.497064981498699
 10
14.573492579534101
 20
21.261564879184231
 10
14.333453521341189
 20
21.017786620873519
 10
14.100910194048829
 20
20.764360394987779
 10
13.874807381433291
 20
20.499916389948229
 10
13.65408986727088
 20
20.223084794176089
 10
13.43770243533787
 20
19.932495796092581
 10
13.224589869410559
 20
19.626779584118911
 10
13.01369695326524
 20
19.3045663466763
 10
12.80396847067818
 20
18.964486272185962
 10
12.59434920542569
 20
18.605169549069121
 10
12.383783941284049
 20
18.225246365747001
 10
12.17121746202956
 20
17.823346910640812
 10
11.95559455143848
 20
17.398101372171769
 10
11.259120976356289
 20
15.997566909975671
 10
11.25657038070497
 20
16.362530413625311
 10
11.27038641178676
 20
16.64103078810081
 10
11.31173104302621
 20
17.01509020749209
 10
11.375798674289131
 20
17.45797063216731
 10
11.45778370544131
 20
17.94293402249464
 10
11.55288053634856
 20
18.443242338842261
 10
11.65628356687666
 20
18.932157541578341
 10
11.763187196891421
 20
19.382941591071049
 10
11.86878582625863
 20
19.76885644768856
 10
12.19595416915362
 20
20.863746958637481
 10
12.267712346252191
 20
21.107055961070561
 10
11.2348009876119
 20
20.069812144189228
 10
10.760736063548039
 20
19.61212480640727
 10
10.233527055596729
 20
19.132710931039551
 10
9.7174248038010447
 20
18.688453501662739
 10
9.2766801482040506
 20
18.33623550185348
 10
8.3514706674364874
 20
17.639902676399061
 10
8.2228945907663444
 20
17.639902676399029
 10
8.9520012329949239
 20
18.643552311435531
 10
9.1354266880280157
 20
18.9039570680475
 10
9.3186462380232697
 20
19.179407370806189
 10
9.6800895198775709
 20
19.766460116754711
 10
10.02757487251243
 20
20.38674155326315
 10
10.35234608988247
 20
21.022282684313581
 10
10.64564696594228
 20
21.655114513888069
 10
10.777759711591671
 20
21.964899129366241
 10
10.89872129464648
 20
22.267268045968699
 10
11.007437189351039
 20
22.55997513919321
 10
11.10281286994968
 20
22.840774284537531
 10
11.183753810686721
 20
23.10741935749942
 10
11.24916548580649
 20
23.357664233576639
 10
11.30909106400685
 20
23.634075181740879
 10
11.36098034157795
 20
23.923161206972509
 10
11.404835316000231
 20
24.222781950570571
 10
11.44065798475415
 20
24.530797053834139
 10
11.46845034532015
 20
24.845066158062249
 10
11.48821439517868
 20
25.16344890455397
 10
11.499952131810179
 20
25.483804934608369
 10
11.503665552695111
 20
25.803993889524481
 10
11.49935665531391
 20
26.12187541060138
 10
11.487027437147029
 20
26.43530913913812
 10
11.46667989567492
 20
26.742154716433749
 10
11.43831602837802
 20
27.040271783787329
 10
11.40193783273679
 20
27.327519982497911
 10
11.357547306231661
 20
27.601758953864561
 10
11.305146446343089
 20
27.86084833918634
 10
11.24473725055153
 20
28.10264777976229
 10
11.119035443201319
 20
28.515605417407009
 10
10.97347762164086
 20
28.92032347250467
 10
10.808973269255629
 20
29.315638982930121
 10
10.626431869431171
 20
29.700388986558231
 10
10.42676290555297
 20
30.07341052126386
 10
10.21087586100654
 20
30.433540624921871
 10
9.979680219177375
 20
30.77961633540712
 10
9.7340854634509988
 20
31.110474690594469
 10
9.4750010772129105
 20
31.424952728358779
 10
9.2033365438486197
 20
31.721887486574911
 10
8.9200013467436285
 20
32.000116003117718
 10
8.625904969283452
 20
32.258475315862071
 10
8.3219568948535922
 20
32.495802462682832
 10
8.0090666068395535
 20
32.710934481454849
 10
7.6881435886268452
 20
32.902708410052988
 10
7.360097323600975
 20
33.069961286352132
 10
7.173929514762893
 20
33.152328172619001
 10
6.9975551110824341
 20
33.220163853688689
 10
6.8255177886503917
 20
33.274600168618562
 10
6.6523612235575582
 20
33.316768956465957
 10
6.472629091894726
 20
33.347802056288288
 10
6.2808650697526858
 20
33.368831307142898
 10
6.0716128332222334
 20
33.380988548087167
 10
5.839416058394157
 20
33.385405618178453
 10
5.4501541023702824
 20
33.376492947721289
 10
5.1022373210743996
 20
33.344822365412007
 10
4.941418899119264
 20
33.319596562029929
 10
4.7880994046498984
 20
33.287653726345368
 10
4.6413330489342268
 20
33.248651340245161
 10
4.5001740432401727
 20
33.202246885616127
 10
4.3636765988356609
 20
33.148097844345159
 10
4.2308949269886149
 20
33.085861698319057
 10
4.1008832389669587
 20
33.015195929424699
 10
3.972695746038617
 20
32.935758019548913
 10
3.718010190533573
 20
32.749195704400442
 10
3.459271950616873
 20
32.523434607968412
 10
3.2622258005611759
 20
32.32366817264618
 10
3.0796726343100129
 20
32.107258807004101
 10
2.9115519954667
 20
31.875209327473609
 10
2.7578034276345531
 20
31.628522550486121
 10
2.618366474416884
 20
31.368201292473071
 10
2.493180679417009
 20
31.095248369865871
 10
2.3821855862382439
 20
30.810666599095939
 10
2.2853207384839012
 20
30.515458796594721
 10
2.202525679757295
 20
30.210627778793619
 10
2.1337399536617441
 20
29.897176362124071
 10
2.0789031038005592
 20
29.576107363017488
 10
2.0379546737770551
 20
29.248423597905312
 10
2.0108342071945482
 20
28.91512788321895
 10
1.9974812476563519
 20
28.577223035389821
 10
1.9978353387657819
 20
28.235711870849361
 10
2.0118360241261519
 20
27.891597206029001
 10
2.0394228473407781
 20
27.54588185736014
 10
2.0805353520129728
 20
27.199568641274219
 10
2.1351130817460522
 20
26.853660374202661
 10
2.2030955801433301
 20
26.50915987257688
 10
2.284422390808122
 20
26.16706995282831
 10
2.379033057343741
 20
25.828393431388381
 10
2.486867123353504
 20
25.494133124688489
 10
2.6078641324407248
 20
25.165291849160081
 10
2.7419636282087172
 20
24.842872421234571
 10
2.8891051542607968
 20
24.527877657343389
 10
3.049228254200278
 20
24.221310373917952
 10
3.222272471630474
 20
23.92417338738969
 10
3.4081773501547019
 20
23.63746951419002
 10
3.606882433376275
 20
23.362201570750369
 10
3.8183272648985072
 20
23.09937237350216
 10
4.0424513883247144
 20
22.84998473887681
 10
4.3653911386337816
 20
22.534798561988762
 10
4.725686380511565
 20
22.222390397300209
 10
5.0793678722956068
 20
21.948845340559021
 10
5.239988073882957
 20
21.837923070089911
 10
5.3824663723234494
 20
21.75024848751309
 10
5.5915606963062512
 20
21.6292839911127
 10
5.7394680128745907
 20
21.52800444605505
 10
5.7900452761651708
 20
21.480308987663211
 10
5.824808266946337
 20
21.4322097159672
 10
5.8435844783328212
 20
21.381931613920401
 10
5.8462014034393581
 20
21.327699664476199
 10
5.8324865353806814
 20
21.267738850587971
 10
5.8022673672715221
 20
21.200274155209112
 10
5.7553713922266176
 20
21.123530561292981
 10
5.691626103360699
 20
21.035733051792981
 10
5.2647016719815616
 20
20.538503517021841
 10
4.5089961467614827
 20
19.68819948216456
 10
4.3133484073979176
 20
19.583491989672279
 10
4.2849073854205697
 20
19.573736992083301
 10
4.2498089252204618
 20
19.571020631630368
 10
4.1611782361840426
 20
19.585542661279739
 10
4.0505334323528226
 20
19.624735756914468
 10
3.920951605790961
 20
19.686277596828671
 10
3.7755098485626188
 20
19.767845859316431
 10
3.617285252731957
 20
19.867118222671841
 10
3.274795913520316
 20
20.109485965162001
 10
2.9181003246693251
 20
20.39480225065191
 10
2.5718152226922699
 20
20.704488505494322
 10
2.4102693344418702
 20
20.86266456715795
 10
2.2605573441024349
 20
21.019966156041988
 10
2.1257563437381282
 20
21.174070950440541
 10
2.0089434254131082
 20
21.322656628647682
 10
1.7721833798944979
 20
21.63554674645669
 10
1.6949716058689639
 20
21.724477996630011
 10
1.6392955114311749
 20
21.77191171786512
 10
1.6181482300964121
 20
21.780890054400189
 10
1.6007227319050561
 20
21.780481667823931
 10
1.586464971272598
 20
21.771015777844081
 10
1.574820902614529
 20
21.752821604168378
 10
1.5571576588835201
 20
21.69156528456039
 10
1.5433006360359509
 20
21.599346466661899
 10
1.537183497980354
 20
21.503230339296451
 10
1.540434324689457
 20
21.389924191752929
 10
1.5733460735097891
 20
21.117684449656871
 10
1.6386482847129951
 20
20.794512467424109
 10
1.7329533605151251
 20
20.432293472105069
 10
1.852873703132224
 20
20.042912690750139
 10
1.995021714780342
 20
19.638255350409722
 10
2.1560097976755261
 20
19.23020667813422
 10
2.3324503540338242
 20
18.830651900974029
 10
2.5039581025494431
 20
18.469644219933102
 10
2.569517403198228
 20
18.323168115937801
 10
2.6190742650466619
 20
18.192882370994081
 10
2.6507241457989941
 20
18.073915886128031
 10
2.66256250315947
 20
17.96139756236575
 10
2.652684794832342
 20
17.850456300733349
 10
2.6191864785218559
 20
17.736221002256919
 10
2.5601630119322611
 20
17.613820567962549
 10
2.4737098527678061
 20
17.478383898876359
 10
2.3579224587327401
 20
17.325039896024428
 10
2.2108962875313112
 20
17.148917460432859
 10
1.815509444446356
 20
16.70885289513522
 10
1.2723129851469319
 20
16.119221411192211
 10
0.154945168144593
 20
14.90267639902676
 10
-0.0270644227896213
 20
14.8328276741553
 10
-1.887614044534516
 20
16.810603521964779
 10
-2.3283184465184088
 20
17.348425165618909
 10
-2.472924709535635
 20
17.52766800809184
 10
-2.576215721564449
 20
17.673110765365799
 10
-2.6123682543011961
 20
17.738351078894912
 10
-2.6381922693024311
 20
17.801374131334381
 10
-2.6536878649053528
 20
17.864257509420899
 10
-2.6588551394471578
 20
17.92907879989118
 10
-2.653694191265044
 20
17.997915589481909
 10
-2.6382051186962081
 20
18.072845464929799
 10
-2.5762429937471589
 20
18.24929482034382
 10
-2.3283855780450788
 20
18.76672437787251
 10
-2.1542831918498542
 20
19.136320512801181
 10
-1.997132079101944
 20
19.51342527070851
 10
-1.859032834475731
 20
19.89079325247425
 10
-1.742086052645599
 20
20.261179058978112
 10
-1.6483923282859281
 20
20.61733729109983
 10
-1.580052256071101
 20
20.952022549719139
 10
-1.5391664306755011
 20
21.257989435715761
 10
-1.527835446773508
 20
21.527992549969429
 10
-1.536049204366186
 20
21.750805425587959
 10
-1.5445479292530131
 20
21.814728745159961
 10
-1.557606003490237
 20
21.849077351612149
 10
-1.5764470160454129
 20
21.85541176922332
 10
-1.602294555886095
 20
21.835292522272251
 10
-1.67990357329419
 20
21.721935131798588
 10
-1.820399474155175
 20
21.51891495888124
 10
-2.008097525478393
 20
21.287250306461409
 10
-2.232529051446615
 20
21.03732671910215
 10
-2.48322537624261
 20
20.779529741366499
 10
-2.7497178240491431
 20
20.524244917817519
 10
-3.021537719048986
 20
20.281857793018229
 10
-3.288216385424906
 20
20.062753911531701
 10
-3.5392851473596711
 20
19.877318817920951
 10
-3.8908518723773922
 20
19.645267932834489
 10
-4.016325684991191
 20
19.5744373520746
 10
-4.1158879945090998
 20
19.531134986513891
 10
-4.1952599485567319
 20
19.513409566660069
 10
-4.2601626947596998
 20
19.519309823020851
 10
-4.3163173807436177
 20
19.546884486103941
 10
-4.3694451541340982
 20
19.594182286417048
 10
-5.269890418744879
 20
20.6061633932684
 10
-5.51128601957363
 20
20.88314495883445
 10
-5.6851053992038896
 20
21.095070342538389
 10
-5.7470898151577128
 20
21.180837386281439
 10
-5.7926791467176653
 20
21.25538088866622
 10
-5.8220397175190008
 20
21.320381017728469
 10
-5.835337851196968
 20
21.377517941503928
 10
-5.8327398713868188
 20
21.428471828028378
 10
-5.8144121017238044
 20
21.474922845337542
 10
-5.7805208658431733
 20
21.51855116146718
 10
-5.731232487380181
 20
21.56103694445304
 10
-5.5871295972481088
 20
21.64930158313642
 10
-5.3834340204095952
 20
21.753158105673691
 10
-5.1426680245475049
 20
21.883657235123071
 10
-4.906709607434383
 20
22.03256495573299
 10
-4.6759946709307032
 20
22.199309395880551
 10
-4.4509591168969429
 20
22.383318683942829
 10
-4.2320388471935786
 20
22.584020948296931
 10
-4.0196697636810832
 20
22.800844317319932
 10
-3.8142877682199332
 20
23.033216919388931
 10
-3.6163287626706042
 20
23.280566882881001
 10
-3.4262286488935731
 20
23.54232233617325
 10
-3.2444233287493129
 20
23.81791140764275
 10
-3.0713487040983019
 20
24.106762225666611
 10
-2.907440676801015
 20
24.40830291862191
 10
-2.7531351487179259
 20
24.721961614885728
 10
-2.608868021709513
 20
25.04716644283517
 10
-2.4750751976362491
 20
25.383345530847318
 10
-2.3521925783586108
 20
25.729927007299271
 10
-2.2688160577203651
 20
25.993017316075662
 10
-2.2032995055821911
 20
26.237714294246679
 10
-2.153605212779695
 20
26.483423117053459
 10
-2.1176954701484791
 20
26.74954895973713
 10
-2.093532568524147
 20
27.05549699753881
 10
-2.0790787987423038
 20
27.420672405699641
 10
-2.071147818048495
 20
28.40632603406327
 10
-2.074169115415728
 20
30.23114355231144
 10
-2.3491750799790689
 20
30.91880034691459
 10
-2.480611290818322
 20
31.224118732843252
 10
-2.622512145566442
 20
31.50873046764665
 10
-2.775040383413736
 20
31.7727518516709
 10
-2.9383587435505101
 20
32.016299185262113
 10
-3.1126299651670708
 20
32.239488768766392
 10
-3.298016787453725
 20
32.442436902529863
 10
-3.4946819496007788
 20
32.625259886898611
 10
-3.70278819079854
 20
32.788074022218773
 10
-3.9224982502373131
 20
32.930995608836447
 10
-4.1539748671074062
 20
33.054140947097757
 10
-4.3973807805991267
 20
33.157626337348788
 10
-4.6528787299027794
 20
33.241568079935668
 10
-4.9206314542086709
 20
33.306082475204519
 10
-5.2008016927071079
 20
33.351285823501442
 10
-5.4935521845883981
 20
33.377294425172543
 10
-5.7990456690428474
 20
33.384224580563917
 10
-6.0428685092409404
 20
33.376949470593772
 10
-6.2773226860045011
 20
33.358840599932918
 10
-6.5035412618275634
 20
33.329320016588888
 10
-6.7226572992041556
 20
33.287809768569282
 10
-6.9358038606283152
 20
33.233731903881598
 10
-7.1441140085940749
 20
33.166508470533437
 10
-7.3487208055954669
 20
33.085561516532337
 10
-7.550757314126523
 20
32.990313089885873
 10
-7.7513565966812772
 20
32.88018523860157
 10
-7.9516517157537621
 20
32.754600010687
 10
-8.1527757338380109
 20
32.612979454149723
 10
-8.3558617134280553
 20
32.454745616997272
 10
-8.5620427170179294
 20
32.279320547237234
 10
-8.7724518071016657
 20
32.08612629287714
 10
-8.9882220461732985
 20
31.87458490192456
 10
-9.2104864967268583
 20
31.644118422387042
 10
-9.4841902849359734
 20
31.33993831789115
 10
-9.7408348829897768
 20
31.02750951410097
 10
-9.980337623166001
 20
30.707039613677779
 10
-10.202615837742369
 20
30.37873621928286
 10
-10.407586858996609
 20
30.042806933577459
 10
-10.59516801920646
 20
29.69945935922285
 10
-10.765276650649639
 20
29.348901098880312
 10
-10.91783008560388
 20
28.991339755211101
 10
-11.052745656346911
 20
28.62698293087649
 10
-11.169940695156461
 20
28.256038228537761
 10
-11.26933253431026
 20
27.878713250856158
 10
-11.35083850608604
 20
27.495215600492958
 10
-11.41437594276152
 20
27.105752880109439
 10
-11.45986217661444
 20
26.710532692366868
 10
-11.48721453992253
 20
26.309762639926511
 10
-11.496350364963501
 20
25.903650325449629
 10
-11.4878895099777
 20
25.455519038974028
 10
-11.462262217219729
 20
25.013612168954641
 10
-11.41910139498874
 20
24.576855674035119
 10
-11.35803995158388
 20
24.144175512859139
 10
-11.278710795304301
 20
23.714497644070331
 10
-11.18074683444917
 20
23.286748026312381
 10
-11.06378097731762
 20
22.859852618228931
 10
-10.92744613220882
 20
22.432737378463649
 10
-10.77137520742191
 20
22.004328265660181
 10
-10.595201111256049
 20
21.573551238462191
 10
-10.39855675201038
 20
21.139332255513342
 10
-10.181075037984071
 20
20.70059727545727
 10
-9.9423888774762652
 20
20.256272256937649
 10
-9.6821311787861113
 20
19.80528315859814
 10
-9.3999348502127695
 20
19.3465559390824
 10
-9.0954328000553843
 20
18.879016557034081
 10
-8.3333333333333357
 20
17.739155469182649
 10
-8.3333333333333357
 20
17.62438213578811
 10
-9.298124049434783
 20
18.370736659408731
 10
-9.7517618964615504
 20
18.742849221642409
 10
-10.273709630040139
 20
19.204297340399179
 10
-10.79944705009351
 20
19.69636038674324
 10
-11.264453956544619
 20
20.16031773173874
 10
-12.26599314755302
 20
21.20354428044811
 10
-12.195081024287481
 20
21.018750249400039
 10
-12.04764077334927
 20
20.592107344625351
 10
-11.897777517776991
 20
20.080552491074972
 10
-11.750089036340251
 20
19.505430067655151
 10
-11.60917310780866
 20
18.88808445327215
 10
-11.479627510951831
 20
18.249860026832231
 10
-11.366050024539369
 20
17.612101167241661
 10
-11.273038427340889
 20
16.996152253406692
 10
-11.20519049812602
 20
16.423357664233581
 10
-11.176199801495409
 20
16.089004243677831
 10
-11.17241177892422
 20
15.98858897148367
 10
-11.176418069616171
 20
15.929490230319789
 10
-11.18871074564651
 20
15.909314699417029
 10
-11.20978187909054
 20
15.92566905800623
 10
-11.28022780652076
 20
16.058394160583941
 10
-11.755003002246861
 20
17.06516583588456
 10
-12.174812611311919
 20
17.914840050744729
 10
-12.55549389141027
 20
18.633042296495852
 10
-12.73611055112641
 20
18.950849396996599
 10
-12.91288410023625
 20
19.24539806446937
 10
-13.087794195951579
 20
19.519891485330589
 10
-13.262820495484201
 20
19.777532845996681
 10
-13.43994265604589
 20
20.021525332884082
 10
-13.621140334848461
 20
20.255072132409211
 10
-13.808393189103681
 20
20.481376430988501
 10
-14.00368087602336
 20
20.70364141503838
 10
-14.42627937670323
 20
21.14886618521561
 10
-14.666925053041989
 20
21.384128453049112
 10
-14.91449357690937
 20
21.61123530766136
 10
-15.168536905067869
 20
21.829920133793902
 10
-15.42860699428002
 20
22.039916316188261
 10
-15.694255801308319
 20
22.240957239585981
 10
-15.965035282915281
 20
22.432776288728601
 10
-16.240497395863429
 20
22.615106848357652
 10
-16.520194096915269
 20
22.78768230321467
 10
-16.803677342833311
 20
22.950236038041211
 10
-17.090499090380071
 20
23.102501437578791
 10
-17.38021129631807
 20
23.244211886568959
 10
-17.67236591740981
 20
23.37510076975326
 10
-17.9665149104178
 20
23.494901471873209
 10
-18.262210232104572
 20
23.603347377670371
 10
-18.559003839232631
 20
23.700171871886258
 10
-18.856447688564479
 20
23.785108339262418
 10
-19.032833841950541
 20
23.82580552613689
 10
-19.24008281343415
 20
23.863190987155129
 10
-19.723685202525761
 20
23.925623375367831
 10
-20.260286839502911
 20
23.967598791390429
 10
-20.802919708029201
 20
23.984310522712789
 10
-21.312784348536869
 20
23.975528693823609
 10
-21.801836138990659
 20
23.944426624475351
 10
-22.269753331362821
 20
23.89116455158528
 10
-22.716214177625609
 20
23.815902712070631
 10
-23.140896929751271
 20
23.718801342848678
 10
-23.54347983971207
 20
23.600020680836678
 10
-23.923641159480251
 20
23.459720962951881
 10
-24.281059141028059
 20
23.298062426111571
 10
-24.615412036327768
 20
23.11520530723298
 10
-24.773838530375912
 20
23.015877353565969
 10
-24.92637809735162
 20
22.911309843233369
 10
-25.072990518751439
 20
22.801522805849832
 10
-25.21363557607188
 20
22.686536271030011
 10
-25.348273050809489
 20
22.56637026838856
 10
-25.476862724460791
 20
22.44104482754015
 10
-25.599364378522321
 20
22.31057997809943
 10
-25.7157377944906
 20
22.174995749681059
 10
-25.825942753862179
 20
22.034312171899689
 10
-25.929939038133579
 20
21.888549274369989
 10
-26.027686428801321
 20
21.737727086706599
 10
-26.119144707361961
 20
21.581865638524189
 10
-26.204273655312011
 20
21.420984959437419
 10
-26.28303305414801
 20
21.255105079060939
 10
-26.377686719000831
 20
21.036861842874199
 10
-26.451301443034438
 20
20.846596040468921
 10
-26.505700414927819
 20
20.67387011068146
 10
-26.542706823359929
 20
20.508246492348189
 10
-26.564143857009761
 20
20.339287624305449
 10
-26.57183470455627
 20
20.156555945389609
 10
-26.567602554678452
 20
19.949613894437029
 10
-26.55327059605527
 20
19.708023910284069
 10
-26.534900134658969
 20
19.513075838185721
 10
-26.507900072335531
 20
19.323493218462279
 10
-26.471977081006489
 20
19.13872991305184
 10
-26.426837832593389
 20
18.958239783892498
 10
-26.37218899901778
 20
18.781476692922372
 10
-26.307737252201211
 20
18.607894502079521
 10
-26.233189264065221
 20
18.436947073302079
 10
-26.148251706531351
 20
18.268088268528121
 10
-26.052631251521159
 20
18.100771949695751
 10
-25.946034570956179
 20
17.93445197874307
 10
-25.828168336757962
 20
17.76858221760817
 10
-25.698739220848051
 20
17.602616528229142
 10
-25.557453895147979
 20
17.436008772544088
 10
-25.40401903157932
 20
17.268212812491122
 10
-25.05952737852235
 20
16.926871727033781
 10
-24.833058550408278
 20
16.72365969275441
 10
-24.59832968679974
 20
16.529735550065279
 10
-24.355852564542641
 20
16.3451848354551
 10
-24.106138960482891
 20
16.170093085412621
 10
-23.849700651466399
 20
16.004545836426558
 10
-23.587049414339081
 20
15.848628624985651
 10
-23.31869702594685
 20
15.70242698757863
 10
-23.045155263135619
 20
15.56602646069423
 10
-22.766935902751289
 20
15.43951258082117
 10
-22.484550721639788
 20
15.32297088444818
 10
-22.198511496647019
 20
15.216486908064001
 10
-21.909330004618891
 20
15.120146188157349
 10
-21.61751802240132
 20
15.034034261216959
 10
-21.323587326840219
 20
14.95823666373157
 10
-21.028049694781501
 20
14.8928389321899
 10
-20.731416903071079
 20
14.837926603080691
 10
-20.434200728554849
 20
14.79358521289266
 10
-20.136912948078741
 20
14.75990029811455
 10
-19.84006533848866
 20
14.73695739523507
 10
-19.544169676630521
 20
14.724842040742979
 10
-19.24973773935022
 20
14.72363977112698
 10
-18.957281303493691
 20
14.73343612287583
 10
-18.667312145906841
 20
14.754316632478231
 10
-18.380342043435579
 20
14.78636683642293
 10
-18.096882772925809
 20
14.82967227119865
 10
-17.81744611122345
 20
14.88431847329413
 10
-17.542543835174421
 20
14.95039097919809
 10
-17.272687721624621
 20
15.027975325399259
 10
-17.00838954741997
 20
15.11715704838638
 10
-16.750161089406379
 20
15.21802168464817
 10
-16.49851412442975
 20
15.33065477067337
 10
-16.253960429336001
 20
15.455141842950701
 10
-15.78003824802205
 20
15.69989588076022
 10
-15.63136316648484
 20
15.767504750247291
 10
-15.57140713115618
 20
15.784205006708181
 10
-15.515022734157739
 20
15.665480776832499
 10
-15.431658315088409
 20
15.44941989712998
 10
-15.222408429755321
 20
14.84231802663855
 10
-15.02049551319344
 20
14.19695907202218
 10
-14.94630230508813
 20
13.93307683716348
 10
-14.902757603439319
 20
13.747402710069149
 10
-14.87593052847183
 20
13.59141669882478
 10
-14.865574297339551
 20
13.46982228537229
 10
-14.86919952762544
 20
13.41888652279191
 10
-14.880094604166739
 20
13.372906173628181
 10
-14.89931023872899
 20
13.330667075870689
 10
-14.927897143077709
 20
13.290955067508969
 10
-15.017387608196721
 20
13.21425567093117
 10
-15.156971693648069
 20
13.13309468781128
 10
-15.62004350204491
 20
12.91853477761129
 10
-15.88378025616408
 20
12.80684131915773
 10
-16.154978410915572
 20
12.703906332666261
 10
-16.434816706073399
 20
12.60940025761005
 10
-16.724473881411601
 20
12.52299353346228
 10
-17.025128676704188
 20
12.444356599696119
 10
-17.337959831725222
 20
12.373159895784751
 10
-17.664146086248699
 20
12.30907386120132
 10
-18.004866180048658
 20
12.251768935419021
 10
-18.117978815405909
 20
12.225221435619201
 10
-18.14046791206658
 20
12.20789065493852
 10
-18.139098059446329
 20
12.18573551367915
 10
-18.113008656093431
 20
12.15716625679744
 10
-18.061339100556172
 20
12.12059312924977
 10
-17.87781712712167
 20
12.017076241981981
 10
-17.646168126880792
 20
11.9095956588008
 10
-17.36602538649419
 20
11.806294332785599
 10
-17.04467155325165
 20
11.70885700628426
 10
-16.689389274442899
 20
11.61896842164462
 10
-16.3074611973577
 20
11.538313321214559
 10
-15.906169969285809
 20
11.46857644734192
 10
-15.49279823751697
 20
11.411442542374591
 10
-15.074628649340941
 20
11.36859634866042
 10
-14.74866972479828
 20
11.33750534589943
 10
-14.614349144720229
 20
11.317435975705321
 10
-14.495973619938329
 20
11.290387786030699
 10
-14.39117250082802
 20
11.253388596671989
 10
-14.29757513776477
 20
11.203466227425629
 10
-14.212810881124041
 20
11.137648498088041
 10
-14.134509081281291
 20
11.052963228455649
 10
-14.060299088611981
 20
10.94643823832488
 10
-13.987810253491579
 20
10.815101347492179
 10
-13.914671926295529
 20
10.65598037575395
 10
-13.8385134573993
 20
10.46610314290664
 10
-13.667653496008141
 20
9.9821911730704613
 10
-13.456265172321791
 20
9.339587996355057
 10
-12.82166720654566
 20
7.393255745605174
 10
-12.85852216774971
 20
7.3610738163417304
 10
-12.980526282742741
 20
7.3191384779227082
 10
-13.26717485547764
 20
7.2444416921769488
 10
-14.166206666109151
 20
7.0344861118155961
 10
-15.21922018351648
 20
6.8066517414784258
 10
-16.089817991571898
 20
6.6363832473861919
 10
-16.381984723256611
 20
6.5868005656970148
 10
-16.605953332323111
 20
6.5572504621790078
 10
-16.776307446731639
 20
6.5533323937166958
 10
-16.845936452176741
 20
6.562735202907839
 10
-16.907630694442449
 20
6.5806458171946023
 10
-16.963213127023799
 20
6.6077641686875506
 10
-17.014506703415812
 20
6.6447901894972503
 10
-17.063334377113531
 20
6.6924238117342671
 10
-17.111519101611979
 20
6.7513649675091658
 10
-17.2132515169912
 20
6.9059696081148711
 10
-17.334287577513731
 20
7.1142035681988887
 10
-17.52528726672978
 20
7.426218204039535
 10
-17.738606901058819
 20
7.7353367027474889
 10
-17.97010489272758
 20
8.0369133404238315
 10
-18.215639653962771
 20
8.3263023931696445
 10
-18.471069596991139
 20
8.59885813708601
 10
-18.7322531340394
 20
8.8499348482740103
 10
-18.995048677334282
 20
9.074886802834726
 10
-19.255314639102501
 20
9.2690682768692412
 10
-19.525054208781409
 20
9.4473790685682175
 10
-19.615748660278921
 20
9.4995179781345787
 10
-19.679850740391071
 20
9.5279082596152627
 10
-19.7195038372498
 20
9.5332466850875726
 10
-19.730831825750379
 20
9.5274891930947465
 10
-19.73685133898708
 20
9.5162300266288149
 10
-19.734036633734839
 20
9.4775550563162891
 10
-19.713203109625042
 20
9.4179185462273054
 10
-19.553581653496611
 20
9.0264108032198074
 10
-19.423257061967341
 20
8.68503667161837
 10
-19.318908363199579
 20
8.3812272559194412
 10
-19.23721458535567
 20
8.1024136606194617
 10
-19.174854756597959
 20
7.8360269902148811
 10
-19.128507905088799
 20
7.5694983492021457
 10
-19.09485305899053
 20
7.2902588420777006
 10
-19.07056924646551
 20
6.9857395733379946
 10
-19.05166210668385
 20
6.6609757012955599
 10
-19.049895739082739
 20
6.4143035007115534
 10
-19.05894195532008
 20
6.3158674287558414
 10
-19.07647529716678
 20
6.2316930565119932
 10
-19.103896408810922
 20
6.160026644595761
 10
-19.142605934440581
 20
6.0991144536228967
 10
-19.19400451824383
 20
6.0472027442091534
 10
-19.259492804408751
 20
6.0025377769702821
 10
-19.340471437123419
 20
5.963365812522035
 10
-19.438341060575901
 20
5.927933111480165
 10
-19.690355856446651
 20
5.8612705420785662
 10
-20.026742345525602
 20
5.7885201536915014
 10
-21.31995133819952
 20
5.5110034477650984
 10
-21.40745046999351
 20
5.4938193276790113
 10
-21.474008419387651
 20
5.4932441139182586
 10
-21.50032776921481
 20
5.501759910433865
 10
-21.522483805678039
 20
5.5175180097595833
 10
-21.540833856189341
 20
5.5415484373050079
 10
-21.55573524816074
 20
5.5748812184797298
 10
-21.576621366131882
 20
5.6735739433554411
 10
-21.58800077888753
 20
5.8218363876634589
 10
-21.593673965936741
 20
6.3000312476833926
 10
-21.598340049861779
 20
6.5216660505284381
 10
-21.612254756943631
 20
6.7433706442449246
 10
-21.635292770142382
 20
6.9649564716872483
 10
-21.667328772418141
 20
7.186234975709807
 10
-21.708237446731012
 20
7.4070175991669984
 10
-21.75789347604108
 20
7.6271157849132241
 10
-21.81617154330845
 20
7.8463409758028781
 10
-21.88294633149323
 20
8.0645046146903603
 10
-21.958092523555521
 20
8.2814181444300701
 10
-22.0414848024554
 20
8.4968930078764018
 10
-22.132997851152989
 20
8.7107406478837568
 10
-22.232506352608372
 20
8.9227725073065329
 10
-22.339884989781648
 20
9.132800028999128
 10
-22.455008445632931
 20
9.3406346558159381
 10
-22.577751403122321
 20
9.5460878306113646
 10
-22.70798854520989
 20
9.7489709962398035
 10
-22.845594554855769
 20
9.9490955955556544
 10
-22.990444115020029
 20
10.14627307141332
 10
-23.14241190866279
 20
10.34031486666718
 10
-23.30137261874415
 20
10.53103242417165
 10
-23.639771520063039
 20
10.90174059735001
 10
-24.004638282657488
 20
11.256889133783559
 10
-24.394970370208291
 20
11.5949695763075
 10
-24.59937261824258
 20
11.757137869489361
 10
-24.80976524639625
 20
11.914473467757009
 10
-25.02602293762941
 20
12.06678781396484
 10
-25.248020374902151
 20
12.213892350967271
 10
-25.47563224117458
 20
12.355598521618679
 10
-25.708733219406799
 20
12.491717768773469
 10
-26.113926597861099
 20
12.707674306388601
 10
-26.510240236599309
 20
12.8919373848207
 10
-26.900857154644669
 20
13.04540060980637
 10
-27.288960371020409
 20
13.16895758708224
 10
-27.677732904749782
 20
13.26350192238491
 10
-28.070357774856031
 20
13.329927221451021
 10
-28.470018000362401
 20
13.369127090017161
 10
-28.879896600292131
 20
13.381995133819959
 10
-29.161434850280571
 20
13.3747836814469
 10
-29.429611224611509
 20
13.352970555701891
 10
-29.684842283815058
 20
13.31628760364611
 10
-29.927544588421348
 20
13.264466672340779
 10
-30.158134698960499
 20
13.1972396088471
 10
-30.377029175962619
 20
13.114338260226271
 10
-30.58464457995785
 20
13.01549447353951
 10
-30.7813974714763
 20
12.900440095848021
 10
-30.9677044110481
 20
12.768906974212999
 10
-31.143981959203359
 20
12.620626955695659
 10
-31.31064667647221
 20
12.455331887357209
 10
-31.468115123384781
 20
12.27275361625885
 10
-31.61680386047118
 20
12.07262398946178
 10
-31.75712944826153
 20
11.85467485402722
 10
-31.889508447285969
 20
11.618638057016369
 10
-32.014357418074603
 20
11.364245445490431
 10
-32.120177308911153
 20
11.1105843261768
 10
-32.208013870182533
 20
10.84916048741794
 10
-32.277882056527019
 20
10.580134454502209
 10
-32.32979682258285
 20
10.303666752717961
 10
-32.363773122988313
 20
10.01991790735355
 10
-32.379825912381662
 20
9.7290484436973266
 10
-32.377970145401157
 20
9.4312188870376445
 10
-32.358220776685073
 20
9.12658976266286
 10
-32.320592760871648
 20
8.8153215958613238
 10
-32.265101052599171
 20
8.4975749119213901
 10
-32.191760606505888
 20
8.1735102361314098
 10
-32.100586377230073
 20
7.8432880937797416
 10
-31.991593319409969
 20
7.5070690101547353
 10
-31.864796387683871
 20
7.165013510544747
 10
-31.720210536690011
 20
6.8172821202381293
 10
-31.557850721066671
 20
6.4640353645232338
 10
-31.405533281822581
 20
6.1580633113201202
 10
-31.257902336263481
 20
5.8878164081157109
 10
-31.10552545049665
 20
5.6407378960198349
 10
-30.93897019062943
 20
5.4042710161423226
 10
-30.748804122769108
 20
5.1658590095930048
 10
-30.525594813023009
 20
4.9129451174817103
 10
-30.259909827498419
 20
4.6329725809182722
 10
-29.942316732302672
 20
4.3133846410125187
 10
-29.618598274250871
 20
3.997612292480365
 10
-29.33313562489862
 20
3.7320983625709192
 10
-29.072583557733211
 20
3.5070096523017349
 10
-28.823596846241941
 20
3.312512962690366
 10
-28.572830263912088
 20
3.1387750947543638
 10
-28.306938584230949
 20
2.9759628495112822
 10
-28.01257658068582
 20
2.8142430279786721
 10
-27.676399026763988
 20
2.6437824311740878
 10
-27.335537149210751
 20
2.4792234225016778
 10
-27.01296004351536
 20
2.331246866674046
 10
-26.704386786662369
 20
2.199008233083831
 10
-26.405536455636302
 20
2.081662991123669
 10
-26.112128127421691
 20
1.978366610186199
 10
-25.81988087900309
 20
1.888274559664058
 10
-25.524513787365009
 20
1.810542308949884
 10
-25.221745929492009
 20
1.744325327436314
 10
-24.90729638236861
 20
1.6887790845159849
 10
-24.576884222979341
 20
1.643059049581536
 10
-24.226228528308749
 20
1.6063206920256039
 10
-23.851048375341371
 20
1.5777194812408259
 10
-23.447062841061729
 20
1.5564108866198401
 10
-23.009991002454381
 20
1.541550377555285
 10
-22.019464720194652
 20
1.5277954936660121
 10
-19.58637469586375
 20
1.516948706853583
 10
-20.505578771725261
 20
1.1297494700910351
 10
-20.95484885199108
 20
0.9504153813330492
 10
-21.445027434428269
 20
0.7721246459706747
 10
-21.957453053478769
 20
0.6004110492277491
 10
-22.473464243584498
 20
0.4408083763281097
 10
-22.974399539187399
 20
0.2988504124955939
 10
-23.441597474729381
 20
0.1800709429540389
 10
-23.85639658465238
 20
0.0900037529272823
 10
-24.200135403398331
 20
0.0341826276391615
 10
-24.528755001902859
 20
-0.011679783343334
 10
-24.593040520144449
 20
-0.0332023706296184
 10
-24.597417966298789
 20
-0.045164426452063
 10
-24.58223406372738
 20
-0.0585185777199637
 10
-24.49002879216297
 20
-0.0911779285698971
 10
-24.310117864962582
 20
-0.1347299471349459
 10
-23.661951681699179
 20
-0.2687100832324987
 10
-23.1284174506795
 20
-0.3922147977645086
 10
-22.516488479527041
 20
-0.558634137303506
 10
-21.901709813355598
 20
-0.7461702582423527
 10
-21.359626497278949
 20
-0.9330253169739109
 10
-19.76885644768857
 20
-1.5943978598788251
 10
-19.536002128953779
 20
-1.724136662194671
 10
-19.49192613290754
 20
-1.7611329481686699
 10
-19.490158934952859
 20
-1.7733671748103921
 10
-19.502737226277379
 20
-1.781693785774578
 10
-19.573425144464721
 20
-1.787429146328293
 10
-19.708979622871048
 20
-1.779949001145708
 10
-20.19464720194647
 20
-1.7317820788352241
 10
-20.85102601087922
 20
-1.678080852533504
 10
-21.55116409082855
 20
-1.6480913500993959
 10
-22.271950825962062
 20
-1.640977407029397
 10
-22.990275600447319
 20
-1.655902858820006
 10
-23.683027798451899
 20
-1.692031540967718
 10
-24.32709680414337
 20
-1.7485272889690331
 10
-24.623653042424049
 20
-1.784151511257446
 10
-24.899372001689301
 20
-1.824553938320447
 10
-25.151364854960061
 20
-1.869630049595097
 10
-25.376742775257281
 20
-1.9192753245184591
 10
-25.738465052126681
 20
-2.0140341760884368
 10
-26.091006331041829
 20
-2.1182482364130548
 10
-26.434523658768839
 20
-2.232006346474825
 10
-26.769174082073832
 20
-2.3553973472562619
 10
-27.095114647722919
 20
-2.4885100797398798
 10
-27.412502402482211
 20
-2.6314333849081919
 10
-27.72149439311784
 20
-2.7842561037437119
 10
-28.022247666395899
 20
-2.947067077228954
 10
-28.31491926908252
 20
-3.119955146346431
 10
-28.599666247943819
 20
-3.3030091520786571
 10
-28.8766456497459
 20
-3.4963179354081459
 10
-29.146014521254891
 20
-3.6999703373174109
 10
-29.407929909236898
 20
-3.914055198788966
 10
-29.662548860458038
 20
-4.1386613608053269
 10
-29.91002842168443
 20
-4.3738776643490036
 10
-30.15052563968219
 20
-4.6197929504025126
 10
-30.411120889103291
 20
-4.9127639766060236
 10
-30.66043196843129
 20
-5.2261594963869022
 10
-30.8973747739769
 20
-5.5572307767152322
 10
-31.120865202050869
 20
-5.9032290845610973
 10
-31.32981914896391
 20
-6.261405686894582
 10
-31.523152511026758
 20
-6.6290118506857691
 10
-31.699781184550151
 20
-7.0032988429047442
 10
-31.85862106584479
 20
-7.3815179305215901
 10
-31.998588051221439
 20
-7.7609203805063904
 10
-32.118598036990797
 20
-8.1387574598292289
 10
-32.217566919463607
 20
-8.5122804354601911
 10
-32.294410594950612
 20
-8.8787405743693615
 10
-32.348044959762518
 20
-9.2353891435268203
 10
-32.377385910210073
 20
-9.5794774099026547
 10
-32.381349342603983
 20
-9.908256640466945
 10
-32.358851153254989
 20
-10.21897810218978
 10
-32.321643095631202
 20
-10.471469218533819
 10
-32.271559880640723
 20
-10.71747044836116
 10
-32.208911815268323
 20
-10.95650900250407
 10
-32.134009206498739
 20
-11.188112091794791
 10
-32.047162361316737
 20
-11.411806927065591
 10
-31.948681586707071
 20
-11.627120719148721
 10
-31.8388771896545
 20
-11.833580678876441
 10
-31.718059477143779
 20
-12.030714017080991
 10
-31.586538756159651
 20
-12.218047944594639
 10
-31.444625333686869
 20
-12.395109672249641
 10
-31.29262951671021
 20
-12.56142641087825
 10
-31.13086161221441
 20
-12.71652537131272
 10
-30.95963192718424
 20
-12.8599337643853
 10
-30.779250768604431
 20
-12.99117880092826
 10
-30.590028443459751
 20
-13.10978769177385
 10
-30.392275258734969
 20
-13.21528764775432
 10
-30.205188039805321
 20
-13.298808234317089
 10
-30.01107781368443
 20
-13.370004476616201
 10
-29.810410738591489
 20
-13.429045714741759
 10
-29.603652972745721
 20
-13.4761012887839
 10
-29.3912706743663
 20
-13.511340538832741
 10
-29.17373000167245
 20
-13.5349328049784
 10
-28.95149711288337
 20
-13.547047427311011
 10
-28.725038166218251
 20
-13.54785374592069
 10
-28.494819319896308
 20
-13.53752110089756
 10
-28.261306732136742
 20
-13.516218832331759
 10
-28.024966561158742
 20
-13.48411628031339
 10
-27.78626496518152
 20
-13.441382784932591
 10
-27.54566810242429
 20
-13.388187686279471
 10
-27.30364213110623
 20
-13.324700324444169
 10
-27.06065320944656
 20
-13.251090039516811
 10
-26.817167495664481
 20
-13.1675261715875
 10
-26.573651147979181
 20
-13.07417806074637
 10
-26.33057032460988
 20
-12.97121504708355
 10
-26.088391183775769
 20
-12.85880647068916
 10
-25.847579883696049
 20
-12.737121671653311
 10
-25.608602582589938
 20
-12.606329990066151
 10
-25.37192543867663
 20
-12.46660076601778
 10
-25.138014610175318
 20
-12.318103339598339
 10
-24.907336255305211
 20
-12.16100705089794
 10
-24.680356532285511
 20
-11.995481240006709
 10
-24.457541599335421
 20
-11.82169524701477
 10
-24.239357614674152
 20
-11.63981841201225
 10
-24.026270736520889
 20
-11.45002007508927
 10
-23.818747123094841
 20
-11.252469576335949
 10
-23.617252932615219
 20
-11.047336255842421
 10
-23.422254323301221
 20
-10.8347894536988
 10
-23.23421745337204
 20
-10.61499850999521
 10
-23.03318153991415
 20
-10.363313327339441
 10
-22.84557494280973
 20
-10.111481236714541
 10
-22.671334292711421
 20
-9.8593425533222927
 10
-22.51039622027184
 20
-9.6067375923645031
 10
-22.362697356143631
 20
-9.3535066690429627
 10
-22.228174330979432
 20
-9.0994900985594711
 10
-22.106763775431862
 20
-8.8445281961158226
 10
-21.998402320153559
 20
-8.5884612769138133
 10
-21.903026595797169
 20
-8.331129656155241
 10
-21.820573233015299
 20
-8.0723736490418965
 10
-21.750978862460599
 20
-7.8120335707755828
 10
-21.694180114785691
 20
-7.5499497365580934
 10
-21.650113620643221
 20
-7.2859624615912209
 10
-21.618716010685819
 20
-7.0199120610767656
 10
-21.599923915566119
 20
-6.7516388502165237
 10
-21.593673965936741
 20
-6.4809831442122876
 10
-21.587021372994609
 20
-6.0041371084388704
 10
-21.57621061876878
 20
-5.8488947590870994
 10
-21.558192436663631
 20
-5.7403706993687198
 10
-21.531303484647069
 20
-5.6720133122413046
 10
-21.49388042068697
 20
-5.6372709806624286
 10
-21.444259902751249
 20
-5.6295920875896677
 10
-21.380778588807789
 20
-5.6424250159805922
 10
-21.003611420532462
 20
-5.7265066067439339
 10
-20.39576471575371
 20
-5.8405937688630516
 10
-19.954844537681229
 20
-5.9201596642715817
 10
-19.621545122381001
 20
-5.9913522147545457
 10
-19.490557825177341
 20
-6.0274815582932986
 10
-19.38084126795496
 20
-6.0659252527738934
 10
-19.290517300476601
 20
-6.108152527254072
 10
-19.217707772505008
 20
-6.1556326107915789
 10
-19.16053453380291
 20
-6.2098347324441594
 10
-19.117119434133059
 20
-6.2722281212695519
 10
-19.0855843232582
 20
-6.3442820063255052
 10
-19.06405105094105
 20
-6.4274656166697621
 10
-19.043477421030872
 20
-6.633098929454162
 10
-19.040373342504449
 20
-6.9008818920847048
 10
-19.049669120683181
 20
-7.1802784768536227
 10
-19.076070652018519
 20
-7.4695983639749972
 10
-19.119036318607009
 20
-7.7663817084784128
 10
-19.178024502545171
 20
-8.0681686653934541
 10
-19.252493585929511
 20
-8.3724993897497058
 10
-19.341901950856581
 20
-8.6769140365767505
 10
-19.445707979422899
 20
-8.9789527609041713
 10
-19.563370053724991
 20
-9.2761557177615543
 10
-19.62977364007978
 20
-9.4532913245133816
 10
-19.667850980627321
 20
-9.5983500608272507
 10
-19.674827497629931
 20
-9.696362720498783
 10
-19.665785891758851
 20
-9.7230488946548039
 10
-19.647928613349912
 20
-9.7323600973235997
 10
-19.588038727408939
 20
-9.7157475725434672
 10
-19.50382365462703
 20
-9.6679906968026721
 10
-19.39830631423856
 20
-9.5922105180005985
 10
-19.274509625477918
 20
-9.4915280840366378
 10
-18.984169879777699
 20
-9.2279406422206094
 10
-18.656987771401521
 20
-8.9021967545496885
 10
-18.317146654224519
 20
-8.5392648042189894
 10
-17.988829882121831
 20
-8.1641131744236173
 10
-17.69622080896858
 20
-7.8017102483586811
 10
-17.57086395758397
 20
-7.6330921689735991
 10
-17.463502788639911
 20
-7.4770244092192897
 10
-17.262651282713549
 20
-7.1554672969308486
 10
-17.183234786653411
 20
-7.0290838583701261
 10
-17.109473535613439
 20
-6.924691123841539
 10
-17.035104334907231
 20
-6.8415845625774407
 10
-16.95386398984839
 20
-6.7790596438101831
 10
-16.85948930575049
 20
-6.7364118367721204
 10
-16.745717087927169
 20
-6.7129366106956043
 10
-16.60628414169199
 20
-6.7079294348129883
 10
-16.434927272358571
 20
-6.7206857783566241
 10
-16.225383285240511
 20
-6.750501110558865
 10
-15.971388985651391
 20
-6.7966709006520638
 10
-15.30499667031442
 20
-6.9352557314407459
 10
-14.38564476885645
 20
-7.1308040245814936
 10
-12.8345498783455
 20
-7.4551022168373962
 10
-12.846776496035011
 20
-7.7250608272506076
 10
-14.111922141119219
 20
-11.496350364963501
 10
-16.545012165450121
 20
-11.655613649922129
 10
-17.031630170316301
 20
-11.83592958118119
 10
-17.477862849656919
 20
-12.010748539685711
 10
-17.86738422081272
 20
-12.17784834496042
 10
-17.980262147507521
 20
-12.23122164216443
 10
-18.055316362866542
 20
-12.27324810326842
 10
-18.08750676725554
 20
-12.30745730365053
 10
-18.085953009200569
 20
-12.322733423376549
 10
-18.071793261040259
 20
-12.33737881868891
 10
-18.00313574458648
 20
-12.36654222376171
 10
-17.876494118259931
 20
-12.39847709424707
 10
-17.429098137451579
 20
-12.484779532968069
 10
-17.049948269719909
 20
-12.5717678935215
 10
-16.59969768634971
 20
-12.70118592134931
 10
-16.134710032451341
 20
-12.85555687561857
 10
-15.711348953135211
 20
-13.0174040154963
 10
-14.78102189781022
 20
-13.40470014253706
 10
-14.78102189781022
 20
-13.51354743922411
 10
-14.810270500779
 20
-13.647118943199111
 10
-14.889907786090021
 20
-13.930340253141971
 10
-15.151697262167
 20
-14.779567197639279
 10
-15.522372626523779
 20
-15.936739659367399
 10
-15.579330909293869
 20
-15.936739659367399
 10
-15.65176858826112
 20
-15.908339767899831
 10
-15.806894468743041
 20
-15.831013330735651
 10
-16.274031395443711
 20
-15.57682024274869
 10
-16.462844873909798
 20
-15.474537635295031
 10
-16.65227183653046
 20
-15.3806079289258
 10
-16.842916914198589
 20
-15.29490721852849
 10
-17.03538473780711
 20
-15.217311598990589
 10
-17.23027993824893
 20
-15.147697165199601
 10
-17.42820714641697
 20
-15.085940012043009
 10
-17.629770993204129
 20
-15.031916234408319
 10
-17.835576109503339
 20
-14.985501927183019
 10
-18.04622712620748
 20
-14.9465731852546
 10
-18.262328674209499
 20
-14.91500610351056
 10
-18.48448538440228
 20
-14.89067677683839
 10
-18.71330188767875
 20
-14.87346130012558
 10
-19.193332797054399
 20
-14.859876276128039
 10
-19.707258449479738
 20
-14.87325979061789
 10
-20.10557708212669
 20
-14.90139320227633
 10
-20.497444843632131
 20
-14.94571546263384
 10
-20.882644686850011
 20
-15.006133814013801
 10
-21.260959564634248
 20
-15.082555498739611
 10
-21.632172429838821
 20
-15.17488775913467
 10
-21.99606623531767
 20
-15.283037837522359
 10
-22.352423933924729
 20
-15.40691297622609
 10
-22.701028478513951
 20
-15.546420417569241
 10
-23.041662821939301
 20
-15.70146740387521
 10
-23.3741099170547
 20
-15.8719611774674
 10
-23.698152716714102
 20
-16.05780898066919
 10
-24.01357417377146
 20
-16.258918055803999
 10
-24.320157241080711
 20
-16.475195645195189
 10
-24.617684871495829
 20
-16.706548991166191
 10
-24.90594001787073
 20
-16.95288533604036
 10
-25.184705633059369
 20
-17.214111922141122
 10
-25.428065605202061
 20
-17.46513609147965
 10
-25.64820871675483
 20
-17.71809205009626
 10
-25.845103596587631
 20
-17.972859488779001
 10
-26.018718873570421
 20
-18.229318098315922
 10
-26.16902317657313
 20
-18.487347569495071
 10
-26.295985134465699
 20
-18.746827593104491
 10
-26.399573376118109
 20
-19.007637859932231
 10
-26.479756530400291
 20
-19.26965806076635
 10
-26.53650322618218
 20
-19.532767886394868
 10
-26.56978209233375
 20
-19.79684702760586
 10
-26.579561757724949
 20
-20.061775175187361
 10
-26.565810851225699
 20
-20.327432019927429
 10
-26.52849800170598
 20
-20.593697252614099
 10
-26.467591838035709
 20
-20.860450564035421
 10
-26.383060989084861
 20
-21.12757164497944
 10
-26.274874083723379
 20
-21.394940186234209
 10
-26.14605372426621
 20
-21.6585961995901
 10
-26.00235157644142
 20
-21.908363643862039
 10
-25.843516801769258
 20
-22.144408912758092
 10
-25.669298561769999
 20
-22.366898399986329
 10
-25.47944601796387
 20
-22.57599849925483
 10
-25.273708331871148
 20
-22.771875604271671
 10
-25.05183466501208
 20
-22.954696108744901
 10
-24.813574178906929
 20
-23.124626406382621
 10
-24.558676035075941
 20
-23.281832890892879
 10
-24.28688939503937
 20
-23.42648195598375
 10
-23.997963420317479
 20
-23.558739995363322
 10
-23.691647272430519
 20
-23.67877340273964
 10
-23.367690112898739
 20
-23.786748571820802
 10
-23.02584110324241
 20
-23.882831896314869
 10
-22.66584940498177
 20
-23.967189769929909
 10
-22.287464179637102
 20
-24.039988586374001
 10
-21.954002052887549
 20
-24.091217903572272
 10
-21.622149771995101
 20
-24.129237697631261
 10
-21.291921681633038
 20
-24.154050103910031
 10
-20.96333212647464
 20
-24.165657257767649
 10
-20.636395451193192
 20
-24.16406129456319
 10
-20.31112600046195
 20
-24.149264349655731
 10
-19.98753811895422
 20
-24.121268558404321
 10
-19.66564615134326
 20
-24.08007605616805
 10
-19.345464442302351
 20
-24.025688978305968
 10
-19.02700733650477
 20
-23.958109460177159
 10
-18.71028917862381
 20
-23.87733963714069
 10
-18.395324313332729
 20
-23.783381644555629
 10
-18.082127085304808
 20
-23.676237617781041
 10
-17.770711839213341
 20
-23.555909692176002
 10
-17.461092919731598
 20
-23.422400003099568
 10
-17.153284671532852
 20
-23.27571068591082
 10
-16.73341974601443
 20
-23.05430883875923
 10
-16.328017942833601
 20
-22.816411622313701
 10
-15.936307657159469
 20
-22.56116386221089
 10
-15.557517284161159
 20
-22.28771038408749
 10
-15.190875219007779
 20
-21.995196013580159
 10
-14.83560985686845
 20
-21.68276557632559
 10
-14.49094959291228
 20
-21.349563897960429
 10
-14.156122822308379
 20
-20.99473580412138
 10
-13.83035794022587
 20
-20.617426120445099
 10
-13.51288334183387
 20
-20.216779672568261
 10
-13.202927422301491
 20
-19.79194128612755
 10
-12.89971857679784
 20
-19.342055786759641
 10
-12.60248520049204
 20
-18.86626800010119
 10
-12.310455688553199
 20
-18.363722751788881
 10
-12.02285843615044
 20
-17.833564867459391
 10
-11.738921838452869
 20
-17.274939172749392
 10
-11.10961602176547
 20
-15.997566909975671
 10
-11.19220675009449
 20
-16.788321167883211
 10
-11.245200747337259
 20
-17.209448620802831
 10
-11.320368630980839
 20
-17.684781625341721
 10
-11.41329423163066
 20
-18.193665130839371
 10
-11.51956137989214
 20
-18.715444086635308
 10
-11.63475390637068
 20
-19.229463442069029
 10
-11.75445564167172
 20
-19.715068146480029
 10
-11.87425041640067
 20
-20.151603149207819
 10
-11.98972206116294
 20
-20.51841339959191
 10
-12.22627737226278
 20
-21.22995243182222
 10
-12.22627737226278
 20
-21.25393151741736
 10
-9.8540145985401466
 20
-18.892428056307079
 10
-8.2725060827250587
 20
-17.758400542886061
 10
-9.0845819787886484
 20
-19.006937497720401
 10
-9.4233363383714881
 20
-19.539938726693041
 10
-9.7307998539745455
 20
-20.049537177400349
 10
-10.00818601054474
 20
-20.538120746082001
 10
-10.256708293029011
 20
-21.00807732897767
 10
-10.47758018637426
 20
-21.461794822327018
 10
-10.672015175527431
 20
-21.901661122369742
 10
-10.84122674543543
 20
-22.33006412534548
 10
-10.98642838104519
 20
-22.749391727493919
 10
-11.076006884606141
 20
-23.041505843547061
 10
-11.15694109238818
 20
-23.333510666443161
 10
-11.22925497754429
 20
-23.62524941650026
 10
-11.292972513227459
 20
-23.916565314036351
 10
-11.34811767259068
 20
-24.20730157936946
 10
-11.394714428786919
 20
-24.497301432817579
 10
-11.432786754969181
 20
-24.786408094698739
 10
-11.462358624290429
 20
-25.074464785330949
 10
-11.48345400990366
 20
-25.361314725032219
 10
-11.49609688496186
 20
-25.646801134120569
 10
-11.500311222618009
 20
-25.930767232914
 10
-11.4961209960251
 20
-26.213056241730541
 10
-11.48355017833611
 20
-26.49351138088819
 10
-11.462622742704029
 20
-26.77197587070496
 10
-11.43336266228183
 20
-27.048292931498882
 10
-11.39579391022251
 20
-27.322305783587939
 10
-11.349940459679051
 20
-27.593857647290172
 10
-11.295826283804439
 20
-27.86279174292358
 10
-11.233475355751651
 20
-28.128951290806171
 10
-11.162911648673679
 20
-28.392179511255971
 10
-11.0841591357235
 20
-28.652319624590991
 10
-10.99724179005411
 20
-28.909214851129232
 10
-10.90218358481849
 20
-29.162708411188721
 10
-10.79900849316962
 20
-29.41264352508745
 10
-10.68774048826049
 20
-29.658863413143461
 10
-10.568403543244081
 20
-29.901211295674749
 10
-10.441021631273379
 20
-30.13953039299933
 10
-10.305618725501359
 20
-30.37366392543521
 10
-10.16221879908103
 20
-30.60345511330042
 10
-10.010845825165349
 20
-30.828747176912959
 10
-9.8515237769073263
 20
-31.049383336590829
 10
-9.6842766274599299
 20
-31.265206812652071
 10
-9.4318795349812099
 20
-31.56895551311105
 10
-9.1805567729622606
 20
-31.849460680139369
 10
-8.9297049097898675
 20
-32.107041940364397
 10
-8.6787205138508163
 20
-32.34201892041353
 10
-8.4270001535318926
 20
-32.554711246914138
 10
-8.1739403972198765
 20
-32.74543854649361
 10
-7.9189378133015582
 20
-32.914520445779317
 10
-7.6613889701637206
 20
-33.062276571398662
 10
-7.4006904361931483
 20
-33.189026549978998
 10
-7.136238779776626
 20
-33.295090008147717
 10
-6.8674305693009394
 20
-33.380786572532223
 10
-6.5936623731528723
 20
-33.446435869759867
 10
-6.3143307597192102
 20
-33.492357526458058
 10
-6.028832297386737
 20
-33.518871169254147
 10
-5.7365635545422391
 20
-33.526296424775538
  0
ENDSEC
  0
SECTION
  2
OBJECTS
  0
DICTIONARY
  5
C
100
AcDbDictionary
280
0
281
1
  3
ACAD_GROUP
350
D
  3
ACAD_LAYOUT
350
1A
  3
ACAD_MLINESTYLE
350
17
  3
ACAD_PLOTSETTINGS
350
19
  3
ACAD_PLOTSTYLENAME
350
E
  3
AcDbVariableDictionary
350
46
  0
DICTIONARY
  5
D
100
AcDbDictionary
280
0
281
1
  0
ACDBDICTIONARYWDFLT
  5
E
100
AcDbDictionary
281
1
  3
Normal
350
F
100
AcDbDictionaryWithDefault
340
F
  0
ACDBPLACEHOLDER
  5
F
  0
DICTIONARY
  5
17
100
AcDbDictionary
280
0
281
1
  3
Standard
350
18
  0
MLINESTYLE
  5
18
100
AcDbMlineStyle
  2
STANDARD
 70
0
  3

 62
256
 51
90.0
 52
90.0
 71
2
 49
0.5
 62
256
  6
BYLAYER
 49
-0.5
 62
256
  6
BYLAYER
  0
DICTIONARY
  5
19
100
AcDbDictionary
280
0
281
1
  0
DICTIONARY
  5
1A
100
AcDbDictionary
281
1
  3
Layout1
350
1E
  3
Layout2
350
26
  3
Model
350
22
  0
LAYOUT
  5
1E
100
AcDbPlotSettings
  1

  2
C:\Program Files\AutoCAD 2002\plotters\DWF ePlot (optimized for plotting).pc3
  4

  6

 40
0.0
 41
0.0
 42
0.0
 43
0.0
 44
0.0
 45
0.0
 46
0.0
 47
0.0
 48
0.0
 49
0.0
140
0.0
141
0.0
142
1.0
143
1.0
 70
688
 72
0
 73
0
 74
5
  7

 75
16
147
1.0
148
0.0
149
0.0
100
AcDbLayout
  1
Layout1
 70
1
 71
1
 10
0.0
 20
0.0
 11
420.0
 21
297.0
 12
0.0
 22
0.0
 32
0.0
 14
100000000000000000000.0
 24
100000000000000000000.0
 34
100000000000000000000.0
 15
-100000000000000000000.0
 25
-100000000000000000000.0
 35
-100000000000000000000.0
146
0.0
 13
0.0
 23
0.0
 33
0.0
 16
1.0
 26
0.0
 36
0.0
 17
0.0
 27
1.0
 37
0.0
 76
0
330
1B
  0
LAYOUT
  5
22
100
AcDbPlotSettings
  1

  2
C:\Program Files\AutoCAD 2002\plotters\DWF ePlot (optimized for plotting).pc3
  4

  6

 40
0.0
 41
0.0
 42
0.0
 43
0.0
 44
0.0
 45
0.0
 46
0.0
 47
0.0
 48
0.0
 49
0.0
140
0.0
141
0.0
142
1.0
143
1.0
 70
1712
 72
0
 73
0
 74
0
  7

 75
0
147
1.0
148
0.0
149
0.0
100
AcDbLayout
  1
Model
 70
1
 71
0
 10
0.0
 20
0.0
 11
12.0
 21
9.0
 12
0.0
 22
0.0
 32
0.0
 14
0.0
 24
0.0
 34
0.0
 15
0.0
 25
0.0
 35
0.0
146
0.0
 13
0.0
 23
0.0
 33
0.0
 16
1.0
 26
0.0
 36
0.0
 17
0.0
 27
1.0
 37
0.0
 76
0
330
1F
  0
LAYOUT
  5
26
100
AcDbPlotSettings
  1

  2
C:\Program Files\AutoCAD 2002\plotters\DWF ePlot (optimized for plotting).pc3
  4

  6

 40
0.0
 41
0.0
 42
0.0
 43
0.0
 44
0.0
 45
0.0
 46
0.0
 47
0.0
 48
0.0
 49
0.0
140
0.0
141
0.0
142
1.0
143
1.0
 70
688
 72
0
 73
0
 74
5
  7

 75
16
147
1.0
148
0.0
149
0.0
100
AcDbLayout
  1
Layout2
 70
1
 71
2
 10
0.0
 20
0.0
 11
12.0
 21
9.0
 12
0.0
 22
0.0
 32
0.0
 14
0.0
 24
0.0
 34
0.0
 15
0.0
 25
0.0
 35
0.0
146
0.0
 13
0.0
 23
0.0
 33
0.0
 16
1.0
 26
0.0
 36
0.0
 17
0.0
 27
1.0
 37
0.0
 76
0
330
23
  0
DICTIONARY
  5
46
100
AcDbDictionary
281
1
  3
DIMASSOC
350
48
  3
HIDETEXT
350
47
  0
DICTIONARYVAR
  5
47
100
DictionaryVariables
280
0
  1
2
  0
DICTIONARYVAR
  5
48
100
DictionaryVariables
280
0
  1
1
  0
ENDSEC
  0
EOF
