999
dxflib 2.0.4.8
  0
SECTION
  2
HEADER
  9
$ACADVER
  1
AC1015
  9
$HANDSEED
  5
FFFF
  9
$USERR4
 40
0.0
  9
$DIMTAD
 70
0
  9
$VISRETAIN
 70
1
  9
$TILEMODE
 70
1
  9
$SHADEDIF
 70
70
  9
$USERR5
 40
0.0
  9
$UCSYDIR
 10
0.0
 20
1.0
 30
0.0
  9
$ATTREQ
 70
1
  9
$CHAMFERA
 40
0.5
  9
$MENU
  1
.
  9
$CLAYER
  8
0
  9
$UCSXDIR
 10
1.0
 20
0.0
 30
0.0
  9
$CHAMFERB
 40
0.5
  9
$DIMASZ
 40
0.18
  9
$TRACEWID
 40
0.05
  9
$REGENMODE
 70
1
  9
$ORTHOMODE
 70
0
  9
$EXTMIN
 10
7.1796091184005144
 20
3.1621225250839169
 30
0.0
  9
$PUCSYDIR
 10
0.0
 20
1.0
 30
0.0
  9
$ANGBASE
 50
0.0
  9
$USRTIMER
 70
1
  9
$SKETCHINC
 40
0.1
  9
$DIMGAP
 40
0.09
  9
$DIMTFAC
 40
1.0
  9
$DIMSAH
 70
0
  9
$DIMALT
 70
0
  9
$DIMSHO
 70
1
  9
$PUCSXDIR
 10
1.0
 20
0.0
 30
0.0
  9
$SURFTYPE
 70
6
  9
$SPLFRAME
 70
0
  9
$DIMTSZ
 40
0.0
  9
$LIMMIN
 10
0.0
 20
0.0
  9
$SURFTAB1
 70
6
  9
$SPLINESEGS
 70
8
  9
$AUPREC
 70
0
  9
$LUNITS
 70
2
  9
$DWGCODEPAGE
  3
ansi_1252
  9
$UNITMODE
 70
0
  9
$USERI1
 70
0
  9
$SURFTAB2
 70
6
  9
$SKPOLY
 70
0
  9
$ELEVATION
 40
0.0
  9
$DIMCEN
 40
0.09
  9
$DIMRND
 40
0.0
  9
$INSBASE
 10
0.0
 20
0.0
 30
0.0
  9
$USERI2
 70
0
  9
$UCSORG
 10
0.0
 20
0.0
 30
0.0
  9
$PELEVATION
 40
0.0
  9
$DIMEXO
 40
0.0625
  9
$TEXTSIZE
 40
0.2
  9
$DRAGMODE
 70
2
  9
$FILLMODE
 70
1
  9
$EXTMAX
 10
90.054708378021488
 20
97.767783064694839
 30
0.0
  9
$INSUNITS
 70
4
  9
$USERI3
 70
0
  9
$SURFU
 70
6
  9
$ANGDIR
 70
0
  9
$TDUSRTIMER
 40
0.0000000116
  9
$DIMZIN
 70
0
  9
$DIMDLE
 40
0.0
  9
$DIMSCALE
 40
1.0
  9
$WORLDVIEW
 70
1
  9
$USERI4
 70
0
  9
$SURFV
 70
6
  9
$OSMODE
 70
37
  9
$QTEXTMODE
 70
0
  9
$LIMMAX
 10
12.0
 20
9.0
  9
$USERI5
 70
0
  9
$HANDLING
 70
1
  9
$PDMODE
 70
0
  9
$LIMCHECK
 70
0
  9
$THICKNESS
 40
0.0
  9
$DIMSE1
 70
0
  9
$DIMLIM
 70
0
  9
$DIMTXT
 40
0.18
  9
$ATTMODE
 70
1
  9
$PEXTMAX
 10
-100000000000000000000.0
 20
-100000000000000000000.0
 30
-100000000000000000000.0
  9
$PEXTMIN
 10
100000000000000000000.0
 20
100000000000000000000.0
 30
100000000000000000000.0
  9
$PUCSORG
 10
0.0
 20
0.0
 30
0.0
  9
$SPLINETYPE
 70
6
  9
$TDINDWG
 40
0.0000000116
  9
$LUPREC
 70
4
  9
$DIMSOXD
 70
0
  9
$DIMLFAC
 40
1.0
  9
$DIMSE2
 70
0
  9
$DIMTOH
 70
1
  9
$CELTYPE
  6
BYLAYER
  9
$PLIMCHECK
 70
0
  9
$PLINEWID
 40
0.0
  9
$DIMSTYLE
  2
STANDARD
  9
$DIMTVP
 40
0.0
  9
$DIMASO
 70
1
  9
$DIMTM
 40
0.0
  9
$DIMDLI
 40
0.38
  9
$CECOLOR
 62
256
  9
$PLIMMAX
 10
12.0
 20
9.0
  9
$PLIMMIN
 10
0.0
 20
0.0
  9
$MAXACTVP
 70
64
  9
$TDUPDATE
 40
2456257.7696590512
  9
$FILLETRAD
 40
0.5
  9
$DIMCLRT
 70
0
  9
$DIMALTD
 70
2
  9
$DIMTIH
 70
1
  9
$LTSCALE
 40
1.0
  9
$USERR1
 40
0.0
  9
$ATTDIA
 70
0
  9
$PDSIZE
 40
0.0
  9
$DIMCLRD
 70
0
  9
$DIMEXE
 40
0.18
  9
$PSLTSCALE
 70
1
  9
$PLINEGEN
 70
0
  9
$SHADEDGE
 70
3
  9
$USERR2
 40
0.0
  9
$COORDS
 70
1
  9
$TDCREATE
 40
2454910.5
  9
$DIMCLRE
 70
0
  9
$DIMTOFL
 70
0
  9
$DIMALTF
 40
25.399999999999999
  9
$DIMTOL
 70
0
  9
$DIMTP
 40
0.0
  9
$TEXTSTYLE
  7
STANDARD
  9
$USERR3
 40
0.0
  9
$AUNITS
 70
0
  9
$DIMTIX
 70
0
  9
$MIRRTEXT
 70
1
  0
ENDSEC
  0
SECTION
  2
TABLES
  0
TABLE
  2
VPORT
  5
8
100
AcDbSymbolTable
 70
1
  0
VPORT
  5
30
100
AcDbSymbolTableRecord
100
AcDbViewportTableRecord
  2
*Active
 70
0
 10
0.0
 20
0.0
 11
1.0
 21
1.0
 12
286.30555555555549
 22
148.5
 13
0.0
 23
0.0
 14
10.0
 24
10.0
 15
10.0
 25
10.0
 16
0.0
 26
0.0
 36
1.0
 17
0.0
 27
0.0
 37
0.0
 40
297.0
 41
1.92798353909465
 42
50.0
 43
0.0
 44
0.0
 50
0.0
 51
0.0
 71
0
 72
100
 73
1
 74
3
 75
1
 76
1
 77
0
 78
0
281
0
 65
1
110
0.0
120
0.0
130
0.0
111
1.0
121
0.0
131
0.0
112
0.0
122
1.0
132
0.0
 79
0
146
0.0
  0
ENDTAB
  0
TABLE
  2
LTYPE
  5
5
100
AcDbSymbolTable
 70
21
  0
LTYPE
  5
14
100
AcDbSymbolTableRecord
100
AcDbLinetypeTableRecord
  2
ByBlock
 70
0
  3

 72
65
 73
0
 40
0.0
  0
LTYPE
  5
15
100
AcDbSymbolTableRecord
100
AcDbLinetypeTableRecord
  2
ByLayer
 70
0
  3

 72
65
 73
0
 40
0.0
  0
LTYPE
  5
16
100
AcDbSymbolTableRecord
100
AcDbLinetypeTableRecord
  2
CONTINUOUS
 70
0
  3
Solid line
 72
65
 73
0
 40
0.0
  0
LTYPE
  5
31
100
AcDbSymbolTableRecord
100
AcDbLinetypeTableRecord
  2
DOT
 70
0
  3
Dot . . . . . . . . . . . . . . . . . . . . . .
 72
65
 73
2
 40
6.3499999999999996
 49
0.0
 74
0
 49
-6.3499999999999996
 74
0
  0
LTYPE
  5
32
100
AcDbSymbolTableRecord
100
AcDbLinetypeTableRecord
  2
DOT2
 70
0
  3
Dot (.5x) .....................................
 72
65
 73
2
 40
3.1749999999999998
 49
0.0
 74
0
 49
-3.1749999999999998
 74
0
  0
LTYPE
  5
33
100
AcDbSymbolTableRecord
100
AcDbLinetypeTableRecord
  2
DOTX2
 70
0
  3
Dot (2x) .  .  .  .  .  .  .  .  .  .  .  .  .
 72
65
 73
2
 40
12.699999999999999
 49
0.0
 74
0
 49
-12.699999999999999
 74
0
  0
LTYPE
  5
34
100
AcDbSymbolTableRecord
100
AcDbLinetypeTableRecord
  2
DASHED
 70
0
  3
Dashed __ __ __ __ __ __ __ __ __ __ __ __ __ _
 72
65
 73
2
 40
19.050000000000001
 49
12.699999999999999
 74
0
 49
-6.3499999999999996
 74
0
  0
LTYPE
  5
35
100
AcDbSymbolTableRecord
100
AcDbLinetypeTableRecord
  2
DASHED2
 70
0
  3
Dashed (.5x) _ _ _ _ _ _ _ _ _ _ _ _ _ _ _ _ _
 72
65
 73
2
 40
9.5250000000000004
 49
6.3499999999999996
 74
0
 49
-3.1749999999999998
 74
0
  0
LTYPE
  5
36
100
AcDbSymbolTableRecord
100
AcDbLinetypeTableRecord
  2
DASHEDX2
 70
0
  3
Dashed (2x) ____  ____  ____  ____  ____  ___
 72
65
 73
2
 40
38.100000000000001
 49
25.399999999999999
 74
0
 49
-12.699999999999999
 74
0
  0
LTYPE
  5
37
100
AcDbSymbolTableRecord
100
AcDbLinetypeTableRecord
  2
DASHDOT
 70
0
  3
Dash dot __ . __ . __ . __ . __ . __ . __ . __
 72
65
 73
4
 40
25.399999999999999
 49
12.699999999999999
 74
0
 49
-6.3499999999999996
 74
0
 49
0.0
 74
0
 49
-6.3499999999999996
 74
0
  0
LTYPE
  5
38
100
AcDbSymbolTableRecord
100
AcDbLinetypeTableRecord
  2
DASHDOT2
 70
0
  3
Dash dot (.5x) _._._._._._._._._._._._._._._.
 72
65
 73
4
 40
12.699999999999999
 49
6.3499999999999996
 74
0
 49
-3.1749999999999998
 74
0
 49
0.0
 74
0
 49
-3.1749999999999998
 74
0
  0
LTYPE
  5
39
100
AcDbSymbolTableRecord
100
AcDbLinetypeTableRecord
  2
DASHDOTX2
 70
0
  3
Dash dot (2x) ____  .  ____  .  ____  .  ___
 72
65
 73
4
 40
50.799999999999997
 49
25.399999999999999
 74
0
 49
-12.699999999999999
 74
0
 49
0.0
 74
0
 49
-12.699999999999999
 74
0
  0
LTYPE
  5
3A
100
AcDbSymbolTableRecord
100
AcDbLinetypeTableRecord
  2
DIVIDE
 70
0
  3
Divide ____ . . ____ . . ____ . . ____ . . ____
 72
65
 73
6
 40
31.75
 49
12.699999999999999
 74
0
 49
-6.3499999999999996
 74
0
 49
0.0
 74
0
 49
-6.3499999999999996
 74
0
 49
0.0
 74
0
 49
-6.3499999999999996
 74
0
  0
LTYPE
  5
3B
100
AcDbSymbolTableRecord
100
AcDbLinetypeTableRecord
  2
DIVIDE2
 70
0
  3
Divide (.5x) __..__..__..__..__..__..__..__.._
 72
65
 73
6
 40
15.875
 49
6.3499999999999996
 74
0
 49
-3.1749999999999998
 74
0
 49
0.0
 74
0
 49
-3.1749999999999998
 74
0
 49
0.0
 74
0
 49
-3.1749999999999998
 74
0
  0
LTYPE
  5
3C
100
AcDbSymbolTableRecord
100
AcDbLinetypeTableRecord
  2
DIVIDEX2
 70
0
  3
Divide (2x) ________  .  .  ________  .  .  _
 72
65
 73
6
 40
63.5
 49
25.399999999999999
 74
0
 49
-12.699999999999999
 74
0
 49
0.0
 74
0
 49
-12.699999999999999
 74
0
 49
0.0
 74
0
 49
-12.699999999999999
 74
0
  0
LTYPE
  5
3D
100
AcDbSymbolTableRecord
100
AcDbLinetypeTableRecord
  2
CENTER
 70
0
  3
Center ____ _ ____ _ ____ _ ____ _ ____ _ ____
 72
65
 73
4
 40
50.799999999999997
 49
31.75
 74
0
 49
-6.3499999999999996
 74
0
 49
6.3499999999999996
 74
0
 49
-6.3499999999999996
 74
0
  0
LTYPE
  5
3E
100
AcDbSymbolTableRecord
100
AcDbLinetypeTableRecord
  2
CENTER2
 70
0
  3
Center (.5x) ___ _ ___ _ ___ _ ___ _ ___ _ ___
 72
65
 73
4
 40
28.574999999999999
 49
19.050000000000001
 74
0
 49
-3.1749999999999998
 74
0
 49
3.1749999999999998
 74
0
 49
-3.1749999999999998
 74
0
  0
LTYPE
  5
3F
100
AcDbSymbolTableRecord
100
AcDbLinetypeTableRecord
  2
CENTERX2
 70
0
  3
Center (2x) ________  __  ________  __  _____
 72
65
 73
4
 40
101.59999999999999
 49
63.5
 74
0
 49
-12.699999999999999
 74
0
 49
12.699999999999999
 74
0
 49
-12.699999999999999
 74
0
  0
LTYPE
  5
40
100
AcDbSymbolTableRecord
100
AcDbLinetypeTableRecord
  2
BORDER
 70
0
  3
Border __ __ . __ __ . __ __ . __ __ . __ __ .
 72
65
 73
6
 40
44.450000000000003
 49
12.699999999999999
 74
0
 49
-6.3499999999999996
 74
0
 49
12.699999999999999
 74
0
 49
-6.3499999999999996
 74
0
 49
0.0
 74
0
 49
-6.3499999999999996
 74
0
  0
LTYPE
  5
41
100
AcDbSymbolTableRecord
100
AcDbLinetypeTableRecord
  2
BORDER2
 70
0
  3
Border (.5x) __.__.__.__.__.__.__.__.__.__.__.
 72
65
 73
6
 40
22.225000000000001
 49
6.3499999999999996
 74
0
 49
-3.1749999999999998
 74
0
 49
6.3499999999999996
 74
0
 49
-3.1749999999999998
 74
0
 49
0.0
 74
0
 49
-3.1749999999999998
 74
0
  0
LTYPE
  5
42
100
AcDbSymbolTableRecord
100
AcDbLinetypeTableRecord
  2
BORDERX2
 70
0
  3
Border (2x) ____  ____  .  ____  ____  .  ___
 72
65
 73
6
 40
88.900000000000006
 49
25.399999999999999
 74
0
 49
-12.699999999999999
 74
0
 49
25.399999999999999
 74
0
 49
-12.699999999999999
 74
0
 49
0.0
 74
0
 49
-12.699999999999999
 74
0
  0
ENDTAB
  0
TABLE
  2
LAYER
  5
2
100
AcDbSymbolTable
 70
2
  0
LAYER
  5
10
100
AcDbSymbolTableRecord
100
AcDbLayerTableRecord
  2
0
 70
0
 62
7
  6
CONTINUOUS
390
F
  0
LAYER
  5
43
100
AcDbSymbolTableRecord
100
AcDbLayerTableRecord
  2
LAYER_1
 70
0
 62
7
  6
CONTINUOUS
370
-3
390
F
  0
ENDTAB
  0
TABLE
  2
STYLE
  5
3
100
AcDbSymbolTable
 70
1
  0
STYLE
  5
11
100
AcDbSymbolTableRecord
100
AcDbTextStyleTableRecord
  2
Standard
 70
0
 40
0.0
 41
0.75
 50
0.0
 71
0
 42
2.5
  3
txt
  4

  0
ENDTAB
  0
TABLE
  2
VIEW
  5
6
100
AcDbSymbolTable
 70
0
  0
ENDTAB
  0
TABLE
  2
UCS
  5
7
100
AcDbSymbolTable
 70
0
  0
ENDTAB
  0
TABLE
  2
APPID
  5
9
100
AcDbSymbolTable
 70
1
  0
APPID
  5
12
100
AcDbSymbolTableRecord
100
AcDbRegAppTableRecord
  2
ACAD
 70
0
  0
ENDTAB
  0
TABLE
  2
DIMSTYLE
  5
A
100
AcDbSymbolTable
 70
1
100
AcDbDimStyleTable
 71
0
  0
DIMSTYLE
105
27
100
AcDbSymbolTableRecord
100
AcDbDimStyleTableRecord
  2
Standard
 41
0.18
 42
0.0625
 43
3.75
 44
0.18
 70
0
 73
0
 74
0
 77
1
 78
8
140
0.18
141
2.5
143
0.03937007874016
147
0.09
171
3
172
1
271
2
272
2
274
3
278
44
283
0
284
8
340
11
  0
ENDTAB
  0
TABLE
  2
BLOCK_RECORD
  5
1
100
AcDbSymbolTable
 70
1
  0
BLOCK_RECORD
  5
1F
100
AcDbSymbolTableRecord
100
AcDbBlockTableRecord
  2
*Model_Space
340
22
  0
BLOCK_RECORD
  5
1B
100
AcDbSymbolTableRecord
100
AcDbBlockTableRecord
  2
*Paper_Space
340
1E
  0
BLOCK_RECORD
  5
23
100
AcDbSymbolTableRecord
100
AcDbBlockTableRecord
  2
*Paper_Space0
340
26
  0
ENDTAB
  0
ENDSEC
  0
SECTION
  2
BLOCKS
  0
BLOCK
  5
20
100
AcDbEntity
  8
0
100
AcDbBlockBegin
  2
*Model_Space
 70
0
 10
0.0
 20
0.0
 30
0.0
  3
*Model_Space
  1

  0
ENDBLK
  5
21
100
AcDbEntity
  8
0
100
AcDbBlockEnd
  0
BLOCK
  5
1C
100
AcDbEntity
 67
1
  8
0
100
AcDbBlockBegin
  2
*Paper_Space
 70
0
 10
0.0
 20
0.0
 30
0.0
  3
*Paper_Space
  1

  0
ENDBLK
  5
1D
100
AcDbEntity
 67
1
  8
0
100
AcDbBlockEnd
  0
BLOCK
  5
24
100
AcDbEntity
  8
0
100
AcDbBlockBegin
  2
*Paper_Space0
 70
0
 10
0.0
 20
0.0
 30
0.0
  3
*Paper_Space0
  1

  0
ENDBLK
  5
25
100
AcDbEntity
  8
0
100
AcDbBlockEnd
  0
ENDSEC
  0
SECTION
  2
ENTITIES
  0
LWPOLYLINE
  5
44
  8
LAYER_1
 62
256
370
-1
  6
ByLayer
100
AcDbEntity
100
AcDbPolyline
 90
9
 70
1
 10
7.1446037418340751
 20
-0.000378874645719
 10
7.1432584053852608
 20
4.1041373441753848
 10
0.106024322020275
 20
8.1609359409081108
 10
-0.1044611153009498
 20
8.1609359409081108
 10
-7.1441615052789587
 20
4.1041373441753848
 10
-7.1450459783891915
 20
-4.1033795948839398
 10
-0.0481600481482545
 20
-8.2045583981841048
 10
0.0926515180544101
 20
-8.1920972665157947
 10
7.1459490782828752
 20
-4.1048950934668511
  0
LWPOLYLINE
  5
45
  8
LAYER_1
 62
256
370
-1
  6
ByLayer
100
AcDbEntity
100
AcDbPolyline
 90
533
 70
1
 10
2.8088352459972157
 20
-40.340024880448965
 10
2.85153643846958
 20
-34.470827118793409
 10
3.1567988977397761
 20
-34.470827118793409
 10
10.494427921663501
 20
-39.687279557642825
 10
10.709462727404535
 20
-39.769796154983375
 10
10.779807617905469
 20
-39.777795654344132
 10
10.89791526849335
 20
-39.768679408649461
 10
11.057447933848088
 20
-39.743832446838354
 10
11.252067868649611
 20
-39.704639797849822
 10
11.721218565312597
 20
-39.58875755409651
 10
12.254665395921599
 20
-39.432112908901601
 10
12.758985024539065
 20
-39.274711922859723
 10
12.959102803372382
 20
-39.207482209438361
 10
13.126906382301456
 20
-39.14145486073469
 10
13.264181129135906
 20
-39.071796260487176
 10
13.372712411685235
 20
-38.993672792434275
 10
13.416757181293491
 20
-38.94992622789907
 10
13.454285597759061
 20
-38.902250840314466
 10
13.485520832058121
 20
-38.850042427647743
 10
13.510686055166886
 20
-38.792696787866213
 10
13.5436991517183
 20
-38.660177018828001
 10
13.55511025522285
 20
-38.499857916938296
 10
13.546704733490095
 20
-38.306905865935555
 10
13.520267954329597
 20
-38.076487249558241
 10
13.420442094963612
 20
-37.483915855633853
 10
13.269915619601321
 20
-36.683474805072855
 10
12.969476677090277
 20
-35.072973148170945
 10
12.527366419094271
 20
-34.821010576789121
 10
2.9288212596176706
 20
-28.682121609163083
 10
2.9288212596176706
 20
-22.286051703286592
 10
7.4175738139891152
 20
-25.207678475420124
 10
7.6135056281957461
 20
-25.090805140509303
 10
7.7742699541031612
 20
-24.978248765112372
 10
8.0671554050569796
 20
-24.758179974356192
 10
8.8827070018161862
 20
-24.122584151564993
 10
9.9559765612299955
 20
-23.271236497531511
 10
10.160633266741776
 20
-21.773636490892542
 10
10.254143998556351
 20
-21.019769041627374
 10
10.277253484616992
 20
-20.750698448457143
 10
10.284561587938136
 20
-20.542277549961081
 10
10.276040211388505
 20
-20.386062051413663
 10
10.251661257836801
 20
-20.273607658089322
 10
10.211396630151697
 20
-20.196470075262543
 10
10.155218231201907
 20
-20.146205008207783
 10
7.2504199053480818
 20
-19.003048542430342
 10
4.555693320545906
 20
-17.989723552698692
 10
4.3200262246055559
 20
-17.787483486868922
 10
13.178115243465555
 20
-12.67388018893822
 10
13.272951975685181
 20
-13.104983679509076
 10
12.301936664311562
 20
-19.088372663029102
 10
12.333307938656496
 20
-19.106384860437132
 10
13.666176861744027
 20
-19.640249747153554
 10
14.967674510486617
 20
-20.156102436461953
 10
15.207260164542831
 20
-20.155227709543443
 10
15.282796421948326
 20
-20.144260463644031
 10
15.406249035554652
 20
-20.113167698075884
 10
15.770940873498006
 20
-19.999294491590494
 10
16.249410762629324
 20
-19.830985857401533
 10
16.789733787204952
 20
-19.625619562823253
 10
18.13262175581086
 20
-19.096886143021571
 10
17.898192078834427
 20
-15.192393196793802
 10
17.896044220157449
 20
-13.667046541385474
 10
23.331034877121738
 20
-16.80500890678691
 10
23.502238930403763
 20
-18.44613731865028
 10
23.855912798237526
 20
-28.207369684219703
 10
23.922483404930972
 20
-28.532744096405342
 10
23.936540263156729
 20
-28.572107552585532
 10
23.964478571808982
 20
-28.622568559033244
 10
24.058987070025807
 20
-28.753657885253961
 10
24.199983958847241
 20
-28.919761400112932
 10
24.381444297539005
 20
-29.114628428655553
 10
24.597343145366892
 20
-29.332008295927253
 10
24.841655561596667
 20
-29.565650326973433
 10
25.108356605494095
 20
-29.809303846839512
 10
25.391421336324939
 20
-30.056718180570904
 10
26.793788661025445
 20
-31.255317852550814
 10
27.167966575975001
 20
-31.055063909684904
 10
27.259665976103093
 20
-30.997781195643242
 10
27.377177435244818
 20
-30.911370378099363
 10
27.670206422613859
 20
-30.668159871398384
 10
28.008193322171721
 20
-30.359423267368904
 10
28.352277918007928
 20
-30.019151443797824
 10
29.162411345091328
 20
-29.183492920776644
 10
28.249546422622188
 20
-19.751884886171233
 10
28.312907660727149
 20
-19.688523648066262
 10
38.374937543093679
 20
-25.534185277979834
 10
38.580523325599017
 20
-25.455294611069672
 10
38.749353105202715
 20
-25.358056664126202
 10
39.05706242109099
 20
-25.151618436489862
 10
39.459893644729888
 20
-24.866266147650354
 10
39.914089147585486
 20
-24.532286017097373
 10
41.042069187066616
 20
-23.688168090035251
 10
41.150519649576836
 20
-22.694024765271003
 10
41.253407976788736
 20
-21.819984526009403
 10
41.348485645922182
 20
-21.114599683411122
 10
41.438001179757336
 20
-20.529317926315503
 10
31.317738722815392
 20
-14.713600405718651
 10
31.317738722815392
 20
-14.539486137502671
 10
39.922752640865284
 20
-10.637151426194741
 10
40.598489067789046
 20
-7.7326300348159194
 10
40.47268386437807
 20
-7.6222100124801457
 10
40.412223212280566
 20
-7.5876686945033001
 10
40.287794222204866
 20
-7.5315508501594053
 10
39.877381146977555
 20
-7.3663326846093256
 10
39.302144476413488
 20
-7.1500497203075497
 10
38.622784048230031
 20
-6.9061961617318204
 10
36.89868943549294
 20
-6.3006023333192758
 10
26.28847079053476
 20
-11.810061437901879
 10
20.98710113592108
 20
-8.7651287317694653
 10
20.904270778490542
 20
-8.5177574838356449
 10
25.629515375858901
 20
-6.1617783592244706
 10
25.551208161456231
 20
-5.7964695952244298
 10
25.444098010628323
 20
-5.1801712381001153
 10
25.296541183118194
 20
-4.2114194097800208
 10
25.219045508746262
 20
-3.7304590862353137
 10
25.138413334711984
 20
-3.3225863625105134
 10
25.064181726767742
 20
-3.0308835999322099
 10
25.032446468126977
 20
-2.9420591919875534
 10
25.005887750665849
 20
-2.8984331598269932
 10
24.357119036411319
 20
-2.3738169463666949
 10
23.832239144927144
 20
-1.961813919275734
 10
23.415523071993434
 20
-1.6528885565655713
 10
23.091245813390259
 20
-1.4375053362476891
 10
22.958857675643912
 20
-1.3619121788644435
 10
22.843682364897717
 20
-1.3061287363335623
 10
22.743754255624197
 20
-1.2689630684064923
 10
22.657107722295848
 20
-1.249223234834659
 10
22.581777139385224
 20
-1.2457172953695022
 10
22.515796881364764
 20
-1.2572533097624401
 10
22.45720132270705
 20
-1.2826393377649197
 10
22.404024837884549
 20
-1.3206834391283806
 10
19.898822500879064
 20
-3.3735247277348321
 10
17.671733423187277
 20
-5.1871300220851495
 10
17.484818764270216
 20
-5.1871300220851495
 10
17.570669807971797
 20
5.2680168925913549
 10
22.698832985181724
 20
1.1208151038130367
 10
23.606041655035128
 20
1.8306636855685099
 10
24.818509018564313
 20
2.7845430764632084
 10
24.894993367304778
 20
2.8613528218330941
 10
24.965834519264732
 20
2.9656800661272058
 10
25.03149604642654
 20
3.098939397238361
 10
25.09244152077261
 20
3.2625454030593772
 10
25.149134514285279
 20
3.4579126714830863
 10
25.20203859894697
 20
3.6864557904023201
 10
25.251617346740048
 20
3.9495893477098889
 10
25.298334329646892
 20
4.2487279312986246
 10
25.444624747421159
 20
5.2177711754965657
 10
25.551208161456131
 20
5.834190740994849
 10
25.560482763829881
 20
5.8939977198068547
 10
25.560360952936392
 20
5.9513437193729999
 10
25.548513450645316
 20
6.00780254957062
 10
25.522610978826265
 20
6.0649480202771073
 10
25.480324259348905
 20
6.1243539413698471
 10
25.419324014082875
 20
6.1875941227262103
 10
25.337280964897815
 20
6.2562423742235609
 10
25.231865833663363
 20
6.3318725057392768
 10
24.941602212524856
 20
6.5103736483353103
 10
24.529898925624479
 20
6.7356880295332857
 10
23.267636454366638
 20
7.3771184238110692
 10
20.905757532874674
 20
8.5547373426272273
 10
20.905757532874674
 20
8.7325615239103485
 10
26.092743626505538
 20
11.732339411568525
 10
26.489317344138172
 20
11.73233941156851
 10
36.880408323041848
 20
6.3303453282938591
 10
40.346878660967093
 20
7.5405097032548909
 10
40.473118946060794
 20
7.6558655236042483
 10
40.490892043372497
 20
7.6980327559555306
 10
40.49786843143923
 20
7.77857760576169
 10
40.482961228245927
 20
8.0363681044095898
 10
40.435457633297062
 20
8.3923729128897904
 10
40.362417943408815
 20
8.8097279245440703
 10
40.270902455397305
 20
9.2515690327142508
 10
40.167971466078725
 20
9.681032130742139
 10
40.060685272269225
 20
10.061253111969577
 10
40.00761531643542
 20
10.221377775452439
 10
39.956104170784968
 20
10.355367869738359
 10
39.8161628618913
 20
10.686611991882856
 10
31.317738722815392
 20
14.562448730556198
 10
31.321568974125285
 20
14.742052724285756
 10
40.954839719518446
 20
20.273417731441754
 10
41.185496584918795
 20
20.438239447183108
 10
41.249764103606395
 20
20.498134967570422
 10
41.29654486966821
 20
20.580505145249219
 10
41.32607571202945
 20
20.696059999803666
 10
41.338593459615282
 20
20.855509550817985
 10
41.334334941350875
 20
21.069563817876357
 10
41.313536986161424
 20
21.348932820562993
 10
41.223270080708019
 20
22.146455111157763
 10
41.030386711096909
 20
23.689849059391051
 10
38.817139683411639
 20
25.402217540920148
 10
38.394632187853219
 20
25.562570887324952
 10
28.315077938548342
 20
19.724074516014753
 10
28.249546422622245
 20
19.78960603194227
 10
29.176551632124799
 20
29.221214066547063
 10
27.050786704837023
 20
31.254804142707357
 10
26.924302134659001
 20
31.254804142707371
 10
26.871178712170547
 20
31.23139466498273
 10
26.768042246104557
 20
31.164302429781458
 10
26.43608368044562
 20
30.917886874785111
 10
25.977133432093439
 20
30.553191853390516
 10
25.439898495459246
 20
30.10785174126984
 10
24.081979426437513
 20
28.960899339832295
 10
23.881592995000958
 20
28.570465242175757
 10
23.497958996973324
 20
18.321171258327865
 10
23.322209142229923
 20
16.824182847654569
 10
17.896044220157449
 20
13.689159557940641
 10
17.897151293361091
 20
14.459636950252431
 10
17.907202240695213
 20
14.91005568039408
 10
17.933750296772615
 20
15.566881249557198
 10
18.020189031965401
 20
17.147032269320192
 10
18.14211969736607
 20
19.063950196076163
 10
17.421372801627825
 20
19.372898388154496
 10
16.677474343149285
 20
19.674511828843734
 10
15.901065179546038
 20
19.965825405880153
 10
15.101504453202452
 20
20.249804231527463
 10
12.364679213001438
 20
19.162118203615563
 10
12.301936664311718
 20
19.126093808798899
 10
13.272951975685196
 20
13.14270482527909
 10
13.178115243465555
 20
12.701641928864071
 10
4.3146176023863703
 20
17.808950196678794
 10
4.4362877283146105
 20
17.930620322610551
 10
10.24974553379473
 20
20.163311020296263
 10
10.290632137100495
 20
20.462395185008234
 10
10.294690419994609
 20
20.548711602367035
 10
10.290444392642456
 20
20.679955861302446
 10
10.259708494174362
 20
21.051231252719319
 10
10.203762615646127
 20
21.524228056891189
 10
10.127944931007676
 20
22.046952971450438
 10
9.9243711216090915
 20
23.332426593180656
 10
7.4431861040317315
 20
25.257558547060157
 10
2.9288212596176706
 20
22.269525741349284
 10
2.9288212596176706
 20
28.707355157774316
 10
12.527366419094271
 20
34.84615532812029
 10
12.748421548092118
 20
34.978424811029996
 10
12.772725623461618
 20
35.000282183534026
 10
12.799309362928035
 20
35.037673116308511
 10
12.858309185394276
 20
35.155691562292446
 10
12.923407717976062
 20
35.325751948228785
 10
12.99259166315862
 20
35.541126073364538
 10
13.06384772342718
 20
35.795085736946774
 10
13.13516260126697
 20
36.080902738222477
 10
13.204522999163217
 20
36.391848876438686
 10
13.269915619601157
 20
36.721195950842443
 10
13.577593910404985
 20
38.692514300117566
 10
13.56946684797812
 20
38.80096142951642
 10
13.55572611559915
 20
38.84956715073254
 10
13.533919198477278
 20
38.895346371758279
 10
13.502835058638091
 20
38.938988139192503
 10
13.461262658107181
 20
38.981181499634062
 10
13.341808923072506
 20
39.06397918593467
 10
13.165869689577995
 20
39.149251803451023
 10
12.923756653828342
 20
39.242511724974023
 10
12.202255960382381
 20
39.475042971203564
 10
10.819678662067126
 20
39.896754949917181
 10
10.412432739887556
 20
39.652267185289773
 10
3.18791578726983
 20
34.508548264563828
 10
2.8474776565712574
 20
34.508548264563828
 10
2.8474776565712361
 20
46.191663948612458
 10
0.3827449754367365
 20
47.217734743962481
 10
0.1811048110645999
 20
47.295111335131793
 10
0.1117596045347611
 20
47.298582019301577
 10
-0.0086843619534847
 20
47.278482038625867
 10
-0.1736044604533618
 20
47.236920109113001
 10
-0.3763780630181941
 20
47.176004946771343
 10
-0.868995268555814
 20
47.004549787635113
 10
-1.4335549549925588
 20
46.78098628928403
 10
-2.8465745566775738
 20
46.189484652266941
 10
-2.8465745566775738
 20
34.508548264563828
 10
-3.1842301393685588
 20
34.508548264563828
 10
-10.411529639993873
 20
39.64796038100198
 10
-10.615152601083665
 20
39.772357665459595
 10
-10.684274777481079
 20
39.788739248523868
 10
-10.803309568889489
 20
39.787383087745027
 10
-10.965751075807432
 20
39.769508637923749
 10
-11.165093398733418
 20
39.736335353860653
 10
-11.648456894603719
 20
39.628970102211738
 10
-12.201352860488683
 20
39.475042971203592
 10
-12.72791411226784
 20
39.315799804849675
 10
-12.937041722045805
 20
39.247396548332091
 10
-13.112537962236914
 20
39.180096123720702
 10
-13.256255813706851
 20
39.109116491615509
 10
-13.370048257321272
 20
39.029675612616472
 10
-13.416301507703189
 20
38.985287818219248
 10
-13.455768273945864
 20
38.936991447323564
 10
-13.488680178657489
 20
38.884188745004408
 10
-13.515268844446283
 20
38.826281956336757
 10
-13.550402949688198
 20
38.69276510025604
 10
-13.563023570537304
 20
38.53165883968137
 10
-13.55498368785922
 20
38.338181135212722
 10
-13.528136282519661
 20
38.107549947450082
 10
-13.425430827318749
 20
37.515698964442706
 10
-13.269731051859921
 20
36.717849575459041
 10
-12.956614295071368
 20
35.104001543172913
 10
-12.526463319200573
 20
34.841786223911953
 10
-2.9279181597239798
 20
28.711162141194492
 10
-2.8396961652399497
 20
22.307007807602048
 10
-3.0178550270910094
 20
22.307007807602048
 10
-7.4349127099932346
 20
25.263279787113916
 10
-9.9234680217154008
 20
23.332426593180642
 10
-10.127041831113992
 20
22.046952971450438
 10
-10.202859515752444
 20
21.524228056891189
 10
-10.258805394280685
 20
21.051231252719319
 10
-10.289541292748758
 20
20.67995586130246
 10
-10.293787320100918
 20
20.54871160236705
 10
-10.289729037206811
 20
20.462395185008248
 10
-10.248842433901039
 20
20.163311020296263
 10
-4.4353846284207705
 20
17.93062032261048
 10
-4.3137145024926937
 20
17.808950196678808
 10
-13.177212143571865
 20
12.701641928864085
 10
-13.272048875791519
 20
13.142704825278997
 10
-12.30103356441802
 20
19.126093808798899
 10
-12.332404838762884
 20
19.144106006207224
 10
-13.732188733208254
 20
19.705961217571513
 10
-15.100601353308761
 20
20.249804231527477
 10
-15.900162079650379
 20
19.965825405880935
 10
-16.675965848378432
 20
19.674771331387319
 10
-17.418408783010801
 20
19.373781801065917
 10
-18.13709476002958
 20
19.065717021897441
 10
-17.899311791258722
 20
15.067427136471395
 10
-17.895141120263752
 20
13.689493126686173
 10
-23.333568171662673
 20
16.831273115704505
 10
-23.499572952940781
 20
18.158484052235053
 10
-23.882139848508292
 20
28.407778036082931
 10
-23.979697400149671
 20
28.669194395531278
 10
-24.026899397276893
 20
28.745426002992488
 10
-24.124297896614021
 20
28.862394158598519
 10
-24.445894389963243
 20
29.195185603214199
 10
-24.896906856287803
 20
29.620859707316455
 10
-25.429755271678172
 20
30.092707448843498
 10
-26.782255591565303
 20
31.254804142707357
 10
-26.916069598254321
 20
31.254804142707357
 10
-26.964736829005972
 20
31.234051197105927
 10
-27.052255537480171
 20
31.174572659233846
 10
-27.3241391514672
 20
30.956120600271319
 10
-27.69230396795729
 20
30.632811553006761
 10
-28.117333514692312
 20
30.23800910462721
 10
-29.184783424441282
 20
29.221214066547063
 10
-28.251646207276313
 20
19.786603147394445
 10
-28.316267665926063
 20
19.721981688743256
 10
-38.393729087959528
 20
25.556822732975093
 10
-38.604982835738653
 20
25.47952013694767
 10
-38.670005616361195
 20
25.446516821874596
 10
-38.774328216632668
 20
25.381946700586056
 10
-39.079251452298962
 20
25.173421057778697
 10
-39.476509695090563
 20
24.884573245357828
 10
-39.922860097360498
 20
24.546033300155656
 10
-41.029483611203219
 20
23.689849059391051
 10
-41.22236698081435
 20
22.146455111157763
 10
-41.312188303171489
 20
21.352001814588576
 10
-41.332995838770934
 20
21.072666286491497
 10
-41.337451112184112
 20
20.858036158496162
 10
-41.325341489560884
 20
20.697694920585107
 10
-41.296454337051124
 20
20.581226062740882
 10
-41.250577020804691
 20
20.498213074946037
 10
-41.187496906971447
 20
20.438239447183108
 10
-36.140726754654331
 20
17.507735227863748
 10
-31.321710045791253
 20
14.742052724285756
 10
-31.316835622921712
 20
14.562448730556198
 10
-39.815259761997609
 20
10.686611991882877
 10
-39.955201070891285
 20
10.35536786973838
 10
-40.059782172375499
 20
10.061253111969691
 10
-40.167068366184978
 20
9.6810321307422811
 10
-40.269999355503543
 20
9.2515690327143645
 10
-40.361514843515046
 20
8.8097279245441698
 10
-40.434554533403315
 20
8.3923729128898472
 10
-40.482058128352193
 20
8.0363681044096182
 10
-40.494027547469308
 20
7.8928920596904746
 10
-40.49696533154551
 20
7.77857760576169
 10
-40.489988943478792
 20
7.6980327559555164
 10
-40.472215846167117
 20
7.6558655236042554
 10
-40.41148123515628
 20
7.6203431505923405
 10
-40.286436022919617
 20
7.5633302551283492
 10
-39.87392081393692
 20
7.3966525829101144
 10
-39.29568425755523
 20
7.1794718790814898
 10
-38.61274039211078
 20
6.9354275157743643
 10
-36.879505223148158
 20
6.3303453282938591
 10
-26.488414244244431
 20
11.73233941156851
 10
-26.091840526611783
 20
11.73233941156851
 10
-20.904854432980983
 20
8.7325615239102987
 10
-20.904854432980983
 20
8.5547373426273481
 10
-25.628612275964873
 20
6.1994995049948258
 10
-25.550305061562433
 20
5.8341907409948206
 10
-25.443721647527461
 20
5.2177711754965443
 10
-25.297431229753201
 20
4.2487279312986246
 10
-25.250714246846361
 20
3.9495893477098889
 10
-25.20113549905329
 20
3.6864557904023201
 10
-25.148231414391603
 20
3.4579126714831006
 10
-25.091538420878923
 20
3.2625454030593772
 10
-25.03059294653287
 20
3.098939397238361
 10
-24.964931419371052
 20
2.9656800661272058
 10
-24.894090267411102
 20
2.8613528218330941
 10
-24.817605918670633
 20
2.7845430764632084
 10
-24.140263298939143
 20
2.2447108376417049
 10
-23.62114010648796
 20
1.8381433860555489
 10
-23.23483389725364
 20
1.5497512265934859
 10
-22.955942227172763
 20
1.3644448641442466
 10
-22.848838580545042
 20
1.3057333895771706
 10
-22.759062652181893
 20
1.2671348035965906
 10
-22.683439136575391
 20
1.246762919313575
 10
-22.618792728217613
 20
1.2427315498392559
 10
-22.561948121600611
 20
1.2531545082846947
 10
-22.509730011216472
 20
1.2761456077610092
 10
-22.406472057115071
 20
1.3522874822505742
 10
-19.89069514499803
 20
3.4081607679935289
 10
-17.656381811318891
 20
5.2248511678555758
 10
-17.488423105031693
 20
5.2248511678555687
 10
-17.488423105031693
 20
-5.1871300220851495
 10
-17.657732826301991
 20
-5.1871300220851495
 10
-22.693230792793532
 20
-1.100022459952072
 10
-23.70271932897899
 20
-1.8827503937992347
 10
-24.918511352053851
 20
-2.8281655337392095
 10
-24.963496400578272
 20
-2.8857494964817292
 10
-25.012312582443663
 20
-2.987611705648149
 10
-25.063401734601012
 20
-3.1280803514166706
 10
-25.1152056940013
 20
-3.3014836239655097
 10
-25.214725382334631
 20
-3.7244068101169745
 10
-25.298406343051553
 20
-4.2110067855282054
 10
-25.444008087058823
 20
-5.1800500297261394
 10
-25.550305061562533
 20
-5.7964695952244298
 10
-25.559579054288282
 20
-5.8562775613601445
 10
-25.55945453916971
 20
-5.9136254164395794
 10
-25.54760137687364
 20
-5.9700874179536356
 10
-25.52168942806691
 20
-6.0272378233931221
 10
-25.479388553416353
 20
-6.0866508902489542
 10
-25.418368613588783
 20
-6.1499008760120049
 10
-25.336299469251053
 20
-6.2185620381731042
 10
-25.230850981069981
 20
-6.2942086342231605
 10
-24.940495415845163
 20
-6.4727551579535856
 10
-24.528660803248961
 20
-6.6981345071302414
 10
-23.265989977281031
 20
-7.3397679215300542
 10
-20.903367678596862
 20
-8.5177574838356449
 10
-20.986198036027403
 20
-8.7651287317694511
 10
-26.2908253955543
 20
-11.811932648183316
 10
-36.899341432324633
 20
-6.3011563853999135
 10
-40.345975561073416
 20
-7.511789990144365
 10
-40.471780764484393
 20
-7.6222100124801457
 10
-40.482843391825007
 20
-7.6409925549857647
 10
-40.490156433117477
 20
-7.6740319335098093
 10
-40.493968652402835
 20
-7.7796764822969493
 10
-40.484087212030104
 20
-7.9327342262090355
 10
-40.461381901688966
 20
-8.1267957326135516
 10
-40.380978829860084
 20
-8.6122923023697524
 10
-40.259717754433481
 20
-9.1848907305053302
 10
-39.9218495409716
 20
-10.637151426194741
 10
-31.316835622921701
 20
-14.539486137502671
 10
-31.316835622921701
 20
-14.713600405718651
 10
-41.437098079863638
 20
-20.529317926315493
 10
-41.347582546028491
 20
-21.114599683411122
 10
-41.252504876895046
 20
-21.819984526009403
 10
-41.149616549683138
 20
-22.694024765271003
 10
-41.04116608717294
 20
-23.688168090035251
 10
-38.78520600821065
 20
-25.376403944159502
 10
-38.379670347223751
 20
-25.532022578683904
 10
-28.311890619684331
 20
-19.688637589215393
 10
-28.248643322728491
 20
-19.751884886171233
 10
-29.161747171292173
 20
-29.183492920776644
 10
-28.250990779908062
 20
-30.119424384767402
 10
-27.874886554502311
 20
-30.489962182973382
 10
-27.524101278117502
 20
-30.806981109472712
 10
-27.237865016164481
 20
-31.036804648776073
 10
-27.131212161040771
 20
-31.108494237138864
 10
-27.055407834054062
 20
-31.145756285394164
 10
-27.014892060787822
 20
-31.152595661499213
 10
-26.966508893336172
 20
-31.149800717753312
 10
-26.84557607443109
 20
-31.114936939954024
 10
-26.691480774447662
 20
-31.040423090486993
 10
-26.503094390494741
 20
-30.925517307842931
 10
-26.279288319681161
 20
-30.769477730512552
 10
-26.018933959115792
 20
-30.571562496986562
 10
-25.720902705907452
 20
-30.331029745755661
 10
-25.384065957165021
 20
-30.047137615310572
 10
-23.997550634745863
 20
-28.858118508590991
 10
-23.84750282558112
 20
-27.881995272034054
 10
-23.5027660415019
 20
-18.44613731865028
 10
-23.330131777228061
 20
-16.80500890678691
 10
-17.895141120263752
 20
-13.66737384702526
 10
-17.89733646990571
 20
-14.348539918863125
 10
-17.907624967991381
 20
-14.773486899640943
 10
-17.934015331168762
 20
-15.426980541970693
 10
-18.019117847048673
 20
-17.06329606686127
 10
-18.138703874549673
 20
-19.096886143021571
 10
-15.445942718705375
 20
-20.154352982624921
 10
-15.210802219732159
 20
-20.154352982624921
 10
-15.136223977571703
 20
-20.143577173053803
 10
-15.013790910010641
 20
-20.112693393469623
 10
-14.651197517249919
 20
-19.999263819036873
 10
-14.174696478576465
 20
-19.831388048876423
 10
-13.635962231116714
 20
-19.626389872537974
 10
-13.253362778233793
 20
-19.472696427634073
 10
-12.95076462845077
 20
-19.343212211357052
 10
-12.720133596262009
 20
-19.232536890237132
 10
-12.553435496161882
 20
-19.135270130804482
 10
-12.44263614264478
 20
-19.046011599589324
 10
-12.405687812884352
 20
-19.002697815353972
 10
-12.379701350205075
 20
-18.959360963121831
 10
-12.363672481418732
 20
-18.915326001209152
 10
-12.35659693333713
 20
-18.869917887932214
 10
-12.365288706535338
 20
-18.772282040550653
 10
-12.855254564105742
 20
-15.786323634098686
 10
-13.276194456615272
 20
-13.126509949547085
 10
-13.177212143571865
 20
-12.683372858227855
 10
-4.316603056022899
 20
-17.784963418179956
 10
-4.5547902206522082
 20
-17.989723552698692
 10
-9.9442433902567586
 20
-20.016373532162092
 10
-10.154315131308323
 20
-20.146205008207833
 10
-10.210493530258063
 20
-20.196470075262592
 10
-10.250758157943125
 20
-20.273607658089393
 10
-10.275137111494828
 20
-20.386062051413752
 10
-10.283658488044445
 20
-20.542277549961202
 10
-10.276350384723294
 20
-20.750698448457271
 10
-10.253240898662639
 20
-21.019769041627502
 10
-10.159730166848099
 20
-21.773636490892542
 10
-9.955073461336319
 20
-23.271236497531511
 10
-7.8085343425086933
 20
-24.973931805598472
 10
-7.4233463731473108
 20
-25.203552691228751
 10
-2.9279181597239798
 20
-22.282874063349052
 10
-2.9279181597239798
 20
-28.680384647620912
 10
-12.526463319200573
 20
-34.819190058729546
 10
-12.966000338694343
 20
-35.07153309150371
 10
-13.683256132862304
 20
-38.979637891634425
 10
-10.960311186892362
 20
-39.866402292690935
 10
-10.493524821769888
 20
-39.68727955764286
 10
-3.1558957978460782
 20
-34.470827118793409
 10
-2.8506333385758893
 20
-34.470827118793409
 10
-2.7652309536311606
 20
-46.209222642104507
 10
-0.162235656145981
 20
-47.307078520309346
 10
0.0004515499468454
 20
-47.307078520309346
 10
0.0596957483374752
 20
-47.295874815302277
 10
0.1663162405336678
 20
-47.263764675114544
 10
0.4976643235680314
 20
-47.14583093819801
 10
0.9464522335006649
 20
-46.971289007561538
 10
1.4646364047822615
 20
-46.758150581206927
 10
2.7661340535248513
 20
-46.209222642104507
  0
ENDSEC
  0
SECTION
  2
OBJECTS
  0
DICTIONARY
  5
C
100
AcDbDictionary
280
0
281
1
  3
ACAD_GROUP
350
D
  3
ACAD_LAYOUT
350
1A
  3
ACAD_MLINESTYLE
350
17
  3
ACAD_PLOTSETTINGS
350
19
  3
ACAD_PLOTSTYLENAME
350
E
  3
AcDbVariableDictionary
350
46
  0
DICTIONARY
  5
D
100
AcDbDictionary
280
0
281
1
  0
ACDBDICTIONARYWDFLT
  5
E
100
AcDbDictionary
281
1
  3
Normal
350
F
100
AcDbDictionaryWithDefault
340
F
  0
ACDBPLACEHOLDER
  5
F
  0
DICTIONARY
  5
17
100
AcDbDictionary
280
0
281
1
  3
Standard
350
18
  0
MLINESTYLE
  5
18
100
AcDbMlineStyle
  2
STANDARD
 70
0
  3

 62
256
 51
90.0
 52
90.0
 71
2
 49
0.5
 62
256
  6
BYLAYER
 49
-0.5
 62
256
  6
BYLAYER
  0
DICTIONARY
  5
19
100
AcDbDictionary
280
0
281
1
  0
DICTIONARY
  5
1A
100
AcDbDictionary
281
1
  3
Layout1
350
1E
  3
Layout2
350
26
  3
Model
350
22
  0
LAYOUT
  5
1E
100
AcDbPlotSettings
  1

  2
C:\Program Files\AutoCAD 2002\plotters\DWF ePlot (optimized for plotting).pc3
  4

  6

 40
0.0
 41
0.0
 42
0.0
 43
0.0
 44
0.0
 45
0.0
 46
0.0
 47
0.0
 48
0.0
 49
0.0
140
0.0
141
0.0
142
1.0
143
1.0
 70
688
 72
0
 73
0
 74
5
  7

 75
16
147
1.0
148
0.0
149
0.0
100
AcDbLayout
  1
Layout1
 70
1
 71
1
 10
0.0
 20
0.0
 11
420.0
 21
297.0
 12
0.0
 22
0.0
 32
0.0
 14
100000000000000000000.0
 24
100000000000000000000.0
 34
100000000000000000000.0
 15
-100000000000000000000.0
 25
-100000000000000000000.0
 35
-100000000000000000000.0
146
0.0
 13
0.0
 23
0.0
 33
0.0
 16
1.0
 26
0.0
 36
0.0
 17
0.0
 27
1.0
 37
0.0
 76
0
330
1B
  0
LAYOUT
  5
22
100
AcDbPlotSettings
  1

  2
C:\Program Files\AutoCAD 2002\plotters\DWF ePlot (optimized for plotting).pc3
  4

  6

 40
0.0
 41
0.0
 42
0.0
 43
0.0
 44
0.0
 45
0.0
 46
0.0
 47
0.0
 48
0.0
 49
0.0
140
0.0
141
0.0
142
1.0
143
1.0
 70
1712
 72
0
 73
0
 74
0
  7

 75
0
147
1.0
148
0.0
149
0.0
100
AcDbLayout
  1
Model
 70
1
 71
0
 10
0.0
 20
0.0
 11
12.0
 21
9.0
 12
0.0
 22
0.0
 32
0.0
 14
0.0
 24
0.0
 34
0.0
 15
0.0
 25
0.0
 35
0.0
146
0.0
 13
0.0
 23
0.0
 33
0.0
 16
1.0
 26
0.0
 36
0.0
 17
0.0
 27
1.0
 37
0.0
 76
0
330
1F
  0
LAYOUT
  5
26
100
AcDbPlotSettings
  1

  2
C:\Program Files\AutoCAD 2002\plotters\DWF ePlot (optimized for plotting).pc3
  4

  6

 40
0.0
 41
0.0
 42
0.0
 43
0.0
 44
0.0
 45
0.0
 46
0.0
 47
0.0
 48
0.0
 49
0.0
140
0.0
141
0.0
142
1.0
143
1.0
 70
688
 72
0
 73
0
 74
5
  7

 75
16
147
1.0
148
0.0
149
0.0
100
AcDbLayout
  1
Layout2
 70
1
 71
2
 10
0.0
 20
0.0
 11
12.0
 21
9.0
 12
0.0
 22
0.0
 32
0.0
 14
0.0
 24
0.0
 34
0.0
 15
0.0
 25
0.0
 35
0.0
146
0.0
 13
0.0
 23
0.0
 33
0.0
 16
1.0
 26
0.0
 36
0.0
 17
0.0
 27
1.0
 37
0.0
 76
0
330
23
  0
DICTIONARY
  5
46
100
AcDbDictionary
281
1
  3
DIMASSOC
350
48
  3
HIDETEXT
350
47
  0
DICTIONARYVAR
  5
47
100
DictionaryVariables
280
0
  1
2
  0
DICTIONARYVAR
  5
48
100
DictionaryVariables
280
0
  1
1
  0
ENDSEC
  0
EOF
