<?xml version="1.0" encoding="UTF-8" standalone="no"?>
<!-- Created with Inkscape (http://www.inkscape.org/) -->

<svg
   xmlns:dc="http://purl.org/dc/elements/1.1/"
   xmlns:cc="http://creativecommons.org/ns#"
   xmlns:rdf="http://www.w3.org/1999/02/22-rdf-syntax-ns#"
   xmlns:svg="http://www.w3.org/2000/svg"
   xmlns="http://www.w3.org/2000/svg"
   xmlns:sodipodi="http://sodipodi.sourceforge.net/DTD/sodipodi-0.dtd"
   xmlns:inkscape="http://www.inkscape.org/namespaces/inkscape"
   width="578.875"
   height="660.125"
   id="svg2"
   version="1.1"
   inkscape:version="0.48.0 r9654"
   sodipodi:docname="Новый документ 1">
  <defs
     id="defs4" />
  <sodipodi:namedview
     id="base"
     pagecolor="#ffffff"
     bordercolor="#666666"
     borderopacity="1.0"
     inkscape:pageopacity="0.0"
     inkscape:pageshadow="2"
     inkscape:zoom="0.35"
     inkscape:cx="728.23807"
     inkscape:cy="-165.33777"
     inkscape:document-units="px"
     inkscape:current-layer="layer1"
     showgrid="false"
     showguides="true"
     inkscape:guide-bbox="true"
     inkscape:snap-bbox="true"
     inkscape:bbox-paths="true"
     inkscape:bbox-nodes="true"
     inkscape:object-paths="true"
     inkscape:snap-intersection-paths="true"
     inkscape:object-nodes="true"
     inkscape:snap-global="true"
     fit-margin-top="0"
     fit-margin-left="0"
     fit-margin-right="0"
     fit-margin-bottom="0"
     inkscape:window-width="1280"
     inkscape:window-height="904"
     inkscape:window-x="-4"
     inkscape:window-y="-4"
     inkscape:window-maximized="1" />
  <metadata
     id="metadata7">
    <rdf:RDF>
      <cc:Work
         rdf:about="">
        <dc:format>image/svg+xml</dc:format>
        <dc:type
           rdf:resource="http://purl.org/dc/dcmitype/StillImage" />
        <dc:title></dc:title>
      </cc:Work>
    </rdf:RDF>
  </metadata>
  <g
     inkscape:label="Layer 1"
     inkscape:groupmode="layer"
     id="layer1"
     transform="translate(-764.84375,-205.875)">
    <text
       id="2"
       xml:space="preserve"
       x="42.310562"
       y="255.38582"
       style="font-size:15.00036907px;font-style:normal;font-weight:normal;text-align:start;text-anchor:start;fill:#000000;font-family:Times New Roman"> </text>
    <path
       style="fill:none;stroke:#0000ff;stroke-width:6;stroke-miterlimit:4;stroke-dasharray:none"
       d="m 1054.2812,209.125 -23.0312,9.59375 0.094,77.03125 -50.1563,-35.6875 -23.875,7.46875 5.59375,30.5 68.49995,43.6875 0.031,36.59375 -28.1563,-18.5625 -19.7187,15.375 -3.65625,24.75 38.43755,14.6875 -51.2188,29.5625 6.5,-40.625 -23.25,-9.21875 -23.1875,9.40625 2,33.65625 -31.65625,-18.3125 -3.59375,-81.1875 L 870.3125,317.75 851.90625,334.6875 857.75,395.96875 791.09375,357.375 771.25,372.53125 l -3.1875,24.75 66.75,38.4375 -56,25.59375 -5.46875,24.40625 29.21875,10.40625 72.09375,-37.5 31.6875,18.28125 L 876.1875,492 l 3.46875,24.78125 19.59375,15.53125 31.9375,-25.9375 0,59.125 -31.9375,-25.9375 -19.59375,15.53125 -3.46875,24.75 30.15625,15.125 -31.6875,18.25 -72.09375,-37.46875 -29.21875,10.40625 5.46875,24.40625 56,25.59375 -66.75,38.4375 3.1875,24.75 19.84375,15.15625 66.65625,-38.625 -5.84375,61.28125 18.40625,16.96875 23.625,-20.09375 3.59375,-81.1875 31.65625,-18.3125 -2,33.65625 23.1875,9.40625 23.25,-9.21875 -6.5,-40.625 51.2188,29.5625 -38.43755,14.6875 3.65625,24.75 19.7187,15.375 28.1563,-18.5625 -0.031,36.59375 -68.49995,43.6875 -5.59375,30.5 23.875,7.46875 50.1563,-35.6875 -0.094,77.03125 23.0312,9.59375 23.0313,-9.59375 -0.094,-77.03125 50.1562,35.6875 23.875,-7.46875 -5.5938,-30.5 -68.5,-43.6875 -0.031,-36.59375 28.1562,18.5625 19.7188,-15.375 3.6562,-24.75 -38.4374,-14.6875 51.2187,-29.5625 -6.5,40.625 23.25,9.21875 23.1875,-9.40625 -2,-33.65625 31.6562,18.3125 3.5938,81.1875 23.625,20.09375 18.4062,-16.96875 -5.8437,-61.28125 66.6563,38.625 19.8437,-15.15625 3.1875,-24.75 -66.75,-38.4375 56,-25.59375 5.4688,-24.40625 L 1306,575.75 l -72.0938,37.46875 -31.6874,-18.25 30.1562,-15.125 -3.4688,-24.75 -19.5937,-15.53125 -31.9375,25.9375 0,-59.125 31.9375,25.9375 19.5937,-15.53125 3.4688,-24.78125 -30.1562,-15.09375 31.6874,-18.28125 72.0938,37.5 29.2188,-10.40625 -5.4688,-24.40625 -56,-25.59375 66.75,-38.4375 -3.1875,-24.75 -19.8437,-15.15625 -66.6563,38.59375 5.8437,-61.28125 -18.4062,-16.9375 -23.625,20.09375 -3.5938,81.1875 -31.6562,18.3125 2,-33.65625 -23.1875,-9.40625 -23.25,9.21875 6.5,40.625 -51.2187,-29.5625 38.4374,-14.6875 -3.6562,-24.75 -19.7188,-15.375 -28.1562,18.5625 0.031,-36.59375 68.5,-43.6875 5.5938,-30.5 -23.875,-7.46875 -50.1562,35.6875 0.094,-77.03125 -23.0313,-9.59375 z m 0,224.15625 88.9063,51.3125 0,102.65625 -88.9063,51.34375 -88.9062,-51.34375 0,-102.65625 88.9062,-51.3125 z"
       id="path2909"
       inkscape:connector-curvature="0" />
  </g>
</svg>
