999
dxflib 2.0.4.8
  0
SECTION
  2
HEADER
  9
$ACADVER
  1
AC1015
  9
$HANDSEED
  5
FFFF
  9
$USERR4
 40
0.0
  9
$DIMTAD
 70
0
  9
$VISRETAIN
 70
1
  9
$TILEMODE
 70
1
  9
$SHADEDIF
 70
70
  9
$USERR5
 40
0.0
  9
$UCSYDIR
 10
0.0
 20
1.0
 30
0.0
  9
$ATTREQ
 70
1
  9
$CHAMFERA
 40
0.5
  9
$MENU
  1
.
  9
$CLAYER
  8
0
  9
$UCSXDIR
 10
1.0
 20
0.0
 30
0.0
  9
$CHAMFERB
 40
0.5
  9
$DIMASZ
 40
0.18
  9
$TRACEWID
 40
0.05
  9
$REGENMODE
 70
1
  9
$ORTHOMODE
 70
0
  9
$EXTMIN
 10
-37.735698342233597
 20
-13.77648305084746
 30
0.0
  9
$PUCSYDIR
 10
0.0
 20
1.0
 30
0.0
  9
$ANGBASE
 50
0.0
  9
$USRTIMER
 70
1
  9
$SKETCHINC
 40
0.1
  9
$DIMGAP
 40
0.09
  9
$DIMTFAC
 40
1.0
  9
$DIMSAH
 70
0
  9
$DIMALT
 70
0
  9
$DIMSHO
 70
1
  9
$PUCSXDIR
 10
1.0
 20
0.0
 30
0.0
  9
$SURFTYPE
 70
6
  9
$SPLFRAME
 70
0
  9
$DIMTSZ
 40
0.0
  9
$LIMMIN
 10
0.0
 20
0.0
  9
$SURFTAB1
 70
6
  9
$SPLINESEGS
 70
8
  9
$AUPREC
 70
0
  9
$LUNITS
 70
2
  9
$DWGCODEPAGE
  3
ansi_1252
  9
$UNITMODE
 70
0
  9
$USERI1
 70
0
  9
$SURFTAB2
 70
6
  9
$SKPOLY
 70
0
  9
$ELEVATION
 40
0.0
  9
$DIMCEN
 40
0.09
  9
$DIMRND
 40
0.0
  9
$INSBASE
 10
0.0
 20
0.0
 30
0.0
  9
$USERI2
 70
0
  9
$UCSORG
 10
0.0
 20
0.0
 30
0.0
  9
$PELEVATION
 40
0.0
  9
$DIMEXO
 40
0.0625
  9
$TEXTSIZE
 40
0.2
  9
$DRAGMODE
 70
2
  9
$FILLMODE
 70
1
  9
$EXTMAX
 10
37.735698342233633
 20
13.77648305084746
 30
0.0
  9
$INSUNITS
 70
4
  9
$USERI3
 70
0
  9
$SURFU
 70
6
  9
$ANGDIR
 70
0
  9
$TDUSRTIMER
 40
0.0000000116
  9
$DIMZIN
 70
0
  9
$DIMDLE
 40
0.0
  9
$DIMSCALE
 40
1.0
  9
$WORLDVIEW
 70
1
  9
$USERI4
 70
0
  9
$SURFV
 70
6
  9
$OSMODE
 70
37
  9
$QTEXTMODE
 70
0
  9
$LIMMAX
 10
12.0
 20
9.0
  9
$USERI5
 70
0
  9
$HANDLING
 70
1
  9
$PDMODE
 70
0
  9
$LIMCHECK
 70
0
  9
$THICKNESS
 40
0.0
  9
$DIMSE1
 70
0
  9
$DIMLIM
 70
0
  9
$DIMTXT
 40
0.18
  9
$ATTMODE
 70
1
  9
$PEXTMAX
 10
-100000000000000000000.0
 20
-100000000000000000000.0
 30
-100000000000000000000.0
  9
$PEXTMIN
 10
100000000000000000000.0
 20
100000000000000000000.0
 30
100000000000000000000.0
  9
$PUCSORG
 10
0.0
 20
0.0
 30
0.0
  9
$SPLINETYPE
 70
6
  9
$TDINDWG
 40
0.0000000116
  9
$LUPREC
 70
4
  9
$DIMSOXD
 70
0
  9
$DIMLFAC
 40
1.0
  9
$DIMSE2
 70
0
  9
$DIMTOH
 70
1
  9
$CELTYPE
  6
BYLAYER
  9
$PLIMCHECK
 70
0
  9
$PLINEWID
 40
0.0
  9
$DIMSTYLE
  2
STANDARD
  9
$DIMTVP
 40
0.0
  9
$DIMASO
 70
1
  9
$DIMTM
 40
0.0
  9
$DIMDLI
 40
0.38
  9
$CECOLOR
 62
256
  9
$PLIMMAX
 10
12.0
 20
9.0
  9
$PLIMMIN
 10
0.0
 20
0.0
  9
$MAXACTVP
 70
64
  9
$TDUPDATE
 40
2456286.351405289
  9
$FILLETRAD
 40
0.5
  9
$DIMCLRT
 70
0
  9
$DIMALTD
 70
2
  9
$DIMTIH
 70
1
  9
$LTSCALE
 40
1.0
  9
$USERR1
 40
0.0
  9
$ATTDIA
 70
0
  9
$PDSIZE
 40
0.0
  9
$DIMCLRD
 70
0
  9
$DIMEXE
 40
0.18
  9
$PSLTSCALE
 70
1
  9
$PLINEGEN
 70
0
  9
$SHADEDGE
 70
3
  9
$USERR2
 40
0.0
  9
$COORDS
 70
1
  9
$TDCREATE
 40
2454910.5
  9
$DIMCLRE
 70
0
  9
$DIMTOFL
 70
0
  9
$DIMALTF
 40
25.399999999999999
  9
$DIMTOL
 70
0
  9
$DIMTP
 40
0.0
  9
$TEXTSTYLE
  7
STANDARD
  9
$USERR3
 40
0.0
  9
$AUNITS
 70
0
  9
$DIMTIX
 70
0
  9
$MIRRTEXT
 70
1
  0
ENDSEC
  0
SECTION
  2
TABLES
  0
TABLE
  2
VPORT
  5
8
100
AcDbSymbolTable
 70
1
  0
VPORT
  5
30
100
AcDbSymbolTableRecord
100
AcDbViewportTableRecord
  2
*Active
 70
0
 10
0.0
 20
0.0
 11
1.0
 21
1.0
 12
286.30555555555549
 22
148.5
 13
0.0
 23
0.0
 14
10.0
 24
10.0
 15
10.0
 25
10.0
 16
0.0
 26
0.0
 36
1.0
 17
0.0
 27
0.0
 37
0.0
 40
297.0
 41
1.92798353909465
 42
50.0
 43
0.0
 44
0.0
 50
0.0
 51
0.0
 71
0
 72
100
 73
1
 74
3
 75
1
 76
1
 77
0
 78
0
281
0
 65
1
110
0.0
120
0.0
130
0.0
111
1.0
121
0.0
131
0.0
112
0.0
122
1.0
132
0.0
 79
0
146
0.0
  0
ENDTAB
  0
TABLE
  2
LTYPE
  5
5
100
AcDbSymbolTable
 70
21
  0
LTYPE
  5
14
100
AcDbSymbolTableRecord
100
AcDbLinetypeTableRecord
  2
ByBlock
 70
0
  3

 72
65
 73
0
 40
0.0
  0
LTYPE
  5
15
100
AcDbSymbolTableRecord
100
AcDbLinetypeTableRecord
  2
ByLayer
 70
0
  3

 72
65
 73
0
 40
0.0
  0
LTYPE
  5
16
100
AcDbSymbolTableRecord
100
AcDbLinetypeTableRecord
  2
CONTINUOUS
 70
0
  3
Solid line
 72
65
 73
0
 40
0.0
  0
LTYPE
  5
31
100
AcDbSymbolTableRecord
100
AcDbLinetypeTableRecord
  2
DOT
 70
0
  3
Dot . . . . . . . . . . . . . . . . . . . . . .
 72
65
 73
2
 40
6.3499999999999996
 49
0.0
 74
0
 49
-6.3499999999999996
 74
0
  0
LTYPE
  5
32
100
AcDbSymbolTableRecord
100
AcDbLinetypeTableRecord
  2
DOT2
 70
0
  3
Dot (.5x) .....................................
 72
65
 73
2
 40
3.1749999999999998
 49
0.0
 74
0
 49
-3.1749999999999998
 74
0
  0
LTYPE
  5
33
100
AcDbSymbolTableRecord
100
AcDbLinetypeTableRecord
  2
DOTX2
 70
0
  3
Dot (2x) .  .  .  .  .  .  .  .  .  .  .  .  .
 72
65
 73
2
 40
12.699999999999999
 49
0.0
 74
0
 49
-12.699999999999999
 74
0
  0
LTYPE
  5
34
100
AcDbSymbolTableRecord
100
AcDbLinetypeTableRecord
  2
DASHED
 70
0
  3
Dashed __ __ __ __ __ __ __ __ __ __ __ __ __ _
 72
65
 73
2
 40
19.050000000000001
 49
12.699999999999999
 74
0
 49
-6.3499999999999996
 74
0
  0
LTYPE
  5
35
100
AcDbSymbolTableRecord
100
AcDbLinetypeTableRecord
  2
DASHED2
 70
0
  3
Dashed (.5x) _ _ _ _ _ _ _ _ _ _ _ _ _ _ _ _ _
 72
65
 73
2
 40
9.5250000000000004
 49
6.3499999999999996
 74
0
 49
-3.1749999999999998
 74
0
  0
LTYPE
  5
36
100
AcDbSymbolTableRecord
100
AcDbLinetypeTableRecord
  2
DASHEDX2
 70
0
  3
Dashed (2x) ____  ____  ____  ____  ____  ___
 72
65
 73
2
 40
38.100000000000001
 49
25.399999999999999
 74
0
 49
-12.699999999999999
 74
0
  0
LTYPE
  5
37
100
AcDbSymbolTableRecord
100
AcDbLinetypeTableRecord
  2
DASHDOT
 70
0
  3
Dash dot __ . __ . __ . __ . __ . __ . __ . __
 72
65
 73
4
 40
25.399999999999999
 49
12.699999999999999
 74
0
 49
-6.3499999999999996
 74
0
 49
0.0
 74
0
 49
-6.3499999999999996
 74
0
  0
LTYPE
  5
38
100
AcDbSymbolTableRecord
100
AcDbLinetypeTableRecord
  2
DASHDOT2
 70
0
  3
Dash dot (.5x) _._._._._._._._._._._._._._._.
 72
65
 73
4
 40
12.699999999999999
 49
6.3499999999999996
 74
0
 49
-3.1749999999999998
 74
0
 49
0.0
 74
0
 49
-3.1749999999999998
 74
0
  0
LTYPE
  5
39
100
AcDbSymbolTableRecord
100
AcDbLinetypeTableRecord
  2
DASHDOTX2
 70
0
  3
Dash dot (2x) ____  .  ____  .  ____  .  ___
 72
65
 73
4
 40
50.799999999999997
 49
25.399999999999999
 74
0
 49
-12.699999999999999
 74
0
 49
0.0
 74
0
 49
-12.699999999999999
 74
0
  0
LTYPE
  5
3A
100
AcDbSymbolTableRecord
100
AcDbLinetypeTableRecord
  2
DIVIDE
 70
0
  3
Divide ____ . . ____ . . ____ . . ____ . . ____
 72
65
 73
6
 40
31.75
 49
12.699999999999999
 74
0
 49
-6.3499999999999996
 74
0
 49
0.0
 74
0
 49
-6.3499999999999996
 74
0
 49
0.0
 74
0
 49
-6.3499999999999996
 74
0
  0
LTYPE
  5
3B
100
AcDbSymbolTableRecord
100
AcDbLinetypeTableRecord
  2
DIVIDE2
 70
0
  3
Divide (.5x) __..__..__..__..__..__..__..__.._
 72
65
 73
6
 40
15.875
 49
6.3499999999999996
 74
0
 49
-3.1749999999999998
 74
0
 49
0.0
 74
0
 49
-3.1749999999999998
 74
0
 49
0.0
 74
0
 49
-3.1749999999999998
 74
0
  0
LTYPE
  5
3C
100
AcDbSymbolTableRecord
100
AcDbLinetypeTableRecord
  2
DIVIDEX2
 70
0
  3
Divide (2x) ________  .  .  ________  .  .  _
 72
65
 73
6
 40
63.5
 49
25.399999999999999
 74
0
 49
-12.699999999999999
 74
0
 49
0.0
 74
0
 49
-12.699999999999999
 74
0
 49
0.0
 74
0
 49
-12.699999999999999
 74
0
  0
LTYPE
  5
3D
100
AcDbSymbolTableRecord
100
AcDbLinetypeTableRecord
  2
CENTER
 70
0
  3
Center ____ _ ____ _ ____ _ ____ _ ____ _ ____
 72
65
 73
4
 40
50.799999999999997
 49
31.75
 74
0
 49
-6.3499999999999996
 74
0
 49
6.3499999999999996
 74
0
 49
-6.3499999999999996
 74
0
  0
LTYPE
  5
3E
100
AcDbSymbolTableRecord
100
AcDbLinetypeTableRecord
  2
CENTER2
 70
0
  3
Center (.5x) ___ _ ___ _ ___ _ ___ _ ___ _ ___
 72
65
 73
4
 40
28.574999999999999
 49
19.050000000000001
 74
0
 49
-3.1749999999999998
 74
0
 49
3.1749999999999998
 74
0
 49
-3.1749999999999998
 74
0
  0
LTYPE
  5
3F
100
AcDbSymbolTableRecord
100
AcDbLinetypeTableRecord
  2
CENTERX2
 70
0
  3
Center (2x) ________  __  ________  __  _____
 72
65
 73
4
 40
101.59999999999999
 49
63.5
 74
0
 49
-12.699999999999999
 74
0
 49
12.699999999999999
 74
0
 49
-12.699999999999999
 74
0
  0
LTYPE
  5
40
100
AcDbSymbolTableRecord
100
AcDbLinetypeTableRecord
  2
BORDER
 70
0
  3
Border __ __ . __ __ . __ __ . __ __ . __ __ .
 72
65
 73
6
 40
44.450000000000003
 49
12.699999999999999
 74
0
 49
-6.3499999999999996
 74
0
 49
12.699999999999999
 74
0
 49
-6.3499999999999996
 74
0
 49
0.0
 74
0
 49
-6.3499999999999996
 74
0
  0
LTYPE
  5
41
100
AcDbSymbolTableRecord
100
AcDbLinetypeTableRecord
  2
BORDER2
 70
0
  3
Border (.5x) __.__.__.__.__.__.__.__.__.__.__.
 72
65
 73
6
 40
22.225000000000001
 49
6.3499999999999996
 74
0
 49
-3.1749999999999998
 74
0
 49
6.3499999999999996
 74
0
 49
-3.1749999999999998
 74
0
 49
0.0
 74
0
 49
-3.1749999999999998
 74
0
  0
LTYPE
  5
42
100
AcDbSymbolTableRecord
100
AcDbLinetypeTableRecord
  2
BORDERX2
 70
0
  3
Border (2x) ____  ____  .  ____  ____  .  ___
 72
65
 73
6
 40
88.900000000000006
 49
25.399999999999999
 74
0
 49
-12.699999999999999
 74
0
 49
25.399999999999999
 74
0
 49
-12.699999999999999
 74
0
 49
0.0
 74
0
 49
-12.699999999999999
 74
0
  0
ENDTAB
  0
TABLE
  2
LAYER
  5
2
100
AcDbSymbolTable
 70
2
  0
LAYER
  5
10
100
AcDbSymbolTableRecord
100
AcDbLayerTableRecord
  2
0
 70
0
 62
7
  6
CONTINUOUS
390
F
  0
LAYER
  5
43
100
AcDbSymbolTableRecord
100
AcDbLayerTableRecord
  2
LAYER_1
 70
0
 62
18
  6
CONTINUOUS
390
F
  0
ENDTAB
  0
TABLE
  2
STYLE
  5
3
100
AcDbSymbolTable
 70
1
  0
STYLE
  5
11
100
AcDbSymbolTableRecord
100
AcDbTextStyleTableRecord
  2
Standard
 70
0
 40
0.0
 41
0.75
 50
0.0
 71
0
 42
2.5
  3
txt
  4

  0
ENDTAB
  0
TABLE
  2
VIEW
  5
6
100
AcDbSymbolTable
 70
0
  0
ENDTAB
  0
TABLE
  2
UCS
  5
7
100
AcDbSymbolTable
 70
0
  0
ENDTAB
  0
TABLE
  2
APPID
  5
9
100
AcDbSymbolTable
 70
1
  0
APPID
  5
12
100
AcDbSymbolTableRecord
100
AcDbRegAppTableRecord
  2
ACAD
 70
0
  0
ENDTAB
  0
TABLE
  2
DIMSTYLE
  5
A
100
AcDbSymbolTable
 70
1
100
AcDbDimStyleTable
 71
0
  0
DIMSTYLE
105
27
100
AcDbSymbolTableRecord
100
AcDbDimStyleTableRecord
  2
Standard
 41
0.18
 42
0.0625
 43
3.75
 44
0.18
 70
0
 73
0
 74
0
 77
1
 78
8
140
0.18
141
2.5
143
0.03937007874016
147
0.09
171
3
172
1
271
2
272
2
274
3
278
44
283
0
284
8
340
11
  0
ENDTAB
  0
TABLE
  2
BLOCK_RECORD
  5
1
100
AcDbSymbolTable
 70
1
  0
BLOCK_RECORD
  5
1F
100
AcDbSymbolTableRecord
100
AcDbBlockTableRecord
  2
*Model_Space
340
22
  0
BLOCK_RECORD
  5
1B
100
AcDbSymbolTableRecord
100
AcDbBlockTableRecord
  2
*Paper_Space
340
1E
  0
BLOCK_RECORD
  5
23
100
AcDbSymbolTableRecord
100
AcDbBlockTableRecord
  2
*Paper_Space0
340
26
  0
ENDTAB
  0
ENDSEC
  0
SECTION
  2
BLOCKS
  0
BLOCK
  5
20
100
AcDbEntity
  8
0
100
AcDbBlockBegin
  2
*Model_Space
 70
0
 10
0.0
 20
0.0
 30
0.0
  3
*Model_Space
  1

  0
ENDBLK
  5
21
100
AcDbEntity
  8
0
100
AcDbBlockEnd
  0
BLOCK
  5
1C
100
AcDbEntity
 67
1
  8
0
100
AcDbBlockBegin
  2
*Paper_Space
 70
0
 10
0.0
 20
0.0
 30
0.0
  3
*Paper_Space
  1

  0
ENDBLK
  5
1D
100
AcDbEntity
 67
1
  8
0
100
AcDbBlockEnd
  0
BLOCK
  5
24
100
AcDbEntity
  8
0
100
AcDbBlockBegin
  2
*Paper_Space0
 70
0
 10
0.0
 20
0.0
 30
0.0
  3
*Paper_Space0
  1

  0
ENDBLK
  5
25
100
AcDbEntity
  8
0
100
AcDbBlockEnd
  0
ENDSEC
  0
SECTION
  2
ENTITIES
  0
LWPOLYLINE
  5
44
  8
LAYER_1
 62
256
370
-1
  6
ByLayer
100
AcDbEntity
100
AcDbPolyline
 90
58
 70
1
 10
18.996291562572591
 20
-2.102754237288138
 10
19.00556063036921
 20
-2.363612288135593
 10
19.033367833759058
 20
-2.6165254237288171
 10
19.055547388843799
 20
-2.737685381355933
 10
19.085009782911591
 20
-2.8522245762711851
 10
19.121755015962439
 20
-2.9601430084745748
 10
19.165783087996349
 20
-3.0614406779661039
 10
19.217425037148882
 20
-3.1547934322033901
 10
19.27701190155565
 20
-3.2388771186440688
 10
19.34454368121667
 20
-3.3136917372881398
 10
19.42002037613193
 20
-3.3792372881355992
 10
19.504766138843799
 20
-3.4325344279661061
 10
19.60010512189465
 20
-3.470603813559324
 10
19.70603732528447
 20
-3.493445444915253
 10
19.82256274901329
 20
-3.5010593220338961
 10
19.9193914036743
 20
-3.4957627118644048
 10
20.013902791386158
 20
-3.4798728813559312
 10
20.106096912148871
 20
-3.453389830508474
 10
20.195973765962439
 20
-3.4163135593220351
 10
20.28353335282684
 20
-3.3686440677966112
 10
20.3687756727421
 20
-3.3103813559322042
 10
20.4517007257082
 20
-3.2415254237288118
 10
20.532308511725152
 20
-3.1620762711864359
 10
20.685910206640401
 20
-2.9839777542372858
 10
20.82891868121667
 20
-2.7886652542372889
 10
20.961333935453968
 20
-2.576138771186443
 10
21.08315596935228
 20
-2.346398305084747
 10
21.194053744775989
 20
-2.1060646186440679
 10
21.293696223589549
 20
-1.8617584745762721
 10
21.38208340579294
 20
-1.6134798728813571
 10
21.459215291386158
 20
-1.361228813559322
 10
21.577064867657349
 20
-0.8951271186440657
 10
21.617120482064131
 20
-0.6938559322033884
 10
21.64459664731837
 20
-0.5137711864406782
 10
22.290783087996349
 20
2.600635593220332
 10
22.074946223589549
 20
2.5870630296610102
 10
21.861757664267511
 20
2.5463453389830448
 10
21.65121741003022
 20
2.4784825211864359
 10
21.44332546087767
 20
2.3834745762711829
 10
21.23973700748785
 20
2.2652939618644061
 10
21.042107240538702
 20
2.127913135593221
 10
20.850436160030231
 20
1.9713320974576309
 10
20.664723765962439
 20
1.7955508474576329
 10
20.485632134606501
 20
1.6035487288135599
 10
20.313823342233611
 20
1.398305084745761
 10
20.149297388843792
 20
1.1798199152542379
 10
19.99205427443701
 20
0.9480932203389898
 10
19.843749189691248
 20
0.7067664194915302
 10
19.70603732528447
 20
0.4594809322033928
 10
19.578918681216681
 20
0.2062367584745763
 10
19.462393257487861
 20
-0.0529661016949206
 10
19.357454168504809
 20
-0.3154793432203415
 10
19.2650945286743
 20
-0.5786546610169499
 10
19.185314337996331
 20
-0.8424920550847441
 10
19.11811359647092
 20
-1.106991525423723
 10
19.064816456640401
 20
-1.367849576271184
 10
19.026747071047179
 20
-1.620762711864405
 10
19.003905439691241
 20
-1.865730932203389
  0
LWPOLYLINE
  5
45
  8
LAYER_1
 62
256
370
-1
  6
ByLayer
100
AcDbEntity
100
AcDbPolyline
 90
58
 70
1
 10
-6.5511441281634566
 20
-2.102754237288138
 10
-6.5418750603668494
 20
-2.363612288135593
 10
-6.5140678569770216
 20
-2.6165254237288171
 10
-6.4918883018922804
 20
-2.737685381355933
 10
-6.4624259078244846
 20
-2.8522245762711851
 10
-6.4256806747736377
 20
-2.9601430084745748
 10
-6.3816526027397336
 20
-3.0614406779661039
 10
-6.3300106535872018
 20
-3.1547934322033901
 10
-6.2704237891804269
 20
-3.2388771186440688
 10
-6.2028920095194104
 20
-3.3136917372881398
 10
-6.1274153146041499
 20
-3.3792372881355992
 10
-6.0426695518922813
 20
-3.4325344279661061
 10
-5.9473305688414344
 20
-3.470603813559324
 10
-5.8413983654516048
 20
-3.493445444915253
 10
-5.7248729417227926
 20
-3.5010593220338961
 10
-5.6280442870617717
 20
-3.4957627118644048
 10
-5.5335328993499058
 20
-3.4798728813559312
 10
-5.4413387785871929
 20
-3.453389830508474
 10
-5.3514619247736341
 20
-3.4163135593220351
 10
-5.2639023379092293
 20
-3.3686440677966112
 10
-5.1786600179939768
 20
-3.3103813559322042
 10
-5.0957349650278783
 20
-3.2415254237288118
 10
-5.015127179010932
 20
-3.1620762711864359
 10
-4.8615254840956794
 20
-2.9839777542372858
 10
-4.718517009519406
 20
-2.7886652542372889
 10
-4.5861017552821144
 20
-2.576138771186443
 10
-4.4642797213838037
 20
-2.346398305084747
 10
-4.3533819459600718
 20
-2.1060646186440679
 10
-4.253739467146513
 20
-1.8617584745762721
 10
-4.165352284943129
 20
-1.6134798728813571
 10
-4.0882203993499218
 20
-1.361228813559322
 10
-3.9703708230787238
 20
-0.8951271186440657
 10
-3.9303152086719431
 20
-0.6938559322033884
 10
-3.902839043417714
 20
-0.5137711864406782
 10
-3.256652602739734
 20
2.600635593220332
 10
-3.4724894671465112
 20
2.5870630296610102
 10
-3.685678026468544
 20
2.5463453389830448
 10
-3.896218280705833
 20
2.4784825211864359
 10
-4.104110229858378
 20
2.3834745762711829
 10
-4.3076986832482103
 20
2.2652939618644061
 10
-4.5053284501973643
 20
2.127913135593221
 10
-4.6969995307058419
 20
1.9713320974576309
 10
-4.8827119247736448
 20
1.7955508474576329
 10
-5.0618035561295711
 20
1.6035487288135599
 10
-5.2336123485024544
 20
1.398305084745761
 10
-5.3981383018922893
 20
1.1798199152542379
 10
-5.5553814162990696
 20
0.9480932203389898
 10
-5.7036865010448299
 20
0.7067664194915302
 10
-5.8413983654516066
 20
0.4594809322033928
 10
-5.9685170095194016
 20
0.2062367584745763
 10
-6.0850424332482191
 20
-0.0529661016949206
 10
-6.1899815222312746
 20
-0.3154793432203415
 10
-6.2823411620617833
 20
-0.5786546610169499
 10
-6.3621213527397451
 20
-0.8424920550847441
 10
-6.4293220942651601
 20
-1.106991525423723
 10
-6.4826192340956732
 20
-1.367849576271184
 10
-6.5206886196888902
 20
-1.620762711864405
 10
-6.5435302510448166
 20
-1.865730932203389
  0
LWPOLYLINE
  5
46
  8
LAYER_1
 62
256
370
-1
  6
ByLayer
100
AcDbEntity
100
AcDbPolyline
 90
43
 70
1
 10
-18.330805145112631
 20
-10.20656779661017
 10
-18.321536077316019
 20
-10.31779661016949
 10
-18.29372887392617
 20
-10.481991525423719
 10
-18.244735229858389
 20
-10.67266949152542
 10
-18.171906840027869
 20
-10.863347457627111
 10
-18.126223577316011
 20
-10.95603813559322
 10
-18.073919551892281
 20
-11.04343220338983
 10
-18.014994763756679
 20
-11.12552966101695
 10
-17.949449212909229
 20
-11.202330508474571
 10
-17.876620823078721
 20
-11.26721398305085
 10
-17.79584751799398
 20
-11.313559322033891
 10
-17.707129297655001
 20
-11.341366525423719
 10
-17.61046616206178
 20
-11.35063559322033
 10
-17.524396246807541
 20
-11.33838718220338
 10
-17.446271246807541
 20
-11.30164194915254
 10
-17.376091162061769
 20
-11.240399894067799
 10
-17.31385599257024
 20
-11.15466101694915
 10
-17.258241585790579
 20
-11.04839777542373
 10
-17.20792378918042
 20
-10.925582627118651
 10
-17.162902602739749
 20
-10.7862155720339
 10
-17.123178026468569
 20
-10.63029661016949
 10
-17.059618704434659
 20
-10.28072033898305
 10
-17.017245823078721
 20
-9.8887711864406782
 10
-16.9642797213838
 20
-9.0413135593220346
 10
-16.947065738332959
 20
-8.612288135593225
 10
-16.937796670536361
 20
-8.193855932203391
 10
-16.928527602739742
 20
-7.8019067796610164
 10
-16.91131361968888
 20
-7.4523305084745743
 10
-16.863644128163461
 20
-6.4830508474576334
 10
-16.837161077316011
 20
-5.8209745762711833
 10
-16.81597463663806
 20
-5.3230932203389756
 10
-16.915948153587209
 20
-5.5048331567796573
 10
-17.014597517993991
 20
-5.7004766949152534
 10
-17.20792378918043
 20
-6.1334745762711833
 10
-17.393305145112631
 20
-6.603548728813557
 10
-17.568093280705849
 20
-7.0921610169491487
 10
-17.72963989087534
 20
-7.5900423728813564
 10
-17.875296670536361
 20
-8.0879237288135641
 10
-18.00373946714652
 20
-8.5685911016949152
 10
-18.113644128163461
 20
-9.0148305084745743
 10
-18.203686501044821
 20
-9.4147245762711815
 10
-18.272542433248219
 20
-9.756355932203391
 10
-18.31623946714652
 20
-10.025158898305079
  0
LWPOLYLINE
  5
47
  8
LAYER_1
 62
256
370
-1
  6
ByLayer
100
AcDbEntity
100
AcDbPolyline
 90
52
 70
1
 10
-14.64436446714652
 20
-2.5794491525423671
 10
-14.33749211545161
 20
-2.4159163135593191
 10
-14.052468280705851
 20
-2.2431144067796591
 10
-13.78929296290924
 20
-2.061043432203387
 10
-13.54796616206178
 20
-1.8697033898305051
 10
-13.32550853494314
 20
-1.6704184322033859
 10
-13.11894073833297
 20
-1.464512711864403
 10
-12.92826277223128
 20
-1.2519862288135579
 10
-12.75347463663806
 20
-1.0328389830508511
 10
-12.594245293417719
 20
-0.808395127118646
 10
-12.45024370443466
 20
-0.5799788135593236
 10
-12.32146986968888
 20
-0.3475900423728826
 10
-12.2079237891804
 20
-0.1112288135593218
 10
-12.10728819596007
 20
0.1284427966101713
 10
-12.01724582307871
 20
0.3707627118644083
 10
-11.93779667053634
 20
0.6157309322033893
 10
-11.868940738332951
 20
0.8633474576271141
 10
-11.825243704434641
 20
1.1162605932203411
 10
-11.800084806129581
 20
1.408898305084747
 10
-11.79809857731601
 20
1.5628310381355921
 10
-11.8080297213838
 20
1.7121292372881329
 10
-11.829878238332951
 20
1.8567929025423731
 10
-11.863644128163459
 20
1.996822033898312
 10
-11.9106515434177
 20
2.1295683262711909
 10
-11.972224636638041
 20
2.252383474576273
 10
-12.048363407824469
 20
2.3652674788135579
 10
-12.13906785697702
 20
2.4682203389830448
 10
-12.190461527527869
 20
2.5141518802966072
 10
-12.246655251044819
 20
2.5539592161016942
 10
-12.307649027527869
 20
2.5876423463983058
 10
-12.373442856977031
 20
2.615201271186443
 10
-12.519430674773631
 20
2.6519465042372929
 10
-12.68461870443466
 20
2.6641949152542419
 10
-12.874634594265171
 20
2.650622351694921
 10
-13.05273311121433
 20
2.609904661016953
 10
-13.218914255282121
 20
2.54204184322034
 10
-13.373178026468571
 20
2.447033898305079
 10
-13.51651753918043
 20
2.3288532838983018
 10
-13.649925907824491
 20
2.1914724576271181
 10
-13.773403132400761
 20
2.0348914194915269
 10
-13.886949212909229
 20
1.85911016949153
 10
-13.990895187485499
 20
1.665121822033897
 10
-14.08557209426516
 20
1.4539194915254221
 10
-14.17097993324821
 20
1.225503177966101
 10
-14.24711870443466
 20
0.9798728813559308
 10
-14.315312560366859
 20
0.7210010593220311
 10
-14.3768856535872
 20
0.4528601694915224
 10
-14.431837984095679
 20
0.1754502118644048
 10
-14.48016955189229
 20
-0.1112288135593218
 10
-14.556970399349909
 20
-0.7057733050847457
 10
-14.607288195960081
 20
-1.3241525423728859
 10
-14.635095399349909
 20
-1.953125000000004
  0
LWPOLYLINE
  5
48
  8
LAYER_1
 62
256
370
-1
  6
ByLayer
100
AcDbEntity
100
AcDbPolyline
 90
58
 70
1
 10
-25.428262772231282
 20
-2.102754237288138
 10
-25.418993704434669
 20
-2.363612288135593
 10
-25.391186501044839
 20
-2.6165254237288171
 10
-25.369006945960091
 20
-2.737685381355933
 10
-25.339544551892299
 20
-2.8522245762711851
 10
-25.302799318841441
 20
-2.9601430084745748
 10
-25.258771246807559
 20
-3.0614406779661039
 10
-25.207129297655001
 20
-3.1547934322033901
 10
-25.147542433248219
 20
-3.2388771186440688
 10
-25.080010653587198
 20
-3.3136917372881398
 10
-25.004533958671939
 20
-3.3792372881355992
 10
-24.919788195960091
 20
-3.4325344279661061
 10
-24.824449212909251
 20
-3.470603813559324
 10
-24.71851700951941
 20
-3.493445444915253
 10
-24.601991585790589
 20
-3.5010593220338961
 10
-24.505162931129579
 20
-3.4957627118644048
 10
-24.41065154341771
 20
-3.4798728813559312
 10
-24.318457422655008
 20
-3.453389830508474
 10
-24.228580568841451
 20
-3.4163135593220351
 10
-24.141020981977039
 20
-3.3686440677966112
 10
-24.05577866206179
 20
-3.3103813559322042
 10
-23.972853609095679
 20
-3.2415254237288118
 10
-23.892245823078721
 20
-3.1620762711864359
 10
-23.738644128163479
 20
-2.9839777542372858
 10
-23.595635653587209
 20
-2.7886652542372889
 10
-23.463220399349929
 20
-2.576138771186443
 10
-23.341398365451621
 20
-2.346398305084747
 10
-23.230500590027891
 20
-2.1060646186440679
 10
-23.13085811121433
 20
-1.8617584745762721
 10
-23.042470929010939
 20
-1.6134798728813571
 10
-22.96533904341771
 20
-1.361228813559322
 10
-22.847489467146531
 20
-0.8951271186440657
 10
-22.807433852739749
 20
-0.6938559322033884
 10
-22.77995768748551
 20
-0.5137711864406782
 10
-22.133771246807559
 20
2.600635593220332
 10
-22.34960811121433
 20
2.5870630296610102
 10
-22.562796670536361
 20
2.5463453389830448
 10
-22.773336924773659
 20
2.4784825211864359
 10
-22.981228873926199
 20
2.3834745762711829
 10
-23.184817327316029
 20
2.2652939618644061
 10
-23.382447094265181
 20
2.127913135593221
 10
-23.574118174773648
 20
1.9713320974576309
 10
-23.759830568841441
 20
1.7955508474576329
 10
-23.938922200197371
 20
1.6035487288135599
 10
-24.110730992570261
 20
1.398305084745761
 10
-24.275256945960081
 20
1.1798199152542379
 10
-24.432500060366859
 20
0.9480932203389898
 10
-24.580805145112631
 20
0.7067664194915302
 10
-24.71851700951941
 20
0.4594809322033928
 10
-24.845635653587209
 20
0.2062367584745763
 10
-24.962161077316011
 20
-0.0529661016949206
 10
-25.06710016629907
 20
-0.3154793432203415
 10
-25.159459806129579
 20
-0.5786546610169499
 10
-25.239239996807552
 20
-0.8424920550847441
 10
-25.306440738332981
 20
-1.106991525423723
 10
-25.359737878163479
 20
-1.367849576271184
 10
-25.3978072637567
 20
-1.620762711864405
 10
-25.420648895112631
 20
-1.865730932203389
  0
LWPOLYLINE
  5
49
  8
LAYER_1
 62
256
370
-1
  6
ByLayer
100
AcDbEntity
100
AcDbPolyline
 90
217
 70
1
 10
-34.896715291386158
 20
1.806144067796609
 10
-34.891418681216663
 20
0.6355932203389898
 10
-34.874204698165812
 20
-0.1257944915254221
 10
-34.833155969352248
 20
-0.9375
 10
-34.802700460877674
 20
-1.3572563559322059
 10
-34.764300037148857
 20
-1.779661016949156
 10
-34.717954698165812
 20
-2.20471398305085
 10
-34.663664443928518
 20
-2.6324152542372872
 10
-34.598449931216663
 20
-3.0511784957627102
 10
-34.519331816809881
 20
-3.449417372881356
 10
-34.426310100708193
 20
-3.827131885593225
 10
-34.319384782911577
 20
-4.1843220338983116
 10
-34.198224825284463
 20
-4.5153601694915242
 10
-34.062499189691238
 20
-4.8146186440677941
 10
-33.912207876131923
 20
-5.0820974576271176
 10
-33.831600090114968
 20
-5.2039194915254248
 10
-33.747350884606497
 20
-5.3177966101694949
 10
-33.658549904733611
 20
-5.4208322298728824
 10
-33.564286795623438
 20
-5.5101297669491522
 10
-33.464561557275978
 20
-5.5856892213983036
 10
-33.359374189691231
 20
-5.6475105932203373
 10
-33.248724692869203
 20
-5.6955938824152534
 10
-33.132613066809867
 20
-5.7299390889830502
 10
-33.011039311513272
 20
-5.7505462129237284
 10
-32.884003426979383
 20
-5.7574152542372872
 10
-32.75142265367429
 20
-5.7515393273305078
 10
-32.623807452403099
 20
-5.7339115466101678
 10
-32.501157823165812
 20
-5.7045319120762699
 10
-32.383473765962428
 20
-5.6634004237288114
 10
-32.27075528079294
 20
-5.6105170815677941
 10
-32.163002367657342
 20
-5.5458818855932179
 10
-32.060215026555653
 20
-5.4694948358050848
 10
-31.962393257487861
 20
-5.381355932203391
 10
-31.86904050325057
 20
-5.2838652012711851
 10
-31.77966020664039
 20
-5.1794226694915224
 10
-31.612816986301411
 20
-4.9496822033898269
 10
-31.461863596470899
 20
-4.6921345338983036
 10
-31.326800037148871
 20
-4.4067796610169552
 10
-31.20630215579294
 20
-4.0975900423728842
 10
-31.099045799860729
 20
-3.7685381355932202
 10
-31.005030969352251
 20
-3.4196239406779632
 10
-30.924257664267511
 20
-3.0508474576271141
 10
-30.85473965579293
 20
-2.6718087923728779
 10
-30.794490715114961
 20
-2.2921080508474572
 10
-30.743510842233611
 20
-1.911745233050846
 10
-30.701800037148871
 20
-1.530720338983045
 10
-30.640889020199719
 20
-0.7852224576271194
 10
-30.60646105409802
 20
-0.0741525423728859
 10
-30.590571223589539
 20
0.5680614406779618
 10
-30.58527461342004
 20
1.106991525423723
 10
-30.58527461342004
 20
1.604872881355931
 10
-31.001389549860729
 20
1.7743644067796629
 10
-31.370497071047168
 20
1.9332627118644099
 10
-31.692597176979369
 20
2.081567796610174
 10
-31.967689867657331
 20
2.2192796610169552
 10
-32.2037200583353
 20
2.350370762711866
 10
-32.4086326642675
 20
2.4788135593220351
 10
-32.582427685453943
 20
2.6046080508474598
 10
-32.725105121894607
 20
2.727754237288138
 10
-32.840637431216663
 20
2.8512314618644088
 10
-32.932997071047183
 20
2.978019067796613
 10
-33.002184041386158
 20
3.1081170550847479
 10
-33.048198342233597
 20
3.2415254237288171
 10
-33.078322812572587
 20
3.3822166313559361
 10
-33.099840291386158
 20
3.5341631355932241
 10
-33.112750778674297
 20
3.6973649364406809
 10
-33.11705427443701
 20
3.871822033898304
 10
-33.10646105409802
 20
4.2478813559322077
 10
-33.086598765962421
 20
4.4226694915254274
 10
-33.048198342233597
 20
4.5762711864406782
 10
-33.021715291386158
 20
4.6444650423728833
 10
-32.989935630369203
 20
4.7060381355932206
 10
-32.95285935918276
 20
4.7609904661016946
 10
-32.910486477826822
 20
4.8093220338983036
 10
-32.861161795623431
 20
4.8487155720338979
 10
-32.803230121894607
 20
4.8768538135593218
 10
-32.736691456640393
 20
4.8937367584745761
 10
-32.661545799860733
 20
4.8993644067796609
 10
-32.559586054098013
 20
4.8887711864406791
 10
-32.465571223589542
 20
4.8569915254237301
 10
-32.237816986301397
 20
4.7404661016949214
 10
-31.904130545623438
 20
4.5670021186440719
 10
-31.602223765962439
 20
4.4279661016949214
 10
-31.114935630369189
 20
4.2319915254237301
 10
-30.892478003250559
 20
4.1578389830508469
 10
-30.691206816809881
 20
4.1048728813559308
 10
-30.68591020664039
 20
4.6504237288135641
 10
-30.667372071047179
 20
5.0873940677966099
 10
-30.622350884606501
 20
5.5826271186440692
 10
-30.58825395664039
 20
5.847788665254237
 10
-30.54422588460649
 20
6.1189088983050848
 10
-30.490266668504791
 20
6.3959878177966134
 10
-30.42637630833531
 20
6.6790254237288167
 10
-30.34957546087767
 20
6.9590836864406818
 10
-30.25688478291157
 20
7.2272245762711886
 10
-30.148304274436988
 20
7.4834480932203409
 10
-30.023833935453951
 20
7.7277542372881376
 10
-29.88148753714886
 20
7.9558395127118651
 10
-29.719278850708179
 20
8.1634004237288131
 10
-29.537207876131909
 20
8.3504369703389827
 10
-29.33527461342004
 20
8.5169491525423737
 10
-29.226197547742071
 20
8.5901913400423737
 10
-29.11083075748784
 20
8.6536679025423737
 10
-28.989174242657331
 20
8.7073788400423737
 10
-28.861228003250549
 20
8.7513241525423737
 10
-28.7269920392675
 20
8.7855038400423737
 10
-28.586466350708179
 20
8.8099179025423737
 10
-28.439650937572591
 20
8.8245663400423737
 10
-28.286545799860729
 20
8.8294491525423737
 10
-28.093219528674279
 20
8.8201800847457612
 10
-27.894596647318341
 20
8.7923728813559308
 10
-27.796278321047161
 20
8.7698622881355917
 10
-27.702594528674279
 20
8.7394067796610173
 10
-27.613545270199712
 20
8.7010063559322006
 10
-27.529130545623449
 20
8.6546610169491487
 10
-27.450343469352251
 20
8.6000397245762699
 10
-27.378177155792919
 20
8.5368114406779654
 10
-27.312631604945469
 20
8.4649761652542388
 10
-27.253706816809881
 20
8.3845338983050866
 10
-27.20504421087767
 20
8.2938294491525433
 10
-27.170285206640379
 20
8.1912076271186454
 10
-27.149429804097998
 20
8.076668432203391
 10
-27.142478003250549
 20
7.9502118644067821
 10
-27.14777461342004
 20
7.849576271186443
 10
-27.153071223589539
 20
7.7807203389830519
 10
-27.799257664267511
 20
5.0582627118644083
 10
-27.894596647318341
 20
4.2213983050847466
 10
-27.39340491003021
 20
4.3127648305084749
 10
-27.15621608587767
 20
4.3673861228813564
 10
-26.92796529138614
 20
4.4279661016949143
 10
-26.708652526555628
 20
4.4945047669491514
 10
-26.49827779138614
 20
4.5670021186440666
 10
-26.296841085877659
 20
4.64545815677966
 10
-26.104342410030199
 20
4.7298728813559308
 10
-25.744503956640379
 20
4.9126059322033919
 10
-25.576750381428511
 20
5.0099311440677994
 10
-25.41710724053868
 20
5.1112288135593236
 10
-25.265574533970891
 20
5.2164989406779689
 10
-25.12215226172512
 20
5.3257415254237301
 10
-24.986840423801389
 20
5.4389565677966107
 10
-24.85963902019969
 20
5.556144067796609
 10
-24.74046529138614
 20
5.6768074682203382
 10
-24.629236477826819
 20
5.8004502118644066
 10
-24.525952579521739
 20
5.9270722987288131
 10
-24.430613596470891
 20
6.0566737288135588
 10
-24.343219528674279
 20
6.1892545021186418
 10
-24.263770376131909
 20
6.3248146186440657
 10
-24.192266138843781
 20
6.4633540783898287
 10
-24.128706816809881
 20
6.6048728813559308
 10
-24.024429804098009
 20
6.8928760593220337
 10
-23.949946223589532
 20
7.1848516949152543
 10
-23.92387697041157
 20
7.3323291843220346
 10
-23.905256075284441
 20
7.4807997881355943
 10
-23.890359359182749
 20
7.7807203389830519
 10
-23.904593999013262
 20
8.0789856991525433
 10
-23.947297918504791
 20
8.3805614406779654
 10
-24.018471117657331
 20
8.6854475635593218
 10
-24.118113596470891
 20
8.993644067796609
 10
-24.180266006428521
 20
9.1468319650423737
 10
-24.252846117657331
 20
9.2965439618644066
 10
-24.335853930157331
 20
9.4427800582627128
 10
-24.429289443928511
 20
9.5855402542372889
 10
-24.533152658970881
 20
9.7248245497881385
 10
-24.647443575284441
 20
9.8606329449152561
 10
-24.772162192869189
 20
9.9929654396186471
 10
-24.90730851172512
 20
10.121822033898299
 10
-25.053627367657331
 20
10.246126853813561
 10
-25.211863596470891
 20
10.36480402542373
 10
-25.382017198165801
 20
10.47785354872881
 10
-25.564088172742078
 20
10.58527542372881
 10
-25.758076520199712
 20
10.68706965042373
 10
-25.963982240538691
 20
10.783236228813561
 10
-26.18180533375903
 20
10.873775158898299
 10
-26.411545799860729
 20
10.958686440677971
 10
-26.65485882952175
 20
11.035652807203389
 10
-26.913399613420051
 20
11.10235699152542
 10
-27.187168151555639
 20
11.158798993644069
 10
-27.476164443928521
 20
11.20497881355932
 10
-27.780388490538691
 20
11.24089645127119
 10
-28.09984029138614
 20
11.266551906779659
 10
-28.434519846470881
 20
11.28194518008474
 10
-28.784427155792908
 20
11.287076271186439
 10
-29.048761107064099
 20
11.28070378707627
 10
-29.306805333759019
 20
11.261586334745759
 10
-29.55855983587767
 20
11.22972391419491
 10
-29.80402461342004
 20
11.18511652542373
 10
-30.043199666386151
 20
11.127764168432201
 10
-30.276084994775982
 20
11.057666843220341
 10
-30.502680598589539
 20
10.97482454978813
 10
-30.722986477826819
 20
10.87923728813559
 10
-30.937168151555639
 20
10.77272576800847
 10
-31.145391138843781
 20
10.65711069915254
 10
-31.347655439691241
 20
10.532392081567799
 10
-31.54396105409802
 20
10.398569915254241
 10
-31.73430798206412
 20
10.25564420021187
 10
-31.918696223589539
 20
10.10361493644068
 10
-32.09712577867429
 20
9.9424821239406764
 10
-32.269596647318373
 20
9.7722457627118615
 10
-32.436274348589549
 20
9.5938162076271158
 10
-32.597324401555653
 20
9.40810381355932
 10
-32.752746806216663
 20
9.2151085805084723
 10
-32.902541562572587
 20
9.0148305084745743
 10
-33.046708670623453
 20
8.8072695974576263
 10
-33.185248130369203
 20
8.5924258474576281
 10
-33.318159941809881
 20
8.3702992584745779
 10
-33.445444104945473
 20
8.1408898305084776
 10
-33.683460524437002
 20
7.667174258474577
 10
-33.899628426979383
 20
7.1782309322033893
 10
-34.093947812572587
 20
6.6740598516949126
 10
-34.266418681216663
 20
6.1546610169491487
 10
-34.417372071047183
 20
5.6236758474576254
 10
-34.547139020199708
 20
5.0847457627118642
 10
-34.655719528674283
 20
4.5378707627118642
 10
-34.743113596470891
 20
3.9830508474576258
 10
-34.810314337996317
 20
3.4278998940677949
 10
-34.858314867657342
 20
2.880031779661016
 10
-34.887115185453951
 20
2.3394465042372872
  0
LWPOLYLINE
  5
4A
  8
LAYER_1
 62
256
370
-1
  6
ByLayer
100
AcDbEntity
100
AcDbPolyline
 90
20
 70
1
 10
-27.303262772231282
 20
0.7097457627118615
 10
-27.122569331681479
 20
1.059629658655902
 10
-26.92764275587626
 20
1.400533902378029
 10
-26.718284113925421
 20
1.7323151925529301
 10
-26.49429447493873
 20
2.054830227855291
 10
-26.842293613296071
 20
1.957841231410012
 10
-27.202326446288669
 20
1.871897105326132
 10
-27.574308667209682
 20
1.7967098648989399
 10
-27.958155969352251
 20
1.731991525423723
 10
-28.011122071047168
 20
0.3125
 10
-28.03230851172512
 20
-0.2383474576271141
 10
-28.048198342233601
 20
-0.7415254237288167
 10
-28.058791562572591
 20
-1.138771186440678
 10
-28.064088172742089
 20
-1.371822033898312
 10
-28.082797156837131
 20
-1.7430476656791849
 10
-28.013912231672869
 20
-1.3375433323444119
 10
-27.917669551892288
 20
-0.9269067796610102
 10
-27.79584751799398
 20
-0.5107918432203369
 10
-27.65283904341771
 20
-0.0993114406779654
 10
-27.488644128163479
 20
0.3075344279661016
  0
LWPOLYLINE
  5
4B
  8
LAYER_1
 62
256
370
-1
  6
ByLayer
100
AcDbEntity
100
AcDbPolyline
 90
1308
 70
1
 10
-28.540783087996321
 20
13.77648305084746
 10
-28.10273687507258
 20
13.768951933262709
 10
-27.678428744775971
 20
13.746358580508479
 10
-27.26785869710648
 20
13.708702992584749
 10
-26.871026732064099
 20
13.65598516949153
 10
-26.48793284964885
 20
13.58820511122881
 10
-26.118577049860711
 20
13.505362817796611
 10
-25.762959332699701
 20
13.407458289194921
 10
-25.421079698165808
 20
13.29449152542373
 10
-25.093103665326819
 20
13.1690280720339
 10
-24.779196753250549
 20
13.03363347457627
 10
-24.479358961936981
 20
12.88830773305085
 10
-24.19359029138614
 20
12.73305084745763
 10
-23.921890741598009
 20
12.567862817796611
 10
-23.66426031257258
 20
12.392743644067799
 10
-23.420699004309871
 20
12.20769332627119
 10
-23.191206816809881
 20
12.01271186440678
 10
-22.975618231004791
 20
11.80904065148305
 10
-22.773767727826829
 20
11.597921080508479
 10
-22.585655307275982
 20
11.37935315148305
 10
-22.411280969352251
 20
11.15333686440678
 10
-22.250644714055639
 20
10.919872219279659
 10
-22.103746541386151
 20
10.67895921610169
 10
-21.970586451343781
 20
10.430597854872881
 10
-21.851164443928521
 20
10.17478813559322
 10
-21.745646038208179
 20
9.9140956038135588
 10
-21.654196753250559
 20
9.6510858050847474
 10
-21.576816589055639
 20
9.3857587394067821
 10
-21.513505545623438
 20
9.1181144067796627
 10
-21.46426362295394
 20
8.848152807203391
 10
-21.429090821047161
 20
8.5758739406779689
 10
-21.407987139903099
 20
8.301277807203391
 10
-21.400952579521739
 20
8.0243644067796609
 10
-21.407242304098009
 20
7.7651615466101678
 10
-21.426111477826829
 20
7.5066207627118624
 10
-21.457560100708179
 20
7.248742055084743
 10
-21.501588172742078
 20
6.9915254237288114
 10
-21.558195693928521
 20
6.7349708686440648
 10
-21.6273826642675
 20
6.479078389830506
 10
-21.70914908375903
 20
6.2238479872881332
 10
-21.803494952403099
 20
5.9692796610169481
 10
-21.959603945500199
 20
5.612648445399298
 10
-22.1417657482849
 20
5.2662648792429287
 10
-22.350238430118679
 20
4.9303267131807598
 10
-22.585280060363001
 20
4.6050316978457104
 10
-22.43038141629907
 20
4.6133474576271212
 10
-22.315180145112631
 20
4.6073887711864439
 10
-22.213220399349922
 20
4.5895127118644092
 10
-22.124502179010939
 20
4.5597192796610182
 10
-22.04902548409569
 20
4.5180084745762699
 10
-21.923230992570261
 20
4.4160487288135606
 10
-21.821271246807559
 20
4.3008474576271212
 10
-21.646483111214341
 20
4.0625
 10
-21.601461924773648
 20
4.0082097457627111
 10
-21.551144128163479
 20
3.9618644067796609
 10
-21.495529721383821
 20
3.9234639830508482
 10
-21.434618704434659
 20
3.8930084745762699
 10
-21.306175907824489
 20
3.8493114406779658
 10
-21.175084806129579
 20
3.8241525423728859
 10
-21.041345399349911
 20
3.812235169491526
 10
-20.90495768748551
 20
3.8082627118644079
 10
-20.666610229858382
 20
3.8135593220338961
 10
-20.428262772231282
 20
3.818855932203391
 10
-20.274661077316019
 20
3.810911016949154
 10
-20.131652602739731
 20
3.787076271186443
 10
-20.064782899349911
 20
3.76655190677966
 10
-20.001885653587191
 20
3.7367584745762699
 10
-19.9429608654516
 20
3.6976959745762712
 10
-19.88800853494314
 20
3.6493644067796609
 10
-19.838021776468558
 20
3.5911016949152539
 10
-19.793993704434659
 20
3.5222457627118642
 10
-19.75592431884143
 20
3.4427966101694918
 10
-19.72381361968888
 20
3.352754237288138
 10
-19.698323683248219
 20
3.248808262711866
 10
-19.680116585790589
 20
3.127648305084747
 10
-19.669192327316019
 20
2.9892743644067798
 10
-19.6655509078245
 20
2.8336864406779649
 10
-19.672171670536361
 20
2.572497351694913
 10
-19.692033958671949
 20
2.2974046610169481
 10
-19.725137772231271
 20
2.0084083686440688
 10
-19.771483111214309
 20
1.705508474576277
 10
-19.882711924773641
 20
1.077860169491526
 10
-20.004533958671939
 20
0.4343220338983116
 10
-20.12635599257025
 20
-0.217161016949154
 10
-20.237584806129579
 20
-0.868644067796609
 10
-20.283930145112631
 20
-1.1900820974576301
 10
-20.31703395867196
 20
-1.502913135593225
 10
-20.336896246807552
 20
-1.807137182203395
 10
-20.34351700951942
 20
-2.102754237288138
 10
-20.33788936121433
 20
-2.3381223516949161
 10
-20.321006416299081
 20
-2.5463453389830519
 10
-20.292868174773659
 20
-2.7274231991525451
 10
-20.25347463663806
 20
-2.881355932203391
 10
-20.22773642159569
 20
-2.9471497616525419
 10
-20.19554296290924
 20
-3.0041710805084731
 10
-20.156894260578731
 20
-3.0524198887711842
 10
-20.11179031460415
 20
-3.0918961864406751
 10
-20.06023112498551
 20
-3.122599973516945
 10
-20.00221669172279
 20
-3.144531249999996
 10
-19.937747014816011
 20
-3.157690015889826
 10
-19.86682209426516
 20
-3.1620762711864359
 10
-19.754269128163479
 20
-3.1551244703389791
 10
-19.639067856977039
 20
-3.1342690677966072
 10
-19.52121828070586
 20
-3.0995100635593191
 10
-19.400720399349922
 20
-3.0508474576271141
 10
-19.155752179010928
 20
-2.9224046610169481
 10
-18.908135653587209
 20
-2.759533898305079
 10
-18.659194975621091
 20
-2.5675317796610142
 10
-18.410254297655001
 20
-2.3516949152542419
 10
-18.167934382400759
 20
-2.119968220338984
 10
-17.93885599257024
 20
-1.8802966101694949
 10
-17.67866001799398
 20
-1.58501059322034
 10
-17.41713989087534
 20
-1.2711864406779649
 10
-17.15429561121433
 20
-0.9388241525423724
 10
-16.890127179010928
 20
-0.5879237288135641
 10
-16.820768374324729
 20
-0.9087082004872684
 10
-16.760282233902711
 20
-0.5127536316553689
 10
-16.692389735631728
 20
-0.122523666664847
 10
-16.617308037539821
 20
0.2620135391633989
 10
-16.535254297655001
 20
0.6408898305084705
 10
-16.436604933248219
 20
1.043432203389828
 10
-16.326038195960081
 20
1.435381355932202
 10
-16.203554085790589
 20
1.8167372881355941
 10
-16.069152602739731
 20
2.1875
 10
-15.918861289180411
 20
2.5410487288135579
 10
-15.748707687485499
 20
2.8707627118644048
 10
-15.558691797654991
 20
3.1766419491525411
 10
-15.45623549468889
 20
3.3206435381355921
 10
-15.34881361968888
 20
3.4586864406779649
 10
-15.2361778940533
 20
3.5902740995762712
 10
-15.11808003918042
 20
3.714909957627119
 10
-14.99452005507025
 20
3.8325940148305091
 10
-14.86549794172279
 20
3.9433262711864399
 10
-14.73101369913805
 20
4.0471067266949152
 10
-14.59106732731601
 20
4.1439353813559316
 10
-14.44565882625669
 20
4.2338122351694896
 10
-14.294788195960081
 20
4.3167372881355917
 10
-14.13721404341771
 20
4.3912208686440666
 10
-13.9716949756211
 20
4.4557733050847448
 10
-13.79823099257025
 20
4.5103945974576263
 10
-13.616822094265171
 20
4.5550847457627119
 10
-13.427468280705851
 20
4.5898437500000009
 10
-13.23016955189229
 20
4.6146716101694922
 10
-13.024925907824491
 20
4.6295683262711878
 10
-12.811737348502451
 20
4.6345338983050874
 10
-12.493940738332951
 20
4.6236096398305104
 10
-12.18673734850244
 20
4.5908368644067803
 10
-11.89012717901092
 20
4.536215572033897
 10
-11.60411022985838
 20
4.4597457627118624
 10
-11.46590180824821
 20
4.4126555879237266
 10
-11.331996882400761
 20
4.3587791313559316
 10
-11.20239545231601
 20
4.298116393008474
 10
-11.07709751799397
 20
4.2306673728813564
 10
-10.95610307943465
 20
4.1564320709745761
 10
-10.839412136638041
 20
4.0754104872881349
 10
-10.727024689604139
 20
3.9876026218220328
 10
-10.618940738332951
 20
3.8930084745762699
 10
-10.51582235909566
 20
3.791462526483051
 10
-10.418331628163459
 20
3.6827992584745779
 10
-10.32646854553634
 20
3.56701867055085
 10
-10.240233111214311
 20
3.4441207627118668
 10
-10.159625325197361
 20
3.3141055349576298
 10
-10.084645187485499
 20
3.176972987288138
 10
-10.015292698078721
 20
3.032723119703391
 10
-9.9515678569770216
 20
2.881355932203391
 10
-9.8944637785871929
 20
2.7220438294491518
 10
-9.8449735773160079
 20
2.5539592161016929
 10
-9.8030972531634681
 20
2.3771020921610151
 10
-9.768834806129572
 20
2.1914724576271181
 10
-9.742186236214323
 20
1.9970703125
 10
-9.723151543417714
 20
1.7938956567796609
 10
-9.7117307277397487
 20
1.5819484904661021
 10
-9.7079237891804269
 20
1.361228813559322
 10
-9.7211653146041535
 20
1.004038665254237
 10
-9.7608898908753332
 20
0.6528072033898305
 10
-9.8270975179939732
 20
0.3075344279661008
 10
-9.9197881959600807
 20
-0.0317796610169552
 10
-9.9764784766804144
 20
-0.1990366790254287
 10
-10.0406171154516
 20
-0.36447298728814
 10
-10.112204112273631
 20
-0.5280885858050889
 10
-10.191239467146509
 20
-0.6898834745762752
 10
-10.371655251044819
 20
-1.0080111228813591
 10
-10.58186446714652
 20
-1.318855932203391
 10
-10.69822437180753
 20
-1.47121623411017
 10
-10.822198153587189
 20
-1.62109375
 10
-11.09298734850244
 20
-1.9134004237288129
 10
-11.394232051892271
 20
-2.1957759533898291
 10
-11.725932263756681
 20
-2.4682203389830448
 10
-11.90345146396854
 20
-2.6002217955508429
 10
-12.08908109850244
 20
-2.7287473516949108
 10
-12.484671670536351
 20
-2.9753707627118602
 10
-12.91270397985839
 20
-3.208090572033893
 10
-13.373178026468571
 20
-3.4269067796610102
 10
-13.30961870443466
 20
-3.6493644067796538
 10
-12.786578450197361
 20
-3.6361228813559259
 10
-12.287372941722779
 20
-3.5963983050847421
 10
-11.812002179010911
 20
-3.5301906779660999
 10
-11.583254827316001
 20
-3.4871557203389831
 10
-11.36046616206175
 20
-3.4375
 10
-10.931109700197361
 20
-3.3222987288135579
 10
-10.52227760273974
 20
-3.1885593220338961
 10
-10.13396986968889
 20
-3.036281779661016
 10
-9.7661865010448139
 20
-2.865466101694921
 10
-9.5089399051030661
 20
-2.7290891603120069
 10
-9.2620078162106836
 20
-2.5827803208092921
 10
-9.2630085349431397
 20
-2.5582627118644008
 10
-9.2491049332482227
 20
-2.1583686440677932
 10
-9.2073941281634717
 20
-1.753177966101692
 10
-9.1378761196888938
 20
-1.3426906779660981
 10
-9.0405509078244961
 20
-0.9269067796610102
 10
-8.9187288739261845
 20
-0.5107918432203369
 10
-8.7757203993499111
 20
-0.0993114406779654
 10
-8.6115254840956688
 20
0.3075344279661016
 10
-8.4261441281634575
 20
0.7097457627118615
 10
-8.2212315222312604
 20
1.104012182203391
 10
-7.9984428569770216
 20
1.487023305084747
 10
-7.7577781324007491
 20
1.858779131355935
 10
-7.4992373485024473
 20
2.2192796610169552
 10
-7.2254688103668592
 20
2.5628972457627142
 10
-6.9391208230787242
 20
2.8840042372881358
 10
-6.6401933866380416
 20
3.1826006355932202
 10
-6.3286865010448139
 20
3.4586864406779649
 10
-6.0065863951126204
 20
3.7099443855932202
 10
-5.6758792976549977
 20
3.93405720338983
 10
-5.3365652086719439
 20
4.1310248940677976
 10
-4.9886441281634566
 20
4.3008474576271212
 10
-4.8121180423583754
 20
4.3740896451271221
 10
-4.6347643612143106
 20
4.4375662076271221
 10
-4.456583084731264
 20
4.4912771451271221
 10
-4.2775742129092329
 20
4.5352224576271221
 10
-4.09773774574822
 20
4.5694021451271221
 10
-3.9170736832482231
 20
4.5938162076271221
 10
-3.7355820254092431
 20
4.6084646451271221
 10
-3.5532627722312782
 20
4.6133474576271212
 10
-3.4380615010448219
 20
4.6073887711864439
 10
-3.3361017552821051
 20
4.5895127118644092
 10
-3.2473835349431219
 20
4.5597192796610182
 10
-3.1719068400278729
 20
4.5180084745762699
 10
-3.0461123485024508
 20
4.4160487288135606
 10
-2.944152602739734
 20
4.3008474576271212
 10
-2.769364467146517
 20
4.0625
 10
-2.7243432807058321
 20
4.0082097457627111
 10
-2.6740254840956652
 20
3.9618644067796609
 10
-2.618411077316011
 20
3.9234639830508482
 10
-2.5575000603668632
 20
3.8930084745762699
 10
-2.4290572637566861
 20
3.8493114406779658
 10
-2.2979661620617549
 20
3.8241525423728859
 10
-2.1642267552821082
 20
3.812235169491526
 10
-2.0278390434176861
 20
3.8082627118644079
 10
-1.789491585790586
 20
3.8135593220338961
 10
-1.551144128163457
 20
3.818855932203391
 10
-1.397542433248212
 20
3.810911016949154
 10
-1.254533958671942
 20
3.787076271186443
 10
-1.1876642552821139
 20
3.76655190677966
 10
-1.1247670095193989
 20
3.7367584745762699
 10
-1.0658422213837999
 20
3.6976959745762712
 10
-1.010889890875319
 20
3.6493644067796609
 10
-0.9609031324007513
 20
3.5911016949152539
 10
-0.9168750603668521
 20
3.5222457627118642
 10
-0.8788056747736293
 20
3.4427966101694918
 10
-0.8466949756210909
 20
3.352754237288138
 10
-0.8212050391804051
 20
3.248808262711866
 10
-0.8029979417227757
 20
3.127648305084747
 10
-0.7920736832482
 20
2.9892743644067798
 10
-0.7884322637566754
 20
2.8336864406779649
 10
-0.7934502357023345
 20
2.6086881340887911
 10
-0.8087793443273093
 20
2.3733590899847141
 10
-0.8348323788135956
 20
2.1277618357230161
 10
-0.8720221283431897
 20
1.8719588986609781
 10
-0.7811170055551959
 20
1.8951174558151069
 10
-0.6811722901252928
 20
1.910856441332365
 10
-0.4548122338518681
 20
1.9226694915254261
 10
4.2909504780125189
 20
1.9226694915254261
 10
4.4392555627582908
 20
1.9147245762711851
 10
4.6087470881820138
 20
1.89088983050847
 10
4.7478349051384754
 20
1.855593802841994
 10
4.8753568846687187
 20
1.7989106944003479
 10
5.6137332249825818
 20
3.9194915254237301
 10
6.1102904283724122
 20
5.3509004237288167
 10
6.6465722080334331
 20
6.9226694915254257
 10
7.2252268690503918
 20
8.6573093220338961
 10
7.8489027165080074
 20
10.577330508474571
 10
6.7101315300673434
 20
10.48199152542373
 10
6.1407459368469972
 20
10.41975635593221
 10
5.5872501741351357
 20
10.33898305084746
 10
5.3191092843046208
 20
10.290982521186439
 10
5.0602374622707202
 20
10.237023305084749
 10
4.8106347080334286
 20
10.177105402542381
 10
4.5703010215927407
 20
10.11122881355932
 10
4.3418847080334224
 20
10.03773834745763
 10
4.1280340724402036
 20
9.9549788135593236
 10
3.9287491148130882
 20
9.8629502118644083
 10
3.7440298351520771
 20
9.7616525423728788
 10
3.5758624622707109
 20
9.6504237288135606
 10
3.4262332249825711
 20
9.5286016949152561
 10
3.295142123287655
 20
9.3961864406779689
 10
3.182589157185959
 20
9.2531779661016955
 10
3.0922157461690101
 20
9.0982521186440657
 10
3.0276633097283359
 20
8.9300847457627111
 10
2.9889318478639328
 20
8.7486758474576263
 10
2.9760213605758001
 20
8.5540254237288167
 10
2.9495383097283541
 20
8.3209745762711833
 10
2.9280208309147899
 20
8.2127251059322006
 10
2.889951445321564
 20
8.0998411016949134
 10
2.8353301529486812
 20
7.9823225635593218
 10
2.7641569537961459
 20
7.8601694915254257
 10
2.6731214665080039
 20
7.7383474576271194
 10
2.558913309728339
 20
7.6218220338983036
 10
2.421532483457153
 20
7.51059322033898
 10
2.2609789876944428
 20
7.4046610169491487
 10
2.170357298075801
 20
7.3562466896186418
 10
2.0706320597283421
 20
7.3142876059322024
 10
1.96180327265207
 20
7.2787837658898296
 10
1.843870936846983
 20
7.2497351694915251
 10
1.7168350523130831
 20
7.2271418167372889
 10
1.5806956190503709
 20
7.2110037076271194
 10
1.281106106338513
 20
7.1980932203389827
 10
0.9811855554910616
 20
7.2113347457627119
 10
0.844632324558859
 20
7.2278866525423728
 10
0.7170171232876719
 20
7.2510593220338979
 10
0.5983399516775008
 20
7.2808527542372881
 10
0.4886008097283461
 20
7.3172669491525424
 10
0.387799697440208
 20
7.3603019067796609
 10
0.2959366148130869
 20
7.4099576271186436
 10
0.1330658521012196
 20
7.5185381355932197
 10
-0.005970164847934
 20
7.6324152542372889
 10
-0.1211714360343765
 20
7.7515889830508478
 10
-0.2125379614581107
 20
7.8760593220338961
 10
-0.2972837241699695
 20
8.0296610169491505
 10
-0.3608430462038612
 20
8.1938559322033893
 10
-0.4032159275597911
 20
8.3686440677966107
 10
-0.4244023682377644
 20
8.5540254237288167
 10
-0.4186919603987817
 20
8.7729243908898322
 10
-0.4015607368818332
 20
8.9847060381355934
 10
-0.3730086976869187
 20
9.1893703654661003
 10
-0.3330358428140379
 20
9.3869173728813529
 10
-0.2816421722631903
 20
9.5773470603813529
 10
-0.2188276860343756
 20
9.7606594279661003
 10
-0.1445923841275936
 20
9.9368544756355952
 10
-0.0589362665428439
 20
10.10593220338983
 10
0.0370647927791943
 20
10.268389168432201
 10
0.1423349198978414
 20
10.4247219279661
 10
0.2568741148130975
 20
10.57493048199153
 10
0.3806823775249626
 20
10.719014830508479
 10
0.5137597080334366
 20
10.85697497351695
 10
0.6561061063385196
 20
10.98881091101695
 10
0.8077215724402116
 20
11.114522643008479
 10
0.9686061063385125
 20
11.23411016949153
 10
1.1382631508300349
 20
11.34807004766949
 10
1.31619614871139
 20
11.456898834745759
 10
1.5024050999825771
 20
11.560596530720341
 10
1.696890004643596
 20
11.65916313559322
 10
1.8996508626944439
 20
11.752598649364399
 10
2.110687674135121
 20
11.8409030720339
 10
2.330000438965627
 20
11.92407640360169
 10
2.557589157185959
 20
12.00211864406779
 10
3.032628881762232
 20
12.14479608050847
 10
3.5308412758300309
 20
12.27092161016949
 10
4.0522263393893594
 20
12.380495233050841
 10
4.5967840724402151
 20
12.47351694915254
 10
5.162859284304619
 20
12.55164194915254
 10
5.7487967843046226
 20
12.61652542372881
 10
6.3545965724402231
 20
12.66816737288136
 10
6.9802586487114127
 20
12.70656779661017
 10
7.6211484792198876
 20
12.734375
 10
8.272631530067347
 20
12.754237288135601
 10
8.9347078012537864
 20
12.76615466101695
 10
9.6073772927792049
 20
12.770127118644069
 10
10.539911720745319
 20
12.76085805084746
 10
11.49429466566057
 20
12.73305084745763
 10
12.47052612752498
 20
12.68670550847458
 10
13.468606106338539
 20
12.621822033898299
 10
14.488534602101261
 20
12.53244173728814
 10
15.530311614813129
 20
12.412605932203389
 10
16.59393714447415
 20
12.262314618644069
 10
17.679411191084309
 20
12.08156779661017
 10
17.801812541719901
 20
12.052436440677971
 10
17.914779305491091
 20
12.01800847457627
 10
18.01831148239787
 20
11.97828389830509
 10
18.11240907244024
 20
11.93326271186441
 10
18.197072075618209
 20
11.882944915254241
 10
18.27230049193177
 20
11.82733050847458
 10
18.338094321380922
 20
11.766419491525429
 10
18.394453563965669
 20
11.70021186440678
 10
18.484826974982621
 20
11.558527542372881
 10
18.549379411423288
 20
11.408898305084749
 10
18.58811087328769
 20
11.25132415254237
 10
18.601021360575832
 20
11.085805084745759
 10
18.59506267413515
 20
10.980534957627119
 10
18.577186614813119
 20
10.87658898305085
 10
18.547393182609731
 20
10.77396716101695
 10
18.50568237752498
 20
10.672669491525429
 10
18.454040428372441
 20
10.57402012711864
 10
18.394453563965669
 20
10.479343220338979
 10
18.326921784304648
 20
10.388638771186439
 10
18.251445089389389
 20
10.301906779661021
 10
18.168685555491091
 20
10.22146451271187
 10
18.079305258880929
 20
10.14962923728814
 10
17.98330419955888
 20
10.08640095338983
 10
17.88068237752498
 20
10.03177966101695
 10
17.77342602159278
 20
9.9877515889830484
 10
17.663521360575839
 20
9.956302966101692
 10
17.55096839447415
 20
9.9374337923728806
 10
17.435767123287722
 20
9.931144067796609
 10
17.02362464447415
 20
9.9364406779661003
 10
16.602875174135171
 20
9.9523305084745761
 10
16.173518712270759
 20
9.9788135593220346
 10
15.73555525888094
 20
10.015889830508479
 10
13.89233491989788
 20
10.20656779661017
 10
11.916699326677531
 20
10.41843220338983
 10
10.883860343626671
 20
10.511122881355931
 10
9.8192416995588587
 20
10.577330508474571
 10
9.7172819537961495
 20
9.9728548728813564
 10
9.60208068260971
 20
9.3458686440677994
 10
9.4736378859995405
 20
8.6963718220338997
 10
9.3319535639656408
 20
8.0243644067796609
 10
9.0207777165080145
 20
6.6432733050847483
 10
8.6804705131181947
 20
5.2330508474576263
 10
8.4970832655141635
 20
4.514226380571813
 10
8.6089525723710025
 20
4.5592651555397001
 10
8.7259284838352542
 20
4.5925294875078677
 10
8.8479872502340733
 20
4.6140708403565807
 10
8.9751051218946145
 20
4.6239406779661039
 10
9.2359631727420677
 20
4.6070577330508478
 10
9.4570966473183411
 20
4.5775953389830519
 10
9.6385055456234277
 20
4.5355534957627146
 10
9.7801898676573273
 20
4.480932203389834
 10
9.8867841473183447
 20
4.4163797669491531
 10
9.9629229185047912
 20
4.3445444915254248
 10
9.9895714884200473
 20
4.305895789194917
 10
10.00860618121666
 20
4.2654263771186471
 10
10.02002699689463
 20
4.2231362552966134
 10
10.023833935453951
 20
4.1790254237288167
 10
9.8172661388437632
 20
2.9290254237288171
 10
9.5895119015556247
 20
1.5413135593220351
 10
9.3670542744369811
 20
0.1800847457627128
 10
9.1763763083353069
 20
-1.0010593220338959
 10
9.0439610540979913
 20
-1.8379237288135639
 10
8.9962915625725657
 20
-2.1663135593220351
 10
9.0055606303691889
 20
-2.3530190677966112
 10
9.03336783375903
 20
-2.5317796610169552
 10
9.0797131727420748
 20
-2.6972987288135588
 10
9.1445966473183375
 20
-2.8442796610169552
 10
9.1843212235895209
 20
-2.9098252118644088
 10
9.2293424100302026
 20
-2.9687500000000022
 10
9.2796602066403757
 20
-3.0210540254237319
 10
9.3352746134200402
 20
-3.0667372881355992
 10
9.3961856303691924
 20
-3.1038135593220342
 10
9.462393257487836
 20
-3.1302966101694909
 10
9.5338974947759709
 20
-3.146186440677968
 10
9.6106983422336043
 20
-3.1514830508474598
 10
9.7278858422336043
 20
-3.1438691737288149
 10
9.8463974947759745
 20
-3.121027542372881
 10
9.9662332998607148
 20
-3.0829581567796578
 10
10.087393257487831
 20
-3.0296610169491491
 10
10.20756010070817
 20
-2.9621292372881309
 10
10.32441656257258
 20
-2.8813559322033861
 10
10.437962643081059
 20
-2.787341101694913
 10
10.548198342233601
 20
-2.6800847457627128
 10
10.65379950748784
 20
-2.5595868644067781
 10
10.753441986301389
 20
-2.4258474576271158
 10
10.84712577867427
 20
-2.278866525423727
 10
10.93485088460648
 20
-2.118644067796609
 10
11.01430003714885
 20
-1.9461731991525411
 10
11.083155969352241
 20
-1.762447033898304
 10
11.14141868121666
 20
-1.5674655720338979
 10
11.189088172742091
 20
-1.361228813559322
 10
12.2378169863014
 20
4.0201271186440692
 10
12.256106843292921
 20
4.0824450476694913
 10
12.28449336342004
 20
4.1422801906779654
 10
12.32297654668276
 20
4.1996325476694913
 10
12.371556393081059
 20
4.2545021186440666
 10
12.43023290261497
 20
4.3068889036016964
 10
12.499006075284459
 20
4.3567929025423764
 10
12.666842410030229
 20
4.4491525423728859
 10
12.86116179562344
 20
4.5256223516949179
 10
13.0680606303692
 20
4.5802436440677976
 10
13.287538914267509
 20
4.6130164194915269
 10
13.51959664731837
 20
4.6239406779661039
 10
13.7758201642675
 20
4.6120233050847483
 10
14.00423647782682
 20
4.5762711864406809
 10
14.1080169333353
 20
4.5494570974576289
 10
14.20484558799631
 20
4.5166843220339006
 10
14.294722441809871
 20
4.4779528601694931
 10
14.377647494775969
 20
4.4332627118644083
 10
14.45213107528445
 20
4.3839380296610173
 10
14.516683511725139
 20
4.3313029661016946
 10
14.57130480409803
 20
4.2753575211864403
 10
14.61599495240311
 20
4.2161016949152534
 10
14.650753956640409
 20
4.153535487288134
 10
14.675581816809901
 20
4.087658898305083
 10
14.6904785329116
 20
4.0184719279660994
 10
14.695444104945491
 20
3.9459745762711829
 10
14.67955427443701
 20
3.608315677966103
 10
14.63188478291158
 20
3.1673728813559312
 10
14.559056393081081
 20
2.65095338983051
 10
14.467689867657329
 20
2.086864406779668
 10
14.25052885070818
 20
0.8739406779661039
 10
14.03336783375903
 20
-0.2913135593220346
 10
13.8691729185048
 20
-1.23940677966101
 10
13.821503426979371
 20
-1.5850105932203391
 10
13.80561359647089
 20
-1.806144067796609
 10
13.816206816809879
 20
-2.3516949152542419
 10
13.83739325748785
 20
-2.5847457627118651
 10
13.87976613884376
 20
-2.7860169491525402
 10
13.909890609182749
 20
-2.87341101694915
 10
13.947297918504789
 20
-2.9502118644067772
 10
13.991988066809879
 20
-3.0164194915254199
 10
14.04396105409802
 20
-3.072033898305079
 10
14.105865185453951
 20
-3.1160619703389831
 10
14.180348765962419
 20
-3.1475105932203409
 10
14.26741179562344
 20
-3.1663797669491549
 10
14.36705427443701
 20
-3.1726694915254261
 10
14.4898694227421
 20
-3.1653866525423751
 10
14.625264020199721
 20
-3.143538135593221
 10
14.773238066809879
 20
-3.1071239406779658
 10
14.933791562572591
 20
-3.056144067796609
 10
15.278071223589549
 20
-2.9197563559322042
 10
15.643537325284459
 20
-2.743644067796609
 10
15.964758068228329
 20
-2.5679576565812572
 10
16.290902458474559
 20
-2.3720206728314679
 10
16.31124329757883
 20
-2.0169013038354082
 10
16.354235290610941
 20
-1.657682848831008
 10
16.41955644868413
 20
-1.294354832534224
 10
16.50688478291158
 20
-0.9269067796610102
 10
16.628706816809888
 20
-0.5107918432203369
 10
16.771715291386169
 20
-0.0993114406779654
 10
16.935910206640401
 20
0.3075344279661016
 10
17.121291562572591
 20
0.7097457627118615
 10
17.326204168504809
 20
1.104012182203391
 10
17.548992833759041
 20
1.487023305084747
 10
17.789657558335321
 20
1.858779131355935
 10
18.048198342233629
 20
2.2192796610169552
 10
18.321966880369221
 20
2.5628972457627142
 10
18.608314867657349
 20
2.8840042372881358
 10
18.90724230409802
 20
3.1826006355932202
 10
19.218749189691241
 20
3.4586864406779649
 10
19.540849295623449
 20
3.7099443855932202
 10
19.871556393081079
 20
3.93405720338983
 10
20.21087048206412
 20
4.1310248940677976
 10
20.558791562572591
 20
4.3008474576271212
 10
20.735317648377681
 20
4.3740896451271221
 10
20.91267132952175
 20
4.4375662076271221
 10
21.090852606004798
 20
4.4912771451271221
 10
21.269861477826829
 20
4.5352224576271221
 10
21.44969794498785
 20
4.5694021451271221
 10
21.63036200748785
 20
4.5938162076271221
 10
21.81185366532684
 20
4.6084646451271221
 10
21.994172918504798
 20
4.6133474576271212
 10
22.109374189691241
 20
4.6073887711864439
 10
22.211333935453951
 20
4.5895127118644092
 10
22.30005215579294
 20
4.5597192796610182
 10
22.375528850708211
 20
4.5180084745762699
 10
22.501323342233629
 20
4.4160487288135606
 10
22.603283087996349
 20
4.3008474576271212
 10
22.77807122358956
 20
4.0625
 10
22.823092410030242
 20
4.0082097457627111
 10
22.873410206640401
 20
3.9618644067796609
 10
22.929024613420069
 20
3.9234639830508482
 10
22.989935630369221
 20
3.8930084745762699
 10
23.11837842697938
 20
3.8493114406779658
 10
23.2494695286743
 20
3.8241525423728859
 10
23.383208935453961
 20
3.812235169491526
 10
23.51959664731837
 20
3.8082627118644079
 10
23.757944104945491
 20
3.8135593220338961
 10
23.996291562572619
 20
3.818855932203391
 10
24.149893257487872
 20
3.810911016949154
 10
24.292901732064141
 20
3.787076271186443
 10
24.359771435453961
 20
3.76655190677966
 10
24.422668681216681
 20
3.7367584745762699
 10
24.481593469352269
 20
3.6976959745762712
 10
24.536545799860729
 20
3.6493644067796609
 10
24.58653255833531
 20
3.5911016949152539
 10
24.63056063036921
 20
3.5222457627118642
 10
24.668630015962439
 20
3.4427966101694918
 10
24.700740715114989
 20
3.352754237288138
 10
24.72623065155566
 20
3.248808262711866
 10
24.74443774901329
 20
3.127648305084747
 10
24.755362007487879
 20
2.9892743644067798
 10
24.759003426979401
 20
2.8336864406779649
 10
24.75238266426754
 20
2.572497351694913
 10
24.732520376131941
 20
2.2974046610169481
 10
24.699416562572619
 20
2.0084083686440688
 10
24.65307122358956
 20
1.705508474576277
 10
24.541842410030231
 20
1.077860169491526
 10
24.42002037613193
 20
0.4343220338983116
 10
24.298198342233629
 20
-0.217161016949154
 10
24.1869695286743
 20
-0.868644067796609
 10
24.140624189691259
 20
-1.1900820974576301
 10
24.107520376131941
 20
-1.502913135593225
 10
24.087658087996349
 20
-1.807137182203395
 10
24.08103732528448
 20
-2.102754237288138
 10
24.086664973589571
 20
-2.3381223516949161
 10
24.10354791850482
 20
-2.5463453389830519
 10
24.131686160030249
 20
-2.7274231991525451
 10
24.17107969816584
 20
-2.881355932203391
 10
24.196817913208211
 20
-2.9471497616525419
 10
24.22901137189465
 20
-3.0041710805084731
 10
24.267660074225159
 20
-3.0524198887711842
 10
24.312764020199729
 20
-3.0918961864406751
 10
24.36432320981838
 20
-3.122599973516945
 10
24.422337643081089
 20
-3.144531249999996
 10
24.486807319987861
 20
-3.157690015889826
 10
24.557732240538709
 20
-3.1620762711864359
 10
24.670285206640411
 20
-3.1551244703389791
 10
24.785486477826861
 20
-3.1342690677966072
 10
24.903336054098041
 20
-3.0995100635593191
 10
25.023833935453979
 20
-3.0508474576271141
 10
25.268802155792962
 20
-2.9224046610169481
 10
25.516418681216692
 20
-2.759533898305079
 10
25.765359359182781
 20
-2.5675317796610142
 10
26.014300037148871
 20
-2.3516949152542419
 10
26.256619952403121
 20
-2.119968220338984
 10
26.485698342233629
 20
-1.8802966101694949
 10
26.910815049311481
 20
-1.383967459774041
 10
26.9921288059201
 20
-0.6178590126121524
 10
27.08951190155565
 20
0.1588983050847474
 10
27.224575460877691
 20
1.089777542372881
 10
27.375528850708211
 20
1.986228813559322
 10
27.531778850708189
 20
2.8019067796610169
 10
27.682732240538709
 20
3.490466101694921
 10
27.71525673736075
 20
3.6098053495762761
 10
27.754567515962439
 20
3.7241790254237319
 10
27.800664576343799
 20
3.8335871292372898
 10
27.85354791850482
 20
3.9380296610169498
 10
27.913217542445491
 20
4.0375066207627111
 10
27.97967344816583
 20
4.1320180084745743
 10
28.05291563566583
 20
4.2215638241525406
 10
28.132944104945491
 20
4.306144067796609
 10
28.220089894140411
 20
4.3831104343220337
 10
28.314684041386169
 20
4.4498146186440684
 10
28.416726546682781
 20
4.5062566207627128
 10
28.526217410030231
 20
4.5524364406779672
 10
28.643156631428539
 20
4.5883540783898322
 10
28.767544210877681
 20
4.6140095338983071
 10
28.899380148377681
 20
4.6294028072033919
 10
29.038664443928521
 20
4.6345338983050874
 10
29.176210789267511
 20
4.6290717690677976
 10
29.302832876131919
 20
4.6126853813559334
 10
29.41853070452175
 20
4.5853747351694913
 10
29.52330427443701
 20
4.5471398305084749
 10
29.617153585877691
 20
4.4979806673728806
 10
29.700078638843799
 20
4.4378972457627119
 10
29.772079433335321
 20
4.3668895656779654
 10
29.83315596935228
 20
4.2849576271186436
 10
29.8852944757082
 20
4.1939221398305087
 10
29.93048118121667
 20
4.0956038135593218
 10
29.968716085877691
 20
3.9900026483050852
 10
29.999999189691248
 20
3.8771186440677972
 10
30.024330492657359
 20
3.7569518008474581
 10
30.041709994775999
 20
3.6295021186440679
 10
30.05561359647092
 20
3.352754237288138
 10
30.047668681216681
 20
3.1660487288135601
 10
30.023833935453951
 20
2.9237288135593218
 10
29.94438478291158
 20
2.330508474576277
 10
29.843749189691241
 20
1.663135593220346
 10
29.74311359647092
 20
1.027542372881356
 10
29.663664443928521
 20
0.5190677966101731
 10
29.639829698165819
 20
0.3376588983050866
 10
29.63188478291158
 20
0.2277542372881385
 10
29.843749189691241
 20
0.2277542372881385
 10
30.04502037613193
 20
0.6038135593220346
 10
30.362816986301429
 20
1.2023305084745739
 10
30.7494695286743
 20
1.917372881355931
 10
31.136122071047168
 20
2.6377118644067821
 10
31.46451190155565
 20
3.246822033898304
 10
31.6869695286743
 20
3.6387711864406782
 10
31.773204962996331
 20
3.7761520127118651
 10
31.862419740538709
 20
3.9022775423728819
 10
31.954613861301429
 20
4.0171477754237301
 10
32.049787325284477
 20
4.1207627118644083
 10
32.147940132487868
 20
4.213122351694917
 10
32.249072282911598
 20
4.2942266949152561
 10
32.353183776555667
 20
4.3640757415254257
 10
32.460274613420069
 20
4.4226694915254257
 10
32.683394316809903
 20
4.5153601694915269
 10
32.918431393081093
 20
4.5815677966101713
 10
33.165385842233633
 20
4.6212923728813573
 10
33.424257664267508
 20
4.6345338983050874
 10
33.553279777614968
 20
4.6275820974576289
 10
33.675515609182767
 20
4.6067266949152552
 10
33.790965158970913
 20
4.5719676906779672
 10
33.89962842697939
 20
4.523305084745763
 10
34.001505413208207
 20
4.4607388771186436
 10
34.096596117657363
 20
4.3842690677966081
 10
34.184900540326851
 20
4.2938956567796582
 10
34.266418681216692
 20
4.1896186440677923
 10
34.339660868716678
 20
4.0730932203389791
 10
34.403137431216678
 20
3.9459745762711829
 10
34.456848368716678
 20
3.8082627118644039
 10
34.500793681216678
 20
3.6599576271186418
 10
34.534973368716678
 20
3.501059322033897
 10
34.559387431216678
 20
3.3315677966101691
 10
34.574035868716678
 20
3.1514830508474581
 10
34.578918681216692
 20
2.9608050847457652
 10
34.567001308335342
 20
2.804555084745763
 10
34.531249189691273
 20
2.568855932203391
 10
34.40942715579294
 20
1.9120762711864361
 10
34.245232240538712
 20
1.0752118644067821
 10
34.159162325284477
 20
0.6144067796610173
 10
34.081037325284477
 20
0.143008474576277
 10
34.01350554562346
 20
-0.3310381355932197
 10
33.959215291386158
 20
-0.7997881355932179
 10
33.923463172742089
 20
-1.247351694915253
 10
33.911545799860733
 20
-1.6578389830508511
 10
33.921807982064131
 20
-1.971663135593219
 10
33.952594528674297
 20
-2.2563559322033861
 10
34.003905439691259
 20
-2.5119173728813511
 10
34.075740715114989
 20
-2.7383474576271141
 10
34.119686027614989
 20
-2.8376588983050799
 10
34.169424507487868
 20
-2.9237288135593169
 10
34.224956154733633
 20
-2.996557203389826
 10
34.286280969352262
 20
-3.056144067796605
 10
34.353398951343777
 20
-3.102489406779656
 10
34.426310100708193
 20
-3.1355932203389778
 10
34.50501441744548
 20
-3.1554555084745708
 10
34.589511901555653
 20
-3.1620762711864359
 10
34.671940397318373
 20
-3.156117584745759
 10
34.760327579521757
 20
-3.1382415254237279
 10
34.854673448165833
 20
-3.1084480932203422
 10
34.954978003250567
 20
-3.0667372881355992
 10
35.169490715114989
 20
-2.956832627118644
 10
35.399893257487861
 20
-2.8177966101694949
 10
35.640889020199737
 20
-2.6522775423728819
 10
35.887181393081079
 20
-2.4629237288135641
 10
36.379766138843792
 20
-2.0497881355932179
 10
36.954448342233633
 20
-1.520127118644067
 10
37.55561359647092
 20
-0.9269067796610102
 10
37.735698342233633
 20
-3.2997881355932179
 10
37.206037325284477
 20
-3.7023305084745739
 10
36.321503426979383
 20
-4.3591101694915304
 10
36.094080227826851
 20
-4.5190015889830546
 10
35.862022494776006
 20
-4.6702860169491558
 10
35.625330227826851
 20
-4.8129634533898296
 10
35.384003426979383
 20
-4.9470338983050786
 10
35.137711054098027
 20
-5.0708421610169472
 10
34.886122071047183
 20
-5.1827330508474567
 10
34.629236477826851
 20
-5.2827065677966081
 10
34.36705427443701
 20
-5.3707627118644012
 10
34.098913384606497
 20
-5.4425979872881349
 10
33.824151732064131
 20
-5.4939088983050848
 10
33.542769316809903
 20
-5.5246954449152543
 10
33.254766138843792
 20
-5.5349576271186436
 10
33.112005942869217
 20
-5.5217988612288131
 10
32.975038914267529
 20
-5.4823225635593218
 10
32.843865053038712
 20
-5.4165287341101704
 10
32.718484359182781
 20
-5.3244173728813582
 10
32.598896832699729
 20
-5.2059884798728842
 10
32.485102473589563
 20
-5.0612420550847492
 10
32.377101281852269
 20
-4.8901780985169534
 10
32.274893257487861
 20
-4.6927966101694949
 10
32.181788781852269
 20
-4.4700907044491549
 10
32.101098236301418
 20
-4.2230534957627146
 10
32.032821620835321
 20
-3.9516849841101722
 10
31.976958935453961
 20
-3.6559851694915282
 10
31.933510180157359
 20
-3.3359540519067812
 10
31.902475354945491
 20
-2.991591631355933
 10
31.88385445981837
 20
-2.6228979078389831
 10
31.877647494775999
 20
-2.2298728813559312
 10
31.882944104945491
 20
-1.905786546610168
 10
31.898833935453961
 20
-1.5691207627118631
 10
31.925316986301411
 20
-1.219875529661014
 10
31.962393257487861
 20
-0.8580508474576192
 10
32.057732240538698
 20
-0.094014830508474
 10
32.174257664267508
 20
0.7256355932203462
 10
32.004766138843792
 20
0.7256355932203462
 10
29.229342410030231
 20
-4.7828389830508513
 10
29.12009982528447
 20
-4.982786016949154
 10
29.00423647782684
 20
-5.148305084745763
 10
28.881752367657349
 20
-5.2793961864406782
 10
28.81802752655565
 20
-5.3320312499999982
 10
28.752647494775999
 20
-5.3760593220338961
 10
28.61493563036921
 20
-5.4455773305084696
 10
28.466630545623449
 20
-5.4952330508474549
 10
28.307732240538709
 20
-5.525026483050846
 10
28.138240715114989
 20
-5.5349576271186436
 10
27.931672918504809
 20
-5.5233712923728806
 10
27.746291562572601
 20
-5.4886122881355899
 10
27.58209664731837
 20
-5.430680614406775
 10
27.50794410494548
 20
-5.3930250264830457
 10
27.439088172742089
 20
-5.3495762711864359
 10
27.314286795623449
 20
-5.2489406779660994
 10
27.204713172742089
 20
-5.1324152542372872
 10
27.11036730409802
 20
-5.0000000000000018
 10
27.031249189691241
 20
-4.8516949152542423
 10
26.975186538921061
 20
-4.7159030251464173
 10
26.928171206907901
 20
-4.5724629939003432
 10
26.890745595496579
 20
-4.4212866065219334
 10
26.86345210653192
 20
-4.2622856480170981
 10
26.475105121894639
 20
-4.6027542372881376
 10
26.21623329986075
 20
-4.8013771186440657
 10
25.948092410030242
 20
-4.9841101694915224
 10
25.670682452403121
 20
-5.1509533898305051
 10
25.384003426979401
 20
-5.3019067796610102
 10
25.23834664731838
 20
-5.36894200211864
 10
25.092689867657359
 20
-5.4270391949152534
 10
24.947033087996338
 20
-5.4761983580508478
 10
24.801376308335321
 20
-5.5164194915254257
 10
24.655719528674311
 20
-5.5477025953389862
 10
24.51006274901329
 20
-5.5700476694915304
 10
24.36440596935228
 20
-5.5834547139830546
 10
24.21874918969127
 20
-5.5879237288135641
 10
24.047602473589571
 20
-5.5808891684322086
 10
23.88373859647092
 20
-5.5597854872881403
 10
23.727157558335321
 20
-5.5246126853813609
 10
23.577859359182771
 20
-5.4753707627118686
 10
23.435843999013279
 20
-5.4120597192796653
 10
23.301111477826829
 20
-5.3346795550847492
 10
23.173661795623438
 20
-5.2432302701271221
 10
23.053494952403099
 20
-5.1377118644067821
 10
22.93895575748785
 20
-5.018786414194917
 10
22.828389020199719
 20
-4.8871159957627128
 10
22.721794740538709
 20
-4.7427006091101704
 10
22.619172918504809
 20
-4.5855402542372889
 10
22.52052355409802
 20
-4.4156349311440666
 10
22.425846647318359
 20
-4.2329846398305069
 10
22.335142198165819
 20
-4.0375893802966063
 10
22.24841020664039
 20
-3.8294491525423671
 10
22.114008723589539
 20
-3.9784163135593169
 10
21.965041562572601
 20
-4.12870762711864
 10
21.801508723589549
 20
-4.2803230932203347
 10
21.62341020664039
 20
-4.4332627118644012
 10
21.433725354945469
 20
-4.5832229872881349
 10
21.235433511725141
 20
-4.7259004237288131
 10
21.02853467697938
 20
-4.8612950211864376
 10
20.813028850708211
 20
-4.9894067796610102
 10
20.590902261725152
 20
-5.1082494703389827
 10
20.364141138843792
 20
-5.2158368644067803
 10
20.132745482064131
 20
-5.3121689618644066
 10
19.896715291386158
 20
-5.3972457627118624
 10
19.658367833759041
 20
-5.4667637711864359
 10
19.420020376131919
 20
-5.5164194915254203
 10
19.181672918504809
 20
-5.5462129237288114
 10
18.943325460877698
 20
-5.556144067796609
 10
18.690743363420069
 20
-5.5432335805084731
 10
18.44147164731837
 20
-5.5045021186440657
 10
18.195510312572601
 20
-5.4399496822033866
 10
17.952859359182781
 20
-5.3495762711864359
 10
17.71881539731837
 20
-5.2350370762711824
 10
17.498675037148871
 20
-5.0979872881355917
 10
17.2924382786743
 20
-4.9384269067796627
 10
17.100105121894639
 20
-4.756355932203391
 10
16.992478786856889
 20
-4.6367850647304616
 10
16.89175538910515
 20
-4.509470725239682
 10
16.79819253217066
 20
-4.3742641088615226
 10
16.712047819584651
 20
-4.2310164107264541
 10
16.396943237384921
 20
-4.4151851542945666
 10
16.067266138843792
 20
-4.5921610169491487
 10
15.59454368121667
 20
-4.8212394067796591
 10
15.1191729185048
 20
-5.0211864406779654
 10
14.881487537148869
 20
-5.1092425847457612
 10
14.64512630833531
 20
-5.1880296610169481
 10
14.41008923206412
 20
-5.257547669491526
 10
14.17637630833531
 20
-5.3177966101694949
 10
13.947297918504789
 20
-5.3664592161016937
 10
13.72616444392852
 20
-5.4012182203389827
 10
13.51297588460649
 20
-5.4220736228813582
 10
13.30773224053868
 20
-5.4290254237288167
 10
13.113743893081059
 20
-5.4190942796610191
 10
12.93432122358954
 20
-5.3893008474576281
 10
12.769464232064109
 20
-5.3396451271186436
 10
12.6191729185048
 20
-5.2701271186440692
 10
12.481130015962419
 20
-5.1827330508474603
 10
12.35301825748785
 20
-5.0794491525423737
 10
12.23483764308107
 20
-4.9602754237288131
 10
12.126588172742091
 20
-4.8252118644067821
 10
12.02727673206412
 20
-4.6752515889830502
 10
11.935910206640379
 20
-4.5113877118644066
 10
11.852488596470881
 20
-4.3336202330508469
 10
11.777011901555619
 20
-4.1419491525423666
 10
11.70782493121666
 20
-3.9376986228813511
 10
11.64327249477598
 20
-3.722192796610166
 10
11.52807122358954
 20
-3.2574152542372872
 10
11.334744952403099
 20
-3.501390360169494
 10
11.13612207104716
 20
-3.7354343220339001
 10
10.932202579521739
 20
-3.9595471398305082
 10
10.72298647782682
 20
-4.1737288135593218
 10
10.510128956640379
 20
-4.3759931144067803
 10
10.295285206640379
 20
-4.56435381355932
 10
10.07845522782682
 20
-4.7388109110169454
 10
9.859639020199694
 20
-4.8993644067796538
 10
9.6391676218946074
 20
-5.044690148305083
 10
9.4173720710471507
 20
-5.1734639830508478
 10
9.1942523676573238
 20
-5.2856859110169498
 10
8.9698085117251196
 20
-5.381355932203391
 10
8.7463577701996975
 20
-5.4578257415254257
 10
8.5262174100302062
 20
-5.5124470338983063
 10
8.309387431216642
 20
-5.5452198093220328
 10
8.0958678337590015
 20
-5.556144067796609
 10
7.9237280032505373
 20
-5.5488612288135579
 10
7.7568847829115546
 20
-5.5270127118644048
 10
7.5953381727420606
 20
-5.4905985169491496
 10
7.4390881727420606
 20
-5.4396186440677923
 10
7.2897899735895209
 20
-5.3714247881355881
 10
7.1490987659624032
 20
-5.2833686440677941
 10
7.0170145498607059
 20
-5.1754502118644066
 10
6.8935373252844272
 20
-5.0476694915254257
 10
6.7806533210471454
 20
-4.8990333686440692
 10
6.6803487659624032
 20
-4.7285487288135588
 10
6.5926236600302026
 20
-4.5362155720338944
 10
6.5174780032505453
 20
-4.3220338983050786
 10
6.4572290625725701
 20
-4.0833554025423666
 10
6.4141941049454516
 20
-3.8175317796610102
 10
6.3883731303691844
 20
-3.5245630296610102
 10
6.3797661388437632
 20
-3.2044491525423671
 10
6.3800569050133049
 20
-3.1941073071602939
 10
6.0056823775249768
 20
-4.5603813559322077
 10
5.9576818478639506
 20
-4.7368246822033946
 10
5.898426021592762
 20
-4.9059851694915277
 10
5.8279148987114029
 20
-5.0678628177966107
 10
5.7461484792198689
 20
-5.2224576271186436
 10
5.6561061063385178
 20
-5.3684454449152543
 10
5.5607671232876719
 20
-5.5045021186440666
 10
5.4601315300673328
 20
-5.6306276483050874
 10
5.3541993266775023
 20
-5.7468220338983116
 10
5.2446257037961477
 20
-5.8517611228813591
 10
5.1330658521012316
 20
-5.9441207627118651
 10
5.0195197715927566
 20
-6.0239009533898296
 10
4.9039874622707202
 20
-6.0911016949152534
 10
4.7894482673554641
 20
-6.1443988347457612
 10
4.6788815300673292
 20
-6.1824682203389836
 10
4.5722872504063146
 20
-6.2053098516949188
 10
4.4696654283724229
 20
-6.2129237288135641
 10
4.322022419897837
 20
-6.2084547139830546
 10
4.1810001741351197
 20
-6.1950476694915304
 10
4.0465986910842684
 20
-6.1727025953389862
 10
3.9188179707452839
 20
-6.1414194915254257
 10
3.7976580131181659
 20
-6.1011983580508478
 10
3.6831188182029142
 20
-6.0520391949152534
 10
3.5752003859995281
 20
-5.99394200211864
 10
3.473902716508007
 20
-5.9269067796610102
 10
3.382039633880884
 20
-5.8499404131355881
 10
3.302424962270714
 20
-5.7620497881355908
 10
3.2350587016774939
 20
-5.6632349046610164
 10
3.1799408521012249
 20
-5.5534957627118651
 10
3.1370714135419062
 20
-5.4328323622881367
 10
3.106450385999536
 20
-5.3012447033898331
 10
3.0880777694741148
 20
-5.1587327860169516
 10
3.0819535639656408
 20
-5.0052966101694949
 10
3.0859260215927571
 20
-4.9020127118644083
 10
3.0978433944741082
 20
-4.7934322033898322
 10
3.1455128859995232
 20
-4.5603813559322077
 10
3.2199964665079959
 20
-4.0803760593220364
 10
3.3057353436266439
 20
-3.6043432203389831
 10
3.402729517355461
 20
-3.132282838983051
 10
3.5109789876944428
 20
-2.6641949152542419
 10
3.7585955131181699
 20
-1.7121292372881369
 10
4.0459366148130869
 20
-0.7203389830508513
 10
4.2434921150563412
 20
-0.0934189076821639
 10
4.0985882814249628
 20
-0.1070401203993985
 10
3.9413742068260831
 20
-0.1112288135593218
 10
-0.4548122338518681
 20
-0.1112288135593218
 10
-0.6156967677501797
 20
-0.1036149364406767
 10
-0.75936731859764
 20
-0.0807733050847421
 10
-0.8858238863942489
 20
-0.0427039194915195
 10
-0.9950664711400066
 20
0.0105932203389898
 10
-1.0927789467540949
 20
0.0769868844219772
 10
-1.1781191824310331
 20
0.1508413183206727
 10
-1.3604661620617551
 20
-0.868644067796609
 10
-1.4068115010448099
 20
-1.1900820974576301
 10
-1.4399153146041359
 20
-1.502913135593225
 10
-1.4597776027397309
 20
-1.807137182203395
 10
-1.466398365451596
 20
-2.102754237288138
 10
-1.460770717146511
 20
-2.3381223516949161
 10
-1.4438877722312571
 20
-2.5463453389830519
 10
-1.415749530705833
 20
-2.7274231991525451
 10
-1.37635599257024
 20
-2.881355932203391
 10
-1.3506177775278669
 20
-2.9471497616525419
 10
-1.318424318841428
 20
-3.0041710805084731
 10
-1.2797756165109211
 20
-3.0524198887711842
 10
-1.234671670536347
 20
-3.0918961864406751
 10
-1.1831124809177049
 20
-3.122599973516945
 10
-1.125098047654995
 20
-3.144531249999996
 10
-1.060628370748216
 20
-3.157690015889826
 10
-0.9897034501973678
 20
-3.1620762711864359
 10
-0.877150484095667
 20
-3.1551244703389791
 10
-0.7619492129092222
 20
-3.1342690677966072
 10
-0.6440996366380336
 20
-3.0995100635593191
 10
-0.5236017552821011
 20
-3.0508474576271141
 10
-0.2786335349431219
 20
-2.9224046610169481
 10
-0.0310170095193882
 20
-2.759533898305079
 10
0.217923668446705
 20
-2.5675317796610142
 10
0.4668643464128195
 20
-2.3516949152542419
 10
0.7091842616670405
 20
-2.119968220338984
 10
0.9382626514975527
 20
-1.8802966101694949
 10
1.1984586260738299
 20
-1.58501059322034
 10
1.4599787531924771
 20
-1.2711864406779649
 10
1.722823032853495
 20
-0.9388241525423724
 10
1.986991465056889
 20
-0.5879237288135641
 10
2.4954660413280578
 20
-2.9396186440677918
 10
2.2107732447178918
 20
-3.3077330508474572
 10
1.843982990480612
 20
-3.73411016949153
 10
1.63377377437892
 20
-3.9592161016949179
 10
1.410985109124681
 20
-4.1790254237288149
 10
1.1756169947178949
 20
-4.3935381355932206
 10
0.9276694311585629
 20
-4.6027542372881376
 10
0.6687976091246695
 20
-4.8013771186440657
 10
0.4006567192941617
 20
-4.9841101694915224
 10
0.123246761667045
 20
-5.1509533898305051
 10
-0.1634322637566754
 20
-5.3019067796610102
 10
-0.3090890434176962
 20
-5.36894200211864
 10
-0.4547458230787167
 20
-5.4270391949152534
 10
-0.6004026027397365
 20
-5.4761983580508478
 10
-0.7460593824007553
 20
-5.5164194915254257
 10
-0.8917161620617728
 20
-5.5477025953389862
 10
-1.037372941722789
 20
-5.5700476694915304
 10
-1.1830297213838019
 20
-5.5834547139830546
 10
-1.3286865010448139
 20
-5.5879237288135641
 10
-1.4998332171465121
 20
-5.5808891684322086
 10
-1.663697094265157
 20
-5.5597854872881403
 10
-1.82027813240075
 20
-5.5246126853813609
 10
-1.969576331553291
 20
-5.4753707627118686
 10
-2.1115916917227819
 20
-5.4120597192796653
 10
-2.2463242129092209
 20
-5.3346795550847492
 10
-2.3737738951126111
 20
-5.2432302701271221
 10
-2.4939407383329519
 20
-5.1377118644067821
 10
-2.608479933248208
 20
-5.018786414194917
 10
-2.7190466705363439
 20
-4.8871159957627128
 10
-2.8256409501973598
 20
-4.7427006091101704
 10
-2.9282627722312569
 20
-4.5855402542372889
 10
-3.0269121366380349
 20
-4.4156349311440666
 10
-3.1215890434176949
 20
-4.2329846398305069
 10
-3.2122934925702391
 20
-4.0375893802966063
 10
-3.2990254840956652
 20
-3.8294491525423671
 10
-3.4334269671465232
 20
-3.9784163135593169
 10
-3.5823941281634721
 20
-4.12870762711864
 10
-3.745926967146517
 20
-4.2803230932203347
 10
-3.9240254840956652
 20
-4.4332627118644012
 10
-4.1137103357905787
 20
-4.5832229872881349
 10
-4.3120021790109178
 20
-4.7259004237288131
 10
-4.5189010137566834
 20
-4.8612950211864376
 10
-4.7344068400278729
 20
-4.9894067796610102
 10
-4.9565334290109284
 20
-5.1082494703389827
 10
-5.1832945518922884
 20
-5.2158368644067803
 10
-5.4146902086719528
 20
-5.3121689618644066
 10
-5.6507203993499218
 20
-5.3972457627118624
 10
-5.8890678569770376
 20
-5.4667637711864359
 10
-6.1274153146041499
 20
-5.5164194915254203
 10
-6.3657627722312613
 20
-5.5462129237288114
 10
-6.604110229858378
 20
-5.556144067796609
 10
-6.856692327316015
 20
-5.5432335805084731
 10
-7.105964043417714
 20
-5.5045021186440657
 10
-7.3519253781634752
 20
-5.4399496822033866
 10
-7.5945763315532986
 20
-5.3495762711864359
 10
-7.8286202934177007
 20
-5.2350370762711824
 10
-8.0487606535871947
 20
-5.0979872881355917
 10
-8.2549974120617762
 20
-4.9384269067796627
 10
-8.4473305688414371
 20
-4.756355932203391
 10
-8.6149172379541881
 20
-4.5623082100728141
 10
-8.895574653280871
 20
-4.7349389784821501
 10
-9.1888559925702396
 20
-4.8940677966101731
 10
-9.4785143612143123
 20
-5.0324417372881349
 10
-9.77545556884143
 20
-5.1562499999999982
 10
-10.0796796154516
 20
-5.265492584745763
 10
-10.39118650104481
 20
-5.3601694915254257
 10
-10.705341691722779
 20
-5.4366393008474603
 10
-11.017510653587189
 20
-5.4912605932203409
 10
-11.32769338663803
 20
-5.5240333686440666
 10
-11.635889890875321
 20
-5.5349576271186436
 10
-11.719311501044819
 20
-5.529661016949154
 10
-11.82127124680753
 20
-5.5137711864406782
 10
-12.2079237891804
 20
-5.4396186440677923
 10
-12.99711870443466
 20
-5.2966101694915304
 10
-13.60225641629906
 20
-5.1972987288135624
 10
-14.39012717901093
 20
-5.0794491525423666
 10
-14.39012717901093
 20
-5.2701271186440692
 10
-14.39517551057873
 20
-5.7465737552966134
 10
-14.410320505282121
 20
-6.2119306144067821
 10
-14.4355621631211
 20
-6.6661976959745779
 10
-14.470900484095679
 20
-7.1093750000000018
 10
-14.516335468205851
 20
-7.5414625264830519
 10
-14.57186711545161
 20
-7.9624602754237284
 10
-14.63749542583297
 20
-8.3723682468220328
 10
-14.71322039934992
 20
-8.7711864406779654
 10
-14.7973868453245
 20
-9.157259666313557
 10
-14.88833957307873
 20
-9.528932733050846
 10
-14.986078582612629
 20
-9.8862056408898287
 10
-15.090603873926179
 20
-10.22907838983051
 10
-15.201915447019401
 20
-10.557550979872881
 10
-15.32001330189228
 20
-10.87162341101695
 10
-15.444897438544819
 20
-11.171295683262709
 10
-15.57656785697702
 20
-11.45656779661017
 10
-15.714114202316001
 20
-11.726694915254241
 10
-15.85662611968889
 20
-11.98093220338983
 10
-16.004103609095669
 20
-12.21927966101695
 10
-16.156546670536351
 20
-12.44173728813559
 10
-16.313955304010928
 20
-12.648305084745759
 10
-16.47632950951941
 20
-12.83898305084746
 10
-16.64366928706178
 20
-13.01377118644068
 10
-16.81597463663806
 20
-13.172669491525429
 10
-16.991590367570261
 20
-13.31418829449153
 10
-17.16886128918043
 20
-13.43683792372881
 10
-17.347787401468569
 20
-13.540618379237291
 10
-17.528368704434659
 20
-13.62552966101695
 10
-17.710605198078731
 20
-13.691571769067799
 10
-17.89449688240077
 20
-13.73874470338983
 10
-18.08004375740077
 20
-13.76704846398305
 10
-18.267245823078721
 20
-13.77648305084746
 10
-18.415054350621102
 20
-13.771848516949159
 10
-18.556573153587198
 20
-13.757944915254241
 10
-18.691802231977029
 20
-13.734772245762709
 10
-18.820741585790589
 20
-13.70233050847458
 10
-18.94339121502788
 20
-13.66061970338983
 10
-19.05975111968889
 20
-13.609639830508479
 10
-19.169821299773631
 20
-13.54939088983051
 10
-19.273601755282101
 20
-13.479872881355931
 10
-19.3716718029516
 20
-13.40249271716101
 10
-19.464610759519399
 20
-13.318657309322029
 10
-19.552418624985499
 20
-13.228366657838979
 10
-19.635095399349911
 20
-13.13162076271186
 10
-19.71264108261262
 20
-13.028419623940669
 10
-19.785055674773641
 20
-12.91876324152542
 10
-19.852339175832959
 20
-12.8026516154661
 10
-19.914491585790589
 20
-12.680084745762709
 10
-20.025058323078731
 20
-12.417902542372881
 10
-20.118411077316011
 20
-12.134533898305079
 10
-20.194549848502451
 20
-11.82997881355932
 10
-20.25347463663806
 20
-11.504237288135601
 10
-20.297502708671949
 20
-11.162936970338979
 10
-20.328951331553299
 20
-10.811705508474571
 10
-20.347820505282112
 20
-10.45054290254237
 10
-20.354110229858382
 20
-10.07944915254237
 10
-20.345503238332959
 20
-9.8553363347457594
 10
-20.31968226375669
 20
-9.6173199152542335
 10
-20.276647306129568
 20
-9.3653998940677923
 10
-20.2163983654516
 20
-9.0995762711864359
 10
-20.141583746807541
 20
-8.8234904661016902
 10
-20.054851755282119
 20
-8.5407838983050812
 10
-19.95620239087534
 20
-8.2514565677966107
 10
-19.845635653587209
 20
-7.955508474576277
 10
-19.598019128163479
 20
-7.3516949152542406
 10
-19.32127124680753
 20
-6.7372881355932179
 10
-19.025985229858389
 20
-6.1268538135593218
 10
-18.722754297655001
 20
-5.5349576271186436
 10
-18.390157509674712
 20
-4.9252953088314939
 10
-18.708689035193171
 20
-5.12493754254759
 10
-19.0405509078245
 20
-5.3019067796610102
 10
-19.18620768748551
 20
-5.36894200211864
 10
-19.33186446714652
 20
-5.4270391949152534
 10
-19.477521246807541
 20
-5.4761983580508478
 10
-19.623178026468551
 20
-5.5164194915254257
 10
-19.768834806129568
 20
-5.5477025953389862
 10
-19.914491585790589
 20
-5.5700476694915304
 10
-20.06014836545161
 20
-5.5834547139830546
 10
-20.205805145112631
 20
-5.5879237288135641
 10
-20.376951861214319
 20
-5.5808891684322086
 10
-20.54081573833297
 20
-5.5597854872881403
 10
-20.697396776468558
 20
-5.5246126853813609
 10
-20.846694975621102
 20
-5.4753707627118686
 10
-20.988710335790589
 20
-5.4120597192796653
 10
-21.123442856977039
 20
-5.3346795550847492
 10
-21.25089253918043
 20
-5.2432302701271221
 10
-21.37105938240077
 20
-5.1377118644067821
 10
-21.485598577316029
 20
-5.018786414194917
 10
-21.596165314604161
 20
-4.8871159957627128
 10
-21.702759594265181
 20
-4.7427006091101704
 10
-21.805381416299081
 20
-4.5855402542372889
 10
-21.90403078070586
 20
-4.4156349311440666
 10
-21.99870768748551
 20
-4.2329846398305069
 10
-22.08941213663806
 20
-4.0375893802966063
 10
-22.176144128163489
 20
-3.8294491525423671
 10
-22.31054561121433
 20
-3.9784163135593169
 10
-22.459512772231282
 20
-4.12870762711864
 10
-22.62304561121433
 20
-4.2803230932203347
 10
-22.801144128163489
 20
-4.4332627118644012
 10
-22.990828979858399
 20
-4.5832229872881349
 10
-23.189120823078738
 20
-4.7259004237288131
 10
-23.3960196578245
 20
-4.8612950211864376
 10
-23.61152548409569
 20
-4.9894067796610102
 10
-23.833652073078731
 20
-5.1082494703389827
 10
-24.060413195960081
 20
-5.2158368644067803
 10
-24.291808852739749
 20
-5.3121689618644066
 10
-24.52783904341771
 20
-5.3972457627118624
 10
-24.766186501044839
 20
-5.4667637711864359
 10
-25.00453395867196
 20
-5.5164194915254203
 10
-25.242881416299081
 20
-5.5462129237288114
 10
-25.481228873926199
 20
-5.556144067796609
 10
-25.733810971383821
 20
-5.5432335805084731
 10
-25.98308268748551
 20
-5.5045021186440657
 10
-26.229044022231282
 20
-5.4399496822033866
 10
-26.471694975621119
 20
-5.3495762711864359
 10
-26.705738937485521
 20
-5.2350370762711824
 10
-26.925879297655001
 20
-5.0979872881355917
 10
-27.132116056129568
 20
-4.9384269067796627
 10
-27.324449212909229
 20
-4.756355932203391
 10
-27.500561501044839
 20
-4.5524364406779672
 10
-27.658135653587209
 20
-4.3273305084745779
 10
-27.797171670536351
 20
-4.0810381355932206
 10
-27.917669551892288
 20
-3.8135593220338961
 10
-27.96980805824823
 20
-3.6722887976694909
 10
-28.0149947637567
 20
-3.5265492584745761
 10
-28.053229668417721
 20
-3.3763407044491509
 10
-28.084512772231271
 20
-3.2216631355932179
 10
-28.126223577316019
 20
-2.898900953389826
 10
-28.140127179010928
 20
-2.5582627118644008
 10
-28.127551635604561
 20
-2.1965661300812509
 10
-28.175926217609831
 20
-2.5518802933422609
 10
-28.23887630833531
 20
-2.913135593220332
 10
-28.324284147318359
 20
-3.3107123940677932
 10
-28.426905969352251
 20
-3.7036546610169458
 10
-28.546741774436988
 20
-4.0919623940677923
 10
-28.683791562572591
 20
-4.475635593220332
 10
-28.83739325748784
 20
-4.8520259533898287
 10
-29.00688478291157
 20
-5.218485169491526
 10
-29.19226613884377
 20
-5.5750132415254257
 10
-29.393537325284459
 20
-5.9216101694915304
 10
-29.611360418504791
 20
-6.2526483050847457
 10
-29.846397494775971
 20
-6.5624999999999982
 10
-30.098648554098009
 20
-6.8511652542372872
 10
-30.368113596470891
 20
-7.118644067796609
 10
-30.5092186017675
 20
-7.243776483050846
 10
-30.65446158375903
 20
-7.3622881355932197
 10
-30.803842542445469
 20
-7.4741790254237301
 10
-30.957361477826829
 20
-7.5794491525423764
 10
-31.115018389903099
 20
-7.6780985169491558
 10
-31.27681327867429
 20
-7.7701271186440728
 10
-31.442746144140379
 20
-7.8555349576271247
 10
-31.6128169863014
 20
-7.9343220338983116
 10
-31.786943045623431
 20
-8.0050814353813582
 10
-31.965041562572591
 20
-8.06640625
 10
-32.147112537148857
 20
-8.1182964777542352
 10
-32.333155969352248
 20
-8.1607521186440657
 10
-32.52317185918276
 20
-8.1937731726694896
 10
-32.717160206640393
 20
-8.2173596398305087
 10
-32.915121011725127
 20
-8.2315115201271176
 10
-33.11705427443701
 20
-8.2362288135593218
 10
-33.331318707699722
 20
-8.2291942531779654
 10
-33.539789973589542
 20
-8.2080905720338979
 10
-33.74246807210649
 20
-8.1729177701271176
 10
-33.939353003250559
 20
-8.1236758474576263
 10
-34.130444767021743
 20
-8.0603648040254221
 10
-34.315743363420047
 20
-7.9829846398305069
 10
-34.495248792445473
 20
-7.8915353548728797
 10
-34.66896105409802
 20
-7.7860169491525397
 10
-34.837128426979383
 20
-7.6685811705508451
 10
-34.999999189691238
 20
-7.5413797669491496
 10
-35.157573342233619
 20
-7.4044127383474567
 10
-35.30985088460649
 20
-7.2576800847457612
 10
-35.456831816809881
 20
-7.1011818061440666
 10
-35.598516138843777
 20
-6.9349179025423702
 10
-35.734903850708193
 20
-6.7588883739406738
 10
-35.865994952403099
 20
-6.5730932203389756
 10
-35.991954962996317
 20
-6.3787738347457568
 10
-36.112949401555639
 20
-6.177171610169486
 10
-36.228978268081057
 20
-5.9682865466101651
 10
-36.340041562572587
 20
-5.7521186440677923
 10
-36.44613928503022
 20
-5.5286679025423693
 10
-36.547271435453951
 20
-5.2979343220338944
 10
-36.734639020199722
 20
-4.8146186440677923
 10
-36.903799507487847
 20
-4.3111096398305033
 10
-37.056408087996317
 20
-3.796345338983047
 10
-37.192464761725141
 20
-3.270325741525423
 10
-37.311969528674297
 20
-2.7330508474576329
 10
-37.415584465114968
 20
-2.1891551906779712
 10
-37.503971647318352
 20
-1.643273305084747
 10
-37.577131075284463
 20
-1.095405190677964
 10
-37.635062749013258
 20
-0.5455508474576192
 10
-37.679090821047168
 20
-0.0026483050847421
 10
-37.710539443928518
 20
0.5243644067796609
 10
-37.729408617657342
 20
1.0354872881355901
 10
-37.735698342233597
 20
1.530720338983045
 10
-37.730898289267508
 20
1.947331832627115
 10
-37.716498130369203
 20
2.36030190677966
 10
-37.692497865538698
 20
2.7696305614406769
 10
-37.658897494775978
 20
3.1753177966101691
 10
-37.615697018081057
 20
3.5773636122881349
 10
-37.562896435453951
 20
3.9757680084745748
 10
-37.500495746894629
 20
4.3705309851694896
 10
-37.428494952403099
 20
4.7616525423728788
 10
-37.347556128250559
 20
5.1478912870762681
 10
-37.258341350708179
 20
5.5280058262711842
 10
-37.160850619775992
 20
5.9019961599576254
 10
-37.055083935453951
 20
6.2698622881355934
 10
-36.941041297742089
 20
6.6316042108050839
 10
-36.818722706640393
 20
6.9872219279661021
 10
-36.688128162148871
 20
7.3367154396186436
 10
-36.549257664267508
 20
7.6800847457627128
 10
-36.402442251131923
 20
8.0166677701271212
 10
-36.248012960877674
 20
8.3458024364406782
 10
-36.085969793504788
 20
8.667488744703391
 10
-35.916312749013272
 20
8.9817266949152543
 10
-35.739041827403092
 20
9.2885162870762716
 10
-35.554157028674283
 20
9.5878575211864394
 10
-35.361658352826822
 20
9.8797503972457612
 10
-35.161545799860733
 20
10.164194915254241
 10
-34.954398686513272
 20
10.439949682203389
 10
-34.740796329521743
 20
10.705773305084749
 10
-34.520738728886137
 20
10.96166578389831
 10
-34.294225884606483
 20
11.207627118644069
 10
-34.061257796682753
 20
11.44365730932204
 10
-33.821834465114961
 20
11.669756355932201
 10
-33.575955889903099
 20
11.88592425847458
 10
-33.323622071047168
 20
12.09216101694915
 10
-33.065246806216663
 20
12.28772179555085
 10
-32.801243893081079
 20
12.47186175847458
 10
-32.531613331640401
 20
12.644580905720341
 10
-32.256355121894629
 20
12.80587923728813
 10
-31.975469263843781
 20
12.955756753177971
 10
-31.68895575748785
 20
13.09421345338983
 10
-31.396814602826829
 20
13.22124933792373
 10
-31.099045799860729
 20
13.336864406779659
 10
-30.79606314625903
 20
13.43990002648305
 10
-30.488280439691231
 20
13.52919756355932
 10
-30.175697680157331
 20
13.60475701800847
 10
-29.858314867657331
 20
13.66657838983051
 10
-29.536132002191231
 20
13.714661679025429
 10
-29.209149083759019
 20
13.74900688559322
 10
-28.877366112360718
 20
13.7696140095339
  0
ENDSEC
  0
SECTION
  2
OBJECTS
  0
DICTIONARY
  5
C
100
AcDbDictionary
280
0
281
1
  3
ACAD_GROUP
350
D
  3
ACAD_LAYOUT
350
1A
  3
ACAD_MLINESTYLE
350
17
  3
ACAD_PLOTSETTINGS
350
19
  3
ACAD_PLOTSTYLENAME
350
E
  3
AcDbVariableDictionary
350
4C
  0
DICTIONARY
  5
D
100
AcDbDictionary
280
0
281
1
  0
ACDBDICTIONARYWDFLT
  5
E
100
AcDbDictionary
281
1
  3
Normal
350
F
100
AcDbDictionaryWithDefault
340
F
  0
ACDBPLACEHOLDER
  5
F
  0
DICTIONARY
  5
17
100
AcDbDictionary
280
0
281
1
  3
Standard
350
18
  0
MLINESTYLE
  5
18
100
AcDbMlineStyle
  2
STANDARD
 70
0
  3

 62
256
 51
90.0
 52
90.0
 71
2
 49
0.5
 62
256
  6
BYLAYER
 49
-0.5
 62
256
  6
BYLAYER
  0
DICTIONARY
  5
19
100
AcDbDictionary
280
0
281
1
  0
DICTIONARY
  5
1A
100
AcDbDictionary
281
1
  3
Layout1
350
1E
  3
Layout2
350
26
  3
Model
350
22
  0
LAYOUT
  5
1E
100
AcDbPlotSettings
  1

  2
C:\Program Files\AutoCAD 2002\plotters\DWF ePlot (optimized for plotting).pc3
  4

  6

 40
0.0
 41
0.0
 42
0.0
 43
0.0
 44
0.0
 45
0.0
 46
0.0
 47
0.0
 48
0.0
 49
0.0
140
0.0
141
0.0
142
1.0
143
1.0
 70
688
 72
0
 73
0
 74
5
  7

 75
16
147
1.0
148
0.0
149
0.0
100
AcDbLayout
  1
Layout1
 70
1
 71
1
 10
0.0
 20
0.0
 11
420.0
 21
297.0
 12
0.0
 22
0.0
 32
0.0
 14
100000000000000000000.0
 24
100000000000000000000.0
 34
100000000000000000000.0
 15
-100000000000000000000.0
 25
-100000000000000000000.0
 35
-100000000000000000000.0
146
0.0
 13
0.0
 23
0.0
 33
0.0
 16
1.0
 26
0.0
 36
0.0
 17
0.0
 27
1.0
 37
0.0
 76
0
330
1B
  0
LAYOUT
  5
22
100
AcDbPlotSettings
  1

  2
C:\Program Files\AutoCAD 2002\plotters\DWF ePlot (optimized for plotting).pc3
  4

  6

 40
0.0
 41
0.0
 42
0.0
 43
0.0
 44
0.0
 45
0.0
 46
0.0
 47
0.0
 48
0.0
 49
0.0
140
0.0
141
0.0
142
1.0
143
1.0
 70
1712
 72
0
 73
0
 74
0
  7

 75
0
147
1.0
148
0.0
149
0.0
100
AcDbLayout
  1
Model
 70
1
 71
0
 10
0.0
 20
0.0
 11
12.0
 21
9.0
 12
0.0
 22
0.0
 32
0.0
 14
0.0
 24
0.0
 34
0.0
 15
0.0
 25
0.0
 35
0.0
146
0.0
 13
0.0
 23
0.0
 33
0.0
 16
1.0
 26
0.0
 36
0.0
 17
0.0
 27
1.0
 37
0.0
 76
0
330
1F
  0
LAYOUT
  5
26
100
AcDbPlotSettings
  1

  2
C:\Program Files\AutoCAD 2002\plotters\DWF ePlot (optimized for plotting).pc3
  4

  6

 40
0.0
 41
0.0
 42
0.0
 43
0.0
 44
0.0
 45
0.0
 46
0.0
 47
0.0
 48
0.0
 49
0.0
140
0.0
141
0.0
142
1.0
143
1.0
 70
688
 72
0
 73
0
 74
5
  7

 75
16
147
1.0
148
0.0
149
0.0
100
AcDbLayout
  1
Layout2
 70
1
 71
2
 10
0.0
 20
0.0
 11
12.0
 21
9.0
 12
0.0
 22
0.0
 32
0.0
 14
0.0
 24
0.0
 34
0.0
 15
0.0
 25
0.0
 35
0.0
146
0.0
 13
0.0
 23
0.0
 33
0.0
 16
1.0
 26
0.0
 36
0.0
 17
0.0
 27
1.0
 37
0.0
 76
0
330
23
  0
DICTIONARY
  5
4C
100
AcDbDictionary
281
1
  3
DIMASSOC
350
4E
  3
HIDETEXT
350
4D
  0
DICTIONARYVAR
  5
4D
100
DictionaryVariables
280
0
  1
2
  0
DICTIONARYVAR
  5
4E
100
DictionaryVariables
280
0
  1
1
  0
ENDSEC
  0
EOF
