999
dxflib 2.0.4.8
  0
SECTION
  2
HEADER
  9
$ACADVER
  1
AC1015
  9
$HANDSEED
  5
FFFF
  9
$USERR4
 40
0.0
  9
$DIMTAD
 70
0
  9
$VISRETAIN
 70
1
  9
$TILEMODE
 70
1
  9
$SHADEDIF
 70
70
  9
$USERR5
 40
0.0
  9
$UCSYDIR
 10
0.0
 20
1.0
 30
0.0
  9
$ATTREQ
 70
1
  9
$CHAMFERA
 40
0.5
  9
$MENU
  1
.
  9
$CLAYER
  8
0
  9
$UCSXDIR
 10
1.0
 20
0.0
 30
0.0
  9
$CHAMFERB
 40
0.5
  9
$DIMASZ
 40
0.18
  9
$TRACEWID
 40
0.05
  9
$REGENMODE
 70
1
  9
$ORTHOMODE
 70
0
  9
$EXTMIN
 10
-48.579861718020553
 20
-38.694209603617153
 30
0.0
  9
$PUCSYDIR
 10
0.0
 20
1.0
 30
0.0
  9
$ANGBASE
 50
0.0
  9
$USRTIMER
 70
1
  9
$SKETCHINC
 40
0.1
  9
$DIMGAP
 40
0.09
  9
$DIMTFAC
 40
1.0
  9
$DIMSAH
 70
0
  9
$DIMALT
 70
0
  9
$DIMSHO
 70
1
  9
$PUCSXDIR
 10
1.0
 20
0.0
 30
0.0
  9
$SURFTYPE
 70
6
  9
$SPLFRAME
 70
0
  9
$DIMTSZ
 40
0.0
  9
$LIMMIN
 10
0.0
 20
0.0
  9
$SURFTAB1
 70
6
  9
$SPLINESEGS
 70
8
  9
$AUPREC
 70
0
  9
$LUNITS
 70
2
  9
$DWGCODEPAGE
  3
ansi_1252
  9
$UNITMODE
 70
0
  9
$USERI1
 70
0
  9
$SURFTAB2
 70
6
  9
$SKPOLY
 70
0
  9
$ELEVATION
 40
0.0
  9
$DIMCEN
 40
0.09
  9
$DIMRND
 40
0.0
  9
$INSBASE
 10
0.0
 20
0.0
 30
0.0
  9
$USERI2
 70
0
  9
$UCSORG
 10
0.0
 20
0.0
 30
0.0
  9
$PELEVATION
 40
0.0
  9
$DIMEXO
 40
0.0625
  9
$TEXTSIZE
 40
0.2
  9
$DRAGMODE
 70
2
  9
$FILLMODE
 70
1
  9
$EXTMAX
 10
49.688002771431847
 20
41.051613203878901
 30
0.0
  9
$INSUNITS
 70
4
  9
$USERI3
 70
0
  9
$SURFU
 70
6
  9
$ANGDIR
 70
0
  9
$TDUSRTIMER
 40
0.0000000116
  9
$DIMZIN
 70
0
  9
$DIMDLE
 40
0.0
  9
$DIMSCALE
 40
1.0
  9
$WORLDVIEW
 70
1
  9
$USERI4
 70
0
  9
$SURFV
 70
6
  9
$OSMODE
 70
37
  9
$QTEXTMODE
 70
0
  9
$LIMMAX
 10
12.0
 20
9.0
  9
$USERI5
 70
0
  9
$HANDLING
 70
1
  9
$PDMODE
 70
0
  9
$LIMCHECK
 70
0
  9
$THICKNESS
 40
0.0
  9
$DIMSE1
 70
0
  9
$DIMLIM
 70
0
  9
$DIMTXT
 40
0.18
  9
$ATTMODE
 70
1
  9
$PEXTMAX
 10
-100000000000000000000.0
 20
-100000000000000000000.0
 30
-100000000000000000000.0
  9
$PEXTMIN
 10
100000000000000000000.0
 20
100000000000000000000.0
 30
100000000000000000000.0
  9
$PUCSORG
 10
0.0
 20
0.0
 30
0.0
  9
$SPLINETYPE
 70
6
  9
$TDINDWG
 40
0.0000000116
  9
$LUPREC
 70
4
  9
$DIMSOXD
 70
0
  9
$DIMLFAC
 40
1.0
  9
$DIMSE2
 70
0
  9
$DIMTOH
 70
1
  9
$CELTYPE
  6
BYLAYER
  9
$PLIMCHECK
 70
0
  9
$PLINEWID
 40
0.0
  9
$DIMSTYLE
  2
STANDARD
  9
$DIMTVP
 40
0.0
  9
$DIMASO
 70
1
  9
$DIMTM
 40
0.0
  9
$DIMDLI
 40
0.38
  9
$CECOLOR
 62
256
  9
$PLIMMAX
 10
12.0
 20
9.0
  9
$PLIMMIN
 10
0.0
 20
0.0
  9
$MAXACTVP
 70
64
  9
$TDUPDATE
 40
2456257.811958333
  9
$FILLETRAD
 40
0.5
  9
$DIMCLRT
 70
0
  9
$DIMALTD
 70
2
  9
$DIMTIH
 70
1
  9
$LTSCALE
 40
1.0
  9
$USERR1
 40
0.0
  9
$ATTDIA
 70
0
  9
$PDSIZE
 40
0.0
  9
$DIMCLRD
 70
0
  9
$DIMEXE
 40
0.18
  9
$PSLTSCALE
 70
1
  9
$PLINEGEN
 70
0
  9
$SHADEDGE
 70
3
  9
$USERR2
 40
0.0
  9
$COORDS
 70
1
  9
$TDCREATE
 40
2454910.5
  9
$DIMCLRE
 70
0
  9
$DIMTOFL
 70
0
  9
$DIMALTF
 40
25.399999999999999
  9
$DIMTOL
 70
0
  9
$DIMTP
 40
0.0
  9
$TEXTSTYLE
  7
STANDARD
  9
$USERR3
 40
0.0
  9
$AUNITS
 70
0
  9
$DIMTIX
 70
0
  9
$MIRRTEXT
 70
1
  0
ENDSEC
  0
SECTION
  2
TABLES
  0
TABLE
  2
VPORT
  5
8
100
AcDbSymbolTable
 70
1
  0
VPORT
  5
30
100
AcDbSymbolTableRecord
100
AcDbViewportTableRecord
  2
*Active
 70
0
 10
0.0
 20
0.0
 11
1.0
 21
1.0
 12
286.30555555555549
 22
148.5
 13
0.0
 23
0.0
 14
10.0
 24
10.0
 15
10.0
 25
10.0
 16
0.0
 26
0.0
 36
1.0
 17
0.0
 27
0.0
 37
0.0
 40
297.0
 41
1.92798353909465
 42
50.0
 43
0.0
 44
0.0
 50
0.0
 51
0.0
 71
0
 72
100
 73
1
 74
3
 75
1
 76
1
 77
0
 78
0
281
0
 65
1
110
0.0
120
0.0
130
0.0
111
1.0
121
0.0
131
0.0
112
0.0
122
1.0
132
0.0
 79
0
146
0.0
  0
ENDTAB
  0
TABLE
  2
LTYPE
  5
5
100
AcDbSymbolTable
 70
21
  0
LTYPE
  5
14
100
AcDbSymbolTableRecord
100
AcDbLinetypeTableRecord
  2
ByBlock
 70
0
  3

 72
65
 73
0
 40
0.0
  0
LTYPE
  5
15
100
AcDbSymbolTableRecord
100
AcDbLinetypeTableRecord
  2
ByLayer
 70
0
  3

 72
65
 73
0
 40
0.0
  0
LTYPE
  5
16
100
AcDbSymbolTableRecord
100
AcDbLinetypeTableRecord
  2
CONTINUOUS
 70
0
  3
Solid line
 72
65
 73
0
 40
0.0
  0
LTYPE
  5
31
100
AcDbSymbolTableRecord
100
AcDbLinetypeTableRecord
  2
DOT
 70
0
  3
Dot . . . . . . . . . . . . . . . . . . . . . .
 72
65
 73
2
 40
6.3499999999999996
 49
0.0
 74
0
 49
-6.3499999999999996
 74
0
  0
LTYPE
  5
32
100
AcDbSymbolTableRecord
100
AcDbLinetypeTableRecord
  2
DOT2
 70
0
  3
Dot (.5x) .....................................
 72
65
 73
2
 40
3.1749999999999998
 49
0.0
 74
0
 49
-3.1749999999999998
 74
0
  0
LTYPE
  5
33
100
AcDbSymbolTableRecord
100
AcDbLinetypeTableRecord
  2
DOTX2
 70
0
  3
Dot (2x) .  .  .  .  .  .  .  .  .  .  .  .  .
 72
65
 73
2
 40
12.699999999999999
 49
0.0
 74
0
 49
-12.699999999999999
 74
0
  0
LTYPE
  5
34
100
AcDbSymbolTableRecord
100
AcDbLinetypeTableRecord
  2
DASHED
 70
0
  3
Dashed __ __ __ __ __ __ __ __ __ __ __ __ __ _
 72
65
 73
2
 40
19.050000000000001
 49
12.699999999999999
 74
0
 49
-6.3499999999999996
 74
0
  0
LTYPE
  5
35
100
AcDbSymbolTableRecord
100
AcDbLinetypeTableRecord
  2
DASHED2
 70
0
  3
Dashed (.5x) _ _ _ _ _ _ _ _ _ _ _ _ _ _ _ _ _
 72
65
 73
2
 40
9.5250000000000004
 49
6.3499999999999996
 74
0
 49
-3.1749999999999998
 74
0
  0
LTYPE
  5
36
100
AcDbSymbolTableRecord
100
AcDbLinetypeTableRecord
  2
DASHEDX2
 70
0
  3
Dashed (2x) ____  ____  ____  ____  ____  ___
 72
65
 73
2
 40
38.100000000000001
 49
25.399999999999999
 74
0
 49
-12.699999999999999
 74
0
  0
LTYPE
  5
37
100
AcDbSymbolTableRecord
100
AcDbLinetypeTableRecord
  2
DASHDOT
 70
0
  3
Dash dot __ . __ . __ . __ . __ . __ . __ . __
 72
65
 73
4
 40
25.399999999999999
 49
12.699999999999999
 74
0
 49
-6.3499999999999996
 74
0
 49
0.0
 74
0
 49
-6.3499999999999996
 74
0
  0
LTYPE
  5
38
100
AcDbSymbolTableRecord
100
AcDbLinetypeTableRecord
  2
DASHDOT2
 70
0
  3
Dash dot (.5x) _._._._._._._._._._._._._._._.
 72
65
 73
4
 40
12.699999999999999
 49
6.3499999999999996
 74
0
 49
-3.1749999999999998
 74
0
 49
0.0
 74
0
 49
-3.1749999999999998
 74
0
  0
LTYPE
  5
39
100
AcDbSymbolTableRecord
100
AcDbLinetypeTableRecord
  2
DASHDOTX2
 70
0
  3
Dash dot (2x) ____  .  ____  .  ____  .  ___
 72
65
 73
4
 40
50.799999999999997
 49
25.399999999999999
 74
0
 49
-12.699999999999999
 74
0
 49
0.0
 74
0
 49
-12.699999999999999
 74
0
  0
LTYPE
  5
3A
100
AcDbSymbolTableRecord
100
AcDbLinetypeTableRecord
  2
DIVIDE
 70
0
  3
Divide ____ . . ____ . . ____ . . ____ . . ____
 72
65
 73
6
 40
31.75
 49
12.699999999999999
 74
0
 49
-6.3499999999999996
 74
0
 49
0.0
 74
0
 49
-6.3499999999999996
 74
0
 49
0.0
 74
0
 49
-6.3499999999999996
 74
0
  0
LTYPE
  5
3B
100
AcDbSymbolTableRecord
100
AcDbLinetypeTableRecord
  2
DIVIDE2
 70
0
  3
Divide (.5x) __..__..__..__..__..__..__..__.._
 72
65
 73
6
 40
15.875
 49
6.3499999999999996
 74
0
 49
-3.1749999999999998
 74
0
 49
0.0
 74
0
 49
-3.1749999999999998
 74
0
 49
0.0
 74
0
 49
-3.1749999999999998
 74
0
  0
LTYPE
  5
3C
100
AcDbSymbolTableRecord
100
AcDbLinetypeTableRecord
  2
DIVIDEX2
 70
0
  3
Divide (2x) ________  .  .  ________  .  .  _
 72
65
 73
6
 40
63.5
 49
25.399999999999999
 74
0
 49
-12.699999999999999
 74
0
 49
0.0
 74
0
 49
-12.699999999999999
 74
0
 49
0.0
 74
0
 49
-12.699999999999999
 74
0
  0
LTYPE
  5
3D
100
AcDbSymbolTableRecord
100
AcDbLinetypeTableRecord
  2
CENTER
 70
0
  3
Center ____ _ ____ _ ____ _ ____ _ ____ _ ____
 72
65
 73
4
 40
50.799999999999997
 49
31.75
 74
0
 49
-6.3499999999999996
 74
0
 49
6.3499999999999996
 74
0
 49
-6.3499999999999996
 74
0
  0
LTYPE
  5
3E
100
AcDbSymbolTableRecord
100
AcDbLinetypeTableRecord
  2
CENTER2
 70
0
  3
Center (.5x) ___ _ ___ _ ___ _ ___ _ ___ _ ___
 72
65
 73
4
 40
28.574999999999999
 49
19.050000000000001
 74
0
 49
-3.1749999999999998
 74
0
 49
3.1749999999999998
 74
0
 49
-3.1749999999999998
 74
0
  0
LTYPE
  5
3F
100
AcDbSymbolTableRecord
100
AcDbLinetypeTableRecord
  2
CENTERX2
 70
0
  3
Center (2x) ________  __  ________  __  _____
 72
65
 73
4
 40
101.59999999999999
 49
63.5
 74
0
 49
-12.699999999999999
 74
0
 49
12.699999999999999
 74
0
 49
-12.699999999999999
 74
0
  0
LTYPE
  5
40
100
AcDbSymbolTableRecord
100
AcDbLinetypeTableRecord
  2
BORDER
 70
0
  3
Border __ __ . __ __ . __ __ . __ __ . __ __ .
 72
65
 73
6
 40
44.450000000000003
 49
12.699999999999999
 74
0
 49
-6.3499999999999996
 74
0
 49
12.699999999999999
 74
0
 49
-6.3499999999999996
 74
0
 49
0.0
 74
0
 49
-6.3499999999999996
 74
0
  0
LTYPE
  5
41
100
AcDbSymbolTableRecord
100
AcDbLinetypeTableRecord
  2
BORDER2
 70
0
  3
Border (.5x) __.__.__.__.__.__.__.__.__.__.__.
 72
65
 73
6
 40
22.225000000000001
 49
6.3499999999999996
 74
0
 49
-3.1749999999999998
 74
0
 49
6.3499999999999996
 74
0
 49
-3.1749999999999998
 74
0
 49
0.0
 74
0
 49
-3.1749999999999998
 74
0
  0
LTYPE
  5
42
100
AcDbSymbolTableRecord
100
AcDbLinetypeTableRecord
  2
BORDERX2
 70
0
  3
Border (2x) ____  ____  .  ____  ____  .  ___
 72
65
 73
6
 40
88.900000000000006
 49
25.399999999999999
 74
0
 49
-12.699999999999999
 74
0
 49
25.399999999999999
 74
0
 49
-12.699999999999999
 74
0
 49
0.0
 74
0
 49
-12.699999999999999
 74
0
  0
ENDTAB
  0
TABLE
  2
LAYER
  5
2
100
AcDbSymbolTable
 70
2
  0
LAYER
  5
10
100
AcDbSymbolTableRecord
100
AcDbLayerTableRecord
  2
0
 70
0
 62
7
  6
CONTINUOUS
390
F
  0
LAYER
  5
43
100
AcDbSymbolTableRecord
100
AcDbLayerTableRecord
  2
LAYER_1
 70
0
 62
7
  6
CONTINUOUS
370
-3
390
F
  0
ENDTAB
  0
TABLE
  2
STYLE
  5
3
100
AcDbSymbolTable
 70
1
  0
STYLE
  5
11
100
AcDbSymbolTableRecord
100
AcDbTextStyleTableRecord
  2
Standard
 70
0
 40
0.0
 41
0.75
 50
0.0
 71
0
 42
2.5
  3
txt
  4

  0
ENDTAB
  0
TABLE
  2
VIEW
  5
6
100
AcDbSymbolTable
 70
0
  0
ENDTAB
  0
TABLE
  2
UCS
  5
7
100
AcDbSymbolTable
 70
0
  0
ENDTAB
  0
TABLE
  2
APPID
  5
9
100
AcDbSymbolTable
 70
1
  0
APPID
  5
12
100
AcDbSymbolTableRecord
100
AcDbRegAppTableRecord
  2
ACAD
 70
0
  0
ENDTAB
  0
TABLE
  2
DIMSTYLE
  5
A
100
AcDbSymbolTable
 70
1
100
AcDbDimStyleTable
 71
0
  0
DIMSTYLE
105
27
100
AcDbSymbolTableRecord
100
AcDbDimStyleTableRecord
  2
Standard
 41
0.18
 42
0.0625
 43
3.75
 44
0.18
 70
0
 73
0
 74
0
 77
1
 78
8
140
0.18
141
2.5
143
0.03937007874016
147
0.09
171
3
172
1
271
2
272
2
274
3
278
44
283
0
284
8
340
11
  0
ENDTAB
  0
TABLE
  2
BLOCK_RECORD
  5
1
100
AcDbSymbolTable
 70
1
  0
BLOCK_RECORD
  5
1F
100
AcDbSymbolTableRecord
100
AcDbBlockTableRecord
  2
*Model_Space
340
22
  0
BLOCK_RECORD
  5
1B
100
AcDbSymbolTableRecord
100
AcDbBlockTableRecord
  2
*Paper_Space
340
1E
  0
BLOCK_RECORD
  5
23
100
AcDbSymbolTableRecord
100
AcDbBlockTableRecord
  2
*Paper_Space0
340
26
  0
ENDTAB
  0
ENDSEC
  0
SECTION
  2
BLOCKS
  0
BLOCK
  5
20
100
AcDbEntity
  8
0
100
AcDbBlockBegin
  2
*Model_Space
 70
0
 10
0.0
 20
0.0
 30
0.0
  3
*Model_Space
  1

  0
ENDBLK
  5
21
100
AcDbEntity
  8
0
100
AcDbBlockEnd
  0
BLOCK
  5
1C
100
AcDbEntity
 67
1
  8
0
100
AcDbBlockBegin
  2
*Paper_Space
 70
0
 10
0.0
 20
0.0
 30
0.0
  3
*Paper_Space
  1

  0
ENDBLK
  5
1D
100
AcDbEntity
 67
1
  8
0
100
AcDbBlockEnd
  0
BLOCK
  5
24
100
AcDbEntity
  8
0
100
AcDbBlockBegin
  2
*Paper_Space0
 70
0
 10
0.0
 20
0.0
 30
0.0
  3
*Paper_Space0
  1

  0
ENDBLK
  5
25
100
AcDbEntity
  8
0
100
AcDbBlockEnd
  0
ENDSEC
  0
SECTION
  2
ENTITIES
  0
LWPOLYLINE
  5
44
  8
LAYER_1
 62
256
370
-1
  6
ByLayer
100
AcDbEntity
100
AcDbPolyline
 90
780
 70
1
 10
-31.658343587027311
 20
-38.679111363475059
 10
-22.80502519696217
 20
-38.679111363475059
 10
-22.807316147333339
 20
-38.343743345872667
 10
-22.83026113562067
 20
-38.239868779222718
 10
-22.895132503485879
 20
-38.072392192046998
 10
-22.99740238097597
 20
-37.850025292615257
 10
-23.132542898137959
 20
-37.581479789197253
 10
-23.483324371665599
 20
-36.940699803481436
 10
-23.91125396444485
 20
-36.219745901057571
 10
-24.149006908141509
 20
-35.826722904011298
 10
-24.356071772853639
 20
-35.46754132217562
 10
-24.532625112717049
 20
-35.138963881489559
 10
-24.678843481867531
 20
-34.8377533078921
 10
-24.79490343444089
 20
-34.560672327322237
 10
-24.88098152457291
 20
-34.304483665718983
 10
-24.937254306399389
 20
-34.065950049021318
 10
-24.963898334056129
 20
-33.841834203168247
 10
-24.961090161678928
 20
-33.628898854098757
 10
-24.929006343403579
 20
-33.423906727751877
 10
-24.867823433365871
 20
-33.22362055006657
 10
-24.77771798570161
 20
-33.024803046981837
 10
-24.658866554546599
 20
-32.824216944436699
 10
-24.51144569403662
 20
-32.618624968370128
 10
-24.33563195830747
 20
-32.40478984472113
 10
-24.131601901494939
 20
-32.179474299428698
 10
-23.864943610878591
 20
-31.887176562447969
 10
-23.669982760401179
 20
-31.64752471997031
 10
-23.598842889291792
 20
-31.543688015571071
 10
-23.544972195109811
 20
-31.448509192478721
 10
-23.50815228348613
 20
-31.360487053253649
 10
-23.488164760051632
 20
-31.278120400456231
 10
-23.48479123043721
 20
-31.199908036646828
 10
-23.497813300273769
 20
-31.124348764385829
 10
-23.527012575192181
 20
-31.049941386233598
 10
-23.57217066082335
 20
-30.975184704750529
 10
-23.633069162798151
 20
-30.898577522496979
 10
-23.709489686747499
 20
-30.818618642033339
 10
-23.908023223093348
 20
-30.642640996717262
 10
-24.054365650232171
 20
-30.5061364228706
 10
-24.182779301084771
 20
-30.35586860344106
 10
-24.293151066767589
 20
-30.194120637852549
 10
-24.385367838397048
 20
-30.02317562552896
 10
-24.4593165070896
 20
-29.84531666589421
 10
-24.514883963961669
 20
-29.662826858372188
 10
-24.55195710012968
 20
-29.47798930238681
 10
-24.57042280671007
 20
-29.293087097361951
 10
-24.57016797481927
 20
-29.11040334272154
 10
-24.551079495573731
 20
-28.932221137889471
 10
-24.51304426008986
 20
-28.760823582289639
 10
-24.45594915948411
 20
-28.598493775345961
 10
-24.37968108487291
 20
-28.447514816482322
 10
-24.284126927372689
 20
-28.31016980512263
 10
-24.16917357809988
 20
-28.188741840690788
 10
-24.034707928170921
 20
-28.08551402261071
 10
-23.867668018101451
 20
-27.99753277610245
 10
-23.605978345251611
 20
-27.885854682671319
 10
-23.262935727506829
 20
-27.75504051032939
 10
-22.851836982752499
 20
-27.609651027088741
 10
-22.385978928874032
 20
-27.454247000961459
 10
-21.878658383756839
 20
-27.293389199959599
 10
-21.343172165286308
 20
-27.131638392095262
 10
-20.79281709134786
 20
-26.973555345380511
 10
-19.969886402657831
 20
-26.748567441760681
 10
-19.318334248973748
 20
-26.587093283584551
 10
-19.047442354223872
 20
-26.53006073908313
 10
-18.80813577098338
 20
-26.488770886996939
 10
-18.596661391838271
 20
-26.46317847934408
 10
-18.409266109374499
 20
-26.453238268142659
 10
-18.242196816178041
 20
-26.458905005410781
 10
-18.091700404834871
 20
-26.480133443166551
 10
-17.954023767930941
 20
-26.516878333428071
 10
-17.825413798052249
 20
-26.56909442821344
 10
-17.70211738778475
 20
-26.636736479540762
 10
-17.580381429714411
 20
-26.719759239428129
 10
-17.326578440509131
 20
-26.93176589295545
 10
-17.079198180234709
 20
-27.14377977283695
 10
-16.967679474423878
 20
-27.226496341283621
 10
-16.86098581417097
 20
-27.29355413802687
 10
-16.756650271481249
 20
-27.344854270036151
 10
-16.65220591835994
 20
-27.38029784428095
 10
-16.545185826812311
 20
-27.399785967730729
 10
-16.43312306884361
 20
-27.403219747354949
 10
-16.31355071645908
 20
-27.390500290123089
 10
-16.184001841663989
 20
-27.361528703004598
 10
-16.042009516463569
 20
-27.316206092968969
 10
-15.88510681286308
 20
-27.25443356698565
 10
-15.516702558482899
 20
-27.08114319505383
 10
-15.05905365456543
 20
-26.840866442964881
 10
-14.64138663013874
 20
-26.6262203665502
 10
-14.27967702367296
 20
-26.46573961890984
 10
-14.11598890935011
 20
-26.405379845594918
 10
-13.961709338127109
 20
-26.358043727131442
 10
-13.81531137287385
 20
-26.32355870440535
 10
-13.675268076460201
 20
-26.30175221830261
 10
-13.540052511756031
 20
-26.292451709709169
 10
-13.408137741631229
 20
-26.295484619510969
 10
-13.27799682895566
 20
-26.310678388593981
 10
-13.1481028365992
 20
-26.337860457844151
 10
-13.016928827431739
 20
-26.37685826814743
 10
-12.882947864323141
 20
-26.427499260389769
 10
-12.60045732776204
 20
-26.56302055423545
 10
-12.404727741174259
 20
-26.676990847133339
 10
-12.222129259569041
 20
-26.80113649916338
 10
-12.056658306201919
 20
-26.931466068080258
 10
-11.91231130432849
 20
-27.06398811163864
 10
-11.793084677204289
 20
-27.19471118759321
 10
-11.70297484808488
 20
-27.319643853698629
 10
-11.645978240225819
 20
-27.4347946677096
 10
-11.631146276536279
 20
-27.487454554477999
 10
-11.626091276882679
 20
-27.536172187380789
 10
-11.61911663623493
 20
-27.58444377774833
 10
-11.598494021651931
 20
-27.627945084608228
 10
-11.564675394174021
 20
-27.66662445899507
 10
-11.518112714841569
 20
-27.700430251943459
 10
-11.45925794469494
 20
-27.729310814487992
 10
-11.38856304477447
 20
-27.753214497663269
 10
-11.21346069977346
 20
-27.78588463004445
 10
-10.9964213681614
 20
-27.798027457363791
 10
-10.74106073826114
 20
-27.789229787898091
 10
-10.45099449839554
 20
-27.759078429924141
 10
-10.129838336887429
 20
-27.707160191718732
 10
-9.7454815088500197
 20
-27.64678186873094
 10
-9.3997999095861822
 20
-27.61825427350955
 10
-9.2401016144643489
 20
-27.61621374717571
 10
-9.0884392789999051
 20
-27.622471000820809
 10
-8.9442686206808482
 20
-27.637137733790631
 10
-8.8070453569951788
 20
-27.660325645430941
 10
-8.6762252054308924
 20
-27.69214643508753
 10
-8.5512638834759898
 20
-27.732711802106181
 10
-8.4316171086184664
 20
-27.78213344583267
 10
-8.3167405983463247
 20
-27.840523065612761
 10
-8.2060900701475621
 20
-27.90799236079226
 10
-8.0991212415101757
 20
-27.98465303071692
 10
-7.9952898299221662
 20
-28.070616774732539
 10
-7.8940515528715309
 20
-28.165995292184888
 10
-7.7423581874483798
 20
-28.324795072726939
 10
-7.6093285641313946
 20
-28.480265109193539
 10
-7.4948013366016886
 20
-28.63424849959312
 10
-7.3986151585403679
 20
-28.788588341934091
 10
-7.320608683628544
 20
-28.945127734224862
 10
-7.2606205655473293
 20
-29.105709774473841
 10
-7.2184894579778316
 20
-29.27217756068945
 10
-7.1940540146011633
 20
-29.4463741908801
 10
-7.1871528890984342
 20
-29.630142763054199
 10
-7.1976247351507556
 20
-29.825326375220151
 10
-7.2253082064392364
 20
-30.033768125386391
 10
-7.2700419566449872
 20
-30.257311111561311
 10
-7.3316646394491194
 20
-30.497798431753338
 10
-7.4100149085327427
 20
-30.757073183970881
 10
-7.5049314175769686
 20
-31.036978466222351
 10
-7.6162528202629076
 20
-31.339357376516151
 10
-7.7376494556005273
 20
-31.68892206249981
 10
-7.7814112174302412
 20
-31.845426575938919
 10
-7.8134595951377772
 20
-31.99180673284588
 10
-7.833477828551052
 20
-32.129608180597941
 10
-7.8411491574979806
 20
-32.260376566572361
 10
-7.8361568218064797
 20
-32.385657538146368
 10
-7.8181840613044642
 20
-32.506996742697233
 10
-7.78691411581985
 20
-32.625939827602167
 10
-7.7420302251805548
 20
-32.74403244023847
 10
-7.6832156292144926
 20
-32.862820227983349
 10
-7.6101535677495784
 20
-32.983848838214072
 10
-7.5225272806137289
 20
-33.108663918307883
 10
-7.4200200076348599
 20
-33.238811115642022
 10
-7.1690954634597261
 20
-33.521284451540303
 10
-6.9658548248715109
 20
-33.749838575146157
 10
-6.7898987841512817
 20
-33.974452155509468
 10
-6.6412343683624808
 20
-34.196128450200561
 10
-6.5198686045685514
 20
-34.415870716789748
 10
-6.4258085198329304
 20
-34.634682212847338
 10
-6.3590611412190636
 20
-34.853566195943642
 10
-6.3196334957903897
 20
-35.073525923648958
 10
-6.3075326106103491
 20
-35.295564653533617
 10
-6.322765512742385
 20
-35.520685643167923
 10
-6.3653392292499387
 20
-35.749892150122157
 10
-6.4352607871964507
 20
-35.984187431966681
 10
-6.5325372136453623
 20
-36.22457474627177
 10
-6.6571755356601141
 20
-36.472057350607741
 10
-6.8091827803041483
 20
-36.727638502544913
 10
-6.9885659746409061
 20
-36.992321459653581
 10
-7.1953321457338291
 20
-37.267109479504072
 10
-8.1304612962231531
 20
-38.455532685073472
 10
14.756192774504941
 20
-38.694209603617153
 10
14.756192774504941
 20
-37.972751400227928
 10
14.74706340771812
 20
-37.888886621499317
 10
14.72027677152243
 20
-37.787022931297223
 10
14.676735062165051
 20
-37.668555166923717
 10
14.61734047589314
 20
-37.534878165680922
 10
14.454601457594389
 20
-37.227475801795727
 10
14.239277286603549
 20
-36.87597453805833
 10
13.978585532897959
 20
-36.491533072885417
 10
13.679743766454971
 20
-36.085310104693697
 10
13.349969557251921
 20
-35.668464331899841
 10
12.99648047526615
 20
-35.252154452920543
 10
12.595390745270519
 20
-34.784858562297011
 10
12.240925576452041
 20
-34.344413641092331
 10
11.932026132728289
 20
-33.925342477340649
 10
11.66763357801686
 20
-33.522167859076127
 10
11.551796497765
 20
-33.32483012576224
 10
11.446689076235311
 20
-33.12941257433296
 10
11.352178958917481
 20
-32.935230553292563
 10
11.26813379130121
 20
-32.741599411145302
 10
11.19442121887621
 20
-32.547834496395467
 10
11.13090888713216
 20
-32.353251157547326
 10
11.07746444155876
 20
-32.157164743105142
 10
11.033955527645711
 20
-31.958890601573199
 10
11.000249790882711
 20
-31.757744081455758
 10
10.97621487675945
 20
-31.553040531257089
 10
10.961718430765639
 20
-31.34409529948147
 10
10.956628098390951
 20
-31.130223734633169
 10
10.960811525125109
 20
-30.91074118521647
 10
10.974136356457789
 20
-30.68496299973561
 10
10.996470237878709
 20
-30.452204526694889
 10
11.02768081487755
 20
-30.21178111459858
 10
11.11620263756779
 20
-29.705200867256249
 10
11.238642988446101
 20
-29.159745045742781
 10
11.393943031430039
 20
-28.569936438092348
 10
11.5810439304372
 20
-27.930297832339129
 10
11.767312372859889
 20
-27.299665041529082
 10
11.95994298524657
 20
-26.614305348096469
 10
12.3420327438853
 20
-25.167159845230248
 10
12.520362902124059
 20
-24.449251331729979
 10
12.682797254300221
 20
-23.764370507473831
 10
12.82377130640714
 20
-23.13445602042848
 10
12.93772056443817
 20
-22.58144651856059
 10
13.493237076615889
 20
-19.757390153034741
 10
13.729792562233429
 20
-18.603880721448132
 10
13.945623836311
 20
-17.606494618454828
 10
14.14578912542933
 20
-16.753064964911651
 10
14.33534665616911
 20
-16.03142488167542
 10
14.427728207953511
 20
-15.71622377919017
 10
14.519354655111041
 20
-15.42940748960296
 10
14.61085827596429
 20
-15.169455153020889
 10
14.70287134883583
 20
-14.934845909551081
 10
14.79602615204826
 20
-14.724058899300619
 10
14.89095496392418
 20
-14.535573262376611
 10
14.988290062786151
 20
-14.367868138886161
 10
15.08866372695678
 20
-14.21942266893636
 10
15.19270823475865
 20
-14.088715992634331
 10
15.30105586451435
 20
-13.97422725008717
 10
15.41433889454647
 20
-13.87443558140197
 10
15.533189603177579
 20
-13.78782012668584
 10
15.658240268730291
 20
-13.712860026045879
 10
15.790123169527179
 20
-13.6480344195892
 10
15.92947058389084
 20
-13.591822447422899
 10
16.076914790143849
 20
-13.542703249654069
 10
16.398622691608281
 20
-13.45965973773728
 10
16.760305100501181
 20
-13.386737004695631
 10
17.09596730961723
 20
-13.308195187410311
 10
17.424560503157831
 20
-13.201754408470141
 10
17.73849773193249
 20
-13.071713934498881
 10
18.03019204675072
 20
-12.92237303212034
 10
18.292056498422021
 20
-12.75803096795827
 10
18.40943160395555
 20
-12.67157802102834
 10
18.516504137755899
 20
-12.582987008636451
 10
18.61232573117428
 20
-12.492795339110559
 10
18.695948015561861
 20
-12.401540420778661
 10
18.76642262226984
 20
-12.309759661968711
 10
18.82280118264941
 20
-12.21799047100868
 10
18.898381490800318
 20
-12.088935430978969
 10
18.980533699021311
 20
-11.971240507872039
 10
19.068768275221871
 20
-11.86477596489409
 10
19.162595687311509
 20
-11.76941206525132
 10
19.26152640319971
 20
-11.68501907214992
 10
19.36507089079598
 20
-11.611467248796099
 10
19.472739618009811
 20
-11.548626858396039
 10
19.58404305275069
 20
-11.496368164155941
 10
19.69849166292812
 20
-11.454561429282011
 10
19.815595916451599
 20
-11.423076916980429
 10
19.934866281230629
 20
-11.4017848904574
 10
20.055813225174681
 20
-11.390555612919121
 10
20.177947216193282
 20
-11.38925934757178
 10
20.300778722195901
 20
-11.39776635762159
 10
20.423818211092051
 20
-11.415946906274741
 10
20.546576150791221
 20
-11.44367125673741
 10
20.668563009202899
 20
-11.48080967221582
 10
20.789289254236589
 20
-11.527232415916149
 10
20.908265353801799
 20
-11.582809751044611
 10
21.025001775808001
 20
-11.64741194080738
 10
21.139008988164711
 20
-11.720909248410679
 10
21.249797458781408
 20
-11.80317193706068
 10
21.35687765556759
 20
-11.89407026996358
 10
21.459760046432759
 20
-11.9934745103256
 10
21.557955099286421
 20
-12.101254921352909
 10
21.650973282038041
 20
-12.21728176625173
 10
21.738325062597148
 20
-12.34142530822823
 10
21.819520908873219
 20
-12.473555810488619
 10
21.894071288775748
 20
-12.613543536239099
 10
21.961486670214239
 20
-12.76125874868586
 10
22.021277521098192
 20
-12.9165717110351
 10
22.072954309337089
 20
-13.07935268649301
 10
22.182996886202019
 20
-13.4198698242918
 10
22.30604331028054
 20
-13.71502083144934
 10
22.37243998433015
 20
-13.845580553700451
 10
22.44208404334945
 20
-13.96479456448661
 10
22.514974295060529
 20
-14.07266147087295
 10
22.591109547185489
 20
-14.1691798799246
 10
22.67048860744643
 20
-14.254348398706661
 10
22.75311028356543
 20
-14.32816563428428
 10
22.838973383264609
 20
-14.39063019372256
 10
22.928076714266041
 20
-14.441740684086639
 10
23.020419084291831
 20
-14.481495712441641
 10
23.115999301064079
 20
-14.509893885852669
 10
23.214816172304872
 20
-14.52693381138487
 10
23.316868505736309
 20
-14.53261409610335
 10
23.483523423967171
 20
-14.54115897900077
 10
23.638997798340061
 20
-14.565648858692439
 10
23.779888854637321
 20
-14.604366581677439
 10
23.90279381864131
 20
-14.65559499445483
 10
24.0043099161344
 20
-14.717616943523719
 10
24.08103437289892
 20
-14.78871527538317
 10
24.12956441471724
 20
-14.867172836532269
 10
24.142193163078559
 20
-14.908624717621411
 10
24.146497267371711
 20
-14.951272473470111
 10
24.158229729748872
 20
-14.988848425654471
 10
24.192654154653141
 20
-15.01541903810965
 10
24.248611098743741
 20
-15.03127088018663
 10
24.324941118679838
 20
-15.036690521236389
 10
24.420484771120659
 20
-15.031964530609891
 10
24.534082612725381
 20
-15.01737947765813
 10
24.81080309006337
 20
-14.959778462182729
 10
25.145827003967369
 20
-14.866180029618
 10
25.52987880771099
 20
-14.73887673477177
 10
25.9536829545678
 20
-14.58016113245187
 10
26.407963897811399
 20
-14.39232577746613
 10
26.689960542986022
 20
-14.262022317337721
 10
26.986613299237629
 20
-14.10869918217022
 10
27.29741441933384
 20
-13.932748859035449
 10
27.621856156042309
 20
-13.734563835005201
 10
27.95943076213068
 20
-13.514536597151309
 10
28.309630490366569
 20
-13.273059632545561
 10
28.671947593517618
 20
-13.01052542825977
 10
29.04587432435148
 20
-12.72732647136576
 10
29.430902935635771
 20
-12.423855248935331
 10
29.82652568013814
 20
-12.100504248040281
 10
30.23223481062621
 20
-11.75766595575244
 10
30.64752257986763
 20
-11.3957328591436
 10
31.071881240630042
 20
-11.015097445285591
 10
31.504803045681069
 20
-10.6161522012502
 10
32.394305099719531
 20
-9.7649021709345476
 10
36.119179671187943
 20
-6.1150836377736937
 10
37.977260384078349
 20
-4.7690968946670216
 10
38.509683757653391
 20
-4.3776817508132391
 10
39.025004016169831
 20
-3.986638907951725
 10
39.526749165515547
 20
-3.5925759033944829
 10
40.018447211578462
 20
-3.1921002744535198
 10
40.503626160246448
 20
-2.7818195584408421
 10
40.985814017407442
 20
-2.3583412926684542
 10
41.468538788949303
 20
-1.9182730144483611
 10
41.955328480759952
 20
-1.4582222610925699
 10
42.449711098727278
 20
-0.9747965699130857
 10
42.955214648739201
 20
-0.4646034782219139
 10
43.475367136683602
 20
0.0757494766689397
 10
44.013696568448381
 20
0.6496547574474695
 10
44.573730949921448
 20
1.2605048268016701
 10
45.158998286990709
 20
1.911692147419535
 10
46.41934385146935
 20
3.3486483931982391
 10
49.688002771431847
 20
7.1250799027773084
 10
49.443761801979697
 20
8.0341135194204583
 10
49.348445827902587
 20
8.424650933388742
 10
49.269473040878012
 20
8.816008026840823
 10
49.215057944019023
 20
9.1627311776934199
 10
49.19341504043868
 20
9.4193667638632519
 10
49.187309248349791
 20
9.8955863916629241
 10
41.362055504294133
 20
16.167855466291812
 10
40.718331775391214
 20
17.379664107733699
 10
40.628425514228383
 20
17.556505983672771
 10
40.549474879488557
 20
17.72899358223642
 10
40.481382909121983
 20
17.8989333822378
 10
40.424052641078902
 20
18.068131862490059
 10
40.377387113309581
 20
18.238395501806341
 10
40.341289363764282
 20
18.411530778999769
 10
40.315662430393253
 20
18.5893441728835
 10
40.300409351146747
 20
18.773642162270669
 10
40.295433163975019
 20
18.966231225974411
 10
40.300636906828331
 20
19.16891784280789
 10
40.315923617656942
 20
19.38350849158423
 10
40.34119633441108
 20
19.61180965111658
 10
40.421311937497038
 20
20.11676941770186
 10
40.540208019688251
 20
20.698248973068871
 10
40.74574685674682
 20
21.573076450549241
 10
40.961195591321719
 20
22.397634633625159
 10
41.160982525346682
 20
23.07917272531682
 10
41.247011661507223
 20
23.337324612837349
 10
41.319535960755431
 20
23.52493992864439
 10
41.351385069769293
 20
23.6156448845047
 10
41.371019698591518
 20
23.713300783177591
 10
41.378523520608219
 20
23.817707628692201
 10
41.373980209205463
 20
23.9286654250777
 10
41.357473437769343
 20
24.04597417636322
 10
41.32908687968596
 20
24.169433886577931
 10
41.288904208341407
 20
24.298844559750989
 10
41.237009097121764
 20
24.434006199911529
 10
41.173485219413138
 20
24.574718811088719
 10
41.098416248601609
 20
24.720782397311702
 10
40.913977721214209
 20
25.028162511011669
 10
40.684362902048314
 20
25.354546573244662
 10
40.410241178192649
 20
25.698334616243901
 10
40.225367009936413
 20
25.92563290052427
 10
40.056755214545333
 20
26.150785961454229
 10
39.903018658764452
 20
26.378451120237219
 10
39.76277020933874
 20
26.613285698076691
 10
39.634622733013202
 20
26.85994701617609
 10
39.517189096532853
 20
27.123092395738851
 10
39.409082166642662
 20
27.407379157968428
 10
39.308914810087657
 20
27.71746462406826
 10
39.215299893612823
 20
28.058006115241799
 10
39.126850283963172
 20
28.43366095269247
 10
39.042178847883683
 20
28.849086457623731
 10
38.959898452119383
 20
29.308939951239019
 10
38.796962248516287
 20
30.38056018933548
 10
38.626944607113899
 20
31.685780236609389
 10
38.458619183371503
 20
33.020585974269608
 10
38.298757746548922
 20
34.227295450664037
 10
38.14573682751773
 20
35.311701125543017
 10
37.997932957149573
 20
36.279595458656978
 10
37.853722666316031
 20
37.136770909756272
 10
37.711482485888709
 20
37.889019938591289
 10
37.569588946739223
 20
38.542135004912417
 10
37.426418579739128
 20
39.101908568470037
 10
37.280347915760068
 20
39.574133089014552
 10
37.205717638300797
 20
39.779224601828879
 10
37.129753485673639
 20
39.964601026296322
 10
37.052252524237531
 20
40.130986419885673
 10
36.973011820351431
 20
40.279104840065727
 10
36.891828440374297
 20
40.409680344305301
 10
36.808499450665053
 20
40.523436990073179
 10
36.722821917582678
 20
40.621098834838158
 10
36.634592907486088
 20
40.703389936069037
 10
36.543609486734283
 20
40.771034351234618
 10
36.44966872168618
 20
40.824756137803703
 10
36.352567678700737
 20
40.865279353245079
 10
36.252103424136891
 20
40.893328055027553
 10
36.148073024353607
 20
40.909626300619919
 10
36.040273545709837
 20
40.914898147490973
 10
35.834320192209198
 20
40.910639925761657
 10
35.620394186572732
 20
40.897938166222097
 10
35.169690925712388
 20
40.847641467602607
 10
34.69029717676915
 20
40.764882919413182
 10
34.184346353383333
 20
40.65053738943449
 10
33.653971869195281
 20
40.505479745447232
 10
33.101307137845318
 20
40.330584855232061
 10
32.528485572973793
 20
40.126727586569693
 10
31.937640588221029
 20
39.894782807240787
 10
31.33090559722736
 20
39.635625385026039
 10
30.710414013633109
 20
39.350130187706128
 10
30.078299251078612
 20
39.039172083061729
 10
29.436694723204202
 20
38.703625938873522
 10
28.787733843650209
 20
38.344366622922188
 10
28.13355002605697
 20
37.962269002988442
 10
27.476276684064821
 20
37.558207946852917
 10
26.818047231314079
 20
37.133058322296321
 10
23.14419230993936
 20
34.702034529218217
 10
21.90303667169248
 20
34.429431022070567
 10
21.737502894371641
 20
34.3978795707676
 10
21.568491689454881
 20
34.37502220850206
 10
21.396337571619309
 20
34.360701602101358
 10
21.22137505554204
 20
34.354760418392921
 10
21.04393865590021
 20
34.357041324204147
 10
20.864362887370909
 20
34.367386986362447
 10
20.500131302358419
 20
34.411643247029929
 10
20.131356417921491
 20
34.486270535014668
 10
19.760714351477059
 20
34.590010184935963
 10
19.390881220442061
 20
34.721603531413102
 10
19.02453314223342
 20
34.879791909065389
 10
18.664346234268081
 20
35.063316652512107
 10
18.312996613962969
 20
35.27091909637258
 10
17.973160398735029
 20
35.50134057526607
 10
17.64751370600117
 20
35.753322423811902
 10
17.338732653178351
 20
36.02560597662935
 10
17.049493357683492
 20
36.31693256833772
 10
16.782471936933511
 20
36.626043533556313
 10
16.65812921628066
 20
36.786874823300472
 10
16.54034450834537
 20
36.951680206904413
 10
16.305814639217729
 20
37.282973150968203
 10
16.034292283206941
 20
37.648488683378758
 10
15.419121826101851
 20
38.434042598023758
 10
15.094899582790489
 20
38.830008522650012
 10
14.7725365681619
 20
39.212052120406632
 10
14.46174571110755
 20
39.568137162489514
 10
14.17223994051891
 20
39.886227420094563
 10
13.74926271235738
 20
40.330633931538713
 10
13.56890212884111
 20
40.509799794597107
 10
13.40526269019249
 20
40.661574305845363
 10
13.255321239780031
 20
40.786932647757702
 10
13.11605462097222
 20
40.886850002808359
 10
12.984439677137569
 20
40.962301553471583
 10
12.857453251644561
 20
41.014262482221582
 10
12.7320721878617
 20
41.043707971532612
 10
12.60527332915748
 20
41.051613203878901
 10
12.4740335189004
 20
41.03895336173467
 10
12.335329600458961
 20
41.006703627574169
 10
12.18613841720166
 20
40.955839183871618
 10
12.023436812496991
 20
40.88733521310126
 10
11.645409712219539
 20
40.701309420254027
 10
11.4728765822579
 20
40.607151580351093
 10
11.292899633128741
 20
40.499521241202743
 10
10.91343739226865
 20
40.246813941119598
 10
10.5126692194408
 20
39.949129271904162
 10
10.096241344446749
 20
39.6124089854559
 10
9.6697999970880666
 20
39.24259483367436
 10
9.2389914071662922
 20
38.845628568459063
 10
8.8094618044829875
 20
38.427451941709514
 10
8.3868574188397034
 20
37.994006705325219
 10
7.9768244800379966
 20
37.551234611205707
 10
7.5850092178794233
 20
37.105077411250512
 10
7.217057862165535
 20
36.661476857359098
 10
6.8786166426978879
 20
36.226374701431041
 10
6.5753317892780361
 20
35.80571269536582
 10
6.3128495317075348
 20
35.405432591062961
 10
6.0968160997879366
 20
35.031476140421987
 10
6.0079821402602143
 20
34.856226082693297
 10
5.9328777233208001
 20
34.689785095342401
 10
5.8484196479752644
 20
34.470315989358397
 10
5.7716659240812582
 20
34.230976207242023
 10
5.7024684052867407
 20
33.969719229426772
 10
5.6406789452396744
 20
33.68449853634614
 10
5.5861493975880183
 20
33.373267608433594
 10
5.5387316159797368
 20
33.033979926122598
 10
5.498277454062789
 20
32.664588969846683
 10
5.4646387654851356
 20
32.263048220039281
 10
5.4376674038947366
 20
31.827311157133909
 10
5.4172152229395589
 20
31.355331261564029
 10
5.3952758175266951
 20
30.294456894164711
 10
5.3976353784302322
 20
29.06405296130918
 10
5.4231087348338596
 20
27.647747306465309
 10
5.5564250179696231
 20
22.135670323303401
 10
3.8738501922672701
 20
20.122771636916099
 10
3.435288643154689
 20
19.6170517208697
 10
3.2291164377372881
 20
19.394630687673441
 10
3.0306934910013381
 20
19.191808565784999
 10
2.8392774623884849
 20
19.008065076271759
 10
2.654126011340372
 20
18.842879940201101
 10
2.4744967972986429
 20
18.695732878640442
 10
2.299647479704944
 20
18.566103612657141
 10
2.1288357180009161
 20
18.453471863318612
 10
1.961319171628205
 20
18.357317351692242
 10
1.7963555000284559
 20
18.277119798845401
 10
1.633202362643311
 20
18.2123589258455
 10
1.4711174189144149
 20
18.162514453759929
 10
1.3093583282834129
 20
18.127066103656059
 10
1.147182750191948
 20
18.105493596601299
 10
0.9838483440816646
 20
18.09727665366302
 10
0.8504112475544582
 20
18.090254685405931
 10
0.7002322425854317
 20
18.072169158726631
 10
0.3562512746744623
 20
18.005101781281841
 10
-0.0348890249461558
 20
17.90066322368957
 10
-0.4599831215713346
 20
17.763442188310709
 10
-0.9058254804959863
 20
17.59802737750616
 10
-1.359210567015023
 20
17.409007493636839
 10
-1.8069328464233569
 20
17.200971239063652
 10
-2.2357867840158998
 20
16.978507316147478
 10
-4.0942049385074402
 20
15.96272994385621
 10
-4.8718345993811498
 20
15.55345887459004
 10
-5.5773487711604446
 20
15.20371421708178
 10
-5.9098447646913197
 20
15.04970679285521
 10
-6.2324505452105514
 20
14.90883197171012
 10
-6.5478789991387876
 20
14.78050675369386
 10
-6.8588430128966866
 20
14.66414813885376
 10
-7.1680554729048964
 20
14.55917312723715
 10
-7.4782292655840727
 20
14.46499871889138
 10
-7.792077277354867
 20
14.381041913863781
 10
-8.1123123946379323
 20
14.306719712201691
 10
-8.4416475038539218
 20
14.24144911395244
 10
-8.7827954914234887
 20
14.184647119163371
 10
-9.1384692437672825
 20
14.135730727881819
 10
-9.5113816473059565
 20
14.09411694015513
 10
-9.9042455884601655
 20
14.05922275603063
 10
-10.319773953650561
 20
14.03046517555565
 10
-11.22967550182253
 20
13.989027825743641
 10
-12.262789383187069
 20
13.965140891097789
 10
-13.44081868910941
 20
13.954140371996781
 10
-16.318435940088381
 20
13.95214258194409
 10
-24.370075945773301
 20
13.95709296364287
 10
-26.251691769435809
 20
14.48060436743336
 10
-26.51127674679104
 20
14.55730455409835
 10
-26.77035790237338
 20
14.642737073677999
 10
-27.028716820844181
 20
14.73671797172636
 10
-27.2861350868648
 20
14.839063293797469
 10
-27.542394285096599
 20
14.949589085445419
 10
-27.797276000200931
 20
15.06811139222423
 10
-28.050561816839139
 20
15.194446259687989
 10
-28.302033319672599
 20
15.32840973339073
 10
-28.79865972257064
 20
15.618486681729429
 10
-29.28540788618589
 20
15.936870601672769
 10
-29.760530487809199
 20
16.282089857653219
 10
-30.222280204731391
 20
16.65267281410323
 10
-30.668909714243298
 20
17.047147835455249
 10
-31.098671693635769
 20
17.464043286141731
 10
-31.509818820199641
 20
17.90188753059514
 10
-31.90060377122575
 20
18.35920893324792
 10
-32.269279224004919
 20
18.834535858532529
 10
-32.614097855828
 20
19.326396670881429
 10
-32.777014825534387
 20
19.578067398590129
 10
-32.933312343985818
 20
19.83331973472707
 10
-33.08277199584365
 20
20.091969724846312
 10
-33.225175365769218
 20
20.353833414501899
 10
-33.610683681848698
 20
21.107596898926509
 10
-33.76971844461174
 20
21.44234800285296
 10
-33.907728424814721
 20
21.75642118967134
 10
-34.025804733175931
 20
22.055373340693532
 10
-34.125038480413657
 20
22.3447613372314
 10
-34.206520777246212
 20
22.630142060596821
 10
-34.27134273439188
 20
22.917072392101659
 10
-34.320595462568953
 20
23.211109213057789
 10
-34.355370072495738
 20
23.5178094047771
 10
-34.376757674890527
 20
23.842729848571459
 10
-34.385849380471598
 20
24.191427425752721
 10
-34.383736299957278
 20
24.569459017632781
 10
-34.371509544065837
 20
24.982381505523499
 10
-34.321079449024808
 20
25.935126694584429
 10
-34.259876238829143
 20
26.686339049124719
 10
-34.172282911672347
 20
27.40969393317544
 10
-34.118794245770317
 20
27.760055195143622
 10
-34.058953200472132
 20
28.102408535141091
 10
-33.9928414923925
 20
28.436406101718429
 10
-33.920540838146152
 20
28.76170004342617
 10
-33.84213295434779
 20
29.0779425088149
 10
-33.757699557612113
 20
29.384785646435169
 10
-33.667322364553847
 20
29.68188160483755
 10
-33.571083091787699
 20
29.968882532572589
 10
-33.469063455928378
 20
30.245440578190848
 10
-33.361345173590593
 20
30.511207890242911
 10
-33.248009961389059
 20
30.765836617279309
 10
-33.129139535938478
 20
31.008978907850629
 10
-32.934178516972487
 20
31.40459165164879
 10
-32.762260761721137
 20
31.783627251159011
 10
-32.616436462706993
 20
32.137077513859552
 10
-32.499755812452598
 20
32.455934247228697
 10
-32.415269003480553
 20
32.73118925874472
 10
-32.366026228313387
 20
32.953834355885903
 10
-32.355574538569947
 20
33.042613126402877
 10
-32.355077679473688
 20
33.11486134613051
 10
-32.364916925089958
 20
33.169452991003567
 10
-32.385473549484047
 20
33.205262036956817
 10
-32.451008597772727
 20
33.248721572352473
 10
-32.539095341181117
 20
33.271709667314902
 10
-32.648714440268641
 20
33.274898817754483
 10
-32.778846555594647
 20
33.258961519581533
 10
-32.928472347718568
 20
33.224570268706387
 10
-33.096572477199793
 20
33.172397561039389
 10
-33.282127604597697
 20
33.103115892490877
 10
-33.4841183904717
 20
33.017397758971157
 10
-33.933329579885537
 20
32.799342080659507
 10
-34.436051329916481
 20
32.523610493387089
 10
-34.984128925039677
 20
32.195582964436589
 10
-35.569407649730309
 20
31.820639461090671
 10
-36.183732788463523
 20
31.40415995063201
 10
-36.818949625714453
 20
30.951524400343281
 10
-37.466903445958302
 20
30.468112777507159
 10
-38.119439533670217
 20
29.9593050494063
 10
-38.76840317332536
 20
29.430481183323391
 10
-39.4056396493989
 20
28.887021146541091
 10
-40.022994246365982
 20
28.33430490634208
 10
-40.612312248701791
 20
27.777712430009029
 10
-43.88698520433806
 20
24.593654624174889
 10
-44.518435954895317
 20
23.39875343062619
 10
-44.68175060748348
 20
23.07325903084779
 10
-44.844890365364343
 20
22.715685557531231
 10
-45.007625587875843
 20
22.327209383792709
 10
-45.169726634355897
 20
21.909006882748439
 10
-45.330963864142461
 20
21.462254427514651
 10
-45.491107636573453
 20
20.98812839120756
 10
-45.649928310986809
 20
20.48780514694338
 10
-45.807196246720451
 20
19.96246106783833
 10
-45.962681803112318
 20
19.413272527008619
 10
-46.116155339500352
 20
18.841415897570482
 10
-46.416147789616574
 20
17.634403865333748
 10
-46.705336471772597
 20
16.350835956057889
 10
-46.981884260671848
 20
15.00012315467262
 10
-47.2439540310178
 20
13.591676446107691
 10
-47.489708657513887
 20
12.13490681529284
 10
-47.717311014863547
 20
10.6392252471578
 10
-47.924923977770263
 20
9.1140427266323147
 10
-48.110710420937437
 20
7.5687702386461222
 10
-48.272833219068559
 20
6.0128187681289571
 10
-48.409455246867061
 20
4.4555993000105598
 10
-48.51873937903639
 20
2.9065228192206689
 10
-48.549922817722759
 20
2.306365733529236
 10
-48.570239187018807
 20
1.6969600717461899
 10
-48.579861718020553
 20
1.0792442185422859
 10
-48.578963641823982
 20
0.4541565585882767
 10
-48.56771818952506
 20
-0.1773645234450829
 10
-48.546298592219813
 20
-0.8143806428870393
 10
-48.514878081004213
 20
-1.455953415066839
 10
-48.473629886974273
 20
-2.1011444553137268
 10
-48.422727241225971
 20
-2.7490153789569511
 10
-48.362343374855307
 20
-3.3986278013257558
 10
-48.292651518958273
 20
-4.0490433377493886
 10
-48.21382490463084
 20
-4.6993236035570938
 10
-48.126036762969044
 20
-5.3485302140781181
 10
-48.02946032506884
 20
-5.995724784641709
 10
-47.924268822026242
 20
-6.6399689305771119
 10
-47.810635484937229
 20
-7.2803242672135724
 10
-47.688733544897808
 20
-7.9158524098803369
 10
-47.558736233003962
 20
-8.5456149739066518
 10
-47.4208167803517
 20
-9.1686735746217636
 10
-47.275148418036991
 20
-9.7840898273549151
 10
-47.121904377155843
 20
-10.39092534743536
 10
-46.961257888804248
 20
-10.98824175019233
 10
-46.793382184078197
 20
-11.57510065095509
 10
-46.618450494073677
 20
-12.15056366505287
 10
-46.436636049886701
 20
-12.71369240781493
 10
-46.24811208261324
 20
-13.263548494570511
 10
-46.0530518233493
 20
-13.799193540648851
 10
-45.851628503190867
 20
-14.3196891613792
 10
-45.644015353233932
 20
-14.82409697209081
 10
-45.430385604574496
 20
-15.311478588112919
 10
-45.210912488308537
 20
-15.78089562477478
 10
-44.985769235532082
 20
-16.231409697405638
 10
-44.579116360752238
 20
-17.0489435208682
 10
-44.393248970552968
 20
-17.447357926147301
 10
-44.219016427254033
 20
-17.838918650846441
 10
-44.056415342435344
 20
-18.223661687756749
 10
-43.905442327676823
 20
-18.601623029669341
 10
-43.766093994558403
 20
-18.972838669375339
 10
-43.63836695466
 20
-19.337344599665869
 10
-43.522257819561553
 20
-19.695176813332051
 10
-43.417763200842963
 20
-20.046371303164999
 10
-43.324879710084161
 20
-20.390964061955859
 10
-43.243603958865087
 20
-20.728991082495721
 10
-43.173932558765642
 20
-21.060488357575739
 10
-43.115862121365772
 20
-21.385491879987011
 10
-43.069389258245373
 20
-21.704037642520671
 10
-43.034510580984367
 20
-22.01616163796783
 10
-43.011222701162723
 20
-22.321899859119618
 10
-42.999522230360313
 20
-22.621288298767169
 10
-42.999405780157083
 20
-22.91436294970158
 10
-43.010869962132951
 20
-23.201159804713999
 10
-43.033911387867853
 20
-23.48171485659552
 10
-43.068526668941693
 20
-23.756064098137291
 10
-43.114712416934402
 20
-24.02424352213043
 10
-43.172465243425897
 20
-24.286289121366039
 10
-43.24178175999613
 20
-24.542236888635259
 10
-43.322658578225003
 20
-24.792122816729201
 10
-43.415092309692419
 20
-25.035982898438998
 10
-43.519079565978338
 20
-25.273853126555771
 10
-43.634616958662662
 20
-25.505769493870631
 10
-43.761701099325322
 20
-25.73176799317471
 10
-43.900328599546242
 20
-25.951884617259129
 10
-44.050496070905332
 20
-26.16615535891501
 10
-45.173885888705392
 20
-27.688824571948011
 10
-44.050496070905332
 20
-28.730490406439969
 10
-43.629162934809507
 20
-29.128968684151271
 10
-43.460613799907541
 20
-29.300089656544721
 10
-43.318980443742518
 20
-29.458065982615189
 10
-43.203390983794137
 20
-29.607098260851568
 10
-43.112973537542153
 20
-29.751387089742749
 10
-43.046856222466232
 20
-29.895133067777611
 10
-43.004167156046137
 20
-30.04253679344502
 10
-42.984034455761567
 20
-30.197798865233882
 10
-42.985586239092271
 20
-30.36511988163306
 10
-43.007950623517942
 20
-30.548700441131441
 10
-43.050255726518309
 20
-30.752741142217911
 10
-43.111629665573091
 20
-30.981442583381341
 10
-43.191200558162024
 20
-31.239005363110621
 10
-43.401445673861168
 20
-31.85751733222224
 10
-43.533487766503598
 20
-32.265907915277239
 10
-43.580812462620898
 20
-32.444493912211527
 10
-43.614919552299789
 20
-32.609012407458309
 10
-43.635244005813433
 20
-32.761717422048577
 10
-43.641220793434947
 20
-32.904862977013309
 10
-43.632284885437507
 20
-33.040703093383478
 10
-43.607871252094263
 20
-33.171491792190068
 10
-43.56741486367833
 20
-33.299483094464073
 10
-43.510350690462893
 20
-33.426931021236442
 10
-43.436113702721073
 20
-33.556089593538182
 10
-43.344138870726027
 20
-33.689212832400273
 10
-43.23386116475092
 20
-33.828554758853677
 10
-43.104715555068879
 20
-33.976369393929389
 10
-42.787560505676581
 20
-34.30643287407166
 10
-42.556838835154757
 20
-34.558552347904573
 10
-42.318165853602032
 20
-34.858552048037907
 10
-42.078440641630458
 20
-35.195232856830557
 10
-41.844562279852198
 20
-35.557395656641368
 10
-41.62342984887934
 20
-35.933841329829207
 10
-41.421942429323977
 20
-36.313370758752953
 10
-41.246999101798259
 20
-36.684784825771459
 10
-41.105498946914267
 20
-37.036884413243612
 10
-40.511661977092459
 20
-38.679111363475059
  0
ENDSEC
  0
SECTION
  2
OBJECTS
  0
DICTIONARY
  5
C
100
AcDbDictionary
280
0
281
1
  3
ACAD_GROUP
350
D
  3
ACAD_LAYOUT
350
1A
  3
ACAD_MLINESTYLE
350
17
  3
ACAD_PLOTSETTINGS
350
19
  3
ACAD_PLOTSTYLENAME
350
E
  3
AcDbVariableDictionary
350
45
  0
DICTIONARY
  5
D
100
AcDbDictionary
280
0
281
1
  0
ACDBDICTIONARYWDFLT
  5
E
100
AcDbDictionary
281
1
  3
Normal
350
F
100
AcDbDictionaryWithDefault
340
F
  0
ACDBPLACEHOLDER
  5
F
  0
DICTIONARY
  5
17
100
AcDbDictionary
280
0
281
1
  3
Standard
350
18
  0
MLINESTYLE
  5
18
100
AcDbMlineStyle
  2
STANDARD
 70
0
  3

 62
256
 51
90.0
 52
90.0
 71
2
 49
0.5
 62
256
  6
BYLAYER
 49
-0.5
 62
256
  6
BYLAYER
  0
DICTIONARY
  5
19
100
AcDbDictionary
280
0
281
1
  0
DICTIONARY
  5
1A
100
AcDbDictionary
281
1
  3
Layout1
350
1E
  3
Layout2
350
26
  3
Model
350
22
  0
LAYOUT
  5
1E
100
AcDbPlotSettings
  1

  2
C:\Program Files\AutoCAD 2002\plotters\DWF ePlot (optimized for plotting).pc3
  4

  6

 40
0.0
 41
0.0
 42
0.0
 43
0.0
 44
0.0
 45
0.0
 46
0.0
 47
0.0
 48
0.0
 49
0.0
140
0.0
141
0.0
142
1.0
143
1.0
 70
688
 72
0
 73
0
 74
5
  7

 75
16
147
1.0
148
0.0
149
0.0
100
AcDbLayout
  1
Layout1
 70
1
 71
1
 10
0.0
 20
0.0
 11
420.0
 21
297.0
 12
0.0
 22
0.0
 32
0.0
 14
100000000000000000000.0
 24
100000000000000000000.0
 34
100000000000000000000.0
 15
-100000000000000000000.0
 25
-100000000000000000000.0
 35
-100000000000000000000.0
146
0.0
 13
0.0
 23
0.0
 33
0.0
 16
1.0
 26
0.0
 36
0.0
 17
0.0
 27
1.0
 37
0.0
 76
0
330
1B
  0
LAYOUT
  5
22
100
AcDbPlotSettings
  1

  2
C:\Program Files\AutoCAD 2002\plotters\DWF ePlot (optimized for plotting).pc3
  4

  6

 40
0.0
 41
0.0
 42
0.0
 43
0.0
 44
0.0
 45
0.0
 46
0.0
 47
0.0
 48
0.0
 49
0.0
140
0.0
141
0.0
142
1.0
143
1.0
 70
1712
 72
0
 73
0
 74
0
  7

 75
0
147
1.0
148
0.0
149
0.0
100
AcDbLayout
  1
Model
 70
1
 71
0
 10
0.0
 20
0.0
 11
12.0
 21
9.0
 12
0.0
 22
0.0
 32
0.0
 14
0.0
 24
0.0
 34
0.0
 15
0.0
 25
0.0
 35
0.0
146
0.0
 13
0.0
 23
0.0
 33
0.0
 16
1.0
 26
0.0
 36
0.0
 17
0.0
 27
1.0
 37
0.0
 76
0
330
1F
  0
LAYOUT
  5
26
100
AcDbPlotSettings
  1

  2
C:\Program Files\AutoCAD 2002\plotters\DWF ePlot (optimized for plotting).pc3
  4

  6

 40
0.0
 41
0.0
 42
0.0
 43
0.0
 44
0.0
 45
0.0
 46
0.0
 47
0.0
 48
0.0
 49
0.0
140
0.0
141
0.0
142
1.0
143
1.0
 70
688
 72
0
 73
0
 74
5
  7

 75
16
147
1.0
148
0.0
149
0.0
100
AcDbLayout
  1
Layout2
 70
1
 71
2
 10
0.0
 20
0.0
 11
12.0
 21
9.0
 12
0.0
 22
0.0
 32
0.0
 14
0.0
 24
0.0
 34
0.0
 15
0.0
 25
0.0
 35
0.0
146
0.0
 13
0.0
 23
0.0
 33
0.0
 16
1.0
 26
0.0
 36
0.0
 17
0.0
 27
1.0
 37
0.0
 76
0
330
23
  0
DICTIONARY
  5
45
100
AcDbDictionary
281
1
  3
DIMASSOC
350
47
  3
HIDETEXT
350
46
  0
DICTIONARYVAR
  5
46
100
DictionaryVariables
280
0
  1
2
  0
DICTIONARYVAR
  5
47
100
DictionaryVariables
280
0
  1
1
  0
ENDSEC
  0
EOF
