solid OpenSCAD_Model
  facet normal -1 -0 -0
    outer loop
      vertex -14 9.55 -23.5
      vertex -14 9.55 -21
      vertex -14 34.55 -23.5
    endloop
  endfacet
  facet normal -1 0 0
    outer loop
      vertex -14 19.55 -21
      vertex -14 9.55 -21
      vertex -14 9.55 7
    endloop
  endfacet
  facet normal -1 0 0
    outer loop
      vertex -14 34.55 -23.5
      vertex -14 9.55 -21
      vertex -14 19.55 -21
    endloop
  endfacet
  facet normal -1 0 0
    outer loop
      vertex -14 34.55 -21
      vertex -14 34.55 -23.5
      vertex -14 19.55 -21
    endloop
  endfacet
  facet normal -1 0 0
    outer loop
      vertex -14 19.55 -21
      vertex -14 9.55 7
      vertex -14 19.55 7
    endloop
  endfacet
  facet normal 0 -1 0
    outer loop
      vertex -14 9.55 -21
      vertex -14 9.55 -23.5
      vertex 14 9.55 -23.5
    endloop
  endfacet
  facet normal 0 -1 0
    outer loop
      vertex 14 9.55 -21
      vertex -14 9.55 -21
      vertex 14 9.55 -23.5
    endloop
  endfacet
  facet normal -0 -0 -1
    outer loop
      vertex -7.15302 26.5637 -23.5
      vertex -14 34.55 -23.5
      vertex 14 9.55 -23.5
    endloop
  endfacet
  facet normal 0 -0 -1
    outer loop
      vertex 6.59806 25.8678 -23.5
      vertex -14 34.55 -23.5
      vertex 14 34.55 -23.5
    endloop
  endfacet
  facet normal 0 -0 -1
    outer loop
      vertex -14 9.55 -23.5
      vertex -14 34.55 -23.5
      vertex -10.2019 25.8678 -23.5
    endloop
  endfacet
  facet normal 0 0 -1
    outer loop
      vertex -14 9.55 -23.5
      vertex -10.2019 25.8678 -23.5
      vertex -10.2019 24.1322 -23.5
    endloop
  endfacet
  facet normal 0 0 -1
    outer loop
      vertex -14 9.55 -23.5
      vertex -10.2019 24.1322 -23.5
      vertex -8.84504 23.0501 -23.5
    endloop
  endfacet
  facet normal -0 0 -1
    outer loop
      vertex -14 9.55 -23.5
      vertex -8.84504 23.0501 -23.5
      vertex 14 9.55 -23.5
    endloop
  endfacet
  facet normal 0 0 -1
    outer loop
      vertex -6.4 25 -23.5
      vertex 14 9.55 -23.5
      vertex -7.15302 23.4363 -23.5
    endloop
  endfacet
  facet normal 0 0 -1
    outer loop
      vertex 7.95496 23.0501 -23.5
      vertex 14 9.55 -23.5
      vertex 6.59806 24.1322 -23.5
    endloop
  endfacet
  facet normal -0 -0 -1
    outer loop
      vertex -8.84504 26.9499 -23.5
      vertex -14 34.55 -23.5
      vertex -7.15302 26.5637 -23.5
    endloop
  endfacet
  facet normal -0 -0 -1
    outer loop
      vertex -6.4 25 -23.5
      vertex -7.15302 26.5637 -23.5
      vertex 14 9.55 -23.5
    endloop
  endfacet
  facet normal 0 -0 -1
    outer loop
      vertex -10.2019 25.8678 -23.5
      vertex -14 34.55 -23.5
      vertex -8.84504 26.9499 -23.5
    endloop
  endfacet
  facet normal 0 0 -1
    outer loop
      vertex 6.59806 24.1322 -23.5
      vertex -14 34.55 -23.5
      vertex 6.59806 25.8678 -23.5
    endloop
  endfacet
  facet normal 0 -0 -1
    outer loop
      vertex 7.95496 26.9499 -23.5
      vertex 6.59806 25.8678 -23.5
      vertex 14 34.55 -23.5
    endloop
  endfacet
  facet normal 0 0 -1
    outer loop
      vertex 14 9.55 -23.5
      vertex -14 34.55 -23.5
      vertex 6.59806 24.1322 -23.5
    endloop
  endfacet
  facet normal -0 0 -1
    outer loop
      vertex 9.64698 26.5637 -23.5
      vertex 14 34.55 -23.5
      vertex 10.4 25 -23.5
    endloop
  endfacet
  facet normal 0 0 -1
    outer loop
      vertex 14 9.55 -23.5
      vertex 7.95496 23.0501 -23.5
      vertex 9.64698 23.4363 -23.5
    endloop
  endfacet
  facet normal 0 0 -1
    outer loop
      vertex 14 9.55 -23.5
      vertex 9.64698 23.4363 -23.5
      vertex 10.4 25 -23.5
    endloop
  endfacet
  facet normal 0 0 -1
    outer loop
      vertex 14 9.55 -23.5
      vertex 10.4 25 -23.5
      vertex 14 34.55 -23.5
    endloop
  endfacet
  facet normal 0 -0 -1
    outer loop
      vertex 9.64698 26.5637 -23.5
      vertex 7.95496 26.9499 -23.5
      vertex 14 34.55 -23.5
    endloop
  endfacet
  facet normal 0 0 -1
    outer loop
      vertex -7.15302 23.4363 -23.5
      vertex 14 9.55 -23.5
      vertex -8.84504 23.0501 -23.5
    endloop
  endfacet
  facet normal 0 1 0
    outer loop
      vertex -14 34.55 -23.5
      vertex -14 34.55 -21
      vertex 14 34.55 -23.5
    endloop
  endfacet
  facet normal 0 1 0
    outer loop
      vertex 14 34.55 -23.5
      vertex -14 34.55 -21
      vertex 14 34.55 -21
    endloop
  endfacet
  facet normal 0 0 1
    outer loop
      vertex 14 34.55 -21
      vertex -2.5 29.55 -21
      vertex 0 29.55 -21
    endloop
  endfacet
  facet normal 0 0 1
    outer loop
      vertex -7.15302 26.5637 -21
      vertex -2.5 29.55 -21
      vertex -14 34.55 -21
    endloop
  endfacet
  facet normal 0 -0 1
    outer loop
      vertex 10.4 25 -21
      vertex 9.64698 23.4363 -21
      vertex 14 19.55 -21
    endloop
  endfacet
  facet normal 0 0 1
    outer loop
      vertex 6.59806 25.8678 -21
      vertex 14 34.55 -21
      vertex 0 29.55 -21
    endloop
  endfacet
  facet normal 0 0 1
    outer loop
      vertex 14 34.55 -21
      vertex -14 34.55 -21
      vertex -2.5 29.55 -21
    endloop
  endfacet
  facet normal 0 -0 1
    outer loop
      vertex -8.84504 23.0501 -21
      vertex -14 19.55 -21
      vertex -2.5 19.55 -21
    endloop
  endfacet
  facet normal 0 -0 1
    outer loop
      vertex -14 34.55 -21
      vertex -14 19.55 -21
      vertex -10.2019 25.8678 -21
    endloop
  endfacet
  facet normal 0 0 1
    outer loop
      vertex 6.59806 24.1322 -21
      vertex 6.59806 25.8678 -21
      vertex 0 29.55 -21
    endloop
  endfacet
  facet normal 0 0 1
    outer loop
      vertex -14 34.55 -21
      vertex -10.2019 25.8678 -21
      vertex -8.84504 26.9499 -21
    endloop
  endfacet
  facet normal 0 0 1
    outer loop
      vertex -2.5 19.55 -21
      vertex -2.5 29.55 -21
      vertex -7.15302 26.5637 -21
    endloop
  endfacet
  facet normal 0 -0 1
    outer loop
      vertex -6.4 25 -21
      vertex -7.15302 23.4363 -21
      vertex -2.5 19.55 -21
    endloop
  endfacet
  facet normal 0 0 1
    outer loop
      vertex -2.5 19.55 -21
      vertex -7.15302 26.5637 -21
      vertex -6.4 25 -21
    endloop
  endfacet
  facet normal 0 -0 1
    outer loop
      vertex -10.2019 24.1322 -21
      vertex -14 19.55 -21
      vertex -8.84504 23.0501 -21
    endloop
  endfacet
  facet normal 0 0 1
    outer loop
      vertex -10.2019 25.8678 -21
      vertex -14 19.55 -21
      vertex -10.2019 24.1322 -21
    endloop
  endfacet
  facet normal -0 0 1
    outer loop
      vertex 7.95496 26.9499 -21
      vertex 14 34.55 -21
      vertex 6.59806 25.8678 -21
    endloop
  endfacet
  facet normal 0 0 1
    outer loop
      vertex 9.64698 26.5637 -21
      vertex 14 34.55 -21
      vertex 7.95496 26.9499 -21
    endloop
  endfacet
  facet normal 0 0 1
    outer loop
      vertex 14 19.55 -21
      vertex 14 34.55 -21
      vertex 9.64698 26.5637 -21
    endloop
  endfacet
  facet normal 0 -0 1
    outer loop
      vertex 9.64698 23.4363 -21
      vertex 7.95496 23.0501 -21
      vertex 14 19.55 -21
    endloop
  endfacet
  facet normal 0 0 1
    outer loop
      vertex 14 19.55 -21
      vertex 9.64698 26.5637 -21
      vertex 10.4 25 -21
    endloop
  endfacet
  facet normal 0 0 1
    outer loop
      vertex 0 19.55 -21
      vertex 14 19.55 -21
      vertex 7.95496 23.0501 -21
    endloop
  endfacet
  facet normal 0 0 1
    outer loop
      vertex 0 19.55 -21
      vertex 6.59806 24.1322 -21
      vertex 0 29.55 -21
    endloop
  endfacet
  facet normal 0 0 1
    outer loop
      vertex 0 19.55 -21
      vertex 7.95496 23.0501 -21
      vertex 6.59806 24.1322 -21
    endloop
  endfacet
  facet normal 0 -0 1
    outer loop
      vertex -7.15302 23.4363 -21
      vertex -8.84504 23.0501 -21
      vertex -2.5 19.55 -21
    endloop
  endfacet
  facet normal 0 0 1
    outer loop
      vertex -8.84504 26.9499 -21
      vertex -7.15302 26.5637 -21
      vertex -14 34.55 -21
    endloop
  endfacet
  facet normal -0 1 -0
    outer loop
      vertex -3.14375 19.55 -2.78512
      vertex -2.5 19.55 -6
      vertex -4.07796 19.55 -1.00513
    endloop
  endfacet
  facet normal 0 1 0
    outer loop
      vertex 4.2 19.55 2.17049e-016
      vertex 1.4634 19.55 13.9233
      vertex 14 19.55 -21
    endloop
  endfacet
  facet normal 0 2.53765e-016 0
    outer loop
      vertex 0 19.55 -21
      vertex 2.5 19.55 -21
      vertex 14 19.55 -21
    endloop
  endfacet
  facet normal 0 1 0
    outer loop
      vertex 2.5 19.55 -21
      vertex 2.5 19.55 -6
      vertex 14 19.55 -21
    endloop
  endfacet
  facet normal 0 1 0
    outer loop
      vertex -14 19.55 -21
      vertex -2.5 19.55 -6
      vertex -2.5 19.55 -21
    endloop
  endfacet
  facet normal 0 1 0
    outer loop
      vertex -14 19.55 -21
      vertex -1.4634 19.55 13.9233
      vertex -4.07796 19.55 1.00513
    endloop
  endfacet
  facet normal 0 1 0
    outer loop
      vertex -14 19.55 -21
      vertex -4.07796 19.55 1.00513
      vertex -4.07796 19.55 -1.00513
    endloop
  endfacet
  facet normal 0 1 0
    outer loop
      vertex -14 19.55 -21
      vertex -4.07796 19.55 -1.00513
      vertex -2.5 19.55 -6
    endloop
  endfacet
  facet normal -0 1 0
    outer loop
      vertex -1.48934 19.55 -3.92707
      vertex -2.5 19.55 -6
      vertex -3.14375 19.55 -2.78512
    endloop
  endfacet
  facet normal 0 1 0
    outer loop
      vertex -3.14375 19.55 2.78512
      vertex -1.4634 19.55 13.9233
      vertex -1.48934 19.55 3.92707
    endloop
  endfacet
  facet normal 0 1 0
    outer loop
      vertex -1.48934 19.55 3.92707
      vertex -1.4634 19.55 13.9233
      vertex 1.4634 19.55 13.9233
    endloop
  endfacet
  facet normal 0 1 0
    outer loop
      vertex 2.38587 19.55 3.45653
      vertex 1.4634 19.55 13.9233
      vertex 3.71892 19.55 1.95184
    endloop
  endfacet
  facet normal 0 1 0
    outer loop
      vertex 2.5 19.55 -6
      vertex 2.38587 19.55 -3.45653
      vertex 14 19.55 -21
    endloop
  endfacet
  facet normal 0 1 0
    outer loop
      vertex 0.506254 19.55 4.16938
      vertex 1.4634 19.55 13.9233
      vertex 2.38587 19.55 3.45653
    endloop
  endfacet
  facet normal 0 1 0
    outer loop
      vertex 2.38587 19.55 -3.45653
      vertex 3.71892 19.55 -1.95184
      vertex 14 19.55 -21
    endloop
  endfacet
  facet normal 0 1 0
    outer loop
      vertex 3.71892 19.55 1.95184
      vertex 1.4634 19.55 13.9233
      vertex 4.2 19.55 2.17049e-016
    endloop
  endfacet
  facet normal 0 1 0
    outer loop
      vertex 3.71892 19.55 -1.95184
      vertex 4.2 19.55 2.17049e-016
      vertex 14 19.55 -21
    endloop
  endfacet
  facet normal 0 1 0
    outer loop
      vertex -4.07796 19.55 1.00513
      vertex -1.4634 19.55 13.9233
      vertex -3.14375 19.55 2.78512
    endloop
  endfacet
  facet normal 0 1 0
    outer loop
      vertex -1.48934 19.55 3.92707
      vertex 1.4634 19.55 13.9233
      vertex 0.506254 19.55 4.16938
    endloop
  endfacet
  facet normal 0 1 -0
    outer loop
      vertex 2.38587 19.55 -3.45653
      vertex 2.5 19.55 -6
      vertex 0.506254 19.55 -4.16938
    endloop
  endfacet
  facet normal 0 1 0
    outer loop
      vertex -2.5 19.55 -6
      vertex -1.48934 19.55 -3.92707
      vertex 0.506254 19.55 -4.16938
    endloop
  endfacet
  facet normal 0 1 0
    outer loop
      vertex -2.5 19.55 -6
      vertex 0.506254 19.55 -4.16938
      vertex 2.5 19.55 -6
    endloop
  endfacet
  facet normal 0 1 0
    outer loop
      vertex -1.4634 19.55 13.9233
      vertex -14 19.55 -21
      vertex -4.32624 19.55 13.3148
    endloop
  endfacet
  facet normal 0 1 0
    outer loop
      vertex -4.32624 19.55 13.3148
      vertex -14 19.55 -21
      vertex -7 19.55 12.1244
    endloop
  endfacet
  facet normal 0 1 0
    outer loop
      vertex -7 19.55 12.1244
      vertex -14 19.55 -21
      vertex -9.36783 19.55 10.404
    endloop
  endfacet
  facet normal 0 1 0
    outer loop
      vertex -9.36783 19.55 10.404
      vertex -14 19.55 -21
      vertex -11.3262 19.55 8.22899
    endloop
  endfacet
  facet normal 0 1 0
    outer loop
      vertex -11.3262 19.55 8.22899
      vertex -14 19.55 -21
      vertex -12.7896 19.55 5.69431
    endloop
  endfacet
  facet normal 0 1 0
    outer loop
      vertex -12.7896 19.55 5.69431
      vertex -14 19.55 -21
      vertex -13.6941 19.55 2.91076
    endloop
  endfacet
  facet normal -0 1 0
    outer loop
      vertex -13.6941 19.55 2.91076
      vertex -14 19.55 -21
      vertex -14 19.55 7
    endloop
  endfacet
  facet normal 0 1 0
    outer loop
      vertex -12.7896 19.55 5.69431
      vertex -14 19.55 7
      vertex -11.3262 19.55 8.22899
    endloop
  endfacet
  facet normal -0 1 0
    outer loop
      vertex -11.3262 19.55 8.22899
      vertex -14 19.55 7
      vertex -9.36783 19.55 10.404
    endloop
  endfacet
  facet normal -0.592167 1.43142e-016 0.805815
    outer loop
      vertex -9.36783 19.55 10.404
      vertex -14 19.55 7
      vertex -9.36783 9.55 10.404
    endloop
  endfacet
  facet normal -0.592167 0 0.805815
    outer loop
      vertex -14 19.55 7
      vertex -14 9.55 7
      vertex -9.36783 9.55 10.404
    endloop
  endfacet
  facet normal 0 1 0
    outer loop
      vertex -13.6941 19.55 2.91076
      vertex -14 19.55 7
      vertex -12.7896 19.55 5.69431
    endloop
  endfacet
  facet normal -8.13776e-017 -1 1.21038e-016
    outer loop
      vertex -4.07796 9.55 -1.00513
      vertex -14 9.55 7
      vertex -1.4634 9.55 -13.9233
    endloop
  endfacet
  facet normal 0 -1 1.69797e-016
    outer loop
      vertex 1.4634 9.55 -13.9233
      vertex 14 9.55 7
      vertex -1.4634 9.55 -13.9233
    endloop
  endfacet
  facet normal 4.26453e-016 -1 2.2382e-016
    outer loop
      vertex -3.14375 9.55 -2.78512
      vertex -4.07796 9.55 -1.00513
      vertex -1.4634 9.55 -13.9233
    endloop
  endfacet
  facet normal -1.79031e-016 -1 0
    outer loop
      vertex -4.07796 9.55 1.00513
      vertex -14 9.55 7
      vertex -4.07796 9.55 -1.00513
    endloop
  endfacet
  facet normal -3.2753e-016 -1 2.90167e-016
    outer loop
      vertex 3.71892 9.55 -1.95184
      vertex 2.38587 9.55 -3.45653
      vertex -1.4634 9.55 -13.9233
    endloop
  endfacet
  facet normal -1.35928e-016 -1 7.13403e-017
    outer loop
      vertex -3.14375 9.55 2.78512
      vertex -14 9.55 7
      vertex -4.07796 9.55 1.00513
    endloop
  endfacet
  facet normal -1.04722e-016 -1 1.51716e-016
    outer loop
      vertex -1.48934 9.55 3.92707
      vertex -14 9.55 7
      vertex -3.14375 9.55 2.78512
    endloop
  endfacet
  facet normal 0 -1 5.78066e-016
    outer loop
      vertex 14 9.55 7
      vertex -14 9.55 7
      vertex -1.48934 9.55 3.92707
    endloop
  endfacet
  facet normal -1.80918e-016 -1 1.48999e-015
    outer loop
      vertex 14 9.55 7
      vertex -1.48934 9.55 3.92707
      vertex 0.506254 9.55 4.16938
    endloop
  endfacet
  facet normal -7.4796e-017 -1 1.97221e-016
    outer loop
      vertex 2.38587 9.55 -3.45653
      vertex 0.506254 9.55 -4.16938
      vertex -1.4634 9.55 -13.9233
    endloop
  endfacet
  facet normal 1.54126e-016 -1 3.79887e-017
    outer loop
      vertex 14 9.55 7
      vertex 3.71892 9.55 1.95184
      vertex 4.2 9.55 2.43749e-015
    endloop
  endfacet
  facet normal 6.99446e-017 -1 1.18104e-016
    outer loop
      vertex 14 9.55 7
      vertex 3.71892 9.55 -1.95184
      vertex -1.4634 9.55 -13.9233
    endloop
  endfacet
  facet normal 2.19992e-016 -1 -5.42231e-017
    outer loop
      vertex 14 9.55 7
      vertex 4.2 9.55 2.43749e-015
      vertex 3.71892 9.55 -1.95184
    endloop
  endfacet
  facet normal 2.15837e-017 -1 1.77759e-016
    outer loop
      vertex 0.506254 9.55 -4.16938
      vertex -1.48934 9.55 -3.92707
      vertex -1.4634 9.55 -13.9233
    endloop
  endfacet
  facet normal 1.22879e-016 -1 1.78021e-016
    outer loop
      vertex -1.48934 9.55 -3.92707
      vertex -3.14375 9.55 -2.78512
      vertex -1.4634 9.55 -13.9233
    endloop
  endfacet
  facet normal 8.476e-017 -1 2.23494e-016
    outer loop
      vertex 0.506254 9.55 4.16938
      vertex 2.38587 9.55 3.45653
      vertex 14 9.55 7
    endloop
  endfacet
  facet normal 1.20403e-016 -1 1.06668e-016
    outer loop
      vertex 2.38587 9.55 3.45653
      vertex 3.71892 9.55 1.95184
      vertex 14 9.55 7
    endloop
  endfacet
  facet normal 4.13588e-017 -1 1.94578e-016
    outer loop
      vertex -1.4634 9.55 -13.9233
      vertex -14 9.55 7
      vertex -4.32624 9.55 -13.3148
    endloop
  endfacet
  facet normal 9.88127e-017 -1 2.21937e-016
    outer loop
      vertex -4.32624 9.55 -13.3148
      vertex -14 9.55 7
      vertex -7 9.55 -12.1244
    endloop
  endfacet
  facet normal 1.83865e-016 -1 2.53068e-016
    outer loop
      vertex -7 9.55 -12.1244
      vertex -14 9.55 7
      vertex -9.36783 9.55 -10.404
    endloop
  endfacet
  facet normal 3.21848e-016 -1 2.89793e-016
    outer loop
      vertex -9.36783 9.55 -10.404
      vertex -14 9.55 7
      vertex -11.3262 9.55 -8.22899
    endloop
  endfacet
  facet normal -1.16366e-015 -1 2.89819e-017
    outer loop
      vertex -11.3262 9.55 -8.22899
      vertex -14 9.55 7
      vertex -12.7896 9.55 -5.69431
    endloop
  endfacet
  facet normal 6.09538e-016 -1 1.98051e-016
    outer loop
      vertex -12.7896 9.55 -5.69431
      vertex -14 9.55 7
      vertex -13.6941 9.55 -2.91076
    endloop
  endfacet
  facet normal -5.80634e-015 -1 0
    outer loop
      vertex -14 9.55 7
      vertex -14 9.55 -21
      vertex -13.6941 9.55 -2.91076
    endloop
  endfacet
  facet normal -3.3472e-014 -1 4.60703e-014
    outer loop
      vertex -9.36783 9.55 10.404
      vertex -14 9.55 7
      vertex -7 9.55 12.1244
    endloop
  endfacet
  facet normal -3.93915e-016 -1 8.84747e-016
    outer loop
      vertex -7 9.55 12.1244
      vertex -14 9.55 7
      vertex -4.32624 9.55 13.3148
    endloop
  endfacet
  facet normal -8.86628e-017 -1 4.17125e-016
    outer loop
      vertex -4.32624 9.55 13.3148
      vertex -14 9.55 7
      vertex -1.4634 9.55 13.9233
    endloop
  endfacet
  facet normal 2.8953e-034 -1 2.56576e-016
    outer loop
      vertex -1.4634 9.55 13.9233
      vertex -14 9.55 7
      vertex 14 9.55 7
    endloop
  endfacet
  facet normal 0 -1 2.56576e-016
    outer loop
      vertex 1.4634 9.55 13.9233
      vertex -1.4634 9.55 13.9233
      vertex 14 9.55 7
    endloop
  endfacet
  facet normal -2.87274e-016 -1 -9.33411e-017
    outer loop
      vertex -13.6941 9.55 -2.91076
      vertex -14 9.55 -21
      vertex -12.7896 9.55 -5.69431
    endloop
  endfacet
  facet normal -1.24443e-015 -1 -1.765e-017
    outer loop
      vertex -12.7896 9.55 -5.69431
      vertex -14 9.55 -21
      vertex -11.3262 9.55 -8.22899
    endloop
  endfacet
  facet normal -2.50671e-016 -1 -2.25705e-016
    outer loop
      vertex -11.3262 9.55 -8.22899
      vertex -14 9.55 -21
      vertex -9.36783 9.55 -10.404
    endloop
  endfacet
  facet normal -1.8488e-016 -1 -2.54466e-016
    outer loop
      vertex -9.36783 9.55 -10.404
      vertex -14 9.55 -21
      vertex -7 9.55 -12.1244
    endloop
  endfacet
  facet normal -1.31899e-016 -1 -2.96251e-016
    outer loop
      vertex -7 9.55 -12.1244
      vertex -14 9.55 -21
      vertex -4.32624 9.55 -13.3148
    endloop
  endfacet
  facet normal -7.75197e-017 -1 -3.64701e-016
    outer loop
      vertex -4.32624 9.55 -13.3148
      vertex -14 9.55 -21
      vertex -1.4634 9.55 -13.9233
    endloop
  endfacet
  facet normal -2.17888e-035 -1 -5.0203e-016
    outer loop
      vertex -1.4634 9.55 -13.9233
      vertex -14 9.55 -21
      vertex 14 9.55 -21
    endloop
  endfacet
  facet normal 0 -1 -5.0203e-016
    outer loop
      vertex 1.4634 9.55 -13.9233
      vertex -1.4634 9.55 -13.9233
      vertex 14 9.55 -21
    endloop
  endfacet
  facet normal 7.75197e-017 -1 -3.64701e-016
    outer loop
      vertex 4.32624 9.55 -13.3148
      vertex 1.4634 9.55 -13.9233
      vertex 14 9.55 -21
    endloop
  endfacet
  facet normal 1.31899e-016 -1 -2.96251e-016
    outer loop
      vertex 7 9.55 -12.1244
      vertex 4.32624 9.55 -13.3148
      vertex 14 9.55 -21
    endloop
  endfacet
  facet normal 1.8488e-016 -1 -2.54466e-016
    outer loop
      vertex 9.36783 9.55 -10.404
      vertex 7 9.55 -12.1244
      vertex 14 9.55 -21
    endloop
  endfacet
  facet normal 2.50671e-016 -1 -2.25705e-016
    outer loop
      vertex 11.3262 9.55 -8.22899
      vertex 9.36783 9.55 -10.404
      vertex 14 9.55 -21
    endloop
  endfacet
  facet normal 1.24443e-015 -1 -1.765e-017
    outer loop
      vertex 12.7896 9.55 -5.69431
      vertex 11.3262 9.55 -8.22899
      vertex 14 9.55 -21
    endloop
  endfacet
  facet normal 2.87274e-016 -1 -9.33411e-017
    outer loop
      vertex 13.6941 9.55 -2.91076
      vertex 12.7896 9.55 -5.69431
      vertex 14 9.55 -21
    endloop
  endfacet
  facet normal 5.80634e-015 -1 0
    outer loop
      vertex 14 9.55 7
      vertex 13.6941 9.55 -2.91076
      vertex 14 9.55 -21
    endloop
  endfacet
  facet normal 1 0 -0
    outer loop
      vertex 14 9.55 -21
      vertex 14 9.55 -23.5
      vertex 14 34.55 -23.5
    endloop
  endfacet
  facet normal 1 0 0
    outer loop
      vertex 14 19.55 7
      vertex 14 9.55 -21
      vertex 14 19.55 -21
    endloop
  endfacet
  facet normal 1 0 -0
    outer loop
      vertex 14 19.55 -21
      vertex 14 9.55 -21
      vertex 14 34.55 -23.5
    endloop
  endfacet
  facet normal 1 0 0
    outer loop
      vertex 14 34.55 -21
      vertex 14 19.55 -21
      vertex 14 34.55 -23.5
    endloop
  endfacet
  facet normal 1 0 0
    outer loop
      vertex 14 19.55 7
      vertex 14 9.55 7
      vertex 14 9.55 -21
    endloop
  endfacet
  facet normal 0.62349 -0.781831 0
    outer loop
      vertex -8.84504 26.9499 -23.5
      vertex -8.84504 26.9499 -21
      vertex -10.2019 25.8678 -21
    endloop
  endfacet
  facet normal 0.62349 -0.781831 0
    outer loop
      vertex -10.2019 25.8678 -23.5
      vertex -8.84504 26.9499 -23.5
      vertex -10.2019 25.8678 -21
    endloop
  endfacet
  facet normal 1 0 0
    outer loop
      vertex -10.2019 25.8678 -23.5
      vertex -10.2019 25.8678 -21
      vertex -10.2019 24.1322 -21
    endloop
  endfacet
  facet normal 1 0 0
    outer loop
      vertex -10.2019 24.1322 -23.5
      vertex -10.2019 25.8678 -23.5
      vertex -10.2019 24.1322 -21
    endloop
  endfacet
  facet normal -0.222521 -0.974928 -0
    outer loop
      vertex -7.15302 26.5637 -23.5
      vertex -7.15302 26.5637 -21
      vertex -8.84504 26.9499 -21
    endloop
  endfacet
  facet normal -0.222521 -0.974928 -0
    outer loop
      vertex -8.84504 26.9499 -23.5
      vertex -7.15302 26.5637 -23.5
      vertex -8.84504 26.9499 -21
    endloop
  endfacet
  facet normal -0.900969 -0.433884 0
    outer loop
      vertex -6.4 25 -21
      vertex -7.15302 26.5637 -21
      vertex -6.4 25 -23.5
    endloop
  endfacet
  facet normal -0.900969 -0.433884 0
    outer loop
      vertex -6.4 25 -23.5
      vertex -7.15302 26.5637 -21
      vertex -7.15302 26.5637 -23.5
    endloop
  endfacet
  facet normal -0.900969 0.433884 0
    outer loop
      vertex -6.4 25 -21
      vertex -6.4 25 -23.5
      vertex -7.15302 23.4363 -21
    endloop
  endfacet
  facet normal -0.900969 0.433884 0
    outer loop
      vertex -7.15302 23.4363 -21
      vertex -6.4 25 -23.5
      vertex -7.15302 23.4363 -23.5
    endloop
  endfacet
  facet normal -0.222521 0.974928 0
    outer loop
      vertex -7.15302 23.4363 -21
      vertex -7.15302 23.4363 -23.5
      vertex -8.84504 23.0501 -21
    endloop
  endfacet
  facet normal -0.222521 0.974928 0
    outer loop
      vertex -8.84504 23.0501 -21
      vertex -7.15302 23.4363 -23.5
      vertex -8.84504 23.0501 -23.5
    endloop
  endfacet
  facet normal 0.62349 0.781831 -0
    outer loop
      vertex -8.84504 23.0501 -21
      vertex -8.84504 23.0501 -23.5
      vertex -10.2019 24.1322 -21
    endloop
  endfacet
  facet normal 0.62349 0.781831 -0
    outer loop
      vertex -10.2019 24.1322 -21
      vertex -8.84504 23.0501 -23.5
      vertex -10.2019 24.1322 -23.5
    endloop
  endfacet
  facet normal 0.62349 -0.781831 0
    outer loop
      vertex 7.95496 26.9499 -23.5
      vertex 7.95496 26.9499 -21
      vertex 6.59806 25.8678 -21
    endloop
  endfacet
  facet normal 0.62349 -0.781831 0
    outer loop
      vertex 6.59806 25.8678 -23.5
      vertex 7.95496 26.9499 -23.5
      vertex 6.59806 25.8678 -21
    endloop
  endfacet
  facet normal 1 0 0
    outer loop
      vertex 6.59806 25.8678 -23.5
      vertex 6.59806 25.8678 -21
      vertex 6.59806 24.1322 -21
    endloop
  endfacet
  facet normal 1 0 0
    outer loop
      vertex 6.59806 24.1322 -23.5
      vertex 6.59806 25.8678 -23.5
      vertex 6.59806 24.1322 -21
    endloop
  endfacet
  facet normal -0.222521 -0.974928 -0
    outer loop
      vertex 9.64698 26.5637 -23.5
      vertex 9.64698 26.5637 -21
      vertex 7.95496 26.9499 -21
    endloop
  endfacet
  facet normal -0.222521 -0.974928 -0
    outer loop
      vertex 7.95496 26.9499 -23.5
      vertex 9.64698 26.5637 -23.5
      vertex 7.95496 26.9499 -21
    endloop
  endfacet
  facet normal -0.900969 -0.433884 0
    outer loop
      vertex 10.4 25 -21
      vertex 9.64698 26.5637 -21
      vertex 10.4 25 -23.5
    endloop
  endfacet
  facet normal -0.900969 -0.433884 0
    outer loop
      vertex 10.4 25 -23.5
      vertex 9.64698 26.5637 -21
      vertex 9.64698 26.5637 -23.5
    endloop
  endfacet
  facet normal -0.900969 0.433884 0
    outer loop
      vertex 10.4 25 -21
      vertex 10.4 25 -23.5
      vertex 9.64698 23.4363 -21
    endloop
  endfacet
  facet normal -0.900969 0.433884 0
    outer loop
      vertex 9.64698 23.4363 -21
      vertex 10.4 25 -23.5
      vertex 9.64698 23.4363 -23.5
    endloop
  endfacet
  facet normal -0.222521 0.974928 0
    outer loop
      vertex 9.64698 23.4363 -21
      vertex 9.64698 23.4363 -23.5
      vertex 7.95496 23.0501 -21
    endloop
  endfacet
  facet normal -0.222521 0.974928 0
    outer loop
      vertex 7.95496 23.0501 -21
      vertex 9.64698 23.4363 -23.5
      vertex 7.95496 23.0501 -23.5
    endloop
  endfacet
  facet normal 0.62349 0.781831 -0
    outer loop
      vertex 7.95496 23.0501 -21
      vertex 7.95496 23.0501 -23.5
      vertex 6.59806 24.1322 -21
    endloop
  endfacet
  facet normal 0.62349 0.781831 -0
    outer loop
      vertex 6.59806 24.1322 -21
      vertex 7.95496 23.0501 -23.5
      vertex 6.59806 24.1322 -23.5
    endloop
  endfacet
  facet normal -1 -0 -1.18424e-016
    outer loop
      vertex -2.5 19.55 -21
      vertex -2.5 19.55 -6
      vertex -2.5 29.55 -21
    endloop
  endfacet
  facet normal 0 1 0
    outer loop
      vertex 14 19.55 -21
      vertex 13.6941 19.55 2.91076
      vertex 14 19.55 7
    endloop
  endfacet
  facet normal 0 1 0
    outer loop
      vertex 14 19.55 -21
      vertex 12.7896 19.55 5.69431
      vertex 13.6941 19.55 2.91076
    endloop
  endfacet
  facet normal 0 1 0
    outer loop
      vertex 14 19.55 -21
      vertex 11.3262 19.55 8.22899
      vertex 12.7896 19.55 5.69431
    endloop
  endfacet
  facet normal 0 1 0
    outer loop
      vertex 14 19.55 -21
      vertex 9.36783 19.55 10.404
      vertex 11.3262 19.55 8.22899
    endloop
  endfacet
  facet normal 0 1 0
    outer loop
      vertex 14 19.55 -21
      vertex 7 19.55 12.1244
      vertex 9.36783 19.55 10.404
    endloop
  endfacet
  facet normal 0 1 0
    outer loop
      vertex 14 19.55 -21
      vertex 4.32624 19.55 13.3148
      vertex 7 19.55 12.1244
    endloop
  endfacet
  facet normal 0 1 0
    outer loop
      vertex 14 19.55 -21
      vertex 1.4634 19.55 13.9233
      vertex 4.32624 19.55 13.3148
    endloop
  endfacet
  facet normal 1.42109e-015 0 -1
    outer loop
      vertex 0 19.55 -21
      vertex 0 29.55 -21
      vertex 2.5 19.55 -21
    endloop
  endfacet
  facet normal 1.42109e-015 0 -1
    outer loop
      vertex 2.5 19.55 -21
      vertex 0 29.55 -21
      vertex 2.5 29.55 -21
    endloop
  endfacet
  facet normal -9.85345e-017 0.83205 0.5547
    outer loop
      vertex -2.5 19.55 -6
      vertex 2.5 19.55 -6
      vertex -2.5 29.55 -21
    endloop
  endfacet
  facet normal -9.85345e-016 0.83205 0.5547
    outer loop
      vertex -2.5 29.55 -21
      vertex 2.5 19.55 -6
      vertex 2.5 29.55 -21
    endloop
  endfacet
  facet normal -5.04871e-031 3.55271e-016 3.55271e-016
    outer loop
      vertex -2.5 29.55 -21
      vertex 2.5 29.55 -21
      vertex 0 29.55 -21
    endloop
  endfacet
  facet normal 1 -0 1.4803e-016
    outer loop
      vertex 2.5 29.55 -21
      vertex 2.5 19.55 -6
      vertex 2.5 19.55 -21
    endloop
  endfacet
  facet normal 0.207912 1.73754e-016 0.978148
    outer loop
      vertex 1.4634 19.55 13.9233
      vertex 1.4634 9.55 13.9233
      vertex 4.32624 9.55 13.3148
    endloop
  endfacet
  facet normal 0.207912 1.73754e-016 0.978148
    outer loop
      vertex 4.32624 19.55 13.3148
      vertex 1.4634 19.55 13.9233
      vertex 4.32624 9.55 13.3148
    endloop
  endfacet
  facet normal 0 1.77636e-016 1
    outer loop
      vertex -1.4634 19.55 13.9233
      vertex -1.4634 9.55 13.9233
      vertex 1.4634 9.55 13.9233
    endloop
  endfacet
  facet normal -0 1.77636e-016 1
    outer loop
      vertex 1.4634 19.55 13.9233
      vertex -1.4634 19.55 13.9233
      vertex 1.4634 9.55 13.9233
    endloop
  endfacet
  facet normal -0.207912 1.73754e-016 0.978148
    outer loop
      vertex -4.32624 19.55 13.3148
      vertex -4.32624 9.55 13.3148
      vertex -1.4634 9.55 13.9233
    endloop
  endfacet
  facet normal -0.207912 1.73754e-016 0.978148
    outer loop
      vertex -1.4634 19.55 13.9233
      vertex -4.32624 19.55 13.3148
      vertex -1.4634 9.55 13.9233
    endloop
  endfacet
  facet normal 0.885456 -1.03182e-016 -0.464723
    outer loop
      vertex -4.07796 19.55 1.00513
      vertex -3.14375 19.55 2.78512
      vertex -3.14375 9.55 2.78512
    endloop
  endfacet
  facet normal 0.885456 -1.03189e-016 -0.464723
    outer loop
      vertex -4.07796 9.55 1.00513
      vertex -4.07796 19.55 1.00513
      vertex -3.14375 9.55 2.78512
    endloop
  endfacet
  facet normal 1 0 0
    outer loop
      vertex -4.07796 19.55 -1.00513
      vertex -4.07796 19.55 1.00513
      vertex -4.07796 9.55 1.00513
    endloop
  endfacet
  facet normal 1 0 0
    outer loop
      vertex -4.07796 9.55 -1.00513
      vertex -4.07796 19.55 -1.00513
      vertex -4.07796 9.55 1.00513
    endloop
  endfacet
  facet normal 0.568065 -1.82739e-016 -0.822984
    outer loop
      vertex -1.48934 19.55 3.92707
      vertex -1.48934 9.55 3.92707
      vertex -3.14375 19.55 2.78512
    endloop
  endfacet
  facet normal 0.568065 -1.82739e-016 -0.822984
    outer loop
      vertex -3.14375 19.55 2.78512
      vertex -1.48934 9.55 3.92707
      vertex -3.14375 9.55 2.78512
    endloop
  endfacet
  facet normal 0.120536 -1.76341e-016 -0.992709
    outer loop
      vertex 0.506254 19.55 4.16938
      vertex 0.506254 9.55 4.16938
      vertex -1.48934 19.55 3.92707
    endloop
  endfacet
  facet normal 0.120536 -2.20426e-016 -0.992709
    outer loop
      vertex -1.48934 19.55 3.92707
      vertex 0.506254 9.55 4.16938
      vertex -1.48934 9.55 3.92707
    endloop
  endfacet
  facet normal -0.354605 -2.07615e-016 -0.935016
    outer loop
      vertex 2.38587 19.55 3.45653
      vertex 2.38587 9.55 3.45653
      vertex 0.506254 19.55 4.16938
    endloop
  endfacet
  facet normal -0.354605 -1.66092e-016 -0.935016
    outer loop
      vertex 0.506254 19.55 4.16938
      vertex 2.38587 9.55 3.45653
      vertex 0.506254 9.55 4.16938
    endloop
  endfacet
  facet normal -0.748511 -1.47243e-016 -0.663123
    outer loop
      vertex 3.71892 19.55 1.95184
      vertex 3.71892 9.55 1.95184
      vertex 2.38587 19.55 3.45653
    endloop
  endfacet
  facet normal -0.748511 -1.47243e-016 -0.663123
    outer loop
      vertex 2.38587 19.55 3.45653
      vertex 3.71892 9.55 1.95184
      vertex 2.38587 9.55 3.45653
    endloop
  endfacet
  facet normal -0.970942 -5.31388e-017 -0.239316
    outer loop
      vertex 4.2 19.55 2.17049e-016
      vertex 4.2 9.55 2.43749e-015
      vertex 3.71892 19.55 1.95184
    endloop
  endfacet
  facet normal -0.970942 -5.31388e-017 -0.239316
    outer loop
      vertex 3.71892 19.55 1.95184
      vertex 4.2 9.55 2.43749e-015
      vertex 3.71892 9.55 1.95184
    endloop
  endfacet
  facet normal -0.970942 5.31388e-017 0.239316
    outer loop
      vertex 4.2 19.55 2.17049e-016
      vertex 3.71892 19.55 -1.95184
      vertex 4.2 9.55 2.43749e-015
    endloop
  endfacet
  facet normal -0.970942 5.31373e-017 0.239316
    outer loop
      vertex 4.2 9.55 2.43749e-015
      vertex 3.71892 19.55 -1.95184
      vertex 3.71892 9.55 -1.95184
    endloop
  endfacet
  facet normal -0.748511 1.47243e-016 0.663123
    outer loop
      vertex 3.71892 19.55 -1.95184
      vertex 2.38587 19.55 -3.45653
      vertex 3.71892 9.55 -1.95184
    endloop
  endfacet
  facet normal -0.748511 1.47239e-016 0.663123
    outer loop
      vertex 3.71892 9.55 -1.95184
      vertex 2.38587 19.55 -3.45653
      vertex 2.38587 9.55 -3.45653
    endloop
  endfacet
  facet normal -0.354605 2.07615e-016 0.935016
    outer loop
      vertex 2.38587 9.55 -3.45653
      vertex 2.38587 19.55 -3.45653
      vertex 0.506254 19.55 -4.16938
    endloop
  endfacet
  facet normal -0.354605 1.66092e-016 0.935016
    outer loop
      vertex 0.506254 9.55 -4.16938
      vertex 2.38587 9.55 -3.45653
      vertex 0.506254 19.55 -4.16938
    endloop
  endfacet
  facet normal 0.120536 1.76341e-016 0.992709
    outer loop
      vertex 0.506254 9.55 -4.16938
      vertex 0.506254 19.55 -4.16938
      vertex -1.48934 19.55 -3.92707
    endloop
  endfacet
  facet normal 0.120536 2.20426e-016 0.992709
    outer loop
      vertex -1.48934 9.55 -3.92707
      vertex 0.506254 9.55 -4.16938
      vertex -1.48934 19.55 -3.92707
    endloop
  endfacet
  facet normal 0.568065 1.82739e-016 0.822984
    outer loop
      vertex -1.48934 9.55 -3.92707
      vertex -1.48934 19.55 -3.92707
      vertex -3.14375 19.55 -2.78512
    endloop
  endfacet
  facet normal 0.568065 1.82739e-016 0.822984
    outer loop
      vertex -3.14375 9.55 -2.78512
      vertex -1.48934 9.55 -3.92707
      vertex -3.14375 19.55 -2.78512
    endloop
  endfacet
  facet normal 0.885456 1.03189e-016 0.464723
    outer loop
      vertex -3.14375 9.55 -2.78512
      vertex -3.14375 19.55 -2.78512
      vertex -4.07796 19.55 -1.00513
    endloop
  endfacet
  facet normal 0.885456 1.03189e-016 0.464723
    outer loop
      vertex -4.07796 9.55 -1.00513
      vertex -3.14375 9.55 -2.78512
      vertex -4.07796 19.55 -1.00513
    endloop
  endfacet
  facet normal -0.406736 1.62278e-016 0.913546
    outer loop
      vertex -7 19.55 12.1244
      vertex -7 9.55 12.1244
      vertex -4.32624 9.55 13.3148
    endloop
  endfacet
  facet normal -0.406736 1.62278e-016 0.913546
    outer loop
      vertex -4.32624 19.55 13.3148
      vertex -7 19.55 12.1244
      vertex -4.32624 9.55 13.3148
    endloop
  endfacet
  facet normal -0.587785 1.4371e-016 0.809017
    outer loop
      vertex -9.36783 19.55 10.404
      vertex -9.36783 9.55 10.404
      vertex -7 9.55 12.1244
    endloop
  endfacet
  facet normal -0.587785 1.4371e-016 0.809017
    outer loop
      vertex -7 19.55 12.1244
      vertex -9.36783 19.55 10.404
      vertex -7 9.55 12.1244
    endloop
  endfacet
  facet normal 8.86628e-017 -1 4.17125e-016
    outer loop
      vertex 4.32624 9.55 13.3148
      vertex 1.4634 9.55 13.9233
      vertex 14 9.55 7
    endloop
  endfacet
  facet normal 3.93915e-016 -1 8.84747e-016
    outer loop
      vertex 7 9.55 12.1244
      vertex 4.32624 9.55 13.3148
      vertex 14 9.55 7
    endloop
  endfacet
  facet normal 3.3472e-014 -1 4.60703e-014
    outer loop
      vertex 9.36783 9.55 10.404
      vertex 7 9.55 12.1244
      vertex 14 9.55 7
    endloop
  endfacet
  facet normal 0.592167 -0 0.805815
    outer loop
      vertex 14 19.55 7
      vertex 9.36783 9.55 10.404
      vertex 14 9.55 7
    endloop
  endfacet
  facet normal -6.09538e-016 -1 1.98051e-016
    outer loop
      vertex 14 9.55 7
      vertex 12.7896 9.55 -5.69431
      vertex 13.6941 9.55 -2.91076
    endloop
  endfacet
  facet normal 1.16366e-015 -1 2.89819e-017
    outer loop
      vertex 14 9.55 7
      vertex 11.3262 9.55 -8.22899
      vertex 12.7896 9.55 -5.69431
    endloop
  endfacet
  facet normal -3.21848e-016 -1 2.89793e-016
    outer loop
      vertex 14 9.55 7
      vertex 9.36783 9.55 -10.404
      vertex 11.3262 9.55 -8.22899
    endloop
  endfacet
  facet normal -1.83865e-016 -1 2.53068e-016
    outer loop
      vertex 14 9.55 7
      vertex 7 9.55 -12.1244
      vertex 9.36783 9.55 -10.404
    endloop
  endfacet
  facet normal -9.88127e-017 -1 2.21937e-016
    outer loop
      vertex 14 9.55 7
      vertex 4.32624 9.55 -13.3148
      vertex 7 9.55 -12.1244
    endloop
  endfacet
  facet normal -4.13588e-017 -1 1.94578e-016
    outer loop
      vertex 14 9.55 7
      vertex 1.4634 9.55 -13.9233
      vertex 4.32624 9.55 -13.3148
    endloop
  endfacet
  facet normal 0.592167 1.43142e-016 0.805815
    outer loop
      vertex 9.36783 19.55 10.404
      vertex 9.36783 9.55 10.404
      vertex 14 19.55 7
    endloop
  endfacet
  facet normal 0 1 0
    outer loop
      vertex 11.3262 19.55 8.22899
      vertex 9.36783 19.55 10.404
      vertex 14 19.55 7
    endloop
  endfacet
  facet normal 0 1 0
    outer loop
      vertex 12.7896 19.55 5.69431
      vertex 11.3262 19.55 8.22899
      vertex 14 19.55 7
    endloop
  endfacet
  facet normal 0 1 0
    outer loop
      vertex 13.6941 19.55 2.91076
      vertex 12.7896 19.55 5.69431
      vertex 14 19.55 7
    endloop
  endfacet
  facet normal 0.587785 1.4371e-016 0.809017
    outer loop
      vertex 7 19.55 12.1244
      vertex 7 9.55 12.1244
      vertex 9.36783 9.55 10.404
    endloop
  endfacet
  facet normal 0.587785 1.4371e-016 0.809017
    outer loop
      vertex 9.36783 19.55 10.404
      vertex 7 19.55 12.1244
      vertex 9.36783 9.55 10.404
    endloop
  endfacet
  facet normal 0.406736 1.62278e-016 0.913546
    outer loop
      vertex 4.32624 19.55 13.3148
      vertex 4.32624 9.55 13.3148
      vertex 7 9.55 12.1244
    endloop
  endfacet
  facet normal 0.406736 1.62278e-016 0.913546
    outer loop
      vertex 7 19.55 12.1244
      vertex 4.32624 19.55 13.3148
      vertex 7 9.55 12.1244
    endloop
  endfacet
endsolid OpenSCAD_Model
