solid OpenSCAD_Model
  facet normal -1.17961e-016 -0 0
    outer loop
      vertex -17.1 -19.5 26
      vertex -17.1 -18.5 28
      vertex -17.1 -27.5 10
    endloop
  endfacet
  facet normal 0 -0.894427 0.447214
    outer loop
      vertex -10 -27.5 10
      vertex -10 -19.5 26
      vertex -16.2244 -19.5 26
    endloop
  endfacet
  facet normal 0 -0.894427 0.447214
    outer loop
      vertex -13.55 -27.5 10
      vertex -17.1 -19.5 26
      vertex -17.1 -27.5 10
    endloop
  endfacet
  facet normal 0 -0.894427 0.447214
    outer loop
      vertex -16.2244 -19.5 26
      vertex -13.55 -27.5 10
      vertex -10 -27.5 10
    endloop
  endfacet
  facet normal 0 -0.894427 0.447214
    outer loop
      vertex -16.2244 -19.5 26
      vertex -17.1 -19.5 26
      vertex -13.55 -27.5 10
    endloop
  endfacet
  facet normal -1 0 0
    outer loop
      vertex -17.1 -18.5 28
      vertex -17.1 -18.5 15.0089
      vertex -17.1 -27.5 10
    endloop
  endfacet
  facet normal -1 0 0
    outer loop
      vertex -17.1 -27.5 10
      vertex -17.1 -18.5 15.0089
      vertex -17.1 -19.5 14.3183
    endloop
  endfacet
  facet normal -1 5.68183e-016 -8.2272e-016
    outer loop
      vertex -17.1 -25.7528 10
      vertex -17.1 -19.5 14.3183
      vertex -17.1 -19.5 10
    endloop
  endfacet
  facet normal -1 0 0
    outer loop
      vertex -17.1 -27.5 10
      vertex -17.1 -19.5 14.3183
      vertex -17.1 -25.7528 10
    endloop
  endfacet
  facet normal -1 -0 -0
    outer loop
      vertex -17.1 -37.5 0
      vertex -17.1 -37.5 10
      vertex -17.1 37.5 0
    endloop
  endfacet
  facet normal -1 0 0
    outer loop
      vertex -17.1 37.5 0
      vertex -17.1 -37.5 10
      vertex -17.1 -27.5 10
    endloop
  endfacet
  facet normal -1 0 0
    outer loop
      vertex -17.1 -19.5 31.1
      vertex -17.1 -18.5 28
      vertex -17.1 -19.5 26
    endloop
  endfacet
  facet normal -1 0 0
    outer loop
      vertex -17.1 37.5 0
      vertex -17.1 -25.7528 10
      vertex -17.1 -19.5 10
    endloop
  endfacet
  facet normal -1 0 0
    outer loop
      vertex -17.1 -9.5 10
      vertex -17.1 -19.5 10
      vertex -17.1 -19.5 14.3183
    endloop
  endfacet
  facet normal -1 0 0
    outer loop
      vertex -17.1 -9.5 10
      vertex -17.1 -18.5 15.0089
      vertex -17.1 -18.5 28
    endloop
  endfacet
  facet normal -1 0 0
    outer loop
      vertex -17.1 -9.5 10
      vertex -17.1 -19.5 14.3183
      vertex -17.1 -18.5 15.0089
    endloop
  endfacet
  facet normal -1 0 0
    outer loop
      vertex -17.1 9.49 5
      vertex -17.1 -19.5 10
      vertex -17.1 -9.5 10
    endloop
  endfacet
  facet normal -1 0 0
    outer loop
      vertex -17.1 9.49 5
      vertex -17.1 -9.5 10
      vertex -17.1 9.49 10
    endloop
  endfacet
  facet normal -1 0 0
    outer loop
      vertex -17.1 37.5 0
      vertex -17.1 -19.5 10
      vertex -17.1 9.49 5
    endloop
  endfacet
  facet normal -1 0 0
    outer loop
      vertex -17.1 37.5 5
      vertex -17.1 37.5 0
      vertex -17.1 9.49 5
    endloop
  endfacet
  facet normal -1 0 0
    outer loop
      vertex -17.1 -25.7528 10
      vertex -17.1 37.5 0
      vertex -17.1 -27.5 10
    endloop
  endfacet
  facet normal -1 0 0
    outer loop
      vertex -17.1 -9.5 10
      vertex -17.1 -18.5 28
      vertex -17.1 -19.5 31.1
    endloop
  endfacet
  facet normal -1 0 0
    outer loop
      vertex -17.1 -9.5 10
      vertex -17.1 -19.5 31.1
      vertex -17.1 -9.5 31.1
    endloop
  endfacet
  facet normal 0 -1 0
    outer loop
      vertex -16.7263 -19.5 27.5447
      vertex -17.1 -19.5 26
      vertex -16.2244 -19.5 26
    endloop
  endfacet
  facet normal 0 -1 0
    outer loop
      vertex -17.1 -19.5 31.1
      vertex -17.1 -19.5 26
      vertex -16.7263 -19.5 27.5447
    endloop
  endfacet
  facet normal 4.75374e-015 -1 4.99638e-016
    outer loop
      vertex -16.7263 -19.5 34.6553
      vertex -17.1 -19.5 31.1
      vertex -16.7263 -19.5 27.5447
    endloop
  endfacet
  facet normal 0 -1 4.10467e-016
    outer loop
      vertex -10 -19.5 26
      vertex -16.7263 -19.5 34.6553
      vertex -16.2244 -19.5 26
    endloop
  endfacet
  facet normal 1.53773e-015 -1 4.99638e-016
    outer loop
      vertex -16.2244 -19.5 26
      vertex -16.7263 -19.5 34.6553
      vertex -16.7263 -19.5 27.5447
    endloop
  endfacet
  facet normal 5.26486e-016 -1 8.19618e-016
    outer loop
      vertex 1.78744 -19.5 14.0937
      vertex -16.7263 -19.5 34.6553
      vertex -10 -19.5 26
    endloop
  endfacet
  facet normal 0 -1 0
    outer loop
      vertex -8.55 -19.5 16.291
      vertex -10 -19.5 26
      vertex -10 -19.5 17.3445
    endloop
  endfacet
  facet normal -1.16534e-015 -1 -1.74038e-016
    outer loop
      vertex -5.28419 -19.5 14.8369
      vertex -10 -19.5 26
      vertex -8.55 -19.5 16.291
    endloop
  endfacet
  facet normal 7.4321e-017 -1 3.49653e-016
    outer loop
      vertex -1.78744 -19.5 14.0937
      vertex -10 -19.5 26
      vertex -5.28419 -19.5 14.8369
    endloop
  endfacet
  facet normal 0 -1 2.98389e-016
    outer loop
      vertex 1.78744 -19.5 14.0937
      vertex -10 -19.5 26
      vertex -1.78744 -19.5 14.0937
    endloop
  endfacet
  facet normal -6.16531e-017 -1 2.90055e-016
    outer loop
      vertex 5.28419 -19.5 14.8369
      vertex -16.7263 -19.5 34.6553
      vertex 1.78744 -19.5 14.0937
    endloop
  endfacet
  facet normal 6.21103e-016 -1 1.04833e-015
    outer loop
      vertex 8.55 -19.5 16.291
      vertex -16.7263 -19.5 34.6553
      vertex 5.28419 -19.5 14.8369
    endloop
  endfacet
  facet normal -7.02775e-017 -1 9.67287e-017
    outer loop
      vertex 10 -19.5 17.3445
      vertex -16.7263 -19.5 34.6553
      vertex 8.55 -19.5 16.291
    endloop
  endfacet
  facet normal -4.9112e-016 -1 -5.53013e-016
    outer loop
      vertex -1.38296 -19.5 27.4534
      vertex -16.7263 -19.5 34.6553
      vertex 10 -19.5 17.3445
    endloop
  endfacet
  facet normal 0 -1 -0
    outer loop
      vertex -3.78667 -19.5 32.0333
      vertex -2.91919 -19.5 33.6862
      vertex -16.7263 -19.5 34.6553
    endloop
  endfacet
  facet normal -2.54101e-016 -1 8.25624e-017
    outer loop
      vertex 3.9 -19.5 31.1
      vertex 16.2244 -19.5 26
      vertex 16.7263 -19.5 27.5447
    endloop
  endfacet
  facet normal 0 -1 0
    outer loop
      vertex 13.8342 -19.5 41.1511
      vertex -16.7263 -19.5 34.6553
      vertex 15.6216 -19.5 38.0552
    endloop
  endfacet
  facet normal 0 -1 0
    outer loop
      vertex 11.4421 -19.5 43.8078
      vertex -16.7263 -19.5 34.6553
      vertex 13.8342 -19.5 41.1511
    endloop
  endfacet
  facet normal 0 -1 0
    outer loop
      vertex 8.55 -19.5 45.909
      vertex -16.7263 -19.5 34.6553
      vertex 11.4421 -19.5 43.8078
    endloop
  endfacet
  facet normal -5.43925e-016 -1 1.22168e-015
    outer loop
      vertex 5.28419 -19.5 47.3631
      vertex -16.7263 -19.5 34.6553
      vertex 8.55 -19.5 45.909
    endloop
  endfacet
  facet normal 4.34339e-017 -1 2.0434e-016
    outer loop
      vertex 1.78744 -19.5 48.1063
      vertex -16.7263 -19.5 34.6553
      vertex 5.28419 -19.5 47.3631
    endloop
  endfacet
  facet normal 0 -1 2.64122e-016
    outer loop
      vertex -1.78744 -19.5 48.1063
      vertex -16.7263 -19.5 34.6553
      vertex 1.78744 -19.5 48.1063
    endloop
  endfacet
  facet normal -7.34893e-017 -1 3.4574e-016
    outer loop
      vertex -5.28419 -19.5 47.3631
      vertex -16.7263 -19.5 34.6553
      vertex -1.78744 -19.5 48.1063
    endloop
  endfacet
  facet normal 1.608e-015 -1 -1.16828e-015
    outer loop
      vertex -8.55 -19.5 45.909
      vertex -16.7263 -19.5 34.6553
      vertex -5.28419 -19.5 47.3631
    endloop
  endfacet
  facet normal -0 -1 0
    outer loop
      vertex -11.4421 -19.5 43.8078
      vertex -16.7263 -19.5 34.6553
      vertex -8.55 -19.5 45.909
    endloop
  endfacet
  facet normal -0 -1 0
    outer loop
      vertex -13.8342 -19.5 41.1511
      vertex -16.7263 -19.5 34.6553
      vertex -11.4421 -19.5 43.8078
    endloop
  endfacet
  facet normal -0 -1 0
    outer loop
      vertex -15.6216 -19.5 38.0552
      vertex -16.7263 -19.5 34.6553
      vertex -13.8342 -19.5 41.1511
    endloop
  endfacet
  facet normal 0 -1 0
    outer loop
      vertex 3.45328 -19.5 29.2876
      vertex 2.21545 -19.5 27.8904
      vertex 10 -19.5 26
    endloop
  endfacet
  facet normal 4.74495e-016 -1 1.84325e-015
    outer loop
      vertex 3.9 -19.5 31.1
      vertex 3.45328 -19.5 29.2876
      vertex 16.2244 -19.5 26
    endloop
  endfacet
  facet normal -2.69145e-016 -1 -6.63382e-017
    outer loop
      vertex 3.45328 -19.5 32.9124
      vertex 3.9 -19.5 31.1
      vertex 17.1 -19.5 31.1
    endloop
  endfacet
  facet normal -0 -1 0
    outer loop
      vertex 2.21545 -19.5 34.3096
      vertex 3.45328 -19.5 32.9124
      vertex 16.7263 -19.5 34.6553
    endloop
  endfacet
  facet normal 0 -1 0
    outer loop
      vertex 15.6216 -19.5 38.0552
      vertex -16.7263 -19.5 34.6553
      vertex -1.38296 -19.5 34.7466
    endloop
  endfacet
  facet normal 0 -1 0
    outer loop
      vertex 15.6216 -19.5 38.0552
      vertex 0.470093 -19.5 34.9716
      vertex 16.7263 -19.5 34.6553
    endloop
  endfacet
  facet normal 0 -1 0
    outer loop
      vertex 15.6216 -19.5 38.0552
      vertex -1.38296 -19.5 34.7466
      vertex 0.470093 -19.5 34.9716
    endloop
  endfacet
  facet normal 0 -1 0
    outer loop
      vertex 0.470093 -19.5 34.9716
      vertex 2.21545 -19.5 34.3096
      vertex 16.7263 -19.5 34.6553
    endloop
  endfacet
  facet normal -1.29428e-016 -1 9.85672e-016
    outer loop
      vertex 16.7263 -19.5 34.6553
      vertex 3.45328 -19.5 32.9124
      vertex 17.1 -19.5 31.1
    endloop
  endfacet
  facet normal -2.69145e-016 -1 2.82883e-017
    outer loop
      vertex 17.1 -19.5 31.1
      vertex 3.9 -19.5 31.1
      vertex 16.7263 -19.5 27.5447
    endloop
  endfacet
  facet normal 0 -1 0
    outer loop
      vertex 16.2244 -19.5 26
      vertex 3.45328 -19.5 29.2876
      vertex 10 -19.5 26
    endloop
  endfacet
  facet normal 0 -1 -0
    outer loop
      vertex -2.91919 -19.5 33.6862
      vertex -1.38296 -19.5 34.7466
      vertex -16.7263 -19.5 34.6553
    endloop
  endfacet
  facet normal 0 -1 0
    outer loop
      vertex 10 -19.5 26
      vertex 2.21545 -19.5 27.8904
      vertex 10 -19.5 17.3445
    endloop
  endfacet
  facet normal 0 -1 0
    outer loop
      vertex 2.21545 -19.5 27.8904
      vertex 0.470093 -19.5 27.2284
      vertex 10 -19.5 17.3445
    endloop
  endfacet
  facet normal -7.23614e-016 -1 -1.04834e-015
    outer loop
      vertex -2.91919 -19.5 28.5138
      vertex -16.7263 -19.5 34.6553
      vertex -1.38296 -19.5 27.4534
    endloop
  endfacet
  facet normal -3.35673e-016 -1 -1.76175e-016
    outer loop
      vertex -3.78667 -19.5 30.1667
      vertex -16.7263 -19.5 34.6553
      vertex -2.91919 -19.5 28.5138
    endloop
  endfacet
  facet normal 0 -1 0
    outer loop
      vertex 0.470093 -19.5 27.2284
      vertex -1.38296 -19.5 27.4534
      vertex 10 -19.5 17.3445
    endloop
  endfacet
  facet normal 3.85654e-016 -1 1.90324e-015
    outer loop
      vertex -3.78667 -19.5 30.1667
      vertex -3.78667 -19.5 32.0333
      vertex -16.7263 -19.5 34.6553
    endloop
  endfacet
  facet normal 1 -1.8841e-016 2.05228e-016
    outer loop
      vertex -10 -19.5 17.3445
      vertex -10 -19.5 26
      vertex -10 -27.5 10
    endloop
  endfacet
  facet normal 1 -2.22045e-016 2.41864e-016
    outer loop
      vertex -10 -19.5 10
      vertex -10 -19.5 17.3445
      vertex -10 -27.5 10
    endloop
  endfacet
  facet normal -0 -0 -1
    outer loop
      vertex -13.55 -27.5 10
      vertex -13.55 -19.5 10
      vertex -10 -27.5 10
    endloop
  endfacet
  facet normal 0 -0 -1
    outer loop
      vertex -10 -27.5 10
      vertex -13.55 -19.5 10
      vertex -10 -19.5 10
    endloop
  endfacet
  facet normal 0 -0 1
    outer loop
      vertex -1.41842 -32.2401 10
      vertex -17.1 -37.5 10
      vertex 17.1 -37.5 10
    endloop
  endfacet
  facet normal 0 0 1
    outer loop
      vertex -1.41842 -32.2401 10
      vertex -13.55 -27.5 10
      vertex -17.1 -27.5 10
    endloop
  endfacet
  facet normal 0 0 1
    outer loop
      vertex 17.1 -19.5 10
      vertex 13.55 -27.5 10
      vertex 17.1 -37.5 10
    endloop
  endfacet
  facet normal 0 0 1
    outer loop
      vertex -2.99404 -31.1525 10
      vertex -3.88377 -29.4573 10
      vertex -13.55 -27.5 10
    endloop
  endfacet
  facet normal 0 0 1
    outer loop
      vertex -3.88377 -27.5427 10
      vertex -2.99404 -25.8475 10
      vertex -13.55 -27.5 10
    endloop
  endfacet
  facet normal 0 -0 1
    outer loop
      vertex 4 -28.5 10
      vertex 3.54182 -30.3589 10
      vertex 13.55 -27.5 10
    endloop
  endfacet
  facet normal -0 -0 1
    outer loop
      vertex 0.482147 -32.4708 10
      vertex -1.41842 -32.2401 10
      vertex 17.1 -37.5 10
    endloop
  endfacet
  facet normal 0 0 1
    outer loop
      vertex -1.41842 -32.2401 10
      vertex -2.99404 -31.1525 10
      vertex -13.55 -27.5 10
    endloop
  endfacet
  facet normal -0 0 1
    outer loop
      vertex -3.88377 -27.5427 10
      vertex -13.55 -27.5 10
      vertex -3.88377 -29.4573 10
    endloop
  endfacet
  facet normal 0 -0 1
    outer loop
      vertex 10 -27.5 10
      vertex 4 -28.5 10
      vertex 13.55 -27.5 10
    endloop
  endfacet
  facet normal 0 0 1
    outer loop
      vertex 3.54182 -26.6411 10
      vertex 4 -28.5 10
      vertex 10 -27.5 10
    endloop
  endfacet
  facet normal 0 0 1
    outer loop
      vertex 10 -27.5 10
      vertex 10 -19.5 10
      vertex 0.482147 -24.5292 10
    endloop
  endfacet
  facet normal -0 0 1
    outer loop
      vertex 0.482147 -24.5292 10
      vertex 10 -19.5 10
      vertex -1.41842 -24.7599 10
    endloop
  endfacet
  facet normal 0 0 1
    outer loop
      vertex 10 -27.5 10
      vertex 0.482147 -24.5292 10
      vertex 2.27226 -25.2081 10
    endloop
  endfacet
  facet normal 0 0 1
    outer loop
      vertex 2.27226 -25.2081 10
      vertex 3.54182 -26.6411 10
      vertex 10 -27.5 10
    endloop
  endfacet
  facet normal 0 -0 1
    outer loop
      vertex 13.55 -27.5 10
      vertex 3.54182 -30.3589 10
      vertex 17.1 -37.5 10
    endloop
  endfacet
  facet normal 0 -0 1
    outer loop
      vertex 3.54182 -30.3589 10
      vertex 2.27226 -31.7919 10
      vertex 17.1 -37.5 10
    endloop
  endfacet
  facet normal 0 -0 1
    outer loop
      vertex -17.1 -27.5 10
      vertex -17.1 -37.5 10
      vertex -1.41842 -32.2401 10
    endloop
  endfacet
  facet normal 0 -0 1
    outer loop
      vertex 2.27226 -31.7919 10
      vertex 0.482147 -32.4708 10
      vertex 17.1 -37.5 10
    endloop
  endfacet
  facet normal 0 -0 1
    outer loop
      vertex -13.55 -19.5 10
      vertex -13.55 -27.5 10
      vertex -2.99404 -25.8475 10
    endloop
  endfacet
  facet normal 0 0 1
    outer loop
      vertex -13.55 -19.5 10
      vertex -1.41842 -24.7599 10
      vertex 10 -19.5 10
    endloop
  endfacet
  facet normal 0 0 1
    outer loop
      vertex -13.55 -19.5 10
      vertex -2.99404 -25.8475 10
      vertex -1.41842 -24.7599 10
    endloop
  endfacet
  facet normal 0 -0 1
    outer loop
      vertex 13.55 -19.5 10
      vertex 13.55 -27.5 10
      vertex 17.1 -19.5 10
    endloop
  endfacet
  facet normal -0 -0 -1
    outer loop
      vertex 3.54182 -26.6411 0
      vertex -17.1 37.5 0
      vertex 17.1 -37.5 0
    endloop
  endfacet
  facet normal 0 -0 -1
    outer loop
      vertex 0.482147 32.4708 0
      vertex -17.1 37.5 0
      vertex 17.1 37.5 0
    endloop
  endfacet
  facet normal 0 -0 -1
    outer loop
      vertex -17.1 -37.5 0
      vertex -17.1 37.5 0
      vertex -3.88377 -27.5427 0
    endloop
  endfacet
  facet normal 0 0 -1
    outer loop
      vertex -17.1 -37.5 0
      vertex -3.88377 -27.5427 0
      vertex -3.88377 -29.4573 0
    endloop
  endfacet
  facet normal 0 0 -1
    outer loop
      vertex -17.1 -37.5 0
      vertex -3.88377 -29.4573 0
      vertex -2.99404 -31.1525 0
    endloop
  endfacet
  facet normal 0 0 -1
    outer loop
      vertex -17.1 -37.5 0
      vertex -2.99404 -31.1525 0
      vertex -1.41842 -32.2401 0
    endloop
  endfacet
  facet normal -0 0 -1
    outer loop
      vertex -17.1 -37.5 0
      vertex -1.41842 -32.2401 0
      vertex 17.1 -37.5 0
    endloop
  endfacet
  facet normal 0 0 -1
    outer loop
      vertex -1.41842 -32.2401 0
      vertex 0.482147 -32.4708 0
      vertex 17.1 -37.5 0
    endloop
  endfacet
  facet normal 0 0 -1
    outer loop
      vertex 3.54182 -30.3589 0
      vertex 17.1 -37.5 0
      vertex 2.27226 -31.7919 0
    endloop
  endfacet
  facet normal 0 0 -1
    outer loop
      vertex -1.41842 24.7599 0
      vertex 17.1 -37.5 0
      vertex -2.99404 25.8475 0
    endloop
  endfacet
  facet normal -0 -0 -1
    outer loop
      vertex 2.27226 -25.2081 0
      vertex -17.1 37.5 0
      vertex 3.54182 -26.6411 0
    endloop
  endfacet
  facet normal -0 -0 -1
    outer loop
      vertex 0.482147 -24.5292 0
      vertex -17.1 37.5 0
      vertex 2.27226 -25.2081 0
    endloop
  endfacet
  facet normal -0 0 -1
    outer loop
      vertex 3.54182 -30.3589 0
      vertex 4 -28.5 0
      vertex 17.1 -37.5 0
    endloop
  endfacet
  facet normal -0 -0 -1
    outer loop
      vertex 4 -28.5 0
      vertex 3.54182 -26.6411 0
      vertex 17.1 -37.5 0
    endloop
  endfacet
  facet normal 0 -0 -1
    outer loop
      vertex -1.41842 -24.7599 0
      vertex -17.1 37.5 0
      vertex 0.482147 -24.5292 0
    endloop
  endfacet
  facet normal 0 -0 -1
    outer loop
      vertex -2.99404 -25.8475 0
      vertex -17.1 37.5 0
      vertex -1.41842 -24.7599 0
    endloop
  endfacet
  facet normal 0 -0 -1
    outer loop
      vertex -3.88377 -27.5427 0
      vertex -17.1 37.5 0
      vertex -2.99404 -25.8475 0
    endloop
  endfacet
  facet normal 0 0 -1
    outer loop
      vertex -3.88377 27.5427 0
      vertex -17.1 37.5 0
      vertex -3.88377 29.4573 0
    endloop
  endfacet
  facet normal 0 0 -1
    outer loop
      vertex 17.1 -37.5 0
      vertex -17.1 37.5 0
      vertex -3.88377 27.5427 0
    endloop
  endfacet
  facet normal 0 0 -1
    outer loop
      vertex 17.1 -37.5 0
      vertex -3.88377 27.5427 0
      vertex -2.99404 25.8475 0
    endloop
  endfacet
  facet normal -0 0 -1
    outer loop
      vertex 4 28.5 0
      vertex 17.1 37.5 0
      vertex 3.54182 26.6411 0
    endloop
  endfacet
  facet normal 0 0 -1
    outer loop
      vertex 17.1 -37.5 0
      vertex -1.41842 24.7599 0
      vertex 0.482147 24.5292 0
    endloop
  endfacet
  facet normal 0 0 -1
    outer loop
      vertex 17.1 -37.5 0
      vertex 0.482147 24.5292 0
      vertex 2.27226 25.2081 0
    endloop
  endfacet
  facet normal 0 0 -1
    outer loop
      vertex 17.1 -37.5 0
      vertex 2.27226 25.2081 0
      vertex 17.1 37.5 0
    endloop
  endfacet
  facet normal 0 0 -1
    outer loop
      vertex 2.27226 25.2081 0
      vertex 3.54182 26.6411 0
      vertex 17.1 37.5 0
    endloop
  endfacet
  facet normal -0 0 -1
    outer loop
      vertex 0.482147 32.4708 0
      vertex 17.1 37.5 0
      vertex 2.27226 31.7919 0
    endloop
  endfacet
  facet normal 0 -0 -1
    outer loop
      vertex 4 28.5 0
      vertex 3.54182 30.3589 0
      vertex 17.1 37.5 0
    endloop
  endfacet
  facet normal 0 -0 -1
    outer loop
      vertex 3.54182 30.3589 0
      vertex 2.27226 31.7919 0
      vertex 17.1 37.5 0
    endloop
  endfacet
  facet normal 0 -0 -1
    outer loop
      vertex -1.41842 32.2401 0
      vertex -17.1 37.5 0
      vertex 0.482147 32.4708 0
    endloop
  endfacet
  facet normal 0 -0 -1
    outer loop
      vertex -2.99404 31.1525 0
      vertex -17.1 37.5 0
      vertex -1.41842 32.2401 0
    endloop
  endfacet
  facet normal 0 -0 -1
    outer loop
      vertex -3.88377 29.4573 0
      vertex -17.1 37.5 0
      vertex -2.99404 31.1525 0
    endloop
  endfacet
  facet normal 0 0 -1
    outer loop
      vertex 2.27226 -31.7919 0
      vertex 17.1 -37.5 0
      vertex 0.482147 -32.4708 0
    endloop
  endfacet
  facet normal 0 1 0
    outer loop
      vertex -17.1 37.5 0
      vertex -17.1 37.5 5
      vertex 17.1 37.5 0
    endloop
  endfacet
  facet normal 0 1 0
    outer loop
      vertex 17.1 37.5 0
      vertex -17.1 37.5 5
      vertex 17.1 37.5 5
    endloop
  endfacet
  facet normal 0 0 1
    outer loop
      vertex -1.41842 32.2401 5
      vertex 17.1 37.5 5
      vertex -17.1 37.5 5
    endloop
  endfacet
  facet normal 0 0 1
    outer loop
      vertex -3.88377 29.4573 5
      vertex -2.99404 31.1525 5
      vertex -17.1 37.5 5
    endloop
  endfacet
  facet normal 0 0 1
    outer loop
      vertex 3.54182 30.3589 5
      vertex 4 28.5 5
      vertex 17.1 9.49 5
    endloop
  endfacet
  facet normal 0 0 1
    outer loop
      vertex -2.99404 31.1525 5
      vertex -1.41842 32.2401 5
      vertex -17.1 37.5 5
    endloop
  endfacet
  facet normal -0 0 1
    outer loop
      vertex 0.482147 32.4708 5
      vertex 17.1 37.5 5
      vertex -1.41842 32.2401 5
    endloop
  endfacet
  facet normal 0 0 1
    outer loop
      vertex 3.54182 30.3589 5
      vertex 17.1 37.5 5
      vertex 2.27226 31.7919 5
    endloop
  endfacet
  facet normal 0 -0 1
    outer loop
      vertex 2.27226 25.2081 5
      vertex 0.482147 24.5292 5
      vertex 17.1 9.49 5
    endloop
  endfacet
  facet normal 0 0 1
    outer loop
      vertex 17.1 9.49 5
      vertex 17.1 37.5 5
      vertex 3.54182 30.3589 5
    endloop
  endfacet
  facet normal 0 0 1
    outer loop
      vertex 17.1 9.49 5
      vertex 4 28.5 5
      vertex 3.54182 26.6411 5
    endloop
  endfacet
  facet normal -0 -0 1
    outer loop
      vertex -1.41842 24.7599 5
      vertex -2.99404 25.8475 5
      vertex 17.1 9.49 5
    endloop
  endfacet
  facet normal 0 0 1
    outer loop
      vertex 17.1 9.49 5
      vertex 3.54182 26.6411 5
      vertex 2.27226 25.2081 5
    endloop
  endfacet
  facet normal 0 0 1
    outer loop
      vertex -2.99404 25.8475 5
      vertex -3.88377 27.5427 5
      vertex -17.1 37.5 5
    endloop
  endfacet
  facet normal 0 0 1
    outer loop
      vertex 17.1 9.49 5
      vertex 0.482147 24.5292 5
      vertex -1.41842 24.7599 5
    endloop
  endfacet
  facet normal 0 0 1
    outer loop
      vertex -17.1 9.49 5
      vertex -2.99404 25.8475 5
      vertex -17.1 37.5 5
    endloop
  endfacet
  facet normal 0 0 1
    outer loop
      vertex -17.1 9.49 5
      vertex 17.1 9.49 5
      vertex -2.99404 25.8475 5
    endloop
  endfacet
  facet normal 0 0 1
    outer loop
      vertex -3.88377 27.5427 5
      vertex -3.88377 29.4573 5
      vertex -17.1 37.5 5
    endloop
  endfacet
  facet normal 0 0 1
    outer loop
      vertex 0.482147 32.4708 5
      vertex 2.27226 31.7919 5
      vertex 17.1 37.5 5
    endloop
  endfacet
  facet normal 0 1 0
    outer loop
      vertex 17.1 9.49 10
      vertex 17.1 9.49 5
      vertex -17.1 9.49 10
    endloop
  endfacet
  facet normal 0 1 -0
    outer loop
      vertex -17.1 9.49 10
      vertex 17.1 9.49 5
      vertex -17.1 9.49 5
    endloop
  endfacet
  facet normal 0 -0 1
    outer loop
      vertex -17.1 9.49 10
      vertex -17.1 -9.5 10
      vertex 17.1 -9.5 10
    endloop
  endfacet
  facet normal 0 0 1
    outer loop
      vertex 17.1 9.49 10
      vertex -17.1 9.49 10
      vertex 17.1 -9.5 10
    endloop
  endfacet
  facet normal 0 1 0
    outer loop
      vertex -17.1 -9.5 10
      vertex -17.1 -9.5 31.1
      vertex 17.1 -9.5 10
    endloop
  endfacet
  facet normal 0 1 0
    outer loop
      vertex -3.78667 -9.5 30.1667
      vertex -17.1 -9.5 31.1
      vertex -3.78667 -9.5 31.1
    endloop
  endfacet
  facet normal 0 1 0
    outer loop
      vertex -2.91919 -9.5 28.5138
      vertex -17.1 -9.5 31.1
      vertex -3.78667 -9.5 30.1667
    endloop
  endfacet
  facet normal 0 1 0
    outer loop
      vertex 17.1 -9.5 10
      vertex -17.1 -9.5 31.1
      vertex -2.91919 -9.5 28.5138
    endloop
  endfacet
  facet normal 0 1 0
    outer loop
      vertex 17.1 -9.5 10
      vertex -2.91919 -9.5 28.5138
      vertex -1.38296 -9.5 27.4534
    endloop
  endfacet
  facet normal 0 1 0
    outer loop
      vertex 17.1 -9.5 10
      vertex 0.470093 -9.5 27.2284
      vertex 2.21545 -9.5 27.8904
    endloop
  endfacet
  facet normal 0 1 0
    outer loop
      vertex 2.21545 -9.5 27.8904
      vertex 3.45328 -9.5 29.2876
      vertex 17.1 -9.5 10
    endloop
  endfacet
  facet normal 0 1 0
    outer loop
      vertex 3.45328 -9.5 29.2876
      vertex 3.9 -9.5 31.1
      vertex 17.1 -9.5 10
    endloop
  endfacet
  facet normal 0 1 0
    outer loop
      vertex 17.1 -9.5 10
      vertex 3.9 -9.5 31.1
      vertex 17.1 -9.5 31.1
    endloop
  endfacet
  facet normal -0 1 -0
    outer loop
      vertex 0.470093 -9.5 27.2284
      vertex 17.1 -9.5 10
      vertex -1.38296 -9.5 27.4534
    endloop
  endfacet
  facet normal 0 -1 0
    outer loop
      vertex -17.1 -37.5 10
      vertex -17.1 -37.5 0
      vertex 17.1 -37.5 0
    endloop
  endfacet
  facet normal 0 -1 0
    outer loop
      vertex 17.1 -37.5 10
      vertex -17.1 -37.5 10
      vertex 17.1 -37.5 0
    endloop
  endfacet
  facet normal -0.994522 0 0.104528
    outer loop
      vertex -17.1 -19.5 31.1
      vertex -16.7263 -19.5 34.6553
      vertex -17.1 -9.5 31.1
    endloop
  endfacet
  facet normal -0.994522 0 0.104528
    outer loop
      vertex -17.1 -9.5 31.1
      vertex -16.7263 -19.5 34.6553
      vertex -16.7263 -9.5 34.6553
    endloop
  endfacet
  facet normal -0.951056 0 0.309017
    outer loop
      vertex -16.7263 -19.5 34.6553
      vertex -15.6216 -19.5 38.0552
      vertex -16.7263 -9.5 34.6553
    endloop
  endfacet
  facet normal -0.951056 0 0.309017
    outer loop
      vertex -16.7263 -9.5 34.6553
      vertex -15.6216 -19.5 38.0552
      vertex -15.6216 -9.5 38.0552
    endloop
  endfacet
  facet normal -0.866025 0 0.5
    outer loop
      vertex -15.6216 -19.5 38.0552
      vertex -13.8342 -19.5 41.1511
      vertex -15.6216 -9.5 38.0552
    endloop
  endfacet
  facet normal -0.866025 0 0.5
    outer loop
      vertex -15.6216 -9.5 38.0552
      vertex -13.8342 -19.5 41.1511
      vertex -13.8342 -9.5 41.1511
    endloop
  endfacet
  facet normal -0.743145 0 0.669131
    outer loop
      vertex -13.8342 -19.5 41.1511
      vertex -11.4421 -19.5 43.8078
      vertex -13.8342 -9.5 41.1511
    endloop
  endfacet
  facet normal -0.743145 0 0.669131
    outer loop
      vertex -13.8342 -9.5 41.1511
      vertex -11.4421 -19.5 43.8078
      vertex -11.4421 -9.5 43.8078
    endloop
  endfacet
  facet normal -0.587785 0 0.809017
    outer loop
      vertex -11.4421 -9.5 43.8078
      vertex -11.4421 -19.5 43.8078
      vertex -8.55 -19.5 45.909
    endloop
  endfacet
  facet normal -0.587785 0 0.809017
    outer loop
      vertex -8.55 -9.5 45.909
      vertex -11.4421 -9.5 43.8078
      vertex -8.55 -19.5 45.909
    endloop
  endfacet
  facet normal -0.406737 0 0.913545
    outer loop
      vertex -8.55 -9.5 45.909
      vertex -8.55 -19.5 45.909
      vertex -5.28419 -19.5 47.3631
    endloop
  endfacet
  facet normal -0.406737 0 0.913545
    outer loop
      vertex -5.28419 -9.5 47.3631
      vertex -8.55 -9.5 45.909
      vertex -5.28419 -19.5 47.3631
    endloop
  endfacet
  facet normal -0.207912 0 0.978148
    outer loop
      vertex -5.28419 -9.5 47.3631
      vertex -5.28419 -19.5 47.3631
      vertex -1.78744 -19.5 48.1063
    endloop
  endfacet
  facet normal -0.207912 0 0.978148
    outer loop
      vertex -1.78744 -9.5 48.1063
      vertex -5.28419 -9.5 47.3631
      vertex -1.78744 -19.5 48.1063
    endloop
  endfacet
  facet normal 0 -0 1
    outer loop
      vertex -1.78744 -9.5 48.1063
      vertex -1.78744 -19.5 48.1063
      vertex 1.78744 -19.5 48.1063
    endloop
  endfacet
  facet normal 0 0 1
    outer loop
      vertex 1.78744 -9.5 48.1063
      vertex -1.78744 -9.5 48.1063
      vertex 1.78744 -19.5 48.1063
    endloop
  endfacet
  facet normal 0.207912 -0 0.978148
    outer loop
      vertex 1.78744 -9.5 48.1063
      vertex 1.78744 -19.5 48.1063
      vertex 5.28419 -19.5 47.3631
    endloop
  endfacet
  facet normal 0.207912 -0 0.978148
    outer loop
      vertex 5.28419 -9.5 47.3631
      vertex 1.78744 -9.5 48.1063
      vertex 5.28419 -19.5 47.3631
    endloop
  endfacet
  facet normal 0.406737 -0 0.913545
    outer loop
      vertex 5.28419 -9.5 47.3631
      vertex 5.28419 -19.5 47.3631
      vertex 8.55 -19.5 45.909
    endloop
  endfacet
  facet normal 0.406737 -0 0.913545
    outer loop
      vertex 8.55 -9.5 45.909
      vertex 5.28419 -9.5 47.3631
      vertex 8.55 -19.5 45.909
    endloop
  endfacet
  facet normal 0.587785 -0 0.809017
    outer loop
      vertex 8.55 -9.5 45.909
      vertex 8.55 -19.5 45.909
      vertex 11.4421 -19.5 43.8078
    endloop
  endfacet
  facet normal 0.587785 -0 0.809017
    outer loop
      vertex 11.4421 -9.5 43.8078
      vertex 8.55 -9.5 45.909
      vertex 11.4421 -19.5 43.8078
    endloop
  endfacet
  facet normal 0.743145 -0 0.669131
    outer loop
      vertex 11.4421 -9.5 43.8078
      vertex 11.4421 -19.5 43.8078
      vertex 13.8342 -19.5 41.1511
    endloop
  endfacet
  facet normal 0.743145 -0 0.669131
    outer loop
      vertex 13.8342 -9.5 41.1511
      vertex 11.4421 -9.5 43.8078
      vertex 13.8342 -19.5 41.1511
    endloop
  endfacet
  facet normal 0.866025 -0 0.5
    outer loop
      vertex 13.8342 -9.5 41.1511
      vertex 13.8342 -19.5 41.1511
      vertex 15.6216 -19.5 38.0552
    endloop
  endfacet
  facet normal 0.866025 -0 0.5
    outer loop
      vertex 15.6216 -9.5 38.0552
      vertex 13.8342 -9.5 41.1511
      vertex 15.6216 -19.5 38.0552
    endloop
  endfacet
  facet normal 0.951056 -0 0.309017
    outer loop
      vertex 15.6216 -9.5 38.0552
      vertex 15.6216 -19.5 38.0552
      vertex 16.7263 -19.5 34.6553
    endloop
  endfacet
  facet normal 0.951056 -0 0.309017
    outer loop
      vertex 16.7263 -9.5 34.6553
      vertex 15.6216 -9.5 38.0552
      vertex 16.7263 -19.5 34.6553
    endloop
  endfacet
  facet normal 0.994522 -0 0.104528
    outer loop
      vertex 16.7263 -9.5 34.6553
      vertex 16.7263 -19.5 34.6553
      vertex 17.1 -19.5 31.1
    endloop
  endfacet
  facet normal 0.994522 -0 0.104528
    outer loop
      vertex 17.1 -9.5 31.1
      vertex 16.7263 -9.5 34.6553
      vertex 17.1 -19.5 31.1
    endloop
  endfacet
  facet normal -2.55256e-016 -0.894427 0.447214
    outer loop
      vertex 16.2244 -19.5 26
      vertex 10 -19.5 26
      vertex 10 -27.5 10
    endloop
  endfacet
  facet normal 0 -0.894427 0.447214
    outer loop
      vertex 17.1 -27.5 10
      vertex 16.2244 -19.5 26
      vertex 13.55 -27.5 10
    endloop
  endfacet
  facet normal 0 -0.894427 0.447214
    outer loop
      vertex 13.55 -27.5 10
      vertex 16.2244 -19.5 26
      vertex 10 -27.5 10
    endloop
  endfacet
  facet normal -1.81459e-015 -0.894427 0.447214
    outer loop
      vertex 17.1 -19.5 26
      vertex 16.2244 -19.5 26
      vertex 17.1 -27.5 10
    endloop
  endfacet
  facet normal 9.71445e-017 -2.19303e-017 1.09652e-017
    outer loop
      vertex 17.1 -18.5 28
      vertex 17.1 -19.5 26
      vertex 17.1 -27.5 10
    endloop
  endfacet
  facet normal -1 1.8841e-016 -2.05228e-016
    outer loop
      vertex 10 -19.5 26
      vertex 10 -19.5 17.3445
      vertex 10 -27.5 10
    endloop
  endfacet
  facet normal -1 2.22045e-016 -2.41864e-016
    outer loop
      vertex 10 -27.5 10
      vertex 10 -19.5 17.3445
      vertex 10 -19.5 10
    endloop
  endfacet
  facet normal 0 -0 0
    outer loop
      vertex -10 -19.5 10
      vertex -13.55 -19.5 10
      vertex 10 -19.5 10
    endloop
  endfacet
  facet normal 0 -1 0
    outer loop
      vertex 5.28419 -19.5 14.8369
      vertex -10 -19.5 10
      vertex 10 -19.5 10
    endloop
  endfacet
  facet normal 0 -1 0
    outer loop
      vertex 10 -19.5 17.3445
      vertex 8.55 -19.5 16.291
      vertex 10 -19.5 10
    endloop
  endfacet
  facet normal 0 -1 0
    outer loop
      vertex 8.55 -19.5 16.291
      vertex 5.28419 -19.5 14.8369
      vertex 10 -19.5 10
    endloop
  endfacet
  facet normal 0 -1 0
    outer loop
      vertex 1.78744 -19.5 14.0937
      vertex -1.78744 -19.5 14.0937
      vertex -10 -19.5 10
    endloop
  endfacet
  facet normal 0 -1 0
    outer loop
      vertex 5.28419 -19.5 14.8369
      vertex 1.78744 -19.5 14.0937
      vertex -10 -19.5 10
    endloop
  endfacet
  facet normal 0 -1 0
    outer loop
      vertex -5.28419 -19.5 14.8369
      vertex -10 -19.5 10
      vertex -1.78744 -19.5 14.0937
    endloop
  endfacet
  facet normal 0 -1 0
    outer loop
      vertex -8.55 -19.5 16.291
      vertex -10 -19.5 10
      vertex -5.28419 -19.5 14.8369
    endloop
  endfacet
  facet normal 0 -1 0
    outer loop
      vertex -10 -19.5 17.3445
      vertex -10 -19.5 10
      vertex -8.55 -19.5 16.291
    endloop
  endfacet
  facet normal -0 -0 -1
    outer loop
      vertex 13.55 -27.5 10
      vertex 13.55 -19.5 10
      vertex 17.1 -27.5 10
    endloop
  endfacet
  facet normal 0 0 -1
    outer loop
      vertex 17.1 -27.5 10
      vertex 13.55 -19.5 10
      vertex 17.1 -19.5 10
    endloop
  endfacet
  facet normal 0 0 -4.38607e-017
    outer loop
      vertex 17.1 -27.5 10
      vertex 17.1 -19.5 10
      vertex 17.1 -18.5 10
    endloop
  endfacet
  facet normal 1 0 -0
    outer loop
      vertex 17.1 -37.5 10
      vertex 17.1 -37.5 0
      vertex 17.1 37.5 0
    endloop
  endfacet
  facet normal 1 -0 -0
    outer loop
      vertex 17.1 9.49 5
      vertex 17.1 -37.5 10
      vertex 17.1 37.5 0
    endloop
  endfacet
  facet normal 1 0 0
    outer loop
      vertex 17.1 37.5 5
      vertex 17.1 9.49 5
      vertex 17.1 37.5 0
    endloop
  endfacet
  facet normal 1 -0 0
    outer loop
      vertex 17.1 -9.5 31.1
      vertex 17.1 -19.5 31.1
      vertex 17.1 -18.5 28
    endloop
  endfacet
  facet normal 1 0 -0
    outer loop
      vertex 17.1 -18.5 28
      vertex 17.1 -18.5 10
      vertex 17.1 -9.5 31.1
    endloop
  endfacet
  facet normal 1 -0 0
    outer loop
      vertex 17.1 -18.5 28
      vertex 17.1 -19.5 31.1
      vertex 17.1 -19.5 26
    endloop
  endfacet
  facet normal 1 0 0
    outer loop
      vertex 17.1 -9.5 31.1
      vertex 17.1 -18.5 10
      vertex 17.1 -9.5 10
    endloop
  endfacet
  facet normal 0 0 -0
    outer loop
      vertex 17.1 -18.5 10
      vertex 17.1 -19.5 10
      vertex 17.1 -9.5 10
    endloop
  endfacet
  facet normal 1 0 0
    outer loop
      vertex 17.1 9.49 5
      vertex 17.1 -19.5 10
      vertex 17.1 -37.5 10
    endloop
  endfacet
  facet normal 1 0 0
    outer loop
      vertex 17.1 9.49 5
      vertex 17.1 -9.5 10
      vertex 17.1 -19.5 10
    endloop
  endfacet
  facet normal 1 0 0
    outer loop
      vertex 17.1 9.49 5
      vertex 17.1 9.49 10
      vertex 17.1 -9.5 10
    endloop
  endfacet
  facet normal 1 0 0
    outer loop
      vertex -3.88377 -27.5427 0
      vertex -3.88377 -27.5427 10
      vertex -3.88377 -29.4573 10
    endloop
  endfacet
  facet normal 1 0 0
    outer loop
      vertex -3.88377 -29.4573 0
      vertex -3.88377 -27.5427 0
      vertex -3.88377 -29.4573 10
    endloop
  endfacet
  facet normal 0.885456 0.464723 0
    outer loop
      vertex -3.88377 -29.4573 10
      vertex -2.99404 -31.1525 10
      vertex -2.99404 -31.1525 0
    endloop
  endfacet
  facet normal 0.885456 0.464723 0
    outer loop
      vertex -3.88377 -29.4573 0
      vertex -3.88377 -29.4573 10
      vertex -2.99404 -31.1525 0
    endloop
  endfacet
  facet normal 0.568065 0.822984 -0
    outer loop
      vertex -1.41842 -32.2401 10
      vertex -1.41842 -32.2401 0
      vertex -2.99404 -31.1525 10
    endloop
  endfacet
  facet normal 0.568065 0.822984 -0
    outer loop
      vertex -2.99404 -31.1525 10
      vertex -1.41842 -32.2401 0
      vertex -2.99404 -31.1525 0
    endloop
  endfacet
  facet normal 0.120536 0.992709 -0
    outer loop
      vertex 0.482147 -32.4708 10
      vertex 0.482147 -32.4708 0
      vertex -1.41842 -32.2401 10
    endloop
  endfacet
  facet normal 0.120536 0.992709 -0
    outer loop
      vertex -1.41842 -32.2401 10
      vertex 0.482147 -32.4708 0
      vertex -1.41842 -32.2401 0
    endloop
  endfacet
  facet normal -0.354605 0.935016 0
    outer loop
      vertex 2.27226 -31.7919 10
      vertex 2.27226 -31.7919 0
      vertex 0.482147 -32.4708 10
    endloop
  endfacet
  facet normal -0.354605 0.935016 0
    outer loop
      vertex 0.482147 -32.4708 10
      vertex 2.27226 -31.7919 0
      vertex 0.482147 -32.4708 0
    endloop
  endfacet
  facet normal -0.748511 0.663123 0
    outer loop
      vertex 3.54182 -30.3589 10
      vertex 3.54182 -30.3589 0
      vertex 2.27226 -31.7919 10
    endloop
  endfacet
  facet normal -0.748511 0.663123 0
    outer loop
      vertex 2.27226 -31.7919 10
      vertex 3.54182 -30.3589 0
      vertex 2.27226 -31.7919 0
    endloop
  endfacet
  facet normal -0.970942 0.239316 0
    outer loop
      vertex 4 -28.5 10
      vertex 4 -28.5 0
      vertex 3.54182 -30.3589 10
    endloop
  endfacet
  facet normal -0.970942 0.239316 0
    outer loop
      vertex 3.54182 -30.3589 10
      vertex 4 -28.5 0
      vertex 3.54182 -30.3589 0
    endloop
  endfacet
  facet normal -0.970942 -0.239316 0
    outer loop
      vertex 4 -28.5 10
      vertex 3.54182 -26.6411 10
      vertex 4 -28.5 0
    endloop
  endfacet
  facet normal -0.970942 -0.239316 0
    outer loop
      vertex 4 -28.5 0
      vertex 3.54182 -26.6411 10
      vertex 3.54182 -26.6411 0
    endloop
  endfacet
  facet normal -0.748511 -0.663123 0
    outer loop
      vertex 3.54182 -26.6411 10
      vertex 2.27226 -25.2081 10
      vertex 3.54182 -26.6411 0
    endloop
  endfacet
  facet normal -0.748511 -0.663123 0
    outer loop
      vertex 3.54182 -26.6411 0
      vertex 2.27226 -25.2081 10
      vertex 2.27226 -25.2081 0
    endloop
  endfacet
  facet normal -0.354605 -0.935016 -0
    outer loop
      vertex 2.27226 -25.2081 0
      vertex 2.27226 -25.2081 10
      vertex 0.482147 -24.5292 10
    endloop
  endfacet
  facet normal -0.354605 -0.935016 -0
    outer loop
      vertex 0.482147 -24.5292 0
      vertex 2.27226 -25.2081 0
      vertex 0.482147 -24.5292 10
    endloop
  endfacet
  facet normal 0.120536 -0.992709 0
    outer loop
      vertex 0.482147 -24.5292 0
      vertex 0.482147 -24.5292 10
      vertex -1.41842 -24.7599 10
    endloop
  endfacet
  facet normal 0.120536 -0.992709 0
    outer loop
      vertex -1.41842 -24.7599 0
      vertex 0.482147 -24.5292 0
      vertex -1.41842 -24.7599 10
    endloop
  endfacet
  facet normal 0.568065 -0.822984 0
    outer loop
      vertex -1.41842 -24.7599 0
      vertex -1.41842 -24.7599 10
      vertex -2.99404 -25.8475 10
    endloop
  endfacet
  facet normal 0.568065 -0.822984 0
    outer loop
      vertex -2.99404 -25.8475 0
      vertex -1.41842 -24.7599 0
      vertex -2.99404 -25.8475 10
    endloop
  endfacet
  facet normal 0.885456 -0.464723 0
    outer loop
      vertex -2.99404 -25.8475 0
      vertex -2.99404 -25.8475 10
      vertex -3.88377 -27.5427 10
    endloop
  endfacet
  facet normal 0.885456 -0.464723 0
    outer loop
      vertex -3.88377 -27.5427 0
      vertex -2.99404 -25.8475 0
      vertex -3.88377 -27.5427 10
    endloop
  endfacet
  facet normal 1 0 0
    outer loop
      vertex -3.88377 29.4573 0
      vertex -3.88377 29.4573 5
      vertex -3.88377 27.5427 5
    endloop
  endfacet
  facet normal 1 0 0
    outer loop
      vertex -3.88377 27.5427 0
      vertex -3.88377 29.4573 0
      vertex -3.88377 27.5427 5
    endloop
  endfacet
  facet normal 0.885456 -0.464723 0
    outer loop
      vertex -2.99404 31.1525 0
      vertex -2.99404 31.1525 5
      vertex -3.88377 29.4573 5
    endloop
  endfacet
  facet normal 0.885456 -0.464723 0
    outer loop
      vertex -3.88377 29.4573 0
      vertex -2.99404 31.1525 0
      vertex -3.88377 29.4573 5
    endloop
  endfacet
  facet normal 0.568065 -0.822984 0
    outer loop
      vertex -1.41842 32.2401 0
      vertex -1.41842 32.2401 5
      vertex -2.99404 31.1525 5
    endloop
  endfacet
  facet normal 0.568065 -0.822984 0
    outer loop
      vertex -2.99404 31.1525 0
      vertex -1.41842 32.2401 0
      vertex -2.99404 31.1525 5
    endloop
  endfacet
  facet normal 0.120536 -0.992709 0
    outer loop
      vertex 0.482147 32.4708 0
      vertex 0.482147 32.4708 5
      vertex -1.41842 32.2401 5
    endloop
  endfacet
  facet normal 0.120536 -0.992709 0
    outer loop
      vertex -1.41842 32.2401 0
      vertex 0.482147 32.4708 0
      vertex -1.41842 32.2401 5
    endloop
  endfacet
  facet normal -0.354605 -0.935016 -0
    outer loop
      vertex 2.27226 31.7919 0
      vertex 2.27226 31.7919 5
      vertex 0.482147 32.4708 5
    endloop
  endfacet
  facet normal -0.354605 -0.935016 -0
    outer loop
      vertex 0.482147 32.4708 0
      vertex 2.27226 31.7919 0
      vertex 0.482147 32.4708 5
    endloop
  endfacet
  facet normal -0.748511 -0.663123 0
    outer loop
      vertex 3.54182 30.3589 5
      vertex 2.27226 31.7919 5
      vertex 3.54182 30.3589 0
    endloop
  endfacet
  facet normal -0.748511 -0.663123 0
    outer loop
      vertex 3.54182 30.3589 0
      vertex 2.27226 31.7919 5
      vertex 2.27226 31.7919 0
    endloop
  endfacet
  facet normal -0.970942 -0.239316 0
    outer loop
      vertex 4 28.5 5
      vertex 3.54182 30.3589 5
      vertex 4 28.5 0
    endloop
  endfacet
  facet normal -0.970942 -0.239316 0
    outer loop
      vertex 4 28.5 0
      vertex 3.54182 30.3589 5
      vertex 3.54182 30.3589 0
    endloop
  endfacet
  facet normal -0.970942 0.239316 0
    outer loop
      vertex 4 28.5 5
      vertex 4 28.5 0
      vertex 3.54182 26.6411 5
    endloop
  endfacet
  facet normal -0.970942 0.239316 0
    outer loop
      vertex 3.54182 26.6411 5
      vertex 4 28.5 0
      vertex 3.54182 26.6411 0
    endloop
  endfacet
  facet normal -0.748511 0.663123 0
    outer loop
      vertex 3.54182 26.6411 5
      vertex 3.54182 26.6411 0
      vertex 2.27226 25.2081 5
    endloop
  endfacet
  facet normal -0.748511 0.663123 0
    outer loop
      vertex 2.27226 25.2081 5
      vertex 3.54182 26.6411 0
      vertex 2.27226 25.2081 0
    endloop
  endfacet
  facet normal -0.354605 0.935016 0
    outer loop
      vertex 2.27226 25.2081 5
      vertex 2.27226 25.2081 0
      vertex 0.482147 24.5292 5
    endloop
  endfacet
  facet normal -0.354605 0.935016 0
    outer loop
      vertex 0.482147 24.5292 5
      vertex 2.27226 25.2081 0
      vertex 0.482147 24.5292 0
    endloop
  endfacet
  facet normal 0.120536 0.992709 -0
    outer loop
      vertex 0.482147 24.5292 5
      vertex 0.482147 24.5292 0
      vertex -1.41842 24.7599 5
    endloop
  endfacet
  facet normal 0.120536 0.992709 -0
    outer loop
      vertex -1.41842 24.7599 5
      vertex 0.482147 24.5292 0
      vertex -1.41842 24.7599 0
    endloop
  endfacet
  facet normal 0.568065 0.822984 -0
    outer loop
      vertex -1.41842 24.7599 5
      vertex -1.41842 24.7599 0
      vertex -2.99404 25.8475 5
    endloop
  endfacet
  facet normal 0.568065 0.822984 -0
    outer loop
      vertex -2.99404 25.8475 5
      vertex -1.41842 24.7599 0
      vertex -2.99404 25.8475 0
    endloop
  endfacet
  facet normal 0.885456 0.464723 0
    outer loop
      vertex -3.88377 27.5427 5
      vertex -2.99404 25.8475 5
      vertex -2.99404 25.8475 0
    endloop
  endfacet
  facet normal 0.885456 0.464723 0
    outer loop
      vertex -3.88377 27.5427 0
      vertex -3.88377 27.5427 5
      vertex -2.99404 25.8475 0
    endloop
  endfacet
  facet normal 0.970942 -5.81205e-017 -0.239315
    outer loop
      vertex 3.9 -9.5 31.1
      vertex 3.45328 -9.5 29.2876
      vertex 3.45328 19.5 29.2876
    endloop
  endfacet
  facet normal 0.970942 -5.98927e-017 -0.239315
    outer loop
      vertex 3.9 19.5 31.1
      vertex 3.9 -9.5 31.1
      vertex 3.45328 19.5 29.2876
    endloop
  endfacet
  facet normal 0.748511 -1.65649e-016 -0.663123
    outer loop
      vertex 3.45328 -9.5 29.2876
      vertex 2.21545 -9.5 27.8904
      vertex 2.21545 19.5 27.8904
    endloop
  endfacet
  facet normal 0.748511 -1.62475e-016 -0.663123
    outer loop
      vertex 3.45328 19.5 29.2876
      vertex 3.45328 -9.5 29.2876
      vertex 2.21545 19.5 27.8904
    endloop
  endfacet
  facet normal 0.354605 -1.14546e-016 -0.935016
    outer loop
      vertex 0.470093 -9.5 27.2284
      vertex 0.470093 19.5 27.2284
      vertex 2.21545 -9.5 27.8904
    endloop
  endfacet
  facet normal 0.354605 -2.29093e-016 -0.935016
    outer loop
      vertex 2.21545 -9.5 27.8904
      vertex 0.470093 19.5 27.2284
      vertex 2.21545 19.5 27.8904
    endloop
  endfacet
  facet normal -0.120537 -1.21614e-016 -0.992709
    outer loop
      vertex -1.38296 -9.5 27.4534
      vertex -1.38296 19.5 27.4534
      vertex 0.470093 -9.5 27.2284
    endloop
  endfacet
  facet normal -0.120537 -1.21614e-016 -0.992709
    outer loop
      vertex 0.470093 -9.5 27.2284
      vertex -1.38296 19.5 27.4534
      vertex 0.470093 19.5 27.2284
    endloop
  endfacet
  facet normal -0.568065 -1.00822e-016 -0.822984
    outer loop
      vertex -2.91919 -9.5 28.5138
      vertex -2.91919 19.5 28.5138
      vertex -1.38296 -9.5 27.4534
    endloop
  endfacet
  facet normal -0.568065 -1.00822e-016 -0.822984
    outer loop
      vertex -1.38296 -9.5 27.4534
      vertex -2.91919 19.5 28.5138
      vertex -1.38296 19.5 27.4534
    endloop
  endfacet
  facet normal -0.885456 -1.13864e-016 -0.464723
    outer loop
      vertex -3.78667 -9.5 30.1667
      vertex -3.78667 19.5 30.1667
      vertex -2.91919 -9.5 28.5138
    endloop
  endfacet
  facet normal -0.885456 -5.6932e-017 -0.464723
    outer loop
      vertex -2.91919 -9.5 28.5138
      vertex -3.78667 19.5 30.1667
      vertex -2.91919 19.5 28.5138
    endloop
  endfacet
  facet normal -1 0 0
    outer loop
      vertex -3.78667 -9.5 31.1
      vertex -3.78667 -9.5 32.0333
      vertex -3.78667 19.5 32.0333
    endloop
  endfacet
  facet normal -1 -0 0
    outer loop
      vertex -3.78667 -9.5 31.1
      vertex -3.78667 19.5 32.0333
      vertex -3.78667 19.5 30.1667
    endloop
  endfacet
  facet normal -1 0 0
    outer loop
      vertex -3.78667 -9.5 31.1
      vertex -3.78667 19.5 30.1667
      vertex -3.78667 -9.5 30.1667
    endloop
  endfacet
  facet normal 2.27299e-015 1 -7.38538e-016
    outer loop
      vertex -17.1 -9.5 31.1
      vertex -16.7263 -9.5 34.6553
      vertex -15.6216 -9.5 38.0552
    endloop
  endfacet
  facet normal -8.72745e-016 1 -6.98923e-017
    outer loop
      vertex -17.1 -9.5 31.1
      vertex -15.6216 -9.5 38.0552
      vertex -13.8342 -9.5 41.1511
    endloop
  endfacet
  facet normal 6.14203e-016 1 -5.53031e-016
    outer loop
      vertex -17.1 -9.5 31.1
      vertex -13.8342 -9.5 41.1511
      vertex -11.4421 -9.5 43.8078
    endloop
  endfacet
  facet normal 3.00241e-016 1 -4.13246e-016
    outer loop
      vertex -17.1 -9.5 31.1
      vertex -11.4421 -9.5 43.8078
      vertex -8.55 -9.5 45.909
    endloop
  endfacet
  facet normal -5.88352e-016 1 9.97834e-017
    outer loop
      vertex -17.1 -9.5 31.1
      vertex -8.55 -9.5 45.909
      vertex -5.28419 -9.5 47.3631
    endloop
  endfacet
  facet normal 8.23711e-017 1 -3.87525e-016
    outer loop
      vertex -17.1 -9.5 31.1
      vertex -5.28419 -9.5 47.3631
      vertex -1.78744 -9.5 48.1063
    endloop
  endfacet
  facet normal -3.5598e-032 1 -3.13358e-016
    outer loop
      vertex -17.1 -9.5 31.1
      vertex -1.78744 -9.5 48.1063
      vertex 1.78744 -9.5 48.1063
    endloop
  endfacet
  facet normal -5.38857e-017 1 -2.53512e-016
    outer loop
      vertex -17.1 -9.5 31.1
      vertex 1.78744 -9.5 48.1063
      vertex 5.28419 -9.5 47.3631
    endloop
  endfacet
  facet normal 2.46796e-016 1 -6.67364e-016
    outer loop
      vertex -17.1 -9.5 31.1
      vertex 5.28419 -9.5 47.3631
      vertex 8.55 -9.5 45.909
    endloop
  endfacet
  facet normal -7.71777e-017 1 -1.06226e-016
    outer loop
      vertex -17.1 -9.5 31.1
      vertex 8.55 -9.5 45.909
      vertex 11.4421 -9.5 43.8078
    endloop
  endfacet
  facet normal -8.88528e-017 1 -8.00034e-017
    outer loop
      vertex -17.1 -9.5 31.1
      vertex 11.4421 -9.5 43.8078
      vertex 13.8342 -9.5 41.1511
    endloop
  endfacet
  facet normal 1.04495e-016 1 -5.13441e-016
    outer loop
      vertex 0.470093 -9.5 34.9716
      vertex 13.8342 -9.5 41.1511
      vertex 15.6216 -9.5 38.0552
    endloop
  endfacet
  facet normal 0 1 0
    outer loop
      vertex 2.21545 -9.5 34.3096
      vertex 15.6216 -9.5 38.0552
      vertex 16.7263 -9.5 34.6553
    endloop
  endfacet
  facet normal 1.34572e-016 1 -4.85494e-016
    outer loop
      vertex 3.9 -9.5 31.1
      vertex 16.7263 -9.5 34.6553
      vertex 17.1 -9.5 31.1
    endloop
  endfacet
  facet normal 0 1 0
    outer loop
      vertex 3.45328 -9.5 32.9124
      vertex 16.7263 -9.5 34.6553
      vertex 3.9 -9.5 31.1
    endloop
  endfacet
  facet normal 0 1 0
    outer loop
      vertex 2.21545 -9.5 34.3096
      vertex 16.7263 -9.5 34.6553
      vertex 3.45328 -9.5 32.9124
    endloop
  endfacet
  facet normal -1.38524e-016 1 7.27029e-017
    outer loop
      vertex -3.78667 -9.5 32.0333
      vertex -17.1 -9.5 31.1
      vertex -2.91919 -9.5 33.6862
    endloop
  endfacet
  facet normal 0 1 0
    outer loop
      vertex 0.470093 -9.5 34.9716
      vertex 15.6216 -9.5 38.0552
      vertex 2.21545 -9.5 34.3096
    endloop
  endfacet
  facet normal 4.73329e-017 1 -3.8982e-016
    outer loop
      vertex -1.38296 -9.5 34.7466
      vertex 13.8342 -9.5 41.1511
      vertex 0.470093 -9.5 34.9716
    endloop
  endfacet
  facet normal -1.70246e-016 1 2.46643e-016
    outer loop
      vertex -2.91919 -9.5 33.6862
      vertex -17.1 -9.5 31.1
      vertex -1.38296 -9.5 34.7466
    endloop
  endfacet
  facet normal -1.0846e-016 1 -1.96585e-017
    outer loop
      vertex -17.1 -9.5 31.1
      vertex 13.8342 -9.5 41.1511
      vertex -1.38296 -9.5 34.7466
    endloop
  endfacet
  facet normal 0 1 -1.90324e-015
    outer loop
      vertex -3.78667 -9.5 31.1
      vertex -17.1 -9.5 31.1
      vertex -3.78667 -9.5 32.0333
    endloop
  endfacet
  facet normal 0 -1 0
    outer loop
      vertex 16.7263 -19.5 27.5447
      vertex 16.2244 -19.5 26
      vertex 17.1 -19.5 26
    endloop
  endfacet
  facet normal 0 -1 0
    outer loop
      vertex 17.1 -19.5 31.1
      vertex 16.7263 -19.5 27.5447
      vertex 17.1 -19.5 26
    endloop
  endfacet
  facet normal 1 -0 1.97373e-016
    outer loop
      vertex 17.1 -18.5 10
      vertex 17.1 -18.5 28
      vertex 17.1 -27.5 10
    endloop
  endfacet
  facet normal 3.62633e-015 -1 1.90324e-015
    outer loop
      vertex -3.78667 -19.5 32.0333
      vertex -3.78667 -19.5 30.1667
      vertex -2.91919 -19.5 28.5138
    endloop
  endfacet
  facet normal 1.00601e-016 -1 8.28519e-016
    outer loop
      vertex 0.470093 -19.5 27.2284
      vertex -3.78667 -19.5 32.0333
      vertex -1.38296 -19.5 27.4534
    endloop
  endfacet
  facet normal 8.39605e-016 -1 1.21638e-015
    outer loop
      vertex -1.38296 -19.5 27.4534
      vertex -3.78667 -19.5 32.0333
      vertex -2.91919 -19.5 28.5138
    endloop
  endfacet
  facet normal -2.09894e-016 -1 5.53445e-016
    outer loop
      vertex 2.21545 -19.5 27.8904
      vertex -3.78667 -19.5 32.0333
      vertex 0.470093 -19.5 27.2284
    endloop
  endfacet
  facet normal -3.67301e-016 -1 3.25401e-016
    outer loop
      vertex 3.45328 -19.5 29.2876
      vertex -3.78667 -19.5 32.0333
      vertex 2.21545 -19.5 27.8904
    endloop
  endfacet
  facet normal -4.48761e-016 -1 1.1061e-016
    outer loop
      vertex 3.9 -19.5 31.1
      vertex -3.78667 -19.5 32.0333
      vertex 3.45328 -19.5 29.2876
    endloop
  endfacet
  facet normal -2.31096e-016 -1 1.90324e-015
    outer loop
      vertex 3.45328 -19.5 32.9124
      vertex -3.78667 -19.5 32.0333
      vertex 3.9 -19.5 31.1
    endloop
  endfacet
  facet normal 0 -1 0
    outer loop
      vertex 2.21545 -19.5 34.3096
      vertex -3.78667 -19.5 32.0333
      vertex 3.45328 -19.5 32.9124
    endloop
  endfacet
  facet normal 0 -1 0
    outer loop
      vertex 0.470093 -19.5 34.9716
      vertex -3.78667 -19.5 32.0333
      vertex 2.21545 -19.5 34.3096
    endloop
  endfacet
  facet normal -0 -1 0
    outer loop
      vertex -1.38296 -19.5 34.7466
      vertex -3.78667 -19.5 32.0333
      vertex 0.470093 -19.5 34.9716
    endloop
  endfacet
  facet normal -0 -1 0
    outer loop
      vertex -2.91919 -19.5 33.6862
      vertex -3.78667 -19.5 32.0333
      vertex -1.38296 -19.5 34.7466
    endloop
  endfacet
  facet normal 0.970942 5.86358e-017 0.239315
    outer loop
      vertex 3.45328 19.5 32.9124
      vertex 3.45328 -9.5 32.9124
      vertex 3.9 -9.5 31.1
    endloop
  endfacet
  facet normal 0.970942 2.93179e-017 0.239315
    outer loop
      vertex 3.9 19.5 31.1
      vertex 3.45328 19.5 32.9124
      vertex 3.9 -9.5 31.1
    endloop
  endfacet
  facet normal -3.62633e-015 1 -1.90324e-015
    outer loop
      vertex -3.78667 19.5 30.1667
      vertex -3.78667 19.5 32.0333
      vertex -2.91919 19.5 28.5138
    endloop
  endfacet
  facet normal 1.30871e-015 1 -6.86866e-016
    outer loop
      vertex -2.91919 19.5 28.5138
      vertex -3.78667 19.5 32.0333
      vertex -2.91919 19.5 33.6862
    endloop
  endfacet
  facet normal 4.74109e-016 1 -6.86866e-016
    outer loop
      vertex -2.91919 19.5 28.5138
      vertex -2.91919 19.5 33.6862
      vertex -1.38296 19.5 34.7466
    endloop
  endfacet
  facet normal 7.1347e-017 1 -5.87594e-016
    outer loop
      vertex -2.91919 19.5 28.5138
      vertex -1.38296 19.5 34.7466
      vertex 0.470093 19.5 34.9716
    endloop
  endfacet
  facet normal -1.74008e-016 1 -4.58821e-016
    outer loop
      vertex -2.91919 19.5 28.5138
      vertex 0.470093 19.5 34.9716
      vertex 2.21545 19.5 34.3096
    endloop
  endfacet
  facet normal -3.45955e-016 1 -3.0649e-016
    outer loop
      vertex -2.91919 19.5 28.5138
      vertex 2.21545 19.5 34.3096
      vertex 3.45328 19.5 32.9124
    endloop
  endfacet
  facet normal -4.7645e-016 1 -1.17434e-016
    outer loop
      vertex -2.91919 19.5 28.5138
      vertex 3.45328 19.5 32.9124
      vertex 3.9 19.5 31.1
    endloop
  endfacet
  facet normal 2.45355e-016 1 -2.02068e-015
    outer loop
      vertex -2.91919 19.5 28.5138
      vertex 3.9 19.5 31.1
      vertex 3.45328 19.5 29.2876
    endloop
  endfacet
  facet normal 0 1 0
    outer loop
      vertex -2.91919 19.5 28.5138
      vertex 3.45328 19.5 29.2876
      vertex 2.21545 19.5 27.8904
    endloop
  endfacet
  facet normal 0 1 0
    outer loop
      vertex -2.91919 19.5 28.5138
      vertex 2.21545 19.5 27.8904
      vertex 0.470093 19.5 27.2284
    endloop
  endfacet
  facet normal 0 1 0
    outer loop
      vertex -2.91919 19.5 28.5138
      vertex 0.470093 19.5 27.2284
      vertex -1.38296 19.5 27.4534
    endloop
  endfacet
  facet normal -0.885456 1.13864e-016 0.464723
    outer loop
      vertex -3.78667 -9.5 32.0333
      vertex -2.91919 -9.5 33.6862
      vertex -3.78667 19.5 32.0333
    endloop
  endfacet
  facet normal -0.885456 1.12864e-016 0.464723
    outer loop
      vertex -3.78667 19.5 32.0333
      vertex -2.91919 -9.5 33.6862
      vertex -2.91919 19.5 33.6862
    endloop
  endfacet
  facet normal -0.568065 2.01643e-016 0.822984
    outer loop
      vertex -2.91919 19.5 33.6862
      vertex -2.91919 -9.5 33.6862
      vertex -1.38296 -9.5 34.7466
    endloop
  endfacet
  facet normal -0.568065 2.01643e-016 0.822984
    outer loop
      vertex -1.38296 19.5 34.7466
      vertex -2.91919 19.5 33.6862
      vertex -1.38296 -9.5 34.7466
    endloop
  endfacet
  facet normal -0.120537 2.43228e-016 0.992709
    outer loop
      vertex -1.38296 19.5 34.7466
      vertex -1.38296 -9.5 34.7466
      vertex 0.470093 -9.5 34.9716
    endloop
  endfacet
  facet normal -0.120537 2.43228e-016 0.992709
    outer loop
      vertex 0.470093 19.5 34.9716
      vertex -1.38296 19.5 34.7466
      vertex 0.470093 -9.5 34.9716
    endloop
  endfacet
  facet normal 0.354605 2.29093e-016 0.935016
    outer loop
      vertex 0.470093 19.5 34.9716
      vertex 0.470093 -9.5 34.9716
      vertex 2.21545 -9.5 34.3096
    endloop
  endfacet
  facet normal 0.354605 2.29093e-016 0.935016
    outer loop
      vertex 2.21545 19.5 34.3096
      vertex 0.470093 19.5 34.9716
      vertex 2.21545 -9.5 34.3096
    endloop
  endfacet
  facet normal 0.748511 1.62475e-016 0.663123
    outer loop
      vertex 2.21545 19.5 34.3096
      vertex 2.21545 -9.5 34.3096
      vertex 3.45328 -9.5 32.9124
    endloop
  endfacet
  facet normal 0.748511 1.62475e-016 0.663123
    outer loop
      vertex 3.45328 19.5 32.9124
      vertex 2.21545 19.5 34.3096
      vertex 3.45328 -9.5 32.9124
    endloop
  endfacet
endsolid OpenSCAD_Model
