solid OpenSCAD_Model
  facet normal -1 0 0
    outer loop
      vertex -17.1 37.5 10
      vertex -17.1 37.5 5
      vertex -17.1 19.5 10
    endloop
  endfacet
  facet normal -1 0 -0
    outer loop
      vertex -17.1 9.5 5
      vertex -17.1 9.5 31.1
      vertex -17.1 19.5 10
    endloop
  endfacet
  facet normal -1 -0 0
    outer loop
      vertex -17.1 9.5 5
      vertex -17.1 19.5 10
      vertex -17.1 37.5 5
    endloop
  endfacet
  facet normal -1 0 0
    outer loop
      vertex -17.1 19.5 10
      vertex -17.1 9.5 31.1
      vertex -17.1 19.5 31.1
    endloop
  endfacet
  facet normal 0 -1 0
    outer loop
      vertex -17.1 9.5 31.1
      vertex -17.1 9.5 5
      vertex 17.1 9.5 5
    endloop
  endfacet
  facet normal 0 -1 0
    outer loop
      vertex -1.43615 9.5 27.3132
      vertex -17.1 9.5 31.1
      vertex 17.1 9.5 5
    endloop
  endfacet
  facet normal 0 -1 0
    outer loop
      vertex 17.1 9.5 31.1
      vertex 3.5861 9.5 29.2179
      vertex 17.1 9.5 5
    endloop
  endfacet
  facet normal 0 -1 0
    outer loop
      vertex 3.5861 9.5 29.2179
      vertex 2.30066 9.5 27.7669
      vertex 17.1 9.5 5
    endloop
  endfacet
  facet normal 0 -1 0
    outer loop
      vertex 2.30066 9.5 27.7669
      vertex 0.488174 9.5 27.0795
      vertex 17.1 9.5 5
    endloop
  endfacet
  facet normal 0 -1 0
    outer loop
      vertex 0.488174 9.5 27.0795
      vertex -1.43615 9.5 27.3132
      vertex 17.1 9.5 5
    endloop
  endfacet
  facet normal 0 -1 0
    outer loop
      vertex -3.93231 9.5 30.1308
      vertex -3.93231 9.5 31.1
      vertex -17.1 9.5 31.1
    endloop
  endfacet
  facet normal 0 -1 0
    outer loop
      vertex -1.43615 9.5 27.3132
      vertex -3.03147 9.5 28.4144
      vertex -17.1 9.5 31.1
    endloop
  endfacet
  facet normal 0 -1 0
    outer loop
      vertex -3.03147 9.5 28.4144
      vertex -3.93231 9.5 30.1308
      vertex -17.1 9.5 31.1
    endloop
  endfacet
  facet normal 0 -1 0
    outer loop
      vertex 4.05 9.5 31.1
      vertex 3.5861 9.5 29.2179
      vertex 17.1 9.5 31.1
    endloop
  endfacet
  facet normal 0 0 -1
    outer loop
      vertex 0.482147 24.5292 5
      vertex 17.1 9.5 5
      vertex -1.41842 24.7599 5
    endloop
  endfacet
  facet normal 0 -0 -1
    outer loop
      vertex 0.482147 32.4708 5
      vertex -17.1 37.5 5
      vertex 17.1 37.5 5
    endloop
  endfacet
  facet normal 0 0 -1
    outer loop
      vertex -3.88377 27.5427 5
      vertex -17.1 37.5 5
      vertex -3.88377 29.4573 5
    endloop
  endfacet
  facet normal 0 -0 -1
    outer loop
      vertex -17.1 9.5 5
      vertex -17.1 37.5 5
      vertex -2.99404 25.8475 5
    endloop
  endfacet
  facet normal -0 0 -1
    outer loop
      vertex -17.1 9.5 5
      vertex -2.99404 25.8475 5
      vertex 17.1 9.5 5
    endloop
  endfacet
  facet normal 0 0 -1
    outer loop
      vertex 2.27226 25.2081 5
      vertex 17.1 9.5 5
      vertex 0.482147 24.5292 5
    endloop
  endfacet
  facet normal -0 0 -1
    outer loop
      vertex 0.482147 32.4708 5
      vertex 17.1 37.5 5
      vertex 2.27226 31.7919 5
    endloop
  endfacet
  facet normal 0 0 -1
    outer loop
      vertex 17.1 9.5 5
      vertex 2.27226 25.2081 5
      vertex 17.1 37.5 5
    endloop
  endfacet
  facet normal 0 0 -1
    outer loop
      vertex 2.27226 25.2081 5
      vertex 3.54182 26.6411 5
      vertex 17.1 37.5 5
    endloop
  endfacet
  facet normal 0 0 -1
    outer loop
      vertex 3.54182 26.6411 5
      vertex 4 28.5 5
      vertex 17.1 37.5 5
    endloop
  endfacet
  facet normal 0 -0 -1
    outer loop
      vertex 4 28.5 5
      vertex 3.54182 30.3589 5
      vertex 17.1 37.5 5
    endloop
  endfacet
  facet normal 0 -0 -1
    outer loop
      vertex 3.54182 30.3589 5
      vertex 2.27226 31.7919 5
      vertex 17.1 37.5 5
    endloop
  endfacet
  facet normal 0 -0 -1
    outer loop
      vertex -1.41842 32.2401 5
      vertex -17.1 37.5 5
      vertex 0.482147 32.4708 5
    endloop
  endfacet
  facet normal 0 -0 -1
    outer loop
      vertex -2.99404 31.1525 5
      vertex -17.1 37.5 5
      vertex -1.41842 32.2401 5
    endloop
  endfacet
  facet normal 0 -0 -1
    outer loop
      vertex -3.88377 29.4573 5
      vertex -17.1 37.5 5
      vertex -2.99404 31.1525 5
    endloop
  endfacet
  facet normal 0 0 -1
    outer loop
      vertex -2.99404 25.8475 5
      vertex -17.1 37.5 5
      vertex -3.88377 27.5427 5
    endloop
  endfacet
  facet normal 0 0 -1
    outer loop
      vertex -1.41842 24.7599 5
      vertex 17.1 9.5 5
      vertex -2.99404 25.8475 5
    endloop
  endfacet
  facet normal 0 1 0
    outer loop
      vertex -17.1 37.5 5
      vertex -17.1 37.5 10
      vertex 17.1 37.5 5
    endloop
  endfacet
  facet normal 0 1 0
    outer loop
      vertex 17.1 37.5 5
      vertex -17.1 37.5 10
      vertex 17.1 37.5 10
    endloop
  endfacet
  facet normal 0 -0 1
    outer loop
      vertex -17.1 37.5 10
      vertex -17.1 19.5 10
      vertex -13.55 19.5 10
    endloop
  endfacet
  facet normal 0 0 1
    outer loop
      vertex -10 28.5 10
      vertex -17.1 37.5 10
      vertex -13.55 28.5 10
    endloop
  endfacet
  facet normal -0 0 1
    outer loop
      vertex -13.55 28.5 10
      vertex -17.1 37.5 10
      vertex -13.55 19.5 10
    endloop
  endfacet
  facet normal 0 0 1
    outer loop
      vertex -3.88377 27.5427 10
      vertex -17.1 37.5 10
      vertex -10 28.5 10
    endloop
  endfacet
  facet normal -0 0 1
    outer loop
      vertex -1.41842 24.7599 10
      vertex -10 28.5 10
      vertex -10 19.5 10
    endloop
  endfacet
  facet normal 0 0 1
    outer loop
      vertex 0.482147 32.4708 10
      vertex 2.27226 31.7919 10
      vertex 13.55 28.5 10
    endloop
  endfacet
  facet normal 0 0 1
    outer loop
      vertex 17.1 37.5 10
      vertex -17.1 37.5 10
      vertex 17.1 28.5 10
    endloop
  endfacet
  facet normal 0 0 1
    outer loop
      vertex -2.99404 25.8475 10
      vertex -3.88377 27.5427 10
      vertex -10 28.5 10
    endloop
  endfacet
  facet normal -0 0 1
    outer loop
      vertex -3.88377 29.4573 10
      vertex -17.1 37.5 10
      vertex -3.88377 27.5427 10
    endloop
  endfacet
  facet normal -0 0 1
    outer loop
      vertex -1.41842 32.2401 10
      vertex -17.1 37.5 10
      vertex -2.99404 31.1525 10
    endloop
  endfacet
  facet normal 0 -0 1
    outer loop
      vertex 3.54182 26.6411 10
      vertex 2.27226 25.2081 10
      vertex 13.55 19.5 10
    endloop
  endfacet
  facet normal 0 0 1
    outer loop
      vertex 17.1 28.5 10
      vertex 0.482147 32.4708 10
      vertex 13.55 28.5 10
    endloop
  endfacet
  facet normal 0 0 1
    outer loop
      vertex 17.1 28.5 10
      vertex -17.1 37.5 10
      vertex 0.482147 32.4708 10
    endloop
  endfacet
  facet normal 0 0 1
    outer loop
      vertex 3.54182 30.3589 10
      vertex 4 28.5 10
      vertex 13.55 28.5 10
    endloop
  endfacet
  facet normal 0 0 1
    outer loop
      vertex 2.27226 31.7919 10
      vertex 3.54182 30.3589 10
      vertex 13.55 28.5 10
    endloop
  endfacet
  facet normal 0 0 1
    outer loop
      vertex 13.55 28.5 10
      vertex 4 28.5 10
      vertex 13.55 19.5 10
    endloop
  endfacet
  facet normal 0 -0 1
    outer loop
      vertex 4 28.5 10
      vertex 3.54182 26.6411 10
      vertex 13.55 19.5 10
    endloop
  endfacet
  facet normal -0 -0 1
    outer loop
      vertex 0.482147 24.5292 10
      vertex -1.41842 24.7599 10
      vertex 13.55 19.5 10
    endloop
  endfacet
  facet normal 0 0 1
    outer loop
      vertex -1.41842 24.7599 10
      vertex -2.99404 25.8475 10
      vertex -10 28.5 10
    endloop
  endfacet
  facet normal -0 0 1
    outer loop
      vertex 13.55 19.5 10
      vertex -1.41842 24.7599 10
      vertex -10 19.5 10
    endloop
  endfacet
  facet normal 0 -0 1
    outer loop
      vertex 2.27226 25.2081 10
      vertex 0.482147 24.5292 10
      vertex 13.55 19.5 10
    endloop
  endfacet
  facet normal 0 0 1
    outer loop
      vertex -3.88377 29.4573 10
      vertex -2.99404 31.1525 10
      vertex -17.1 37.5 10
    endloop
  endfacet
  facet normal 0 0 1
    outer loop
      vertex -1.41842 32.2401 10
      vertex 0.482147 32.4708 10
      vertex -17.1 37.5 10
    endloop
  endfacet
  facet normal 0 1 0
    outer loop
      vertex -10 19.5 28
      vertex -17.1 19.5 31.1
      vertex -3.93231 19.5 31.1
    endloop
  endfacet
  facet normal 0 1 0
    outer loop
      vertex 3.5861 19.5 29.2179
      vertex 4.05 19.5 31.1
      vertex 17.1 19.5 31.1
    endloop
  endfacet
  facet normal 0 1 -0
    outer loop
      vertex 3.5861 19.5 29.2179
      vertex 17.1 19.5 31.1
      vertex 2.30066 19.5 27.7669
    endloop
  endfacet
  facet normal 0 1 0
    outer loop
      vertex 2.30066 19.5 27.7669
      vertex 17.1 19.5 31.1
      vertex 10 19.5 28
    endloop
  endfacet
  facet normal 0 1 0
    outer loop
      vertex -10 19.5 28
      vertex -3.93231 19.5 31.1
      vertex -3.93231 19.5 30.1308
    endloop
  endfacet
  facet normal 0 0 0
    outer loop
      vertex -10 19.5 10
      vertex 10 19.5 10
      vertex 13.55 19.5 10
    endloop
  endfacet
  facet normal 0 1 0
    outer loop
      vertex -17.1 19.5 28
      vertex -17.1 19.5 31.1
      vertex -10 19.5 28
    endloop
  endfacet
  facet normal 0 3.3675e-016 0
    outer loop
      vertex -17.1 19.5 10
      vertex -17.1 19.5 31.1
      vertex -17.1 19.5 28
    endloop
  endfacet
  facet normal 0 1 0
    outer loop
      vertex 10 19.5 28
      vertex 17.1 19.5 31.1
      vertex 17.1 19.5 28
    endloop
  endfacet
  facet normal 0 1 0
    outer loop
      vertex -10 19.5 28
      vertex -3.93231 19.5 30.1308
      vertex -3.03147 19.5 28.4144
    endloop
  endfacet
  facet normal 0 1 0
    outer loop
      vertex -10 19.5 28
      vertex -3.03147 19.5 28.4144
      vertex -1.43615 19.5 27.3132
    endloop
  endfacet
  facet normal 0 1 0
    outer loop
      vertex -10 19.5 28
      vertex -1.43615 19.5 27.3132
      vertex 0.488174 19.5 27.0795
    endloop
  endfacet
  facet normal 0 1 0
    outer loop
      vertex 0.488174 19.5 27.0795
      vertex 2.30066 19.5 27.7669
      vertex 10 19.5 28
    endloop
  endfacet
  facet normal 0 1 0
    outer loop
      vertex 0.488174 19.5 27.0795
      vertex 10 19.5 28
      vertex 10 19.5 10
    endloop
  endfacet
  facet normal 0 1 0
    outer loop
      vertex -10 19.5 28
      vertex 0.488174 19.5 27.0795
      vertex 10 19.5 10
    endloop
  endfacet
  facet normal 0 1 -0
    outer loop
      vertex -10 19.5 28
      vertex 10 19.5 10
      vertex -10 19.5 10
    endloop
  endfacet
  facet normal -0.994522 0 0.104528
    outer loop
      vertex -17.1 9.5 31.1
      vertex -16.7263 9.5 34.6553
      vertex -17.1 19.5 31.1
    endloop
  endfacet
  facet normal -0.994522 0 0.104528
    outer loop
      vertex -17.1 19.5 31.1
      vertex -16.7263 9.5 34.6553
      vertex -16.7263 19.5 34.6553
    endloop
  endfacet
  facet normal 0 -1 0
    outer loop
      vertex -16.7263 9.5 34.6553
      vertex -17.1 9.5 31.1
      vertex -3.93231 9.5 31.1
    endloop
  endfacet
  facet normal 0 -1 0
    outer loop
      vertex -3.03147 9.5 33.7856
      vertex -16.7263 9.5 34.6553
      vertex -3.93231 9.5 32.0692
    endloop
  endfacet
  facet normal 0 -1 0
    outer loop
      vertex -3.93231 9.5 32.0692
      vertex -16.7263 9.5 34.6553
      vertex -3.93231 9.5 31.1
    endloop
  endfacet
  facet normal 0 -1 0
    outer loop
      vertex -1.43615 9.5 34.8868
      vertex -16.7263 9.5 34.6553
      vertex -3.03147 9.5 33.7856
    endloop
  endfacet
  facet normal 0 -1 0
    outer loop
      vertex 0.488174 9.5 35.1205
      vertex -16.7263 9.5 34.6553
      vertex -1.43615 9.5 34.8868
    endloop
  endfacet
  facet normal 0 -1 0
    outer loop
      vertex 15.6216 9.5 38.0552
      vertex -16.7263 9.5 34.6553
      vertex 0.488174 9.5 35.1205
    endloop
  endfacet
  facet normal 0 -1 0
    outer loop
      vertex 17.1 9.5 31.1
      vertex 0.488174 9.5 35.1205
      vertex 2.30066 9.5 34.4331
    endloop
  endfacet
  facet normal 0 -1 0
    outer loop
      vertex 17.1 9.5 31.1
      vertex 2.30066 9.5 34.4331
      vertex 3.5861 9.5 32.9821
    endloop
  endfacet
  facet normal 0 -1 0
    outer loop
      vertex 17.1 9.5 31.1
      vertex 3.5861 9.5 32.9821
      vertex 4.05 9.5 31.1
    endloop
  endfacet
  facet normal 0 -1 0
    outer loop
      vertex 16.7263 9.5 34.6553
      vertex 0.488174 9.5 35.1205
      vertex 17.1 9.5 31.1
    endloop
  endfacet
  facet normal 0 -1 0
    outer loop
      vertex 15.6216 9.5 38.0552
      vertex 0.488174 9.5 35.1205
      vertex 16.7263 9.5 34.6553
    endloop
  endfacet
  facet normal -5.68557e-017 -1 5.40946e-016
    outer loop
      vertex 13.8342 9.5 41.1511
      vertex -16.7263 9.5 34.6553
      vertex 15.6216 9.5 38.0552
    endloop
  endfacet
  facet normal 4.87884e-017 -1 4.39293e-017
    outer loop
      vertex 11.4421 9.5 43.8078
      vertex -16.7263 9.5 34.6553
      vertex 13.8342 9.5 41.1511
    endloop
  endfacet
  facet normal 4.35747e-017 -1 5.99755e-017
    outer loop
      vertex 8.55 9.5 45.909
      vertex -16.7263 9.5 34.6553
      vertex 11.4421 9.5 43.8078
    endloop
  endfacet
  facet normal -2.36824e-016 -1 6.89761e-016
    outer loop
      vertex 5.28419 9.5 47.3631
      vertex -16.7263 9.5 34.6553
      vertex 8.55 9.5 45.909
    endloop
  endfacet
  facet normal 4.34339e-017 -1 2.0434e-016
    outer loop
      vertex 1.78744 9.5 48.1063
      vertex -16.7263 9.5 34.6553
      vertex 5.28419 9.5 47.3631
    endloop
  endfacet
  facet normal 0 -1 2.64122e-016
    outer loop
      vertex -1.78744 9.5 48.1063
      vertex -16.7263 9.5 34.6553
      vertex 1.78744 9.5 48.1063
    endloop
  endfacet
  facet normal -7.34893e-017 -1 3.4574e-016
    outer loop
      vertex -5.28419 9.5 47.3631
      vertex -16.7263 9.5 34.6553
      vertex -1.78744 9.5 48.1063
    endloop
  endfacet
  facet normal 7.00122e-016 -1 -3.50822e-016
    outer loop
      vertex -8.55 9.5 45.909
      vertex -16.7263 9.5 34.6553
      vertex -5.28419 9.5 47.3631
    endloop
  endfacet
  facet normal -2.429e-016 -1 3.34323e-016
    outer loop
      vertex -11.4421 9.5 43.8078
      vertex -16.7263 9.5 34.6553
      vertex -8.55 9.5 45.909
    endloop
  endfacet
  facet normal -6.00781e-016 -1 5.40946e-016
    outer loop
      vertex -13.8342 9.5 41.1511
      vertex -16.7263 9.5 34.6553
      vertex -11.4421 9.5 43.8078
    endloop
  endfacet
  facet normal 2.27299e-015 -1 -7.38539e-016
    outer loop
      vertex -15.6216 9.5 38.0552
      vertex -16.7263 9.5 34.6553
      vertex -13.8342 9.5 41.1511
    endloop
  endfacet
  facet normal 1 0 0
    outer loop
      vertex -3.93231 9.5 32.0692
      vertex -3.93231 19.5 30.1308
      vertex -3.93231 19.5 31.1
    endloop
  endfacet
  facet normal 1 -0 0
    outer loop
      vertex -3.93231 19.5 32.0692
      vertex -3.93231 9.5 32.0692
      vertex -3.93231 19.5 31.1
    endloop
  endfacet
  facet normal 1 0 0
    outer loop
      vertex -3.93231 9.5 31.1
      vertex -3.93231 19.5 30.1308
      vertex -3.93231 9.5 32.0692
    endloop
  endfacet
  facet normal 1 0 0
    outer loop
      vertex -3.93231 9.5 30.1308
      vertex -3.93231 19.5 30.1308
      vertex -3.93231 9.5 31.1
    endloop
  endfacet
  facet normal 0.885456 1.65103e-016 0.464723
    outer loop
      vertex -3.03147 9.5 28.4144
      vertex -3.03147 19.5 28.4144
      vertex -3.93231 19.5 30.1308
    endloop
  endfacet
  facet normal 0.885456 0 0.464723
    outer loop
      vertex -3.93231 9.5 30.1308
      vertex -3.03147 9.5 28.4144
      vertex -3.93231 19.5 30.1308
    endloop
  endfacet
  facet normal 0.568065 2.92383e-016 0.822984
    outer loop
      vertex -1.43615 9.5 27.3132
      vertex -1.43615 19.5 27.3132
      vertex -3.03147 19.5 28.4144
    endloop
  endfacet
  facet normal 0.568065 2.92383e-016 0.822984
    outer loop
      vertex -3.03147 9.5 28.4144
      vertex -1.43615 9.5 27.3132
      vertex -3.03147 19.5 28.4144
    endloop
  endfacet
  facet normal 0.120537 0 0.992709
    outer loop
      vertex 0.488174 9.5 27.0795
      vertex 0.488174 19.5 27.0795
      vertex -1.43615 19.5 27.3132
    endloop
  endfacet
  facet normal 0.120537 3.52681e-016 0.992709
    outer loop
      vertex -1.43615 9.5 27.3132
      vertex 0.488174 9.5 27.0795
      vertex -1.43615 19.5 27.3132
    endloop
  endfacet
  facet normal -0.354605 0 0.935016
    outer loop
      vertex 2.30066 9.5 27.7669
      vertex 2.30066 19.5 27.7669
      vertex 0.488174 19.5 27.0795
    endloop
  endfacet
  facet normal -0.354605 0 0.935016
    outer loop
      vertex 0.488174 9.5 27.0795
      vertex 2.30066 9.5 27.7669
      vertex 0.488174 19.5 27.0795
    endloop
  endfacet
  facet normal -0.748511 2.35589e-016 0.663123
    outer loop
      vertex 3.5861 19.5 29.2179
      vertex 2.30066 19.5 27.7669
      vertex 3.5861 9.5 29.2179
    endloop
  endfacet
  facet normal -0.748511 0 0.663123
    outer loop
      vertex 3.5861 9.5 29.2179
      vertex 2.30066 19.5 27.7669
      vertex 2.30066 9.5 27.7669
    endloop
  endfacet
  facet normal -0.970942 8.5022e-017 0.239316
    outer loop
      vertex 4.05 19.5 31.1
      vertex 3.5861 19.5 29.2179
      vertex 4.05 9.5 31.1
    endloop
  endfacet
  facet normal -0.970942 8.63525e-017 0.239316
    outer loop
      vertex 4.05 9.5 31.1
      vertex 3.5861 19.5 29.2179
      vertex 3.5861 9.5 29.2179
    endloop
  endfacet
  facet normal 1 0 -0
    outer loop
      vertex 17.1 28.5 10
      vertex 17.1 9.5 5
      vertex 17.1 37.5 5
    endloop
  endfacet
  facet normal 1 0 0
    outer loop
      vertex 17.1 28.5 10
      vertex 17.1 19.5 28
      vertex 17.1 9.5 31.1
    endloop
  endfacet
  facet normal 1 0 -0
    outer loop
      vertex 17.1 9.5 31.1
      vertex 17.1 9.5 5
      vertex 17.1 28.5 10
    endloop
  endfacet
  facet normal 1 -0 -0
    outer loop
      vertex 17.1 19.5 31.1
      vertex 17.1 9.5 31.1
      vertex 17.1 19.5 28
    endloop
  endfacet
  facet normal 1 0 0
    outer loop
      vertex 17.1 37.5 10
      vertex 17.1 28.5 10
      vertex 17.1 37.5 5
    endloop
  endfacet
  facet normal 0.885456 -0.464723 0
    outer loop
      vertex -2.99404 31.1525 5
      vertex -2.99404 31.1525 10
      vertex -3.88377 29.4573 10
    endloop
  endfacet
  facet normal 0.885456 -0.464723 0
    outer loop
      vertex -3.88377 29.4573 5
      vertex -2.99404 31.1525 5
      vertex -3.88377 29.4573 10
    endloop
  endfacet
  facet normal 1 0 0
    outer loop
      vertex -3.88377 29.4573 5
      vertex -3.88377 29.4573 10
      vertex -3.88377 27.5427 10
    endloop
  endfacet
  facet normal 1 0 0
    outer loop
      vertex -3.88377 27.5427 5
      vertex -3.88377 29.4573 5
      vertex -3.88377 27.5427 10
    endloop
  endfacet
  facet normal 0.568065 -0.822984 0
    outer loop
      vertex -1.41842 32.2401 5
      vertex -1.41842 32.2401 10
      vertex -2.99404 31.1525 10
    endloop
  endfacet
  facet normal 0.568065 -0.822984 0
    outer loop
      vertex -2.99404 31.1525 5
      vertex -1.41842 32.2401 5
      vertex -2.99404 31.1525 10
    endloop
  endfacet
  facet normal 0.120536 -0.992709 0
    outer loop
      vertex 0.482147 32.4708 5
      vertex 0.482147 32.4708 10
      vertex -1.41842 32.2401 10
    endloop
  endfacet
  facet normal 0.120536 -0.992709 0
    outer loop
      vertex -1.41842 32.2401 5
      vertex 0.482147 32.4708 5
      vertex -1.41842 32.2401 10
    endloop
  endfacet
  facet normal -0.354605 -0.935016 -0
    outer loop
      vertex 2.27226 31.7919 5
      vertex 2.27226 31.7919 10
      vertex 0.482147 32.4708 10
    endloop
  endfacet
  facet normal -0.354605 -0.935016 -0
    outer loop
      vertex 0.482147 32.4708 5
      vertex 2.27226 31.7919 5
      vertex 0.482147 32.4708 10
    endloop
  endfacet
  facet normal -0.748511 -0.663123 0
    outer loop
      vertex 3.54182 30.3589 10
      vertex 2.27226 31.7919 10
      vertex 3.54182 30.3589 5
    endloop
  endfacet
  facet normal -0.748511 -0.663123 0
    outer loop
      vertex 3.54182 30.3589 5
      vertex 2.27226 31.7919 10
      vertex 2.27226 31.7919 5
    endloop
  endfacet
  facet normal -0.970942 -0.239316 0
    outer loop
      vertex 4 28.5 10
      vertex 3.54182 30.3589 10
      vertex 4 28.5 5
    endloop
  endfacet
  facet normal -0.970942 -0.239316 0
    outer loop
      vertex 4 28.5 5
      vertex 3.54182 30.3589 10
      vertex 3.54182 30.3589 5
    endloop
  endfacet
  facet normal -0.970942 0.239316 0
    outer loop
      vertex 4 28.5 10
      vertex 4 28.5 5
      vertex 3.54182 26.6411 10
    endloop
  endfacet
  facet normal -0.970942 0.239316 0
    outer loop
      vertex 3.54182 26.6411 10
      vertex 4 28.5 5
      vertex 3.54182 26.6411 5
    endloop
  endfacet
  facet normal -0.748511 0.663123 0
    outer loop
      vertex 3.54182 26.6411 10
      vertex 3.54182 26.6411 5
      vertex 2.27226 25.2081 10
    endloop
  endfacet
  facet normal -0.748511 0.663123 0
    outer loop
      vertex 2.27226 25.2081 10
      vertex 3.54182 26.6411 5
      vertex 2.27226 25.2081 5
    endloop
  endfacet
  facet normal -0.354605 0.935016 0
    outer loop
      vertex 2.27226 25.2081 10
      vertex 2.27226 25.2081 5
      vertex 0.482147 24.5292 10
    endloop
  endfacet
  facet normal -0.354605 0.935016 0
    outer loop
      vertex 0.482147 24.5292 10
      vertex 2.27226 25.2081 5
      vertex 0.482147 24.5292 5
    endloop
  endfacet
  facet normal 0.120536 0.992709 -0
    outer loop
      vertex 0.482147 24.5292 10
      vertex 0.482147 24.5292 5
      vertex -1.41842 24.7599 10
    endloop
  endfacet
  facet normal 0.120536 0.992709 -0
    outer loop
      vertex -1.41842 24.7599 10
      vertex 0.482147 24.5292 5
      vertex -1.41842 24.7599 5
    endloop
  endfacet
  facet normal 0.568065 0.822984 -0
    outer loop
      vertex -1.41842 24.7599 10
      vertex -1.41842 24.7599 5
      vertex -2.99404 25.8475 10
    endloop
  endfacet
  facet normal 0.568065 0.822984 -0
    outer loop
      vertex -2.99404 25.8475 10
      vertex -1.41842 24.7599 5
      vertex -2.99404 25.8475 5
    endloop
  endfacet
  facet normal 0.885456 0.464723 0
    outer loop
      vertex -3.88377 27.5427 10
      vertex -2.99404 25.8475 10
      vertex -2.99404 25.8475 5
    endloop
  endfacet
  facet normal 0.885456 0.464723 0
    outer loop
      vertex -3.88377 27.5427 5
      vertex -3.88377 27.5427 10
      vertex -2.99404 25.8475 5
    endloop
  endfacet
  facet normal 0 0.894427 0.447214
    outer loop
      vertex 10 28.5 10
      vertex 10 19.5 28
      vertex 13.55 28.5 10
    endloop
  endfacet
  facet normal 2.5175e-016 0.894427 0.447214
    outer loop
      vertex 13.55 28.5 10
      vertex 10 19.5 28
      vertex 17.1 19.5 28
    endloop
  endfacet
  facet normal 8.95111e-016 0.894427 0.447214
    outer loop
      vertex 13.55 28.5 10
      vertex 17.1 19.5 28
      vertex 17.1 28.5 10
    endloop
  endfacet
  facet normal -0 -0 -1
    outer loop
      vertex 10 19.5 10
      vertex 10 28.5 10
      vertex 13.55 19.5 10
    endloop
  endfacet
  facet normal 0 0 -1
    outer loop
      vertex 13.55 19.5 10
      vertex 10 28.5 10
      vertex 13.55 28.5 10
    endloop
  endfacet
  facet normal 1 0 -1.97373e-016
    outer loop
      vertex -10 19.5 28
      vertex -10 19.5 10
      vertex -10 28.5 10
    endloop
  endfacet
  facet normal 0 0.894427 0.447214
    outer loop
      vertex -17.1 28.5 10
      vertex -17.1 19.5 28
      vertex -13.55 28.5 10
    endloop
  endfacet
  facet normal 2.5175e-016 0.894427 0.447214
    outer loop
      vertex -13.55 28.5 10
      vertex -17.1 19.5 28
      vertex -10 19.5 28
    endloop
  endfacet
  facet normal 8.95111e-016 0.894427 0.447214
    outer loop
      vertex -13.55 28.5 10
      vertex -10 19.5 28
      vertex -10 28.5 10
    endloop
  endfacet
  facet normal -0 -0 -1
    outer loop
      vertex -17.1 19.5 10
      vertex -17.1 28.5 10
      vertex -13.55 19.5 10
    endloop
  endfacet
  facet normal 0 0 -1
    outer loop
      vertex -13.55 19.5 10
      vertex -17.1 28.5 10
      vertex -13.55 28.5 10
    endloop
  endfacet
  facet normal -1 0 1.97373e-016
    outer loop
      vertex -17.1 28.5 10
      vertex -17.1 19.5 10
      vertex -17.1 19.5 28
    endloop
  endfacet
  facet normal -1 0 1.97373e-016
    outer loop
      vertex 10 28.5 10
      vertex 10 19.5 10
      vertex 10 19.5 28
    endloop
  endfacet
  facet normal 4.54597e-015 1 -1.47708e-015
    outer loop
      vertex -17.1 19.5 31.1
      vertex -16.7263 19.5 34.6553
      vertex -15.6216 19.5 38.0552
    endloop
  endfacet
  facet normal 1.40024e-015 1 -8.08431e-016
    outer loop
      vertex -17.1 19.5 31.1
      vertex -15.6216 19.5 38.0552
      vertex -13.8342 19.5 41.1511
    endloop
  endfacet
  facet normal 6.14203e-016 1 -5.53031e-016
    outer loop
      vertex -17.1 19.5 31.1
      vertex -13.8342 19.5 41.1511
      vertex -11.4421 19.5 43.8078
    endloop
  endfacet
  facet normal 3.00241e-016 1 -4.13246e-016
    outer loop
      vertex -17.1 19.5 31.1
      vertex -11.4421 19.5 43.8078
      vertex -8.55 19.5 45.909
    endloop
  endfacet
  facet normal -1.32047e-015 1 5.22472e-016
    outer loop
      vertex -17.1 19.5 31.1
      vertex -8.55 19.5 45.909
      vertex -5.28419 19.5 47.3631
    endloop
  endfacet
  facet normal 1.09828e-016 1 -5.16701e-016
    outer loop
      vertex -17.1 19.5 31.1
      vertex -5.28419 19.5 47.3631
      vertex -1.78744 19.5 48.1063
    endloop
  endfacet
  facet normal 1.35894e-031 1 -4.17811e-016
    outer loop
      vertex -17.1 19.5 31.1
      vertex -1.78744 19.5 48.1063
      vertex 1.78744 19.5 48.1063
    endloop
  endfacet
  facet normal -7.18475e-017 1 -3.38016e-016
    outer loop
      vertex -17.1 19.5 31.1
      vertex 1.78744 19.5 48.1063
      vertex 5.28419 19.5 47.3631
    endloop
  endfacet
  facet normal 5.53897e-016 1 -1.19928e-015
    outer loop
      vertex -17.1 19.5 31.1
      vertex 5.28419 19.5 47.3631
      vertex 8.55 19.5 45.909
    endloop
  endfacet
  facet normal -7.71777e-017 1 -1.06226e-016
    outer loop
      vertex -17.1 19.5 31.1
      vertex 8.55 19.5 45.909
      vertex 11.4421 19.5 43.8078
    endloop
  endfacet
  facet normal -8.88528e-017 1 -8.00034e-017
    outer loop
      vertex -17.1 19.5 31.1
      vertex 11.4421 19.5 43.8078
      vertex 13.8342 19.5 41.1511
    endloop
  endfacet
  facet normal 0 1 0
    outer loop
      vertex 0.488174 19.5 35.1205
      vertex 13.8342 19.5 41.1511
      vertex 15.6216 19.5 38.0552
    endloop
  endfacet
  facet normal 0 1 0
    outer loop
      vertex 2.30066 19.5 34.4331
      vertex 15.6216 19.5 38.0552
      vertex 16.7263 19.5 34.6553
    endloop
  endfacet
  facet normal 0 1 0
    outer loop
      vertex 3.5861 19.5 32.9821
      vertex 16.7263 19.5 34.6553
      vertex 17.1 19.5 31.1
    endloop
  endfacet
  facet normal -2.80647e-016 1 1.47295e-016
    outer loop
      vertex -3.93231 19.5 32.0692
      vertex -17.1 19.5 31.1
      vertex -3.03147 19.5 33.7856
    endloop
  endfacet
  facet normal 0 1 0
    outer loop
      vertex 2.30066 19.5 34.4331
      vertex 16.7263 19.5 34.6553
      vertex 3.5861 19.5 32.9821
    endloop
  endfacet
  facet normal 0 1 0
    outer loop
      vertex 0.488174 19.5 35.1205
      vertex 15.6216 19.5 38.0552
      vertex 2.30066 19.5 34.4331
    endloop
  endfacet
  facet normal 0 1 0
    outer loop
      vertex -1.43615 19.5 34.8868
      vertex 13.8342 19.5 41.1511
      vertex 0.488174 19.5 35.1205
    endloop
  endfacet
  facet normal -3.49068e-016 1 5.05713e-016
    outer loop
      vertex -3.03147 19.5 33.7856
      vertex -17.1 19.5 31.1
      vertex -1.43615 19.5 34.8868
    endloop
  endfacet
  facet normal -5.52278e-016 1 1.34627e-015
    outer loop
      vertex -17.1 19.5 31.1
      vertex 13.8342 19.5 41.1511
      vertex -1.43615 19.5 34.8868
    endloop
  endfacet
  facet normal 0 1 -3.66551e-015
    outer loop
      vertex -3.93231 19.5 31.1
      vertex -17.1 19.5 31.1
      vertex -3.93231 19.5 32.0692
    endloop
  endfacet
  facet normal 0 1 0
    outer loop
      vertex 3.5861 19.5 32.9821
      vertex 17.1 19.5 31.1
      vertex 4.05 19.5 31.1
    endloop
  endfacet
  facet normal -0.951056 0 0.309017
    outer loop
      vertex -16.7263 9.5 34.6553
      vertex -15.6216 9.5 38.0552
      vertex -16.7263 19.5 34.6553
    endloop
  endfacet
  facet normal -0.951056 0 0.309017
    outer loop
      vertex -16.7263 19.5 34.6553
      vertex -15.6216 9.5 38.0552
      vertex -15.6216 19.5 38.0552
    endloop
  endfacet
  facet normal -0.866025 0 0.5
    outer loop
      vertex -15.6216 9.5 38.0552
      vertex -13.8342 9.5 41.1511
      vertex -15.6216 19.5 38.0552
    endloop
  endfacet
  facet normal -0.866025 0 0.5
    outer loop
      vertex -15.6216 19.5 38.0552
      vertex -13.8342 9.5 41.1511
      vertex -13.8342 19.5 41.1511
    endloop
  endfacet
  facet normal -0.743145 0 0.669131
    outer loop
      vertex -13.8342 9.5 41.1511
      vertex -11.4421 9.5 43.8078
      vertex -13.8342 19.5 41.1511
    endloop
  endfacet
  facet normal -0.743145 0 0.669131
    outer loop
      vertex -13.8342 19.5 41.1511
      vertex -11.4421 9.5 43.8078
      vertex -11.4421 19.5 43.8078
    endloop
  endfacet
  facet normal -0.587785 0 0.809017
    outer loop
      vertex -11.4421 19.5 43.8078
      vertex -11.4421 9.5 43.8078
      vertex -8.55 9.5 45.909
    endloop
  endfacet
  facet normal -0.587785 0 0.809017
    outer loop
      vertex -8.55 19.5 45.909
      vertex -11.4421 19.5 43.8078
      vertex -8.55 9.5 45.909
    endloop
  endfacet
  facet normal -0.406737 0 0.913545
    outer loop
      vertex -8.55 19.5 45.909
      vertex -8.55 9.5 45.909
      vertex -5.28419 9.5 47.3631
    endloop
  endfacet
  facet normal -0.406737 0 0.913545
    outer loop
      vertex -5.28419 19.5 47.3631
      vertex -8.55 19.5 45.909
      vertex -5.28419 9.5 47.3631
    endloop
  endfacet
  facet normal -0.207912 0 0.978148
    outer loop
      vertex -5.28419 19.5 47.3631
      vertex -5.28419 9.5 47.3631
      vertex -1.78744 9.5 48.1063
    endloop
  endfacet
  facet normal -0.207912 0 0.978148
    outer loop
      vertex -1.78744 19.5 48.1063
      vertex -5.28419 19.5 47.3631
      vertex -1.78744 9.5 48.1063
    endloop
  endfacet
  facet normal 0 -0 1
    outer loop
      vertex -1.78744 19.5 48.1063
      vertex -1.78744 9.5 48.1063
      vertex 1.78744 9.5 48.1063
    endloop
  endfacet
  facet normal 0 0 1
    outer loop
      vertex 1.78744 19.5 48.1063
      vertex -1.78744 19.5 48.1063
      vertex 1.78744 9.5 48.1063
    endloop
  endfacet
  facet normal 0.207912 -0 0.978148
    outer loop
      vertex 1.78744 19.5 48.1063
      vertex 1.78744 9.5 48.1063
      vertex 5.28419 9.5 47.3631
    endloop
  endfacet
  facet normal 0.207912 -0 0.978148
    outer loop
      vertex 5.28419 19.5 47.3631
      vertex 1.78744 19.5 48.1063
      vertex 5.28419 9.5 47.3631
    endloop
  endfacet
  facet normal 0.406737 -0 0.913545
    outer loop
      vertex 5.28419 19.5 47.3631
      vertex 5.28419 9.5 47.3631
      vertex 8.55 9.5 45.909
    endloop
  endfacet
  facet normal 0.406737 -0 0.913545
    outer loop
      vertex 8.55 19.5 45.909
      vertex 5.28419 19.5 47.3631
      vertex 8.55 9.5 45.909
    endloop
  endfacet
  facet normal 0.587785 -0 0.809017
    outer loop
      vertex 8.55 19.5 45.909
      vertex 8.55 9.5 45.909
      vertex 11.4421 9.5 43.8078
    endloop
  endfacet
  facet normal 0.587785 -0 0.809017
    outer loop
      vertex 11.4421 19.5 43.8078
      vertex 8.55 19.5 45.909
      vertex 11.4421 9.5 43.8078
    endloop
  endfacet
  facet normal 0.743145 -0 0.669131
    outer loop
      vertex 11.4421 19.5 43.8078
      vertex 11.4421 9.5 43.8078
      vertex 13.8342 9.5 41.1511
    endloop
  endfacet
  facet normal 0.743145 -0 0.669131
    outer loop
      vertex 13.8342 19.5 41.1511
      vertex 11.4421 19.5 43.8078
      vertex 13.8342 9.5 41.1511
    endloop
  endfacet
  facet normal 0.866025 -0 0.5
    outer loop
      vertex 13.8342 19.5 41.1511
      vertex 13.8342 9.5 41.1511
      vertex 15.6216 9.5 38.0552
    endloop
  endfacet
  facet normal 0.866025 -0 0.5
    outer loop
      vertex 15.6216 19.5 38.0552
      vertex 13.8342 19.5 41.1511
      vertex 15.6216 9.5 38.0552
    endloop
  endfacet
  facet normal 0.951056 -0 0.309017
    outer loop
      vertex 15.6216 19.5 38.0552
      vertex 15.6216 9.5 38.0552
      vertex 16.7263 9.5 34.6553
    endloop
  endfacet
  facet normal 0.951056 -0 0.309017
    outer loop
      vertex 16.7263 19.5 34.6553
      vertex 15.6216 19.5 38.0552
      vertex 16.7263 9.5 34.6553
    endloop
  endfacet
  facet normal 0.994522 -0 0.104528
    outer loop
      vertex 16.7263 19.5 34.6553
      vertex 16.7263 9.5 34.6553
      vertex 17.1 9.5 31.1
    endloop
  endfacet
  facet normal 0.994522 3.7136e-017 0.104528
    outer loop
      vertex 17.1 19.5 31.1
      vertex 16.7263 19.5 34.6553
      vertex 17.1 9.5 31.1
    endloop
  endfacet
  facet normal -0.970942 0 -0.239316
    outer loop
      vertex 4.05 19.5 31.1
      vertex 4.05 9.5 31.1
      vertex 3.5861 19.5 32.9821
    endloop
  endfacet
  facet normal -0.970942 0 -0.239316
    outer loop
      vertex 3.5861 19.5 32.9821
      vertex 4.05 9.5 31.1
      vertex 3.5861 9.5 32.9821
    endloop
  endfacet
  facet normal -0.748511 0 -0.663123
    outer loop
      vertex 3.5861 19.5 32.9821
      vertex 3.5861 9.5 32.9821
      vertex 2.30066 19.5 34.4331
    endloop
  endfacet
  facet normal -0.748511 0 -0.663123
    outer loop
      vertex 2.30066 19.5 34.4331
      vertex 3.5861 9.5 32.9821
      vertex 2.30066 9.5 34.4331
    endloop
  endfacet
  facet normal -0.354605 0 -0.935016
    outer loop
      vertex 2.30066 19.5 34.4331
      vertex 2.30066 9.5 34.4331
      vertex 0.488174 19.5 35.1205
    endloop
  endfacet
  facet normal -0.354605 -6.64369e-016 -0.935016
    outer loop
      vertex 0.488174 19.5 35.1205
      vertex 2.30066 9.5 34.4331
      vertex 0.488174 9.5 35.1205
    endloop
  endfacet
  facet normal 0.120537 -7.05362e-016 -0.992709
    outer loop
      vertex 0.488174 19.5 35.1205
      vertex 0.488174 9.5 35.1205
      vertex -1.43615 19.5 34.8868
    endloop
  endfacet
  facet normal 0.120537 -7.05362e-016 -0.992709
    outer loop
      vertex -1.43615 19.5 34.8868
      vertex 0.488174 9.5 35.1205
      vertex -1.43615 9.5 34.8868
    endloop
  endfacet
  facet normal 0.568065 -5.84765e-016 -0.822984
    outer loop
      vertex -1.43615 19.5 34.8868
      vertex -1.43615 9.5 34.8868
      vertex -3.03147 19.5 33.7856
    endloop
  endfacet
  facet normal 0.568065 0 -0.822984
    outer loop
      vertex -3.03147 19.5 33.7856
      vertex -1.43615 9.5 34.8868
      vertex -3.03147 9.5 33.7856
    endloop
  endfacet
  facet normal 0.885456 0 -0.464723
    outer loop
      vertex -3.93231 19.5 32.0692
      vertex -3.03147 19.5 33.7856
      vertex -3.03147 9.5 33.7856
    endloop
  endfacet
  facet normal 0.885456 -3.30205e-016 -0.464723
    outer loop
      vertex -3.93231 9.5 32.0692
      vertex -3.93231 19.5 32.0692
      vertex -3.03147 9.5 33.7856
    endloop
  endfacet
endsolid OpenSCAD_Model
