solid OpenSCAD_Model
  facet normal -6.22276e-032 -2.36848e-016 1
    outer loop
      vertex 10 20 30
      vertex 23.5222 20 30
      vertex 23.5222 35 30
    endloop
  endfacet
  facet normal -4.20726e-032 -2.36848e-016 1
    outer loop
      vertex -10 20 30
      vertex 10 20 30
      vertex -23.5222 35 30
    endloop
  endfacet
  facet normal -7.15454e-032 -2.36848e-016 1
    outer loop
      vertex -23.5222 35 30
      vertex 10 20 30
      vertex 23.5222 35 30
    endloop
  endfacet
  facet normal 0 0 1
    outer loop
      vertex 7.5 19.05 30
      vertex 10 20 30
      vertex -10 20 30
    endloop
  endfacet
  facet normal -6.22276e-032 -2.36848e-016 1
    outer loop
      vertex -23.5222 20 30
      vertex -10 20 30
      vertex -23.5222 35 30
    endloop
  endfacet
  facet normal 0 0 1
    outer loop
      vertex -7.5 19.05 30
      vertex 7.5 19.05 30
      vertex -10 20 30
    endloop
  endfacet
  facet normal -0 0 1
    outer loop
      vertex 7.5 9.75 30
      vertex -7.5 9.75 30
      vertex -10 7.75 30
    endloop
  endfacet
  facet normal 1.45165e-016 -3.82012e-016 1
    outer loop
      vertex 7.5 19.05 30
      vertex 7.5 9.75 30
      vertex 10 20 30
    endloop
  endfacet
  facet normal 0 0 1
    outer loop
      vertex -10 7.75 30
      vertex 10 7.75 30
      vertex 7.5 9.75 30
    endloop
  endfacet
  facet normal 2.32014e-016 -2.90017e-016 1
    outer loop
      vertex -10 7.75 30
      vertex -7.5 9.75 30
      vertex -10 20 30
    endloop
  endfacet
  facet normal -1.45165e-016 -3.82012e-016 1
    outer loop
      vertex -7.5 9.75 30
      vertex -7.5 19.05 30
      vertex -10 20 30
    endloop
  endfacet
  facet normal -2.32014e-016 -2.90017e-016 1
    outer loop
      vertex 10 7.75 30
      vertex 10 20 30
      vertex 7.5 9.75 30
    endloop
  endfacet
  facet normal 0.809017 -3.30829e-016 0.587785
    outer loop
      vertex 23.5222 35 30
      vertex 23.5222 20 30
      vertex 24.2487 20 29
    endloop
  endfacet
  facet normal 0.809017 -3.30829e-016 0.587785
    outer loop
      vertex 24.2487 35 29
      vertex 23.5222 35 30
      vertex 24.2487 20 29
    endloop
  endfacet
  facet normal -2.62733e-016 -1 -1.90886e-016
    outer loop
      vertex 24.2487 20 29
      vertex 23.5222 20 30
      vertex 10 20 30
    endloop
  endfacet
  facet normal -2.62674e-016 -1 -1.90048e-016
    outer loop
      vertex 18.0427 20 18.8838
      vertex 24.2487 20 29
      vertex 10 20 30
    endloop
  endfacet
  facet normal 3.49278e-016 -1 -2.53765e-016
    outer loop
      vertex 24.2487 20 1
      vertex 24.2487 20 29
      vertex 23.5222 20 1.11022e-015
    endloop
  endfacet
  facet normal -9.22225e-016 -1 -2.53765e-016
    outer loop
      vertex 26.6296 20 6.34752
      vertex 24.2487 20 29
      vertex 24.2487 20 1
    endloop
  endfacet
  facet normal 4.9372e-016 -1 -1.04943e-016
    outer loop
      vertex 27.8466 20 12.0732
      vertex 24.2487 20 29
      vertex 26.6296 20 6.34752
    endloop
  endfacet
  facet normal 9.8744e-016 -1 0
    outer loop
      vertex 27.8466 20 17.9268
      vertex 24.2487 20 29
      vertex 27.8466 20 12.0732
    endloop
  endfacet
  facet normal -2.66679e-015 -1 -1.18733e-015
    outer loop
      vertex 26.6296 20 23.6525
      vertex 24.2487 20 29
      vertex 27.8466 20 17.9268
    endloop
  endfacet
  facet normal 0 -1 -0
    outer loop
      vertex 16.3475 20 17.994
      vertex 18.0427 20 18.8838
      vertex 10 20 30
    endloop
  endfacet
  facet normal 2.27784e-016 -1 -2.57114e-016
    outer loop
      vertex 22.2919 20 12.7277
      vertex 20.8589 20 11.4582
      vertex 23.5222 20 1.11022e-015
    endloop
  endfacet
  facet normal -3.37228e-016 -1 -1.27894e-016
    outer loop
      vertex 15.7081 20 12.7277
      vertex 15.0292 20 14.5179
      vertex 10 20 1.11022e-015
    endloop
  endfacet
  facet normal -1.50754e-016 -1 -2.87238e-016
    outer loop
      vertex 21.6525 20 17.994
      vertex 24.2487 20 29
      vertex 19.9573 20 18.8838
    endloop
  endfacet
  facet normal -1.76975e-016 -1 -1.99763e-016
    outer loop
      vertex 17.1411 20 11.4582
      vertex 15.7081 20 12.7277
      vertex 10 20 1.11022e-015
    endloop
  endfacet
  facet normal -3.48542e-016 -1 -2.40581e-016
    outer loop
      vertex 22.7401 20 16.4184
      vertex 24.2487 20 29
      vertex 21.6525 20 17.994
    endloop
  endfacet
  facet normal -1.17007e-015 -1 -1.42072e-016
    outer loop
      vertex 22.9708 20 14.5179
      vertex 24.2487 20 29
      vertex 22.7401 20 16.4184
    endloop
  endfacet
  facet normal -4.78033e-018 -1 -2.44895e-016
    outer loop
      vertex 23.5222 20 1.11022e-015
      vertex 24.2487 20 29
      vertex 22.9708 20 14.5179
    endloop
  endfacet
  facet normal -2.62733e-016 -1 -3.71127e-016
    outer loop
      vertex 23.5222 20 1.11022e-015
      vertex 20.8589 20 11.4582
      vertex 10 20 1.11022e-015
    endloop
  endfacet
  facet normal -2.29426e-015 -1 1.55415e-015
    outer loop
      vertex 20.8589 20 11.4582
      vertex 19 20 11
      vertex 10 20 1.11022e-015
    endloop
  endfacet
  facet normal -6.62464e-017 -1 -2.68772e-016
    outer loop
      vertex 19 20 11
      vertex 17.1411 20 11.4582
      vertex 10 20 1.11022e-015
    endloop
  endfacet
  facet normal 5.86525e-016 -1 -2.22439e-016
    outer loop
      vertex 22.9708 20 14.5179
      vertex 22.2919 20 12.7277
      vertex 23.5222 20 1.11022e-015
    endloop
  endfacet
  facet normal -2.27066e-017 -1 -2.36848e-016
    outer loop
      vertex 10 20 1.11022e-015
      vertex 15.0292 20 14.5179
      vertex 10 20 30
    endloop
  endfacet
  facet normal -3.6746e-015 -1 -1.42312e-015
    outer loop
      vertex 15.0292 20 14.5179
      vertex 15.2599 20 16.4184
      vertex 10 20 30
    endloop
  endfacet
  facet normal 0 -1 -0
    outer loop
      vertex 15.2599 20 16.4184
      vertex 16.3475 20 17.994
      vertex 10 20 30
    endloop
  endfacet
  facet normal -0 -1 -3.51189e-016
    outer loop
      vertex 18.0427 20 18.8838
      vertex 19.9573 20 18.8838
      vertex 24.2487 20 29
    endloop
  endfacet
  facet normal 1 -1.45009e-016 -3.21979e-032
    outer loop
      vertex 10 20 30
      vertex 10 7.75 30
      vertex 10 7.75 -1.60982e-015
    endloop
  endfacet
  facet normal 1 -1.45009e-016 -3.4345e-032
    outer loop
      vertex 10 20 1.11022e-015
      vertex 10 20 30
      vertex 10 7.75 -1.60982e-015
    endloop
  endfacet
  facet normal -2.22045e-016 -1 -2.36848e-016
    outer loop
      vertex 10 7.75 -1.60982e-015
      vertex 10 7.75 30
      vertex -10 7.75 30
    endloop
  endfacet
  facet normal -2.22045e-016 -1 -2.36848e-016
    outer loop
      vertex -10 7.75 -1.60982e-015
      vertex 10 7.75 -1.60982e-015
      vertex -10 7.75 30
    endloop
  endfacet
  facet normal -1 1.45009e-016 3.4345e-032
    outer loop
      vertex -10 7.75 30
      vertex -10 20 30
      vertex -10 7.75 -1.60982e-015
    endloop
  endfacet
  facet normal -1 1.45009e-016 3.21979e-032
    outer loop
      vertex -10 7.75 -1.60982e-015
      vertex -10 20 30
      vertex -10 20 1.11022e-015
    endloop
  endfacet
  facet normal -2.62733e-016 -1 -1.29507e-016
    outer loop
      vertex -18.0427 20 18.8838
      vertex -10 20 30
      vertex -23.5222 20 30
    endloop
  endfacet
  facet normal -2.3977e-015 -1 -1.07531e-015
    outer loop
      vertex -15.0292 20 14.5179
      vertex -15.7081 20 12.7277
      vertex -10 20 1.11022e-015
    endloop
  endfacet
  facet normal -0 -1 -0
    outer loop
      vertex -27.8466 20 12.0732
      vertex -10 20 1.11022e-015
      vertex -27.8466 20 17.9268
    endloop
  endfacet
  facet normal -4.90255e-016 -1 -7.24695e-016
    outer loop
      vertex -26.6296 20 6.34752
      vertex -10 20 1.11022e-015
      vertex -27.8466 20 12.0732
    endloop
  endfacet
  facet normal -2.57378e-016 -1 -1.14592e-016
    outer loop
      vertex -24.2487 20 1
      vertex -10 20 1.11022e-015
      vertex -26.6296 20 6.34752
    endloop
  endfacet
  facet normal -2.62733e-016 -1 -1.90886e-016
    outer loop
      vertex -23.5222 20 1.11022e-015
      vertex -10 20 1.11022e-015
      vertex -24.2487 20 1
    endloop
  endfacet
  facet normal -3.60204e-016 -1 -5.03993e-016
    outer loop
      vertex -26.6296 20 23.6525
      vertex -19.9573 20 18.8838
      vertex -24.2487 20 29
    endloop
  endfacet
  facet normal -1.21573e-016 -1 -2.31638e-016
    outer loop
      vertex -16.3475 20 17.994
      vertex -10 20 30
      vertex -18.0427 20 18.8838
    endloop
  endfacet
  facet normal 0 -1 0
    outer loop
      vertex -15.7081 20 12.7277
      vertex -17.1411 20 11.4582
      vertex -10 20 1.11022e-015
    endloop
  endfacet
  facet normal -2.42761e-016 -1 -1.67566e-016
    outer loop
      vertex -15.2599 20 16.4184
      vertex -10 20 30
      vertex -16.3475 20 17.994
    endloop
  endfacet
  facet normal -6.38695e-017 -1 -2.36848e-016
    outer loop
      vertex -10 20 1.11022e-015
      vertex -10 20 30
      vertex -15.2599 20 16.4184
    endloop
  endfacet
  facet normal 0 -1 0
    outer loop
      vertex -22.2919 20 12.7277
      vertex -22.9708 20 14.5179
      vertex -27.8466 20 17.9268
    endloop
  endfacet
  facet normal 1.08766e-015 -1 1.32065e-016
    outer loop
      vertex -10 20 1.11022e-015
      vertex -15.2599 20 16.4184
      vertex -15.0292 20 14.5179
    endloop
  endfacet
  facet normal 0 -1 0
    outer loop
      vertex -20.8589 20 11.4582
      vertex -10 20 1.11022e-015
      vertex -19 20 11
    endloop
  endfacet
  facet normal 0 -1 0
    outer loop
      vertex -22.2919 20 12.7277
      vertex -10 20 1.11022e-015
      vertex -20.8589 20 11.4582
    endloop
  endfacet
  facet normal 0 -1 -0
    outer loop
      vertex -22.7401 20 16.4184
      vertex -21.6525 20 17.994
      vertex -26.6296 20 23.6525
    endloop
  endfacet
  facet normal 0 -1 0
    outer loop
      vertex -27.8466 20 17.9268
      vertex -10 20 1.11022e-015
      vertex -22.2919 20 12.7277
    endloop
  endfacet
  facet normal -0 -1 0
    outer loop
      vertex -27.8466 20 17.9268
      vertex -22.9708 20 14.5179
      vertex -26.6296 20 23.6525
    endloop
  endfacet
  facet normal 0 -1 -0
    outer loop
      vertex -22.9708 20 14.5179
      vertex -22.7401 20 16.4184
      vertex -26.6296 20 23.6525
    endloop
  endfacet
  facet normal 0 -1 0
    outer loop
      vertex -26.6296 20 23.6525
      vertex -21.6525 20 17.994
      vertex -19.9573 20 18.8838
    endloop
  endfacet
  facet normal 0 -1 0
    outer loop
      vertex -17.1411 20 11.4582
      vertex -19 20 11
      vertex -10 20 1.11022e-015
    endloop
  endfacet
  facet normal 3.05181e-016 -1 -2.21727e-016
    outer loop
      vertex -19.9573 20 18.8838
      vertex -23.5222 20 30
      vertex -24.2487 20 29
    endloop
  endfacet
  facet normal -1.85566e-015 -1 -9.14696e-016
    outer loop
      vertex -19.9573 20 18.8838
      vertex -18.0427 20 18.8838
      vertex -23.5222 20 30
    endloop
  endfacet
  facet normal -0.809017 5.23982e-017 0.587785
    outer loop
      vertex -23.5222 20 30
      vertex -23.5222 35 30
      vertex -24.2487 20 29
    endloop
  endfacet
  facet normal -0.809017 5.23982e-017 0.587785
    outer loop
      vertex -24.2487 20 29
      vertex -23.5222 35 30
      vertex -24.2487 35 29
    endloop
  endfacet
  facet normal 3.02074e-016 1 2.19469e-016
    outer loop
      vertex 23.5222 35 30
      vertex 24.2487 35 29
      vertex -23.5222 35 30
    endloop
  endfacet
  facet normal 3.00278e-016 1 1.33692e-016
    outer loop
      vertex -23.5222 35 30
      vertex 24.2487 35 29
      vertex 26.6296 35 23.6525
    endloop
  endfacet
  facet normal 4.52599e-016 1 1.33718e-015
    outer loop
      vertex -23.5222 35 30
      vertex 26.6296 35 23.6525
      vertex 27.8466 35 17.9268
    endloop
  endfacet
  facet normal 0 1 0
    outer loop
      vertex 21.6525 35 17.994
      vertex 27.8466 35 17.9268
      vertex 27.8466 35 12.0732
    endloop
  endfacet
  facet normal 0 1 0
    outer loop
      vertex 22.2919 35 12.7277
      vertex 27.8466 35 12.0732
      vertex 26.6296 35 6.34752
    endloop
  endfacet
  facet normal 1.17092e-016 1 -5.21326e-017
    outer loop
      vertex -23.5222 35 30
      vertex 26.6296 35 6.34752
      vertex 24.2487 35 1
    endloop
  endfacet
  facet normal 1.03216e-016 1 -7.49905e-017
    outer loop
      vertex -23.5222 35 30
      vertex 24.2487 35 1
      vertex 23.5222 35 4.44089e-015
    endloop
  endfacet
  facet normal 3.02074e-016 1 5.21764e-016
    outer loop
      vertex -19 35 11
      vertex 23.5222 35 4.44089e-015
      vertex -23.5222 35 4.44089e-015
    endloop
  endfacet
  facet normal 3.25993e-016 1 2.36848e-016
    outer loop
      vertex -23.5222 35 30
      vertex -23.5222 35 4.44089e-015
      vertex -24.2487 35 1
    endloop
  endfacet
  facet normal 5.20996e-016 1 2.31962e-016
    outer loop
      vertex -23.5222 35 30
      vertex -24.2487 35 1
      vertex -26.6296 35 6.34752
    endloop
  endfacet
  facet normal -2.73472e-015 1 6.59692e-016
    outer loop
      vertex -23.5222 35 30
      vertex -26.6296 35 6.34752
      vertex -27.8466 35 12.0732
    endloop
  endfacet
  facet normal 0 1 0
    outer loop
      vertex -23.5222 35 30
      vertex -27.8466 35 12.0732
      vertex -27.8466 35 17.9268
    endloop
  endfacet
  facet normal 0 1 0
    outer loop
      vertex -23.5222 35 30
      vertex -27.8466 35 17.9268
      vertex -26.6296 35 23.6525
    endloop
  endfacet
  facet normal 0 1 0
    outer loop
      vertex -23.5222 35 30
      vertex -26.6296 35 23.6525
      vertex -24.2487 35 29
    endloop
  endfacet
  facet normal -1.47526e-016 1 -1.21622e-015
    outer loop
      vertex -23.5222 35 30
      vertex 27.8466 35 17.9268
      vertex 19.9573 35 18.8838
    endloop
  endfacet
  facet normal -2.56614e-032 1 -6.39194e-016
    outer loop
      vertex -23.5222 35 30
      vertex 19.9573 35 18.8838
      vertex 18.0427 35 18.8838
    endloop
  endfacet
  facet normal 1.13243e-016 1 -2.15766e-016
    outer loop
      vertex -23.5222 35 30
      vertex 18.0427 35 18.8838
      vertex 16.3475 35 17.994
    endloop
  endfacet
  facet normal -0 1 -0
    outer loop
      vertex 19 35 11
      vertex 26.6296 35 6.34752
      vertex 17.1411 35 11.4582
    endloop
  endfacet
  facet normal 1.75741e-016 1 -2.13388e-017
    outer loop
      vertex -23.5222 35 30
      vertex 15.2599 35 16.4184
      vertex 15.0292 35 14.5179
    endloop
  endfacet
  facet normal 2.17426e-016 1 8.24589e-017
    outer loop
      vertex -23.5222 35 30
      vertex 15.0292 35 14.5179
      vertex 15.7081 35 12.7277
    endloop
  endfacet
  facet normal 3.60062e-016 1 4.06426e-016
    outer loop
      vertex -23.5222 35 30
      vertex 15.7081 35 12.7277
      vertex 17.1411 35 11.4582
    endloop
  endfacet
  facet normal 1.13898e-015 1 2.11465e-015
    outer loop
      vertex -23.5222 35 30
      vertex 17.1411 35 11.4582
      vertex 26.6296 35 6.34752
    endloop
  endfacet
  facet normal 0 1 -0
    outer loop
      vertex 20.8589 35 11.4582
      vertex 26.6296 35 6.34752
      vertex 19 35 11
    endloop
  endfacet
  facet normal 0 1 -0
    outer loop
      vertex 22.2919 35 12.7277
      vertex 26.6296 35 6.34752
      vertex 20.8589 35 11.4582
    endloop
  endfacet
  facet normal 0 1 -0
    outer loop
      vertex 22.9708 35 14.5179
      vertex 27.8466 35 12.0732
      vertex 22.2919 35 12.7277
    endloop
  endfacet
  facet normal 0 1 0
    outer loop
      vertex 21.6525 35 17.994
      vertex 27.8466 35 12.0732
      vertex 22.7401 35 16.4184
    endloop
  endfacet
  facet normal 0 1 0
    outer loop
      vertex 19.9573 35 18.8838
      vertex 27.8466 35 17.9268
      vertex 21.6525 35 17.994
    endloop
  endfacet
  facet normal 1.17305e-015 1 4.44879e-016
    outer loop
      vertex -22.2919 35 12.7277
      vertex -23.5222 35 4.44089e-015
      vertex -22.9708 35 14.5179
    endloop
  endfacet
  facet normal 2.20278e-016 1 1.0858e-016
    outer loop
      vertex -23.5222 35 30
      vertex 23.5222 35 4.44089e-015
      vertex -18.0427 35 18.8838
    endloop
  endfacet
  facet normal 0 1 0
    outer loop
      vertex -23.5222 35 30
      vertex -18.0427 35 18.8838
      vertex -19.9573 35 18.8838
    endloop
  endfacet
  facet normal 0 1 0
    outer loop
      vertex -23.5222 35 30
      vertex -19.9573 35 18.8838
      vertex -21.6525 35 17.994
    endloop
  endfacet
  facet normal 0 1 0
    outer loop
      vertex -23.5222 35 30
      vertex -21.6525 35 17.994
      vertex -22.7401 35 16.4184
    endloop
  endfacet
  facet normal 0 1 0
    outer loop
      vertex -23.5222 35 30
      vertex -22.7401 35 16.4184
      vertex -22.9708 35 14.5179
    endloop
  endfacet
  facet normal 6.65098e-015 1 2.36848e-016
    outer loop
      vertex -23.5222 35 30
      vertex -22.9708 35 14.5179
      vertex -23.5222 35 4.44089e-015
    endloop
  endfacet
  facet normal 4.55567e-016 1 5.14229e-016
    outer loop
      vertex -20.8589 35 11.4582
      vertex -23.5222 35 4.44089e-015
      vertex -22.2919 35 12.7277
    endloop
  endfacet
  facet normal 1.44563e-016 1 5.86517e-016
    outer loop
      vertex -19 35 11
      vertex -23.5222 35 4.44089e-015
      vertex -20.8589 35 11.4582
    endloop
  endfacet
  facet normal 8.15301e-017 1 -3.30781e-016
    outer loop
      vertex -17.1411 35 11.4582
      vertex 23.5222 35 4.44089e-015
      vertex -19 35 11
    endloop
  endfacet
  facet normal 1.32572e-016 1 -1.49642e-016
    outer loop
      vertex -15.7081 35 12.7277
      vertex 23.5222 35 4.44089e-015
      vertex -17.1411 35 11.4582
    endloop
  endfacet
  facet normal 1.61277e-016 1 -6.11644e-017
    outer loop
      vertex -15.0292 35 14.5179
      vertex 23.5222 35 4.44089e-015
      vertex -15.7081 35 12.7277
    endloop
  endfacet
  facet normal 1.93142e-016 1 2.34517e-017
    outer loop
      vertex -15.2599 35 16.4184
      vertex 23.5222 35 4.44089e-015
      vertex -15.0292 35 14.5179
    endloop
  endfacet
  facet normal 2.58857e-016 1 1.78676e-016
    outer loop
      vertex -16.3475 35 17.994
      vertex 23.5222 35 4.44089e-015
      vertex -15.2599 35 16.4184
    endloop
  endfacet
  facet normal 1.27226e-015 1 2.42409e-015
    outer loop
      vertex -18.0427 35 18.8838
      vertex 23.5222 35 4.44089e-015
      vertex -16.3475 35 17.994
    endloop
  endfacet
  facet normal 1.47548e-016 1 -1.01845e-016
    outer loop
      vertex 15.2599 35 16.4184
      vertex -23.5222 35 30
      vertex 16.3475 35 17.994
    endloop
  endfacet
  facet normal 0 1 0
    outer loop
      vertex 22.7401 35 16.4184
      vertex 27.8466 35 12.0732
      vertex 22.9708 35 14.5179
    endloop
  endfacet
  facet normal -1 2.86509e-016 4.24119e-032
    outer loop
      vertex 7.5 19.05 6
      vertex 7.5 9.75 6
      vertex 7.5 19.05 30
    endloop
  endfacet
  facet normal -1 2.86509e-016 6.36178e-032
    outer loop
      vertex 7.5 19.05 30
      vertex 7.5 9.75 6
      vertex 7.5 9.75 30
    endloop
  endfacet
  facet normal -2.36848e-016 -1 -1.4803e-016
    outer loop
      vertex -7.5 19.05 30
      vertex -7.5 19.05 6
      vertex 7.5 19.05 6
    endloop
  endfacet
  facet normal -2.36848e-016 -1 -1.4803e-016
    outer loop
      vertex 7.5 19.05 30
      vertex -7.5 19.05 30
      vertex 7.5 19.05 6
    endloop
  endfacet
  facet normal 1 -2.86509e-016 -4.77134e-032
    outer loop
      vertex -7.5 9.75 6
      vertex -7.5 19.05 6
      vertex -7.5 19.05 30
    endloop
  endfacet
  facet normal 1 -2.86509e-016 -6.36178e-032
    outer loop
      vertex -7.5 9.75 30
      vertex -7.5 9.75 6
      vertex -7.5 19.05 30
    endloop
  endfacet
  facet normal 3.08761e-016 1 7.10543e-016
    outer loop
      vertex 1.74682 9.75 6
      vertex 1.74682 9.75 8.5
      vertex 7.5 9.75 6
    endloop
  endfacet
  facet normal 4.41544e-017 1 1.01611e-016
    outer loop
      vertex 7.5 9.75 6
      vertex 1.74682 9.75 8.5
      vertex -7.5 9.75 30
    endloop
  endfacet
  facet normal 3.08761e-016 1 7.88912e-032
    outer loop
      vertex -7.5 9.75 6
      vertex -1.74682 9.75 8.5
      vertex -1.74682 9.75 6
    endloop
  endfacet
  facet normal 2.12273e-016 1 2.22045e-016
    outer loop
      vertex -7.5 9.75 30
      vertex -1.74682 9.75 8.5
      vertex -7.5 9.75 6
    endloop
  endfacet
  facet normal 5.08455e-016 1 3.013e-016
    outer loop
      vertex 1.74682 9.75 8.5
      vertex -1.74682 9.75 8.5
      vertex -7.5 9.75 30
    endloop
  endfacet
  facet normal 2.36848e-016 1 2.22045e-016
    outer loop
      vertex 7.5 9.75 6
      vertex -7.5 9.75 30
      vertex 7.5 9.75 30
    endloop
  endfacet
  facet normal 0.913545 -3.12706e-016 0.406737
    outer loop
      vertex 24.2487 35 29
      vertex 24.2487 20 29
      vertex 26.6296 20 23.6525
    endloop
  endfacet
  facet normal 0.913545 -3.12706e-016 0.406737
    outer loop
      vertex 26.6296 35 23.6525
      vertex 24.2487 35 29
      vertex 26.6296 20 23.6525
    endloop
  endfacet
  facet normal 0.978148 -2.80915e-016 0.207912
    outer loop
      vertex 26.6296 35 23.6525
      vertex 26.6296 20 23.6525
      vertex 27.8466 20 17.9268
    endloop
  endfacet
  facet normal 0.978148 -2.80915e-016 0.207912
    outer loop
      vertex 27.8466 35 17.9268
      vertex 26.6296 35 23.6525
      vertex 27.8466 20 17.9268
    endloop
  endfacet
  facet normal 1 -2.36848e-016 0
    outer loop
      vertex 27.8466 35 17.9268
      vertex 27.8466 20 17.9268
      vertex 27.8466 20 12.0732
    endloop
  endfacet
  facet normal 1 -2.36848e-016 0
    outer loop
      vertex 27.8466 35 12.0732
      vertex 27.8466 35 17.9268
      vertex 27.8466 20 12.0732
    endloop
  endfacet
  facet normal 0.978148 -1.82428e-016 -0.207912
    outer loop
      vertex 27.8466 35 12.0732
      vertex 27.8466 20 12.0732
      vertex 26.6296 20 6.34752
    endloop
  endfacet
  facet normal 0.978148 -1.82428e-016 -0.207912
    outer loop
      vertex 26.6296 35 6.34752
      vertex 27.8466 35 12.0732
      vertex 26.6296 20 6.34752
    endloop
  endfacet
  facet normal 0.913545 -1.20036e-016 -0.406737
    outer loop
      vertex 26.6296 35 6.34752
      vertex 26.6296 20 6.34752
      vertex 24.2487 20 1
    endloop
  endfacet
  facet normal 0.913545 -1.26057e-016 -0.406737
    outer loop
      vertex 24.2487 35 1
      vertex 26.6296 35 6.34752
      vertex 24.2487 20 1
    endloop
  endfacet
  facet normal 0.809017 -6.10992e-017 -0.587785
    outer loop
      vertex 24.2487 35 1
      vertex 24.2487 20 1
      vertex 23.5222 20 1.11022e-015
    endloop
  endfacet
  facet normal 0.809017 -6.10992e-017 -0.587785
    outer loop
      vertex 23.5222 35 4.44089e-015
      vertex 24.2487 35 1
      vertex 23.5222 20 1.11022e-015
    endloop
  endfacet
  facet normal 5.83383e-032 2.22045e-016 -1
    outer loop
      vertex 23.5222 20 1.11022e-015
      vertex 10 20 1.11022e-015
      vertex 23.5222 35 4.44089e-015
    endloop
  endfacet
  facet normal 6.54064e-032 2.22045e-016 -1
    outer loop
      vertex 4.1 15.745 1.65423e-016
      vertex 10 20 1.11022e-015
      vertex 10 7.75 -1.60982e-015
    endloop
  endfacet
  facet normal 6.71921e-032 2.22045e-016 -1
    outer loop
      vertex -4.1 19.045 8.9817e-016
      vertex -10 7.75 -1.60982e-015
      vertex -10 20 1.11022e-015
    endloop
  endfacet
  facet normal 7.75071e-032 2.22045e-016 -1
    outer loop
      vertex 23.5222 35 4.44089e-015
      vertex -10 20 1.11022e-015
      vertex -23.5222 20 1.11022e-015
    endloop
  endfacet
  facet normal 6.70738e-032 2.22045e-016 -1
    outer loop
      vertex 23.5222 35 4.44089e-015
      vertex -23.5222 20 1.11022e-015
      vertex -23.5222 35 4.44089e-015
    endloop
  endfacet
  facet normal 6.31447e-032 2.22045e-016 -1
    outer loop
      vertex 4.1 19.045 8.9817e-016
      vertex 10 20 1.11022e-015
      vertex 4.1 15.745 1.65423e-016
    endloop
  endfacet
  facet normal 5.10494e-032 2.22045e-016 -1
    outer loop
      vertex 1.7 12.7 -5.10703e-016
      vertex 4.1 15.745 1.65423e-016
      vertex 10 7.75 -1.60982e-015
    endloop
  endfacet
  facet normal 6.1694e-032 2.22045e-016 -1
    outer loop
      vertex 23.5222 35 4.44089e-015
      vertex 10 20 1.11022e-015
      vertex 4.1 19.045 8.9817e-016
    endloop
  endfacet
  facet normal -1.35526e-031 2.22045e-016 -1
    outer loop
      vertex -4.1 15.745 1.65423e-016
      vertex -10 7.75 -1.60982e-015
      vertex -4.1 19.045 8.9817e-016
    endloop
  endfacet
  facet normal 7.77825e-032 2.22045e-016 -1
    outer loop
      vertex 23.5222 35 4.44089e-015
      vertex -4.1 19.045 8.9817e-016
      vertex -10 20 1.11022e-015
    endloop
  endfacet
  facet normal -7.02155e-032 2.22045e-016 -1
    outer loop
      vertex 0.85 14.1722 -1.83799e-016
      vertex 4.1 15.745 1.65423e-016
      vertex 1.7 12.7 -5.10703e-016
    endloop
  endfacet
  facet normal -1.89221e-032 2.22045e-016 -1
    outer loop
      vertex 0.85 11.2278 -8.37606e-016
      vertex 1.7 12.7 -5.10703e-016
      vertex 10 7.75 -1.60982e-015
    endloop
  endfacet
  facet normal 1.08322e-031 2.22045e-016 -1
    outer loop
      vertex -0.85 11.2278 -8.37606e-016
      vertex -10 7.75 -1.60982e-015
      vertex -1.7 12.7 -5.10703e-016
    endloop
  endfacet
  facet normal 4.93038e-032 2.22045e-016 -1
    outer loop
      vertex -10 7.75 -1.60982e-015
      vertex -0.85 11.2278 -8.37606e-016
      vertex 10 7.75 -1.60982e-015
    endloop
  endfacet
  facet normal 3.90545e-039 2.22045e-016 -1
    outer loop
      vertex -0.85 11.2278 -8.37606e-016
      vertex 0.85 11.2278 -8.37606e-016
      vertex 10 7.75 -1.60982e-015
    endloop
  endfacet
  facet normal -2.32869e-032 2.22045e-016 -1
    outer loop
      vertex -1.7 12.7 -5.10703e-016
      vertex -10 7.75 -1.60982e-015
      vertex -0.85 14.1722 -1.83799e-016
    endloop
  endfacet
  facet normal 2.40893e-032 2.22045e-016 -1
    outer loop
      vertex 4.1 15.745 1.65423e-016
      vertex 0.85 14.1722 -1.83799e-016
      vertex -0.85 14.1722 -1.83799e-016
    endloop
  endfacet
  facet normal 1.09185e-031 2.22045e-016 -1
    outer loop
      vertex -0.85 14.1722 -1.83799e-016
      vertex -10 7.75 -1.60982e-015
      vertex -4.1 15.745 1.65423e-016
    endloop
  endfacet
  facet normal 4.81013e-032 2.22045e-016 -1
    outer loop
      vertex 4.1 15.745 1.65423e-016
      vertex -0.85 14.1722 -1.83799e-016
      vertex -4.1 15.745 1.65423e-016
    endloop
  endfacet
  facet normal 0 2.22045e-016 -1
    outer loop
      vertex -4.1 19.045 8.9817e-016
      vertex 23.5222 35 4.44089e-015
      vertex 4.1 19.045 8.9817e-016
    endloop
  endfacet
  facet normal 0 2.36848e-016 -1
    outer loop
      vertex 18.0427 35 18.8838
      vertex 19.9573 35 18.8838
      vertex 18.0427 20 18.8838
    endloop
  endfacet
  facet normal 0 2.36848e-016 -1
    outer loop
      vertex 18.0427 20 18.8838
      vertex 19.9573 35 18.8838
      vertex 19.9573 20 18.8838
    endloop
  endfacet
  facet normal 0.464723 9.96496e-017 -0.885456
    outer loop
      vertex 16.3475 35 17.994
      vertex 18.0427 35 18.8838
      vertex 16.3475 20 17.994
    endloop
  endfacet
  facet normal 0.464723 9.92602e-017 -0.885456
    outer loop
      vertex 16.3475 20 17.994
      vertex 18.0427 35 18.8838
      vertex 18.0427 20 18.8838
    endloop
  endfacet
  facet normal 0.822984 -1.94922e-016 -0.568065
    outer loop
      vertex 15.2599 20 16.4184
      vertex 15.2599 35 16.4184
      vertex 16.3475 35 17.994
    endloop
  endfacet
  facet normal 0.822984 -6.0377e-017 -0.568065
    outer loop
      vertex 16.3475 20 17.994
      vertex 15.2599 20 16.4184
      vertex 16.3475 35 17.994
    endloop
  endfacet
  facet normal 0.992709 -2.06572e-016 -0.120536
    outer loop
      vertex 15.0292 20 14.5179
      vertex 15.0292 35 14.5179
      vertex 15.2599 35 16.4184
    endloop
  endfacet
  facet normal 0.992709 -2.35121e-016 -0.120536
    outer loop
      vertex 15.2599 20 16.4184
      vertex 15.0292 20 14.5179
      vertex 15.2599 35 16.4184
    endloop
  endfacet
  facet normal 0.935016 -3.05444e-016 0.354605
    outer loop
      vertex 15.7081 20 12.7277
      vertex 15.7081 35 12.7277
      vertex 15.0292 35 14.5179
    endloop
  endfacet
  facet normal 0.935016 -3.05444e-016 0.354605
    outer loop
      vertex 15.0292 20 14.5179
      vertex 15.7081 20 12.7277
      vertex 15.0292 35 14.5179
    endloop
  endfacet
  facet normal 0.663123 -3.34342e-016 0.748511
    outer loop
      vertex 17.1411 20 11.4582
      vertex 17.1411 35 11.4582
      vertex 15.7081 35 12.7277
    endloop
  endfacet
  facet normal 0.663123 -3.34342e-016 0.748511
    outer loop
      vertex 15.7081 20 12.7277
      vertex 17.1411 20 11.4582
      vertex 15.7081 35 12.7277
    endloop
  endfacet
  facet normal 0.239316 -2.86647e-016 0.970942
    outer loop
      vertex 19 20 11
      vertex 19 35 11
      vertex 17.1411 35 11.4582
    endloop
  endfacet
  facet normal 0.239316 -2.86647e-016 0.970942
    outer loop
      vertex 17.1411 20 11.4582
      vertex 19 20 11
      vertex 17.1411 35 11.4582
    endloop
  endfacet
  facet normal -0.239316 -1.72607e-016 0.970942
    outer loop
      vertex 20.8589 35 11.4582
      vertex 19 35 11
      vertex 19 20 11
    endloop
  endfacet
  facet normal -0.239316 -1.73284e-016 0.970942
    outer loop
      vertex 20.8589 20 11.4582
      vertex 20.8589 35 11.4582
      vertex 19 20 11
    endloop
  endfacet
  facet normal -0.663123 -2.01414e-017 0.748511
    outer loop
      vertex 22.2919 35 12.7277
      vertex 20.8589 35 11.4582
      vertex 20.8589 20 11.4582
    endloop
  endfacet
  facet normal -0.663123 -2.02239e-017 0.748511
    outer loop
      vertex 22.2919 20 12.7277
      vertex 22.2919 35 12.7277
      vertex 20.8589 20 11.4582
    endloop
  endfacet
  facet normal -0.935016 1.37469e-016 0.354605
    outer loop
      vertex 22.2919 35 12.7277
      vertex 22.2919 20 12.7277
      vertex 22.9708 35 14.5179
    endloop
  endfacet
  facet normal -0.935016 1.37469e-016 0.354605
    outer loop
      vertex 22.9708 35 14.5179
      vertex 22.2919 20 12.7277
      vertex 22.9708 20 14.5179
    endloop
  endfacet
  facet normal -0.992709 2.63669e-016 -0.120536
    outer loop
      vertex 22.9708 35 14.5179
      vertex 22.9708 20 14.5179
      vertex 22.7401 35 16.4184
    endloop
  endfacet
  facet normal -0.992709 2.35121e-016 -0.120536
    outer loop
      vertex 22.7401 35 16.4184
      vertex 22.9708 20 14.5179
      vertex 22.7401 20 16.4184
    endloop
  endfacet
  facet normal -0.822984 1.94922e-016 -0.568065
    outer loop
      vertex 22.7401 35 16.4184
      vertex 22.7401 20 16.4184
      vertex 21.6525 35 17.994
    endloop
  endfacet
  facet normal -0.822984 3.29466e-016 -0.568065
    outer loop
      vertex 21.6525 35 17.994
      vertex 22.7401 20 16.4184
      vertex 21.6525 20 17.994
    endloop
  endfacet
  facet normal -0.464723 3.19787e-016 -0.885456
    outer loop
      vertex 21.6525 35 17.994
      vertex 21.6525 20 17.994
      vertex 19.9573 35 18.8838
    endloop
  endfacet
  facet normal -0.464723 2.09718e-016 -0.885456
    outer loop
      vertex 19.9573 35 18.8838
      vertex 21.6525 20 17.994
      vertex 19.9573 20 18.8838
    endloop
  endfacet
  facet normal -0.809017 3.22128e-016 -0.587785
    outer loop
      vertex -24.2487 20 1
      vertex -24.2487 35 1
      vertex -23.5222 20 1.11022e-015
    endloop
  endfacet
  facet normal -0.809017 3.22128e-016 -0.587785
    outer loop
      vertex -23.5222 20 1.11022e-015
      vertex -24.2487 35 1
      vertex -23.5222 35 4.44089e-015
    endloop
  endfacet
  facet normal -0.913545 3.12706e-016 -0.406737
    outer loop
      vertex -26.6296 20 6.34752
      vertex -26.6296 35 6.34752
      vertex -24.2487 20 1
    endloop
  endfacet
  facet normal -0.913545 3.06685e-016 -0.406737
    outer loop
      vertex -24.2487 20 1
      vertex -26.6296 35 6.34752
      vertex -24.2487 35 1
    endloop
  endfacet
  facet normal -0.978148 2.80915e-016 -0.207912
    outer loop
      vertex -27.8466 20 12.0732
      vertex -27.8466 35 12.0732
      vertex -26.6296 20 6.34752
    endloop
  endfacet
  facet normal -0.978148 2.80915e-016 -0.207912
    outer loop
      vertex -26.6296 20 6.34752
      vertex -27.8466 35 12.0732
      vertex -26.6296 35 6.34752
    endloop
  endfacet
  facet normal -1 2.36848e-016 0
    outer loop
      vertex -27.8466 20 17.9268
      vertex -27.8466 35 17.9268
      vertex -27.8466 20 12.0732
    endloop
  endfacet
  facet normal -1 2.36848e-016 0
    outer loop
      vertex -27.8466 20 12.0732
      vertex -27.8466 35 17.9268
      vertex -27.8466 35 12.0732
    endloop
  endfacet
  facet normal -0.978148 1.82428e-016 0.207912
    outer loop
      vertex -26.6296 20 23.6525
      vertex -26.6296 35 23.6525
      vertex -27.8466 20 17.9268
    endloop
  endfacet
  facet normal -0.978148 1.82428e-016 0.207912
    outer loop
      vertex -27.8466 20 17.9268
      vertex -26.6296 35 23.6525
      vertex -27.8466 35 17.9268
    endloop
  endfacet
  facet normal -0.913545 1.20036e-016 0.406737
    outer loop
      vertex -24.2487 20 29
      vertex -24.2487 35 29
      vertex -26.6296 20 23.6525
    endloop
  endfacet
  facet normal -0.913545 1.20036e-016 0.406737
    outer loop
      vertex -26.6296 20 23.6525
      vertex -24.2487 35 29
      vertex -26.6296 35 23.6525
    endloop
  endfacet
  facet normal 0 2.36848e-016 -1
    outer loop
      vertex -19.9573 35 18.8838
      vertex -18.0427 35 18.8838
      vertex -19.9573 20 18.8838
    endloop
  endfacet
  facet normal 4.39509e-031 2.36848e-016 -1
    outer loop
      vertex -19.9573 20 18.8838
      vertex -18.0427 35 18.8838
      vertex -18.0427 20 18.8838
    endloop
  endfacet
  facet normal 0.464723 9.96496e-017 -0.885456
    outer loop
      vertex -21.6525 35 17.994
      vertex -19.9573 35 18.8838
      vertex -21.6525 20 17.994
    endloop
  endfacet
  facet normal 0.464723 9.92602e-017 -0.885456
    outer loop
      vertex -21.6525 20 17.994
      vertex -19.9573 35 18.8838
      vertex -19.9573 20 18.8838
    endloop
  endfacet
  facet normal 0.822984 -1.94922e-016 -0.568065
    outer loop
      vertex -22.7401 20 16.4184
      vertex -22.7401 35 16.4184
      vertex -21.6525 35 17.994
    endloop
  endfacet
  facet normal 0.822984 -6.0377e-017 -0.568065
    outer loop
      vertex -21.6525 20 17.994
      vertex -22.7401 20 16.4184
      vertex -21.6525 35 17.994
    endloop
  endfacet
  facet normal 0.992709 -2.06572e-016 -0.120536
    outer loop
      vertex -22.9708 20 14.5179
      vertex -22.9708 35 14.5179
      vertex -22.7401 35 16.4184
    endloop
  endfacet
  facet normal 0.992709 -2.35121e-016 -0.120536
    outer loop
      vertex -22.7401 20 16.4184
      vertex -22.9708 20 14.5179
      vertex -22.7401 35 16.4184
    endloop
  endfacet
  facet normal 0.935016 -3.05444e-016 0.354605
    outer loop
      vertex -22.2919 20 12.7277
      vertex -22.2919 35 12.7277
      vertex -22.9708 35 14.5179
    endloop
  endfacet
  facet normal 0.935016 -3.05444e-016 0.354605
    outer loop
      vertex -22.9708 20 14.5179
      vertex -22.2919 20 12.7277
      vertex -22.9708 35 14.5179
    endloop
  endfacet
  facet normal 0.663123 -3.34342e-016 0.748511
    outer loop
      vertex -20.8589 20 11.4582
      vertex -20.8589 35 11.4582
      vertex -22.2919 35 12.7277
    endloop
  endfacet
  facet normal 0.663123 -3.34342e-016 0.748511
    outer loop
      vertex -22.2919 20 12.7277
      vertex -20.8589 20 11.4582
      vertex -22.2919 35 12.7277
    endloop
  endfacet
  facet normal 0.239316 -2.86647e-016 0.970942
    outer loop
      vertex -19 20 11
      vertex -19 35 11
      vertex -20.8589 35 11.4582
    endloop
  endfacet
  facet normal 0.239316 -2.86647e-016 0.970942
    outer loop
      vertex -20.8589 20 11.4582
      vertex -19 20 11
      vertex -20.8589 35 11.4582
    endloop
  endfacet
  facet normal -0.239316 -1.72607e-016 0.970942
    outer loop
      vertex -17.1411 35 11.4582
      vertex -19 35 11
      vertex -19 20 11
    endloop
  endfacet
  facet normal -0.239316 -1.73284e-016 0.970942
    outer loop
      vertex -17.1411 20 11.4582
      vertex -17.1411 35 11.4582
      vertex -19 20 11
    endloop
  endfacet
  facet normal -0.663123 -2.01414e-017 0.748511
    outer loop
      vertex -15.7081 35 12.7277
      vertex -17.1411 35 11.4582
      vertex -17.1411 20 11.4582
    endloop
  endfacet
  facet normal -0.663123 -2.02239e-017 0.748511
    outer loop
      vertex -15.7081 20 12.7277
      vertex -15.7081 35 12.7277
      vertex -17.1411 20 11.4582
    endloop
  endfacet
  facet normal -0.935016 1.37469e-016 0.354605
    outer loop
      vertex -15.7081 35 12.7277
      vertex -15.7081 20 12.7277
      vertex -15.0292 35 14.5179
    endloop
  endfacet
  facet normal -0.935016 1.37469e-016 0.354605
    outer loop
      vertex -15.0292 35 14.5179
      vertex -15.7081 20 12.7277
      vertex -15.0292 20 14.5179
    endloop
  endfacet
  facet normal -0.992709 2.63669e-016 -0.120536
    outer loop
      vertex -15.0292 35 14.5179
      vertex -15.0292 20 14.5179
      vertex -15.2599 35 16.4184
    endloop
  endfacet
  facet normal -0.992709 2.35121e-016 -0.120536
    outer loop
      vertex -15.2599 35 16.4184
      vertex -15.0292 20 14.5179
      vertex -15.2599 20 16.4184
    endloop
  endfacet
  facet normal -0.822984 1.94922e-016 -0.568065
    outer loop
      vertex -15.2599 35 16.4184
      vertex -15.2599 20 16.4184
      vertex -16.3475 35 17.994
    endloop
  endfacet
  facet normal -0.822984 3.29466e-016 -0.568065
    outer loop
      vertex -16.3475 35 17.994
      vertex -15.2599 20 16.4184
      vertex -16.3475 20 17.994
    endloop
  endfacet
  facet normal -0.464723 3.19787e-016 -0.885456
    outer loop
      vertex -16.3475 35 17.994
      vertex -16.3475 20 17.994
      vertex -18.0427 35 18.8838
    endloop
  endfacet
  facet normal -0.464723 3.19787e-016 -0.885456
    outer loop
      vertex -18.0427 35 18.8838
      vertex -16.3475 20 17.994
      vertex -18.0427 20 18.8838
    endloop
  endfacet
  facet normal -1.06114e-017 -2.86509e-016 1
    outer loop
      vertex -3.45 12.7 6
      vertex -7.5 19.05 6
      vertex -7.5 9.75 6
    endloop
  endfacet
  facet normal 0 0 1
    outer loop
      vertex 4.1 15.745 6
      vertex -1.725 15.6878 6
      vertex 1.725 15.6878 6
    endloop
  endfacet
  facet normal 2.81454e-017 -2.97692e-016 1
    outer loop
      vertex 4.1 15.745 6
      vertex 3.45 12.7 6
      vertex 7.5 19.05 6
    endloop
  endfacet
  facet normal -2.81455e-017 -2.97692e-016 1
    outer loop
      vertex -4.1 15.745 6
      vertex -7.5 19.05 6
      vertex -3.45 12.7 6
    endloop
  endfacet
  facet normal 3.52986e-016 -5.04874e-016 1
    outer loop
      vertex 1.74682 9.75 6
      vertex 7.5 19.05 6
      vertex 3.45 12.7 6
    endloop
  endfacet
  facet normal -8.84628e-032 -2.86509e-016 1
    outer loop
      vertex 7.5 9.75 6
      vertex 7.5 19.05 6
      vertex 1.74682 9.75 6
    endloop
  endfacet
  facet normal 7.06282e-018 -2.93192e-016 1
    outer loop
      vertex 1.725 15.6878 6
      vertex 3.45 12.7 6
      vertex 4.1 15.745 6
    endloop
  endfacet
  facet normal -7.0628e-018 -2.93192e-016 1
    outer loop
      vertex -1.725 15.6878 6
      vertex -4.1 15.745 6
      vertex -3.45 12.7 6
    endloop
  endfacet
  facet normal -0 0 1
    outer loop
      vertex 7.5 19.05 6
      vertex -7.5 19.05 6
      vertex -4.1 19.045 6
    endloop
  endfacet
  facet normal 0 0 1
    outer loop
      vertex 7.5 19.05 6
      vertex -4.1 19.045 6
      vertex 4.1 19.045 6
    endloop
  endfacet
  facet normal -3.95801e-019 -2.69145e-016 1
    outer loop
      vertex -4.1 15.745 6
      vertex -4.1 19.045 6
      vertex -7.5 19.05 6
    endloop
  endfacet
  facet normal -0 0 1
    outer loop
      vertex 4.1 15.745 6
      vertex -4.1 15.745 6
      vertex -1.725 15.6878 6
    endloop
  endfacet
  facet normal 3.95801e-019 -2.69145e-016 1
    outer loop
      vertex 4.1 19.045 6
      vertex 4.1 15.745 6
      vertex 7.5 19.05 6
    endloop
  endfacet
  facet normal -9.29609e-032 -3.01077e-016 1
    outer loop
      vertex -1.74682 9.75 6
      vertex -3.45 12.7 6
      vertex -7.5 9.75 6
    endloop
  endfacet
  facet normal 0.866025 0.5 3.81774e-016
    outer loop
      vertex -1.74682 9.75 6
      vertex -1.725 9.71221 3.5
      vertex -3.45 12.7 3.5
    endloop
  endfacet
  facet normal 0.866025 0.5 1.53837e-016
    outer loop
      vertex -1.74682 9.75 6
      vertex -1.74682 9.75 8.5
      vertex -1.725 9.71221 8.5
    endloop
  endfacet
  facet normal 0.866025 0.5 2.93013e-016
    outer loop
      vertex -1.725 9.71221 8.5
      vertex -1.725 9.71221 3.5
      vertex -1.74682 9.75 6
    endloop
  endfacet
  facet normal 0.866025 0.5 -0
    outer loop
      vertex -3.45 12.7 6
      vertex -1.74682 9.75 6
      vertex -3.45 12.7 3.5
    endloop
  endfacet
  facet normal 5.14888e-016 4.73062e-014 -1
    outer loop
      vertex -1.725 9.71221 8.5
      vertex -1.74682 9.75 8.5
      vertex 1.725 9.71221 8.5
    endloop
  endfacet
  facet normal 0 -0 -1
    outer loop
      vertex 1.725 9.71221 8.5
      vertex -1.74682 9.75 8.5
      vertex 1.74682 9.75 8.5
    endloop
  endfacet
  facet normal -0.866025 0.5 2.01434e-016
    outer loop
      vertex 3.45 12.7 6
      vertex 3.45 12.7 3.5
      vertex 1.74682 9.75 6
    endloop
  endfacet
  facet normal -0.866025 0.5 1.26547e-017
    outer loop
      vertex 1.74682 9.75 6
      vertex 3.45 12.7 3.5
      vertex 1.725 9.71221 3.5
    endloop
  endfacet
  facet normal -0.866025 0.5 1.00006e-016
    outer loop
      vertex 1.74682 9.75 6
      vertex 1.725 9.71221 3.5
      vertex 1.725 9.71221 8.5
    endloop
  endfacet
  facet normal -0.866025 0.5 3.55271e-016
    outer loop
      vertex 1.74682 9.75 6
      vertex 1.725 9.71221 8.5
      vertex 1.74682 9.75 8.5
    endloop
  endfacet
  facet normal 2.16629e-016 1 2.96059e-016
    outer loop
      vertex -4.1 15.745 1.65423e-016
      vertex -4.1 15.745 6
      vertex 4.1 15.745 1.65423e-016
    endloop
  endfacet
  facet normal 2.16629e-016 1 2.96059e-016
    outer loop
      vertex 4.1 15.745 1.65423e-016
      vertex -4.1 15.745 6
      vertex 4.1 15.745 6
    endloop
  endfacet
  facet normal -1 2.69145e-016 1.59366e-031
    outer loop
      vertex 4.1 19.045 8.9817e-016
      vertex 4.1 15.745 1.65423e-016
      vertex 4.1 19.045 6
    endloop
  endfacet
  facet normal -1 2.69145e-016 8.96433e-032
    outer loop
      vertex 4.1 19.045 6
      vertex 4.1 15.745 1.65423e-016
      vertex 4.1 15.745 6
    endloop
  endfacet
  facet normal 1 -2.69145e-016 0
    outer loop
      vertex -4.1 15.745 1.65423e-016
      vertex -4.1 19.045 8.9817e-016
      vertex -4.1 19.045 6
    endloop
  endfacet
  facet normal 1 -2.69145e-016 -7.96829e-032
    outer loop
      vertex -4.1 15.745 6
      vertex -4.1 15.745 1.65423e-016
      vertex -4.1 19.045 6
    endloop
  endfacet
  facet normal 0 -1 0
    outer loop
      vertex -4.1 19.045 6
      vertex -4.1 19.045 8.9817e-016
      vertex 4.1 19.045 8.9817e-016
    endloop
  endfacet
  facet normal -4.33258e-016 -1 -5.92119e-016
    outer loop
      vertex 4.1 19.045 6
      vertex -4.1 19.045 6
      vertex 4.1 19.045 8.9817e-016
    endloop
  endfacet
  facet normal -0.866025 -0.5 -3.63649e-016
    outer loop
      vertex 1.7 12.7 -5.10703e-016
      vertex 1.7 12.7 3.5
      vertex 0.85 14.1722 -1.83799e-016
    endloop
  endfacet
  facet normal -0.866025 -0.5 -3.63649e-016
    outer loop
      vertex 0.85 14.1722 -1.83799e-016
      vertex 1.7 12.7 3.5
      vertex 0.85 14.1722 3.5
    endloop
  endfacet
  facet normal -0.866025 0.5 1.43882e-016
    outer loop
      vertex 0.85 11.2278 -8.37606e-016
      vertex 0.85 11.2278 3.5
      vertex 1.7 12.7 -5.10703e-016
    endloop
  endfacet
  facet normal -0.866025 0.5 1.43882e-016
    outer loop
      vertex 1.7 12.7 -5.10703e-016
      vertex 0.85 11.2278 3.5
      vertex 1.7 12.7 3.5
    endloop
  endfacet
  facet normal -5.48334e-008 1 -6.95741e-024
    outer loop
      vertex -0.85 11.2278 -8.37606e-016
      vertex -0.85 11.2278 3.5
      vertex 0.85 11.2278 -8.37606e-016
    endloop
  endfacet
  facet normal -5.48334e-008 1 5.07531e-016
    outer loop
      vertex 0.85 11.2278 -8.37606e-016
      vertex -0.85 11.2278 3.5
      vertex 0.85 11.2278 3.5
    endloop
  endfacet
  facet normal 0.866025 0.5 1.09884e-016
    outer loop
      vertex -0.85 11.2278 3.5
      vertex -0.85 11.2278 -8.37606e-016
      vertex -1.7 12.7 -5.10703e-016
    endloop
  endfacet
  facet normal 0.866025 0.5 3.63649e-016
    outer loop
      vertex -1.7 12.7 3.5
      vertex -0.85 11.2278 3.5
      vertex -1.7 12.7 -5.10703e-016
    endloop
  endfacet
  facet normal 0.866025 -0.5 -1.43882e-016
    outer loop
      vertex -1.7 12.7 3.5
      vertex -1.7 12.7 -5.10703e-016
      vertex -0.85 14.1722 -1.83799e-016
    endloop
  endfacet
  facet normal 0.866025 -0.5 8.24127e-017
    outer loop
      vertex -0.85 14.1722 3.5
      vertex -1.7 12.7 3.5
      vertex -0.85 14.1722 -1.83799e-016
    endloop
  endfacet
  facet normal 5.48334e-008 -1 5.21805e-024
    outer loop
      vertex -0.85 14.1722 3.5
      vertex -0.85 14.1722 -1.83799e-016
      vertex 0.85 14.1722 -1.83799e-016
    endloop
  endfacet
  facet normal 5.48334e-008 -1 -5.07531e-016
    outer loop
      vertex 0.85 14.1722 3.5
      vertex -0.85 14.1722 3.5
      vertex 0.85 14.1722 -1.83799e-016
    endloop
  endfacet
  facet normal -0.866025 -0.5 -4.3219e-016
    outer loop
      vertex 1.725 15.6878 3.5
      vertex 3.45 12.7 3.5
      vertex 1.725 15.6878 6
    endloop
  endfacet
  facet normal -0.866025 -0.5 -5.61524e-016
    outer loop
      vertex 1.725 15.6878 6
      vertex 3.45 12.7 3.5
      vertex 3.45 12.7 6
    endloop
  endfacet
  facet normal -5.1731e-008 -1 -7.10543e-016
    outer loop
      vertex -1.725 15.6878 6
      vertex -1.725 15.6878 3.5
      vertex 1.725 15.6878 3.5
    endloop
  endfacet
  facet normal -5.1731e-008 -1 -7.10543e-016
    outer loop
      vertex 1.725 15.6878 6
      vertex -1.725 15.6878 6
      vertex 1.725 15.6878 3.5
    endloop
  endfacet
  facet normal 0.866025 -0.5 0
    outer loop
      vertex -3.45 12.7 6
      vertex -3.45 12.7 3.5
      vertex -1.725 15.6878 3.5
    endloop
  endfacet
  facet normal 0.866025 -0.5 -2.78353e-016
    outer loop
      vertex -1.725 15.6878 6
      vertex -3.45 12.7 6
      vertex -1.725 15.6878 3.5
    endloop
  endfacet
  facet normal 5.1731e-008 1 3.55271e-016
    outer loop
      vertex -1.725 9.71221 3.5
      vertex -1.725 9.71221 8.5
      vertex 1.725 9.71221 3.5
    endloop
  endfacet
  facet normal 5.1731e-008 1 3.55271e-016
    outer loop
      vertex 1.725 9.71221 3.5
      vertex -1.725 9.71221 8.5
      vertex 1.725 9.71221 8.5
    endloop
  endfacet
  facet normal -2.30671e-023 -4.45904e-016 1
    outer loop
      vertex -1.725 15.6878 3.5
      vertex -3.45 12.7 3.5
      vertex -1.725 9.71221 3.5
    endloop
  endfacet
  facet normal -3.25422e-021 -4.45904e-016 1
    outer loop
      vertex -1.7 12.7 3.5
      vertex -1.725 15.6878 3.5
      vertex -1.725 9.71221 3.5
    endloop
  endfacet
  facet normal -1.5378e-023 -2.9727e-016 1
    outer loop
      vertex 1.725 15.6878 3.5
      vertex -1.725 15.6878 3.5
      vertex 3.45 12.7 3.5
    endloop
  endfacet
  facet normal -6.92269e-023 -4.45904e-016 1
    outer loop
      vertex 3.45 12.7 3.5
      vertex 1.7 12.7 3.5
      vertex 1.725 9.71221 3.5
    endloop
  endfacet
  facet normal -1.28722e-016 -3.6734e-016 1
    outer loop
      vertex 1.725 9.71221 3.5
      vertex 0.85 11.2278 3.5
      vertex -1.725 9.71221 3.5
    endloop
  endfacet
  facet normal 3.21349e-023 -5.86046e-016 1
    outer loop
      vertex 0.85 11.2278 3.5
      vertex -0.85 11.2278 3.5
      vertex -1.725 9.71221 3.5
    endloop
  endfacet
  facet normal -2.61229e-016 -7.36866e-016 1
    outer loop
      vertex -0.85 14.1722 3.5
      vertex 0.85 14.1722 3.5
      vertex -1.725 15.6878 3.5
    endloop
  endfacet
  facet normal -2.46302e-016 -4.43843e-016 1
    outer loop
      vertex -0.85 11.2278 3.5
      vertex -1.7 12.7 3.5
      vertex -1.725 9.71221 3.5
    endloop
  endfacet
  facet normal 2.46301e-016 -4.43843e-016 1
    outer loop
      vertex -1.7 12.7 3.5
      vertex -0.85 14.1722 3.5
      vertex -1.725 15.6878 3.5
    endloop
  endfacet
  facet normal -4.683e-023 -3.01641e-016 1
    outer loop
      vertex 3.45 12.7 3.5
      vertex 0.85 14.1722 3.5
      vertex 1.7 12.7 3.5
    endloop
  endfacet
  facet normal 1.28721e-016 -7.43174e-017 1
    outer loop
      vertex 3.45 12.7 3.5
      vertex -1.725 15.6878 3.5
      vertex 0.85 14.1722 3.5
    endloop
  endfacet
  facet normal -2.68693e-016 -4.48153e-016 1
    outer loop
      vertex 1.7 12.7 3.5
      vertex 0.85 11.2278 3.5
      vertex 1.725 9.71221 3.5
    endloop
  endfacet
endsolid OpenSCAD_Model
