999
dxflib 2.0.4.8
  0
SECTION
  2
HEADER
  9
$ACADVER
  1
AC1015
  9
$HANDSEED
  5
FFFF
  9
$USERR4
 40
0.0
  9
$DIMTAD
 70
0
  9
$VISRETAIN
 70
1
  9
$TILEMODE
 70
1
  9
$SHADEDIF
 70
70
  9
$USERR5
 40
0.0
  9
$UCSYDIR
 10
0.0
 20
1.0
 30
0.0
  9
$ATTREQ
 70
1
  9
$CHAMFERA
 40
0.5
  9
$MENU
  1
.
  9
$CLAYER
  8
0
  9
$UCSXDIR
 10
1.0
 20
0.0
 30
0.0
  9
$CHAMFERB
 40
0.5
  9
$DIMASZ
 40
0.18
  9
$TRACEWID
 40
0.05
  9
$REGENMODE
 70
1
  9
$ORTHOMODE
 70
0
  9
$EXTMIN
 10
-27.18480624177117
 20
-45.483157136719477
 30
0.0
  9
$PUCSYDIR
 10
0.0
 20
1.0
 30
0.0
  9
$ANGBASE
 50
0.0
  9
$USRTIMER
 70
1
  9
$SKETCHINC
 40
0.1
  9
$DIMGAP
 40
0.09
  9
$DIMTFAC
 40
1.0
  9
$DIMSAH
 70
0
  9
$DIMALT
 70
0
  9
$DIMSHO
 70
1
  9
$PUCSXDIR
 10
1.0
 20
0.0
 30
0.0
  9
$SURFTYPE
 70
6
  9
$SPLFRAME
 70
0
  9
$DIMTSZ
 40
0.0
  9
$LIMMIN
 10
0.0
 20
0.0
  9
$SURFTAB1
 70
6
  9
$SPLINESEGS
 70
8
  9
$AUPREC
 70
0
  9
$LUNITS
 70
2
  9
$DWGCODEPAGE
  3
ansi_1252
  9
$UNITMODE
 70
0
  9
$USERI1
 70
0
  9
$SURFTAB2
 70
6
  9
$SKPOLY
 70
0
  9
$ELEVATION
 40
0.0
  9
$DIMCEN
 40
0.09
  9
$DIMRND
 40
0.0
  9
$INSBASE
 10
0.0
 20
0.0
 30
0.0
  9
$USERI2
 70
0
  9
$UCSORG
 10
0.0
 20
0.0
 30
0.0
  9
$PELEVATION
 40
0.0
  9
$DIMEXO
 40
0.0625
  9
$TEXTSIZE
 40
0.2
  9
$DRAGMODE
 70
2
  9
$FILLMODE
 70
1
  9
$EXTMAX
 10
28.61390833231804
 20
44.516556767503019
 30
0.0
  9
$INSUNITS
 70
4
  9
$USERI3
 70
0
  9
$SURFU
 70
6
  9
$ANGDIR
 70
0
  9
$TDUSRTIMER
 40
0.0000000116
  9
$DIMZIN
 70
0
  9
$DIMDLE
 40
0.0
  9
$DIMSCALE
 40
1.0
  9
$WORLDVIEW
 70
1
  9
$USERI4
 70
0
  9
$SURFV
 70
6
  9
$OSMODE
 70
37
  9
$QTEXTMODE
 70
0
  9
$LIMMAX
 10
12.0
 20
9.0
  9
$USERI5
 70
0
  9
$HANDLING
 70
1
  9
$PDMODE
 70
0
  9
$LIMCHECK
 70
0
  9
$THICKNESS
 40
0.0
  9
$DIMSE1
 70
0
  9
$DIMLIM
 70
0
  9
$DIMTXT
 40
0.18
  9
$ATTMODE
 70
1
  9
$PEXTMAX
 10
-100000000000000000000.0
 20
-100000000000000000000.0
 30
-100000000000000000000.0
  9
$PEXTMIN
 10
100000000000000000000.0
 20
100000000000000000000.0
 30
100000000000000000000.0
  9
$PUCSORG
 10
0.0
 20
0.0
 30
0.0
  9
$SPLINETYPE
 70
6
  9
$TDINDWG
 40
0.0000000116
  9
$LUPREC
 70
4
  9
$DIMSOXD
 70
0
  9
$DIMLFAC
 40
1.0
  9
$DIMSE2
 70
0
  9
$DIMTOH
 70
1
  9
$CELTYPE
  6
BYLAYER
  9
$PLIMCHECK
 70
0
  9
$PLINEWID
 40
0.0
  9
$DIMSTYLE
  2
STANDARD
  9
$DIMTVP
 40
0.0
  9
$DIMASO
 70
1
  9
$DIMTM
 40
0.0
  9
$DIMDLI
 40
0.38
  9
$CECOLOR
 62
256
  9
$PLIMMAX
 10
12.0
 20
9.0
  9
$PLIMMIN
 10
0.0
 20
0.0
  9
$MAXACTVP
 70
64
  9
$TDUPDATE
 40
2457054.5995489699
  9
$FILLETRAD
 40
0.5
  9
$DIMCLRT
 70
0
  9
$DIMALTD
 70
2
  9
$DIMTIH
 70
1
  9
$LTSCALE
 40
1.0
  9
$USERR1
 40
0.0
  9
$ATTDIA
 70
0
  9
$PDSIZE
 40
0.0
  9
$DIMCLRD
 70
0
  9
$DIMEXE
 40
0.18
  9
$PSLTSCALE
 70
1
  9
$PLINEGEN
 70
0
  9
$SHADEDGE
 70
3
  9
$USERR2
 40
0.0
  9
$COORDS
 70
1
  9
$TDCREATE
 40
2454910.5
  9
$DIMCLRE
 70
0
  9
$DIMTOFL
 70
0
  9
$DIMALTF
 40
25.399999999999999
  9
$DIMTOL
 70
0
  9
$DIMTP
 40
0.0
  9
$TEXTSTYLE
  7
STANDARD
  9
$USERR3
 40
0.0
  9
$AUNITS
 70
0
  9
$DIMTIX
 70
0
  9
$MIRRTEXT
 70
1
  0
ENDSEC
  0
SECTION
  2
TABLES
  0
TABLE
  2
VPORT
  5
8
100
AcDbSymbolTable
 70
1
  0
VPORT
  5
30
100
AcDbSymbolTableRecord
100
AcDbViewportTableRecord
  2
*Active
 70
0
 10
0.0
 20
0.0
 11
1.0
 21
1.0
 12
286.30555555555549
 22
148.5
 13
0.0
 23
0.0
 14
10.0
 24
10.0
 15
10.0
 25
10.0
 16
0.0
 26
0.0
 36
1.0
 17
0.0
 27
0.0
 37
0.0
 40
297.0
 41
1.92798353909465
 42
50.0
 43
0.0
 44
0.0
 50
0.0
 51
0.0
 71
0
 72
100
 73
1
 74
3
 75
1
 76
1
 77
0
 78
0
281
0
 65
1
110
0.0
120
0.0
130
0.0
111
1.0
121
0.0
131
0.0
112
0.0
122
1.0
132
0.0
 79
0
146
0.0
  0
ENDTAB
  0
TABLE
  2
LTYPE
  5
5
100
AcDbSymbolTable
 70
21
  0
LTYPE
  5
14
100
AcDbSymbolTableRecord
100
AcDbLinetypeTableRecord
  2
ByBlock
 70
0
  3

 72
65
 73
0
 40
0.0
  0
LTYPE
  5
15
100
AcDbSymbolTableRecord
100
AcDbLinetypeTableRecord
  2
ByLayer
 70
0
  3

 72
65
 73
0
 40
0.0
  0
LTYPE
  5
16
100
AcDbSymbolTableRecord
100
AcDbLinetypeTableRecord
  2
CONTINUOUS
 70
0
  3
Solid line
 72
65
 73
0
 40
0.0
  0
LTYPE
  5
31
100
AcDbSymbolTableRecord
100
AcDbLinetypeTableRecord
  2
DOT
 70
0
  3
Dot . . . . . . . . . . . . . . . . . . . . . .
 72
65
 73
2
 40
6.3499999999999996
 49
0.0
 74
0
 49
-6.3499999999999996
 74
0
  0
LTYPE
  5
32
100
AcDbSymbolTableRecord
100
AcDbLinetypeTableRecord
  2
DOT2
 70
0
  3
Dot (.5x) .....................................
 72
65
 73
2
 40
3.1749999999999998
 49
0.0
 74
0
 49
-3.1749999999999998
 74
0
  0
LTYPE
  5
33
100
AcDbSymbolTableRecord
100
AcDbLinetypeTableRecord
  2
DOTX2
 70
0
  3
Dot (2x) .  .  .  .  .  .  .  .  .  .  .  .  .
 72
65
 73
2
 40
12.699999999999999
 49
0.0
 74
0
 49
-12.699999999999999
 74
0
  0
LTYPE
  5
34
100
AcDbSymbolTableRecord
100
AcDbLinetypeTableRecord
  2
DASHED
 70
0
  3
Dashed __ __ __ __ __ __ __ __ __ __ __ __ __ _
 72
65
 73
2
 40
19.050000000000001
 49
12.699999999999999
 74
0
 49
-6.3499999999999996
 74
0
  0
LTYPE
  5
35
100
AcDbSymbolTableRecord
100
AcDbLinetypeTableRecord
  2
DASHED2
 70
0
  3
Dashed (.5x) _ _ _ _ _ _ _ _ _ _ _ _ _ _ _ _ _
 72
65
 73
2
 40
9.5250000000000004
 49
6.3499999999999996
 74
0
 49
-3.1749999999999998
 74
0
  0
LTYPE
  5
36
100
AcDbSymbolTableRecord
100
AcDbLinetypeTableRecord
  2
DASHEDX2
 70
0
  3
Dashed (2x) ____  ____  ____  ____  ____  ___
 72
65
 73
2
 40
38.100000000000001
 49
25.399999999999999
 74
0
 49
-12.699999999999999
 74
0
  0
LTYPE
  5
37
100
AcDbSymbolTableRecord
100
AcDbLinetypeTableRecord
  2
DASHDOT
 70
0
  3
Dash dot __ . __ . __ . __ . __ . __ . __ . __
 72
65
 73
4
 40
25.399999999999999
 49
12.699999999999999
 74
0
 49
-6.3499999999999996
 74
0
 49
0.0
 74
0
 49
-6.3499999999999996
 74
0
  0
LTYPE
  5
38
100
AcDbSymbolTableRecord
100
AcDbLinetypeTableRecord
  2
DASHDOT2
 70
0
  3
Dash dot (.5x) _._._._._._._._._._._._._._._.
 72
65
 73
4
 40
12.699999999999999
 49
6.3499999999999996
 74
0
 49
-3.1749999999999998
 74
0
 49
0.0
 74
0
 49
-3.1749999999999998
 74
0
  0
LTYPE
  5
39
100
AcDbSymbolTableRecord
100
AcDbLinetypeTableRecord
  2
DASHDOTX2
 70
0
  3
Dash dot (2x) ____  .  ____  .  ____  .  ___
 72
65
 73
4
 40
50.799999999999997
 49
25.399999999999999
 74
0
 49
-12.699999999999999
 74
0
 49
0.0
 74
0
 49
-12.699999999999999
 74
0
  0
LTYPE
  5
3A
100
AcDbSymbolTableRecord
100
AcDbLinetypeTableRecord
  2
DIVIDE
 70
0
  3
Divide ____ . . ____ . . ____ . . ____ . . ____
 72
65
 73
6
 40
31.75
 49
12.699999999999999
 74
0
 49
-6.3499999999999996
 74
0
 49
0.0
 74
0
 49
-6.3499999999999996
 74
0
 49
0.0
 74
0
 49
-6.3499999999999996
 74
0
  0
LTYPE
  5
3B
100
AcDbSymbolTableRecord
100
AcDbLinetypeTableRecord
  2
DIVIDE2
 70
0
  3
Divide (.5x) __..__..__..__..__..__..__..__.._
 72
65
 73
6
 40
15.875
 49
6.3499999999999996
 74
0
 49
-3.1749999999999998
 74
0
 49
0.0
 74
0
 49
-3.1749999999999998
 74
0
 49
0.0
 74
0
 49
-3.1749999999999998
 74
0
  0
LTYPE
  5
3C
100
AcDbSymbolTableRecord
100
AcDbLinetypeTableRecord
  2
DIVIDEX2
 70
0
  3
Divide (2x) ________  .  .  ________  .  .  _
 72
65
 73
6
 40
63.5
 49
25.399999999999999
 74
0
 49
-12.699999999999999
 74
0
 49
0.0
 74
0
 49
-12.699999999999999
 74
0
 49
0.0
 74
0
 49
-12.699999999999999
 74
0
  0
LTYPE
  5
3D
100
AcDbSymbolTableRecord
100
AcDbLinetypeTableRecord
  2
CENTER
 70
0
  3
Center ____ _ ____ _ ____ _ ____ _ ____ _ ____
 72
65
 73
4
 40
50.799999999999997
 49
31.75
 74
0
 49
-6.3499999999999996
 74
0
 49
6.3499999999999996
 74
0
 49
-6.3499999999999996
 74
0
  0
LTYPE
  5
3E
100
AcDbSymbolTableRecord
100
AcDbLinetypeTableRecord
  2
CENTER2
 70
0
  3
Center (.5x) ___ _ ___ _ ___ _ ___ _ ___ _ ___
 72
65
 73
4
 40
28.574999999999999
 49
19.050000000000001
 74
0
 49
-3.1749999999999998
 74
0
 49
3.1749999999999998
 74
0
 49
-3.1749999999999998
 74
0
  0
LTYPE
  5
3F
100
AcDbSymbolTableRecord
100
AcDbLinetypeTableRecord
  2
CENTERX2
 70
0
  3
Center (2x) ________  __  ________  __  _____
 72
65
 73
4
 40
101.59999999999999
 49
63.5
 74
0
 49
-12.699999999999999
 74
0
 49
12.699999999999999
 74
0
 49
-12.699999999999999
 74
0
  0
LTYPE
  5
40
100
AcDbSymbolTableRecord
100
AcDbLinetypeTableRecord
  2
BORDER
 70
0
  3
Border __ __ . __ __ . __ __ . __ __ . __ __ .
 72
65
 73
6
 40
44.450000000000003
 49
12.699999999999999
 74
0
 49
-6.3499999999999996
 74
0
 49
12.699999999999999
 74
0
 49
-6.3499999999999996
 74
0
 49
0.0
 74
0
 49
-6.3499999999999996
 74
0
  0
LTYPE
  5
41
100
AcDbSymbolTableRecord
100
AcDbLinetypeTableRecord
  2
BORDER2
 70
0
  3
Border (.5x) __.__.__.__.__.__.__.__.__.__.__.
 72
65
 73
6
 40
22.225000000000001
 49
6.3499999999999996
 74
0
 49
-3.1749999999999998
 74
0
 49
6.3499999999999996
 74
0
 49
-3.1749999999999998
 74
0
 49
0.0
 74
0
 49
-3.1749999999999998
 74
0
  0
LTYPE
  5
42
100
AcDbSymbolTableRecord
100
AcDbLinetypeTableRecord
  2
BORDERX2
 70
0
  3
Border (2x) ____  ____  .  ____  ____  .  ___
 72
65
 73
6
 40
88.900000000000006
 49
25.399999999999999
 74
0
 49
-12.699999999999999
 74
0
 49
25.399999999999999
 74
0
 49
-12.699999999999999
 74
0
 49
0.0
 74
0
 49
-12.699999999999999
 74
0
  0
ENDTAB
  0
TABLE
  2
LAYER
  5
2
100
AcDbSymbolTable
 70
1
  0
LAYER
  5
10
100
AcDbSymbolTableRecord
100
AcDbLayerTableRecord
  2
0
 70
0
 62
7
  6
CONTINUOUS
390
F
  0
ENDTAB
  0
TABLE
  2
STYLE
  5
3
100
AcDbSymbolTable
 70
1
  0
STYLE
  5
11
100
AcDbSymbolTableRecord
100
AcDbTextStyleTableRecord
  2
Standard
 70
0
 40
0.0
 41
0.75
 50
0.0
 71
0
 42
2.5
  3
txt
  4

  0
ENDTAB
  0
TABLE
  2
VIEW
  5
6
100
AcDbSymbolTable
 70
0
  0
ENDTAB
  0
TABLE
  2
UCS
  5
7
100
AcDbSymbolTable
 70
0
  0
ENDTAB
  0
TABLE
  2
APPID
  5
9
100
AcDbSymbolTable
 70
1
  0
APPID
  5
12
100
AcDbSymbolTableRecord
100
AcDbRegAppTableRecord
  2
ACAD
 70
0
  0
ENDTAB
  0
TABLE
  2
DIMSTYLE
  5
A
100
AcDbSymbolTable
 70
1
100
AcDbDimStyleTable
 71
0
  0
DIMSTYLE
105
27
100
AcDbSymbolTableRecord
100
AcDbDimStyleTableRecord
  2
Standard
 41
0.18
 42
0.0625
 43
3.75
 44
0.18
 70
0
 73
0
 74
0
 77
1
 78
8
140
0.18
141
2.5
143
0.03937007874016
147
0.09
171
3
172
1
271
2
272
2
274
3
278
44
283
0
284
8
340
11
  0
ENDTAB
  0
TABLE
  2
BLOCK_RECORD
  5
1
100
AcDbSymbolTable
 70
1
  0
BLOCK_RECORD
  5
1F
100
AcDbSymbolTableRecord
100
AcDbBlockTableRecord
  2
*Model_Space
340
22
  0
BLOCK_RECORD
  5
1B
100
AcDbSymbolTableRecord
100
AcDbBlockTableRecord
  2
*Paper_Space
340
1E
  0
BLOCK_RECORD
  5
23
100
AcDbSymbolTableRecord
100
AcDbBlockTableRecord
  2
*Paper_Space0
340
26
  0
ENDTAB
  0
ENDSEC
  0
SECTION
  2
BLOCKS
  0
BLOCK
  5
20
100
AcDbEntity
  8
0
100
AcDbBlockBegin
  2
*Model_Space
 70
0
 10
0.0
 20
0.0
 30
0.0
  3
*Model_Space
  1

  0
ENDBLK
  5
21
100
AcDbEntity
  8
0
100
AcDbBlockEnd
  0
BLOCK
  5
1C
100
AcDbEntity
 67
1
  8
0
100
AcDbBlockBegin
  2
*Paper_Space
 70
0
 10
0.0
 20
0.0
 30
0.0
  3
*Paper_Space
  1

  0
ENDBLK
  5
1D
100
AcDbEntity
 67
1
  8
0
100
AcDbBlockEnd
  0
BLOCK
  5
24
100
AcDbEntity
  8
0
100
AcDbBlockBegin
  2
*Paper_Space0
 70
0
 10
0.0
 20
0.0
 30
0.0
  3
*Paper_Space0
  1

  0
ENDBLK
  5
25
100
AcDbEntity
  8
0
100
AcDbBlockEnd
  0
ENDSEC
  0
SECTION
  2
ENTITIES
  0
LWPOLYLINE
  5
43
  8
0
 62
256
370
-1
  6
ByLayer
100
AcDbEntity
100
AcDbPolyline
 90
1304
 70
1
 10
12.676802805766229
 20
39.305951239247747
 10
12.92570042515551
 20
39.431078830897761
 10
13.166443252918651
 20
39.549481296702673
 10
13.399307811284199
 20
39.661306740628767
 10
13.62455756838539
 20
39.766722332423328
 10
13.84245599235542
 20
39.865895241833591
 10
14.053266551327511
 20
39.958992638606823
 10
14.25725271343488
 20
40.046181692490251
 10
14.45467794681074
 20
40.127629573231147
 10
14.64580571958831
 20
40.203503450576783
 10
14.8308994999008
 20
40.273970494274373
 10
15.010222755881429
 20
40.339197874071203
 10
15.184038955663411
 20
40.39935275971451
 10
15.352611567379959
 20
40.454602320951558
 10
15.5162040591643
 20
40.50511372752959
 10
15.67507989914963
 20
40.551054149195863
 10
15.82950255546919
 20
40.592590755697643
 10
15.97973549625617
 20
40.62989071678215
 10
16.126042189643801
 20
40.66312120219667
 10
16.26868610376529
 20
40.692449381688448
 10
16.407930706753859
 20
40.718042425004739
 10
16.544039466742721
 20
40.740067501892788
 10
16.67727585186509
 20
40.758691782099852
 10
16.807903330254192
 20
40.774082435373188
 10
16.936185370043219
 20
40.786406631460054
 10
17.062385439365411
 20
40.795831540107677
 10
17.186767006353971
 20
40.802524331063353
 10
17.30959353914211
 20
40.806652174074301
 10
17.431128505863061
 20
40.808382238887788
 10
17.551635374650019
 20
40.807881695251083
 10
17.671377613636221
 20
40.805317712911403
 10
17.909622074739168
 20
40.794668111112202
 10
18.147531624914169
 20
40.777592732162503
 10
18.385023962609651
 20
40.754538637511637
 10
18.62157877695056
 20
40.725774829303283
 10
18.856675757061879
 20
40.691570309681033
 10
19.089794592068561
 20
40.652194080788533
 10
19.320414971095559
 20
40.607915144769429
 10
19.548016583267849
 20
40.559002503767339
 10
19.772079117710391
 20
40.505725159925902
 10
19.992082263548131
 20
40.448352115388751
 10
20.207505709906059
 20
40.387152372299518
 10
20.41782914590911
 20
40.322394932801828
 10
20.62253226068227
 20
40.254348799039327
 10
20.821094743350478
 20
40.183282973155649
 10
21.01299628303871
 20
40.109466457294417
 10
21.197716568871929
 20
40.033168253599271
 10
21.374735289975089
 20
39.95465736421383
 10
21.543720530508651
 20
39.874099859805497
 10
21.705093954774991
 20
39.791250085136653
 10
21.859465622111991
 20
39.705759453493457
 10
22.00744559185754
 20
39.617279378162053
 10
22.149643923349501
 20
39.525461272428579
 10
22.286670675925759
 20
39.429956549579202
 10
22.419135908924179
 20
39.330416622900053
 10
22.54764968168266
 20
39.226492905677262
 10
22.672822053539068
 20
39.117836811197023
 10
22.79526308383128
 20
39.004099752745446
 10
22.915582831897179
 20
38.884933143608698
 10
23.034391357074629
 20
38.759988397072917
 10
23.15229871870152
 20
38.628916926424253
 10
23.269914976115729
 20
38.491370144948853
 10
23.387850188655129
 20
38.346999465932853
 10
23.506714415657601
 20
38.195456302662407
 10
23.626920120714971
 20
38.036506721313238
 10
23.748089384434859
 20
37.870375399619277
 10
23.869646691678849
 20
37.697401668204037
 10
23.991016527308521
 20
37.517924857691028
 10
24.111623376185442
 20
37.33228429870374
 10
24.23089172317118
 20
37.140819321865692
 10
24.348246053127319
 20
36.94386925780038
 10
24.463110850915442
 20
36.741773437131307
 10
24.574910601397121
 20
36.534871190482001
 10
24.683069789433919
 20
36.323501848475949
 10
24.787012899887429
 20
36.108004741736657
 10
24.88616441761922
 20
35.888719200887657
 10
24.979948827490858
 20
35.665984556552417
 10
25.06779061436394
 20
35.440140139354462
 10
25.149114263100021
 20
35.211525279917304
 10
25.22334425856069
 20
34.980479308864417
 10
25.2900125195304
 20
34.747281916351987
 10
25.349080700485182
 20
34.511974230666659
 10
25.400617889823931
 20
34.274537739627753
 10
25.444693175945559
 20
34.034953931054552
 10
25.481375647248971
 20
33.793204292766383
 10
25.51073439213307
 20
33.549270312582557
 10
25.532838498996782
 20
33.303133478322373
 10
25.547757056238979
 20
33.054775277805128
 10
25.555559152258599
 20
32.804177198850141
 10
25.556313875454531
 20
32.551320729276718
 10
25.550090314225681
 20
32.296187356904163
 10
25.536957556970961
 20
32.038758569551767
 10
25.516984692089281
 20
31.779015855038882
 10
25.490240807979539
 20
31.516940701184762
 10
25.456794993040649
 20
31.252514595808741
 10
25.41671633567152
 20
30.98571902673012
 10
25.37008020575751
 20
30.71665104246004
 10
25.31698709912984
 20
30.445869934276971
 10
25.257543793106191
 20
30.174050554151219
 10
25.191857065004239
 20
29.9018677540531
 10
25.120033692141671
 20
29.6299963859529
 10
25.04218045183617
 20
29.359111301820921
 10
24.958404121405419
 20
29.089887353627471
 10
24.868811478167078
 20
28.822999393342869
 10
24.773509299438849
 20
28.559122272937401
 10
24.672604362538401
 20
28.298930844381381
 10
24.566203444783412
 20
28.043099959645101
 10
24.454413323491568
 20
27.792304470698891
 10
24.337340775980561
 20
27.54721922951304
 10
24.21509257956804
 20
27.308519088057839
 10
24.08777551157171
 20
27.076878898303601
 10
24.022249518641399
 20
26.963917176555071
 10
23.95549634930925
 20
26.85297351222064
 10
23.887548960842459
 20
26.744116208513422
 10
23.818518750918031
 20
26.637349355513742
 10
23.677733897814239
 20
26.430039148825621
 10
23.53418985223373
 20
26.230947186533509
 10
23.388934676412411
 20
26.039977763014601
 10
23.243016432586131
 20
25.857035172646128
 10
23.097483182990779
 20
25.682023709805289
 10
22.953382989862231
 20
25.514847668869301
 10
22.811763915436359
 20
25.355411344215369
 10
22.54016137163616
 20
25.059375021262561
 10
22.291060049477181
 20
24.793149095964552
 10
22.072844446846439
 20
24.555967923339061
 10
21.977938945943851
 20
24.448029855221531
 10
21.89389906163094
 20
24.34706585840377
 10
21.821501625035101
 20
24.25284309870495
 10
21.760438542849691
 20
24.164580227712079
 10
21.71013049065958
 20
24.081358768454152
 10
21.669998144049639
 20
24.002260243960119
 10
21.639462178604731
 20
23.926366177258981
 10
21.61794326990972
 20
23.852758091379709
 10
21.604862093549489
 20
23.78051750935127
 10
21.599639325108889
 20
23.708725954202659
 10
21.6016956401728
 20
23.636464948962839
 10
21.610451714326089
 20
23.56281601666079
 10
21.625328223153609
 20
23.486860680325488
 10
21.645745842240249
 20
23.407680462985919
 10
21.67112524717087
 20
23.324356887671051
 10
21.700887113530332
 20
23.235971477409858
 10
21.77124093287528
 20
23.040341244164431
 10
21.852346371383671
 20
22.814827022342161
 10
21.940437165882731
 20
22.559006370478389
 10
22.03192071962933
 20
22.273841921969179
 10
22.077812094738221
 20
22.120556596908791
 10
22.123204435880329
 20
21.96029631021057
 10
22.16764866846275
 20
21.793181391049011
 10
22.210695717892602
 20
21.619332168598621
 10
22.25189650957698
 20
21.438868972033919
 10
22.290801968922999
 20
21.251912130529401
 10
22.326963021337779
 20
21.058581973259571
 10
22.359930592228409
 20
20.858998829398939
 10
22.38925560700201
 20
20.653283028122011
 10
22.414488991065681
 20
20.44155489860329
 10
22.435255910390509
 20
20.22405063330989
 10
22.451478493203421
 20
20.001469877879249
 10
22.463153108295341
 20
19.774628141241429
 10
22.470276124457161
 20
19.544340932326481
 10
22.472843910479799
 20
19.31142376006445
 10
22.470852835154162
 20
19.0766921333854
 10
22.464299267271141
 20
18.84096156121937
 10
22.453179575621672
 20
18.605047552496401
 10
22.43749012899664
 20
18.369765616146559
 10
22.417227296186951
 20
18.135931261099891
 10
22.39238744598353
 20
17.904359996286441
 10
22.36296694717727
 20
17.675867330636269
 10
22.32896216855908
 20
17.45126877307942
 10
22.290369478919882
 20
17.23137983254594
 10
22.24718524705056
 20
17.01701601796589
 10
22.199405841742038
 20
16.808992838269312
 10
22.147048483690352
 20
16.607904239693699
 10
22.09021380121203
 20
16.413457917706289
 10
22.02902327452874
 20
16.225140005081769
 10
21.963598383862148
 20
16.042436634594821
 10
21.894060609433929
 20
15.864833939020119
 10
21.820531431465739
 20
15.69181805113236
 10
21.74313233017925
 20
15.52287510370622
 10
21.661984785796118
 20
15.35749122951637
 10
21.577210278538018
 20
15.195152561337499
 10
21.488930288626619
 20
15.0353452319443
 10
21.397266296283568
 20
14.877555374111431
 10
21.302339781730549
 20
14.72126912061359
 10
21.204272225189229
 20
14.56597260422545
 10
21.103185106881259
 20
14.4111519577217
 10
20.892438105852062
 20
14.1008828054661
 10
20.67189572566755
 20
13.787956174920209
 10
20.446655334357409
 20
13.476288372661481
 10
20.00577041148399
 20
12.87881627481911
 10
19.617163123479351
 20
12.3526405555663
 10
19.45726977575519
 20
12.13009322654452
 10
19.328213256591049
 20
11.94193525853038
 10
19.27701431976412
 20
11.862136606170679
 10
19.235233952426551
 20
11.790958588499841
 10
19.20310089860746
 20
11.727044061091441
 10
19.180843902335969
 20
11.669035879519081
 10
19.17349040828967
 20
11.64182256078816
 10
19.168691707641191
 20
11.61557689935634
 10
19.16647639339417
 20
11.59012925217033
 10
19.166873058552241
 20
11.565309976176829
 10
19.16991029611906
 20
11.540949428322531
 10
19.175616699098249
 20
11.516877965554119
 10
19.184020860493462
 20
11.492925944818319
 10
19.195151373308331
 20
11.46892372306182
 10
19.209036830546491
 20
11.44470165723132
 10
19.22570582521158
 20
11.420090104273511
 10
19.267508798837149
 20
11.36901996476279
 10
19.320789038214141
 20
11.314356160103239
 10
19.385775287371661
 20
11.254741545868461
 10
19.551780791144811
 20
11.115231310967561
 10
19.76735526238954
 20
10.93963210464883
 10
20.033081106622859
 20
10.719247585797779
 10
20.344550542498109
 20
10.45402467048712
 10
20.6961082419527
 20
10.14607108908633
 10
20.885152900502678
 20
9.9767289643426142
 10
21.082098876924029
 20
9.797494571964922
 10
21.286239255208919
 20
9.6086313782494415
 10
21.49686711934952
 20
9.4104028494923675
 10
21.713275553338011
 20
9.2030724519898754
 10
21.93475764116657
 20
8.9869036520381584
 10
22.160606466827382
 20
8.7621599159334007
 10
22.3901151143126
 20
8.5291047099717883
 10
22.622576667614421
 20
8.2880015004495089
 10
22.857284210725009
 20
8.0391137536627504
 10
23.0935524251807
 20
7.782785539039752
 10
23.330782382694348
 20
7.519683338536991
 10
23.568396752523022
 20
7.2505542372429996
 10
23.805818203923721
 20
6.9761453202463048
 10
24.042469406153479
 20
6.6972036726354416
 10
24.277773028469351
 20
6.4144763794989412
 10
24.511151740128319
 20
6.1287105259253396
 10
24.74202821038746
 20
5.8406531970031548
 10
24.96982510850378
 20
5.5510514778209252
 10
25.19396510373431
 20
5.2606524534671886
 10
25.413870865336079
 20
4.9702032090304638
 10
25.628965062566131
 20
4.6804508295992848
 10
25.83867036468148
 20
4.3921424002621858
 10
26.04240944093916
 20
4.1060250061076982
 10
26.239604960596189
 20
3.8228457322243532
 10
26.429679592909611
 20
3.5433516637006801
 10
26.612146884920701
 20
3.2681914862735399
 10
26.786883894807691
 20
2.997620288273112
 10
26.953858558533049
 20
2.7317947586779008
 10
27.113038812059269
 20
2.4708715864664108
 10
27.26439259134883
 20
2.215007460617151
 10
27.40788783236421
 20
1.9643590701086271
 10
27.543492471067889
 20
1.719083103919351
 10
27.671174443422341
 20
1.479336251027815
 10
27.790901685390061
 20
1.2452752004125329
 10
27.902642132933519
 20
1.017056641052017
 10
28.006363722015202
 20
0.7948372619247599
 10
28.102034388597581
 20
0.5787737520092747
 10
28.18962206864315
 20
0.3690228002840674
 10
28.269094698114369
 20
0.1657410957276446
 10
28.34042021297374
 20
-0.0309146726814879
 10
28.403566549183729
 20
-0.2207878159648237
 10
28.458501723788451
 20
-0.4039746666724224
 10
28.505194078158521
 20
-0.5815836434686074
 10
28.5436120347462
 20
-0.754976186546266
 10
28.573724016003741
 20
-0.9255137360982872
 10
28.585655397900041
 20
-1.010137338362459
 10
28.595498444383399
 20
-1.0945577323175599
 10
28.60324920826034
 20
-1.1789450979876961
 10
28.608903742337411
 20
-1.263469615396972
 10
28.612458099421129
 20
-1.3483014645695051
 10
28.61390833231804
 20
-1.433610825529406
 10
28.613250493834659
 20
-1.519567878300786
 10
28.610480636777531
 20
-1.606342802907762
 10
28.605594813953189
 20
-1.694105779374439
 10
28.59858907816815
 20
-1.783026987724923
 10
28.578202078942141
 20
-1.965024820173771
 10
28.549288061551749
 20
-2.153697740447206
 10
28.511815448449241
 20
-2.3504071887381111
 10
28.46575266208686
 20
-2.556514605239375
 10
28.411068124916859
 20
-2.7733814301438868
 10
28.347730259391501
 20
-3.0023691036445319
 10
28.275707487963022
 20
-3.2448390659342028
 10
28.194951101421449
 20
-3.5017100451809831
 10
28.105343863907908
 20
-3.7721299214537618
 10
28.006751407901302
 20
-4.0548038627966214
 10
27.899039365880508
 20
-4.3484370372536461
 10
27.78207337032444
 20
-4.6517346128689221
 10
27.655719053711991
 20
-4.9634017576865306
 10
27.51984204852204
 20
-5.2821436397505526
 10
27.37430798723349
 20
-5.6066654271050851
 10
27.21898250232524
 20
-5.9356722877942074
 10
27.053731226276192
 20
-6.2678693898619917
 10
26.967341426723522
 20
-6.434759646426663
 10
26.878419791565221
 20
-6.6019619013525439
 10
26.786949524861171
 20
-6.7693143006451368
 10
26.692913830671241
 20
-6.9366549903099388
 10
26.596295913055268
 20
-7.1038221163524744
 10
26.49707897607313
 20
-7.2706538247782611
 10
26.395246223784682
 20
-7.4369882615928011
 10
26.290780860249789
 20
-7.6026635728015943
 10
26.18366608952832
 20
-7.7675179044101599
 10
26.07388511568012
 20
-7.9313894024240206
 10
25.961421142765069
 20
-8.094116212848677
 10
25.84625737484302
 20
-8.2555364816896315
 10
25.728420003387939
 20
-8.4155006447361522
 10
25.608107169530179
 20
-8.5739082969125455
 10
25.485560001814221
 20
-8.73067132292684
 10
25.36101962878454
 20
-8.8857016074870643
 10
25.23472717898559
 20
-9.0389110353012754
 10
25.106923780961829
 20
-9.1902114910775214
 10
24.977850563257739
 20
-9.33951485952384
 10
24.84774865441781
 20
-9.486733025348256
 10
24.585423277508209
 20
-9.7745612879635999
 10
24.321876678588751
 20
-10.05299135658791
 10
24.059037886015201
 20
-10.321318308885511
 10
23.798835928143301
 20
-10.578837222520731
 10
23.543199833328782
 20
-10.824843175157911
 10
23.29405862992737
 20
-11.058631244461401
 10
23.053341346294818
 20
-11.279496508095541
 10
22.822977010786889
 20
-11.48673404372464
 10
22.401023297567789
 20
-11.85750624162513
 10
22.043629717115969
 20
-12.16530845947759
 10
21.762535158327349
 20
-12.40815207830277
 10
21.649882576021071
 20
-12.50892824680003
 10
21.554705158297779
 20
-12.598651517945569
 10
21.476161930050701
 20
-12.679355039183269
 10
21.41341191617305
 20
-12.753071957956999
 10
21.387696559901912
 20
-12.787945799996089
 10
21.36561414155808
 20
-12.821835421710629
 10
21.347059539253241
 20
-12.854994966531111
 10
21.33192763109902
 20
-12.887678577888019
 10
21.320113295207079
 20
-12.92014039921184
 10
21.311511409689071
 20
-12.95263457393305
 10
21.306016852656661
 20
-12.98541524548215
 10
21.303524502221489
 20
-13.018736557289611
 10
21.303929236495211
 20
-13.05285265278591
 10
21.307125933589479
 20
-13.08801767540154
 10
21.31300947161596
 20
-13.12448576856699
 10
21.32147472868629
 20
-13.162511075712739
 10
21.34572991240513
 20
-13.244249905667051
 10
21.379050509639239
 20
-13.33526731270838
 10
21.469524044226169
 20
-13.55327044782752
 10
21.586297797319489
 20
-13.829167494893889
 10
21.723295296698019
 20
-14.16113280482227
 10
21.874570335867169
 20
-14.54372256280018
 10
21.953703743343681
 20
-14.75230041767883
 10
22.03417670833236
 20
-14.97149295401517
 10
22.115245955021411
 20
-15.200619694957661
 10
22.196168207599001
 20
-15.439000163654759
 10
22.276200190253309
 20
-15.6859538832549
 10
22.3545986271725
 20
-15.9408003769065
 10
22.430620242544769
 20
-16.20285916775801
 10
22.503521760558279
 20
-16.47144977895789
 10
22.572559905401199
 20
-16.74589173365457
 10
22.636991401261739
 20
-17.025504554996509
 10
22.696234894553239
 20
-17.3096943481499
 10
22.75035672058986
 20
-17.598213546351971
 10
22.799585136910949
 20
-17.890901164857759
 10
22.84414840105585
 20
-18.18759621892227
 10
22.884274770563909
 20
-18.488137723800531
 10
22.92019250297448
 20
-18.792364694747562
 10
22.9521298558269
 20
-19.100116147018358
 10
22.980315086660511
 20
-19.411231095867929
 10
23.00497645301467
 20
-19.725548556551299
 10
23.02634221242872
 20
-20.042907544323491
 10
23.044640622442
 20
-20.363147074439521
 10
23.060099940593862
 20
-20.68610616215437
 10
23.07294842442365
 20
-21.01162382272307
 10
23.08341433147071
 20
-21.339539071400662
 10
23.098111445374041
 20
-22.001918394102489
 10
23.105896586310209
 20
-22.67019609221326
 10
23.10799203305195
 20
-23.334283487339629
 10
23.105499308063589
 20
-23.982331741001509
 10
23.099519933809439
 20
-24.602492014718841
 10
23.091155432753862
 20
-25.182915470011569
 10
23.081507327361141
 20
-25.711753268399629
 10
23.062766393421668
 20
-26.56727654054146
 10
23.056895248196319
 20
-26.87537513055771
 10
23.056971709486131
 20
-27.00262983620382
 10
23.060258418847759
 20
-27.115157469084501
 10
23.067657045383811
 20
-27.21531001930666
 10
23.080069258196922
 20
-27.305439476977241
 10
23.09839672638968
 20
-27.387897832203159
 10
23.11006045284801
 20
-27.426985343307781
 10
23.123541119064729
 20
-27.465037075091342
 10
23.138951433677668
 20
-27.502347026317199
 10
23.156404105324661
 20
-27.539209195748711
 10
23.197887354272119
 20
-27.612766184282201
 10
23.248892535009691
 20
-27.688060030798741
 10
23.31032131664001
 20
-27.767442725405239
 10
23.38307536826569
 20
-27.853266258208631
 10
23.468056358989351
 20
-27.947882619315848
 10
23.678305834141071
 20
-28.172901786869438
 10
23.94482084498118
 20
-28.456988371326691
 10
24.257503494656081
 20
-28.797319405569379
 10
24.426920138185171
 20
-28.986341983637441
 10
24.602793636377282
 20
-29.186744144884528
 10
24.78342897088384
 20
-29.397632046221482
 10
24.967131123356271
 20
-29.618111844559181
 10
25.15220507544602
 20
-29.84728969680852
 10
25.336955808804539
 20
-30.084271759880391
 10
25.51968830508325
 20
-30.328164190685651
 10
25.69870754593358
 20
-30.578073146135178
 10
25.872318513006981
 20
-30.833104783139859
 10
25.956566200643401
 20
-30.962262281260031
 10
26.038826187954889
 20
-31.092365258610581
 10
26.118886597647851
 20
-31.223301984805349
 10
26.196535552428731
 20
-31.35496072945821
 10
26.27156117500396
 20
-31.48722976218302
 10
26.343751588079972
 20
-31.619997352593661
 10
26.41293183958232
 20
-31.75317660911583
 10
26.479074678313129
 20
-31.886779995422621
 10
26.54218977829365
 20
-32.020844813999062
 10
26.60228681354517
 20
-32.155408367330111
 10
26.65937545808892
 20
-32.290507957900772
 10
26.713465385946179
 20
-32.426180888196022
 10
26.76456627113819
 20
-32.562464460700838
 10
26.81268778768623
 20
-32.699395977900217
 10
26.857839609611549
 20
-32.837012742279143
 10
26.900031410935409
 20
-32.975352056322592
 10
26.939272865679062
 20
-33.114451222515562
 10
26.975573647863779
 20
-33.254347543343023
 10
27.008943431510819
 20
-33.395078321289972
 10
27.039391890641429
 20
-33.536680858841358
 10
27.066928699276879
 20
-33.679192458482198
 10
27.091563531438421
 20
-33.822650422697457
 10
27.11330606114732
 20
-33.967092053972152
 10
27.132165962424839
 20
-34.112554654791218
 10
27.148152909292229
 20
-34.259075527639681
 10
27.16127657577076
 20
-34.406691975002524
 10
27.171546635881679
 20
-34.555441299364723
 10
27.17897276364625
 20
-34.705360803211228
 10
27.183564633085741
 20
-34.856487789027057
 10
27.185331918221401
 20
-35.008859559297193
 10
27.184284293074491
 20
-35.162513416506599
 10
27.180431431666278
 20
-35.317486663140294
 10
27.17378300801801
 20
-35.473816601683232
 10
27.164348696150959
 20
-35.63154053462042
 10
27.152138170086381
 20
-35.790695764436848
 10
27.137161103845521
 20
-35.951319593617448
 10
27.119427171449662
 20
-36.113449324647242
 10
27.098946046920041
 20
-36.277122260011218
 10
27.075729870375248
 20
-36.442345268304628
 10
27.049800646323121
 20
-36.609003482563828
 10
27.021182845368799
 20
-36.776951601935473
 10
26.98990093811744
 20
-36.946044325566199
 10
26.95597939517419
 20
-37.116136352602638
 10
26.919442687144201
 20
-37.287082382191421
 10
26.880315284632641
 20
-37.458737113479188
 10
26.83862165824463
 20
-37.630955245612583
 10
26.79438627858535
 20
-37.803591477738237
 10
26.747633616259929
 20
-37.976500509002797
 10
26.698388141873529
 20
-38.149537038552921
 10
26.646674326031299
 20
-38.322555765535228
 10
26.592516639338388
 20
-38.495411389096368
 10
26.535939552399949
 20
-38.667958608382953
 10
26.476967535821149
 20
-38.840052122541607
 10
26.415625060207109
 20
-39.011546630719032
 10
26.351936596163
 20
-39.182296832061823
 10
26.28592661429397
 20
-39.352157425716612
 10
26.217619585205171
 20
-39.520983110830073
 10
26.147039979501731
 20
-39.68862858654883
 10
26.07421226778883
 20
-39.854948552019522
 10
25.99916092067161
 20
-40.019797706388772
 10
25.921910408755231
 20
-40.183030748803219
 10
25.842485202644831
 20
-40.344502378409508
 10
25.76090977294557
 20
-40.504067294354293
 10
25.677208590262602
 20
-40.66158019578419
 10
25.591406125201051
 20
-40.816895781845851
 10
25.5035268483661
 20
-40.969868751685922
 10
25.41359523036289
 20
-41.120353804451007
 10
25.321635741796559
 20
-41.2682056392878
 10
25.227672853272281
 20
-41.413278955342889
 10
25.13173103539518
 20
-41.55542845176295
 10
25.033832848573109
 20
-41.694538446361207
 10
24.933993212424671
 20
-41.830611731617317
 10
24.83222513637115
 20
-41.963680718677523
 10
24.728541629833821
 20
-42.093777818688103
 10
24.62295570223397
 20
-42.220935442795323
 10
24.515480362992889
 20
-42.345186002145432
 10
24.406128621531849
 20
-42.466561907884703
 10
24.29491348727214
 20
-42.585095571159378
 10
24.18184796963504
 20
-42.700819403115737
 10
24.06694507804184
 20
-42.81376581490003
 10
23.950217821913821
 20
-42.923967217658522
 10
23.831679210672249
 20
-43.031456022537483
 10
23.71134225373843
 20
-43.136264640683152
 10
23.589219960533651
 20
-43.238425483241777
 10
23.46532534047919
 20
-43.337970961359673
 10
23.339671402996331
 20
-43.434933486183027
 10
23.212271157506361
 20
-43.52934546885816
 10
23.083137613430551
 20
-43.621239320531302
 10
22.9522837801902
 20
-43.710647452348738
 10
22.819722667206559
 20
-43.797602275456711
 10
22.685467283900941
 20
-43.882136201001487
 10
22.549530639694641
 20
-43.964281640129308
 10
22.411925744008929
 20
-44.044071003986453
 10
22.272665606265079
 20
-44.121536703719173
 10
22.131763235884389
 20
-44.196711150473739
 10
21.989231642288139
 20
-44.269626755396388
 10
21.845083834897601
 20
-44.34031592963342
 10
21.699332823134061
 20
-44.408811084331077
 10
21.55199161641881
 20
-44.475144630635612
 10
21.403073224173141
 20
-44.53934897969328
 10
21.252590655818331
 20
-44.601456542650347
 10
21.100556920775659
 20
-44.661499730653077
 10
20.946984888630269
 20
-44.719502480838081
 10
20.791886869622701
 20
-44.775454834303268
 10
20.635275034157331
 20
-44.829338358136937
 10
20.477161552638549
 20
-44.881134619427392
 10
20.317558595470761
 20
-44.930825185262847
 10
20.156478333058391
 20
-44.97839162273165
 10
19.993932935805802
 20
-45.023815498922033
 10
19.829934574117381
 20
-45.067078380922283
 10
19.664495418397539
 20
-45.108161835820688
 10
19.497627639050659
 20
-45.147047430705527
 10
19.329343406481129
 20
-45.183716732665083
 10
19.159654891093329
 20
-45.218151308787618
 10
18.988574263291671
 20
-45.250332726161432
 10
18.81611369348057
 20
-45.280242551874778
 10
18.642285352064398
 20
-45.307862353015963
 10
18.467101409447551
 20
-45.333173696673242
 10
18.290574036034421
 20
-45.356158149934899
 10
18.112715402229391
 20
-45.376797279889217
 10
17.933537678436871
 20
-45.395072653624482
 10
17.753053035061221
 20
-45.410965838228968
 10
17.57127364250686
 20
-45.424458400790947
 10
17.388211671178201
 20
-45.435531908398687
 10
17.20387929147962
 20
-45.444167928140502
 10
17.018288673815501
 20
-45.450348027104639
 10
16.831451988590249
 20
-45.454053772379403
 10
16.643381406208238
 20
-45.455266731053037
 10
16.45408909707389
 20
-45.453968470213837
 10
16.263587231591579
 20
-45.450140556950103
 10
16.071887980165691
 20
-45.443764558350097
 10
15.87900351320064
 20
-45.434822041502088
 10
15.68494600110081
 20
-45.42329457349436
 10
15.489727614270571
 20
-45.409163721415197
 10
15.293381425567951
 20
-45.392427500129322
 10
15.096024117665531
 20
-45.373149715607227
 10
14.8977932756894
 20
-45.351410621595861
 10
14.698826484765741
 20
-45.327290471842169
 10
14.49926133002068
 20
-45.30086952009308
 10
14.299235396580389
 20
-45.272228020095547
 10
14.098886269571
 20
-45.241446225596519
 10
13.898351534118669
 20
-45.208604390342927
 10
13.4972755783898
 20
-45.137061612559819
 10
13.097108210402951
 20
-45.058241716721788
 10
12.69895011116734
 20
-44.972786732804359
 10
12.30390196169221
 20
-44.881338690783089
 10
11.913064442986739
 20
-44.784539620633502
 10
11.52753823606011
 20
-44.683031552331137
 10
11.14842402192154
 20
-44.577456515851537
 10
10.776822481580259
 20
-44.468456541170269
 10
10.413834296045451
 20
-44.356673658262842
 10
10.060560146326299
 20
-44.242749897104808
 10
9.7181007134320261
 20
-44.127327287671697
 10
9.3875566783718583
 20
-44.011047859939069
 10
9.0697116287920032
 20
-43.894333694321041
 10
8.7640807788867701
 20
-43.776727072986013
 10
8.4698622494875426
 20
-43.657550328540992
 10
8.1862541614256958
 20
-43.536125793593001
 10
7.9124546355325629
 20
-43.411775800749041
 10
7.6476617926394876
 20
-43.283822682616083
 10
7.3910737535778477
 20
-43.151588771801137
 10
7.265605948243623
 20
-43.083654748077628
 10
7.1418886391790144
 20
-43.014396400911252
 10
7.0198215914879434
 20
-42.943729021877871
 10
6.8993045702743281
 20
-42.871567902553373
 10
6.7802373406420902
 20
-42.797828334513639
 10
6.6625196676951326
 20
-42.722425609334508
 10
6.5460513165373921
 20
-42.64527501859191
 10
6.4307320522728011
 20
-42.566291853861692
 10
6.316461640005266
 20
-42.485391406719742
 10
6.2031398448387058
 20
-42.402488968741913
 10
6.0906664318770396
 20
-42.317499831504087
 10
5.978941166224188
 20
-42.230339286582158
 10
5.8678638129840719
 20
-42.140922625551987
 10
5.7573341372606084
 20
-42.049165139989441
 10
5.6472519041577174
 20
-41.954982121470408
 10
5.5375168787793214
 20
-41.85828886157077
 10
5.4280288262293368
 20
-41.75900065186638
 10
5.318687511611671
 20
-41.657032783933118
 10
5.1003172161530008
 20
-41.445139509161137
 10
4.8829694110545381
 20
-41.224032717250147
 10
4.6674805745314494
 20
-40.99555635767301
 10
4.4546871847989173
 20
-40.761554379902663
 10
4.2454257200721264
 20
-40.523870733411968
 10
4.0405326585662467
 20
-40.284349367673869
 10
3.840844478496471
 20
-40.044834232161271
 10
3.647197658077999
 20
-39.807169276347103
 10
3.460428675525999
 20
-39.573198449704257
 10
3.2813740090556411
 20
-39.344765701705647
 10
2.949753537220634
 20
-38.911890239532781
 10
2.6590280682944401
 20
-38.523294485611792
 10
2.4158894279985228
 20
-38.193730035725963
 10
2.223697274736943
 20
-37.9351272819613
 10
2.143799075305882
 20
-37.832814609260723
 10
2.0724825976441532
 20
-37.748131801614583
 10
2.0080851944788831
 20
-37.680806905722797
 10
1.977961568559649
 20
-37.653568689278522
 10
1.9489442185371999
 20
-37.630567968285312
 10
1.9208253135024329
 20
-37.611770748580653
 10
1.89339702254624
 20
-37.597143036002052
 10
1.8664515147595111
 20
-37.586650836386987
 10
1.839780959233136
 20
-37.580260155572972
 10
1.8131775250580069
 20
-37.577936999397473
 10
1.7864333813250159
 20
-37.579647373697988
 10
1.759340697125054
 20
-37.585357284312032
 10
1.731691641549008
 20
-37.595032737077069
 10
1.7032783836877741
 20
-37.608639737830607
 10
1.6738930926322459
 20
-37.626144292410117
 10
1.643327937473313
 20
-37.647512406653128
 10
1.611375087301866
 20
-37.672710086397103
 10
1.542474978284996
 20
-37.734458165737927
 10
1.465530118308765
 20
-37.811116577132552
 10
1.2808555563867461
 20
-38.008076582882929
 10
0.7635890778274306
 20
-38.563682223681127
 10
0.4343369929287083
 20
-38.91072704197817
 10
0.0620469101766049
 20
-39.295759946861203
 10
-0.3502502460093847
 20
-39.712651004320747
 10
-0.5704543127590019
 20
-39.931127735888772
 10
-0.7995235512097654
 20
-40.155270280347352
 10
-1.0370790958092531
 20
-40.384312395945322
 10
-1.2827420810050429
 20
-40.617487840931503
 10
-1.5361336412446851
 20
-40.854030373554707
 10
-1.7968749109757229
 20
-41.093173752063763
 10
-2.064685979383754
 20
-41.334125219865307
 10
-2.339682754606446
 20
-41.575985960997507
 10
-2.6220800995194442
 20
-41.817830644656333
 10
-2.9120928769983951
 20
-42.058733940037733
 10
-3.2099359499189841
 20
-42.297770516337721
 10
-3.5158241811568929
 20
-42.534015042752287
 10
-3.6718523757934922
 20
-42.65080112137629
 10
-3.8299724335877712
 20
-42.766542188477409
 10
-3.9902112123992071
 20
-42.881122577705163
 10
-4.152595570087259
 20
-42.994426622709042
 10
-4.3171523645113874
 20
-43.106338657138537
 10
-4.4839084535310452
 20
-43.216743014643178
 10
-4.6528906950056941
 20
-43.325524028872437
 10
-4.8241259467948154
 20
-43.43256603347583
 10
-4.9976410667578426
 20
-43.537753362102841
 10
-5.1734629127542124
 20
-43.640970348402959
 10
-5.3516183426434054
 20
-43.742101326025683
 10
-5.5321342142848797
 20
-43.84103062862053
 10
-5.7150373855380927
 20
-43.937642589836983
 10
-5.9003547142625026
 20
-44.031821543324547
 10
-6.0881130583175702
 20
-44.123451822732719
 10
-6.2783392755627494
 20
-44.212417761710988
 10
-6.4710602238575001
 20
-44.298603693908859
 10
-6.6663027610612824
 20
-44.38189395297583
 10
-6.8640937450335509
 20
-44.462172872561403
 10
-7.0644600336337922
 20
-44.539324786315078
 10
-7.2674034663646374
 20
-44.613257604616209
 10
-7.4728258093015132
 20
-44.683973544763589
 10
-7.6806038101630936
 20
-44.751498400785898
 10
-7.8906142166680358
 20
-44.81585796671181
 10
-8.1027337765349863
 20
-44.877078036569998
 10
-8.3168392374825988
 20
-44.935184404389119
 10
-8.5328073472295269
 20
-44.990202864197848
 10
-8.7505148534944173
 20
-45.042159210024863
 10
-8.9698385039959234
 20
-45.091079235898803
 10
-9.190655046452699
 20
-45.136988735848377
 10
-9.4128412285833942
 20
-45.179913503902227
 10
-9.6362737981066893
 20
-45.21987933408905
 10
-9.8608295027412076
 20
-45.25691202043749
 10
-10.086385090205569
 20
-45.291037356976219
 10
-10.31281730821846
 20
-45.32228113773391
 10
-10.54000290449852
 20
-45.350669156739237
 10
-10.76781862676442
 20
-45.376227208020858
 10
-10.99614122273479
 20
-45.39898108560746
 10
-11.2248474401283
 20
-45.418956583527702
 10
-11.453814026663609
 20
-45.436179495810237
 10
-11.68291773005936
 20
-45.450675616483757
 10
-11.912035298034169
 20
-45.462470739576943
 10
-12.14104347830672
 20
-45.471590659118426
 10
-12.369819018595649
 20
-45.4780611691369
 10
-12.598238666619631
 20
-45.481908063661038
 10
-12.8261791700973
 20
-45.483157136719477
 10
-13.053517276747311
 20
-45.481834182340933
 10
-13.28012973428835
 20
-45.47796499455405
 10
-13.50589329043903
 20
-45.471575367387487
 10
-13.730684692917981
 20
-45.462691094869932
 10
-13.95438068944388
 20
-45.451337971030057
 10
-14.17685802773538
 20
-45.437541789896521
 10
-14.398015724653741
 20
-45.421325994159503
 10
-14.617841873630599
 20
-45.402704621155273
 10
-14.8363468372402
 20
-45.381689356881573
 10
-15.053540978056819
 20
-45.358291887336172
 10
-15.26943465865469
 20
-45.332523898516847
 10
-15.484038241608021
 20
-45.304397076421367
 10
-15.697362089491079
 20
-45.273923107047487
 10
-15.90941656487813
 20
-45.241113676392978
 10
-16.12021203034341
 20
-45.205980470455607
 10
-16.329758848461172
 20
-45.168535175233139
 10
-16.538067381805661
 20
-45.128789476723327
 10
-16.74514799295115
 20
-45.086755060923942
 10
-16.951011044471851
 20
-45.042443613832759
 10
-17.155666898941998
 20
-44.995866821447542
 10
-17.35912591893587
 20
-44.94703636976606
 10
-17.561398467027701
 20
-44.895963944786061
 10
-17.762494905791741
 20
-44.842661232505321
 10
-17.96242559780223
 20
-44.787139918921604
 10
-18.161200905633439
 20
-44.729411690032677
 10
-18.35883119185959
 20
-44.669488231836318
 10
-18.555326819054951
 20
-44.607381230330283
 10
-18.750698149793749
 20
-44.543102371512312
 10
-18.944955546650249
 20
-44.47666334138021
 10
-19.138109372198741
 20
-44.408075825931697
 10
-19.33016998901342
 20
-44.337351511164577
 10
-19.52114775966848
 20
-44.264502083076628
 10
-19.711053046738229
 20
-44.189539227665577
 10
-19.899896212796911
 20
-44.112474630929228
 10
-20.08768762041877
 20
-44.033319978865308
 10
-20.27443763217806
 20
-43.952086957471607
 10
-20.460156610649019
 20
-43.868787252745889
 10
-20.644854918405901
 20
-43.783432550685909
 10
-20.828526131472501
 20
-43.696043856112453
 10
-21.011096679670811
 20
-43.60667944913844
 10
-21.19247620627236
 20
-43.515406928699782
 10
-21.3725743545487
 20
-43.42229389373238
 10
-21.551300767771369
 20
-43.327407943172183
 10
-21.728565089211902
 20
-43.230816675955097
 10
-21.904276962141839
 20
-43.132587691017058
 10
-22.078346029832769
 20
-43.03278858729395
 10
-22.25068193555617
 20
-42.931486963721717
 10
-22.42119432258357
 20
-42.828750419236329
 10
-22.589792834186511
 20
-42.724646552773663
 10
-22.756387113636571
 20
-42.619242963269627
 10
-22.920886804205271
 20
-42.512607249660178
 10
-23.083201549164141
 20
-42.404807010881207
 10
-23.243240991784742
 20
-42.295909845868657
 10
-23.400914775338599
 20
-42.185983353558441
 10
-23.556132543097259
 20
-42.075095132886467
 10
-23.70880393833226
 20
-41.963312782788698
 10
-23.858838604315139
 20
-41.850703902200998
 10
-24.00614618431743
 20
-41.737336090059337
 10
-24.15063632161068
 20
-41.623276945299622
 10
-24.292218659466432
 20
-41.508594066857761
 10
-24.430802841156211
 20
-41.393355053669687
 10
-24.566298509951569
 20
-41.277627504671322
 10
-24.698615309124051
 20
-41.161479018798588
 10
-24.82766288194518
 20
-41.044977194987403
 10
-24.95335087168651
 20
-40.928189632173691
 10
-25.07558892161957
 20
-40.811183929293371
 10
-25.194286675015899
 20
-40.694027685282371
 10
-25.309353775147041
 20
-40.576788499076613
 10
-25.42069986528454
 20
-40.459533969612004
 10
-25.528234588699959
 20
-40.342331695824463
 10
-25.631890820824179
 20
-40.22523702551107
 10
-25.731694365725652
 20
-40.108256301913663
 10
-25.827694259632221
 20
-39.991383617135121
 10
-25.919939538771729
 20
-39.874613063278389
 10
-26.008479239372011
 20
-39.757938732446412
 10
-26.093362397660901
 20
-39.641354716742093
 10
-26.174638049866239
 20
-39.524855108268397
 10
-26.252355232215859
 20
-39.408433999128242
 10
-26.326562980937592
 20
-39.292085481424571
 10
-26.397310332259281
 20
-39.175803647260317
 10
-26.464646322408761
 20
-39.059582588738422
 10
-26.528619987613862
 20
-38.943416397961798
 10
-26.589280364102422
 20
-38.827299167033424
 10
-26.64667648810228
 20
-38.711224988056181
 10
-26.700857395841261
 20
-38.595187953133028
 10
-26.75187212354723
 20
-38.479182154366882
 10
-26.799769707448
 20
-38.363201683860702
 10
-26.84459918377139
 20
-38.247240633717432
 10
-26.886409588745259
 20
-38.131293096039997
 10
-26.925249958597441
 20
-38.015353162931341
 10
-26.961169329555769
 20
-37.899414926494373
 10
-26.994216737848081
 20
-37.783472478832053
 10
-27.024441219702201
 20
-37.66751991204729
 10
-27.051891811345989
 20
-37.551551318243042
 10
-27.076617549007249
 20
-37.435560789522221
 10
-27.098667468913849
 20
-37.319542417987783
 10
-27.118090607293599
 20
-37.203490295742647
 10
-27.134936000374349
 20
-37.08739851488977
 10
-27.149252684383931
 20
-36.97126116753207
 10
-27.161089695550181
 20
-36.855072345772477
 10
-27.170496070100931
 20
-36.738826141713943
 10
-27.17752084426402
 20
-36.622516647459349
 10
-27.18221343630675
 20
-36.506143878845009
 10
-27.184624792654269
 20
-36.389731546640469
 10
-27.18480624177117
 20
-36.273309285348567
 10
-27.182809112122079
 20
-36.156906729472162
 10
-27.1786847321716
 20
-36.040553513514112
 10
-27.17248443038434
 20
-35.924279271977277
 10
-27.15406137515793
 20
-35.692086250178697
 10
-27.127950574159701
 20
-35.460564740099279
 10
-27.09456265510655
 20
-35.229951817761908
 10
-27.054308245715351
 20
-35.000484559189459
 10
-27.00759797370295
 20
-34.772400040404811
 10
-26.95484246678625
 20
-34.545935337430819
 10
-26.896452352682111
 20
-34.321327526290368
 10
-26.832838259107412
 20
-34.098813683006327
 10
-26.764410813779008
 20
-33.878630883601552
 10
-26.69158064441379
 20
-33.661016204098942
 10
-26.614758378728649
 20
-33.446206720521388
 10
-26.53435464444043
 20
-33.234439508891747
 10
-26.45078006926602
 20
-33.025951645232887
 10
-26.364417647390969
 20
-32.820949042906967
 10
-26.27553983887551
 20
-32.619512964633337
 10
-26.18439147024856
 20
-32.421693510470618
 10
-26.091217368039029
 20
-32.227540780477391
 10
-25.996262358775841
 20
-32.037104874712327
 10
-25.899771268987919
 20
-31.850435893234071
 10
-25.801988925204171
 20
-31.667583936101209
 10
-25.703160153953529
 20
-31.48859910337238
 10
-25.60352978176488
 20
-31.313531495106201
 10
-25.503342635167151
 20
-31.142431211361309
 10
-25.402843540689268
 20
-30.97534835219631
 10
-25.302277324860121
 20
-30.812333017669818
 10
-25.101922835263771
 20
-30.498705322766948
 10
-24.904237778609431
 20
-30.201948927121691
 10
-24.711219334171549
 20
-29.92260856536743
 10
-24.525018949396969
 20
-29.661804708795081
 10
-24.347826638775711
 20
-29.42080176285998
 10
-24.181832416797771
 20
-29.20086413301749
 10
-24.029226297953141
 20
-29.00325622472289
 10
-23.892198296731809
 20
-28.829242443431539
 10
-23.673636705119009
 20
-28.557054883679822
 10
-23.595434268524588
 20
-28.459222670629241
 10
-23.53527675641579
 20
-28.376918733397918
 10
-23.5106825856036
 20
-28.337883909605129
 10
-23.489060932184941
 20
-28.29828400443591
 10
-23.469898891583849
 20
-28.25663663444654
 10
-23.452683559224379
 20
-28.21145941619325
 10
-23.436902030530561
 20
-28.161269966232322
 10
-23.422041400926439
 20
-28.10458590112
 10
-23.393031220683479
 20
-27.96580439166619
 10
-23.36154978188781
 20
-27.78325582028187
 10
-23.323493847931779
 20
-27.54508111941708
 10
-23.219647625528001
 20
-26.881168145606441
 10
-23.157203720317401
 20
-26.468494481580841
 10
-23.090677047710781
 20
-26.012948362635239
 10
-23.022265929165471
 20
-25.522734036139759
 10
-22.9541686861388
 20
-25.006055749464519
 10
-22.8885836400881
 20
-24.471117749979658
 10
-22.827709112470711
 20
-23.926124285055369
 10
-22.773310237756249
 20
-23.378238662871951
 10
-22.72541940246342
 20
-22.83046043485049
 10
-22.683635806123242
 20
-22.28474821322234
 10
-22.64755864826671
 20
-21.74306061021888
 10
-22.616787128424839
 20
-21.207356238071391
 10
-22.59092044612861
 20
-20.679593709011169
 10
-22.569557800909049
 20
-20.161731635269579
 10
-22.55229839229716
 20
-19.65572862907797
 10
-22.522141903830821
 20
-18.679578095613699
 10
-22.512080302868579
 20
-18.440699777178899
 10
-22.499719976652781
 20
-18.202958055401439
 10
-22.484416058325781
 20
-17.965889365623681
 10
-22.465523681029939
 20
-17.729030143188041
 10
-22.442397977907621
 20
-17.491916823436899
 10
-22.414394082101161
 20
-17.254085841712659
 10
-22.38086712675295
 20
-17.015073633357719
 10
-22.3411722450053
 20
-16.77441663371448
 10
-22.294664570000599
 20
-16.531651278125342
 10
-22.240699234881191
 20
-16.286314001932691
 10
-22.17863137278944
 20
-16.03794124047894
 10
-22.107816116867681
 20
-15.786069429106449
 10
-22.027911923227379
 20
-15.530539398444141
 10
-21.939790539856311
 20
-15.272409560266951
 10
-21.844627037711358
 20
-15.01304272163622
 10
-21.743596487749379
 20
-14.753801689613351
 10
-21.637873960927259
 20
-14.49604927125973
 10
-21.528634528201859
 20
-14.24114827363675
 10
-21.41705326053005
 20
-13.9904615038058
 10
-21.304305228868699
 20
-13.74535176882824
 10
-21.19156550417469
 20
-13.50718187576549
 10
-21.080009157404898
 20
-13.27731463167896
 10
-20.865146881465449
 20
-12.84793931868006
 10
-20.66911896870532
 20
-12.46812828632264
 10
-20.501325986779449
 20
-12.14878399109778
 10
-20.370141309696379
 20
-11.896687482290019
 10
-20.319673972393371
 20
-11.793082054636089
 10
-20.279829536878729
 20
-11.70213418035736
 10
-20.251012678874471
 20
-11.622115611110241
 10
-20.24086605260187
 20
-11.585664738266169
 10
-20.233628074102619
 20
-11.551298098551159
 10
-20.22934932784197
 20
-11.518799660922269
 10
-20.22808039828519
 20
-11.48795339433655
 10
-20.229871869897512
 20
-11.45854326775105
 10
-20.234774327144191
 20
-11.43035325012282
 10
-20.242838354490491
 20
-11.40316731040892
 10
-20.254114536401659
 20
-11.3767694175664
 10
-20.26865345734295
 20
-11.35094354055231
 10
-20.2865057017796
 20
-11.32547364832371
 10
-20.30772185417689
 20
-11.30014370983764
 10
-20.332352499000041
 20
-11.27473769405117
 10
-20.392059603785
 20
-11.222833306405199
 10
-20.46603169185649
 20
-11.168032237042221
 10
-20.554673438936511
 20
-11.10860623761868
 10
-20.77758461301028
 20
-10.968966455215529
 10
-21.06170590361576
 20
-10.79263920684266
 10
-21.398651575695698
 20
-10.578554677729031
 10
-21.583586566281109
 20
-10.45781637652709
 10
-21.777711266026131
 20
-10.32819428749916
 10
-21.97968687952778
 20
-10.189873588098299
 10
-22.188174611383062
 20
-10.04303945577756
 10
-22.40183566618898
 20
-9.8878770679900239
 10
-22.619331248542551
 20
-9.724571602188739
 10
-22.839322563040771
 20
-9.5533082358267709
 10
-23.06047081428067
 20
-9.3742721463571623
 10
-23.281437206859231
 20
-9.1876485112329949
 10
-23.50088294537343
 20
-8.9936225079073573
 10
-23.7174692344203
 20
-8.792379313833294
 10
-23.82427171183005
 20
-8.689109138219683
 10
-23.929857278596849
 20
-8.5841041064638617
 10
-24.03408334561254
 20
-8.477398809541917
 10
-24.13690636503792
 20
-8.3690736136077408
 10
-24.23830754935101
 20
-8.2592203286096755
 10
-24.338268111029809
 20
-8.1479307644960635
 10
-24.53379221639663
 20
-7.921410038715579
 10
-24.723328380962531
 20
-7.6902459158530014
 10
-24.906726304551619
 20
-7.4551728754951103
 10
-25.083835686987989
 20
-7.2169253972286818
 10
-25.254506228095799
 20
-6.9762379606404368
 10
-25.418587627699178
 20
-6.7338450453171204
 10
-25.575929585622241
 20
-6.4904811308454793
 10
-25.726381801689129
 20
-6.2468806968122621
 10
-25.869793975723951
 20
-6.0037782228042156
 10
-26.006015807550849
 20
-5.7619081884080892
 10
-26.13489699699393
 20
-5.5220050732106287
 10
-26.256287243877338
 20
-5.284803356798581
 10
-26.370036248025201
 20
-5.0510375187586947
 10
-26.475993709261651
 20
-4.8214420386776879
 10
-26.574030675248899
 20
-4.5965431990300232
 10
-26.66410358500163
 20
-4.3760344938408986
 10
-26.746190225372651
 20
-4.1594012200231436
 10
-26.820268383214739
 20
-3.9461286744896111
 10
-26.88631584538069
 20
-3.7357021541531599
 10
-26.944310398723299
 20
-3.527606955926645
 10
-26.99422983009535
 20
-3.321328376722922
 10
-27.03605192634965
 20
-3.1163517134548209
 10
-27.069754474338989
 20
-2.912162263035226
 10
-27.083553976125781
 20
-2.8102018979288972
 10
-27.095315260916131
 20
-2.708245322377016
 10
-27.105035552066632
 20
-2.6062281984936888
 10
-27.112712072933888
 20
-2.5040861883930239
 10
-27.118342046874488
 20
-2.4017549541891259
 10
-27.121922697245051
 20
-2.2991701579961039
 10
-27.123451247402151
 20
-2.196267461928064
 10
-27.12292492070241
 20
-2.092982528099113
 10
-27.120340940502409
 20
-1.9892510186233581
 10
-27.11569653015875
 20
-1.8850085956149061
 10
-27.108988913028039
 20
-1.780190921187865
 10
-27.100215312466879
 20
-1.674733657456341
 10
-27.07645905447956
 20
-1.4616430105362439
 10
-27.044430293327061
 20
-1.245350304601534
 10
-27.00423056724939
 20
-1.0259826007352659
 10
-26.955986164764049
 20
-0.8037953128544743
 10
-26.8998233743885
 20
-0.5790438548762192
 10
-26.83586848464023
 20
-0.3519836407175626
 10
-26.764247784036719
 20
-0.1228700842955666
 10
-26.685087561095429
 20
0.108041400472708
 10
-26.598514104333859
 20
0.3404953996701998
 10
-26.50465370226949
 20
0.5742364993798476
 10
-26.40363264341978
 20
0.8090092856845892
 10
-26.29557721630222
 20
1.0445583446673641
 10
-26.180613709434279
 20
1.28062826241114
 10
-26.058868411333439
 20
1.516963624998827
 10
-25.930467610517208
 20
1.753309018513332
 10
-25.795537595503038
 20
1.989409029037623
 10
-25.65420465480841
 20
2.2250082426546411
 10
-25.506578203869449
 20
2.459914216644242
 10
-25.352700165796819
 20
2.694186393073966
 10
-25.192595590619842
 20
2.9279471852082688
 10
-25.026289528367801
 20
3.1613190063116399
 10
-24.85380702907003
 20
3.394424269648507
 10
-24.67517314275586
 20
3.6273853884832969
 10
-24.490412919454599
 20
3.8603247760804971
 10
-24.299551409195541
 20
4.093364845704567
 10
-24.102613662008
 20
4.3266280106199622
 10
-23.899624727921299
 20
4.5602366840911426
 10
-23.69060965696475
 20
4.7943132793825658
 10
-23.47559349916763
 20
5.0289802097587204
 10
-23.254601304559269
 20
5.264359888484031
 10
-23.027658123169029
 20
5.5005747288229276
 10
-22.794789005026189
 20
5.7377471440398971
 10
-22.556019000160049
 20
5.9759995473993994
 10
-22.311618158190669
 20
6.215259672067373
 10
-22.06283652710103
 20
6.4546765308156946
 10
-21.81116915446486
 20
6.6932044563177246
 10
-21.55811108785586
 20
6.9297977812468528
 10
-21.05380306301436
 20
7.3929979600797164
 10
-20.561872833166369
 20
7.8359117287011326
 10
-20.094280778901659
 20
8.2501737484980051
 10
-19.662987280810011
 20
8.6274186808572129
 10
-18.957137475505089
 20
9.2373959288101481
 10
-18.703805376416948
 20
9.4568402686203274
 10
-18.602888295558511
 20
9.5471109216849932
 10
-18.518434037534298
 20
9.6264623751965672
 10
-18.449915235127211
 20
9.6964309879104427
 10
-18.396804521120121
 20
9.7585531185820056
 10
-18.375862395011222
 20
9.7871518652629792
 10
-18.35857452829589
 20
9.8143651259666473
 10
-18.344875000072001
 20
9.8403849455374299
 10
-18.334697889437411
 20
9.8654033688197629
 10
-18.327977275489971
 20
9.8896124406580572
 10
-18.32464723732755
 20
9.9132042058967347
 10
-18.324641854048
 20
9.936370709380224
 10
-18.327895204749179
 20
9.9593039959529488
 10
-18.33434136852896
 20
9.9821961104593342
 10
-18.343914424485192
 20
10.0052390977438
 10
-18.356548451715732
 20
10.028625002650781
 10
-18.372177529318439
 20
10.05254587002468
 10
-18.41215715203181
 20
10.102760671550969
 10
-18.463325925408181
 20
10.157419861078081
 10
-18.597121455281421
 20
10.286216839156269
 10
-18.768695079446509
 20
10.449047993820431
 10
-18.9705773513931
 20
10.647305792703991
 10
-19.08034687145167
 20
10.75947367971288
 10
-19.19464872285625
 20
10.88020302295843
 10
-19.312467962073729
 20
11.009395420834579
 10
-19.432789645570981
 20
11.14695247173527
 10
-19.554598829814889
 20
11.29277577405443
 10
-19.676880571272331
 20
11.44676692618599
 10
-19.79861992641019
 20
11.6088275265239
 10
-19.91880195169535
 20
11.77885917346212
 10
-20.03641170359467
 20
11.956763465394561
 10
-20.150434238575031
 20
12.142442000715119
 10
-20.2057831298665
 20
12.238165859144081
 10
-20.259854613103311
 20
12.33579637781779
 10
-20.312521820343829
 20
12.435321256535509
 10
-20.3636578836464
 20
12.53672819509648
 10
-20.41316294435795
 20
12.63999405211554
 10
-20.461045180979578
 20
12.74505232146992
 10
-20.507339781300949
 20
12.85182565585243
 10
-20.552081933111729
 20
12.960236707955911
 10
-20.63704964236015
 20
13.181662576097031
 10
-20.71622981104213
 20
13.408711147435911
 10
-20.789903941474961
 20
13.640763643515109
 10
-20.85835353597593
 20
13.87720128587716
 10
-20.921860096862321
 20
14.1174052960647
 10
-20.98070512645144
 20
14.360756895620311
 10
-21.03517012706056
 20
14.606637306086579
 10
-21.085536601007
 20
14.85442774900608
 10
-21.132086050608031
 20
15.1035094459214
 10
-21.175099978180949
 20
15.35326361837517
 10
-21.214859886043051
 20
15.60307148790994
 10
-21.251647276511619
 20
15.85231427606826
 10
-21.285743651903939
 20
16.100373204392739
 10
-21.317430514537321
 20
16.346629494425979
 10
-21.34690999526444
 20
16.590616651884719
 10
-21.37406673907962
 20
16.832477319182331
 10
-21.398706019512549
 20
17.072506422906379
 10
-21.420633110092961
 20
17.310998889644409
 10
-21.439653284350548
 20
17.54824964598394
 10
-21.45557181581502
 20
17.78455361851249
 10
-21.468193978016089
 20
18.020205733817608
 10
-21.477325044483461
 20
18.25550091848686
 10
-21.482770288746838
 20
18.49073409910778
 10
-21.484334984335948
 20
18.72620020226789
 10
-21.48182440478049
 20
18.962194154554751
 10
-21.475043823610161
 20
19.1990108825559
 10
-21.463798514354689
 20
19.436945312858871
 10
-21.44789375054377
 20
19.676292372051211
 10
-21.427134805707119
 20
19.91734698672045
 10
-21.40132695337444
 20
20.160404083454178
 10
-21.370408341038011
 20
20.405514581248291
 10
-21.334848612040322
 20
20.651753368732351
 10
-21.295250283686439
 20
20.897951326944359
 10
-21.252215873281418
 20
21.142939336922311
 10
-21.206347898130339
 20
21.385548279704182
 10
-21.158248875538241
 20
21.624609036327961
 10
-21.108521322810191
 20
21.85895248783163
 10
-21.057767757251259
 20
22.087409515253199
 10
-20.955592656860979
 20
22.521987822001869
 10
-20.856543712807891
 20
22.918991004877821
 10
-20.687104847475251
 20
23.562860192227149
 10
-20.626129981342391
 20
23.794739515551321
 10
-20.603321515158839
 20
23.89011717940371
 10
-20.58621049490301
 20
23.97394724167669
 10
-20.57523052157925
 20
24.047850000090548
 10
-20.570815196191919
 20
24.113445752365561
 10
-20.573398119745349
 20
24.172354796222031
 10
-20.577449425188711
 20
24.199808145530891
 10
-20.583412893243899
 20
24.226197429380221
 10
-20.591342724036469
 20
24.251725184985059
 10
-20.601293117691942
 20
24.276593949560439
 10
-20.62747239409379
 20
24.325164654482961
 10
-20.662384323453828
 20
24.373529841868081
 10
-20.70646250677639
 20
24.423309809436081
 10
-20.760140545065841
 20
24.476124854907241
 10
-20.823852039326521
 20
24.533595276001851
 10
-20.983109799778958
 20
24.668983435942561
 10
-21.185744970416849
 20
24.839674702382428
 10
-21.425428230516591
 20
25.044821613893401
 10
-21.693870633602881
 20
25.28081474040928
 10
-21.982783233200369
 20
25.544044651863899
 10
-22.132325560917309
 20
25.684745455047569
 10
-22.283877082833811
 20
25.83090191819111
 10
-22.436401680640461
 20
25.98206286253626
 10
-22.58886323602789
 20
26.137777109324769
 10
-22.740225630686648
 20
26.297593479798351
 10
-22.88945274630731
 20
26.461060795198708
 10
-23.035508464580481
 20
26.62772787676759
 10
-23.17735666719674
 20
26.797143545746739
 10
-23.314120105465939
 20
26.968947401167931
 10
-23.445557009174831
 20
27.143142153223231
 10
-23.571584477729441
 20
27.319821289894779
 10
-23.692119610535819
 20
27.499078299164701
 10
-23.807079506999969
 20
27.681006669015112
 10
-23.916381266527889
 20
27.865699887428111
 10
-24.01994198852562
 20
28.053251442385839
 10
-24.117678772399181
 20
28.243754821870429
 10
-24.209508717554591
 20
28.437303513863998
 10
-24.295348923397871
 20
28.63399100634868
 10
-24.37511648933506
 20
28.8339107873066
 10
-24.448728514772149
 20
29.037156344719872
 10
-24.51610209911518
 20
29.24382116657063
 10
-24.577154341770171
 20
29.453998740840991
 10
-24.631802342143139
 20
29.667782555513082
 10
-24.67996319964011
 20
29.885266098569058
 10
-24.721554659542601
 20
30.106504464009721
 10
-24.75649705063416
 20
30.331399169910711
 10
-24.784711347573811
 20
30.559813340366439
 10
-24.806118525020619
 20
30.791610099471271
 10
-24.820639557633609
 20
31.02665257131958
 10
-24.828195420071829
 20
31.264803880005751
 10
-24.828707086994321
 20
31.50592714962416
 10
-24.822095533060129
 20
31.749885504269201
 10
-24.8082817329283
 20
31.996542068035229
 10
-24.787186661257859
 20
32.245759965016582
 10
-24.758731292707861
 20
32.497402319307668
 10
-24.72283660193736
 20
32.751332255002858
 10
-24.679423563605368
 20
33.007412896196549
 10
-24.62841315237095
 20
33.265507366983101
 10
-24.569726342893141
 20
33.525478791456877
 10
-24.503284109830979
 20
33.7871902937123
 10
-24.429056109461079
 20
34.050431266196831
 10
-24.347206724530359
 20
34.314696174770383
 10
-24.257949019403291
 20
34.579405753646043
 10
-24.161496058444349
 20
34.84398073703688
 10
-24.058060906018021
 20
35.107841859155968
 10
-23.947856626488779
 20
35.370409854216369
 10
-23.831096284221111
 20
35.631105456431143
 10
-23.70799294357948
 20
35.889349400013373
 10
-23.578759668928381
 20
36.144562419176083
 10
-23.443609524632279
 20
36.396165248132377
 10
-23.30275557505567
 20
36.643578621095301
 10
-23.156410884562991
 20
36.886223272277959
 10
-23.004788517518762
 20
37.123519935893391
 10
-22.848101538287469
 20
37.354889346154607
 10
-22.68656301123357
 20
37.579752237274718
 10
-22.60404099988704
 20
37.689562717598449
 10
-22.520386000721551
 20
37.797529343466799
 10
-22.43562245691303
 20
37.903592377303681
 10
-22.349766052159019
 20
38.007742764122113
 10
-22.262830280287421
 20
38.109984119582379
 10
-22.17482863512614
 20
38.210320059344767
 10
-22.085774610503101
 20
38.308754199069597
 10
-21.995681700246202
 20
38.405290154417138
 10
-21.90456339818336
 20
38.499931541047673
 10
-21.812433198142461
 20
38.592681974621541
 10
-21.719304593951449
 20
38.683545070798978
 10
-21.625191079438249
 20
38.7725244452403
 10
-21.53010614843075
 20
38.859623713605778
 10
-21.434063294756871
 20
38.944846491555722
 10
-21.33707601224452
 20
39.028196394750431
 10
-21.239157794721599
 20
39.10967703885018
 10
-21.140322136016032
 20
39.189292039515273
 10
-21.040582529955721
 20
39.267045012405987
 10
-20.939952470368581
 20
39.342939573182633
 10
-20.838445451082521
 20
39.416979337505481
 10
-20.736074965925461
 20
39.489167921034849
 10
-20.632854508725309
 20
39.559508939431012
 10
-20.42391765350736
 20
39.694662743464889
 10
-20.21174283605195
 20
39.822469674889483
 10
-19.996438006982391
 20
39.942958658987081
 10
-19.778111116921991
 20
40.056158621040034
 10
-19.556870116494029
 20
40.16209848633067
 10
-19.332822956321799
 20
40.260807180141327
 10
-19.106104574684409
 20
40.352320859074943
 10
-18.87695786048425
 20
40.436704605016729
 10
-18.645652690279569
 20
40.514030731172546
 10
-18.412458940628571
 20
40.58437155074823
 10
-18.17764648808949
 20
40.6477993769496
 10
-17.941485209220591
 20
40.704386522982489
 10
-17.704244980580089
 20
40.754205302052739
 10
-17.466195678726191
 20
40.79732802736617
 10
-17.227607180217142
 20
40.83382701212863
 10
-16.988749361611159
 20
40.863774569545953
 10
-16.749892099466472
 20
40.887243012823937
 10
-16.51130527034131
 20
40.904304655168467
 10
-16.273258750793911
 20
40.915031809785347
 10
-16.03602241738248
 20
40.919496789880441
 10
-15.79986614666527
 20
40.917771908659532
 10
-15.56505981520046
 20
40.90992947932849
 10
-15.331955381202979
 20
40.896131301132193
 10
-15.10123312951435
 20
40.876897117471771
 10
-14.87365542663272
 20
40.852836157787408
 10
-14.64998463905625
 20
40.824557651519299
 10
-14.430983133283091
 20
40.792670828107617
 10
-14.21741327581142
 20
40.757784916992563
 10
-14.01003743313939
 20
40.720509147614322
 10
-13.809617971765149
 20
40.681452749413047
 10
-13.61691725818689
 20
40.641224951828967
 10
-13.43269765890278
 20
40.600434984302247
 10
-13.09275126920963
 20
40.519605457181648
 10
-12.79587773467099
 20
40.443838003572743
 10
-12.548175987272151
 20
40.378006458997
 10
-12.35231877208817
 20
40.326529419477531
 10
-12.27059849995676
 20
40.30701405346678
 10
-12.19727408655304
 20
40.292004523043879
 10
-12.130538258192439
 20
40.281768628025212
 10
-12.06858374119046
 20
40.276574168227178
 10
-12.009603261862541
 20
40.276688943466169
 10
-11.95178954652415
 20
40.282380753558577
 10
-11.89333532149076
 20
40.293917398320801
 10
-11.83243331307783
 20
40.311566677569218
 10
-11.767276247600829
 20
40.335596391120248
 10
-11.696056851375211
 20
40.366274338790269
 10
-11.616967850716451
 20
40.403868320395667
 10
-11.52820197194001
 20
40.448646135752853
 10
-11.31441048529596
 20
40.560824466988109
 10
-10.71691962977425
 20
40.874639100515331
 10
-10.339689090728969
 20
41.068829764276423
 10
-9.9165922554905244
 20
41.282201298191367
 10
-9.4524719575562131
 20
41.510497681376897
 10
-8.9521710304233242
 20
41.749462892949708
 10
-8.6899662163753177
 20
41.871616302855308
 10
-8.4205323075892036
 20
41.994840912026469
 10
-8.1444746582521166
 20
42.118604717852783
 10
-7.862398622551213
 20
42.242375717723839
 10
-7.5749179046834367
 20
42.365662713450718
 10
-7.2826796088848029
 20
42.488137724530432
 10
-6.9863391894011011
 20
42.609513574881468
 10
-6.6865521004780826
 20
42.729503088422362
 10
-6.383973796361575
 20
42.847819089071592
 10
-6.079259731297407
 20
42.964174400747638
 10
-5.7730653595313299
 20
43.078281847369041
 10
-5.466046135309135
 20
43.189854252854268
 10
-5.1588575128766081
 20
43.298604441121853
 10
-4.8521549464795406
 20
43.404245236090283
 10
-4.5465938903637229
 20
43.506489461678051
 10
-4.2428297987749444
 20
43.605049941803657
 10
-3.941518125958992
 20
43.699639500385643
 10
-3.6433143261616578
 20
43.789970961342462
 10
-3.348873853628731
 20
43.875757148592633
 10
-3.0588521626059628
 20
43.956710886054672
 10
-2.77367369757593
 20
44.032579516375343
 10
-2.4928388639681942
 20
44.103248457114468
 10
-2.2156170574489922
 20
44.168637644560206
 10
-1.941277673684596
 20
44.228667015000703
 10
-1.669090108341281
 20
44.283256504724022
 10
-1.39832375708532
 20
44.332326050018331
 10
-1.1282480155829859
 20
44.375795587171737
 10
-0.8581322795005186
 20
44.413585052472392
 10
-0.5872459445042254
 20
44.44561438220839
 10
-0.3148584062604156
 20
44.471803512667861
 10
-0.0402390604353276
 20
44.492072380138943
 10
0.2373426973047651
 20
44.506340920909743
 10
0.5186174712935894
 20
44.514529071268392
 10
0.8043158658648706
 20
44.516556767503019
 10
1.095168485352336
 20
44.512343945901748
 10
1.3919059340897499
 20
44.5018105427527
 10
1.695127084323319
 20
44.484834657764253
 10
2.00490387994931
 20
44.461127044325693
 10
2.3211765327765819
 20
44.430356619246552
 10
2.6438852546139602
 20
44.392192299336408
 10
2.972970257270267
 20
44.34630300140477
 10
3.308371752554323
 20
44.292357642261223
 10
3.650029952274954
 20
44.230025138715263
 10
3.9978850682409819
 20
44.158974407576451
 10
4.3518773122612293
 20
44.078874365654343
 10
4.7119468961445188
 20
43.989393929758478
 10
5.0780340316996728
 20
43.890202016698382
 10
5.2633154975444567
 20
43.836860792734733
 10
5.4500789307355637
 20
43.780967543283587
 10
5.6383168577490501
 20
43.722480882946172
 10
5.8280218050609678
 20
43.661359426323678
 10
6.0191862991474689
 20
43.597561788017273
 10
6.2118028664846561
 20
43.531046582628171
 10
6.4058640335486334
 20
43.461772424757562
 10
6.6013623268154999
 20
43.389697929006623
 10
6.7982902727613643
 20
43.314781709976558
 10
6.9966403978623264
 20
43.236982382268572
 10
7.1963618588090963
 20
43.156269184123502
 10
7.3972390932323364
 20
43.072650291590961
 10
7.5990131896318296
 20
42.986144461662853
 10
7.8014252365073684
 20
42.896770451331008
 10
8.0042163223588414
 20
42.804547017587289
 10
8.2071275356861424
 20
42.709492917423503
 10
8.409899964989064
 20
42.611626907831528
 10
8.6122746987673899
 20
42.510967745803242
 10
8.8139928255210158
 20
42.407534188330452
 10
9.0147954337498319
 20
42.301344992404999
 10
9.2144236119536291
 20
42.192418915018749
 10
9.4126184486321947
 20
42.080774713163578
 10
9.6091210322854224
 20
41.966431143831329
 10
9.8036724514132008
 20
41.849406964013788
 10
9.9960137945153242
 20
41.729720930702847
 10
10.18588615009158
 20
41.60739180089039
 10
10.37303060664186
 20
41.482438331568233
 10
10.55718825266605
 20
41.354879279728188
 10
10.73810017666395
 20
41.224733402362141
 10
10.915507467135351
 20
41.092019456461969
 10
11.089151212580131
 20
40.956756199019502
 10
11.25877250149818
 20
40.818962387026531
 10
11.4241124223893
 20
40.678656777474963
 10
11.58491206375329
 20
40.535858127356647
 10
11.740912514090031
 20
40.390585193663448
 10
11.89185486189939
 20
40.242856733387143
 10
12.037480195681191
 20
40.092691503519617
 10
12.177529603935209
 20
39.940108261052778
 10
12.31174417516136
 20
39.785125762978417
 10
12.43986499785945
 20
39.627762766288392
 10
12.56163316052934
 20
39.468038027974551
  0
ENDSEC
  0
SECTION
  2
OBJECTS
  0
DICTIONARY
  5
C
100
AcDbDictionary
280
0
281
1
  3
ACAD_GROUP
350
D
  3
ACAD_LAYOUT
350
1A
  3
ACAD_MLINESTYLE
350
17
  3
ACAD_PLOTSETTINGS
350
19
  3
ACAD_PLOTSTYLENAME
350
E
  3
AcDbVariableDictionary
350
44
  0
DICTIONARY
  5
D
100
AcDbDictionary
280
0
281
1
  0
ACDBDICTIONARYWDFLT
  5
E
100
AcDbDictionary
281
1
  3
Normal
350
F
100
AcDbDictionaryWithDefault
340
F
  0
ACDBPLACEHOLDER
  5
F
  0
DICTIONARY
  5
17
100
AcDbDictionary
280
0
281
1
  3
Standard
350
18
  0
MLINESTYLE
  5
18
100
AcDbMlineStyle
  2
STANDARD
 70
0
  3

 62
256
 51
90.0
 52
90.0
 71
2
 49
0.5
 62
256
  6
BYLAYER
 49
-0.5
 62
256
  6
BYLAYER
  0
DICTIONARY
  5
19
100
AcDbDictionary
280
0
281
1
  0
DICTIONARY
  5
1A
100
AcDbDictionary
281
1
  3
Layout1
350
1E
  3
Layout2
350
26
  3
Model
350
22
  0
LAYOUT
  5
1E
100
AcDbPlotSettings
  1

  2
C:\Program Files\AutoCAD 2002\plotters\DWF ePlot (optimized for plotting).pc3
  4

  6

 40
0.0
 41
0.0
 42
0.0
 43
0.0
 44
0.0
 45
0.0
 46
0.0
 47
0.0
 48
0.0
 49
0.0
140
0.0
141
0.0
142
1.0
143
1.0
 70
688
 72
0
 73
0
 74
5
  7

 75
16
147
1.0
148
0.0
149
0.0
100
AcDbLayout
  1
Layout1
 70
1
 71
1
 10
0.0
 20
0.0
 11
420.0
 21
297.0
 12
0.0
 22
0.0
 32
0.0
 14
100000000000000000000.0
 24
100000000000000000000.0
 34
100000000000000000000.0
 15
-100000000000000000000.0
 25
-100000000000000000000.0
 35
-100000000000000000000.0
146
0.0
 13
0.0
 23
0.0
 33
0.0
 16
1.0
 26
0.0
 36
0.0
 17
0.0
 27
1.0
 37
0.0
 76
0
330
1B
  0
LAYOUT
  5
22
100
AcDbPlotSettings
  1

  2
C:\Program Files\AutoCAD 2002\plotters\DWF ePlot (optimized for plotting).pc3
  4

  6

 40
0.0
 41
0.0
 42
0.0
 43
0.0
 44
0.0
 45
0.0
 46
0.0
 47
0.0
 48
0.0
 49
0.0
140
0.0
141
0.0
142
1.0
143
1.0
 70
1712
 72
0
 73
0
 74
0
  7

 75
0
147
1.0
148
0.0
149
0.0
100
AcDbLayout
  1
Model
 70
1
 71
0
 10
0.0
 20
0.0
 11
12.0
 21
9.0
 12
0.0
 22
0.0
 32
0.0
 14
0.0
 24
0.0
 34
0.0
 15
0.0
 25
0.0
 35
0.0
146
0.0
 13
0.0
 23
0.0
 33
0.0
 16
1.0
 26
0.0
 36
0.0
 17
0.0
 27
1.0
 37
0.0
 76
0
330
1F
  0
LAYOUT
  5
26
100
AcDbPlotSettings
  1

  2
C:\Program Files\AutoCAD 2002\plotters\DWF ePlot (optimized for plotting).pc3
  4

  6

 40
0.0
 41
0.0
 42
0.0
 43
0.0
 44
0.0
 45
0.0
 46
0.0
 47
0.0
 48
0.0
 49
0.0
140
0.0
141
0.0
142
1.0
143
1.0
 70
688
 72
0
 73
0
 74
5
  7

 75
16
147
1.0
148
0.0
149
0.0
100
AcDbLayout
  1
Layout2
 70
1
 71
2
 10
0.0
 20
0.0
 11
12.0
 21
9.0
 12
0.0
 22
0.0
 32
0.0
 14
0.0
 24
0.0
 34
0.0
 15
0.0
 25
0.0
 35
0.0
146
0.0
 13
0.0
 23
0.0
 33
0.0
 16
1.0
 26
0.0
 36
0.0
 17
0.0
 27
1.0
 37
0.0
 76
0
330
23
  0
DICTIONARY
  5
44
100
AcDbDictionary
281
1
  3
DIMASSOC
350
46
  3
HIDETEXT
350
45
  0
DICTIONARYVAR
  5
45
100
DictionaryVariables
280
0
  1
2
  0
DICTIONARYVAR
  5
46
100
DictionaryVariables
280
0
  1
1
  0
ENDSEC
  0
EOF
