solid OpenSCAD_Model
  facet normal -1 0 -1.77321e-016
    outer loop
      vertex -6.40842e-016 1.17426 3.61401
      vertex -5.45133e-016 2.23358 3.07427
      vertex -6.73821e-016 0 3.8
    endloop
  endfacet
  facet normal -1 0 -1.77321e-016
    outer loop
      vertex -6.73821e-016 0 3.8
      vertex -5.45133e-016 2.23358 3.07427
      vertex -3.96062e-016 3.07427 2.23358
    endloop
  endfacet
  facet normal -1 0 -1.77321e-016
    outer loop
      vertex -6.73821e-016 0 3.8
      vertex -3.96062e-016 3.07427 2.23358
      vertex -2.08222e-016 3.61401 1.17426
    endloop
  endfacet
  facet normal -1 0 -1.77321e-016
    outer loop
      vertex -6.73821e-016 0 3.8
      vertex -2.08222e-016 3.61401 1.17426
      vertex 0 3.8 0
    endloop
  endfacet
  facet normal -1 0 -1.77321e-016
    outer loop
      vertex -6.73821e-016 0 3.8
      vertex 0 3.8 0
      vertex 2.08222e-016 3.61401 -1.17426
    endloop
  endfacet
  facet normal -1 0 -1.77321e-016
    outer loop
      vertex -6.73821e-016 0 3.8
      vertex 2.08222e-016 3.61401 -1.17426
      vertex 3.96062e-016 3.07427 -2.23358
    endloop
  endfacet
  facet normal -1 0 -1.77321e-016
    outer loop
      vertex -6.73821e-016 0 3.8
      vertex 3.96062e-016 3.07427 -2.23358
      vertex 5.45133e-016 2.23358 -3.07427
    endloop
  endfacet
  facet normal -1 0 -1.77321e-016
    outer loop
      vertex -6.73821e-016 0 3.8
      vertex 5.45133e-016 2.23358 -3.07427
      vertex 6.40842e-016 1.17426 -3.61401
    endloop
  endfacet
  facet normal -1 0 -1.77321e-016
    outer loop
      vertex -6.73821e-016 0 3.8
      vertex 6.40842e-016 1.17426 -3.61401
      vertex 6.73821e-016 0 -3.8
    endloop
  endfacet
  facet normal -1 0 -1.77321e-016
    outer loop
      vertex -6.73821e-016 0 3.8
      vertex 6.73821e-016 0 -3.8
      vertex 6.40842e-016 -1.17426 -3.61401
    endloop
  endfacet
  facet normal -1 0 -1.77321e-016
    outer loop
      vertex -6.73821e-016 0 3.8
      vertex 6.40842e-016 -1.17426 -3.61401
      vertex 5.45133e-016 -2.23358 -3.07427
    endloop
  endfacet
  facet normal -1 0 -1.77321e-016
    outer loop
      vertex -6.73821e-016 0 3.8
      vertex 5.45133e-016 -2.23358 -3.07427
      vertex 3.96062e-016 -3.07427 -2.23358
    endloop
  endfacet
  facet normal -1 0 -1.77321e-016
    outer loop
      vertex -6.73821e-016 0 3.8
      vertex 3.96062e-016 -3.07427 -2.23358
      vertex 2.08222e-016 -3.61401 -1.17426
    endloop
  endfacet
  facet normal -1 0 -1.77321e-016
    outer loop
      vertex -6.73821e-016 0 3.8
      vertex 2.08222e-016 -3.61401 -1.17426
      vertex 0 -3.8 0
    endloop
  endfacet
  facet normal -1 0 -1.77321e-016
    outer loop
      vertex -6.73821e-016 0 3.8
      vertex 0 -3.8 0
      vertex -2.08222e-016 -3.61401 1.17426
    endloop
  endfacet
  facet normal -1 0 -1.77321e-016
    outer loop
      vertex -6.73821e-016 0 3.8
      vertex -2.08222e-016 -3.61401 1.17426
      vertex -3.96062e-016 -3.07427 2.23358
    endloop
  endfacet
  facet normal -1 0 -1.77321e-016
    outer loop
      vertex -6.73821e-016 0 3.8
      vertex -3.96062e-016 -3.07427 2.23358
      vertex -5.45133e-016 -2.23358 3.07427
    endloop
  endfacet
  facet normal -1 0 -1.77321e-016
    outer loop
      vertex -6.73821e-016 0 3.8
      vertex -5.45133e-016 -2.23358 3.07427
      vertex -6.40842e-016 -1.17426 3.61401
    endloop
  endfacet
  facet normal 2.19311e-016 0.156434 -0.987688
    outer loop
      vertex 25 1.17426 -3.61401
      vertex 25 0 -3.8
      vertex 6.40842e-016 1.17426 -3.61401
    endloop
  endfacet
  facet normal 2.19311e-016 0.156434 -0.987688
    outer loop
      vertex 6.40842e-016 1.17426 -3.61401
      vertex 25 0 -3.8
      vertex 6.73821e-016 0 -3.8
    endloop
  endfacet
  facet normal 1.97843e-016 0.453991 -0.891007
    outer loop
      vertex 25 2.23358 -3.07426
      vertex 25 1.17426 -3.61401
      vertex 5.45133e-016 2.23358 -3.07427
    endloop
  endfacet
  facet normal 1.97843e-016 0.453991 -0.891007
    outer loop
      vertex 5.45133e-016 2.23358 -3.07427
      vertex 25 1.17426 -3.61401
      vertex 6.40842e-016 1.17426 -3.61401
    endloop
  endfacet
  facet normal -2.19311e-016 0.156434 0.987688
    outer loop
      vertex -6.73821e-016 0 3.8
      vertex 25 0 3.8
      vertex 25 1.17426 3.61402
    endloop
  endfacet
  facet normal -2.19311e-016 0.156434 0.987688
    outer loop
      vertex -6.40842e-016 1.17426 3.61401
      vertex -6.73821e-016 0 3.8
      vertex 25 1.17426 3.61402
    endloop
  endfacet
  facet normal -2.19311e-016 -0.156434 0.987688
    outer loop
      vertex -6.73821e-016 0 3.8
      vertex -6.40842e-016 -1.17426 3.61401
      vertex 25 -1.17426 3.61402
    endloop
  endfacet
  facet normal -2.19311e-016 -0.156434 0.987688
    outer loop
      vertex 25 0 3.8
      vertex -6.73821e-016 0 3.8
      vertex 25 -1.17426 3.61402
    endloop
  endfacet
  facet normal -1.97843e-016 -0.453991 0.891007
    outer loop
      vertex -6.40842e-016 -1.17426 3.61401
      vertex -5.45133e-016 -2.23358 3.07427
      vertex 25 -2.23358 3.07427
    endloop
  endfacet
  facet normal -1.97843e-016 -0.453991 0.891007
    outer loop
      vertex 25 -1.17426 3.61402
      vertex -6.40842e-016 -1.17426 3.61401
      vertex 25 -2.23358 3.07427
    endloop
  endfacet
  facet normal -1.57009e-016 -0.707107 0.707107
    outer loop
      vertex -5.45133e-016 -2.23358 3.07427
      vertex -3.96062e-016 -3.07427 2.23358
      vertex 25 -3.07427 2.23358
    endloop
  endfacet
  facet normal -1.57009e-016 -0.707107 0.707107
    outer loop
      vertex 25 -2.23358 3.07427
      vertex -5.45133e-016 -2.23358 3.07427
      vertex 25 -3.07427 2.23358
    endloop
  endfacet
  facet normal -1.00806e-016 -0.891007 0.453991
    outer loop
      vertex -3.96062e-016 -3.07427 2.23358
      vertex -2.08222e-016 -3.61401 1.17426
      vertex 25 -3.61401 1.17427
    endloop
  endfacet
  facet normal -1.00806e-016 -0.891007 0.453991
    outer loop
      vertex 25 -3.07427 2.23358
      vertex -3.96062e-016 -3.07427 2.23358
      vertex 25 -3.61401 1.17427
    endloop
  endfacet
  facet normal -3.47354e-017 -0.987688 0.156434
    outer loop
      vertex -2.08222e-016 -3.61401 1.17426
      vertex 0 -3.8 0
      vertex 25 -3.8 5.55112e-015
    endloop
  endfacet
  facet normal -3.47354e-017 -0.987688 0.156434
    outer loop
      vertex 25 -3.61401 1.17427
      vertex -2.08222e-016 -3.61401 1.17426
      vertex 25 -3.8 5.55112e-015
    endloop
  endfacet
  facet normal 3.47354e-017 -0.987688 -0.156434
    outer loop
      vertex 0 -3.8 0
      vertex 2.08222e-016 -3.61401 -1.17426
      vertex 25 -3.61401 -1.17426
    endloop
  endfacet
  facet normal 3.47354e-017 -0.987688 -0.156434
    outer loop
      vertex 25 -3.8 5.55112e-015
      vertex 0 -3.8 0
      vertex 25 -3.61401 -1.17426
    endloop
  endfacet
  facet normal 1.00806e-016 -0.891007 -0.453991
    outer loop
      vertex 2.08222e-016 -3.61401 -1.17426
      vertex 3.96062e-016 -3.07427 -2.23358
      vertex 25 -3.07427 -2.23358
    endloop
  endfacet
  facet normal 1.00806e-016 -0.891007 -0.453991
    outer loop
      vertex 25 -3.61401 -1.17426
      vertex 2.08222e-016 -3.61401 -1.17426
      vertex 25 -3.07427 -2.23358
    endloop
  endfacet
  facet normal 1.57009e-016 -0.707107 -0.707107
    outer loop
      vertex 3.96062e-016 -3.07427 -2.23358
      vertex 5.45133e-016 -2.23358 -3.07427
      vertex 25 -2.23358 -3.07426
    endloop
  endfacet
  facet normal 1.57009e-016 -0.707107 -0.707107
    outer loop
      vertex 25 -3.07427 -2.23358
      vertex 3.96062e-016 -3.07427 -2.23358
      vertex 25 -2.23358 -3.07426
    endloop
  endfacet
  facet normal 1.97843e-016 -0.453991 -0.891007
    outer loop
      vertex 6.40842e-016 -1.17426 -3.61401
      vertex 25 -1.17426 -3.61401
      vertex 5.45133e-016 -2.23358 -3.07427
    endloop
  endfacet
  facet normal 1.97843e-016 -0.453991 -0.891007
    outer loop
      vertex 5.45133e-016 -2.23358 -3.07427
      vertex 25 -1.17426 -3.61401
      vertex 25 -2.23358 -3.07426
    endloop
  endfacet
  facet normal 2.19311e-016 -0.156434 -0.987688
    outer loop
      vertex 6.73821e-016 0 -3.8
      vertex 25 0 -3.8
      vertex 6.40842e-016 -1.17426 -3.61401
    endloop
  endfacet
  facet normal 2.19311e-016 -0.156434 -0.987688
    outer loop
      vertex 6.40842e-016 -1.17426 -3.61401
      vertex 25 0 -3.8
      vertex 25 -1.17426 -3.61401
    endloop
  endfacet
  facet normal 1.57009e-016 0.707107 -0.707107
    outer loop
      vertex 25 3.07427 -2.23358
      vertex 25 2.23358 -3.07426
      vertex 3.96062e-016 3.07427 -2.23358
    endloop
  endfacet
  facet normal 1.57009e-016 0.707107 -0.707107
    outer loop
      vertex 3.96062e-016 3.07427 -2.23358
      vertex 25 2.23358 -3.07426
      vertex 5.45133e-016 2.23358 -3.07427
    endloop
  endfacet
  facet normal 1.00806e-016 0.891007 -0.453991
    outer loop
      vertex 25 3.61401 -1.17426
      vertex 25 3.07427 -2.23358
      vertex 2.08222e-016 3.61401 -1.17426
    endloop
  endfacet
  facet normal 1.00806e-016 0.891007 -0.453991
    outer loop
      vertex 2.08222e-016 3.61401 -1.17426
      vertex 25 3.07427 -2.23358
      vertex 3.96062e-016 3.07427 -2.23358
    endloop
  endfacet
  facet normal 3.47354e-017 0.987688 -0.156434
    outer loop
      vertex 25 3.8 5.55112e-015
      vertex 25 3.61401 -1.17426
      vertex 0 3.8 0
    endloop
  endfacet
  facet normal 3.47354e-017 0.987688 -0.156434
    outer loop
      vertex 0 3.8 0
      vertex 25 3.61401 -1.17426
      vertex 2.08222e-016 3.61401 -1.17426
    endloop
  endfacet
  facet normal -3.47354e-017 0.987688 0.156434
    outer loop
      vertex 25 3.61401 1.17427
      vertex 25 3.8 5.55112e-015
      vertex -2.08222e-016 3.61401 1.17426
    endloop
  endfacet
  facet normal -3.47354e-017 0.987688 0.156434
    outer loop
      vertex -2.08222e-016 3.61401 1.17426
      vertex 25 3.8 5.55112e-015
      vertex 0 3.8 0
    endloop
  endfacet
  facet normal -1.00806e-016 0.891007 0.453991
    outer loop
      vertex 25 3.07427 2.23358
      vertex 25 3.61401 1.17427
      vertex -3.96062e-016 3.07427 2.23358
    endloop
  endfacet
  facet normal -1.00806e-016 0.891007 0.453991
    outer loop
      vertex -3.96062e-016 3.07427 2.23358
      vertex 25 3.61401 1.17427
      vertex -2.08222e-016 3.61401 1.17426
    endloop
  endfacet
  facet normal -1.57009e-016 0.707107 0.707107
    outer loop
      vertex 25 2.23358 3.07427
      vertex 25 3.07427 2.23358
      vertex -5.45133e-016 2.23358 3.07427
    endloop
  endfacet
  facet normal -1.57009e-016 0.707107 0.707107
    outer loop
      vertex -5.45133e-016 2.23358 3.07427
      vertex 25 3.07427 2.23358
      vertex -3.96062e-016 3.07427 2.23358
    endloop
  endfacet
  facet normal -1.97843e-016 0.453991 0.891007
    outer loop
      vertex -6.40842e-016 1.17426 3.61401
      vertex 25 1.17426 3.61402
      vertex 25 2.23358 3.07427
    endloop
  endfacet
  facet normal -1.97843e-016 0.453991 0.891007
    outer loop
      vertex -5.45133e-016 2.23358 3.07427
      vertex -6.40842e-016 1.17426 3.61401
      vertex 25 2.23358 3.07427
    endloop
  endfacet
  facet normal 1 0 1.77321e-016
    outer loop
      vertex 25 0 3.8
      vertex 25 -1.17426 3.61402
      vertex 25 -2.23358 3.07427
    endloop
  endfacet
  facet normal 1 0 1.77321e-016
    outer loop
      vertex 25 -3.61401 1.17427
      vertex 25 0 3.8
      vertex 25 -3.07427 2.23358
    endloop
  endfacet
  facet normal 1 0 1.77321e-016
    outer loop
      vertex 25 -3.07427 2.23358
      vertex 25 0 3.8
      vertex 25 -2.23358 3.07427
    endloop
  endfacet
  facet normal 1 0 1.77321e-016
    outer loop
      vertex 25 -3.8 5.55112e-015
      vertex 25 0 3.8
      vertex 25 -3.61401 1.17427
    endloop
  endfacet
  facet normal 1 0 1.77321e-016
    outer loop
      vertex 25 -3.61401 -1.17426
      vertex 25 0 3.8
      vertex 25 -3.8 5.55112e-015
    endloop
  endfacet
  facet normal 1 0 1.77321e-016
    outer loop
      vertex 25 -3.07427 -2.23358
      vertex 25 0 3.8
      vertex 25 -3.61401 -1.17426
    endloop
  endfacet
  facet normal 1 0 1.77321e-016
    outer loop
      vertex 25 -2.23358 -3.07426
      vertex 25 0 3.8
      vertex 25 -3.07427 -2.23358
    endloop
  endfacet
  facet normal 1 0 1.77321e-016
    outer loop
      vertex 25 -1.17426 -3.61401
      vertex 25 0 3.8
      vertex 25 -2.23358 -3.07426
    endloop
  endfacet
  facet normal 1 0 1.77321e-016
    outer loop
      vertex 25 0 -3.8
      vertex 25 0 3.8
      vertex 25 -1.17426 -3.61401
    endloop
  endfacet
  facet normal 1 0 1.77321e-016
    outer loop
      vertex 25 1.17426 -3.61401
      vertex 25 0 3.8
      vertex 25 0 -3.8
    endloop
  endfacet
  facet normal 1 0 1.77321e-016
    outer loop
      vertex 25 2.23358 -3.07426
      vertex 25 0 3.8
      vertex 25 1.17426 -3.61401
    endloop
  endfacet
  facet normal 1 0 1.77321e-016
    outer loop
      vertex 25 3.07427 -2.23358
      vertex 25 0 3.8
      vertex 25 2.23358 -3.07426
    endloop
  endfacet
  facet normal 1 0 1.77321e-016
    outer loop
      vertex 25 3.61401 -1.17426
      vertex 25 0 3.8
      vertex 25 3.07427 -2.23358
    endloop
  endfacet
  facet normal 1 0 1.77321e-016
    outer loop
      vertex 25 3.8 5.55112e-015
      vertex 25 0 3.8
      vertex 25 3.61401 -1.17426
    endloop
  endfacet
  facet normal 1 0 1.77321e-016
    outer loop
      vertex 25 3.61401 1.17427
      vertex 25 0 3.8
      vertex 25 3.8 5.55112e-015
    endloop
  endfacet
  facet normal 1 0 1.77321e-016
    outer loop
      vertex 25 3.07427 2.23358
      vertex 25 0 3.8
      vertex 25 3.61401 1.17427
    endloop
  endfacet
  facet normal 1 0 1.77321e-016
    outer loop
      vertex 25 2.23358 3.07427
      vertex 25 0 3.8
      vertex 25 3.07427 2.23358
    endloop
  endfacet
  facet normal 1 0 1.77321e-016
    outer loop
      vertex 25 1.17426 3.61402
      vertex 25 0 3.8
      vertex 25 2.23358 3.07427
    endloop
  endfacet
endsolid OpenSCAD_Model
