solid OpenSCAD_Model
  facet normal -1 0 0
    outer loop
      vertex -36 -670.785 0
      vertex -36 -670.785 80
      vertex -36 -670.785 12
    endloop
  endfacet
  facet normal -1 0 0
    outer loop
      vertex -36 -470.785 68
      vertex -36 -470.785 80
      vertex -36 470.785 80
    endloop
  endfacet
  facet normal -1 0 0
    outer loop
      vertex -36 -470.785 12
      vertex -36 470.785 80
      vertex -36 470.785 68
    endloop
  endfacet
  facet normal -1 0 0
    outer loop
      vertex -36 -670.785 12
      vertex -36 470.785 80
      vertex -36 -470.785 12
    endloop
  endfacet
  facet normal -1 0 0
    outer loop
      vertex -36 670.785 68
      vertex -36 670.785 80
      vertex -36 670.785 0
    endloop
  endfacet
  facet normal -1 0 0
    outer loop
      vertex -36 670.785 68
      vertex -36 670.785 0
      vertex -36 670.785 12
    endloop
  endfacet
  facet normal -1 0 0
    outer loop
      vertex -36 -470.785 12
      vertex -36 470.785 12
      vertex -36 -470.785 0
    endloop
  endfacet
  facet normal -1 0 0
    outer loop
      vertex -36 670.785 68
      vertex -36 670.785 12
      vertex -36 470.785 12
    endloop
  endfacet
  facet normal -1 0 0
    outer loop
      vertex -36 -470.785 12
      vertex -36 470.785 68
      vertex -36 670.785 68
    endloop
  endfacet
  facet normal -1 0 0
    outer loop
      vertex -36 -470.785 12
      vertex -36 670.785 68
      vertex -36 470.785 12
    endloop
  endfacet
  facet normal -1 0 0
    outer loop
      vertex -36 -670.785 12
      vertex -36 -470.785 68
      vertex -36 470.785 80
    endloop
  endfacet
  facet normal -1 0 0
    outer loop
      vertex -36 -670.785 68
      vertex -36 -470.785 68
      vertex -36 -670.785 12
    endloop
  endfacet
  facet normal -1 0 0
    outer loop
      vertex -36 -670.785 68
      vertex -36 -670.785 12
      vertex -36 -670.785 80
    endloop
  endfacet
  facet normal -1 0 0
    outer loop
      vertex -36 470.785 0
      vertex -36 -470.785 0
      vertex -36 470.785 12
    endloop
  endfacet
  facet normal 0 -1 0
    outer loop
      vertex -36 -670.785 80
      vertex -36 -670.785 0
      vertex 36 -670.785 0
    endloop
  endfacet
  facet normal 0 -1 0
    outer loop
      vertex 36 -670.785 80
      vertex -36 -670.785 80
      vertex 36 -670.785 0
    endloop
  endfacet
  facet normal 0 1 0
    outer loop
      vertex 36 -670.785 12
      vertex 36 -670.785 0
      vertex -36 -670.785 12
    endloop
  endfacet
  facet normal 0 1 0
    outer loop
      vertex -36 -670.785 12
      vertex 36 -670.785 0
      vertex -36 -670.785 0
    endloop
  endfacet
  facet normal 0 0 -1
    outer loop
      vertex 36 -470.785 12
      vertex 36 -670.785 12
      vertex -36 -470.785 12
    endloop
  endfacet
  facet normal 0 0 -1
    outer loop
      vertex -36 -470.785 12
      vertex 36 -670.785 12
      vertex -36 -670.785 12
    endloop
  endfacet
  facet normal 0 -1 0
    outer loop
      vertex 36 -470.785 0
      vertex 36 -470.785 12
      vertex -36 -470.785 12
    endloop
  endfacet
  facet normal 0 -1 0
    outer loop
      vertex -36 -470.785 0
      vertex 36 -470.785 0
      vertex -36 -470.785 12
    endloop
  endfacet
  facet normal 0 0 -1
    outer loop
      vertex -36 -470.785 0
      vertex -36 470.785 0
      vertex 36 -470.785 0
    endloop
  endfacet
  facet normal 0 0 -1
    outer loop
      vertex 36 -470.785 0
      vertex -36 470.785 0
      vertex 36 470.785 0
    endloop
  endfacet
  facet normal 0 1 0
    outer loop
      vertex 36 470.785 12
      vertex 36 470.785 0
      vertex -36 470.785 12
    endloop
  endfacet
  facet normal 0 1 0
    outer loop
      vertex -36 470.785 12
      vertex 36 470.785 0
      vertex -36 470.785 0
    endloop
  endfacet
  facet normal 0 0 -1
    outer loop
      vertex 36 670.785 12
      vertex 36 470.785 12
      vertex -36 670.785 12
    endloop
  endfacet
  facet normal 0 0 -1
    outer loop
      vertex -36 670.785 12
      vertex 36 470.785 12
      vertex -36 470.785 12
    endloop
  endfacet
  facet normal 0 -1 0
    outer loop
      vertex 36 670.785 0
      vertex 36 670.785 12
      vertex -36 670.785 12
    endloop
  endfacet
  facet normal 0 -1 0
    outer loop
      vertex -36 670.785 0
      vertex 36 670.785 0
      vertex -36 670.785 12
    endloop
  endfacet
  facet normal 0 1 0
    outer loop
      vertex -36 670.785 0
      vertex -36 670.785 80
      vertex 36 670.785 0
    endloop
  endfacet
  facet normal 0 1 0
    outer loop
      vertex 36 670.785 0
      vertex -36 670.785 80
      vertex 36 670.785 80
    endloop
  endfacet
  facet normal 0 -1 0
    outer loop
      vertex 36 670.785 68
      vertex 36 670.785 80
      vertex -36 670.785 80
    endloop
  endfacet
  facet normal 0 -1 0
    outer loop
      vertex -36 670.785 68
      vertex 36 670.785 68
      vertex -36 670.785 80
    endloop
  endfacet
  facet normal 0 0 1
    outer loop
      vertex 36 470.785 68
      vertex 36 670.785 68
      vertex -36 670.785 68
    endloop
  endfacet
  facet normal 0 0 1
    outer loop
      vertex -36 470.785 68
      vertex 36 470.785 68
      vertex -36 670.785 68
    endloop
  endfacet
  facet normal 0 1 0
    outer loop
      vertex 36 470.785 80
      vertex 36 470.785 68
      vertex -36 470.785 80
    endloop
  endfacet
  facet normal 0 1 0
    outer loop
      vertex -36 470.785 80
      vertex 36 470.785 68
      vertex -36 470.785 68
    endloop
  endfacet
  facet normal 0 0 1
    outer loop
      vertex -36 470.785 80
      vertex -36 -470.785 80
      vertex 36 -470.785 80
    endloop
  endfacet
  facet normal 0 0 1
    outer loop
      vertex 36 470.785 80
      vertex -36 470.785 80
      vertex 36 -470.785 80
    endloop
  endfacet
  facet normal 0 -1 0
    outer loop
      vertex 36 -470.785 68
      vertex 36 -470.785 80
      vertex -36 -470.785 80
    endloop
  endfacet
  facet normal 0 -1 0
    outer loop
      vertex -36 -470.785 68
      vertex 36 -470.785 68
      vertex -36 -470.785 80
    endloop
  endfacet
  facet normal 0 0 1
    outer loop
      vertex 36 -670.785 68
      vertex 36 -470.785 68
      vertex -36 -470.785 68
    endloop
  endfacet
  facet normal 0 0 1
    outer loop
      vertex -36 -670.785 68
      vertex 36 -670.785 68
      vertex -36 -470.785 68
    endloop
  endfacet
  facet normal 0 1 0
    outer loop
      vertex 36 -670.785 80
      vertex 36 -670.785 68
      vertex -36 -670.785 80
    endloop
  endfacet
  facet normal 0 1 0
    outer loop
      vertex -36 -670.785 80
      vertex 36 -670.785 68
      vertex -36 -670.785 68
    endloop
  endfacet
  facet normal 1 0 0
    outer loop
      vertex 36 -670.785 68
      vertex 36 -670.785 80
      vertex 36 -670.785 12
    endloop
  endfacet
  facet normal 1 0 0
    outer loop
      vertex 36 -670.785 12
      vertex 36 -670.785 80
      vertex 36 -670.785 0
    endloop
  endfacet
  facet normal 1 0 0
    outer loop
      vertex 36 470.785 0
      vertex 36 -470.785 12
      vertex 36 -470.785 0
    endloop
  endfacet
  facet normal 1 0 0
    outer loop
      vertex 36 -470.785 68
      vertex 36 -470.785 12
      vertex 36 470.785 0
    endloop
  endfacet
  facet normal 1 0 0
    outer loop
      vertex 36 -470.785 68
      vertex 36 -670.785 68
      vertex 36 -470.785 12
    endloop
  endfacet
  facet normal 1 0 0
    outer loop
      vertex 36 670.785 80
      vertex 36 670.785 12
      vertex 36 670.785 0
    endloop
  endfacet
  facet normal 1 0 0
    outer loop
      vertex 36 670.785 80
      vertex 36 670.785 68
      vertex 36 670.785 12
    endloop
  endfacet
  facet normal 1 0 0
    outer loop
      vertex 36 670.785 68
      vertex 36 470.785 68
      vertex 36 670.785 12
    endloop
  endfacet
  facet normal 1 0 0
    outer loop
      vertex 36 -470.785 80
      vertex 36 470.785 12
      vertex 36 670.785 12
    endloop
  endfacet
  facet normal 1 0 0
    outer loop
      vertex 36 470.785 12
      vertex 36 -470.785 68
      vertex 36 470.785 0
    endloop
  endfacet
  facet normal 1 0 0
    outer loop
      vertex 36 -470.785 12
      vertex 36 -670.785 68
      vertex 36 -670.785 12
    endloop
  endfacet
  facet normal 1 0 0
    outer loop
      vertex 36 -470.785 80
      vertex 36 670.785 12
      vertex 36 470.785 68
    endloop
  endfacet
  facet normal 1 0 0
    outer loop
      vertex 36 470.785 68
      vertex 36 470.785 80
      vertex 36 -470.785 80
    endloop
  endfacet
  facet normal 1 0 0
    outer loop
      vertex 36 -470.785 80
      vertex 36 -470.785 68
      vertex 36 470.785 12
    endloop
  endfacet
endsolid OpenSCAD_Model
