solid OpenSCAD_Model
  facet normal -1 -3.85576e-17 -2.18671e-16
    outer loop
      vertex -1.86318e-14 328.677 162.635
      vertex 0 314.106 80
      vertex 0 312.909 80.211
    endloop
  endfacet
  facet normal -1 -3.85576e-17 -2.18671e-16
    outer loop
      vertex 0 312.909 80.211
      vertex 4.75851e-17 312.872 80
      vertex 3.21961e-15 230.605 80
    endloop
  endfacet
  facet normal -1 -3.85576e-17 -2.18671e-16
    outer loop
      vertex -1.86203e-14 328.186 162.669
      vertex -1.86318e-14 328.677 162.635
      vertex -1.55415e-14 325.302 149.098
    endloop
  endfacet
  facet normal -1 -3.85576e-17 -2.18671e-16
    outer loop
      vertex 0 312.909 80.211
      vertex 3.21961e-15 230.605 80
      vertex 1.95586e-15 250.987 82.1852
    endloop
  endfacet
  facet normal -1 -3.85576e-17 -2.18671e-16
    outer loop
      vertex 0 312.909 80.211
      vertex 1.95586e-15 250.987 82.1852
      vertex -2.23423e-16 270.87 88.6455
    endloop
  endfacet
  facet normal -1 -3.85576e-17 -2.18671e-16
    outer loop
      vertex 0 312.909 80.211
      vertex -2.23423e-16 270.87 88.6455
      vertex -3.20724e-15 288.975 99.0983
    endloop
  endfacet
  facet normal -1 -3.85576e-17 -2.18671e-16
    outer loop
      vertex 0 312.909 80.211
      vertex -3.20724e-15 288.975 99.0983
      vertex -6.86518e-15 304.511 113.087
    endloop
  endfacet
  facet normal -1 -3.85576e-17 -2.18671e-16
    outer loop
      vertex 0 312.909 80.211
      vertex -6.86518e-15 304.511 113.087
      vertex -1.10374e-14 316.799 130
    endloop
  endfacet
  facet normal -1 -3.85576e-17 -2.18671e-16
    outer loop
      vertex 0 312.909 80.211
      vertex -1.10374e-14 316.799 130
      vertex -1.55415e-14 325.302 149.098
    endloop
  endfacet
  facet normal -1 -3.85576e-17 -2.18671e-16
    outer loop
      vertex 0 312.909 80.211
      vertex -1.55415e-14 325.302 149.098
      vertex -1.86318e-14 328.677 162.635
    endloop
  endfacet
  facet normal -1 -3.85576e-17 -2.18671e-16
    outer loop
      vertex 1.95586e-15 250.987 82.1852
      vertex 3.21961e-15 230.605 80
      vertex 3.2103e-15 230.604 80.0428
    endloop
  endfacet
  facet normal -2.20828e-16 0.0697565 0.997564
    outer loop
      vertex -1.86203e-14 328.186 162.669
      vertex 0 328.186 162.669
      vertex 0 328.677 162.635
    endloop
  endfacet
  facet normal -2.20828e-16 0.0697565 0.997564
    outer loop
      vertex -1.86318e-14 328.677 162.635
      vertex -1.86203e-14 328.186 162.669
      vertex 0 328.677 162.635
    endloop
  endfacet
  facet normal -4.61657e-17 -0.978148 0.207912
    outer loop
      vertex -1.55415e-14 325.302 149.098
      vertex 0 325.302 149.098
      vertex 0 328.186 162.669
    endloop
  endfacet
  facet normal -4.61657e-17 -0.978148 0.207912
    outer loop
      vertex -1.86203e-14 328.186 162.669
      vertex -1.55415e-14 325.302 149.098
      vertex 0 328.186 162.669
    endloop
  endfacet
  facet normal -9.03137e-17 -0.913545 0.406737
    outer loop
      vertex -1.10374e-14 316.799 130
      vertex 72 316.799 130
      vertex 72 324.895 148.184
    endloop
  endfacet
  facet normal -9.03137e-17 -0.913545 0.406737
    outer loop
      vertex 0 325.302 149.098
      vertex -1.10374e-14 316.799 130
      vertex 0 324.895 148.184
    endloop
  endfacet
  facet normal -9.03137e-17 -0.913545 0.406737
    outer loop
      vertex 0 324.895 148.184
      vertex -1.10374e-14 316.799 130
      vertex 72 324.895 148.184
    endloop
  endfacet
  facet normal -9.03137e-17 -0.913545 0.406737
    outer loop
      vertex -1.55415e-14 325.302 149.098
      vertex -1.10374e-14 316.799 130
      vertex 0 325.302 149.098
    endloop
  endfacet
  facet normal -1.30515e-16 -0.809017 0.587785
    outer loop
      vertex -6.86518e-15 304.511 113.087
      vertex 72 304.511 113.087
      vertex 72 316.799 130
    endloop
  endfacet
  facet normal -1.30515e-16 -0.809017 0.587785
    outer loop
      vertex -1.10374e-14 316.799 130
      vertex -6.86518e-15 304.511 113.087
      vertex 72 316.799 130
    endloop
  endfacet
  facet normal -1.65011e-16 -0.669131 0.743145
    outer loop
      vertex -3.20724e-15 288.975 99.0983
      vertex 72 288.975 99.0983
      vertex 72 304.511 113.087
    endloop
  endfacet
  facet normal -1.65011e-16 -0.669131 0.743145
    outer loop
      vertex -6.86518e-15 304.511 113.087
      vertex -3.20724e-15 288.975 99.0983
      vertex 72 304.511 113.087
    endloop
  endfacet
  facet normal -1.92296e-16 -0.5 0.866025
    outer loop
      vertex -2.23423e-16 270.87 88.6455
      vertex 72 270.87 88.6455
      vertex 72 288.975 99.0983
    endloop
  endfacet
  facet normal -1.92296e-16 -0.5 0.866025
    outer loop
      vertex -3.20724e-15 288.975 99.0983
      vertex -2.23423e-16 270.87 88.6455
      vertex 72 288.975 99.0983
    endloop
  endfacet
  facet normal -2.11177e-16 -0.309017 0.951057
    outer loop
      vertex 1.95586e-15 250.987 82.1852
      vertex 72 250.987 82.1852
      vertex 72 270.87 88.6455
    endloop
  endfacet
  facet normal -2.11177e-16 -0.309017 0.951057
    outer loop
      vertex -2.23423e-16 270.87 88.6455
      vertex 1.95586e-15 250.987 82.1852
      vertex 72 270.87 88.6455
    endloop
  endfacet
  facet normal -2.20828e-16 -0.104528 0.994522
    outer loop
      vertex 3.2103e-15 230.604 80.0428
      vertex 72 230.604 80.0428
      vertex 72 250.987 82.1852
    endloop
  endfacet
  facet normal -2.20828e-16 -0.104528 0.994522
    outer loop
      vertex 1.95586e-15 250.987 82.1852
      vertex 3.2103e-15 230.604 80.0428
      vertex 72 250.987 82.1852
    endloop
  endfacet
  facet normal 4.61657e-17 -0.999391 -0.0348995
    outer loop
      vertex 3.21961e-15 230.605 80
      vertex 31.3129 230.605 80
      vertex 72 230.605 80
    endloop
  endfacet
  facet normal 4.61657e-17 -0.999391 -0.0348995
    outer loop
      vertex 3.2103e-15 230.604 80.0428
      vertex 3.21961e-15 230.605 80
      vertex 72 230.604 80.0428
    endloop
  endfacet
  facet normal 4.61657e-17 -0.999391 -0.0348995
    outer loop
      vertex 72 230.604 80.0428
      vertex 3.21961e-15 230.605 80
      vertex 72 230.605 80
    endloop
  endfacet
  facet normal 0 0 1
    outer loop
      vertex 31.3129 230.605 80
      vertex 0 200 80
      vertex 72 200 80
    endloop
  endfacet
  facet normal 0 0 1
    outer loop
      vertex 3.21961e-15 230.605 80
      vertex 4.75851e-17 312.872 80
      vertex 0 312.872 80
    endloop
  endfacet
  facet normal 0 0 1
    outer loop
      vertex 72 312.872 80
      vertex 0.462798 312.872 80
      vertex 72 200 80
    endloop
  endfacet
  facet normal 0 0 1
    outer loop
      vertex 3.21961e-15 230.605 80
      vertex 0 200 80
      vertex 31.3129 230.605 80
    endloop
  endfacet
  facet normal 0 0 1
    outer loop
      vertex 0 312.872 80
      vertex 0 200 80
      vertex 3.21961e-15 230.605 80
    endloop
  endfacet
  facet normal 0 0 1
    outer loop
      vertex 0.462798 312.872 80
      vertex 31.3129 230.605 80
      vertex 72 200 80
    endloop
  endfacet
  facet normal 0 -0.984808 0.173648
    outer loop
      vertex 4.75851e-17 312.872 80
      vertex 0 312.909 80.211
      vertex 0 312.872 80
    endloop
  endfacet
  facet normal -1 0 0
    outer loop
      vertex 0 41.5692 12
      vertex 0 41.5692 68
      vertex 0 200 12
    endloop
  endfacet
  facet normal -1 0 0
    outer loop
      vertex 0 405.915 607.671
      vertex 0 325.302 149.098
      vertex 0 324.895 148.184
    endloop
  endfacet
  facet normal -1 0 0
    outer loop
      vertex 0 200 12
      vertex 0 41.5692 68
      vertex 0 200 68
    endloop
  endfacet
  facet normal -1 0 0
    outer loop
      vertex 0 405.915 607.671
      vertex 0 328.186 162.669
      vertex 0 325.302 149.098
    endloop
  endfacet
  facet normal -1 0 0
    outer loop
      vertex 0 200 68
      vertex 0 200 80
      vertex 0 312.872 80
    endloop
  endfacet
  facet normal -1 0 0
    outer loop
      vertex 0 200 68
      vertex 0 312.872 80
      vertex 0 200 12
    endloop
  endfacet
  facet normal -1 0 0
    outer loop
      vertex 0 312.872 80
      vertex 0 312.909 80.211
      vertex 0 314.106 80
    endloop
  endfacet
  facet normal -1 0 0
    outer loop
      vertex 0 312.872 80
      vertex 0 314.106 80
      vertex 0 200 12
    endloop
  endfacet
  facet normal -1 0 0
    outer loop
      vertex 0 405.429 597.918
      vertex 0 328.677 162.635
      vertex 0 405.194 597.985
    endloop
  endfacet
  facet normal -1 0 0
    outer loop
      vertex 0 328.677 162.635
      vertex 0 328.186 162.669
      vertex 0 405.915 607.671
    endloop
  endfacet
  facet normal -1 0 0
    outer loop
      vertex 0 405.194 597.985
      vertex 0 405.915 607.671
      vertex 0 405.915 601.374
    endloop
  endfacet
  facet normal -1 0 0
    outer loop
      vertex 0 328.677 162.635
      vertex 0 405.915 607.671
      vertex 0 405.194 597.985
    endloop
  endfacet
  facet normal -1 0 0
    outer loop
      vertex 0 328.677 162.635
      vertex 0 495.776 736.6
      vertex 0 314.106 80
    endloop
  endfacet
  facet normal -1 0 0
    outer loop
      vertex 0 405.429 597.918
      vertex 0 495.776 736.6
      vertex 0 328.677 162.635
    endloop
  endfacet
  facet normal -1 0 0
    outer loop
      vertex 0 380 0
      vertex 0 314.106 80
      vertex 0 495.776 656.6
    endloop
  endfacet
  facet normal -1 0 0
    outer loop
      vertex 0 356.479 656.6
      vertex 0 200 656.6
      vertex 0 200 668.6
    endloop
  endfacet
  facet normal -1 0 0
    outer loop
      vertex 0 356.479 656.6
      vertex 0 200 668.6
      vertex 0 415.776 656.6
    endloop
  endfacet
  facet normal -1 0 0
    outer loop
      vertex 0 200 668.6
      vertex 0 41.5692 668.6
      vertex 0 41.5692 724.6
    endloop
  endfacet
  facet normal -1 0 0
    outer loop
      vertex 0 200 668.6
      vertex 0 41.5692 724.6
      vertex 0 415.776 656.6
    endloop
  endfacet
  facet normal -1 0 0
    outer loop
      vertex 0 415.776 656.6
      vertex 0 41.5692 724.6
      vertex 0 200 724.6
    endloop
  endfacet
  facet normal -1 0 0
    outer loop
      vertex 0 415.776 656.6
      vertex 0 200 724.6
      vertex 0 200 736.6
    endloop
  endfacet
  facet normal -1 0 0
    outer loop
      vertex 0 415.776 656.6
      vertex 0 200 736.6
      vertex 0 495.776 736.6
    endloop
  endfacet
  facet normal -1 0 0
    outer loop
      vertex 0 415.776 656.6
      vertex 0 495.776 736.6
      vertex 0 405.429 597.918
    endloop
  endfacet
  facet normal -1 0 0
    outer loop
      vertex 0 314.106 80
      vertex 0 495.776 736.6
      vertex 0 495.776 656.6
    endloop
  endfacet
  facet normal -1 0 0
    outer loop
      vertex 0 314.106 80
      vertex 0 380 0
      vertex 0 200 12
    endloop
  endfacet
  facet normal -1 0 0
    outer loop
      vertex 0 200 12
      vertex 0 380 0
      vertex 0 200 0
    endloop
  endfacet
  facet normal 0 0.984808 -0.173648
    outer loop
      vertex 0 314.106 80
      vertex -1.86318e-14 328.677 162.635
      vertex 0 328.677 162.635
    endloop
  endfacet
  facet normal 0 -0.984808 0.173648
    outer loop
      vertex 72 324.895 148.184
      vertex 72 312.909 80.211
      vertex 72 414.542 656.6
    endloop
  endfacet
  facet normal 0 -0.984808 0.173648
    outer loop
      vertex 72 405.915 607.671
      vertex 72 324.895 148.184
      vertex 72 414.542 656.6
    endloop
  endfacet
  facet normal 0 -0.984808 0.173648
    outer loop
      vertex 72 405.915 607.671
      vertex 0 324.895 148.184
      vertex 72 324.895 148.184
    endloop
  endfacet
  facet normal 0 -0.984808 0.173648
    outer loop
      vertex 72 405.915 607.671
      vertex 0 405.915 607.671
      vertex 0 324.895 148.184
    endloop
  endfacet
  facet normal 1 3.85576e-17 2.18671e-16
    outer loop
      vertex 72 230.604 80.0428
      vertex 72 230.605 80
      vertex 72 250.987 82.1852
    endloop
  endfacet
  facet normal 1 3.85576e-17 2.18671e-16
    outer loop
      vertex 72 230.605 80
      vertex 72 314.106 80
      vertex 72 250.987 82.1852
    endloop
  endfacet
  facet normal 1 3.85576e-17 2.18671e-16
    outer loop
      vertex 72 250.987 82.1852
      vertex 72 312.909 80.211
      vertex 72 270.87 88.6455
    endloop
  endfacet
  facet normal 1 3.85576e-17 2.18671e-16
    outer loop
      vertex 72 250.987 82.1852
      vertex 72 314.106 80
      vertex 72 312.909 80.211
    endloop
  endfacet
  facet normal 1 3.85576e-17 2.18671e-16
    outer loop
      vertex 72 312.909 80.211
      vertex 72 288.975 99.0983
      vertex 72 270.87 88.6455
    endloop
  endfacet
  facet normal 1 3.85576e-17 2.18671e-16
    outer loop
      vertex 72 312.909 80.211
      vertex 72 304.511 113.087
      vertex 72 288.975 99.0983
    endloop
  endfacet
  facet normal 1 3.85576e-17 2.18671e-16
    outer loop
      vertex 72 312.909 80.211
      vertex 72 316.799 130
      vertex 72 304.511 113.087
    endloop
  endfacet
  facet normal 1 3.85576e-17 2.18671e-16
    outer loop
      vertex 72 312.909 80.211
      vertex 72 324.895 148.184
      vertex 72 316.799 130
    endloop
  endfacet
  facet normal 2.18671e-16 8.20017e-17 -1
    outer loop
      vertex 0.462798 312.872 80
      vertex 72 312.872 80
      vertex 31.3129 230.605 80
    endloop
  endfacet
  facet normal 2.18671e-16 8.20017e-17 -1
    outer loop
      vertex 72 230.605 80
      vertex 72 312.872 80
      vertex 72 314.106 80
    endloop
  endfacet
  facet normal 2.18671e-16 8.20017e-17 -1
    outer loop
      vertex 31.3129 230.605 80
      vertex 72 312.872 80
      vertex 72 230.605 80
    endloop
  endfacet
  facet normal 1 0 0
    outer loop
      vertex 72 41.5692 68
      vertex 72 41.5692 12
      vertex 72 200 12
    endloop
  endfacet
  facet normal 1 0 0
    outer loop
      vertex 72 380 0
      vertex 72 41.5692 68
      vertex 72 200 12
    endloop
  endfacet
  facet normal 1 0 0
    outer loop
      vertex 72 200 0
      vertex 72 380 0
      vertex 72 200 12
    endloop
  endfacet
  facet normal 1 0 0
    outer loop
      vertex 72 314.106 80
      vertex 72 312.872 80
      vertex 72 380 0
    endloop
  endfacet
  facet normal 1 0 0
    outer loop
      vertex 72 414.542 656.6
      vertex 72 495.776 656.6
      vertex 72 495.776 736.6
    endloop
  endfacet
  facet normal 1 0 0
    outer loop
      vertex 72 495.776 736.6
      vertex 72 200 736.6
      vertex 72 200 724.6
    endloop
  endfacet
  facet normal 1 0 0
    outer loop
      vertex 72 41.5692 668.6
      vertex 72 200 668.6
      vertex 72 200 724.6
    endloop
  endfacet
  facet normal 1 0 0
    outer loop
      vertex 72 495.776 736.6
      vertex 72 200 724.6
      vertex 72 200 668.6
    endloop
  endfacet
  facet normal 1 0 0
    outer loop
      vertex 72 495.776 736.6
      vertex 72 200 668.6
      vertex 72 200 656.6
    endloop
  endfacet
  facet normal 1 0 0
    outer loop
      vertex 72 495.776 736.6
      vertex 72 200 656.6
      vertex 72 414.542 656.6
    endloop
  endfacet
  facet normal 1 0 0
    outer loop
      vertex 72 200 80
      vertex 72 200 68
      vertex 72 312.872 80
    endloop
  endfacet
  facet normal 1 0 0
    outer loop
      vertex 72 314.106 80
      vertex 72 495.776 656.6
      vertex 72 312.909 80.211
    endloop
  endfacet
  facet normal 1 0 0
    outer loop
      vertex 72 380 0
      vertex 72 495.776 656.6
      vertex 72 314.106 80
    endloop
  endfacet
  facet normal 1 0 0
    outer loop
      vertex 72 380 0
      vertex 72 200 68
      vertex 72 41.5692 68
    endloop
  endfacet
  facet normal 1 0 0
    outer loop
      vertex 72 380 0
      vertex 72 312.872 80
      vertex 72 200 68
    endloop
  endfacet
  facet normal 1 0 0
    outer loop
      vertex 72 200 724.6
      vertex 72 41.5692 724.6
      vertex 72 41.5692 668.6
    endloop
  endfacet
  facet normal 1 0 0
    outer loop
      vertex 72 414.542 656.6
      vertex 72 312.909 80.211
      vertex 72 495.776 656.6
    endloop
  endfacet
  facet normal 0 -1 0
    outer loop
      vertex 72 200 68
      vertex 72 200 80
      vertex 0 200 80
    endloop
  endfacet
  facet normal 0 -1 0
    outer loop
      vertex 0 200 68
      vertex 72 200 68
      vertex 0 200 80
    endloop
  endfacet
  facet normal 0 -1 0
    outer loop
      vertex 72 200 0
      vertex 72 200 12
      vertex 0 200 12
    endloop
  endfacet
  facet normal 0 -1 0
    outer loop
      vertex 0 200 0
      vertex 72 200 0
      vertex 0 200 12
    endloop
  endfacet
  facet normal 0 0 -1
    outer loop
      vertex 72 200 12
      vertex 72 41.5692 12
      vertex 0 200 12
    endloop
  endfacet
  facet normal 0 0 -1
    outer loop
      vertex 0 200 12
      vertex 72 41.5692 12
      vertex 18 10.3923 12
    endloop
  endfacet
  facet normal 0 0 -1
    outer loop
      vertex 0 200 12
      vertex 18 10.3923 12
      vertex 0 41.5692 12
    endloop
  endfacet
  facet normal 0 0 -1
    outer loop
      vertex 0 200 0
      vertex 0 380 0
      vertex 72 200 0
    endloop
  endfacet
  facet normal 0 0 -1
    outer loop
      vertex 72 200 0
      vertex 0 380 0
      vertex 72 380 0
    endloop
  endfacet
  facet normal 0 0.984808 -0.173648
    outer loop
      vertex 72 495.776 656.6
      vertex 72 380 0
      vertex 0 495.776 656.6
    endloop
  endfacet
  facet normal 0 0.984808 -0.173648
    outer loop
      vertex 0 495.776 656.6
      vertex 72 380 0
      vertex 0 380 0
    endloop
  endfacet
  facet normal 0 1 0
    outer loop
      vertex 0 495.776 656.6
      vertex 0 495.776 736.6
      vertex 72 495.776 656.6
    endloop
  endfacet
  facet normal 0 1 0
    outer loop
      vertex 72 495.776 656.6
      vertex 0 495.776 736.6
      vertex 72 495.776 736.6
    endloop
  endfacet
  facet normal 0 0 1
    outer loop
      vertex 0 495.776 736.6
      vertex 0 200 736.6
      vertex 72 200 736.6
    endloop
  endfacet
  facet normal 0 0 1
    outer loop
      vertex 72 495.776 736.6
      vertex 0 495.776 736.6
      vertex 72 200 736.6
    endloop
  endfacet
  facet normal 0 -1 0
    outer loop
      vertex 72 200 724.6
      vertex 72 200 736.6
      vertex 0 200 736.6
    endloop
  endfacet
  facet normal 0 -1 0
    outer loop
      vertex 0 200 724.6
      vertex 72 200 724.6
      vertex 0 200 736.6
    endloop
  endfacet
  facet normal 0 0 1
    outer loop
      vertex 18 10.3923 724.6
      vertex 72 41.5692 724.6
      vertex 72 200 724.6
    endloop
  endfacet
  facet normal 0 0 1
    outer loop
      vertex 0 41.5692 724.6
      vertex 18 10.3923 724.6
      vertex 0 200 724.6
    endloop
  endfacet
  facet normal 0 0 1
    outer loop
      vertex 0 200 724.6
      vertex 18 10.3923 724.6
      vertex 72 200 724.6
    endloop
  endfacet
  facet normal -0.866025 -0.5 0
    outer loop
      vertex 18 10.3923 724.6
      vertex 0 41.5692 724.6
      vertex 18 10.3923 668.6
    endloop
  endfacet
  facet normal -0.866025 -0.5 0
    outer loop
      vertex 18 10.3923 668.6
      vertex 0 41.5692 724.6
      vertex 0 41.5692 668.6
    endloop
  endfacet
  facet normal 0 0 -1
    outer loop
      vertex 72 200 668.6
      vertex 72 41.5692 668.6
      vertex 0 200 668.6
    endloop
  endfacet
  facet normal 0 0 -1
    outer loop
      vertex 0 200 668.6
      vertex 72 41.5692 668.6
      vertex 18 10.3923 668.6
    endloop
  endfacet
  facet normal 0 0 -1
    outer loop
      vertex 0 200 668.6
      vertex 18 10.3923 668.6
      vertex 0 41.5692 668.6
    endloop
  endfacet
  facet normal 0 -1 0
    outer loop
      vertex 72 200 656.6
      vertex 72 200 668.6
      vertex 0 200 668.6
    endloop
  endfacet
  facet normal 0 -1 0
    outer loop
      vertex 0 200 656.6
      vertex 72 200 656.6
      vertex 0 200 668.6
    endloop
  endfacet
  facet normal 0 0 -1
    outer loop
      vertex 0 200 656.6
      vertex 0 356.479 656.6
      vertex 72 200 656.6
    endloop
  endfacet
  facet normal 0 0 -1
    outer loop
      vertex 72 200 656.6
      vertex 0 356.479 656.6
      vertex 7.41217 356.479 656.6
    endloop
  endfacet
  facet normal 0 0 -1
    outer loop
      vertex 72 200 656.6
      vertex 7.41217 356.479 656.6
      vertex 0.154266 414.542 656.6
    endloop
  endfacet
  facet normal 0 0 -1
    outer loop
      vertex 72 200 656.6
      vertex 0.154266 414.542 656.6
      vertex 72 414.542 656.6
    endloop
  endfacet
  facet normal -4.61657e-17 -0.999391 -0.0348995
    outer loop
      vertex 0 356.479 656.6
      vertex -2.29302e-15 356.48 656.569
      vertex 72 356.48 656.569
    endloop
  endfacet
  facet normal -4.61657e-17 -0.999391 -0.0348995
    outer loop
      vertex 72 356.479 656.6
      vertex 7.41217 356.479 656.6
      vertex 72 356.48 656.569
    endloop
  endfacet
  facet normal -4.61657e-17 -0.999391 -0.0348995
    outer loop
      vertex -2.28637e-15 356.479 656.6
      vertex -2.29302e-15 356.48 656.569
      vertex 0 356.479 656.6
    endloop
  endfacet
  facet normal -4.61657e-17 -0.999391 -0.0348995
    outer loop
      vertex 7.41217 356.479 656.6
      vertex 0 356.479 656.6
      vertex 72 356.48 656.569
    endloop
  endfacet
  facet normal 2.18671e-16 2.73339e-17 1
    outer loop
      vertex 0 356.479 656.6
      vertex 0 415.776 656.6
      vertex -2.28637e-15 356.479 656.6
    endloop
  endfacet
  facet normal -1 3.85576e-17 2.18671e-16
    outer loop
      vertex -1.01709e-14 405.915 611.826
      vertex 0 415.776 656.6
      vertex -1.24567e-14 405.915 601.374
    endloop
  endfacet
  facet normal -1 3.85576e-17 2.18671e-16
    outer loop
      vertex -8.01894e-15 403.741 622.051
      vertex 0 415.776 656.6
      vertex -1.01709e-14 405.915 611.826
    endloop
  endfacet
  facet normal -1 3.85576e-17 2.18671e-16
    outer loop
      vertex -6.09475e-15 399.49 631.6
      vertex 0 415.776 656.6
      vertex -8.01894e-15 403.741 622.051
    endloop
  endfacet
  facet normal -1 3.85576e-17 2.18671e-16
    outer loop
      vertex -4.48245e-15 393.346 640.057
      vertex 0 415.776 656.6
      vertex -6.09475e-15 399.49 631.6
    endloop
  endfacet
  facet normal -1 3.85576e-17 2.18671e-16
    outer loop
      vertex -3.2525e-15 385.578 647.051
      vertex 0 415.776 656.6
      vertex -4.48245e-15 393.346 640.057
    endloop
  endfacet
  facet normal -1 3.85576e-17 2.18671e-16
    outer loop
      vertex -2.45868e-15 376.525 652.277
      vertex 0 415.776 656.6
      vertex -3.2525e-15 385.578 647.051
    endloop
  endfacet
  facet normal -1 3.85576e-17 2.18671e-16
    outer loop
      vertex -2.13566e-15 366.584 655.507
      vertex -2.29302e-15 356.48 656.569
      vertex -2.28637e-15 356.479 656.6
    endloop
  endfacet
  facet normal -1 3.85576e-17 2.18671e-16
    outer loop
      vertex -2.13566e-15 366.584 655.507
      vertex -2.28637e-15 356.479 656.6
      vertex 0 415.776 656.6
    endloop
  endfacet
  facet normal -1 3.85576e-17 2.18671e-16
    outer loop
      vertex -2.13566e-15 366.584 655.507
      vertex 0 415.776 656.6
      vertex -2.45868e-15 376.525 652.277
    endloop
  endfacet
  facet normal -1 3.85576e-17 2.18671e-16
    outer loop
      vertex -1.32311e-14 405.429 597.918
      vertex -1.32255e-14 405.194 597.985
      vertex -1.24567e-14 405.915 601.374
    endloop
  endfacet
  facet normal -1 3.85576e-17 2.18671e-16
    outer loop
      vertex -1.32311e-14 405.429 597.918
      vertex -1.24567e-14 405.915 601.374
      vertex 0 415.776 656.6
    endloop
  endfacet
  facet normal 0 0.984808 -0.173648
    outer loop
      vertex 0 415.776 656.6
      vertex 0 405.429 597.918
      vertex -1.32311e-14 405.429 597.918
    endloop
  endfacet
  facet normal -2.20828e-16 -0.275637 -0.961262
    outer loop
      vertex -1.32311e-14 405.429 597.918
      vertex 0 405.429 597.918
      vertex -1.32255e-14 405.194 597.985
    endloop
  endfacet
  facet normal -2.20828e-16 -0.275637 -0.961262
    outer loop
      vertex -1.32255e-14 405.194 597.985
      vertex 0 405.429 597.918
      vertex 0 405.194 597.985
    endloop
  endfacet
  facet normal 4.61657e-17 -0.978148 0.207912
    outer loop
      vertex -1.24567e-14 405.915 601.374
      vertex -1.32255e-14 405.194 597.985
      vertex 0 405.194 597.985
    endloop
  endfacet
  facet normal 4.61657e-17 -0.978148 0.207912
    outer loop
      vertex 0 405.915 601.374
      vertex -1.24567e-14 405.915 601.374
      vertex 0 405.194 597.985
    endloop
  endfacet
  facet normal 0 -1 0
    outer loop
      vertex -1.01709e-14 405.915 611.826
      vertex -1.24567e-14 405.915 601.374
      vertex 0 405.915 601.374
    endloop
  endfacet
  facet normal 0 -1 0
    outer loop
      vertex 72 405.915 607.671
      vertex -1.01709e-14 405.915 611.826
      vertex 0 405.915 607.671
    endloop
  endfacet
  facet normal 0 -1 0
    outer loop
      vertex 0 405.915 607.671
      vertex -1.01709e-14 405.915 611.826
      vertex 0 405.915 601.374
    endloop
  endfacet
  facet normal 0 -1 0
    outer loop
      vertex 72 405.915 611.826
      vertex -1.01709e-14 405.915 611.826
      vertex 72 405.915 607.671
    endloop
  endfacet
  facet normal 0 0 1
    outer loop
      vertex 18 10.3923 68
      vertex 72 41.5692 68
      vertex 72 200 68
    endloop
  endfacet
  facet normal 0 0 1
    outer loop
      vertex 0 41.5692 68
      vertex 18 10.3923 68
      vertex 0 200 68
    endloop
  endfacet
  facet normal 0 0 1
    outer loop
      vertex 0 200 68
      vertex 18 10.3923 68
      vertex 72 200 68
    endloop
  endfacet
  facet normal -0.866025 -0.5 0
    outer loop
      vertex 18 10.3923 68
      vertex 0 41.5692 68
      vertex 18 10.3923 12
    endloop
  endfacet
  facet normal -0.866025 -0.5 0
    outer loop
      vertex 18 10.3923 12
      vertex 0 41.5692 68
      vertex 0 41.5692 12
    endloop
  endfacet
  facet normal 1 -3.85576e-17 -2.18671e-16
    outer loop
      vertex 72 405.915 611.826
      vertex 72 405.915 607.671
      vertex 72 414.542 656.6
    endloop
  endfacet
  facet normal 1 -3.85576e-17 -2.18671e-16
    outer loop
      vertex 72 403.741 622.051
      vertex 72 405.915 611.826
      vertex 72 414.542 656.6
    endloop
  endfacet
  facet normal 1 -3.85576e-17 -2.18671e-16
    outer loop
      vertex 72 356.479 656.6
      vertex 72 366.584 655.507
      vertex 72 414.542 656.6
    endloop
  endfacet
  facet normal 1 -3.85576e-17 -2.18671e-16
    outer loop
      vertex 72 366.584 655.507
      vertex 72 376.525 652.277
      vertex 72 414.542 656.6
    endloop
  endfacet
  facet normal 1 -3.85576e-17 -2.18671e-16
    outer loop
      vertex 72 376.525 652.277
      vertex 72 385.578 647.051
      vertex 72 414.542 656.6
    endloop
  endfacet
  facet normal 1 -3.85576e-17 -2.18671e-16
    outer loop
      vertex 72 385.578 647.051
      vertex 72 393.346 640.057
      vertex 72 414.542 656.6
    endloop
  endfacet
  facet normal 1 -3.85576e-17 -2.18671e-16
    outer loop
      vertex 72 393.346 640.057
      vertex 72 399.49 631.6
      vertex 72 414.542 656.6
    endloop
  endfacet
  facet normal 1 -3.85576e-17 -2.18671e-16
    outer loop
      vertex 72 399.49 631.6
      vertex 72 403.741 622.051
      vertex 72 414.542 656.6
    endloop
  endfacet
  facet normal 1 -3.85576e-17 -2.18671e-16
    outer loop
      vertex 72 356.48 656.569
      vertex 72 366.584 655.507
      vertex 72 356.479 656.6
    endloop
  endfacet
  facet normal 2.18671e-16 2.73339e-17 1
    outer loop
      vertex 7.41217 356.479 656.6
      vertex 72 356.479 656.6
      vertex 72 414.542 656.6
    endloop
  endfacet
  facet normal 2.18671e-16 2.73339e-17 1
    outer loop
      vertex 0.154266 414.542 656.6
      vertex 7.41217 356.479 656.6
      vertex 72 414.542 656.6
    endloop
  endfacet
  facet normal 0.5 -0.866025 0
    outer loop
      vertex 18 10.3923 68
      vertex 18 10.3923 12
      vertex 72 41.5692 12
    endloop
  endfacet
  facet normal 0.5 -0.866025 0
    outer loop
      vertex 72 41.5692 68
      vertex 18 10.3923 68
      vertex 72 41.5692 12
    endloop
  endfacet
  facet normal 0.5 -0.866025 0
    outer loop
      vertex 18 10.3923 724.6
      vertex 18 10.3923 668.6
      vertex 72 41.5692 668.6
    endloop
  endfacet
  facet normal 0.5 -0.866025 0
    outer loop
      vertex 72 41.5692 724.6
      vertex 18 10.3923 724.6
      vertex 72 41.5692 668.6
    endloop
  endfacet
  facet normal -2.20828e-16 -0.104528 -0.994522
    outer loop
      vertex -2.29302e-15 356.48 656.569
      vertex -2.13566e-15 366.584 655.507
      vertex 72 356.48 656.569
    endloop
  endfacet
  facet normal -2.20828e-16 -0.104528 -0.994522
    outer loop
      vertex 72 356.48 656.569
      vertex -2.13566e-15 366.584 655.507
      vertex 72 366.584 655.507
    endloop
  endfacet
  facet normal -2.11177e-16 -0.309017 -0.951057
    outer loop
      vertex -2.45868e-15 376.525 652.277
      vertex 72 376.525 652.277
      vertex -2.13566e-15 366.584 655.507
    endloop
  endfacet
  facet normal -2.11177e-16 -0.309017 -0.951057
    outer loop
      vertex -2.13566e-15 366.584 655.507
      vertex 72 376.525 652.277
      vertex 72 366.584 655.507
    endloop
  endfacet
  facet normal -1.92296e-16 -0.5 -0.866025
    outer loop
      vertex -3.2525e-15 385.578 647.051
      vertex 72 385.578 647.051
      vertex -2.45868e-15 376.525 652.277
    endloop
  endfacet
  facet normal -1.92296e-16 -0.5 -0.866025
    outer loop
      vertex -2.45868e-15 376.525 652.277
      vertex 72 385.578 647.051
      vertex 72 376.525 652.277
    endloop
  endfacet
  facet normal -1.65011e-16 -0.669131 -0.743145
    outer loop
      vertex -4.48245e-15 393.346 640.057
      vertex 72 393.346 640.057
      vertex -3.2525e-15 385.578 647.051
    endloop
  endfacet
  facet normal -1.65011e-16 -0.669131 -0.743145
    outer loop
      vertex -3.2525e-15 385.578 647.051
      vertex 72 393.346 640.057
      vertex 72 385.578 647.051
    endloop
  endfacet
  facet normal -1.30515e-16 -0.809017 -0.587785
    outer loop
      vertex -4.48245e-15 393.346 640.057
      vertex -6.09475e-15 399.49 631.6
      vertex 72 399.49 631.6
    endloop
  endfacet
  facet normal -1.30515e-16 -0.809017 -0.587785
    outer loop
      vertex 72 393.346 640.057
      vertex -4.48245e-15 393.346 640.057
      vertex 72 399.49 631.6
    endloop
  endfacet
  facet normal -9.03137e-17 -0.913545 -0.406737
    outer loop
      vertex -6.09475e-15 399.49 631.6
      vertex -8.01894e-15 403.741 622.051
      vertex 72 403.741 622.051
    endloop
  endfacet
  facet normal -9.03137e-17 -0.913545 -0.406737
    outer loop
      vertex 72 399.49 631.6
      vertex -6.09475e-15 399.49 631.6
      vertex 72 403.741 622.051
    endloop
  endfacet
  facet normal -4.61657e-17 -0.978148 -0.207912
    outer loop
      vertex -8.01894e-15 403.741 622.051
      vertex -1.01709e-14 405.915 611.826
      vertex 72 405.915 611.826
    endloop
  endfacet
  facet normal -4.61657e-17 -0.978148 -0.207912
    outer loop
      vertex 72 403.741 622.051
      vertex -8.01894e-15 403.741 622.051
      vertex 72 405.915 611.826
    endloop
  endfacet
endsolid OpenSCAD_Model
