solid OpenSCAD_Model
  facet normal -0.5 -0.866025 0
    outer loop
      vertex -173.205 58.4308 12
      vertex -173.205 58.4308 0
      vertex -36 -20.7846 0
    endloop
  endfacet
  facet normal -0.5 -0.866025 0
    outer loop
      vertex -36 -20.7846 12
      vertex -173.205 58.4308 12
      vertex -36 -20.7846 0
    endloop
  endfacet
  facet normal 0 0 -1
    outer loop
      vertex -173.205 58.4308 0
      vertex -137.205 120.785 0
      vertex -36 -20.7846 0
    endloop
  endfacet
  facet normal 0 0 -1
    outer loop
      vertex -36 -20.7846 0
      vertex -137.205 120.785 0
      vertex 0 41.5692 0
    endloop
  endfacet
  facet normal 0 0 -1
    outer loop
      vertex -36 -20.7846 0
      vertex 0 41.5692 0
      vertex 137.205 120.785 0
    endloop
  endfacet
  facet normal 0 0 -1
    outer loop
      vertex -36 -20.7846 0
      vertex 137.205 120.785 0
      vertex 173.205 58.4308 0
    endloop
  endfacet
  facet normal 0 0 -1
    outer loop
      vertex -36 -20.7846 0
      vertex 173.205 58.4308 0
      vertex 36 -20.7846 0
    endloop
  endfacet
  facet normal 0 0 -1
    outer loop
      vertex 36 -20.7846 0
      vertex 36 -220.785 0
      vertex -36 -20.7846 0
    endloop
  endfacet
  facet normal 0 0 -1
    outer loop
      vertex -36 -20.7846 0
      vertex 36 -220.785 0
      vertex -36 -220.785 0
    endloop
  endfacet
  facet normal -0.866025 0.5 0
    outer loop
      vertex -173.205 58.4308 0
      vertex -173.205 58.4308 12
      vertex -137.205 120.785 0
    endloop
  endfacet
  facet normal -0.866025 0.5 0
    outer loop
      vertex -137.205 120.785 0
      vertex -173.205 58.4308 12
      vertex -137.205 120.785 12
    endloop
  endfacet
  facet normal 0 0 1
    outer loop
      vertex -137.205 120.785 12
      vertex -173.205 58.4308 12
      vertex -36 -20.7846 12
    endloop
  endfacet
  facet normal 0 0 1
    outer loop
      vertex 36 -20.7846 12
      vertex -137.205 120.785 12
      vertex -36 -20.7846 12
    endloop
  endfacet
  facet normal 0 0 1
    outer loop
      vertex -36 -220.785 12
      vertex 36 -220.785 12
      vertex -36 -20.7846 12
    endloop
  endfacet
  facet normal 0 0 1
    outer loop
      vertex 36 -220.785 12
      vertex 36 -20.7846 12
      vertex -36 -20.7846 12
    endloop
  endfacet
  facet normal 0 0 1
    outer loop
      vertex 137.205 120.785 12
      vertex 0 41.5692 12
      vertex 173.205 58.4308 12
    endloop
  endfacet
  facet normal 0 0 1
    outer loop
      vertex 36 -20.7846 12
      vertex 0 41.5692 12
      vertex -137.205 120.785 12
    endloop
  endfacet
  facet normal 0 0 1
    outer loop
      vertex 36 -20.7846 12
      vertex 173.205 58.4308 12
      vertex 0 41.5692 12
    endloop
  endfacet
  facet normal -1 0 0
    outer loop
      vertex -36 -220.785 0
      vertex -36 -220.785 12
      vertex -36 -20.7846 0
    endloop
  endfacet
  facet normal -1 0 0
    outer loop
      vertex -36 -20.7846 0
      vertex -36 -220.785 12
      vertex -36 -20.7846 12
    endloop
  endfacet
  facet normal 0 -1 0
    outer loop
      vertex -36 -220.785 12
      vertex -36 -220.785 0
      vertex 36 -220.785 0
    endloop
  endfacet
  facet normal 0 -1 0
    outer loop
      vertex 36 -220.785 12
      vertex -36 -220.785 12
      vertex 36 -220.785 0
    endloop
  endfacet
  facet normal 1 0 0
    outer loop
      vertex 36 -220.785 12
      vertex 36 -220.785 0
      vertex 36 -20.7846 0
    endloop
  endfacet
  facet normal 1 0 0
    outer loop
      vertex 36 -20.7846 12
      vertex 36 -220.785 12
      vertex 36 -20.7846 0
    endloop
  endfacet
  facet normal 0.5 -0.866025 0
    outer loop
      vertex 36 -20.7846 12
      vertex 36 -20.7846 0
      vertex 173.205 58.4308 0
    endloop
  endfacet
  facet normal 0.5 -0.866025 0
    outer loop
      vertex 173.205 58.4308 12
      vertex 36 -20.7846 12
      vertex 173.205 58.4308 0
    endloop
  endfacet
  facet normal 0.866025 0.5 0
    outer loop
      vertex 173.205 58.4308 0
      vertex 137.205 120.785 0
      vertex 137.205 120.785 12
    endloop
  endfacet
  facet normal 0.866025 0.5 0
    outer loop
      vertex 173.205 58.4308 12
      vertex 173.205 58.4308 0
      vertex 137.205 120.785 12
    endloop
  endfacet
  facet normal -0.5 0.866025 0
    outer loop
      vertex 0 41.5692 0
      vertex 0 41.5692 12
      vertex 137.205 120.785 0
    endloop
  endfacet
  facet normal -0.5 0.866025 0
    outer loop
      vertex 137.205 120.785 0
      vertex 0 41.5692 12
      vertex 137.205 120.785 12
    endloop
  endfacet
  facet normal 0.5 0.866025 0
    outer loop
      vertex -137.205 120.785 0
      vertex -137.205 120.785 12
      vertex 0 41.5692 0
    endloop
  endfacet
  facet normal 0.5 0.866025 0
    outer loop
      vertex 0 41.5692 0
      vertex -137.205 120.785 12
      vertex 0 41.5692 12
    endloop
  endfacet
endsolid OpenSCAD_Model
