solid OpenSCAD_Model
  facet normal -1 0 0
    outer loop
      vertex -10 -3.5 0
      vertex -10 -3.5 5
      vertex -10 11.5 0
    endloop
  endfacet
  facet normal -1 0 0
    outer loop
      vertex -10 11.5 0
      vertex -10 -3.5 5
      vertex -10 11.5 5
    endloop
  endfacet
  facet normal -0.980785 -0.19509 0
    outer loop
      vertex -10 -3.5 0
      vertex -9.6194 -5.41342 0
      vertex -10 -3.5 5
    endloop
  endfacet
  facet normal -0.980785 -0.19509 0
    outer loop
      vertex -10 -3.5 5
      vertex -9.6194 -5.41342 0
      vertex -9.6194 -5.41342 5
    endloop
  endfacet
  facet normal 0 0 -1
    outer loop
      vertex -10 -3.5 0
      vertex -10 11.5 0
      vertex -9.6194 -5.41342 0
    endloop
  endfacet
  facet normal 0 0 -1
    outer loop
      vertex -9.6194 -5.41342 0
      vertex -10 11.5 0
      vertex -9.6194 13.4134 0
    endloop
  endfacet
  facet normal 0 0 -1
    outer loop
      vertex -9.6194 -5.41342 0
      vertex -9.6194 13.4134 0
      vertex -8.53553 15.0355 0
    endloop
  endfacet
  facet normal 0 0 -1
    outer loop
      vertex -9.6194 -5.41342 0
      vertex -8.53553 15.0355 0
      vertex -6.91342 16.1194 0
    endloop
  endfacet
  facet normal 0 0 -1
    outer loop
      vertex -9.6194 -5.41342 0
      vertex -6.91342 16.1194 0
      vertex -5 16.5 0
    endloop
  endfacet
  facet normal 0 0 -1
    outer loop
      vertex -0.209057 8.73904 0
      vertex -5 16.5 0
      vertex 5 16.5 0
    endloop
  endfacet
  facet normal 0 0 -1
    outer loop
      vertex 1 8.48205 0
      vertex 5 16.5 0
      vertex 6.91342 16.1194 0
    endloop
  endfacet
  facet normal 0 0 -1
    outer loop
      vertex 1.82709 7.56347 0
      vertex 6.91342 16.1194 0
      vertex 8.53553 15.0355 0
    endloop
  endfacet
  facet normal 0 0 -1
    outer loop
      vertex 2 6.75 0
      vertex 8.53553 15.0355 0
      vertex 9.6194 13.4134 0
    endloop
  endfacet
  facet normal 0 0 -1
    outer loop
      vertex 4.11095 -1.83031 0
      vertex 10 11.5 0
      vertex 10 -3.5 0
    endloop
  endfacet
  facet normal 0 0 -1
    outer loop
      vertex 0.470378 -4.47535 0
      vertex 10 -3.5 0
      vertex 9.6194 -5.41342 0
    endloop
  endfacet
  facet normal 0 0 -1
    outer loop
      vertex -9.6194 -5.41342 0
      vertex 9.6194 -5.41342 0
      vertex 8.53553 -7.03553 0
    endloop
  endfacet
  facet normal 0 0 -1
    outer loop
      vertex -9.6194 -5.41342 0
      vertex 8.53553 -7.03553 0
      vertex 6.91342 -8.1194 0
    endloop
  endfacet
  facet normal 0 0 -1
    outer loop
      vertex -9.6194 -5.41342 0
      vertex 6.91342 -8.1194 0
      vertex 5 -8.5 0
    endloop
  endfacet
  facet normal 0 0 -1
    outer loop
      vertex -9.6194 -5.41342 0
      vertex 5 -8.5 0
      vertex -5 -8.5 0
    endloop
  endfacet
  facet normal 0 0 -1
    outer loop
      vertex -9.6194 -5.41342 0
      vertex -5 -8.5 0
      vertex -6.91342 -8.1194 0
    endloop
  endfacet
  facet normal 0 0 -1
    outer loop
      vertex -9.6194 -5.41342 0
      vertex -6.91342 -8.1194 0
      vertex -8.53553 -7.03553 0
    endloop
  endfacet
  facet normal 0 0 -1
    outer loop
      vertex -4.40166 -0.935603 0
      vertex -9.6194 -5.41342 0
      vertex -4.5 0 0
    endloop
  endfacet
  facet normal 0 0 -1
    outer loop
      vertex 0.470378 -4.47535 0
      vertex -9.6194 -5.41342 0
      vertex -0.470378 -4.47535 0
    endloop
  endfacet
  facet normal 0 0 -1
    outer loop
      vertex 2 6.75 0
      vertex 10 11.5 0
      vertex 2 4.5 0
    endloop
  endfacet
  facet normal 0 0 -1
    outer loop
      vertex -9.6194 -5.41342 0
      vertex -4.40166 -0.935603 0
      vertex -4.11095 -1.83031 0
    endloop
  endfacet
  facet normal 0 0 -1
    outer loop
      vertex -9.6194 -5.41342 0
      vertex -4.11095 -1.83031 0
      vertex -3.64058 -2.64503 0
    endloop
  endfacet
  facet normal 0 0 -1
    outer loop
      vertex -9.6194 -5.41342 0
      vertex -3.64058 -2.64503 0
      vertex -3.01109 -3.34415 0
    endloop
  endfacet
  facet normal 0 0 -1
    outer loop
      vertex -9.6194 -5.41342 0
      vertex -3.01109 -3.34415 0
      vertex -2.25 -3.89711 0
    endloop
  endfacet
  facet normal 0 0 -1
    outer loop
      vertex -9.6194 -5.41342 0
      vertex -2.25 -3.89711 0
      vertex -1.39058 -4.27975 0
    endloop
  endfacet
  facet normal 0 0 -1
    outer loop
      vertex -9.6194 -5.41342 0
      vertex -1.39058 -4.27975 0
      vertex -0.470378 -4.47535 0
    endloop
  endfacet
  facet normal 0 0 -1
    outer loop
      vertex 1.39058 -4.27975 0
      vertex 10 -3.5 0
      vertex 0.470378 -4.47535 0
    endloop
  endfacet
  facet normal 0 0 -1
    outer loop
      vertex -9.6194 -5.41342 0
      vertex 0.470378 -4.47535 0
      vertex 9.6194 -5.41342 0
    endloop
  endfacet
  facet normal 0 0 -1
    outer loop
      vertex 2.25 -3.89711 0
      vertex 10 -3.5 0
      vertex 1.39058 -4.27975 0
    endloop
  endfacet
  facet normal 0 0 -1
    outer loop
      vertex 3.01109 -3.34415 0
      vertex 10 -3.5 0
      vertex 2.25 -3.89711 0
    endloop
  endfacet
  facet normal 0 0 -1
    outer loop
      vertex 3.64058 -2.64503 0
      vertex 10 -3.5 0
      vertex 3.01109 -3.34415 0
    endloop
  endfacet
  facet normal 0 0 -1
    outer loop
      vertex 4.11095 -1.83031 0
      vertex 10 -3.5 0
      vertex 3.64058 -2.64503 0
    endloop
  endfacet
  facet normal 0 0 -1
    outer loop
      vertex 4.40166 -0.935603 0
      vertex 10 11.5 0
      vertex 4.11095 -1.83031 0
    endloop
  endfacet
  facet normal 0 0 -1
    outer loop
      vertex 2 6.75 0
      vertex 9.6194 13.4134 0
      vertex 10 11.5 0
    endloop
  endfacet
  facet normal 0 0 -1
    outer loop
      vertex 4.5 0 0
      vertex 10 11.5 0
      vertex 4.40166 -0.935603 0
    endloop
  endfacet
  facet normal 0 0 -1
    outer loop
      vertex 4.40166 0.935603 0
      vertex 10 11.5 0
      vertex 4.5 0 0
    endloop
  endfacet
  facet normal 0 0 -1
    outer loop
      vertex 4.11095 1.83031 0
      vertex 10 11.5 0
      vertex 4.40166 0.935603 0
    endloop
  endfacet
  facet normal 0 0 -1
    outer loop
      vertex 3.64058 2.64503 0
      vertex 10 11.5 0
      vertex 4.11095 1.83031 0
    endloop
  endfacet
  facet normal 0 0 -1
    outer loop
      vertex 3.01109 3.34415 0
      vertex 10 11.5 0
      vertex 3.64058 2.64503 0
    endloop
  endfacet
  facet normal 0 0 -1
    outer loop
      vertex 2.25 3.89711 0
      vertex 10 11.5 0
      vertex 3.01109 3.34415 0
    endloop
  endfacet
  facet normal 0 0 -1
    outer loop
      vertex 1.94031 4.03499 0
      vertex 10 11.5 0
      vertex 2.25 3.89711 0
    endloop
  endfacet
  facet normal 0 0 -1
    outer loop
      vertex 1.95629 4.08418 0
      vertex 10 11.5 0
      vertex 1.94031 4.03499 0
    endloop
  endfacet
  facet normal 0 0 -1
    outer loop
      vertex 2 4.5 0
      vertex 10 11.5 0
      vertex 1.95629 4.08418 0
    endloop
  endfacet
  facet normal 0 0 -1
    outer loop
      vertex -3.64058 2.64503 0
      vertex -9.6194 -5.41342 0
      vertex -2 6.75 0
    endloop
  endfacet
  facet normal 0 0 -1
    outer loop
      vertex 1.95629 7.16582 0
      vertex 8.53553 15.0355 0
      vertex 2 6.75 0
    endloop
  endfacet
  facet normal 0 0 -1
    outer loop
      vertex 1.82709 7.56347 0
      vertex 8.53553 15.0355 0
      vertex 1.95629 7.16582 0
    endloop
  endfacet
  facet normal 0 0 -1
    outer loop
      vertex -3.01109 3.34415 0
      vertex -2 4.5 0
      vertex -2.25 3.89711 0
    endloop
  endfacet
  facet normal 0 0 -1
    outer loop
      vertex 1.61803 7.92557 0
      vertex 6.91342 16.1194 0
      vertex 1.82709 7.56347 0
    endloop
  endfacet
  facet normal 0 0 -1
    outer loop
      vertex 1.33826 8.23629 0
      vertex 6.91342 16.1194 0
      vertex 1.61803 7.92557 0
    endloop
  endfacet
  facet normal 0 0 -1
    outer loop
      vertex -2 4.5 0
      vertex -3.01109 3.34415 0
      vertex -3.64058 2.64503 0
    endloop
  endfacet
  facet normal 0 0 -1
    outer loop
      vertex 0.618034 8.65211 0
      vertex 5 16.5 0
      vertex 1 8.48205 0
    endloop
  endfacet
  facet normal 0 0 -1
    outer loop
      vertex -0.209057 8.73904 0
      vertex 5 16.5 0
      vertex 0.209057 8.73904 0
    endloop
  endfacet
  facet normal 0 0 -1
    outer loop
      vertex 0.209057 8.73904 0
      vertex 5 16.5 0
      vertex 0.618034 8.65211 0
    endloop
  endfacet
  facet normal 0 0 -1
    outer loop
      vertex -0.618034 8.65211 0
      vertex -5 16.5 0
      vertex -0.209057 8.73904 0
    endloop
  endfacet
  facet normal 0 0 -1
    outer loop
      vertex -1.95629 7.16582 0
      vertex -9.6194 -5.41342 0
      vertex -1.82709 7.56347 0
    endloop
  endfacet
  facet normal 0 0 -1
    outer loop
      vertex -1 8.48205 0
      vertex -5 16.5 0
      vertex -0.618034 8.65211 0
    endloop
  endfacet
  facet normal 0 0 -1
    outer loop
      vertex -1.33826 8.23629 0
      vertex -5 16.5 0
      vertex -1 8.48205 0
    endloop
  endfacet
  facet normal 0 0 -1
    outer loop
      vertex -1.61803 7.92557 0
      vertex -5 16.5 0
      vertex -1.33826 8.23629 0
    endloop
  endfacet
  facet normal 0 0 -1
    outer loop
      vertex -9.6194 -5.41342 0
      vertex -5 16.5 0
      vertex -1.61803 7.92557 0
    endloop
  endfacet
  facet normal 0 0 -1
    outer loop
      vertex -9.6194 -5.41342 0
      vertex -1.61803 7.92557 0
      vertex -1.82709 7.56347 0
    endloop
  endfacet
  facet normal 0 0 -1
    outer loop
      vertex -2 6.75 0
      vertex -9.6194 -5.41342 0
      vertex -1.95629 7.16582 0
    endloop
  endfacet
  facet normal 0 0 -1
    outer loop
      vertex -4.11095 1.83031 0
      vertex -9.6194 -5.41342 0
      vertex -3.64058 2.64503 0
    endloop
  endfacet
  facet normal 0 0 -1
    outer loop
      vertex -2.25 3.89711 0
      vertex -1.95629 4.08418 0
      vertex -1.94031 4.03499 0
    endloop
  endfacet
  facet normal 0 0 -1
    outer loop
      vertex -4.40166 0.935603 0
      vertex -9.6194 -5.41342 0
      vertex -4.11095 1.83031 0
    endloop
  endfacet
  facet normal 0 0 -1
    outer loop
      vertex -1.95629 4.08418 0
      vertex -2.25 3.89711 0
      vertex -2 4.5 0
    endloop
  endfacet
  facet normal 0 0 -1
    outer loop
      vertex -4.5 0 0
      vertex -9.6194 -5.41342 0
      vertex -4.40166 0.935603 0
    endloop
  endfacet
  facet normal 0 0 -1
    outer loop
      vertex 1 8.48205 0
      vertex 6.91342 16.1194 0
      vertex 1.33826 8.23629 0
    endloop
  endfacet
  facet normal 0 0 -1
    outer loop
      vertex -2 4.5 0
      vertex -3.64058 2.64503 0
      vertex -2 6.75 0
    endloop
  endfacet
  facet normal -0.980785 0.19509 0
    outer loop
      vertex -10 11.5 0
      vertex -10 11.5 5
      vertex -9.6194 13.4134 0
    endloop
  endfacet
  facet normal -0.980785 0.19509 0
    outer loop
      vertex -9.6194 13.4134 0
      vertex -10 11.5 5
      vertex -9.6194 13.4134 5
    endloop
  endfacet
  facet normal 0 0 1
    outer loop
      vertex -10 11.5 5
      vertex -10 -3.5 5
      vertex -9.6194 -5.41342 5
    endloop
  endfacet
  facet normal 0 0 1
    outer loop
      vertex -6.91342 -8.1194 5
      vertex -10 11.5 5
      vertex -8.53553 -7.03553 5
    endloop
  endfacet
  facet normal 0 0 1
    outer loop
      vertex -8.53553 -7.03553 5
      vertex -10 11.5 5
      vertex -9.6194 -5.41342 5
    endloop
  endfacet
  facet normal 0 0 1
    outer loop
      vertex -5 -8.5 5
      vertex -10 11.5 5
      vertex -6.91342 -8.1194 5
    endloop
  endfacet
  facet normal 0 0 1
    outer loop
      vertex -4.5 0 5
      vertex -10 11.5 5
      vertex -5 -8.5 5
    endloop
  endfacet
  facet normal 0 0 1
    outer loop
      vertex -4.5 6.75 5
      vertex -4.40166 7.6856 5
      vertex -10 11.5 5
    endloop
  endfacet
  facet normal 0 0 1
    outer loop
      vertex 1.39058 11.0298 5
      vertex 2.25 10.6471 5
      vertex 10 11.5 5
    endloop
  endfacet
  facet normal 0 0 1
    outer loop
      vertex 9.6194 13.4134 5
      vertex -10 11.5 5
      vertex 10 11.5 5
    endloop
  endfacet
  facet normal 0 0 1
    outer loop
      vertex 8.53553 15.0355 5
      vertex -10 11.5 5
      vertex 9.6194 13.4134 5
    endloop
  endfacet
  facet normal 0 0 1
    outer loop
      vertex 6.91342 16.1194 5
      vertex -10 11.5 5
      vertex 8.53553 15.0355 5
    endloop
  endfacet
  facet normal 0 0 1
    outer loop
      vertex 5 16.5 5
      vertex -10 11.5 5
      vertex 6.91342 16.1194 5
    endloop
  endfacet
  facet normal 0 0 1
    outer loop
      vertex -5 16.5 5
      vertex -10 11.5 5
      vertex 5 16.5 5
    endloop
  endfacet
  facet normal 0 0 1
    outer loop
      vertex -6.91342 16.1194 5
      vertex -10 11.5 5
      vertex -5 16.5 5
    endloop
  endfacet
  facet normal 0 0 1
    outer loop
      vertex -8.53553 15.0355 5
      vertex -10 11.5 5
      vertex -6.91342 16.1194 5
    endloop
  endfacet
  facet normal 0 0 1
    outer loop
      vertex -9.6194 13.4134 5
      vertex -10 11.5 5
      vertex -8.53553 15.0355 5
    endloop
  endfacet
  facet normal 0 0 1
    outer loop
      vertex -4.40166 -0.935603 5
      vertex -4.5 0 5
      vertex -5 -8.5 5
    endloop
  endfacet
  facet normal 0 0 1
    outer loop
      vertex 2.25 -3.89711 5
      vertex 1.39058 -4.27975 5
      vertex 5 -8.5 5
    endloop
  endfacet
  facet normal 0 0 1
    outer loop
      vertex -4.11095 8.58031 5
      vertex -10 11.5 5
      vertex -4.40166 7.6856 5
    endloop
  endfacet
  facet normal 0 0 1
    outer loop
      vertex 4.11095 8.58031 5
      vertex 4.40166 7.6856 5
      vertex 10 -3.5 5
    endloop
  endfacet
  facet normal 0 0 1
    outer loop
      vertex -3.64058 9.39503 5
      vertex -10 11.5 5
      vertex -4.11095 8.58031 5
    endloop
  endfacet
  facet normal 0 0 1
    outer loop
      vertex -3.01109 10.0942 5
      vertex -10 11.5 5
      vertex -3.64058 9.39503 5
    endloop
  endfacet
  facet normal 0 0 1
    outer loop
      vertex -2.25 10.6471 5
      vertex -10 11.5 5
      vertex -3.01109 10.0942 5
    endloop
  endfacet
  facet normal 0 0 1
    outer loop
      vertex 2.25 10.6471 5
      vertex 3.01109 10.0942 5
      vertex 10 11.5 5
    endloop
  endfacet
  facet normal 0 0 1
    outer loop
      vertex -1.39058 11.0298 5
      vertex -10 11.5 5
      vertex -2.25 10.6471 5
    endloop
  endfacet
  facet normal 0 0 1
    outer loop
      vertex -0.470378 11.2253 5
      vertex -10 11.5 5
      vertex -1.39058 11.0298 5
    endloop
  endfacet
  facet normal 0 0 1
    outer loop
      vertex 10 11.5 5
      vertex -10 11.5 5
      vertex -0.470378 11.2253 5
    endloop
  endfacet
  facet normal 0 0 1
    outer loop
      vertex 10 11.5 5
      vertex -0.470378 11.2253 5
      vertex 0.470378 11.2253 5
    endloop
  endfacet
  facet normal 0 0 1
    outer loop
      vertex 3.01109 10.0942 5
      vertex 3.64058 9.39503 5
      vertex 10 11.5 5
    endloop
  endfacet
  facet normal 0 0 1
    outer loop
      vertex 4.5 0 5
      vertex 4.40166 -0.935603 5
      vertex 9.6194 -5.41342 5
    endloop
  endfacet
  facet normal 0 0 1
    outer loop
      vertex 4.5 6.75 5
      vertex 4.5 0 5
      vertex 10 -3.5 5
    endloop
  endfacet
  facet normal 0 0 1
    outer loop
      vertex 10 11.5 5
      vertex 4.11095 8.58031 5
      vertex 10 -3.5 5
    endloop
  endfacet
  facet normal 0 0 1
    outer loop
      vertex 10 11.5 5
      vertex 3.64058 9.39503 5
      vertex 4.11095 8.58031 5
    endloop
  endfacet
  facet normal 0 0 1
    outer loop
      vertex 4.40166 7.6856 5
      vertex 4.5 6.75 5
      vertex 10 -3.5 5
    endloop
  endfacet
  facet normal 0 0 1
    outer loop
      vertex 10 -3.5 5
      vertex 4.5 0 5
      vertex 9.6194 -5.41342 5
    endloop
  endfacet
  facet normal 0 0 1
    outer loop
      vertex 0.470378 11.2253 5
      vertex 1.39058 11.0298 5
      vertex 10 11.5 5
    endloop
  endfacet
  facet normal 0 0 1
    outer loop
      vertex 9.6194 -5.41342 5
      vertex 4.40166 -0.935603 5
      vertex 8.53553 -7.03553 5
    endloop
  endfacet
  facet normal 0 0 1
    outer loop
      vertex 4.40166 -0.935603 5
      vertex 4.11095 -1.83031 5
      vertex 8.53553 -7.03553 5
    endloop
  endfacet
  facet normal 0 0 1
    outer loop
      vertex 8.53553 -7.03553 5
      vertex 3.64058 -2.64503 5
      vertex 6.91342 -8.1194 5
    endloop
  endfacet
  facet normal 0 0 1
    outer loop
      vertex 3.64058 -2.64503 5
      vertex 3.01109 -3.34415 5
      vertex 6.91342 -8.1194 5
    endloop
  endfacet
  facet normal 0 0 1
    outer loop
      vertex 4.11095 -1.83031 5
      vertex 3.64058 -2.64503 5
      vertex 8.53553 -7.03553 5
    endloop
  endfacet
  facet normal 0 0 1
    outer loop
      vertex 6.91342 -8.1194 5
      vertex 2.25 -3.89711 5
      vertex 5 -8.5 5
    endloop
  endfacet
  facet normal 0 0 1
    outer loop
      vertex 5 -8.5 5
      vertex 0.470378 -4.47535 5
      vertex -5 -8.5 5
    endloop
  endfacet
  facet normal 0 0 1
    outer loop
      vertex 0.470378 -4.47535 5
      vertex -0.470378 -4.47535 5
      vertex -5 -8.5 5
    endloop
  endfacet
  facet normal 0 0 1
    outer loop
      vertex -0.470378 -4.47535 5
      vertex -1.39058 -4.27975 5
      vertex -5 -8.5 5
    endloop
  endfacet
  facet normal 0 0 1
    outer loop
      vertex -1.39058 -4.27975 5
      vertex -2.25 -3.89711 5
      vertex -5 -8.5 5
    endloop
  endfacet
  facet normal 0 0 1
    outer loop
      vertex -2.25 -3.89711 5
      vertex -3.01109 -3.34415 5
      vertex -5 -8.5 5
    endloop
  endfacet
  facet normal 0 0 1
    outer loop
      vertex -3.01109 -3.34415 5
      vertex -3.64058 -2.64503 5
      vertex -5 -8.5 5
    endloop
  endfacet
  facet normal 0 0 1
    outer loop
      vertex -3.64058 -2.64503 5
      vertex -4.11095 -1.83031 5
      vertex -5 -8.5 5
    endloop
  endfacet
  facet normal 0 0 1
    outer loop
      vertex -4.11095 -1.83031 5
      vertex -4.40166 -0.935603 5
      vertex -5 -8.5 5
    endloop
  endfacet
  facet normal 0 0 1
    outer loop
      vertex 3.01109 -3.34415 5
      vertex 2.25 -3.89711 5
      vertex 6.91342 -8.1194 5
    endloop
  endfacet
  facet normal 0 0 1
    outer loop
      vertex 1.39058 -4.27975 5
      vertex 0.470378 -4.47535 5
      vertex 5 -8.5 5
    endloop
  endfacet
  facet normal 0 0 1
    outer loop
      vertex -4.5 0 5
      vertex -4.5 6.75 5
      vertex -10 11.5 5
    endloop
  endfacet
  facet normal -0.83147 -0.55557 0
    outer loop
      vertex -9.6194 -5.41342 0
      vertex -8.53553 -7.03553 0
      vertex -9.6194 -5.41342 5
    endloop
  endfacet
  facet normal -0.83147 -0.55557 0
    outer loop
      vertex -9.6194 -5.41342 5
      vertex -8.53553 -7.03553 0
      vertex -8.53553 -7.03553 5
    endloop
  endfacet
  facet normal -0.55557 -0.83147 0
    outer loop
      vertex -8.53553 -7.03553 5
      vertex -8.53553 -7.03553 0
      vertex -6.91342 -8.1194 0
    endloop
  endfacet
  facet normal -0.55557 -0.83147 0
    outer loop
      vertex -6.91342 -8.1194 5
      vertex -8.53553 -7.03553 5
      vertex -6.91342 -8.1194 0
    endloop
  endfacet
  facet normal -0.19509 -0.980785 0
    outer loop
      vertex -6.91342 -8.1194 5
      vertex -6.91342 -8.1194 0
      vertex -5 -8.5 0
    endloop
  endfacet
  facet normal -0.19509 -0.980785 0
    outer loop
      vertex -5 -8.5 5
      vertex -6.91342 -8.1194 5
      vertex -5 -8.5 0
    endloop
  endfacet
  facet normal 0 -1 0
    outer loop
      vertex -5 -8.5 5
      vertex -5 -8.5 0
      vertex 5 -8.5 0
    endloop
  endfacet
  facet normal 0 -1 0
    outer loop
      vertex 5 -8.5 5
      vertex -5 -8.5 5
      vertex 5 -8.5 0
    endloop
  endfacet
  facet normal 0.19509 -0.980785 0
    outer loop
      vertex 5 -8.5 5
      vertex 5 -8.5 0
      vertex 6.91342 -8.1194 0
    endloop
  endfacet
  facet normal 0.19509 -0.980785 0
    outer loop
      vertex 6.91342 -8.1194 5
      vertex 5 -8.5 5
      vertex 6.91342 -8.1194 0
    endloop
  endfacet
  facet normal 0.55557 -0.83147 0
    outer loop
      vertex 6.91342 -8.1194 5
      vertex 6.91342 -8.1194 0
      vertex 8.53553 -7.03553 0
    endloop
  endfacet
  facet normal 0.55557 -0.83147 0
    outer loop
      vertex 8.53553 -7.03553 5
      vertex 6.91342 -8.1194 5
      vertex 8.53553 -7.03553 0
    endloop
  endfacet
  facet normal 0.83147 -0.55557 0
    outer loop
      vertex 8.53553 -7.03553 5
      vertex 8.53553 -7.03553 0
      vertex 9.6194 -5.41342 0
    endloop
  endfacet
  facet normal 0.83147 -0.55557 0
    outer loop
      vertex 9.6194 -5.41342 5
      vertex 8.53553 -7.03553 5
      vertex 9.6194 -5.41342 0
    endloop
  endfacet
  facet normal 0.980785 -0.19509 0
    outer loop
      vertex 9.6194 -5.41342 5
      vertex 9.6194 -5.41342 0
      vertex 10 -3.5 0
    endloop
  endfacet
  facet normal 0.980785 -0.19509 0
    outer loop
      vertex 10 -3.5 5
      vertex 9.6194 -5.41342 5
      vertex 10 -3.5 0
    endloop
  endfacet
  facet normal 1 0 0
    outer loop
      vertex 10 -3.5 5
      vertex 10 -3.5 0
      vertex 10 11.5 0
    endloop
  endfacet
  facet normal 1 0 0
    outer loop
      vertex 10 11.5 5
      vertex 10 -3.5 5
      vertex 10 11.5 0
    endloop
  endfacet
  facet normal 0.980785 0.19509 0
    outer loop
      vertex 10 11.5 0
      vertex 9.6194 13.4134 0
      vertex 9.6194 13.4134 5
    endloop
  endfacet
  facet normal 0.980785 0.19509 0
    outer loop
      vertex 10 11.5 5
      vertex 10 11.5 0
      vertex 9.6194 13.4134 5
    endloop
  endfacet
  facet normal 0.83147 0.55557 0
    outer loop
      vertex 9.6194 13.4134 0
      vertex 8.53553 15.0355 0
      vertex 8.53553 15.0355 5
    endloop
  endfacet
  facet normal 0.83147 0.55557 0
    outer loop
      vertex 9.6194 13.4134 5
      vertex 9.6194 13.4134 0
      vertex 8.53553 15.0355 5
    endloop
  endfacet
  facet normal 0.55557 0.83147 0
    outer loop
      vertex 6.91342 16.1194 0
      vertex 6.91342 16.1194 5
      vertex 8.53553 15.0355 0
    endloop
  endfacet
  facet normal 0.55557 0.83147 0
    outer loop
      vertex 8.53553 15.0355 0
      vertex 6.91342 16.1194 5
      vertex 8.53553 15.0355 5
    endloop
  endfacet
  facet normal 0.19509 0.980785 0
    outer loop
      vertex 5 16.5 0
      vertex 5 16.5 5
      vertex 6.91342 16.1194 0
    endloop
  endfacet
  facet normal 0.19509 0.980785 0
    outer loop
      vertex 6.91342 16.1194 0
      vertex 5 16.5 5
      vertex 6.91342 16.1194 5
    endloop
  endfacet
  facet normal 0 1 0
    outer loop
      vertex -5 16.5 0
      vertex -5 16.5 5
      vertex 5 16.5 0
    endloop
  endfacet
  facet normal 0 1 0
    outer loop
      vertex 5 16.5 0
      vertex -5 16.5 5
      vertex 5 16.5 5
    endloop
  endfacet
  facet normal -0.19509 0.980785 0
    outer loop
      vertex -6.91342 16.1194 0
      vertex -6.91342 16.1194 5
      vertex -5 16.5 0
    endloop
  endfacet
  facet normal -0.19509 0.980785 0
    outer loop
      vertex -5 16.5 0
      vertex -6.91342 16.1194 5
      vertex -5 16.5 5
    endloop
  endfacet
  facet normal -0.55557 0.83147 0
    outer loop
      vertex -8.53553 15.0355 0
      vertex -8.53553 15.0355 5
      vertex -6.91342 16.1194 0
    endloop
  endfacet
  facet normal -0.55557 0.83147 0
    outer loop
      vertex -6.91342 16.1194 0
      vertex -8.53553 15.0355 5
      vertex -6.91342 16.1194 5
    endloop
  endfacet
  facet normal -0.83147 0.55557 0
    outer loop
      vertex -9.6194 13.4134 0
      vertex -9.6194 13.4134 5
      vertex -8.53553 15.0355 0
    endloop
  endfacet
  facet normal -0.83147 0.55557 0
    outer loop
      vertex -8.53553 15.0355 0
      vertex -9.6194 13.4134 5
      vertex -8.53553 15.0355 5
    endloop
  endfacet
  facet normal 0.994522 -0.104529 0
    outer loop
      vertex -4.40166 0.935603 0
      vertex -4.40166 0.935603 2.4
      vertex -4.5 0 2.4
    endloop
  endfacet
  facet normal 0.994522 -0.104529 0
    outer loop
      vertex -4.5 0 0
      vertex -4.40166 0.935603 0
      vertex -4.5 0 2.4
    endloop
  endfacet
  facet normal 0.994522 0.104529 0
    outer loop
      vertex -4.5 0 2.4
      vertex -4.5 0 5
      vertex -4.40166 -0.935603 5
    endloop
  endfacet
  facet normal 0.994522 0.104529 0
    outer loop
      vertex -4.5 0 0
      vertex -4.5 0 2.4
      vertex -4.40166 -0.935603 0
    endloop
  endfacet
  facet normal 0.994522 0.104529 0
    outer loop
      vertex -4.40166 -0.935603 0
      vertex -4.5 0 2.4
      vertex -4.40166 -0.935603 5
    endloop
  endfacet
  facet normal 0.951057 -0.309016 0
    outer loop
      vertex -4.11095 1.83031 0
      vertex -4.11095 1.83031 2.4
      vertex -4.40166 0.935603 2.4
    endloop
  endfacet
  facet normal 0.951057 -0.309016 0
    outer loop
      vertex -4.40166 0.935603 0
      vertex -4.11095 1.83031 0
      vertex -4.40166 0.935603 2.4
    endloop
  endfacet
  facet normal 0.866025 -0.500001 0
    outer loop
      vertex -3.64058 2.64503 0
      vertex -3.64058 2.64503 2.4
      vertex -4.11095 1.83031 2.4
    endloop
  endfacet
  facet normal 0.866025 -0.500001 0
    outer loop
      vertex -4.11095 1.83031 0
      vertex -3.64058 2.64503 0
      vertex -4.11095 1.83031 2.4
    endloop
  endfacet
  facet normal 0.743145 -0.66913 0
    outer loop
      vertex -3.01109 3.34415 0
      vertex -3.01109 3.34415 2.4
      vertex -3.64058 2.64503 2.4
    endloop
  endfacet
  facet normal 0.743145 -0.66913 0
    outer loop
      vertex -3.64058 2.64503 0
      vertex -3.01109 3.34415 0
      vertex -3.64058 2.64503 2.4
    endloop
  endfacet
  facet normal 0.587785 -0.809017 0
    outer loop
      vertex -2.25 3.89711 0
      vertex -2.25 3.89711 2.4
      vertex -3.01109 3.34415 2.4
    endloop
  endfacet
  facet normal 0.587785 -0.809017 0
    outer loop
      vertex -3.01109 3.34415 0
      vertex -2.25 3.89711 0
      vertex -3.01109 3.34415 2.4
    endloop
  endfacet
  facet normal 0.406736 -0.913546 0
    outer loop
      vertex -1.94031 4.03499 0
      vertex -1.94031 4.03499 2.4
      vertex -2.25 3.89711 2.4
    endloop
  endfacet
  facet normal 0.406736 -0.913546 0
    outer loop
      vertex -2.25 3.89711 0
      vertex -1.94031 4.03499 0
      vertex -2.25 3.89711 2.4
    endloop
  endfacet
  facet normal 0.951057 0.309016 0
    outer loop
      vertex -1.95629 4.08418 2.4
      vertex -1.94031 4.03499 2.4
      vertex -1.94031 4.03499 0
    endloop
  endfacet
  facet normal 0.951057 0.309016 0
    outer loop
      vertex -1.95629 4.08418 0
      vertex -1.95629 4.08418 2.4
      vertex -1.94031 4.03499 0
    endloop
  endfacet
  facet normal 0.994522 0.104529 0
    outer loop
      vertex -2 4.5 2.4
      vertex -1.95629 4.08418 2.4
      vertex -1.95629 4.08418 0
    endloop
  endfacet
  facet normal 0.994522 0.104529 0
    outer loop
      vertex -2 4.5 0
      vertex -2 4.5 2.4
      vertex -1.95629 4.08418 0
    endloop
  endfacet
  facet normal 1 0 0
    outer loop
      vertex -2 6.75 0
      vertex -2 6.75 2.4
      vertex -2 4.5 2.4
    endloop
  endfacet
  facet normal 1 0 0
    outer loop
      vertex -2 4.5 0
      vertex -2 6.75 0
      vertex -2 4.5 2.4
    endloop
  endfacet
  facet normal 0.994522 -0.104529 0
    outer loop
      vertex -1.95629 7.16582 0
      vertex -1.95629 7.16582 2.4
      vertex -2 6.75 2.4
    endloop
  endfacet
  facet normal 0.994522 -0.104529 0
    outer loop
      vertex -2 6.75 0
      vertex -1.95629 7.16582 0
      vertex -2 6.75 2.4
    endloop
  endfacet
  facet normal 0.951057 -0.309016 0
    outer loop
      vertex -1.82709 7.56347 0
      vertex -1.82709 7.56347 2.4
      vertex -1.95629 7.16582 2.4
    endloop
  endfacet
  facet normal 0.951057 -0.309016 0
    outer loop
      vertex -1.95629 7.16582 0
      vertex -1.82709 7.56347 0
      vertex -1.95629 7.16582 2.4
    endloop
  endfacet
  facet normal 0.866026 -0.499999 0
    outer loop
      vertex -1.61803 7.92557 0
      vertex -1.61803 7.92557 2.4
      vertex -1.82709 7.56347 2.4
    endloop
  endfacet
  facet normal 0.866026 -0.499999 0
    outer loop
      vertex -1.82709 7.56347 0
      vertex -1.61803 7.92557 0
      vertex -1.82709 7.56347 2.4
    endloop
  endfacet
  facet normal 0.743144 -0.669131 0
    outer loop
      vertex -1.33826 8.23629 0
      vertex -1.33826 8.23629 2.4
      vertex -1.61803 7.92557 2.4
    endloop
  endfacet
  facet normal 0.743144 -0.669131 0
    outer loop
      vertex -1.61803 7.92557 0
      vertex -1.33826 8.23629 0
      vertex -1.61803 7.92557 2.4
    endloop
  endfacet
  facet normal 0.587785 -0.809017 0
    outer loop
      vertex -1 8.48205 0
      vertex -1 8.48205 2.4
      vertex -1.33826 8.23629 2.4
    endloop
  endfacet
  facet normal 0.587785 -0.809017 0
    outer loop
      vertex -1.33826 8.23629 0
      vertex -1 8.48205 0
      vertex -1.33826 8.23629 2.4
    endloop
  endfacet
  facet normal 0.406736 -0.913546 0
    outer loop
      vertex -0.618034 8.65211 0
      vertex -0.618034 8.65211 2.4
      vertex -1 8.48205 2.4
    endloop
  endfacet
  facet normal 0.406736 -0.913546 0
    outer loop
      vertex -1 8.48205 0
      vertex -0.618034 8.65211 0
      vertex -1 8.48205 2.4
    endloop
  endfacet
  facet normal 0.207912 -0.978147 0
    outer loop
      vertex -0.209057 8.73904 0
      vertex -0.209057 8.73904 2.4
      vertex -0.618034 8.65211 2.4
    endloop
  endfacet
  facet normal 0.207912 -0.978147 0
    outer loop
      vertex -0.618034 8.65211 0
      vertex -0.209057 8.73904 0
      vertex -0.618034 8.65211 2.4
    endloop
  endfacet
  facet normal 0 -1 0
    outer loop
      vertex 0.209057 8.73904 0
      vertex 0.209057 8.73904 2.4
      vertex -0.209057 8.73904 2.4
    endloop
  endfacet
  facet normal 0 -1 0
    outer loop
      vertex -0.209057 8.73904 0
      vertex 0.209057 8.73904 0
      vertex -0.209057 8.73904 2.4
    endloop
  endfacet
  facet normal -0.207912 -0.978147 0
    outer loop
      vertex 0.618034 8.65211 0
      vertex 0.618034 8.65211 2.4
      vertex 0.209057 8.73904 2.4
    endloop
  endfacet
  facet normal -0.207912 -0.978147 0
    outer loop
      vertex 0.209057 8.73904 0
      vertex 0.618034 8.65211 0
      vertex 0.209057 8.73904 2.4
    endloop
  endfacet
  facet normal -0.406736 -0.913546 0
    outer loop
      vertex 1 8.48205 0
      vertex 1 8.48205 2.4
      vertex 0.618034 8.65211 2.4
    endloop
  endfacet
  facet normal -0.406736 -0.913546 0
    outer loop
      vertex 0.618034 8.65211 0
      vertex 1 8.48205 0
      vertex 0.618034 8.65211 2.4
    endloop
  endfacet
  facet normal -0.587785 -0.809017 0
    outer loop
      vertex 1.33826 8.23629 0
      vertex 1.33826 8.23629 2.4
      vertex 1 8.48205 2.4
    endloop
  endfacet
  facet normal -0.587785 -0.809017 0
    outer loop
      vertex 1 8.48205 0
      vertex 1.33826 8.23629 0
      vertex 1 8.48205 2.4
    endloop
  endfacet
  facet normal -0.743144 -0.669131 0
    outer loop
      vertex 1.61803 7.92557 2.4
      vertex 1.33826 8.23629 2.4
      vertex 1.61803 7.92557 0
    endloop
  endfacet
  facet normal -0.743144 -0.669131 0
    outer loop
      vertex 1.61803 7.92557 0
      vertex 1.33826 8.23629 2.4
      vertex 1.33826 8.23629 0
    endloop
  endfacet
  facet normal -0.866026 -0.499999 0
    outer loop
      vertex 1.82709 7.56347 2.4
      vertex 1.61803 7.92557 2.4
      vertex 1.82709 7.56347 0
    endloop
  endfacet
  facet normal -0.866026 -0.499999 0
    outer loop
      vertex 1.82709 7.56347 0
      vertex 1.61803 7.92557 2.4
      vertex 1.61803 7.92557 0
    endloop
  endfacet
  facet normal -0.951057 -0.309016 0
    outer loop
      vertex 1.95629 7.16582 2.4
      vertex 1.82709 7.56347 2.4
      vertex 1.95629 7.16582 0
    endloop
  endfacet
  facet normal -0.951057 -0.309016 0
    outer loop
      vertex 1.95629 7.16582 0
      vertex 1.82709 7.56347 2.4
      vertex 1.82709 7.56347 0
    endloop
  endfacet
  facet normal -0.994522 -0.104529 0
    outer loop
      vertex 2 6.75 2.4
      vertex 1.95629 7.16582 2.4
      vertex 2 6.75 0
    endloop
  endfacet
  facet normal -0.994522 -0.104529 0
    outer loop
      vertex 2 6.75 0
      vertex 1.95629 7.16582 2.4
      vertex 1.95629 7.16582 0
    endloop
  endfacet
  facet normal -1 0 0
    outer loop
      vertex 2 6.75 2.4
      vertex 2 6.75 0
      vertex 2 4.5 2.4
    endloop
  endfacet
  facet normal -1 0 0
    outer loop
      vertex 2 4.5 2.4
      vertex 2 6.75 0
      vertex 2 4.5 0
    endloop
  endfacet
  facet normal -0.994522 0.104529 0
    outer loop
      vertex 2 4.5 2.4
      vertex 2 4.5 0
      vertex 1.95629 4.08418 2.4
    endloop
  endfacet
  facet normal -0.994522 0.104529 0
    outer loop
      vertex 1.95629 4.08418 2.4
      vertex 2 4.5 0
      vertex 1.95629 4.08418 0
    endloop
  endfacet
  facet normal -0.951057 0.309016 0
    outer loop
      vertex 1.95629 4.08418 2.4
      vertex 1.95629 4.08418 0
      vertex 1.94031 4.03499 2.4
    endloop
  endfacet
  facet normal -0.951057 0.309016 0
    outer loop
      vertex 1.94031 4.03499 2.4
      vertex 1.95629 4.08418 0
      vertex 1.94031 4.03499 0
    endloop
  endfacet
  facet normal -0.406736 -0.913546 0
    outer loop
      vertex 2.25 3.89711 0
      vertex 2.25 3.89711 2.4
      vertex 1.94031 4.03499 2.4
    endloop
  endfacet
  facet normal -0.406736 -0.913546 0
    outer loop
      vertex 1.94031 4.03499 0
      vertex 2.25 3.89711 0
      vertex 1.94031 4.03499 2.4
    endloop
  endfacet
  facet normal -0.587785 -0.809017 0
    outer loop
      vertex 3.01109 3.34415 0
      vertex 3.01109 3.34415 2.4
      vertex 2.25 3.89711 2.4
    endloop
  endfacet
  facet normal -0.587785 -0.809017 0
    outer loop
      vertex 2.25 3.89711 0
      vertex 3.01109 3.34415 0
      vertex 2.25 3.89711 2.4
    endloop
  endfacet
  facet normal -0.743145 -0.66913 0
    outer loop
      vertex 3.64058 2.64503 2.4
      vertex 3.01109 3.34415 2.4
      vertex 3.64058 2.64503 0
    endloop
  endfacet
  facet normal -0.743145 -0.66913 0
    outer loop
      vertex 3.64058 2.64503 0
      vertex 3.01109 3.34415 2.4
      vertex 3.01109 3.34415 0
    endloop
  endfacet
  facet normal -0.866025 -0.500001 0
    outer loop
      vertex 4.11095 1.83031 2.4
      vertex 3.64058 2.64503 2.4
      vertex 4.11095 1.83031 0
    endloop
  endfacet
  facet normal -0.866025 -0.500001 0
    outer loop
      vertex 4.11095 1.83031 0
      vertex 3.64058 2.64503 2.4
      vertex 3.64058 2.64503 0
    endloop
  endfacet
  facet normal -0.951057 -0.309016 0
    outer loop
      vertex 4.40166 0.935603 2.4
      vertex 4.11095 1.83031 2.4
      vertex 4.40166 0.935603 0
    endloop
  endfacet
  facet normal -0.951057 -0.309016 0
    outer loop
      vertex 4.40166 0.935603 0
      vertex 4.11095 1.83031 2.4
      vertex 4.11095 1.83031 0
    endloop
  endfacet
  facet normal -0.994522 -0.104529 0
    outer loop
      vertex 4.5 0 2.4
      vertex 4.40166 0.935603 2.4
      vertex 4.5 0 0
    endloop
  endfacet
  facet normal -0.994522 -0.104529 0
    outer loop
      vertex 4.5 0 0
      vertex 4.40166 0.935603 2.4
      vertex 4.40166 0.935603 0
    endloop
  endfacet
  facet normal -0.994522 0.104529 0
    outer loop
      vertex 4.5 0 5
      vertex 4.5 0 2.4
      vertex 4.40166 -0.935603 5
    endloop
  endfacet
  facet normal -0.994522 0.104529 0
    outer loop
      vertex 4.40166 -0.935603 5
      vertex 4.5 0 2.4
      vertex 4.5 0 0
    endloop
  endfacet
  facet normal -0.994522 0.104529 0
    outer loop
      vertex 4.40166 -0.935603 5
      vertex 4.5 0 0
      vertex 4.40166 -0.935603 0
    endloop
  endfacet
  facet normal -0.951057 0.309016 0
    outer loop
      vertex 4.40166 -0.935603 5
      vertex 4.40166 -0.935603 0
      vertex 4.11095 -1.83031 5
    endloop
  endfacet
  facet normal -0.951057 0.309016 0
    outer loop
      vertex 4.11095 -1.83031 5
      vertex 4.40166 -0.935603 0
      vertex 4.11095 -1.83031 0
    endloop
  endfacet
  facet normal -0.866025 0.500001 0
    outer loop
      vertex 4.11095 -1.83031 5
      vertex 4.11095 -1.83031 0
      vertex 3.64058 -2.64503 5
    endloop
  endfacet
  facet normal -0.866025 0.500001 0
    outer loop
      vertex 3.64058 -2.64503 5
      vertex 4.11095 -1.83031 0
      vertex 3.64058 -2.64503 0
    endloop
  endfacet
  facet normal -0.743145 0.66913 0
    outer loop
      vertex 3.64058 -2.64503 5
      vertex 3.64058 -2.64503 0
      vertex 3.01109 -3.34415 5
    endloop
  endfacet
  facet normal -0.743145 0.66913 0
    outer loop
      vertex 3.01109 -3.34415 5
      vertex 3.64058 -2.64503 0
      vertex 3.01109 -3.34415 0
    endloop
  endfacet
  facet normal -0.587785 0.809017 0
    outer loop
      vertex 3.01109 -3.34415 5
      vertex 3.01109 -3.34415 0
      vertex 2.25 -3.89711 5
    endloop
  endfacet
  facet normal -0.587785 0.809017 0
    outer loop
      vertex 2.25 -3.89711 5
      vertex 3.01109 -3.34415 0
      vertex 2.25 -3.89711 0
    endloop
  endfacet
  facet normal -0.406736 0.913546 0
    outer loop
      vertex 2.25 -3.89711 5
      vertex 2.25 -3.89711 0
      vertex 1.39058 -4.27975 5
    endloop
  endfacet
  facet normal -0.406736 0.913546 0
    outer loop
      vertex 1.39058 -4.27975 5
      vertex 2.25 -3.89711 0
      vertex 1.39058 -4.27975 0
    endloop
  endfacet
  facet normal -0.207913 0.978147 0
    outer loop
      vertex 1.39058 -4.27975 5
      vertex 1.39058 -4.27975 0
      vertex 0.470378 -4.47535 5
    endloop
  endfacet
  facet normal -0.207913 0.978147 0
    outer loop
      vertex 0.470378 -4.47535 5
      vertex 1.39058 -4.27975 0
      vertex 0.470378 -4.47535 0
    endloop
  endfacet
  facet normal 0 1 0
    outer loop
      vertex 0.470378 -4.47535 5
      vertex 0.470378 -4.47535 0
      vertex -0.470378 -4.47535 5
    endloop
  endfacet
  facet normal 0 1 0
    outer loop
      vertex -0.470378 -4.47535 5
      vertex 0.470378 -4.47535 0
      vertex -0.470378 -4.47535 0
    endloop
  endfacet
  facet normal 0.207913 0.978147 0
    outer loop
      vertex -0.470378 -4.47535 5
      vertex -0.470378 -4.47535 0
      vertex -1.39058 -4.27975 5
    endloop
  endfacet
  facet normal 0.207913 0.978147 0
    outer loop
      vertex -1.39058 -4.27975 5
      vertex -0.470378 -4.47535 0
      vertex -1.39058 -4.27975 0
    endloop
  endfacet
  facet normal 0.406736 0.913546 0
    outer loop
      vertex -1.39058 -4.27975 5
      vertex -1.39058 -4.27975 0
      vertex -2.25 -3.89711 5
    endloop
  endfacet
  facet normal 0.406736 0.913546 0
    outer loop
      vertex -2.25 -3.89711 5
      vertex -1.39058 -4.27975 0
      vertex -2.25 -3.89711 0
    endloop
  endfacet
  facet normal 0.587785 0.809017 0
    outer loop
      vertex -2.25 -3.89711 5
      vertex -2.25 -3.89711 0
      vertex -3.01109 -3.34415 5
    endloop
  endfacet
  facet normal 0.587785 0.809017 0
    outer loop
      vertex -3.01109 -3.34415 5
      vertex -2.25 -3.89711 0
      vertex -3.01109 -3.34415 0
    endloop
  endfacet
  facet normal 0.743145 0.66913 0
    outer loop
      vertex -3.64058 -2.64503 5
      vertex -3.01109 -3.34415 5
      vertex -3.01109 -3.34415 0
    endloop
  endfacet
  facet normal 0.743145 0.66913 0
    outer loop
      vertex -3.64058 -2.64503 0
      vertex -3.64058 -2.64503 5
      vertex -3.01109 -3.34415 0
    endloop
  endfacet
  facet normal 0.866025 0.500001 0
    outer loop
      vertex -4.11095 -1.83031 5
      vertex -3.64058 -2.64503 5
      vertex -3.64058 -2.64503 0
    endloop
  endfacet
  facet normal 0.866025 0.500001 0
    outer loop
      vertex -4.11095 -1.83031 0
      vertex -4.11095 -1.83031 5
      vertex -3.64058 -2.64503 0
    endloop
  endfacet
  facet normal 0.951057 0.309016 0
    outer loop
      vertex -4.40166 -0.935603 5
      vertex -4.11095 -1.83031 5
      vertex -4.11095 -1.83031 0
    endloop
  endfacet
  facet normal 0.951057 0.309016 0
    outer loop
      vertex -4.40166 -0.935603 0
      vertex -4.40166 -0.935603 5
      vertex -4.11095 -1.83031 0
    endloop
  endfacet
  facet normal 1 0 0
    outer loop
      vertex -4.5 6.75 2.4
      vertex -4.5 6.75 5
      vertex -4.5 0 5
    endloop
  endfacet
  facet normal 1 0 0
    outer loop
      vertex -4.5 0 2.4
      vertex -4.5 6.75 2.4
      vertex -4.5 0 5
    endloop
  endfacet
  facet normal -1 0 0
    outer loop
      vertex 4.5 6.75 5
      vertex 4.5 6.75 2.4
      vertex 4.5 0 5
    endloop
  endfacet
  facet normal -1 0 0
    outer loop
      vertex 4.5 0 5
      vertex 4.5 6.75 2.4
      vertex 4.5 0 2.4
    endloop
  endfacet
  facet normal -0.994522 -0.104529 0
    outer loop
      vertex 4.5 6.75 5
      vertex 4.40166 7.6856 5
      vertex 4.5 6.75 2.4
    endloop
  endfacet
  facet normal -0.994522 -0.104529 0
    outer loop
      vertex 4.5 6.75 2.4
      vertex 4.40166 7.6856 5
      vertex 4.40166 7.6856 2.4
    endloop
  endfacet
  facet normal -0.951057 -0.309016 0
    outer loop
      vertex 4.40166 7.6856 5
      vertex 4.11095 8.58031 5
      vertex 4.40166 7.6856 2.4
    endloop
  endfacet
  facet normal -0.951057 -0.309016 0
    outer loop
      vertex 4.40166 7.6856 2.4
      vertex 4.11095 8.58031 5
      vertex 4.11095 8.58031 2.4
    endloop
  endfacet
  facet normal -0.866025 -0.500001 0
    outer loop
      vertex 4.11095 8.58031 5
      vertex 3.64058 9.39503 5
      vertex 4.11095 8.58031 2.4
    endloop
  endfacet
  facet normal -0.866025 -0.500001 0
    outer loop
      vertex 4.11095 8.58031 2.4
      vertex 3.64058 9.39503 5
      vertex 3.64058 9.39503 2.4
    endloop
  endfacet
  facet normal -0.743145 -0.66913 0
    outer loop
      vertex 3.64058 9.39503 5
      vertex 3.01109 10.0942 5
      vertex 3.64058 9.39503 2.4
    endloop
  endfacet
  facet normal -0.743145 -0.66913 0
    outer loop
      vertex 3.64058 9.39503 2.4
      vertex 3.01109 10.0942 5
      vertex 3.01109 10.0942 2.4
    endloop
  endfacet
  facet normal -0.587785 -0.809017 0
    outer loop
      vertex 3.01109 10.0942 2.4
      vertex 3.01109 10.0942 5
      vertex 2.25 10.6471 5
    endloop
  endfacet
  facet normal -0.587785 -0.809017 0
    outer loop
      vertex 2.25 10.6471 2.4
      vertex 3.01109 10.0942 2.4
      vertex 2.25 10.6471 5
    endloop
  endfacet
  facet normal -0.406736 -0.913546 0
    outer loop
      vertex 2.25 10.6471 2.4
      vertex 2.25 10.6471 5
      vertex 1.39058 11.0298 5
    endloop
  endfacet
  facet normal -0.406736 -0.913546 0
    outer loop
      vertex 1.39058 11.0298 2.4
      vertex 2.25 10.6471 2.4
      vertex 1.39058 11.0298 5
    endloop
  endfacet
  facet normal -0.207913 -0.978147 0
    outer loop
      vertex 1.39058 11.0298 2.4
      vertex 1.39058 11.0298 5
      vertex 0.470378 11.2253 5
    endloop
  endfacet
  facet normal -0.207913 -0.978147 0
    outer loop
      vertex 0.470378 11.2253 2.4
      vertex 1.39058 11.0298 2.4
      vertex 0.470378 11.2253 5
    endloop
  endfacet
  facet normal 0 -1 0
    outer loop
      vertex 0.470378 11.2253 2.4
      vertex 0.470378 11.2253 5
      vertex -0.470378 11.2253 5
    endloop
  endfacet
  facet normal 0 -1 0
    outer loop
      vertex -0.470378 11.2253 2.4
      vertex 0.470378 11.2253 2.4
      vertex -0.470378 11.2253 5
    endloop
  endfacet
  facet normal 0.207913 -0.978147 0
    outer loop
      vertex -0.470378 11.2253 2.4
      vertex -0.470378 11.2253 5
      vertex -1.39058 11.0298 5
    endloop
  endfacet
  facet normal 0.207913 -0.978147 0
    outer loop
      vertex -1.39058 11.0298 2.4
      vertex -0.470378 11.2253 2.4
      vertex -1.39058 11.0298 5
    endloop
  endfacet
  facet normal 0.406736 -0.913546 0
    outer loop
      vertex -1.39058 11.0298 2.4
      vertex -1.39058 11.0298 5
      vertex -2.25 10.6471 5
    endloop
  endfacet
  facet normal 0.406736 -0.913546 0
    outer loop
      vertex -2.25 10.6471 2.4
      vertex -1.39058 11.0298 2.4
      vertex -2.25 10.6471 5
    endloop
  endfacet
  facet normal 0.587785 -0.809017 0
    outer loop
      vertex -2.25 10.6471 2.4
      vertex -2.25 10.6471 5
      vertex -3.01109 10.0942 5
    endloop
  endfacet
  facet normal 0.587785 -0.809017 0
    outer loop
      vertex -3.01109 10.0942 2.4
      vertex -2.25 10.6471 2.4
      vertex -3.01109 10.0942 5
    endloop
  endfacet
  facet normal 0.743145 -0.66913 0
    outer loop
      vertex -3.01109 10.0942 2.4
      vertex -3.01109 10.0942 5
      vertex -3.64058 9.39503 5
    endloop
  endfacet
  facet normal 0.743145 -0.66913 0
    outer loop
      vertex -3.64058 9.39503 2.4
      vertex -3.01109 10.0942 2.4
      vertex -3.64058 9.39503 5
    endloop
  endfacet
  facet normal 0.866025 -0.500001 0
    outer loop
      vertex -3.64058 9.39503 2.4
      vertex -3.64058 9.39503 5
      vertex -4.11095 8.58031 5
    endloop
  endfacet
  facet normal 0.866025 -0.500001 0
    outer loop
      vertex -4.11095 8.58031 2.4
      vertex -3.64058 9.39503 2.4
      vertex -4.11095 8.58031 5
    endloop
  endfacet
  facet normal 0.951057 -0.309016 0
    outer loop
      vertex -4.11095 8.58031 2.4
      vertex -4.11095 8.58031 5
      vertex -4.40166 7.6856 5
    endloop
  endfacet
  facet normal 0.951057 -0.309016 0
    outer loop
      vertex -4.40166 7.6856 2.4
      vertex -4.11095 8.58031 2.4
      vertex -4.40166 7.6856 5
    endloop
  endfacet
  facet normal 0.994522 -0.104529 0
    outer loop
      vertex -4.40166 7.6856 2.4
      vertex -4.40166 7.6856 5
      vertex -4.5 6.75 5
    endloop
  endfacet
  facet normal 0.994522 -0.104529 0
    outer loop
      vertex -4.5 6.75 2.4
      vertex -4.40166 7.6856 2.4
      vertex -4.5 6.75 5
    endloop
  endfacet
  facet normal 0 0 1
    outer loop
      vertex -2 6.75 2.4
      vertex -4.11095 1.83031 2.4
      vertex -3.64058 2.64503 2.4
    endloop
  endfacet
  facet normal 0 0 1
    outer loop
      vertex -2.25 3.89711 2.4
      vertex -2 4.5 2.4
      vertex -3.01109 3.34415 2.4
    endloop
  endfacet
  facet normal 0 0 1
    outer loop
      vertex -3.01109 3.34415 2.4
      vertex -2 4.5 2.4
      vertex -3.64058 2.64503 2.4
    endloop
  endfacet
  facet normal 0 0 1
    outer loop
      vertex -4.40166 0.935603 2.4
      vertex -4.11095 1.83031 2.4
      vertex -1.39058 11.0298 2.4
    endloop
  endfacet
  facet normal 0 0 1
    outer loop
      vertex -1.95629 4.08418 2.4
      vertex -2 4.5 2.4
      vertex -2.25 3.89711 2.4
    endloop
  endfacet
  facet normal 0 0 1
    outer loop
      vertex 1.82709 7.56347 2.4
      vertex 4.5 6.75 2.4
      vertex 1.61803 7.92557 2.4
    endloop
  endfacet
  facet normal 0 0 1
    outer loop
      vertex -1.94031 4.03499 2.4
      vertex -1.95629 4.08418 2.4
      vertex -2.25 3.89711 2.4
    endloop
  endfacet
  facet normal 0 0 1
    outer loop
      vertex -1.95629 7.16582 2.4
      vertex -1.82709 7.56347 2.4
      vertex -4.11095 1.83031 2.4
    endloop
  endfacet
  facet normal 0 0 1
    outer loop
      vertex -1.82709 7.56347 2.4
      vertex -0.470378 11.2253 2.4
      vertex -4.11095 1.83031 2.4
    endloop
  endfacet
  facet normal 0 0 1
    outer loop
      vertex -2 4.5 2.4
      vertex -2 6.75 2.4
      vertex -3.64058 2.64503 2.4
    endloop
  endfacet
  facet normal 0 0 1
    outer loop
      vertex -2 6.75 2.4
      vertex -1.95629 7.16582 2.4
      vertex -4.11095 1.83031 2.4
    endloop
  endfacet
  facet normal 0 0 1
    outer loop
      vertex -1.61803 7.92557 2.4
      vertex -0.470378 11.2253 2.4
      vertex -1.82709 7.56347 2.4
    endloop
  endfacet
  facet normal 0 0 1
    outer loop
      vertex -1.33826 8.23629 2.4
      vertex 0.470378 11.2253 2.4
      vertex -1.61803 7.92557 2.4
    endloop
  endfacet
  facet normal 0 0 1
    outer loop
      vertex -1 8.48205 2.4
      vertex 1.39058 11.0298 2.4
      vertex -1.33826 8.23629 2.4
    endloop
  endfacet
  facet normal 0 0 1
    outer loop
      vertex -0.618034 8.65211 2.4
      vertex 2.25 10.6471 2.4
      vertex -1 8.48205 2.4
    endloop
  endfacet
  facet normal 0 0 1
    outer loop
      vertex -0.209057 8.73904 2.4
      vertex 3.01109 10.0942 2.4
      vertex -0.618034 8.65211 2.4
    endloop
  endfacet
  facet normal 0 0 1
    outer loop
      vertex 0.209057 8.73904 2.4
      vertex 3.64058 9.39503 2.4
      vertex -0.209057 8.73904 2.4
    endloop
  endfacet
  facet normal 0 0 1
    outer loop
      vertex 0.618034 8.65211 2.4
      vertex 4.11095 8.58031 2.4
      vertex 0.209057 8.73904 2.4
    endloop
  endfacet
  facet normal 0 0 1
    outer loop
      vertex 1 8.48205 2.4
      vertex 4.40166 7.6856 2.4
      vertex 0.618034 8.65211 2.4
    endloop
  endfacet
  facet normal 0 0 1
    outer loop
      vertex 1.33826 8.23629 2.4
      vertex 4.5 6.75 2.4
      vertex 1 8.48205 2.4
    endloop
  endfacet
  facet normal 0 0 1
    outer loop
      vertex 1.61803 7.92557 2.4
      vertex 4.5 6.75 2.4
      vertex 1.33826 8.23629 2.4
    endloop
  endfacet
  facet normal 0 0 1
    outer loop
      vertex 1.95629 7.16582 2.4
      vertex 3.64058 2.64503 2.4
      vertex 1.82709 7.56347 2.4
    endloop
  endfacet
  facet normal 0 0 1
    outer loop
      vertex 2 6.75 2.4
      vertex 3.01109 3.34415 2.4
      vertex 1.95629 7.16582 2.4
    endloop
  endfacet
  facet normal 0 0 1
    outer loop
      vertex 2 4.5 2.4
      vertex 2.25 3.89711 2.4
      vertex 2 6.75 2.4
    endloop
  endfacet
  facet normal 0 0 1
    outer loop
      vertex 1.95629 4.08418 2.4
      vertex 2.25 3.89711 2.4
      vertex 2 4.5 2.4
    endloop
  endfacet
  facet normal 0 0 1
    outer loop
      vertex 1.94031 4.03499 2.4
      vertex 2.25 3.89711 2.4
      vertex 1.95629 4.08418 2.4
    endloop
  endfacet
  facet normal 0 0 1
    outer loop
      vertex 4.11095 1.83031 2.4
      vertex 4.5 6.75 2.4
      vertex 1.82709 7.56347 2.4
    endloop
  endfacet
  facet normal 0 0 1
    outer loop
      vertex 4.40166 0.935603 2.4
      vertex 4.5 6.75 2.4
      vertex 4.11095 1.83031 2.4
    endloop
  endfacet
  facet normal 0 0 1
    outer loop
      vertex 2.25 3.89711 2.4
      vertex 3.01109 3.34415 2.4
      vertex 2 6.75 2.4
    endloop
  endfacet
  facet normal 0 0 1
    outer loop
      vertex 3.01109 3.34415 2.4
      vertex 3.64058 2.64503 2.4
      vertex 1.95629 7.16582 2.4
    endloop
  endfacet
  facet normal 0 0 1
    outer loop
      vertex 3.64058 2.64503 2.4
      vertex 4.11095 1.83031 2.4
      vertex 1.82709 7.56347 2.4
    endloop
  endfacet
  facet normal 0 0 1
    outer loop
      vertex 4.5 0 2.4
      vertex 4.5 6.75 2.4
      vertex 4.40166 0.935603 2.4
    endloop
  endfacet
  facet normal 0 0 1
    outer loop
      vertex 4.5 6.75 2.4
      vertex 4.40166 7.6856 2.4
      vertex 1 8.48205 2.4
    endloop
  endfacet
  facet normal 0 0 1
    outer loop
      vertex 4.40166 7.6856 2.4
      vertex 4.11095 8.58031 2.4
      vertex 0.618034 8.65211 2.4
    endloop
  endfacet
  facet normal 0 0 1
    outer loop
      vertex 4.11095 8.58031 2.4
      vertex 3.64058 9.39503 2.4
      vertex 0.209057 8.73904 2.4
    endloop
  endfacet
  facet normal 0 0 1
    outer loop
      vertex 3.64058 9.39503 2.4
      vertex 3.01109 10.0942 2.4
      vertex -0.209057 8.73904 2.4
    endloop
  endfacet
  facet normal 0 0 1
    outer loop
      vertex 3.01109 10.0942 2.4
      vertex 2.25 10.6471 2.4
      vertex -0.618034 8.65211 2.4
    endloop
  endfacet
  facet normal 0 0 1
    outer loop
      vertex 2.25 10.6471 2.4
      vertex 1.39058 11.0298 2.4
      vertex -1 8.48205 2.4
    endloop
  endfacet
  facet normal 0 0 1
    outer loop
      vertex 1.39058 11.0298 2.4
      vertex 0.470378 11.2253 2.4
      vertex -1.33826 8.23629 2.4
    endloop
  endfacet
  facet normal 0 0 1
    outer loop
      vertex 0.470378 11.2253 2.4
      vertex -0.470378 11.2253 2.4
      vertex -1.61803 7.92557 2.4
    endloop
  endfacet
  facet normal 0 0 1
    outer loop
      vertex -0.470378 11.2253 2.4
      vertex -1.39058 11.0298 2.4
      vertex -4.11095 1.83031 2.4
    endloop
  endfacet
  facet normal 0 0 1
    outer loop
      vertex -1.39058 11.0298 2.4
      vertex -2.25 10.6471 2.4
      vertex -4.40166 0.935603 2.4
    endloop
  endfacet
  facet normal 0 0 1
    outer loop
      vertex -2.25 10.6471 2.4
      vertex -3.01109 10.0942 2.4
      vertex -4.40166 0.935603 2.4
    endloop
  endfacet
  facet normal 0 0 1
    outer loop
      vertex -3.01109 10.0942 2.4
      vertex -3.64058 9.39503 2.4
      vertex -4.40166 0.935603 2.4
    endloop
  endfacet
  facet normal 0 0 1
    outer loop
      vertex -3.64058 9.39503 2.4
      vertex -4.11095 8.58031 2.4
      vertex -4.40166 0.935603 2.4
    endloop
  endfacet
  facet normal 0 0 1
    outer loop
      vertex -4.11095 8.58031 2.4
      vertex -4.40166 7.6856 2.4
      vertex -4.40166 0.935603 2.4
    endloop
  endfacet
  facet normal 0 0 1
    outer loop
      vertex -4.40166 7.6856 2.4
      vertex -4.5 6.75 2.4
      vertex -4.40166 0.935603 2.4
    endloop
  endfacet
  facet normal 0 0 1
    outer loop
      vertex -4.5 6.75 2.4
      vertex -4.5 0 2.4
      vertex -4.40166 0.935603 2.4
    endloop
  endfacet
endsolid OpenSCAD_Model
