solid OpenSCAD_Model
  facet normal -0.987688 -0.156435 0
    outer loop
      vertex -28 3.4289e-015 0.5
      vertex -27.6085 -2.47214 0.5
      vertex -28 3.4289e-015 10.5
    endloop
  endfacet
  facet normal -0.987688 -0.156435 0
    outer loop
      vertex -28 3.4289e-015 10.5
      vertex -27.6085 -2.47214 0.5
      vertex -27.6085 -2.47214 10.5
    endloop
  endfacet
  facet normal 0 0 -1
    outer loop
      vertex -28 3.4289e-015 0.5
      vertex -27.6085 2.47214 0.5
      vertex -27.6085 -2.47214 0.5
    endloop
  endfacet
  facet normal 0 0 -1
    outer loop
      vertex -27.6085 -2.47214 0.5
      vertex -27.6085 2.47214 0.5
      vertex -26.4721 4.70228 0.5
    endloop
  endfacet
  facet normal 0 0 -1
    outer loop
      vertex -27.6085 -2.47214 0.5
      vertex -26.4721 4.70228 0.5
      vertex -24.7023 6.47214 0.5
    endloop
  endfacet
  facet normal 0 0 -1
    outer loop
      vertex -27.6085 -2.47214 0.5
      vertex -24.7023 6.47214 0.5
      vertex -22.4721 7.60845 0.5
    endloop
  endfacet
  facet normal 0 0 -1
    outer loop
      vertex -27.6085 -2.47214 0.5
      vertex -22.4721 7.60845 0.5
      vertex -10.114 10.114 0.5
    endloop
  endfacet
  facet normal 0 0 -1
    outer loop
      vertex -7.60845 22.4721 0.5
      vertex -6.47214 24.7023 0.5
      vertex -10.114 10.114 0.5
    endloop
  endfacet
  facet normal 0 0 -1
    outer loop
      vertex -10.114 10.114 0.5
      vertex -6.47214 24.7023 0.5
      vertex -4.70228 26.4721 0.5
    endloop
  endfacet
  facet normal 0 0 -1
    outer loop
      vertex -10.114 10.114 0.5
      vertex -4.70228 26.4721 0.5
      vertex -2.47214 27.6085 0.5
    endloop
  endfacet
  facet normal 0 0 -1
    outer loop
      vertex -10.114 10.114 0.5
      vertex -2.47214 27.6085 0.5
      vertex 4.965e-015 28 0.5
    endloop
  endfacet
  facet normal 0 0 -1
    outer loop
      vertex -10.114 10.114 0.5
      vertex 4.965e-015 28 0.5
      vertex 2.47214 27.6085 0.5
    endloop
  endfacet
  facet normal 0 0 -1
    outer loop
      vertex -10.114 10.114 0.5
      vertex 2.47214 27.6085 0.5
      vertex 4.70228 26.4721 0.5
    endloop
  endfacet
  facet normal 0 0 -1
    outer loop
      vertex -10.114 10.114 0.5
      vertex 4.70228 26.4721 0.5
      vertex 6.47214 24.7023 0.5
    endloop
  endfacet
  facet normal 0 0 -1
    outer loop
      vertex -10.114 10.114 0.5
      vertex 6.47214 24.7023 0.5
      vertex 7.60845 22.4721 0.5
    endloop
  endfacet
  facet normal 0 0 -1
    outer loop
      vertex -10.114 10.114 0.5
      vertex 7.60845 22.4721 0.5
      vertex -27.6085 -2.47214 0.5
    endloop
  endfacet
  facet normal 0 0 -1
    outer loop
      vertex -3.75 6.49519 0.5
      vertex 7.60845 22.4721 0.5
      vertex 10.114 10.114 0.5
    endloop
  endfacet
  facet normal 0 0 -1
    outer loop
      vertex 3.75 6.49519 0.5
      vertex 10.114 10.114 0.5
      vertex 22.4721 7.60845 0.5
    endloop
  endfacet
  facet normal 0 0 -1
    outer loop
      vertex 7.5 0 0.5
      vertex 28 0 0.5
      vertex 27.6085 -2.47214 0.5
    endloop
  endfacet
  facet normal 0 0 -1
    outer loop
      vertex 7.5 0 0.5
      vertex 27.6085 2.47214 0.5
      vertex 28 0 0.5
    endloop
  endfacet
  facet normal 0 0 -1
    outer loop
      vertex 7.5 0 0.5
      vertex 22.4721 -7.60845 0.5
      vertex 3.75 -6.49519 0.5
    endloop
  endfacet
  facet normal 0 0 -1
    outer loop
      vertex 7.5 0 0.5
      vertex 24.7023 -6.47214 0.5
      vertex 22.4721 -7.60845 0.5
    endloop
  endfacet
  facet normal 0 0 -1
    outer loop
      vertex -3.75 -6.49519 0.5
      vertex 22.4721 -7.60845 0.5
      vertex 10.114 -10.114 0.5
    endloop
  endfacet
  facet normal 0 0 -1
    outer loop
      vertex -10.114 -10.114 0.5
      vertex 10.114 -10.114 0.5
      vertex 7.60845 -22.4721 0.5
    endloop
  endfacet
  facet normal 0 0 -1
    outer loop
      vertex -7.60845 -22.4721 0.5
      vertex -3.8281e-015 -28 0.5
      vertex -2.47214 -27.6085 0.5
    endloop
  endfacet
  facet normal 0 0 -1
    outer loop
      vertex -10.114 -10.114 0.5
      vertex 6.47214 -24.7023 0.5
      vertex 4.70228 -26.4721 0.5
    endloop
  endfacet
  facet normal 0 0 -1
    outer loop
      vertex -10.114 -10.114 0.5
      vertex 4.70228 -26.4721 0.5
      vertex 2.47214 -27.6085 0.5
    endloop
  endfacet
  facet normal 0 0 -1
    outer loop
      vertex -10.114 -10.114 0.5
      vertex 7.60845 -22.4721 0.5
      vertex 6.47214 -24.7023 0.5
    endloop
  endfacet
  facet normal 0 0 -1
    outer loop
      vertex -27.6085 -2.47214 0.5
      vertex 10.114 -10.114 0.5
      vertex -10.114 -10.114 0.5
    endloop
  endfacet
  facet normal 0 0 -1
    outer loop
      vertex -24.7023 -6.47214 0.5
      vertex -27.6085 -2.47214 0.5
      vertex -22.4721 -7.60845 0.5
    endloop
  endfacet
  facet normal 0 0 -1
    outer loop
      vertex 3.75 6.49519 0.5
      vertex 22.4721 7.60845 0.5
      vertex 24.7023 6.47214 0.5
    endloop
  endfacet
  facet normal 0 0 -1
    outer loop
      vertex -7.5 0 0.5
      vertex -27.6085 -2.47214 0.5
      vertex -3.75 6.49519 0.5
    endloop
  endfacet
  facet normal 0 0 -1
    outer loop
      vertex -24.7023 -6.47214 0.5
      vertex -26.4721 -4.70228 0.5
      vertex -27.6085 -2.47214 0.5
    endloop
  endfacet
  facet normal 0 0 -1
    outer loop
      vertex -3.75 -6.49519 0.5
      vertex -27.6085 -2.47214 0.5
      vertex -7.5 0 0.5
    endloop
  endfacet
  facet normal 0 0 -1
    outer loop
      vertex 3.75 -6.49519 0.5
      vertex 22.4721 -7.60845 0.5
      vertex -3.75 -6.49519 0.5
    endloop
  endfacet
  facet normal 0 0 -1
    outer loop
      vertex -27.6085 -2.47214 0.5
      vertex -3.75 -6.49519 0.5
      vertex 10.114 -10.114 0.5
    endloop
  endfacet
  facet normal 0 0 -1
    outer loop
      vertex 7.5 0 0.5
      vertex 26.4721 -4.70228 0.5
      vertex 24.7023 -6.47214 0.5
    endloop
  endfacet
  facet normal 0 0 -1
    outer loop
      vertex 7.5 0 0.5
      vertex 27.6085 -2.47214 0.5
      vertex 26.4721 -4.70228 0.5
    endloop
  endfacet
  facet normal 0 0 -1
    outer loop
      vertex 3.75 6.49519 0.5
      vertex 26.4721 4.70228 0.5
      vertex 27.6085 2.47214 0.5
    endloop
  endfacet
  facet normal 0 0 -1
    outer loop
      vertex 3.75 6.49519 0.5
      vertex 24.7023 6.47214 0.5
      vertex 26.4721 4.70228 0.5
    endloop
  endfacet
  facet normal 0 0 -1
    outer loop
      vertex -27.6085 -2.47214 0.5
      vertex 7.60845 22.4721 0.5
      vertex -3.75 6.49519 0.5
    endloop
  endfacet
  facet normal 0 0 -1
    outer loop
      vertex 3.75 6.49519 0.5
      vertex 27.6085 2.47214 0.5
      vertex 7.5 0 0.5
    endloop
  endfacet
  facet normal 0 0 -1
    outer loop
      vertex -7.60845 -22.4721 0.5
      vertex -2.47214 -27.6085 0.5
      vertex -4.70228 -26.4721 0.5
    endloop
  endfacet
  facet normal 0 0 -1
    outer loop
      vertex -7.60845 -22.4721 0.5
      vertex -4.70228 -26.4721 0.5
      vertex -6.47214 -24.7023 0.5
    endloop
  endfacet
  facet normal 0 0 -1
    outer loop
      vertex -3.75 6.49519 0.5
      vertex 10.114 10.114 0.5
      vertex 3.75 6.49519 0.5
    endloop
  endfacet
  facet normal 0 0 -1
    outer loop
      vertex -10.114 -10.114 0.5
      vertex 2.47214 -27.6085 0.5
      vertex -3.8281e-015 -28 0.5
    endloop
  endfacet
  facet normal 0 0 -1
    outer loop
      vertex -10.114 -10.114 0.5
      vertex -3.8281e-015 -28 0.5
      vertex -7.60845 -22.4721 0.5
    endloop
  endfacet
  facet normal 0 0 -1
    outer loop
      vertex -22.4721 -7.60845 0.5
      vertex -27.6085 -2.47214 0.5
      vertex -10.114 -10.114 0.5
    endloop
  endfacet
  facet normal -0.987688 0.156435 0
    outer loop
      vertex -28 3.4289e-015 0.5
      vertex -28 3.4289e-015 10.5
      vertex -27.6085 2.47214 0.5
    endloop
  endfacet
  facet normal -0.987688 0.156435 0
    outer loop
      vertex -27.6085 2.47214 0.5
      vertex -28 3.4289e-015 10.5
      vertex -27.6085 2.47214 10.5
    endloop
  endfacet
  facet normal 0 0 1
    outer loop
      vertex -27.6085 2.47214 10.5
      vertex -28 3.4289e-015 10.5
      vertex -27.6085 -2.47214 10.5
    endloop
  endfacet
  facet normal 0 0 1
    outer loop
      vertex -24.7023 -6.47214 10.5
      vertex -27.6085 2.47214 10.5
      vertex -26.4721 -4.70228 10.5
    endloop
  endfacet
  facet normal 0 0 1
    outer loop
      vertex -26.4721 -4.70228 10.5
      vertex -27.6085 2.47214 10.5
      vertex -27.6085 -2.47214 10.5
    endloop
  endfacet
  facet normal 0 0 1
    outer loop
      vertex -22.4721 -7.60845 10.5
      vertex -27.6085 2.47214 10.5
      vertex -24.7023 -6.47214 10.5
    endloop
  endfacet
  facet normal 0 0 1
    outer loop
      vertex -10.114 -10.114 10.5
      vertex -27.6085 2.47214 10.5
      vertex -22.4721 -7.60845 10.5
    endloop
  endfacet
  facet normal 0 0 1
    outer loop
      vertex 7.60845 -22.4721 10.5
      vertex -27.6085 2.47214 10.5
      vertex -10.114 -10.114 10.5
    endloop
  endfacet
  facet normal 0 0 1
    outer loop
      vertex -6.47214 -24.7023 10.5
      vertex -10.114 -10.114 10.5
      vertex -7.60845 -22.4721 10.5
    endloop
  endfacet
  facet normal 0 0 1
    outer loop
      vertex -4.70228 -26.4721 10.5
      vertex -10.114 -10.114 10.5
      vertex -6.47214 -24.7023 10.5
    endloop
  endfacet
  facet normal 0 0 1
    outer loop
      vertex -2.47214 -27.6085 10.5
      vertex -10.114 -10.114 10.5
      vertex -4.70228 -26.4721 10.5
    endloop
  endfacet
  facet normal 0 0 1
    outer loop
      vertex -3.8281e-015 -28 10.5
      vertex -10.114 -10.114 10.5
      vertex -2.47214 -27.6085 10.5
    endloop
  endfacet
  facet normal 0 0 1
    outer loop
      vertex 2.47214 -27.6085 10.5
      vertex -10.114 -10.114 10.5
      vertex -3.8281e-015 -28 10.5
    endloop
  endfacet
  facet normal 0 0 1
    outer loop
      vertex 4.70228 -26.4721 10.5
      vertex -10.114 -10.114 10.5
      vertex 2.47214 -27.6085 10.5
    endloop
  endfacet
  facet normal 0 0 1
    outer loop
      vertex 6.47214 -24.7023 10.5
      vertex -10.114 -10.114 10.5
      vertex 4.70228 -26.4721 10.5
    endloop
  endfacet
  facet normal 0 0 1
    outer loop
      vertex 7.60845 -22.4721 10.5
      vertex -10.114 -10.114 10.5
      vertex 6.47214 -24.7023 10.5
    endloop
  endfacet
  facet normal 0 0 1
    outer loop
      vertex 10.114 -10.114 10.5
      vertex -27.6085 2.47214 10.5
      vertex 7.60845 -22.4721 10.5
    endloop
  endfacet
  facet normal 0 0 1
    outer loop
      vertex -1.22062 -3.75667 10.5
      vertex -27.6085 2.47214 10.5
      vertex 10.114 -10.114 10.5
    endloop
  endfacet
  facet normal 0 0 1
    outer loop
      vertex -1.22062 -3.75667 10.5
      vertex -2.32175 -3.19562 10.5
      vertex -27.6085 2.47214 10.5
    endloop
  endfacet
  facet normal 0 0 1
    outer loop
      vertex 3.19562 -2.32175 10.5
      vertex 2.32175 -3.19562 10.5
      vertex 24.7023 -6.47214 10.5
    endloop
  endfacet
  facet normal 0 0 1
    outer loop
      vertex -3.19562 2.32175 10.5
      vertex -2.32175 3.19562 10.5
      vertex -27.6085 2.47214 10.5
    endloop
  endfacet
  facet normal 0 0 1
    outer loop
      vertex 0 3.95 10.5
      vertex 26.4721 4.70228 10.5
      vertex 24.7023 6.47214 10.5
    endloop
  endfacet
  facet normal 0 0 1
    outer loop
      vertex 22.4721 7.60845 10.5
      vertex -27.6085 2.47214 10.5
      vertex 24.7023 6.47214 10.5
    endloop
  endfacet
  facet normal 0 0 1
    outer loop
      vertex 10.114 10.114 10.5
      vertex -27.6085 2.47214 10.5
      vertex 22.4721 7.60845 10.5
    endloop
  endfacet
  facet normal 0 0 1
    outer loop
      vertex -10.114 10.114 10.5
      vertex -27.6085 2.47214 10.5
      vertex 10.114 10.114 10.5
    endloop
  endfacet
  facet normal 0 0 1
    outer loop
      vertex -10.114 10.114 10.5
      vertex -22.4721 7.60845 10.5
      vertex -27.6085 2.47214 10.5
    endloop
  endfacet
  facet normal 0 0 1
    outer loop
      vertex -3.19562 -2.32175 10.5
      vertex -3.75667 -1.22062 10.5
      vertex -27.6085 2.47214 10.5
    endloop
  endfacet
  facet normal 0 0 1
    outer loop
      vertex -7.60845 22.4721 10.5
      vertex 2.47214 27.6085 10.5
      vertex 4.965e-015 28 10.5
    endloop
  endfacet
  facet normal 0 0 1
    outer loop
      vertex -4.70228 26.4721 10.5
      vertex -7.60845 22.4721 10.5
      vertex -2.47214 27.6085 10.5
    endloop
  endfacet
  facet normal 0 0 1
    outer loop
      vertex 7.60845 22.4721 10.5
      vertex -10.114 10.114 10.5
      vertex 10.114 10.114 10.5
    endloop
  endfacet
  facet normal 0 0 1
    outer loop
      vertex -22.4721 7.60845 10.5
      vertex -24.7023 6.47214 10.5
      vertex -27.6085 2.47214 10.5
    endloop
  endfacet
  facet normal 0 0 1
    outer loop
      vertex -7.60845 22.4721 10.5
      vertex 4.965e-015 28 10.5
      vertex -2.47214 27.6085 10.5
    endloop
  endfacet
  facet normal 0 0 1
    outer loop
      vertex -26.4721 4.70228 10.5
      vertex -27.6085 2.47214 10.5
      vertex -24.7023 6.47214 10.5
    endloop
  endfacet
  facet normal 0 0 1
    outer loop
      vertex -3.95 0 10.5
      vertex -3.75667 1.22062 10.5
      vertex -27.6085 2.47214 10.5
    endloop
  endfacet
  facet normal 0 0 1
    outer loop
      vertex 3.75667 -1.22062 10.5
      vertex 3.19562 -2.32175 10.5
      vertex 26.4721 -4.70228 10.5
    endloop
  endfacet
  facet normal 0 0 1
    outer loop
      vertex -3.75667 1.22062 10.5
      vertex -3.19562 2.32175 10.5
      vertex -27.6085 2.47214 10.5
    endloop
  endfacet
  facet normal 0 0 1
    outer loop
      vertex 3.95 0 10.5
      vertex 26.4721 -4.70228 10.5
      vertex 27.6085 -2.47214 10.5
    endloop
  endfacet
  facet normal 0 0 1
    outer loop
      vertex -2.32175 3.19562 10.5
      vertex -1.22062 3.75667 10.5
      vertex -27.6085 2.47214 10.5
    endloop
  endfacet
  facet normal 0 0 1
    outer loop
      vertex 3.75667 1.22062 10.5
      vertex 27.6085 -2.47214 10.5
      vertex 28 0 10.5
    endloop
  endfacet
  facet normal 0 0 1
    outer loop
      vertex 3.75667 1.22062 10.5
      vertex 3.95 0 10.5
      vertex 27.6085 -2.47214 10.5
    endloop
  endfacet
  facet normal 0 0 1
    outer loop
      vertex 0 3.95 10.5
      vertex 1.22062 3.75667 10.5
      vertex 26.4721 4.70228 10.5
    endloop
  endfacet
  facet normal 0 0 1
    outer loop
      vertex 1.22062 3.75667 10.5
      vertex 2.32175 3.19562 10.5
      vertex 26.4721 4.70228 10.5
    endloop
  endfacet
  facet normal 0 0 1
    outer loop
      vertex 0 3.95 10.5
      vertex -27.6085 2.47214 10.5
      vertex -1.22062 3.75667 10.5
    endloop
  endfacet
  facet normal 0 0 1
    outer loop
      vertex 2.32175 3.19562 10.5
      vertex 3.19562 2.32175 10.5
      vertex 27.6085 2.47214 10.5
    endloop
  endfacet
  facet normal 0 0 1
    outer loop
      vertex 24.7023 6.47214 10.5
      vertex -27.6085 2.47214 10.5
      vertex 0 3.95 10.5
    endloop
  endfacet
  facet normal 0 0 1
    outer loop
      vertex 26.4721 4.70228 10.5
      vertex 2.32175 3.19562 10.5
      vertex 27.6085 2.47214 10.5
    endloop
  endfacet
  facet normal 0 0 1
    outer loop
      vertex 27.6085 2.47214 10.5
      vertex 3.19562 2.32175 10.5
      vertex 28 0 10.5
    endloop
  endfacet
  facet normal 0 0 1
    outer loop
      vertex 3.19562 2.32175 10.5
      vertex 3.75667 1.22062 10.5
      vertex 28 0 10.5
    endloop
  endfacet
  facet normal 0 0 1
    outer loop
      vertex 3.95 0 10.5
      vertex 3.75667 -1.22062 10.5
      vertex 26.4721 -4.70228 10.5
    endloop
  endfacet
  facet normal 0 0 1
    outer loop
      vertex 2.32175 -3.19562 10.5
      vertex 1.22062 -3.75667 10.5
      vertex 22.4721 -7.60845 10.5
    endloop
  endfacet
  facet normal 0 0 1
    outer loop
      vertex 26.4721 -4.70228 10.5
      vertex 3.19562 -2.32175 10.5
      vertex 24.7023 -6.47214 10.5
    endloop
  endfacet
  facet normal 0 0 1
    outer loop
      vertex 24.7023 -6.47214 10.5
      vertex 2.32175 -3.19562 10.5
      vertex 22.4721 -7.60845 10.5
    endloop
  endfacet
  facet normal 0 0 1
    outer loop
      vertex 22.4721 -7.60845 10.5
      vertex 1.22062 -3.75667 10.5
      vertex 10.114 -10.114 10.5
    endloop
  endfacet
  facet normal 0 0 1
    outer loop
      vertex 1.22062 -3.75667 10.5
      vertex 0 -3.95 10.5
      vertex 10.114 -10.114 10.5
    endloop
  endfacet
  facet normal 0 0 1
    outer loop
      vertex 0 -3.95 10.5
      vertex -1.22062 -3.75667 10.5
      vertex 10.114 -10.114 10.5
    endloop
  endfacet
  facet normal 0 0 1
    outer loop
      vertex -2.32175 -3.19562 10.5
      vertex -3.19562 -2.32175 10.5
      vertex -27.6085 2.47214 10.5
    endloop
  endfacet
  facet normal 0 0 1
    outer loop
      vertex -3.75667 -1.22062 10.5
      vertex -3.95 0 10.5
      vertex -27.6085 2.47214 10.5
    endloop
  endfacet
  facet normal 0 0 1
    outer loop
      vertex -6.47214 24.7023 10.5
      vertex -7.60845 22.4721 10.5
      vertex -4.70228 26.4721 10.5
    endloop
  endfacet
  facet normal 0 0 1
    outer loop
      vertex -7.60845 22.4721 10.5
      vertex 4.70228 26.4721 10.5
      vertex 2.47214 27.6085 10.5
    endloop
  endfacet
  facet normal 0 0 1
    outer loop
      vertex -7.60845 22.4721 10.5
      vertex 6.47214 24.7023 10.5
      vertex 4.70228 26.4721 10.5
    endloop
  endfacet
  facet normal 0 0 1
    outer loop
      vertex -7.60845 22.4721 10.5
      vertex 7.60845 22.4721 10.5
      vertex 6.47214 24.7023 10.5
    endloop
  endfacet
  facet normal 0 0 1
    outer loop
      vertex -7.60845 22.4721 10.5
      vertex -10.114 10.114 10.5
      vertex 7.60845 22.4721 10.5
    endloop
  endfacet
  facet normal -0.891007 -0.45399 0
    outer loop
      vertex -27.6085 -2.47214 0.5
      vertex -26.4721 -4.70228 0.5
      vertex -27.6085 -2.47214 10.5
    endloop
  endfacet
  facet normal -0.891007 -0.45399 0
    outer loop
      vertex -27.6085 -2.47214 10.5
      vertex -26.4721 -4.70228 0.5
      vertex -26.4721 -4.70228 10.5
    endloop
  endfacet
  facet normal -0.707107 -0.707107 0
    outer loop
      vertex -26.4721 -4.70228 0.5
      vertex -24.7023 -6.47214 0.5
      vertex -26.4721 -4.70228 10.5
    endloop
  endfacet
  facet normal -0.707107 -0.707107 0
    outer loop
      vertex -26.4721 -4.70228 10.5
      vertex -24.7023 -6.47214 0.5
      vertex -24.7023 -6.47214 10.5
    endloop
  endfacet
  facet normal -0.45399 -0.891007 0
    outer loop
      vertex -24.7023 -6.47214 10.5
      vertex -24.7023 -6.47214 0.5
      vertex -22.4721 -7.60845 0.5
    endloop
  endfacet
  facet normal -0.45399 -0.891007 0
    outer loop
      vertex -22.4721 -7.60845 10.5
      vertex -24.7023 -6.47214 10.5
      vertex -22.4721 -7.60845 0.5
    endloop
  endfacet
  facet normal -0.198699 -0.980061 0
    outer loop
      vertex -22.4721 -7.60845 10.5
      vertex -22.4721 -7.60845 0.5
      vertex -10.114 -10.114 0.5
    endloop
  endfacet
  facet normal -0.198699 -0.980061 0
    outer loop
      vertex -10.114 -10.114 10.5
      vertex -22.4721 -7.60845 10.5
      vertex -10.114 -10.114 0.5
    endloop
  endfacet
  facet normal -0.980061 -0.198699 0
    outer loop
      vertex -10.114 -10.114 0.5
      vertex -7.60845 -22.4721 0.5
      vertex -10.114 -10.114 10.5
    endloop
  endfacet
  facet normal -0.980061 -0.198699 0
    outer loop
      vertex -10.114 -10.114 10.5
      vertex -7.60845 -22.4721 0.5
      vertex -7.60845 -22.4721 10.5
    endloop
  endfacet
  facet normal -0.891007 -0.45399 0
    outer loop
      vertex -7.60845 -22.4721 0.5
      vertex -6.47214 -24.7023 0.5
      vertex -7.60845 -22.4721 10.5
    endloop
  endfacet
  facet normal -0.891007 -0.45399 0
    outer loop
      vertex -7.60845 -22.4721 10.5
      vertex -6.47214 -24.7023 0.5
      vertex -6.47214 -24.7023 10.5
    endloop
  endfacet
  facet normal -0.707107 -0.707107 0
    outer loop
      vertex -6.47214 -24.7023 0.5
      vertex -4.70228 -26.4721 0.5
      vertex -6.47214 -24.7023 10.5
    endloop
  endfacet
  facet normal -0.707107 -0.707107 0
    outer loop
      vertex -6.47214 -24.7023 10.5
      vertex -4.70228 -26.4721 0.5
      vertex -4.70228 -26.4721 10.5
    endloop
  endfacet
  facet normal -0.45399 -0.891007 0
    outer loop
      vertex -4.70228 -26.4721 10.5
      vertex -4.70228 -26.4721 0.5
      vertex -2.47214 -27.6085 0.5
    endloop
  endfacet
  facet normal -0.45399 -0.891007 0
    outer loop
      vertex -2.47214 -27.6085 10.5
      vertex -4.70228 -26.4721 10.5
      vertex -2.47214 -27.6085 0.5
    endloop
  endfacet
  facet normal -0.156435 -0.987688 0
    outer loop
      vertex -2.47214 -27.6085 10.5
      vertex -2.47214 -27.6085 0.5
      vertex -3.8281e-015 -28 0.5
    endloop
  endfacet
  facet normal -0.156435 -0.987688 0
    outer loop
      vertex -3.8281e-015 -28 10.5
      vertex -2.47214 -27.6085 10.5
      vertex -3.8281e-015 -28 0.5
    endloop
  endfacet
  facet normal 0.156435 -0.987688 0
    outer loop
      vertex -3.8281e-015 -28 10.5
      vertex -3.8281e-015 -28 0.5
      vertex 2.47214 -27.6085 0.5
    endloop
  endfacet
  facet normal 0.156435 -0.987688 0
    outer loop
      vertex 2.47214 -27.6085 10.5
      vertex -3.8281e-015 -28 10.5
      vertex 2.47214 -27.6085 0.5
    endloop
  endfacet
  facet normal 0.45399 -0.891007 0
    outer loop
      vertex 2.47214 -27.6085 10.5
      vertex 2.47214 -27.6085 0.5
      vertex 4.70228 -26.4721 0.5
    endloop
  endfacet
  facet normal 0.45399 -0.891007 0
    outer loop
      vertex 4.70228 -26.4721 10.5
      vertex 2.47214 -27.6085 10.5
      vertex 4.70228 -26.4721 0.5
    endloop
  endfacet
  facet normal 0.707107 -0.707107 0
    outer loop
      vertex 4.70228 -26.4721 10.5
      vertex 4.70228 -26.4721 0.5
      vertex 6.47214 -24.7023 0.5
    endloop
  endfacet
  facet normal 0.707107 -0.707107 0
    outer loop
      vertex 6.47214 -24.7023 10.5
      vertex 4.70228 -26.4721 10.5
      vertex 6.47214 -24.7023 0.5
    endloop
  endfacet
  facet normal 0.891007 -0.45399 0
    outer loop
      vertex 6.47214 -24.7023 10.5
      vertex 6.47214 -24.7023 0.5
      vertex 7.60845 -22.4721 0.5
    endloop
  endfacet
  facet normal 0.891007 -0.45399 0
    outer loop
      vertex 7.60845 -22.4721 10.5
      vertex 6.47214 -24.7023 10.5
      vertex 7.60845 -22.4721 0.5
    endloop
  endfacet
  facet normal 0.980061 -0.198699 0
    outer loop
      vertex 7.60845 -22.4721 10.5
      vertex 7.60845 -22.4721 0.5
      vertex 10.114 -10.114 0.5
    endloop
  endfacet
  facet normal 0.980061 -0.198699 0
    outer loop
      vertex 10.114 -10.114 10.5
      vertex 7.60845 -22.4721 10.5
      vertex 10.114 -10.114 0.5
    endloop
  endfacet
  facet normal 0.198699 -0.980061 0
    outer loop
      vertex 10.114 -10.114 10.5
      vertex 10.114 -10.114 0.5
      vertex 22.4721 -7.60845 0.5
    endloop
  endfacet
  facet normal 0.198699 -0.980061 0
    outer loop
      vertex 22.4721 -7.60845 10.5
      vertex 10.114 -10.114 10.5
      vertex 22.4721 -7.60845 0.5
    endloop
  endfacet
  facet normal 0.45399 -0.891007 0
    outer loop
      vertex 22.4721 -7.60845 10.5
      vertex 22.4721 -7.60845 0.5
      vertex 24.7023 -6.47214 0.5
    endloop
  endfacet
  facet normal 0.45399 -0.891007 0
    outer loop
      vertex 24.7023 -6.47214 10.5
      vertex 22.4721 -7.60845 10.5
      vertex 24.7023 -6.47214 0.5
    endloop
  endfacet
  facet normal 0.707107 -0.707107 0
    outer loop
      vertex 24.7023 -6.47214 10.5
      vertex 24.7023 -6.47214 0.5
      vertex 26.4721 -4.70228 0.5
    endloop
  endfacet
  facet normal 0.707107 -0.707107 0
    outer loop
      vertex 26.4721 -4.70228 10.5
      vertex 24.7023 -6.47214 10.5
      vertex 26.4721 -4.70228 0.5
    endloop
  endfacet
  facet normal 0.891007 -0.45399 0
    outer loop
      vertex 26.4721 -4.70228 10.5
      vertex 26.4721 -4.70228 0.5
      vertex 27.6085 -2.47214 0.5
    endloop
  endfacet
  facet normal 0.891007 -0.45399 0
    outer loop
      vertex 27.6085 -2.47214 10.5
      vertex 26.4721 -4.70228 10.5
      vertex 27.6085 -2.47214 0.5
    endloop
  endfacet
  facet normal 0.987688 -0.156435 0
    outer loop
      vertex 27.6085 -2.47214 10.5
      vertex 27.6085 -2.47214 0.5
      vertex 28 0 0.5
    endloop
  endfacet
  facet normal 0.987688 -0.156435 0
    outer loop
      vertex 28 0 10.5
      vertex 27.6085 -2.47214 10.5
      vertex 28 0 0.5
    endloop
  endfacet
  facet normal 0.987688 0.156435 0
    outer loop
      vertex 28 0 0.5
      vertex 27.6085 2.47214 0.5
      vertex 27.6085 2.47214 10.5
    endloop
  endfacet
  facet normal 0.987688 0.156435 0
    outer loop
      vertex 28 0 10.5
      vertex 28 0 0.5
      vertex 27.6085 2.47214 10.5
    endloop
  endfacet
  facet normal 0.891007 0.45399 0
    outer loop
      vertex 27.6085 2.47214 0.5
      vertex 26.4721 4.70228 0.5
      vertex 26.4721 4.70228 10.5
    endloop
  endfacet
  facet normal 0.891007 0.45399 0
    outer loop
      vertex 27.6085 2.47214 10.5
      vertex 27.6085 2.47214 0.5
      vertex 26.4721 4.70228 10.5
    endloop
  endfacet
  facet normal 0.707107 0.707107 0
    outer loop
      vertex 24.7023 6.47214 0.5
      vertex 24.7023 6.47214 10.5
      vertex 26.4721 4.70228 0.5
    endloop
  endfacet
  facet normal 0.707107 0.707107 0
    outer loop
      vertex 26.4721 4.70228 0.5
      vertex 24.7023 6.47214 10.5
      vertex 26.4721 4.70228 10.5
    endloop
  endfacet
  facet normal 0.45399 0.891007 0
    outer loop
      vertex 22.4721 7.60845 0.5
      vertex 22.4721 7.60845 10.5
      vertex 24.7023 6.47214 0.5
    endloop
  endfacet
  facet normal 0.45399 0.891007 0
    outer loop
      vertex 24.7023 6.47214 0.5
      vertex 22.4721 7.60845 10.5
      vertex 24.7023 6.47214 10.5
    endloop
  endfacet
  facet normal 0.198699 0.980061 0
    outer loop
      vertex 10.114 10.114 0.5
      vertex 10.114 10.114 10.5
      vertex 22.4721 7.60845 0.5
    endloop
  endfacet
  facet normal 0.198699 0.980061 0
    outer loop
      vertex 22.4721 7.60845 0.5
      vertex 10.114 10.114 10.5
      vertex 22.4721 7.60845 10.5
    endloop
  endfacet
  facet normal 0.980061 0.198699 0
    outer loop
      vertex 10.114 10.114 0.5
      vertex 7.60845 22.4721 0.5
      vertex 7.60845 22.4721 10.5
    endloop
  endfacet
  facet normal 0.980061 0.198699 0
    outer loop
      vertex 10.114 10.114 10.5
      vertex 10.114 10.114 0.5
      vertex 7.60845 22.4721 10.5
    endloop
  endfacet
  facet normal 0.891007 0.45399 0
    outer loop
      vertex 7.60845 22.4721 0.5
      vertex 6.47214 24.7023 0.5
      vertex 6.47214 24.7023 10.5
    endloop
  endfacet
  facet normal 0.891007 0.45399 0
    outer loop
      vertex 7.60845 22.4721 10.5
      vertex 7.60845 22.4721 0.5
      vertex 6.47214 24.7023 10.5
    endloop
  endfacet
  facet normal 0.707107 0.707107 0
    outer loop
      vertex 6.47214 24.7023 0.5
      vertex 4.70228 26.4721 0.5
      vertex 4.70228 26.4721 10.5
    endloop
  endfacet
  facet normal 0.707107 0.707107 0
    outer loop
      vertex 6.47214 24.7023 10.5
      vertex 6.47214 24.7023 0.5
      vertex 4.70228 26.4721 10.5
    endloop
  endfacet
  facet normal 0.45399 0.891007 0
    outer loop
      vertex 2.47214 27.6085 0.5
      vertex 2.47214 27.6085 10.5
      vertex 4.70228 26.4721 0.5
    endloop
  endfacet
  facet normal 0.45399 0.891007 0
    outer loop
      vertex 4.70228 26.4721 0.5
      vertex 2.47214 27.6085 10.5
      vertex 4.70228 26.4721 10.5
    endloop
  endfacet
  facet normal 0.156435 0.987688 0
    outer loop
      vertex 4.965e-015 28 0.5
      vertex 4.965e-015 28 10.5
      vertex 2.47214 27.6085 0.5
    endloop
  endfacet
  facet normal 0.156435 0.987688 0
    outer loop
      vertex 2.47214 27.6085 0.5
      vertex 4.965e-015 28 10.5
      vertex 2.47214 27.6085 10.5
    endloop
  endfacet
  facet normal -0.156435 0.987688 0
    outer loop
      vertex -2.47214 27.6085 0.5
      vertex -2.47214 27.6085 10.5
      vertex 4.965e-015 28 0.5
    endloop
  endfacet
  facet normal -0.156435 0.987688 0
    outer loop
      vertex 4.965e-015 28 0.5
      vertex -2.47214 27.6085 10.5
      vertex 4.965e-015 28 10.5
    endloop
  endfacet
  facet normal -0.45399 0.891007 0
    outer loop
      vertex -4.70228 26.4721 0.5
      vertex -4.70228 26.4721 10.5
      vertex -2.47214 27.6085 0.5
    endloop
  endfacet
  facet normal -0.45399 0.891007 0
    outer loop
      vertex -2.47214 27.6085 0.5
      vertex -4.70228 26.4721 10.5
      vertex -2.47214 27.6085 10.5
    endloop
  endfacet
  facet normal -0.707107 0.707107 0
    outer loop
      vertex -6.47214 24.7023 0.5
      vertex -6.47214 24.7023 10.5
      vertex -4.70228 26.4721 0.5
    endloop
  endfacet
  facet normal -0.707107 0.707107 0
    outer loop
      vertex -4.70228 26.4721 0.5
      vertex -6.47214 24.7023 10.5
      vertex -4.70228 26.4721 10.5
    endloop
  endfacet
  facet normal -0.891007 0.45399 0
    outer loop
      vertex -7.60845 22.4721 0.5
      vertex -7.60845 22.4721 10.5
      vertex -6.47214 24.7023 0.5
    endloop
  endfacet
  facet normal -0.891007 0.45399 0
    outer loop
      vertex -6.47214 24.7023 0.5
      vertex -7.60845 22.4721 10.5
      vertex -6.47214 24.7023 10.5
    endloop
  endfacet
  facet normal -0.980061 0.198699 0
    outer loop
      vertex -10.114 10.114 0.5
      vertex -10.114 10.114 10.5
      vertex -7.60845 22.4721 0.5
    endloop
  endfacet
  facet normal -0.980061 0.198699 0
    outer loop
      vertex -7.60845 22.4721 0.5
      vertex -10.114 10.114 10.5
      vertex -7.60845 22.4721 10.5
    endloop
  endfacet
  facet normal -0.198699 0.980061 0
    outer loop
      vertex -22.4721 7.60845 0.5
      vertex -22.4721 7.60845 10.5
      vertex -10.114 10.114 0.5
    endloop
  endfacet
  facet normal -0.198699 0.980061 0
    outer loop
      vertex -10.114 10.114 0.5
      vertex -22.4721 7.60845 10.5
      vertex -10.114 10.114 10.5
    endloop
  endfacet
  facet normal -0.45399 0.891007 0
    outer loop
      vertex -24.7023 6.47214 0.5
      vertex -24.7023 6.47214 10.5
      vertex -22.4721 7.60845 0.5
    endloop
  endfacet
  facet normal -0.45399 0.891007 0
    outer loop
      vertex -22.4721 7.60845 0.5
      vertex -24.7023 6.47214 10.5
      vertex -22.4721 7.60845 10.5
    endloop
  endfacet
  facet normal -0.707107 0.707107 0
    outer loop
      vertex -26.4721 4.70228 0.5
      vertex -26.4721 4.70228 10.5
      vertex -24.7023 6.47214 0.5
    endloop
  endfacet
  facet normal -0.707107 0.707107 0
    outer loop
      vertex -24.7023 6.47214 0.5
      vertex -26.4721 4.70228 10.5
      vertex -24.7023 6.47214 10.5
    endloop
  endfacet
  facet normal -0.891007 0.45399 0
    outer loop
      vertex -27.6085 2.47214 0.5
      vertex -27.6085 2.47214 10.5
      vertex -26.4721 4.70228 0.5
    endloop
  endfacet
  facet normal -0.891007 0.45399 0
    outer loop
      vertex -26.4721 4.70228 0.5
      vertex -27.6085 2.47214 10.5
      vertex -26.4721 4.70228 10.5
    endloop
  endfacet
  facet normal 0.866025 -0.5 0
    outer loop
      vertex -3.75 6.49519 0.5
      vertex -3.75 6.49519 8
      vertex -7.5 0 8
    endloop
  endfacet
  facet normal 0.866025 -0.5 0
    outer loop
      vertex -7.5 0 0.5
      vertex -3.75 6.49519 0.5
      vertex -7.5 0 8
    endloop
  endfacet
  facet normal 0.866025 0.5 0
    outer loop
      vertex -7.5 0 8
      vertex -3.75 -6.49519 8
      vertex -3.75 -6.49519 0.5
    endloop
  endfacet
  facet normal 0.866025 0.5 0
    outer loop
      vertex -7.5 0 0.5
      vertex -7.5 0 8
      vertex -3.75 -6.49519 0.5
    endloop
  endfacet
  facet normal 0 -1 0
    outer loop
      vertex 3.75 6.49519 0.5
      vertex 3.75 6.49519 8
      vertex -3.75 6.49519 8
    endloop
  endfacet
  facet normal 0 -1 0
    outer loop
      vertex -3.75 6.49519 0.5
      vertex 3.75 6.49519 0.5
      vertex -3.75 6.49519 8
    endloop
  endfacet
  facet normal -0.866025 -0.5 0
    outer loop
      vertex 7.5 0 8
      vertex 3.75 6.49519 8
      vertex 7.5 0 0.5
    endloop
  endfacet
  facet normal -0.866025 -0.5 0
    outer loop
      vertex 7.5 0 0.5
      vertex 3.75 6.49519 8
      vertex 3.75 6.49519 0.5
    endloop
  endfacet
  facet normal -0.866025 0.5 0
    outer loop
      vertex 7.5 0 8
      vertex 7.5 0 0.5
      vertex 3.75 -6.49519 8
    endloop
  endfacet
  facet normal -0.866025 0.5 0
    outer loop
      vertex 3.75 -6.49519 8
      vertex 7.5 0 0.5
      vertex 3.75 -6.49519 0.5
    endloop
  endfacet
  facet normal 0 1 0
    outer loop
      vertex 3.75 -6.49519 8
      vertex 3.75 -6.49519 0.5
      vertex -3.75 -6.49519 8
    endloop
  endfacet
  facet normal 0 1 0
    outer loop
      vertex -3.75 -6.49519 8
      vertex 3.75 -6.49519 0.5
      vertex -3.75 -6.49519 0.5
    endloop
  endfacet
  facet normal 0.891007 0.45399 0
    outer loop
      vertex -3.75667 -1.22062 10.5
      vertex -3.19562 -2.32175 10.5
      vertex -3.19562 -2.32175 8
    endloop
  endfacet
  facet normal 0.891007 0.45399 0
    outer loop
      vertex -3.75667 -1.22062 8
      vertex -3.75667 -1.22062 10.5
      vertex -3.19562 -2.32175 8
    endloop
  endfacet
  facet normal 0.987688 0.156435 0
    outer loop
      vertex -3.95 0 10.5
      vertex -3.75667 -1.22062 10.5
      vertex -3.75667 -1.22062 8
    endloop
  endfacet
  facet normal 0.987688 0.156435 0
    outer loop
      vertex -3.95 0 8
      vertex -3.95 0 10.5
      vertex -3.75667 -1.22062 8
    endloop
  endfacet
  facet normal 0.707107 0.707107 0
    outer loop
      vertex -2.32175 -3.19562 10.5
      vertex -2.32175 -3.19562 8
      vertex -3.19562 -2.32175 10.5
    endloop
  endfacet
  facet normal 0.707107 0.707107 0
    outer loop
      vertex -3.19562 -2.32175 10.5
      vertex -2.32175 -3.19562 8
      vertex -3.19562 -2.32175 8
    endloop
  endfacet
  facet normal 0.45399 0.891007 0
    outer loop
      vertex -1.22062 -3.75667 10.5
      vertex -1.22062 -3.75667 8
      vertex -2.32175 -3.19562 10.5
    endloop
  endfacet
  facet normal 0.45399 0.891007 0
    outer loop
      vertex -2.32175 -3.19562 10.5
      vertex -1.22062 -3.75667 8
      vertex -2.32175 -3.19562 8
    endloop
  endfacet
  facet normal 0.156435 0.987688 0
    outer loop
      vertex 0 -3.95 10.5
      vertex 0 -3.95 8
      vertex -1.22062 -3.75667 10.5
    endloop
  endfacet
  facet normal 0.156435 0.987688 0
    outer loop
      vertex -1.22062 -3.75667 10.5
      vertex 0 -3.95 8
      vertex -1.22062 -3.75667 8
    endloop
  endfacet
  facet normal -0.156435 0.987688 0
    outer loop
      vertex 1.22062 -3.75667 10.5
      vertex 1.22062 -3.75667 8
      vertex 0 -3.95 10.5
    endloop
  endfacet
  facet normal -0.156435 0.987688 0
    outer loop
      vertex 0 -3.95 10.5
      vertex 1.22062 -3.75667 8
      vertex 0 -3.95 8
    endloop
  endfacet
  facet normal -0.45399 0.891007 0
    outer loop
      vertex 2.32175 -3.19562 10.5
      vertex 2.32175 -3.19562 8
      vertex 1.22062 -3.75667 10.5
    endloop
  endfacet
  facet normal -0.45399 0.891007 0
    outer loop
      vertex 1.22062 -3.75667 10.5
      vertex 2.32175 -3.19562 8
      vertex 1.22062 -3.75667 8
    endloop
  endfacet
  facet normal -0.707107 0.707107 0
    outer loop
      vertex 3.19562 -2.32175 10.5
      vertex 3.19562 -2.32175 8
      vertex 2.32175 -3.19562 10.5
    endloop
  endfacet
  facet normal -0.707107 0.707107 0
    outer loop
      vertex 2.32175 -3.19562 10.5
      vertex 3.19562 -2.32175 8
      vertex 2.32175 -3.19562 8
    endloop
  endfacet
  facet normal -0.891007 0.45399 0
    outer loop
      vertex 3.75667 -1.22062 10.5
      vertex 3.75667 -1.22062 8
      vertex 3.19562 -2.32175 10.5
    endloop
  endfacet
  facet normal -0.891007 0.45399 0
    outer loop
      vertex 3.19562 -2.32175 10.5
      vertex 3.75667 -1.22062 8
      vertex 3.19562 -2.32175 8
    endloop
  endfacet
  facet normal -0.987688 0.156435 0
    outer loop
      vertex 3.95 0 10.5
      vertex 3.95 0 8
      vertex 3.75667 -1.22062 10.5
    endloop
  endfacet
  facet normal -0.987688 0.156435 0
    outer loop
      vertex 3.75667 -1.22062 10.5
      vertex 3.95 0 8
      vertex 3.75667 -1.22062 8
    endloop
  endfacet
  facet normal -0.987688 -0.156435 0
    outer loop
      vertex 3.95 0 10.5
      vertex 3.75667 1.22062 10.5
      vertex 3.95 0 8
    endloop
  endfacet
  facet normal -0.987688 -0.156435 0
    outer loop
      vertex 3.95 0 8
      vertex 3.75667 1.22062 10.5
      vertex 3.75667 1.22062 8
    endloop
  endfacet
  facet normal -0.891007 -0.45399 0
    outer loop
      vertex 3.75667 1.22062 10.5
      vertex 3.19562 2.32175 10.5
      vertex 3.75667 1.22062 8
    endloop
  endfacet
  facet normal -0.891007 -0.45399 0
    outer loop
      vertex 3.75667 1.22062 8
      vertex 3.19562 2.32175 10.5
      vertex 3.19562 2.32175 8
    endloop
  endfacet
  facet normal -0.707107 -0.707107 0
    outer loop
      vertex 3.19562 2.32175 8
      vertex 3.19562 2.32175 10.5
      vertex 2.32175 3.19562 10.5
    endloop
  endfacet
  facet normal -0.707107 -0.707107 0
    outer loop
      vertex 2.32175 3.19562 8
      vertex 3.19562 2.32175 8
      vertex 2.32175 3.19562 10.5
    endloop
  endfacet
  facet normal -0.45399 -0.891007 0
    outer loop
      vertex 2.32175 3.19562 8
      vertex 2.32175 3.19562 10.5
      vertex 1.22062 3.75667 10.5
    endloop
  endfacet
  facet normal -0.45399 -0.891007 0
    outer loop
      vertex 1.22062 3.75667 8
      vertex 2.32175 3.19562 8
      vertex 1.22062 3.75667 10.5
    endloop
  endfacet
  facet normal -0.156435 -0.987688 0
    outer loop
      vertex 1.22062 3.75667 8
      vertex 1.22062 3.75667 10.5
      vertex 0 3.95 10.5
    endloop
  endfacet
  facet normal -0.156435 -0.987688 0
    outer loop
      vertex 0 3.95 8
      vertex 1.22062 3.75667 8
      vertex 0 3.95 10.5
    endloop
  endfacet
  facet normal 0.156435 -0.987688 0
    outer loop
      vertex 0 3.95 8
      vertex 0 3.95 10.5
      vertex -1.22062 3.75667 10.5
    endloop
  endfacet
  facet normal 0.156435 -0.987688 0
    outer loop
      vertex -1.22062 3.75667 8
      vertex 0 3.95 8
      vertex -1.22062 3.75667 10.5
    endloop
  endfacet
  facet normal 0.45399 -0.891007 0
    outer loop
      vertex -1.22062 3.75667 8
      vertex -1.22062 3.75667 10.5
      vertex -2.32175 3.19562 10.5
    endloop
  endfacet
  facet normal 0.45399 -0.891007 0
    outer loop
      vertex -2.32175 3.19562 8
      vertex -1.22062 3.75667 8
      vertex -2.32175 3.19562 10.5
    endloop
  endfacet
  facet normal 0.707107 -0.707107 0
    outer loop
      vertex -2.32175 3.19562 8
      vertex -2.32175 3.19562 10.5
      vertex -3.19562 2.32175 10.5
    endloop
  endfacet
  facet normal 0.707107 -0.707107 0
    outer loop
      vertex -3.19562 2.32175 8
      vertex -2.32175 3.19562 8
      vertex -3.19562 2.32175 10.5
    endloop
  endfacet
  facet normal 0.891007 -0.45399 0
    outer loop
      vertex -3.19562 2.32175 8
      vertex -3.19562 2.32175 10.5
      vertex -3.75667 1.22062 10.5
    endloop
  endfacet
  facet normal 0.891007 -0.45399 0
    outer loop
      vertex -3.75667 1.22062 8
      vertex -3.19562 2.32175 8
      vertex -3.75667 1.22062 10.5
    endloop
  endfacet
  facet normal 0.987688 -0.156435 0
    outer loop
      vertex -3.75667 1.22062 8
      vertex -3.75667 1.22062 10.5
      vertex -3.95 0 10.5
    endloop
  endfacet
  facet normal 0.987688 -0.156435 0
    outer loop
      vertex -3.95 0 8
      vertex -3.75667 1.22062 8
      vertex -3.95 0 10.5
    endloop
  endfacet
  facet normal 0 0 -1
    outer loop
      vertex 2.32175 -3.19562 8
      vertex 7.5 0 8
      vertex 3.75 -6.49519 8
    endloop
  endfacet
  facet normal 0 0 -1
    outer loop
      vertex -2.32175 -3.19562 8
      vertex 3.75 -6.49519 8
      vertex -3.75 -6.49519 8
    endloop
  endfacet
  facet normal 0 0 -1
    outer loop
      vertex -3.75667 -1.22062 8
      vertex -3.75 -6.49519 8
      vertex -7.5 0 8
    endloop
  endfacet
  facet normal 0 0 -1
    outer loop
      vertex -3.95 0 8
      vertex -3.75667 -1.22062 8
      vertex -7.5 0 8
    endloop
  endfacet
  facet normal 0 0 -1
    outer loop
      vertex 2.32175 -3.19562 8
      vertex 3.75 -6.49519 8
      vertex 1.22062 -3.75667 8
    endloop
  endfacet
  facet normal 0 0 -1
    outer loop
      vertex 0 -3.95 8
      vertex 3.75 -6.49519 8
      vertex -1.22062 -3.75667 8
    endloop
  endfacet
  facet normal 0 0 -1
    outer loop
      vertex -1.22062 -3.75667 8
      vertex 3.75 -6.49519 8
      vertex -2.32175 -3.19562 8
    endloop
  endfacet
  facet normal 0 0 -1
    outer loop
      vertex -3.19562 -2.32175 8
      vertex -2.32175 -3.19562 8
      vertex -3.75 -6.49519 8
    endloop
  endfacet
  facet normal 0 0 -1
    outer loop
      vertex 1.22062 -3.75667 8
      vertex 3.75 -6.49519 8
      vertex 0 -3.95 8
    endloop
  endfacet
  facet normal 0 0 -1
    outer loop
      vertex 3.19562 -2.32175 8
      vertex 7.5 0 8
      vertex 2.32175 -3.19562 8
    endloop
  endfacet
  facet normal 0 0 -1
    outer loop
      vertex 2.32175 3.19562 8
      vertex 7.5 0 8
      vertex 3.19562 2.32175 8
    endloop
  endfacet
  facet normal 0 0 -1
    outer loop
      vertex 3.75667 -1.22062 8
      vertex 7.5 0 8
      vertex 3.19562 -2.32175 8
    endloop
  endfacet
  facet normal 0 0 -1
    outer loop
      vertex 3.95 0 8
      vertex 7.5 0 8
      vertex 3.75667 -1.22062 8
    endloop
  endfacet
  facet normal 0 0 -1
    outer loop
      vertex 3.75667 1.22062 8
      vertex 7.5 0 8
      vertex 3.95 0 8
    endloop
  endfacet
  facet normal 0 0 -1
    outer loop
      vertex 3.19562 2.32175 8
      vertex 7.5 0 8
      vertex 3.75667 1.22062 8
    endloop
  endfacet
  facet normal 0 0 -1
    outer loop
      vertex 3.75 6.49519 8
      vertex 7.5 0 8
      vertex 2.32175 3.19562 8
    endloop
  endfacet
  facet normal 0 0 -1
    outer loop
      vertex 3.75 6.49519 8
      vertex 2.32175 3.19562 8
      vertex -3.75 6.49519 8
    endloop
  endfacet
  facet normal 0 0 -1
    outer loop
      vertex 0 3.95 8
      vertex -3.75 6.49519 8
      vertex 1.22062 3.75667 8
    endloop
  endfacet
  facet normal 0 0 -1
    outer loop
      vertex 2.32175 3.19562 8
      vertex 1.22062 3.75667 8
      vertex -3.75 6.49519 8
    endloop
  endfacet
  facet normal 0 0 -1
    outer loop
      vertex -1.22062 3.75667 8
      vertex -3.75 6.49519 8
      vertex 0 3.95 8
    endloop
  endfacet
  facet normal 0 0 -1
    outer loop
      vertex -2.32175 3.19562 8
      vertex -3.75 6.49519 8
      vertex -1.22062 3.75667 8
    endloop
  endfacet
  facet normal 0 0 -1
    outer loop
      vertex -3.19562 2.32175 8
      vertex -3.75 6.49519 8
      vertex -2.32175 3.19562 8
    endloop
  endfacet
  facet normal 0 0 -1
    outer loop
      vertex -3.75667 1.22062 8
      vertex -3.75 6.49519 8
      vertex -3.19562 2.32175 8
    endloop
  endfacet
  facet normal 0 0 -1
    outer loop
      vertex -3.75 6.49519 8
      vertex -3.75667 1.22062 8
      vertex -7.5 0 8
    endloop
  endfacet
  facet normal 0 0 -1
    outer loop
      vertex -3.75667 1.22062 8
      vertex -3.95 0 8
      vertex -7.5 0 8
    endloop
  endfacet
  facet normal 0 0 -1
    outer loop
      vertex -3.19562 -2.32175 8
      vertex -3.75 -6.49519 8
      vertex -3.75667 -1.22062 8
    endloop
  endfacet
endsolid OpenSCAD_Model
