solid OpenSCAD_Model
  facet normal -0 0 -1
    outer loop
      vertex -43 0 0
      vertex -42.0603 8.9402 0
      vertex -42.0603 -8.9402 0
    endloop
  endfacet
  facet normal 0 -0 -1
    outer loop
      vertex -40.402 10.8257 0
      vertex -42.0603 8.9402 0
      vertex -39.2825 17.4897 0
    endloop
  endfacet
  facet normal 0 0 -1
    outer loop
      vertex -39.7286 10.6453 0
      vertex -39.2825 17.4897 0
      vertex -34.7877 25.2748 0
    endloop
  endfacet
  facet normal 0 -0 -1
    outer loop
      vertex -32.3607 23.5114 0
      vertex -34.7877 25.2748 0
      vertex -28.7726 31.9552 0
    endloop
  endfacet
  facet normal 0 -0 -1
    outer loop
      vertex -26.7652 29.7258 0
      vertex -28.7726 31.9552 0
      vertex -21.5 37.2391 0
    endloop
  endfacet
  facet normal 0 -0 -1
    outer loop
      vertex -20 34.641 0
      vertex -21.5 37.2391 0
      vertex -13.2877 40.8954 0
    endloop
  endfacet
  facet normal 0 -0 -1
    outer loop
      vertex -12.3607 38.0423 0
      vertex -13.2877 40.8954 0
      vertex -4.49472 42.7644 0
    endloop
  endfacet
  facet normal 0 -0 -1
    outer loop
      vertex -4.18114 39.7809 0
      vertex -4.49472 42.7644 0
      vertex 4.49472 42.7644 0
    endloop
  endfacet
  facet normal 0 0 -1
    outer loop
      vertex 4.18114 39.7809 0
      vertex 4.49472 42.7644 0
      vertex 13.2877 40.8954 0
    endloop
  endfacet
  facet normal -0 -0 -1
    outer loop
      vertex 13.6391 37.4731 0
      vertex 13.2877 40.8954 0
      vertex 21.5 37.2391 0
    endloop
  endfacet
  facet normal -0 0 -1
    outer loop
      vertex 20 34.641 0
      vertex 21.5 37.2391 0
      vertex 28.7726 31.9552 0
    endloop
  endfacet
  facet normal -0 0 -1
    outer loop
      vertex 27.0822 29.3738 0
      vertex 28.7726 31.9552 0
      vertex 34.7877 25.2748 0
    endloop
  endfacet
  facet normal -0 0 -1
    outer loop
      vertex 32.3607 23.5114 0
      vertex 34.7877 25.2748 0
      vertex 39.2825 17.4897 0
    endloop
  endfacet
  facet normal -0 0 -1
    outer loop
      vertex 36.6333 15.9879 0
      vertex 39.2825 17.4897 0
      vertex 42.0603 8.9402 0
    endloop
  endfacet
  facet normal -0 0 -1
    outer loop
      vertex 41.6173 3.64104 0
      vertex 42.0603 8.9402 0
      vertex 42 0 0
    endloop
  endfacet
  facet normal -0 0 -1
    outer loop
      vertex 41.0822 -8.73229 0
      vertex 43 0 0
      vertex 42.0603 -8.9402 0
    endloop
  endfacet
  facet normal -0 0 -1
    outer loop
      vertex 36.5418 -16.2695 0
      vertex 42.0603 -8.9402 0
      vertex 39.2825 -17.4897 0
    endloop
  endfacet
  facet normal -0 0 -1
    outer loop
      vertex 32.3607 -23.5114 0
      vertex 39.2825 -17.4897 0
      vertex 34.7877 -25.2748 0
    endloop
  endfacet
  facet normal -0 0 -1
    outer loop
      vertex 26.7652 -29.7258 0
      vertex 34.7877 -25.2748 0
      vertex 28.7726 -31.9552 0
    endloop
  endfacet
  facet normal -0 0 -1
    outer loop
      vertex 20 -34.641 0
      vertex 28.7726 -31.9552 0
      vertex 21.5 -37.2391 0
    endloop
  endfacet
  facet normal -0 0 -1
    outer loop
      vertex 12.3607 -38.0423 0
      vertex 21.5 -37.2391 0
      vertex 13.2877 -40.8954 0
    endloop
  endfacet
  facet normal 0 0 -1
    outer loop
      vertex 4.18114 -39.7809 0
      vertex 13.2877 -40.8954 0
      vertex 4.49472 -42.7644 0
    endloop
  endfacet
  facet normal 0 0 -1
    outer loop
      vertex -4.18114 -39.7809 0
      vertex 4.49472 -42.7644 0
      vertex -4.49472 -42.7644 0
    endloop
  endfacet
  facet normal 0 0 -1
    outer loop
      vertex -13.6391 -37.4731 0
      vertex -4.49472 -42.7644 0
      vertex -13.2877 -40.8954 0
    endloop
  endfacet
  facet normal 0 0 -1
    outer loop
      vertex -20.3926 -34.3557 0
      vertex -13.2877 -40.8954 0
      vertex -21.5 -37.2391 0
    endloop
  endfacet
  facet normal 0 0 -1
    outer loop
      vertex -32.3607 -23.5114 0
      vertex -21.5 -37.2391 0
      vertex -28.7726 -31.9552 0
    endloop
  endfacet
  facet normal 0 0 -1
    outer loop
      vertex -42.0603 -8.9402 0
      vertex -28.7726 -31.9552 0
      vertex -34.7877 -25.2748 0
    endloop
  endfacet
  facet normal 0 0 -1
    outer loop
      vertex -42.0603 -8.9402 0
      vertex -34.7877 -25.2748 0
      vertex -39.2825 -17.4897 0
    endloop
  endfacet
  facet normal 0 -0 -1
    outer loop
      vertex -42.0603 -8.9402 0
      vertex -42.0603 8.9402 0
      vertex -42 5.14335e-015 0
    endloop
  endfacet
  facet normal 0 0 -1
    outer loop
      vertex -42.0603 -8.9402 0
      vertex -42 5.14335e-015 0
      vertex -41.6173 -3.64104 0
    endloop
  endfacet
  facet normal 0 0 -4.18517e-015
    outer loop
      vertex -38.6 4.72698e-015 0
      vertex -40 -4.29896e-015 0
      vertex -40 1.56028e-015 0
    endloop
  endfacet
  facet normal 0 0 -1
    outer loop
      vertex -39.7286 10.6453 0
      vertex -40.9237 -3.58036 0
      vertex -41.3 5.05762e-015 0
    endloop
  endfacet
  facet normal -0 0 -1
    outer loop
      vertex -40.402 10.8257 0
      vertex -39.2825 17.4897 0
      vertex -39.7286 10.6453 0
    endloop
  endfacet
  facet normal 0 -0 -1
    outer loop
      vertex -39.1259 8.31647 0
      vertex -39.7286 10.6453 0
      vertex -34.7877 25.2748 0
    endloop
  endfacet
  facet normal 0 -0 -1
    outer loop
      vertex -41.0822 8.73229 0
      vertex -42.0603 8.9402 0
      vertex -40.402 10.8257 0
    endloop
  endfacet
  facet normal 0 -0 -1
    outer loop
      vertex -42 5.14335e-015 0
      vertex -42.0603 8.9402 0
      vertex -41.0822 8.73229 0
    endloop
  endfacet
  facet normal 0 0 -1
    outer loop
      vertex -39.1259 -8.31647 0
      vertex -42.0603 -8.9402 0
      vertex -39.1425 -8.15856 0
    endloop
  endfacet
  facet normal 0 0 7.53737e-016
    outer loop
      vertex -42.0603 -8.9402 0
      vertex -40 1.56028e-015 0
      vertex -40 0 0
    endloop
  endfacet
  facet normal -0 0 -1
    outer loop
      vertex -39.1425 -8.15856 0
      vertex -37.7565 -8.02539 0
      vertex -35.2629 -15.7 0
    endloop
  endfacet
  facet normal 0 0 -8.79505e-016
    outer loop
      vertex -42.0603 -8.9402 0
      vertex -40 0 0
      vertex -40 -4.29896e-015 0
    endloop
  endfacet
  facet normal 0 0 -1
    outer loop
      vertex -37.7565 -8.02539 0
      vertex -39.1425 -8.15856 0
      vertex -38.6 0 0
    endloop
  endfacet
  facet normal 0 0 -1
    outer loop
      vertex -40.9237 -3.58036 0
      vertex -39.7286 10.6453 0
      vertex -39.7117 2.7427 0
    endloop
  endfacet
  facet normal 0 0 -1
    outer loop
      vertex -38.6 4.72698e-015 0
      vertex -42.0603 -8.9402 0
      vertex -40 -4.29896e-015 0
    endloop
  endfacet
  facet normal 0 0 -2.38439e-015
    outer loop
      vertex -38.6 4.72698e-015 0
      vertex -40 1.56028e-015 0
      vertex -40 4.89843e-015 0
    endloop
  endfacet
  facet normal 0 0 -1.02349e-016
    outer loop
      vertex -42.0603 -8.9402 0
      vertex -40 4.89843e-015 0
      vertex -40 1.56028e-015 0
    endloop
  endfacet
  facet normal 0 -0 -1
    outer loop
      vertex -39.1425 -8.15856 0
      vertex -42.0603 -8.9402 0
      vertex -38.6 0 0
    endloop
  endfacet
  facet normal 0 0 5.62294e-016
    outer loop
      vertex -42.0603 -8.9402 0
      vertex -38.6 4.72698e-015 0
      vertex -38.6 0 0
    endloop
  endfacet
  facet normal 0 0 -1
    outer loop
      vertex 26.7652 -29.7258 0
      vertex 28.7726 -31.9552 0
      vertex 20 -34.641 0
    endloop
  endfacet
  facet normal 0 0 -1
    outer loop
      vertex -35.2629 -15.7 0
      vertex -42.0603 -8.9402 0
      vertex -39.0257 -8.62489 0
    endloop
  endfacet
  facet normal 0 0 -1
    outer loop
      vertex -31.2281 -22.6885 0
      vertex -42.0603 -8.9402 0
      vertex -35.2629 -15.7 0
    endloop
  endfacet
  facet normal 0 0 -1
    outer loop
      vertex -19.3 -33.4286 0
      vertex -13.2877 -40.8954 0
      vertex -25.8284 -28.6854 0
    endloop
  endfacet
  facet normal -0 -0 -1
    outer loop
      vertex -26.4052 -29.9874 0
      vertex -31.2281 -22.6885 0
      vertex -21.5 -37.2391 0
    endloop
  endfacet
  facet normal 0 0 -1
    outer loop
      vertex -31.2281 -22.6885 0
      vertex -25.8284 -28.6854 0
      vertex -21.5 -37.2391 0
    endloop
  endfacet
  facet normal 0 -0 -1
    outer loop
      vertex -13.6391 -37.4731 0
      vertex -19.3 -33.4286 0
      vertex -13.1617 -36.1615 0
    endloop
  endfacet
  facet normal 0 0 -1
    outer loop
      vertex -12.3607 -38.0423 0
      vertex -4.49472 -42.7644 0
      vertex -13.6391 -37.4731 0
    endloop
  endfacet
  facet normal 0 0 -1
    outer loop
      vertex -19.3 -33.4286 0
      vertex -13.6391 -37.4731 0
      vertex -13.2877 -40.8954 0
    endloop
  endfacet
  facet normal 0 0 -1
    outer loop
      vertex -4.18114 -39.7809 0
      vertex -4.49472 -42.7644 0
      vertex -12.3607 -38.0423 0
    endloop
  endfacet
  facet normal -0 0 -1
    outer loop
      vertex 40.402 -10.8257 0
      vertex 42.0603 -8.9402 0
      vertex 36.5418 -16.2695 0
    endloop
  endfacet
  facet normal -0 0 -1
    outer loop
      vertex 39.1434 -2.87391 0
      vertex 39.7117 -2.7427 0
      vertex 39.0478 -3.96693 0
    endloop
  endfacet
  facet normal -0 0 -1
    outer loop
      vertex 38.6 0 0
      vertex 42.0603 8.9402 0
      vertex 40 0 0
    endloop
  endfacet
  facet normal -0 0 -1
    outer loop
      vertex 42 0 0
      vertex 42.0603 8.9402 0
      vertex 43 0 0
    endloop
  endfacet
  facet normal -0 0 -1
    outer loop
      vertex 39.1425 8.15856 0
      vertex 42.0603 8.9402 0
      vertex 38.6 0 0
    endloop
  endfacet
  facet normal 0 0 -1
    outer loop
      vertex 36.6333 15.9879 0
      vertex 35.2629 15.7 0
      vertex 31.2281 22.6885 0
    endloop
  endfacet
  facet normal 0 -0 -1
    outer loop
      vertex 39.0257 8.62489 0
      vertex 35.2629 15.7 0
      vertex 42.0603 8.9402 0
    endloop
  endfacet
  facet normal 0 0 -1
    outer loop
      vertex 32.563 23.1609 0
      vertex 31.2281 22.6885 0
      vertex 32.0341 23.8742 0
    endloop
  endfacet
  facet normal 0 -0 -1
    outer loop
      vertex 36.3112 16.6689 0
      vertex 31.2281 22.6885 0
      vertex 39.2825 17.4897 0
    endloop
  endfacet
  facet normal 0 0 -1
    outer loop
      vertex 27.0822 29.3738 0
      vertex 25.8284 28.6854 0
      vertex 19.3 33.4286 0
    endloop
  endfacet
  facet normal 0 0 -1
    outer loop
      vertex 20.3926 34.3557 0
      vertex 19.3 33.4286 0
      vertex 19.6761 34.7852 0
    endloop
  endfacet
  facet normal -0 0 -1
    outer loop
      vertex 4.18114 39.7809 0
      vertex 13.2877 40.8954 0
      vertex 12.3607 38.0423 0
    endloop
  endfacet
  facet normal 0 0 -1
    outer loop
      vertex 13.1617 36.1615 0
      vertex 13.6391 37.4731 0
      vertex 21.5 37.2391 0
    endloop
  endfacet
  facet normal 0 0 -1
    outer loop
      vertex 40 0 0
      vertex 41.3 0 0
      vertex 39.7117 -2.7427 0
    endloop
  endfacet
  facet normal 0 0 -1
    outer loop
      vertex 39.1259 -8.31647 0
      vertex 39.7286 -10.6453 0
      vertex 36.5418 -16.2695 0
    endloop
  endfacet
  facet normal 0 0 -1
    outer loop
      vertex 41.0822 -8.73229 0
      vertex 42.0603 -8.9402 0
      vertex 40.402 -10.8257 0
    endloop
  endfacet
  facet normal 0 0 -1
    outer loop
      vertex 36.5418 -16.2695 0
      vertex 39.2825 -17.4897 0
      vertex 32.3607 -23.5114 0
    endloop
  endfacet
  facet normal 0 0 -1
    outer loop
      vertex 32.3607 -23.5114 0
      vertex 34.7877 -25.2748 0
      vertex 26.7652 -29.7258 0
    endloop
  endfacet
  facet normal 0 0 -1
    outer loop
      vertex -32.3607 23.5114 0
      vertex -28.7726 31.9552 0
      vertex -26.7652 29.7258 0
    endloop
  endfacet
  facet normal 0 0 -1
    outer loop
      vertex -36.5418 16.2695 0
      vertex -34.7877 25.2748 0
      vertex -32.3607 23.5114 0
    endloop
  endfacet
  facet normal 0 0 -1
    outer loop
      vertex -26.7652 29.7258 0
      vertex -21.5 37.2391 0
      vertex -20 34.641 0
    endloop
  endfacet
  facet normal 0 0 -1
    outer loop
      vertex -39.1259 8.31647 0
      vertex -34.7877 25.2748 0
      vertex -36.5418 16.2695 0
    endloop
  endfacet
  facet normal 0 -0 -1
    outer loop
      vertex -39.5602 4.18445 0
      vertex -39.7286 10.6453 0
      vertex -39.1259 8.31647 0
    endloop
  endfacet
  facet normal 0 0 -1
    outer loop
      vertex -39.0478 3.96693 0
      vertex -39.7117 2.7427 0
      vertex -39.5602 4.18445 0
    endloop
  endfacet
  facet normal 0 -0 -1
    outer loop
      vertex -39.7117 2.7427 0
      vertex -39.7286 10.6453 0
      vertex -39.5602 4.18445 0
    endloop
  endfacet
  facet normal 0 0 -1
    outer loop
      vertex -39.1425 -8.15856 0
      vertex -35.2629 -15.7 0
      vertex -39.0257 -8.62489 0
    endloop
  endfacet
  facet normal 0 0 -1
    outer loop
      vertex -39.0257 -8.62489 0
      vertex -42.0603 -8.9402 0
      vertex -39.1259 -8.31647 0
    endloop
  endfacet
  facet normal 0 0 -1
    outer loop
      vertex -36.6333 -15.9879 0
      vertex -21.5 -37.2391 0
      vertex -36.3112 -16.6689 0
    endloop
  endfacet
  facet normal 0 0 -1
    outer loop
      vertex -42.0603 -8.9402 0
      vertex -31.2281 -22.6885 0
      vertex -36.6333 -15.9879 0
    endloop
  endfacet
  facet normal -0 -0 -1
    outer loop
      vertex -27.0822 -29.3738 0
      vertex -31.2281 -22.6885 0
      vertex -26.4052 -29.9874 0
    endloop
  endfacet
  facet normal 0 0 -1
    outer loop
      vertex -42.0603 -8.9402 0
      vertex -36.6333 -15.9879 0
      vertex -36.5418 -16.2695 0
    endloop
  endfacet
  facet normal 0 0 -1
    outer loop
      vertex -42.0603 -8.9402 0
      vertex -36.5418 -16.2695 0
      vertex -36.3112 -16.6689 0
    endloop
  endfacet
  facet normal 0 0 -1
    outer loop
      vertex -42.0603 -8.9402 0
      vertex -36.3112 -16.6689 0
      vertex -21.5 -37.2391 0
    endloop
  endfacet
  facet normal 0 0 -1
    outer loop
      vertex -42.0603 -8.9402 0
      vertex -21.5 -37.2391 0
      vertex -32.563 -23.1609 0
    endloop
  endfacet
  facet normal 0 0 -1
    outer loop
      vertex -42.0603 -8.9402 0
      vertex -32.563 -23.1609 0
      vertex -28.7726 -31.9552 0
    endloop
  endfacet
  facet normal 0 0 -1
    outer loop
      vertex -32.0341 -23.8742 0
      vertex -21.5 -37.2391 0
      vertex -32.3607 -23.5114 0
    endloop
  endfacet
  facet normal 0 0 -1
    outer loop
      vertex -32.563 -23.1609 0
      vertex -32.3607 -23.5114 0
      vertex -28.7726 -31.9552 0
    endloop
  endfacet
  facet normal 0 0 -1
    outer loop
      vertex -32.563 -23.1609 0
      vertex -21.5 -37.2391 0
      vertex -32.0341 -23.8742 0
    endloop
  endfacet
  facet normal 0 0 -1
    outer loop
      vertex -36.6333 -15.9879 0
      vertex -31.2281 -22.6885 0
      vertex -27.0822 -29.3738 0
    endloop
  endfacet
  facet normal 0 0 -1
    outer loop
      vertex -36.6333 -15.9879 0
      vertex -27.0822 -29.3738 0
      vertex -21.5 -37.2391 0
    endloop
  endfacet
  facet normal -0 -0 -1
    outer loop
      vertex -20.3926 -34.3557 0
      vertex -25.8284 -28.6854 0
      vertex -19.6761 -34.7852 0
    endloop
  endfacet
  facet normal 0 0 -1
    outer loop
      vertex -27.0822 -29.3738 0
      vertex -26.7652 -29.7258 0
      vertex -21.5 -37.2391 0
    endloop
  endfacet
  facet normal 0 0 -1
    outer loop
      vertex -26.7652 -29.7258 0
      vertex -26.4052 -29.9874 0
      vertex -21.5 -37.2391 0
    endloop
  endfacet
  facet normal 0 0 -1
    outer loop
      vertex -20 -34.641 0
      vertex -13.2877 -40.8954 0
      vertex -20.3926 -34.3557 0
    endloop
  endfacet
  facet normal 0 0 -1
    outer loop
      vertex -25.8284 -28.6854 0
      vertex -20.3926 -34.3557 0
      vertex -21.5 -37.2391 0
    endloop
  endfacet
  facet normal 0 0 -1
    outer loop
      vertex -19.6761 -34.7852 0
      vertex -13.2877 -40.8954 0
      vertex -20 -34.641 0
    endloop
  endfacet
  facet normal -0 0 -1
    outer loop
      vertex 19.6761 34.7852 0
      vertex 21.5 37.2391 0
      vertex 20 34.641 0
    endloop
  endfacet
  facet normal 0 0 -1
    outer loop
      vertex -25.8284 -28.6854 0
      vertex -13.2877 -40.8954 0
      vertex -19.6761 -34.7852 0
    endloop
  endfacet
  facet normal -0 0 -1
    outer loop
      vertex 32.0341 23.8742 0
      vertex 34.7877 25.2748 0
      vertex 32.3607 23.5114 0
    endloop
  endfacet
  facet normal -0 -0 -1
    outer loop
      vertex 20.3926 34.3557 0
      vertex 20 34.641 0
      vertex 28.7726 31.9552 0
    endloop
  endfacet
  facet normal -0 0 -1
    outer loop
      vertex 26.7652 29.7258 0
      vertex 28.7726 31.9552 0
      vertex 27.0822 29.3738 0
    endloop
  endfacet
  facet normal -0 0 -1
    outer loop
      vertex 19.3 33.4286 0
      vertex 20.3926 34.3557 0
      vertex 28.7726 31.9552 0
    endloop
  endfacet
  facet normal -0 0 -1
    outer loop
      vertex 26.4052 29.9874 0
      vertex 28.7726 31.9552 0
      vertex 26.7652 29.7258 0
    endloop
  endfacet
  facet normal 0 -0 -1
    outer loop
      vertex 39.5602 -4.18445 0
      vertex 39.0478 -3.96693 0
      vertex 39.7117 -2.7427 0
    endloop
  endfacet
  facet normal 0 0 -1
    outer loop
      vertex 39.1425 8.15856 0
      vertex 37.7565 8.02539 0
      vertex 35.2629 15.7 0
    endloop
  endfacet
  facet normal 0 0 -1
    outer loop
      vertex 27.0822 29.3738 0
      vertex 19.3 33.4286 0
      vertex 26.4052 29.9874 0
    endloop
  endfacet
  facet normal -0 0 -1
    outer loop
      vertex 25.8284 28.6854 0
      vertex 27.0822 29.3738 0
      vertex 34.7877 25.2748 0
    endloop
  endfacet
  facet normal -0 -0 -1
    outer loop
      vertex 32.563 23.1609 0
      vertex 32.3607 23.5114 0
      vertex 39.2825 17.4897 0
    endloop
  endfacet
  facet normal 0 0 -1
    outer loop
      vertex 40.3975 -8.58675 0
      vertex 39.1259 -8.31647 0
      vertex 39.5602 -4.18445 0
    endloop
  endfacet
  facet normal -0 0 -1
    outer loop
      vertex 36.5418 16.2695 0
      vertex 39.2825 17.4897 0
      vertex 36.6333 15.9879 0
    endloop
  endfacet
  facet normal -0 0 -1
    outer loop
      vertex 31.2281 22.6885 0
      vertex 32.563 23.1609 0
      vertex 39.2825 17.4897 0
    endloop
  endfacet
  facet normal 0 0 -1
    outer loop
      vertex 41.3 0 0
      vertex 40 0 0
      vertex 40.9237 3.58036 0
    endloop
  endfacet
  facet normal 0 -0 -1
    outer loop
      vertex 40.3975 -8.58675 0
      vertex 39.7117 -2.7427 0
      vertex 41.3 0 0
    endloop
  endfacet
  facet normal 0 0 -1
    outer loop
      vertex 36.6333 15.9879 0
      vertex 31.2281 22.6885 0
      vertex 36.3112 16.6689 0
    endloop
  endfacet
  facet normal -0 0 -1
    outer loop
      vertex 35.2629 15.7 0
      vertex 36.6333 15.9879 0
      vertex 42.0603 8.9402 0
    endloop
  endfacet
  facet normal -0 0 -1
    outer loop
      vertex 36.3112 16.6689 0
      vertex 39.2825 17.4897 0
      vertex 36.5418 16.2695 0
    endloop
  endfacet
  facet normal 0 0 -1
    outer loop
      vertex 40.3975 -8.58675 0
      vertex 39.5602 -4.18445 0
      vertex 39.7117 -2.7427 0
    endloop
  endfacet
  facet normal 0 -0 -1
    outer loop
      vertex 39.1259 8.31647 0
      vertex 39.0257 8.62489 0
      vertex 42.0603 8.9402 0
    endloop
  endfacet
  facet normal 0 0 -1
    outer loop
      vertex 39.1425 8.15856 0
      vertex 35.2629 15.7 0
      vertex 39.0257 8.62489 0
    endloop
  endfacet
  facet normal -0 0 -1
    outer loop
      vertex 37.7565 8.02539 0
      vertex 39.1425 8.15856 0
      vertex 38.6 0 0
    endloop
  endfacet
  facet normal 0 -0 -1
    outer loop
      vertex 39.7286 -10.6453 0
      vertex 39.1259 -8.31647 0
      vertex 40.3975 -8.58675 0
    endloop
  endfacet
  facet normal 0 0 -1
    outer loop
      vertex 39.7286 -10.6453 0
      vertex 40.402 -10.8257 0
      vertex 36.5418 -16.2695 0
    endloop
  endfacet
  facet normal 0 0 -1
    outer loop
      vertex 42 0 0
      vertex 43 0 0
      vertex 41.0822 -8.73229 0
    endloop
  endfacet
  facet normal 0 0 -1
    outer loop
      vertex 40.9237 3.58036 0
      vertex 42.0603 8.9402 0
      vertex 41.6173 3.64104 0
    endloop
  endfacet
  facet normal 0 0 -1
    outer loop
      vertex 40 0 0
      vertex 42.0603 8.9402 0
      vertex 40.9237 3.58036 0
    endloop
  endfacet
  facet normal 0 0 -1
    outer loop
      vertex -40.9237 -3.58036 0
      vertex -42.0603 -8.9402 0
      vertex -41.6173 -3.64104 0
    endloop
  endfacet
  facet normal 0 0 -1
    outer loop
      vertex -39.7286 10.6453 0
      vertex -41.3 5.05762e-015 0
      vertex -40.3975 8.58675 0
    endloop
  endfacet
  facet normal 0 0 -1
    outer loop
      vertex -39.7117 2.7427 0
      vertex -39.0478 3.96693 0
      vertex -39.1434 2.87391 0
    endloop
  endfacet
  facet normal 0 0 -1
    outer loop
      vertex -20 34.641 0
      vertex -13.2877 40.8954 0
      vertex -12.3607 38.0423 0
    endloop
  endfacet
  facet normal 0 0 -1
    outer loop
      vertex -40 4.89843e-015 0
      vertex -42.0603 -8.9402 0
      vertex -40.9237 -3.58036 0
    endloop
  endfacet
  facet normal 0 -0 -1
    outer loop
      vertex -40 4.89843e-015 0
      vertex -40.9237 -3.58036 0
      vertex -39.7117 2.7427 0
    endloop
  endfacet
  facet normal 0 0 -1
    outer loop
      vertex -12.3607 38.0423 0
      vertex -4.49472 42.7644 0
      vertex -4.18114 39.7809 0
    endloop
  endfacet
  facet normal -0 0 -1
    outer loop
      vertex -4.18114 39.7809 0
      vertex 4.49472 42.7644 0
      vertex 4.18114 39.7809 0
    endloop
  endfacet
  facet normal -0 0 -1
    outer loop
      vertex 12.3607 38.0423 0
      vertex 13.2877 40.8954 0
      vertex 13.6391 37.4731 0
    endloop
  endfacet
  facet normal -0 0 -1
    outer loop
      vertex 13.1617 36.1615 0
      vertex 21.5 37.2391 0
      vertex 19.6761 34.7852 0
    endloop
  endfacet
  facet normal 0 0 -1
    outer loop
      vertex 13.1617 36.1615 0
      vertex 19.6761 34.7852 0
      vertex 19.3 33.4286 0
    endloop
  endfacet
  facet normal 0 0 -1
    outer loop
      vertex 19.3 33.4286 0
      vertex 28.7726 31.9552 0
      vertex 26.4052 29.9874 0
    endloop
  endfacet
  facet normal -0 0 -1
    outer loop
      vertex 39.1259 8.31647 0
      vertex 42.0603 8.9402 0
      vertex 39.1425 8.15856 0
    endloop
  endfacet
  facet normal 0 0 -1
    outer loop
      vertex 25.8284 28.6854 0
      vertex 34.7877 25.2748 0
      vertex 32.0341 23.8742 0
    endloop
  endfacet
  facet normal 0 0 -1
    outer loop
      vertex 25.8284 28.6854 0
      vertex 32.0341 23.8742 0
      vertex 31.2281 22.6885 0
    endloop
  endfacet
  facet normal 0 0 -1
    outer loop
      vertex 20 -34.641 0
      vertex 21.5 -37.2391 0
      vertex 12.3607 -38.0423 0
    endloop
  endfacet
  facet normal 0 0 -1
    outer loop
      vertex 12.3607 -38.0423 0
      vertex 13.2877 -40.8954 0
      vertex 4.18114 -39.7809 0
    endloop
  endfacet
  facet normal 0 0 -1
    outer loop
      vertex 4.18114 -39.7809 0
      vertex 4.49472 -42.7644 0
      vertex -4.18114 -39.7809 0
    endloop
  endfacet
  facet normal -0.994522 0.104528 0
    outer loop
      vertex -43 0 0
      vertex -43 0 5
      vertex -42.0603 8.9402 0
    endloop
  endfacet
  facet normal -0.994522 0.104528 0
    outer loop
      vertex -42.0603 8.9402 0
      vertex -43 0 5
      vertex -42.0603 8.9402 5
    endloop
  endfacet
  facet normal -0.994522 -0.104528 -0
    outer loop
      vertex -43 0 0
      vertex -42.0603 -8.9402 0
      vertex -43 0 5
    endloop
  endfacet
  facet normal -0.994522 -0.104528 0
    outer loop
      vertex -43 0 5
      vertex -42.0603 -8.9402 0
      vertex -42.0603 -8.9402 5
    endloop
  endfacet
  facet normal -0.951057 -0.309017 -0
    outer loop
      vertex -42.0603 -8.9402 0
      vertex -39.2825 -17.4897 0
      vertex -42.0603 -8.9402 5
    endloop
  endfacet
  facet normal -0.951057 -0.309017 0
    outer loop
      vertex -42.0603 -8.9402 5
      vertex -39.2825 -17.4897 0
      vertex -39.2825 -17.4897 5
    endloop
  endfacet
  facet normal -0.866025 -0.5 -0
    outer loop
      vertex -39.2825 -17.4897 0
      vertex -34.7877 -25.2748 0
      vertex -39.2825 -17.4897 5
    endloop
  endfacet
  facet normal -0.866025 -0.5 0
    outer loop
      vertex -39.2825 -17.4897 5
      vertex -34.7877 -25.2748 0
      vertex -34.7877 -25.2748 5
    endloop
  endfacet
  facet normal -0.743145 -0.669131 -0
    outer loop
      vertex -34.7877 -25.2748 0
      vertex -28.7726 -31.9552 0
      vertex -34.7877 -25.2748 5
    endloop
  endfacet
  facet normal -0.743145 -0.669131 0
    outer loop
      vertex -34.7877 -25.2748 5
      vertex -28.7726 -31.9552 0
      vertex -28.7726 -31.9552 5
    endloop
  endfacet
  facet normal -0.587785 -0.809017 0
    outer loop
      vertex -28.7726 -31.9552 5
      vertex -28.7726 -31.9552 0
      vertex -21.5 -37.2391 0
    endloop
  endfacet
  facet normal -0.587785 -0.809017 0
    outer loop
      vertex -21.5 -37.2391 5
      vertex -28.7726 -31.9552 5
      vertex -21.5 -37.2391 0
    endloop
  endfacet
  facet normal -0.406737 -0.913545 0
    outer loop
      vertex -21.5 -37.2391 5
      vertex -21.5 -37.2391 0
      vertex -13.2877 -40.8954 0
    endloop
  endfacet
  facet normal -0.406737 -0.913545 0
    outer loop
      vertex -13.2877 -40.8954 5
      vertex -21.5 -37.2391 5
      vertex -13.2877 -40.8954 0
    endloop
  endfacet
  facet normal -0.207912 -0.978148 0
    outer loop
      vertex -13.2877 -40.8954 5
      vertex -13.2877 -40.8954 0
      vertex -4.49472 -42.7644 0
    endloop
  endfacet
  facet normal -0.207912 -0.978148 0
    outer loop
      vertex -4.49472 -42.7644 5
      vertex -13.2877 -40.8954 5
      vertex -4.49472 -42.7644 0
    endloop
  endfacet
  facet normal 0 -1 0
    outer loop
      vertex -4.49472 -42.7644 5
      vertex -4.49472 -42.7644 0
      vertex 4.49472 -42.7644 0
    endloop
  endfacet
  facet normal 0 -1 0
    outer loop
      vertex 4.49472 -42.7644 5
      vertex -4.49472 -42.7644 5
      vertex 4.49472 -42.7644 0
    endloop
  endfacet
  facet normal 0.207912 -0.978148 0
    outer loop
      vertex 4.49472 -42.7644 5
      vertex 4.49472 -42.7644 0
      vertex 13.2877 -40.8954 0
    endloop
  endfacet
  facet normal 0.207912 -0.978148 0
    outer loop
      vertex 13.2877 -40.8954 5
      vertex 4.49472 -42.7644 5
      vertex 13.2877 -40.8954 0
    endloop
  endfacet
  facet normal 0.406737 -0.913545 0
    outer loop
      vertex 13.2877 -40.8954 5
      vertex 13.2877 -40.8954 0
      vertex 21.5 -37.2391 0
    endloop
  endfacet
  facet normal 0.406737 -0.913545 0
    outer loop
      vertex 21.5 -37.2391 5
      vertex 13.2877 -40.8954 5
      vertex 21.5 -37.2391 0
    endloop
  endfacet
  facet normal 0.587785 -0.809017 0
    outer loop
      vertex 21.5 -37.2391 5
      vertex 21.5 -37.2391 0
      vertex 28.7726 -31.9552 0
    endloop
  endfacet
  facet normal 0.587785 -0.809017 0
    outer loop
      vertex 28.7726 -31.9552 5
      vertex 21.5 -37.2391 5
      vertex 28.7726 -31.9552 0
    endloop
  endfacet
  facet normal 0.743145 -0.669131 0
    outer loop
      vertex 28.7726 -31.9552 5
      vertex 28.7726 -31.9552 0
      vertex 34.7877 -25.2748 0
    endloop
  endfacet
  facet normal 0.743145 -0.669131 0
    outer loop
      vertex 34.7877 -25.2748 5
      vertex 28.7726 -31.9552 5
      vertex 34.7877 -25.2748 0
    endloop
  endfacet
  facet normal 0.866025 -0.5 0
    outer loop
      vertex 34.7877 -25.2748 5
      vertex 34.7877 -25.2748 0
      vertex 39.2825 -17.4897 0
    endloop
  endfacet
  facet normal 0.866025 -0.5 0
    outer loop
      vertex 39.2825 -17.4897 5
      vertex 34.7877 -25.2748 5
      vertex 39.2825 -17.4897 0
    endloop
  endfacet
  facet normal 0.951057 -0.309017 0
    outer loop
      vertex 39.2825 -17.4897 5
      vertex 39.2825 -17.4897 0
      vertex 42.0603 -8.9402 0
    endloop
  endfacet
  facet normal 0.951057 -0.309017 0
    outer loop
      vertex 42.0603 -8.9402 5
      vertex 39.2825 -17.4897 5
      vertex 42.0603 -8.9402 0
    endloop
  endfacet
  facet normal 0.994522 -0.104528 0
    outer loop
      vertex 42.0603 -8.9402 5
      vertex 42.0603 -8.9402 0
      vertex 43 0 0
    endloop
  endfacet
  facet normal 0.994522 -0.104528 0
    outer loop
      vertex 43 0 5
      vertex 42.0603 -8.9402 5
      vertex 43 0 0
    endloop
  endfacet
  facet normal 0.994522 0.104528 0
    outer loop
      vertex 43 0 0
      vertex 42.0603 8.9402 0
      vertex 42.0603 8.9402 5
    endloop
  endfacet
  facet normal 0.994522 0.104528 -0
    outer loop
      vertex 43 0 5
      vertex 43 0 0
      vertex 42.0603 8.9402 5
    endloop
  endfacet
  facet normal 0.951057 0.309017 0
    outer loop
      vertex 42.0603 8.9402 0
      vertex 39.2825 17.4897 0
      vertex 39.2825 17.4897 5
    endloop
  endfacet
  facet normal 0.951057 0.309017 -0
    outer loop
      vertex 42.0603 8.9402 5
      vertex 42.0603 8.9402 0
      vertex 39.2825 17.4897 5
    endloop
  endfacet
  facet normal 0.866025 0.5 0
    outer loop
      vertex 39.2825 17.4897 0
      vertex 34.7877 25.2748 0
      vertex 34.7877 25.2748 5
    endloop
  endfacet
  facet normal 0.866025 0.5 -0
    outer loop
      vertex 39.2825 17.4897 5
      vertex 39.2825 17.4897 0
      vertex 34.7877 25.2748 5
    endloop
  endfacet
  facet normal 0.743145 0.669131 0
    outer loop
      vertex 34.7877 25.2748 0
      vertex 28.7726 31.9552 0
      vertex 28.7726 31.9552 5
    endloop
  endfacet
  facet normal 0.743145 0.669131 -0
    outer loop
      vertex 34.7877 25.2748 5
      vertex 34.7877 25.2748 0
      vertex 28.7726 31.9552 5
    endloop
  endfacet
  facet normal 0.587785 0.809017 0
    outer loop
      vertex 21.5 37.2391 0
      vertex 21.5 37.2391 5
      vertex 28.7726 31.9552 0
    endloop
  endfacet
  facet normal 0.587785 0.809017 0
    outer loop
      vertex 28.7726 31.9552 0
      vertex 21.5 37.2391 5
      vertex 28.7726 31.9552 5
    endloop
  endfacet
  facet normal 0.406737 0.913545 0
    outer loop
      vertex 13.2877 40.8954 0
      vertex 13.2877 40.8954 5
      vertex 21.5 37.2391 0
    endloop
  endfacet
  facet normal 0.406737 0.913545 0
    outer loop
      vertex 21.5 37.2391 0
      vertex 13.2877 40.8954 5
      vertex 21.5 37.2391 5
    endloop
  endfacet
  facet normal 0.207912 0.978148 0
    outer loop
      vertex 4.49472 42.7644 0
      vertex 4.49472 42.7644 5
      vertex 13.2877 40.8954 0
    endloop
  endfacet
  facet normal 0.207912 0.978148 0
    outer loop
      vertex 13.2877 40.8954 0
      vertex 4.49472 42.7644 5
      vertex 13.2877 40.8954 5
    endloop
  endfacet
  facet normal 0 1 0
    outer loop
      vertex -4.49472 42.7644 0
      vertex -4.49472 42.7644 5
      vertex 4.49472 42.7644 0
    endloop
  endfacet
  facet normal 0 1 0
    outer loop
      vertex 4.49472 42.7644 0
      vertex -4.49472 42.7644 5
      vertex 4.49472 42.7644 5
    endloop
  endfacet
  facet normal -0.207912 0.978148 0
    outer loop
      vertex -13.2877 40.8954 0
      vertex -13.2877 40.8954 5
      vertex -4.49472 42.7644 0
    endloop
  endfacet
  facet normal -0.207912 0.978148 0
    outer loop
      vertex -4.49472 42.7644 0
      vertex -13.2877 40.8954 5
      vertex -4.49472 42.7644 5
    endloop
  endfacet
  facet normal -0.406737 0.913545 0
    outer loop
      vertex -21.5 37.2391 0
      vertex -21.5 37.2391 5
      vertex -13.2877 40.8954 0
    endloop
  endfacet
  facet normal -0.406737 0.913545 0
    outer loop
      vertex -13.2877 40.8954 0
      vertex -21.5 37.2391 5
      vertex -13.2877 40.8954 5
    endloop
  endfacet
  facet normal -0.587785 0.809017 0
    outer loop
      vertex -28.7726 31.9552 0
      vertex -28.7726 31.9552 5
      vertex -21.5 37.2391 0
    endloop
  endfacet
  facet normal -0.587785 0.809017 0
    outer loop
      vertex -21.5 37.2391 0
      vertex -28.7726 31.9552 5
      vertex -21.5 37.2391 5
    endloop
  endfacet
  facet normal -0.743145 0.669131 0
    outer loop
      vertex -34.7877 25.2748 0
      vertex -34.7877 25.2748 5
      vertex -28.7726 31.9552 0
    endloop
  endfacet
  facet normal -0.743145 0.669131 0
    outer loop
      vertex -28.7726 31.9552 0
      vertex -34.7877 25.2748 5
      vertex -28.7726 31.9552 5
    endloop
  endfacet
  facet normal -0.866025 0.5 0
    outer loop
      vertex -39.2825 17.4897 0
      vertex -39.2825 17.4897 5
      vertex -34.7877 25.2748 0
    endloop
  endfacet
  facet normal -0.866025 0.5 0
    outer loop
      vertex -34.7877 25.2748 0
      vertex -39.2825 17.4897 5
      vertex -34.7877 25.2748 5
    endloop
  endfacet
  facet normal -0.951057 0.309017 0
    outer loop
      vertex -42.0603 8.9402 0
      vertex -42.0603 8.9402 5
      vertex -39.2825 17.4897 0
    endloop
  endfacet
  facet normal -0.951057 0.309017 0
    outer loop
      vertex -39.2825 17.4897 0
      vertex -42.0603 8.9402 5
      vertex -39.2825 17.4897 5
    endloop
  endfacet
  facet normal 0.994522 0.104528 0
    outer loop
      vertex -42 5.14335e-015 5
      vertex -41.6173 -3.64104 5
      vertex -41.6173 -3.64104 0
    endloop
  endfacet
  facet normal 0.994522 0.104528 0
    outer loop
      vertex -42 5.14335e-015 0
      vertex -42 5.14335e-015 5
      vertex -41.6173 -3.64104 0
    endloop
  endfacet
  facet normal 0.994522 -0.104528 0
    outer loop
      vertex -41.0822 8.73229 0
      vertex -41.0822 8.73229 5
      vertex -42 5.14335e-015 5
    endloop
  endfacet
  facet normal 0.994522 -0.104528 0
    outer loop
      vertex -42 5.14335e-015 0
      vertex -41.0822 8.73229 0
      vertex -42 5.14335e-015 5
    endloop
  endfacet
  facet normal 0.951057 -0.309017 0
    outer loop
      vertex -40.402 10.8257 0
      vertex -40.402 10.8257 5
      vertex -41.0822 8.73229 5
    endloop
  endfacet
  facet normal 0.951057 -0.309017 0
    outer loop
      vertex -41.0822 8.73229 0
      vertex -40.402 10.8257 0
      vertex -41.0822 8.73229 5
    endloop
  endfacet
  facet normal -0.258819 -0.965926 -0
    outer loop
      vertex -39.7286 10.6453 0
      vertex -39.7286 10.6453 5
      vertex -40.402 10.8257 5
    endloop
  endfacet
  facet normal -0.258819 -0.965926 -0
    outer loop
      vertex -40.402 10.8257 0
      vertex -39.7286 10.6453 0
      vertex -40.402 10.8257 5
    endloop
  endfacet
  facet normal -0.951056 0.309017 0
    outer loop
      vertex -40.3975 8.58675 0
      vertex -40.3975 8.58675 5
      vertex -39.7286 10.6453 0
    endloop
  endfacet
  facet normal -0.951056 0.309017 0
    outer loop
      vertex -39.7286 10.6453 0
      vertex -40.3975 8.58675 5
      vertex -39.7286 10.6453 5
    endloop
  endfacet
  facet normal -0.994522 0.104528 0
    outer loop
      vertex -41.3 5.05762e-015 0
      vertex -41.3 5.05762e-015 5
      vertex -40.3975 8.58675 0
    endloop
  endfacet
  facet normal -0.994522 0.104528 0
    outer loop
      vertex -40.3975 8.58675 0
      vertex -41.3 5.05762e-015 5
      vertex -40.3975 8.58675 5
    endloop
  endfacet
  facet normal -0.994522 -0.104528 -0
    outer loop
      vertex -41.3 5.05762e-015 0
      vertex -40.9237 -3.58036 0
      vertex -41.3 5.05762e-015 5
    endloop
  endfacet
  facet normal -0.994522 -0.104528 0
    outer loop
      vertex -41.3 5.05762e-015 5
      vertex -40.9237 -3.58036 0
      vertex -40.9237 -3.58036 5
    endloop
  endfacet
  facet normal -0.0871557 0.996195 0
    outer loop
      vertex -40.9237 -3.58036 5
      vertex -40.9237 -3.58036 0
      vertex -41.6173 -3.64104 5
    endloop
  endfacet
  facet normal -0.0871557 0.996195 0
    outer loop
      vertex -41.6173 -3.64104 5
      vertex -40.9237 -3.58036 0
      vertex -41.6173 -3.64104 0
    endloop
  endfacet
  facet normal 1.92229e-016 0 -4.66749e-017
    outer loop
      vertex -39.1259 8.31647 5
      vertex -40 1.56028e-015 1.4
      vertex -40 4.89843e-015 1.4
    endloop
  endfacet
  facet normal 0.994522 -0.104528 1.87635e-015
    outer loop
      vertex -39.7117 2.7427 1.4
      vertex -39.1259 8.31647 5
      vertex -40 4.89843e-015 1.4
    endloop
  endfacet
  facet normal 8.73759e-017 -3.97904e-016 0
    outer loop
      vertex -40 1.56028e-015 0
      vertex -40 1.56028e-015 1.4
      vertex -40 0 5
    endloop
  endfacet
  facet normal 0.994522 -0.104528 0
    outer loop
      vertex -40 4.89843e-015 0
      vertex -39.7117 2.7427 0
      vertex -40 4.89843e-015 1.4
    endloop
  endfacet
  facet normal 0.994522 -0.104528 0
    outer loop
      vertex -39.7117 2.7427 0
      vertex -39.7117 2.7427 1.4
      vertex -40 4.89843e-015 1.4
    endloop
  endfacet
  facet normal 0.994522 -0.104528 -2.53144e-015
    outer loop
      vertex -39.5602 4.18445 1.4
      vertex -39.1259 8.31647 5
      vertex -39.7117 2.7427 1.4
    endloop
  endfacet
  facet normal 0.994522 -0.104528 0
    outer loop
      vertex -39.5602 4.18445 0
      vertex -39.1259 8.31647 0
      vertex -39.5602 4.18445 1.4
    endloop
  endfacet
  facet normal 0.994522 -0.104528 0
    outer loop
      vertex -39.1259 8.31647 0
      vertex -39.1259 8.31647 5
      vertex -39.5602 4.18445 1.4
    endloop
  endfacet
  facet normal 0.994522 -0.104528 1.92318e-015
    outer loop
      vertex -39.1259 8.31647 5
      vertex -40 0 5
      vertex -40 1.56028e-015 1.4
    endloop
  endfacet
  facet normal 3.12057e-016 -1.42109e-015 0
    outer loop
      vertex -40 0 5
      vertex -40 0 0
      vertex -40 1.56028e-015 0
    endloop
  endfacet
  facet normal -4.18517e-015 0 0
    outer loop
      vertex -40 1.56028e-015 0
      vertex -40 -4.29896e-015 0
      vertex -40 1.56028e-015 1.4
    endloop
  endfacet
  facet normal -4.18517e-015 0 0
    outer loop
      vertex -40 1.56028e-015 1.4
      vertex -40 -4.29896e-015 0
      vertex -40 -4.29896e-015 1.4
    endloop
  endfacet
  facet normal 0.994522 0.104528 0
    outer loop
      vertex -39.1425 -8.15856 1.4
      vertex -39.1259 -8.31647 5
      vertex -39.1259 -8.31647 0
    endloop
  endfacet
  facet normal 0.994522 0.104528 1.86535e-015
    outer loop
      vertex -39.1425 -8.15856 1.4
      vertex -40 -4.29896e-015 1.4
      vertex -40 0 5
    endloop
  endfacet
  facet normal 0.994522 0.104528 5.52021e-016
    outer loop
      vertex -40 0 5
      vertex -39.1259 -8.31647 5
      vertex -39.1425 -8.15856 1.4
    endloop
  endfacet
  facet normal 2.40742e-016 3.97904e-016 0
    outer loop
      vertex -40 -4.29896e-015 0
      vertex -40 0 5
      vertex -40 -4.29896e-015 1.4
    endloop
  endfacet
  facet normal 8.59791e-016 1.42109e-015 0
    outer loop
      vertex -40 0 0
      vertex -40 0 5
      vertex -40 -4.29896e-015 0
    endloop
  endfacet
  facet normal 0.994522 0.104528 0
    outer loop
      vertex -39.1425 -8.15856 0
      vertex -39.1425 -8.15856 1.4
      vertex -39.1259 -8.31647 0
    endloop
  endfacet
  facet normal 0.224951 -0.97437 0
    outer loop
      vertex -39.7117 2.7427 1.4
      vertex -39.7117 2.7427 0
      vertex -39.1434 2.87391 0
    endloop
  endfacet
  facet normal 0.224951 -0.97437 0
    outer loop
      vertex -39.1434 2.87391 1.4
      vertex -39.7117 2.7427 1.4
      vertex -39.1434 2.87391 0
    endloop
  endfacet
  facet normal 0.996195 -0.0871557 0
    outer loop
      vertex -39.1434 2.87391 1.4
      vertex -39.1434 2.87391 0
      vertex -39.0478 3.96693 0
    endloop
  endfacet
  facet normal 0.996195 -0.0871557 0
    outer loop
      vertex -39.0478 3.96693 1.4
      vertex -39.1434 2.87391 1.4
      vertex -39.0478 3.96693 0
    endloop
  endfacet
  facet normal 0.390731 0.920505 0
    outer loop
      vertex -39.5602 4.18445 0
      vertex -39.5602 4.18445 1.4
      vertex -39.0478 3.96693 0
    endloop
  endfacet
  facet normal 0.390731 0.920505 0
    outer loop
      vertex -39.0478 3.96693 0
      vertex -39.5602 4.18445 1.4
      vertex -39.0478 3.96693 1.4
    endloop
  endfacet
  facet normal 0.951057 -0.309017 0
    outer loop
      vertex -36.5418 16.2695 0
      vertex -36.5418 16.2695 5
      vertex -39.1259 8.31647 5
    endloop
  endfacet
  facet normal 0.951057 -0.309017 0
    outer loop
      vertex -39.1259 8.31647 0
      vertex -36.5418 16.2695 0
      vertex -39.1259 8.31647 5
    endloop
  endfacet
  facet normal 0.866025 -0.5 0
    outer loop
      vertex -32.3607 23.5114 0
      vertex -32.3607 23.5114 5
      vertex -36.5418 16.2695 5
    endloop
  endfacet
  facet normal 0.866025 -0.5 0
    outer loop
      vertex -36.5418 16.2695 0
      vertex -32.3607 23.5114 0
      vertex -36.5418 16.2695 5
    endloop
  endfacet
  facet normal 0.743145 -0.669131 0
    outer loop
      vertex -26.7652 29.7258 0
      vertex -26.7652 29.7258 5
      vertex -32.3607 23.5114 5
    endloop
  endfacet
  facet normal 0.743145 -0.669131 0
    outer loop
      vertex -32.3607 23.5114 0
      vertex -26.7652 29.7258 0
      vertex -32.3607 23.5114 5
    endloop
  endfacet
  facet normal 0.587785 -0.809017 0
    outer loop
      vertex -20 34.641 0
      vertex -20 34.641 5
      vertex -26.7652 29.7258 5
    endloop
  endfacet
  facet normal 0.587785 -0.809017 0
    outer loop
      vertex -26.7652 29.7258 0
      vertex -20 34.641 0
      vertex -26.7652 29.7258 5
    endloop
  endfacet
  facet normal 0.406737 -0.913545 0
    outer loop
      vertex -12.3607 38.0423 0
      vertex -12.3607 38.0423 5
      vertex -20 34.641 5
    endloop
  endfacet
  facet normal 0.406737 -0.913545 0
    outer loop
      vertex -20 34.641 0
      vertex -12.3607 38.0423 0
      vertex -20 34.641 5
    endloop
  endfacet
  facet normal 0.207912 -0.978148 0
    outer loop
      vertex -4.18114 39.7809 0
      vertex -4.18114 39.7809 5
      vertex -12.3607 38.0423 5
    endloop
  endfacet
  facet normal 0.207912 -0.978148 0
    outer loop
      vertex -12.3607 38.0423 0
      vertex -4.18114 39.7809 0
      vertex -12.3607 38.0423 5
    endloop
  endfacet
  facet normal 0 -1 0
    outer loop
      vertex 4.18114 39.7809 0
      vertex 4.18114 39.7809 5
      vertex -4.18114 39.7809 5
    endloop
  endfacet
  facet normal -0 -1 -0
    outer loop
      vertex -4.18114 39.7809 0
      vertex 4.18114 39.7809 0
      vertex -4.18114 39.7809 5
    endloop
  endfacet
  facet normal -0.207912 -0.978148 -0
    outer loop
      vertex 12.3607 38.0423 0
      vertex 12.3607 38.0423 5
      vertex 4.18114 39.7809 5
    endloop
  endfacet
  facet normal -0.207912 -0.978148 -0
    outer loop
      vertex 4.18114 39.7809 0
      vertex 12.3607 38.0423 0
      vertex 4.18114 39.7809 5
    endloop
  endfacet
  facet normal -0.406737 -0.913545 1.4461e-015
    outer loop
      vertex 20 34.641 5
      vertex 13.6391 37.4731 1.4
      vertex 19.6761 34.7852 1.4
    endloop
  endfacet
  facet normal -0.406737 -0.913545 -0
    outer loop
      vertex 13.6391 37.4731 0
      vertex 13.6391 37.4731 1.4
      vertex 12.3607 38.0423 5
    endloop
  endfacet
  facet normal -0.406737 -0.913545 -0
    outer loop
      vertex 19.6761 34.7852 0
      vertex 20 34.641 0
      vertex 19.6761 34.7852 1.4
    endloop
  endfacet
  facet normal -0.406737 -0.913545 -0
    outer loop
      vertex 20 34.641 0
      vertex 20 34.641 5
      vertex 19.6761 34.7852 1.4
    endloop
  endfacet
  facet normal -0.406737 -0.913545 5.09583e-016
    outer loop
      vertex 20 34.641 5
      vertex 12.3607 38.0423 5
      vertex 13.6391 37.4731 1.4
    endloop
  endfacet
  facet normal -0.406737 -0.913545 0
    outer loop
      vertex 12.3607 38.0423 5
      vertex 12.3607 38.0423 0
      vertex 13.6391 37.4731 0
    endloop
  endfacet
  facet normal -0.939693 0.34202 0
    outer loop
      vertex 13.1617 36.1615 0
      vertex 13.1617 36.1615 1.4
      vertex 13.6391 37.4731 0
    endloop
  endfacet
  facet normal -0.939693 0.34202 0
    outer loop
      vertex 13.6391 37.4731 0
      vertex 13.1617 36.1615 1.4
      vertex 13.6391 37.4731 1.4
    endloop
  endfacet
  facet normal -0.406737 -0.913545 -0
    outer loop
      vertex 19.3 33.4286 0
      vertex 19.3 33.4286 1.4
      vertex 13.1617 36.1615 1.4
    endloop
  endfacet
  facet normal -0.406737 -0.913545 -0
    outer loop
      vertex 13.1617 36.1615 0
      vertex 19.3 33.4286 0
      vertex 13.1617 36.1615 1.4
    endloop
  endfacet
  facet normal -0.587785 -0.809017 -0
    outer loop
      vertex 25.8284 28.6854 0
      vertex 25.8284 28.6854 1.4
      vertex 19.3 33.4286 1.4
    endloop
  endfacet
  facet normal -0.587785 -0.809017 -0
    outer loop
      vertex 19.3 33.4286 0
      vertex 25.8284 28.6854 0
      vertex 19.3 33.4286 1.4
    endloop
  endfacet
  facet normal -0.743145 -0.669131 0
    outer loop
      vertex 31.2281 22.6885 1.4
      vertex 25.8284 28.6854 1.4
      vertex 31.2281 22.6885 0
    endloop
  endfacet
  facet normal -0.743145 -0.669131 0
    outer loop
      vertex 31.2281 22.6885 0
      vertex 25.8284 28.6854 1.4
      vertex 25.8284 28.6854 0
    endloop
  endfacet
  facet normal -0.866025 -0.5 0
    outer loop
      vertex 35.2629 15.7 1.4
      vertex 31.2281 22.6885 1.4
      vertex 35.2629 15.7 0
    endloop
  endfacet
  facet normal -0.866025 -0.5 0
    outer loop
      vertex 35.2629 15.7 0
      vertex 31.2281 22.6885 1.4
      vertex 31.2281 22.6885 0
    endloop
  endfacet
  facet normal -0.951057 -0.309017 0
    outer loop
      vertex 37.7565 8.02539 1.4
      vertex 35.2629 15.7 1.4
      vertex 37.7565 8.02539 0
    endloop
  endfacet
  facet normal -0.951057 -0.309017 0
    outer loop
      vertex 37.7565 8.02539 0
      vertex 35.2629 15.7 1.4
      vertex 35.2629 15.7 0
    endloop
  endfacet
  facet normal -0.994522 -0.104529 0
    outer loop
      vertex 38.6 0 1.4
      vertex 37.7565 8.02539 1.4
      vertex 38.6 0 0
    endloop
  endfacet
  facet normal -0.994522 -0.104529 0
    outer loop
      vertex 38.6 0 0
      vertex 37.7565 8.02539 1.4
      vertex 37.7565 8.02539 0
    endloop
  endfacet
  facet normal 0 -1 0
    outer loop
      vertex 38.6 0 1.4
      vertex 38.6 0 0
      vertex 40 0 0
    endloop
  endfacet
  facet normal 0 -1 0
    outer loop
      vertex 40 0 1.4
      vertex 38.6 0 1.4
      vertex 40 0 0
    endloop
  endfacet
  facet normal -0.994522 0.104528 0
    outer loop
      vertex 40 0 5
      vertex 40 0 1.4
      vertex 39.1259 -8.31647 5
    endloop
  endfacet
  facet normal -0.994522 0.104528 0
    outer loop
      vertex 39.1259 -8.31647 5
      vertex 40 0 1.4
      vertex 40 0 0
    endloop
  endfacet
  facet normal -0.994522 0.104528 0
    outer loop
      vertex 39.7117 -2.7427 1.4
      vertex 40 0 0
      vertex 39.7117 -2.7427 0
    endloop
  endfacet
  facet normal -0.994522 0.104528 2.73058e-014
    outer loop
      vertex 39.1259 -8.31647 5
      vertex 40 0 0
      vertex 39.7117 -2.7427 1.4
    endloop
  endfacet
  facet normal -0.994522 0.104528 -2.80867e-015
    outer loop
      vertex 39.1259 -8.31647 5
      vertex 39.7117 -2.7427 1.4
      vertex 39.5602 -4.18445 1.4
    endloop
  endfacet
  facet normal -0.994522 0.104528 0
    outer loop
      vertex 39.1259 -8.31647 5
      vertex 39.5602 -4.18445 0
      vertex 39.1259 -8.31647 0
    endloop
  endfacet
  facet normal -0.994522 0.104528 0
    outer loop
      vertex 39.5602 -4.18445 0
      vertex 39.1259 -8.31647 5
      vertex 39.5602 -4.18445 1.4
    endloop
  endfacet
  facet normal -0.224951 0.97437 0
    outer loop
      vertex 39.1434 -2.87391 0
      vertex 39.1434 -2.87391 1.4
      vertex 39.7117 -2.7427 0
    endloop
  endfacet
  facet normal -0.224951 0.97437 0
    outer loop
      vertex 39.7117 -2.7427 0
      vertex 39.1434 -2.87391 1.4
      vertex 39.7117 -2.7427 1.4
    endloop
  endfacet
  facet normal -0.996195 0.0871557 0
    outer loop
      vertex 39.0478 -3.96693 0
      vertex 39.0478 -3.96693 1.4
      vertex 39.1434 -2.87391 0
    endloop
  endfacet
  facet normal -0.996195 0.0871557 0
    outer loop
      vertex 39.1434 -2.87391 0
      vertex 39.0478 -3.96693 1.4
      vertex 39.1434 -2.87391 1.4
    endloop
  endfacet
  facet normal -0.390731 -0.920505 0
    outer loop
      vertex 39.0478 -3.96693 1.4
      vertex 39.0478 -3.96693 0
      vertex 39.5602 -4.18445 0
    endloop
  endfacet
  facet normal -0.390731 -0.920505 0
    outer loop
      vertex 39.5602 -4.18445 1.4
      vertex 39.0478 -3.96693 1.4
      vertex 39.5602 -4.18445 0
    endloop
  endfacet
  facet normal -0.951057 0.309017 0
    outer loop
      vertex 39.1259 -8.31647 5
      vertex 39.1259 -8.31647 0
      vertex 36.5418 -16.2695 5
    endloop
  endfacet
  facet normal -0.951057 0.309017 0
    outer loop
      vertex 36.5418 -16.2695 5
      vertex 39.1259 -8.31647 0
      vertex 36.5418 -16.2695 0
    endloop
  endfacet
  facet normal -0.866025 0.5 0
    outer loop
      vertex 36.5418 -16.2695 5
      vertex 36.5418 -16.2695 0
      vertex 32.3607 -23.5114 5
    endloop
  endfacet
  facet normal -0.866025 0.5 0
    outer loop
      vertex 32.3607 -23.5114 5
      vertex 36.5418 -16.2695 0
      vertex 32.3607 -23.5114 0
    endloop
  endfacet
  facet normal -0.743145 0.669131 0
    outer loop
      vertex 32.3607 -23.5114 5
      vertex 32.3607 -23.5114 0
      vertex 26.7652 -29.7258 5
    endloop
  endfacet
  facet normal -0.743145 0.669131 0
    outer loop
      vertex 26.7652 -29.7258 5
      vertex 32.3607 -23.5114 0
      vertex 26.7652 -29.7258 0
    endloop
  endfacet
  facet normal -0.587785 0.809017 0
    outer loop
      vertex 26.7652 -29.7258 5
      vertex 26.7652 -29.7258 0
      vertex 20 -34.641 5
    endloop
  endfacet
  facet normal -0.587785 0.809017 0
    outer loop
      vertex 20 -34.641 5
      vertex 26.7652 -29.7258 0
      vertex 20 -34.641 0
    endloop
  endfacet
  facet normal -0.406737 0.913545 0
    outer loop
      vertex 20 -34.641 5
      vertex 20 -34.641 0
      vertex 12.3607 -38.0423 5
    endloop
  endfacet
  facet normal -0.406737 0.913545 0
    outer loop
      vertex 12.3607 -38.0423 5
      vertex 20 -34.641 0
      vertex 12.3607 -38.0423 0
    endloop
  endfacet
  facet normal -0.207912 0.978148 0
    outer loop
      vertex 12.3607 -38.0423 5
      vertex 12.3607 -38.0423 0
      vertex 4.18114 -39.7809 5
    endloop
  endfacet
  facet normal -0.207912 0.978148 0
    outer loop
      vertex 4.18114 -39.7809 5
      vertex 12.3607 -38.0423 0
      vertex 4.18114 -39.7809 0
    endloop
  endfacet
  facet normal 0 1 0
    outer loop
      vertex 4.18114 -39.7809 5
      vertex 4.18114 -39.7809 0
      vertex -4.18114 -39.7809 5
    endloop
  endfacet
  facet normal 0 1 -0
    outer loop
      vertex -4.18114 -39.7809 5
      vertex 4.18114 -39.7809 0
      vertex -4.18114 -39.7809 0
    endloop
  endfacet
  facet normal 0.207912 0.978148 -0
    outer loop
      vertex -4.18114 -39.7809 5
      vertex -4.18114 -39.7809 0
      vertex -12.3607 -38.0423 5
    endloop
  endfacet
  facet normal 0.207912 0.978148 -0
    outer loop
      vertex -12.3607 -38.0423 5
      vertex -4.18114 -39.7809 0
      vertex -12.3607 -38.0423 0
    endloop
  endfacet
  facet normal 0.406737 0.913545 9.43609e-016
    outer loop
      vertex -19.6761 -34.7852 1.4
      vertex -20 -34.641 5
      vertex -13.6391 -37.4731 1.4
    endloop
  endfacet
  facet normal 0.406737 0.913545 -0
    outer loop
      vertex -12.3607 -38.0423 5
      vertex -12.3607 -38.0423 0
      vertex -13.6391 -37.4731 1.4
    endloop
  endfacet
  facet normal 0.406737 0.913545 1.90188e-015
    outer loop
      vertex -12.3607 -38.0423 5
      vertex -13.6391 -37.4731 1.4
      vertex -20 -34.641 5
    endloop
  endfacet
  facet normal 0.406737 0.913545 0
    outer loop
      vertex -20 -34.641 5
      vertex -19.6761 -34.7852 1.4
      vertex -19.6761 -34.7852 0
    endloop
  endfacet
  facet normal 0.406737 0.913545 -0
    outer loop
      vertex -20 -34.641 5
      vertex -19.6761 -34.7852 0
      vertex -20 -34.641 0
    endloop
  endfacet
  facet normal 0.406737 0.913545 -0
    outer loop
      vertex -13.6391 -37.4731 1.4
      vertex -12.3607 -38.0423 0
      vertex -13.6391 -37.4731 0
    endloop
  endfacet
  facet normal 0.939693 -0.34202 0
    outer loop
      vertex -13.6391 -37.4731 1.4
      vertex -13.6391 -37.4731 0
      vertex -13.1617 -36.1615 0
    endloop
  endfacet
  facet normal 0.939693 -0.34202 0
    outer loop
      vertex -13.1617 -36.1615 1.4
      vertex -13.6391 -37.4731 1.4
      vertex -13.1617 -36.1615 0
    endloop
  endfacet
  facet normal 0.406737 0.913545 -0
    outer loop
      vertex -13.1617 -36.1615 1.4
      vertex -13.1617 -36.1615 0
      vertex -19.3 -33.4286 1.4
    endloop
  endfacet
  facet normal 0.406737 0.913545 -0
    outer loop
      vertex -19.3 -33.4286 1.4
      vertex -13.1617 -36.1615 0
      vertex -19.3 -33.4286 0
    endloop
  endfacet
  facet normal 0.587785 0.809017 -0
    outer loop
      vertex -19.3 -33.4286 1.4
      vertex -19.3 -33.4286 0
      vertex -25.8284 -28.6854 1.4
    endloop
  endfacet
  facet normal 0.587785 0.809017 -0
    outer loop
      vertex -25.8284 -28.6854 1.4
      vertex -19.3 -33.4286 0
      vertex -25.8284 -28.6854 0
    endloop
  endfacet
  facet normal 0.743145 0.669131 0
    outer loop
      vertex -31.2281 -22.6885 1.4
      vertex -25.8284 -28.6854 1.4
      vertex -25.8284 -28.6854 0
    endloop
  endfacet
  facet normal 0.743145 0.669131 0
    outer loop
      vertex -31.2281 -22.6885 0
      vertex -31.2281 -22.6885 1.4
      vertex -25.8284 -28.6854 0
    endloop
  endfacet
  facet normal 0.866025 0.5 0
    outer loop
      vertex -35.2629 -15.7 1.4
      vertex -31.2281 -22.6885 1.4
      vertex -31.2281 -22.6885 0
    endloop
  endfacet
  facet normal 0.866025 0.5 0
    outer loop
      vertex -35.2629 -15.7 0
      vertex -35.2629 -15.7 1.4
      vertex -31.2281 -22.6885 0
    endloop
  endfacet
  facet normal 0.951057 0.309017 0
    outer loop
      vertex -37.7565 -8.02539 1.4
      vertex -35.2629 -15.7 1.4
      vertex -35.2629 -15.7 0
    endloop
  endfacet
  facet normal 0.951057 0.309017 0
    outer loop
      vertex -37.7565 -8.02539 0
      vertex -37.7565 -8.02539 1.4
      vertex -35.2629 -15.7 0
    endloop
  endfacet
  facet normal 0.994522 0.104529 0
    outer loop
      vertex -38.6 0 1.4
      vertex -37.7565 -8.02539 1.4
      vertex -37.7565 -8.02539 0
    endloop
  endfacet
  facet normal 0.994522 0.104529 0
    outer loop
      vertex -38.6 0 0
      vertex -38.6 0 1.4
      vertex -37.7565 -8.02539 0
    endloop
  endfacet
  facet normal 3.37641e-015 -5.07531e-015 0
    outer loop
      vertex -38.6 4.72698e-015 0
      vertex -38.6 4.72698e-015 1.4
      vertex -38.6 0 1.4
    endloop
  endfacet
  facet normal 3.37641e-015 -5.07531e-015 0
    outer loop
      vertex -38.6 0 0
      vertex -38.6 4.72698e-015 0
      vertex -38.6 0 1.4
    endloop
  endfacet
  facet normal 1.22461e-016 1 0
    outer loop
      vertex -40 4.89843e-015 0
      vertex -40 4.89843e-015 1.4
      vertex -38.6 4.72698e-015 0
    endloop
  endfacet
  facet normal 1.22461e-016 1 0
    outer loop
      vertex -38.6 4.72698e-015 0
      vertex -40 4.89843e-015 1.4
      vertex -38.6 4.72698e-015 1.4
    endloop
  endfacet
  facet normal -0.970031 -0.24298 -0
    outer loop
      vertex -39.1425 -8.15856 0
      vertex -39.0257 -8.62489 0
      vertex -39.1425 -8.15856 1.4
    endloop
  endfacet
  facet normal -0.970031 -0.24298 0
    outer loop
      vertex -39.1425 -8.15856 1.4
      vertex -39.0257 -8.62489 0
      vertex -39.0257 -8.62489 1.4
    endloop
  endfacet
  facet normal 0.951057 0.309017 0
    outer loop
      vertex -36.6333 -15.9879 1.4
      vertex -36.5418 -16.2695 5
      vertex -36.5418 -16.2695 0
    endloop
  endfacet
  facet normal 0.951057 0.309017 1.46168e-015
    outer loop
      vertex -36.6333 -15.9879 1.4
      vertex -39.0257 -8.62489 1.4
      vertex -39.1259 -8.31647 5
    endloop
  endfacet
  facet normal 0.951057 0.309017 1.44696e-015
    outer loop
      vertex -39.1259 -8.31647 5
      vertex -36.5418 -16.2695 5
      vertex -36.6333 -15.9879 1.4
    endloop
  endfacet
  facet normal 0.951057 0.309017 0
    outer loop
      vertex -39.0257 -8.62489 0
      vertex -39.1259 -8.31647 5
      vertex -39.0257 -8.62489 1.4
    endloop
  endfacet
  facet normal 0.951057 0.309017 0
    outer loop
      vertex -39.1259 -8.31647 0
      vertex -39.1259 -8.31647 5
      vertex -39.0257 -8.62489 0
    endloop
  endfacet
  facet normal 0.951057 0.309017 0
    outer loop
      vertex -36.6333 -15.9879 0
      vertex -36.6333 -15.9879 1.4
      vertex -36.5418 -16.2695 0
    endloop
  endfacet
  facet normal -0.903989 -0.427555 -0
    outer loop
      vertex -36.6333 -15.9879 0
      vertex -36.3112 -16.6689 0
      vertex -36.6333 -15.9879 1.4
    endloop
  endfacet
  facet normal -0.903989 -0.427555 0
    outer loop
      vertex -36.6333 -15.9879 1.4
      vertex -36.3112 -16.6689 0
      vertex -36.3112 -16.6689 1.4
    endloop
  endfacet
  facet normal 0.866025 0.5 0
    outer loop
      vertex -32.563 -23.1609 1.4
      vertex -32.3607 -23.5114 5
      vertex -32.3607 -23.5114 0
    endloop
  endfacet
  facet normal 0.866025 0.5 1.27387e-015
    outer loop
      vertex -32.563 -23.1609 1.4
      vertex -36.3112 -16.6689 1.4
      vertex -36.5418 -16.2695 5
    endloop
  endfacet
  facet normal 0.866025 0.5 1.88949e-015
    outer loop
      vertex -36.5418 -16.2695 5
      vertex -32.3607 -23.5114 5
      vertex -32.563 -23.1609 1.4
    endloop
  endfacet
  facet normal 0.866025 0.5 0
    outer loop
      vertex -36.3112 -16.6689 0
      vertex -36.5418 -16.2695 5
      vertex -36.3112 -16.6689 1.4
    endloop
  endfacet
  facet normal 0.866025 0.5 0
    outer loop
      vertex -36.5418 -16.2695 0
      vertex -36.5418 -16.2695 5
      vertex -36.3112 -16.6689 0
    endloop
  endfacet
  facet normal 0.866025 0.5 0
    outer loop
      vertex -32.563 -23.1609 0
      vertex -32.563 -23.1609 1.4
      vertex -32.3607 -23.5114 0
    endloop
  endfacet
  facet normal -0.803208 -0.595699 -0
    outer loop
      vertex -32.563 -23.1609 0
      vertex -32.0341 -23.8742 0
      vertex -32.563 -23.1609 1.4
    endloop
  endfacet
  facet normal -0.803208 -0.595699 0
    outer loop
      vertex -32.563 -23.1609 1.4
      vertex -32.0341 -23.8742 0
      vertex -32.0341 -23.8742 1.4
    endloop
  endfacet
  facet normal 0.743145 0.669131 0
    outer loop
      vertex -27.0822 -29.3738 1.4
      vertex -26.7652 -29.7258 5
      vertex -26.7652 -29.7258 0
    endloop
  endfacet
  facet normal 0.743145 0.669131 9.59027e-016
    outer loop
      vertex -27.0822 -29.3738 1.4
      vertex -32.0341 -23.8742 1.4
      vertex -32.3607 -23.5114 5
    endloop
  endfacet
  facet normal 0.743145 0.669131 5.06129e-016
    outer loop
      vertex -32.3607 -23.5114 5
      vertex -26.7652 -29.7258 5
      vertex -27.0822 -29.3738 1.4
    endloop
  endfacet
  facet normal 0.743145 0.669131 0
    outer loop
      vertex -32.0341 -23.8742 0
      vertex -32.3607 -23.5114 5
      vertex -32.0341 -23.8742 1.4
    endloop
  endfacet
  facet normal 0.743145 0.669131 0
    outer loop
      vertex -32.3607 -23.5114 0
      vertex -32.3607 -23.5114 5
      vertex -32.0341 -23.8742 0
    endloop
  endfacet
  facet normal 0.743145 0.669131 0
    outer loop
      vertex -27.0822 -29.3738 0
      vertex -27.0822 -29.3738 1.4
      vertex -26.7652 -29.7258 0
    endloop
  endfacet
  facet normal -0.671559 -0.740951 0
    outer loop
      vertex -27.0822 -29.3738 1.4
      vertex -27.0822 -29.3738 0
      vertex -26.4052 -29.9874 0
    endloop
  endfacet
  facet normal -0.671559 -0.740951 0
    outer loop
      vertex -26.4052 -29.9874 1.4
      vertex -27.0822 -29.3738 1.4
      vertex -26.4052 -29.9874 0
    endloop
  endfacet
  facet normal 0.587785 0.809017 9.92659e-016
    outer loop
      vertex -26.4052 -29.9874 1.4
      vertex -26.7652 -29.7258 5
      vertex -20.3926 -34.3557 1.4
    endloop
  endfacet
  facet normal 0.587785 0.809017 -0
    outer loop
      vertex -20 -34.641 5
      vertex -20 -34.641 0
      vertex -20.3926 -34.3557 1.4
    endloop
  endfacet
  facet normal 0.587785 0.809017 1.14369e-015
    outer loop
      vertex -20 -34.641 5
      vertex -20.3926 -34.3557 1.4
      vertex -26.7652 -29.7258 5
    endloop
  endfacet
  facet normal 0.587785 0.809017 0
    outer loop
      vertex -26.7652 -29.7258 5
      vertex -26.4052 -29.9874 1.4
      vertex -26.4052 -29.9874 0
    endloop
  endfacet
  facet normal 0.587785 0.809017 -0
    outer loop
      vertex -26.7652 -29.7258 5
      vertex -26.4052 -29.9874 0
      vertex -26.7652 -29.7258 0
    endloop
  endfacet
  facet normal 0.587785 0.809017 -0
    outer loop
      vertex -20.3926 -34.3557 1.4
      vertex -20 -34.641 0
      vertex -20.3926 -34.3557 0
    endloop
  endfacet
  facet normal -0.514103 -0.857729 0
    outer loop
      vertex -20.3926 -34.3557 1.4
      vertex -20.3926 -34.3557 0
      vertex -19.6761 -34.7852 0
    endloop
  endfacet
  facet normal -0.514103 -0.857729 0
    outer loop
      vertex -19.6761 -34.7852 1.4
      vertex -20.3926 -34.3557 1.4
      vertex -19.6761 -34.7852 0
    endloop
  endfacet
  facet normal -0.587785 -0.809017 9.89603e-016
    outer loop
      vertex 26.7652 29.7258 5
      vertex 20.3926 34.3557 1.4
      vertex 26.4052 29.9874 1.4
    endloop
  endfacet
  facet normal -0.587785 -0.809017 -0
    outer loop
      vertex 20.3926 34.3557 0
      vertex 20.3926 34.3557 1.4
      vertex 20 34.641 5
    endloop
  endfacet
  facet normal -0.587785 -0.809017 -0
    outer loop
      vertex 26.4052 29.9874 0
      vertex 26.7652 29.7258 0
      vertex 26.4052 29.9874 1.4
    endloop
  endfacet
  facet normal -0.587785 -0.809017 -0
    outer loop
      vertex 26.7652 29.7258 0
      vertex 26.7652 29.7258 5
      vertex 26.4052 29.9874 1.4
    endloop
  endfacet
  facet normal -0.587785 -0.809017 1.19167e-015
    outer loop
      vertex 26.7652 29.7258 5
      vertex 20 34.641 5
      vertex 20.3926 34.3557 1.4
    endloop
  endfacet
  facet normal -0.587785 -0.809017 0
    outer loop
      vertex 20 34.641 5
      vertex 20 34.641 0
      vertex 20.3926 34.3557 0
    endloop
  endfacet
  facet normal 0.514103 0.857729 0
    outer loop
      vertex 19.6761 34.7852 0
      vertex 19.6761 34.7852 1.4
      vertex 20.3926 34.3557 0
    endloop
  endfacet
  facet normal 0.514103 0.857729 0
    outer loop
      vertex 20.3926 34.3557 0
      vertex 19.6761 34.7852 1.4
      vertex 20.3926 34.3557 1.4
    endloop
  endfacet
  facet normal -0.743145 -0.669131 0
    outer loop
      vertex 32.3607 23.5114 0
      vertex 32.0341 23.8742 1.4
      vertex 32.0341 23.8742 0
    endloop
  endfacet
  facet normal -0.743145 -0.669131 0
    outer loop
      vertex 32.3607 23.5114 5
      vertex 32.0341 23.8742 1.4
      vertex 32.3607 23.5114 0
    endloop
  endfacet
  facet normal -0.743145 -0.669131 9.59027e-016
    outer loop
      vertex 27.0822 29.3738 1.4
      vertex 32.0341 23.8742 1.4
      vertex 32.3607 23.5114 5
    endloop
  endfacet
  facet normal -0.743145 -0.669131 4.60853e-016
    outer loop
      vertex 27.0822 29.3738 1.4
      vertex 32.3607 23.5114 5
      vertex 26.7652 29.7258 5
    endloop
  endfacet
  facet normal -0.743145 -0.669131 0
    outer loop
      vertex 27.0822 29.3738 1.4
      vertex 26.7652 29.7258 5
      vertex 27.0822 29.3738 0
    endloop
  endfacet
  facet normal -0.743145 -0.669131 0
    outer loop
      vertex 26.7652 29.7258 5
      vertex 26.7652 29.7258 0
      vertex 27.0822 29.3738 0
    endloop
  endfacet
  facet normal 0.671559 0.740951 0
    outer loop
      vertex 26.4052 29.9874 0
      vertex 26.4052 29.9874 1.4
      vertex 27.0822 29.3738 0
    endloop
  endfacet
  facet normal 0.671559 0.740951 0
    outer loop
      vertex 27.0822 29.3738 0
      vertex 26.4052 29.9874 1.4
      vertex 27.0822 29.3738 1.4
    endloop
  endfacet
  facet normal -0.866025 -0.5 0
    outer loop
      vertex 36.5418 16.2695 0
      vertex 36.3112 16.6689 1.4
      vertex 36.3112 16.6689 0
    endloop
  endfacet
  facet normal -0.866025 -0.5 0
    outer loop
      vertex 36.5418 16.2695 5
      vertex 36.3112 16.6689 1.4
      vertex 36.5418 16.2695 0
    endloop
  endfacet
  facet normal -0.866025 -0.5 1.30783e-015
    outer loop
      vertex 32.563 23.1609 1.4
      vertex 36.3112 16.6689 1.4
      vertex 36.5418 16.2695 5
    endloop
  endfacet
  facet normal -0.866025 -0.5 1.28169e-015
    outer loop
      vertex 32.563 23.1609 1.4
      vertex 36.5418 16.2695 5
      vertex 32.3607 23.5114 5
    endloop
  endfacet
  facet normal -0.866025 -0.5 0
    outer loop
      vertex 32.563 23.1609 1.4
      vertex 32.3607 23.5114 5
      vertex 32.563 23.1609 0
    endloop
  endfacet
  facet normal -0.866025 -0.5 0
    outer loop
      vertex 32.3607 23.5114 5
      vertex 32.3607 23.5114 0
      vertex 32.563 23.1609 0
    endloop
  endfacet
  facet normal 0.803208 0.595699 0
    outer loop
      vertex 32.563 23.1609 0
      vertex 32.0341 23.8742 0
      vertex 32.0341 23.8742 1.4
    endloop
  endfacet
  facet normal 0.803208 0.595699 -0
    outer loop
      vertex 32.563 23.1609 1.4
      vertex 32.563 23.1609 0
      vertex 32.0341 23.8742 1.4
    endloop
  endfacet
  facet normal -0.951057 -0.309017 0
    outer loop
      vertex 39.1259 8.31647 0
      vertex 39.0257 8.62489 1.4
      vertex 39.0257 8.62489 0
    endloop
  endfacet
  facet normal -0.951057 -0.309017 0
    outer loop
      vertex 39.1259 8.31647 5
      vertex 39.0257 8.62489 1.4
      vertex 39.1259 8.31647 0
    endloop
  endfacet
  facet normal -0.951057 -0.309017 1.61873e-015
    outer loop
      vertex 36.6333 15.9879 1.4
      vertex 39.0257 8.62489 1.4
      vertex 39.1259 8.31647 5
    endloop
  endfacet
  facet normal -0.951057 -0.309017 1.34786e-015
    outer loop
      vertex 36.6333 15.9879 1.4
      vertex 39.1259 8.31647 5
      vertex 36.5418 16.2695 5
    endloop
  endfacet
  facet normal -0.951057 -0.309017 0
    outer loop
      vertex 36.6333 15.9879 1.4
      vertex 36.5418 16.2695 5
      vertex 36.6333 15.9879 0
    endloop
  endfacet
  facet normal -0.951057 -0.309017 0
    outer loop
      vertex 36.5418 16.2695 5
      vertex 36.5418 16.2695 0
      vertex 36.6333 15.9879 0
    endloop
  endfacet
  facet normal 0.903989 0.427555 0
    outer loop
      vertex 36.6333 15.9879 0
      vertex 36.3112 16.6689 0
      vertex 36.3112 16.6689 1.4
    endloop
  endfacet
  facet normal 0.903989 0.427555 -0
    outer loop
      vertex 36.6333 15.9879 1.4
      vertex 36.6333 15.9879 0
      vertex 36.3112 16.6689 1.4
    endloop
  endfacet
  facet normal -0.994522 -0.104528 0
    outer loop
      vertex 39.1425 8.15856 1.4
      vertex 40 0 1.4
      vertex 40 0 5
    endloop
  endfacet
  facet normal -0.994522 -0.104528 5.06877e-016
    outer loop
      vertex 39.1425 8.15856 1.4
      vertex 40 0 5
      vertex 39.1259 8.31647 5
    endloop
  endfacet
  facet normal -0.994522 -0.104528 0
    outer loop
      vertex 39.1425 8.15856 1.4
      vertex 39.1259 8.31647 5
      vertex 39.1425 8.15856 0
    endloop
  endfacet
  facet normal -0.994522 -0.104528 0
    outer loop
      vertex 39.1259 8.31647 5
      vertex 39.1259 8.31647 0
      vertex 39.1425 8.15856 0
    endloop
  endfacet
  facet normal 0.970031 0.24298 0
    outer loop
      vertex 39.1425 8.15856 0
      vertex 39.0257 8.62489 0
      vertex 39.0257 8.62489 1.4
    endloop
  endfacet
  facet normal 0.970031 0.24298 -0
    outer loop
      vertex 39.1425 8.15856 1.4
      vertex 39.1425 8.15856 0
      vertex 39.0257 8.62489 1.4
    endloop
  endfacet
  facet normal 0.994522 -0.104528 0
    outer loop
      vertex 40.3975 -8.58675 5
      vertex 40.3975 -8.58675 0
      vertex 41.3 0 0
    endloop
  endfacet
  facet normal 0.994522 -0.104528 0
    outer loop
      vertex 41.3 0 5
      vertex 40.3975 -8.58675 5
      vertex 41.3 0 0
    endloop
  endfacet
  facet normal 0.951056 -0.309017 0
    outer loop
      vertex 39.7286 -10.6453 5
      vertex 39.7286 -10.6453 0
      vertex 40.3975 -8.58675 0
    endloop
  endfacet
  facet normal 0.951056 -0.309017 0
    outer loop
      vertex 40.3975 -8.58675 5
      vertex 39.7286 -10.6453 5
      vertex 40.3975 -8.58675 0
    endloop
  endfacet
  facet normal 0.994522 0.104528 0
    outer loop
      vertex 41.3 0 0
      vertex 40.9237 3.58036 0
      vertex 40.9237 3.58036 5
    endloop
  endfacet
  facet normal 0.994522 0.104528 -0
    outer loop
      vertex 41.3 0 5
      vertex 41.3 0 0
      vertex 40.9237 3.58036 5
    endloop
  endfacet
  facet normal 0.0871557 -0.996195 0
    outer loop
      vertex 41.6173 3.64104 0
      vertex 41.6173 3.64104 5
      vertex 40.9237 3.58036 5
    endloop
  endfacet
  facet normal 0.0871557 -0.996195 0
    outer loop
      vertex 40.9237 3.58036 0
      vertex 41.6173 3.64104 0
      vertex 40.9237 3.58036 5
    endloop
  endfacet
  facet normal -0.994522 -0.104528 0
    outer loop
      vertex 42 0 5
      vertex 41.6173 3.64104 5
      vertex 42 0 0
    endloop
  endfacet
  facet normal -0.994522 -0.104528 0
    outer loop
      vertex 42 0 0
      vertex 41.6173 3.64104 5
      vertex 41.6173 3.64104 0
    endloop
  endfacet
  facet normal -0.994522 0.104528 0
    outer loop
      vertex 42 0 5
      vertex 42 0 0
      vertex 41.0822 -8.73229 5
    endloop
  endfacet
  facet normal -0.994522 0.104528 0
    outer loop
      vertex 41.0822 -8.73229 5
      vertex 42 0 0
      vertex 41.0822 -8.73229 0
    endloop
  endfacet
  facet normal -0.951057 0.309017 0
    outer loop
      vertex 41.0822 -8.73229 5
      vertex 41.0822 -8.73229 0
      vertex 40.402 -10.8257 5
    endloop
  endfacet
  facet normal -0.951057 0.309017 0
    outer loop
      vertex 40.402 -10.8257 5
      vertex 41.0822 -8.73229 0
      vertex 40.402 -10.8257 0
    endloop
  endfacet
  facet normal 0.258819 0.965926 -0
    outer loop
      vertex 40.402 -10.8257 5
      vertex 40.402 -10.8257 0
      vertex 39.7286 -10.6453 5
    endloop
  endfacet
  facet normal 0.258819 0.965926 -0
    outer loop
      vertex 39.7286 -10.6453 5
      vertex 40.402 -10.8257 0
      vertex 39.7286 -10.6453 0
    endloop
  endfacet
  facet normal 0 0 1
    outer loop
      vertex -42.0603 8.9402 5
      vertex -43 0 5
      vertex -42.0603 -8.9402 5
    endloop
  endfacet
  facet normal -0 0 1
    outer loop
      vertex -42 5.14335e-015 5
      vertex -42.0603 8.9402 5
      vertex -42.0603 -8.9402 5
    endloop
  endfacet
  facet normal 0 0 1
    outer loop
      vertex 40.9237 3.58036 5
      vertex 41.6173 3.64104 5
      vertex 39.1259 8.31647 5
    endloop
  endfacet
  facet normal 0 0 1
    outer loop
      vertex 36.5418 16.2695 5
      vertex 39.1259 8.31647 5
      vertex 42.0603 8.9402 5
    endloop
  endfacet
  facet normal 0 0 1
    outer loop
      vertex 32.3607 23.5114 5
      vertex 36.5418 16.2695 5
      vertex 39.2825 17.4897 5
    endloop
  endfacet
  facet normal 0 0 1
    outer loop
      vertex 26.7652 29.7258 5
      vertex 32.3607 23.5114 5
      vertex 34.7877 25.2748 5
    endloop
  endfacet
  facet normal 0 0 1
    outer loop
      vertex 20 34.641 5
      vertex 26.7652 29.7258 5
      vertex 28.7726 31.9552 5
    endloop
  endfacet
  facet normal 0 0 1
    outer loop
      vertex 12.3607 38.0423 5
      vertex 20 34.641 5
      vertex 21.5 37.2391 5
    endloop
  endfacet
  facet normal 0 0 1
    outer loop
      vertex 4.18114 39.7809 5
      vertex 12.3607 38.0423 5
      vertex 13.2877 40.8954 5
    endloop
  endfacet
  facet normal 0 0 1
    outer loop
      vertex -4.18114 39.7809 5
      vertex 4.18114 39.7809 5
      vertex 4.49472 42.7644 5
    endloop
  endfacet
  facet normal 0 0 1
    outer loop
      vertex -12.3607 38.0423 5
      vertex -4.18114 39.7809 5
      vertex -4.49472 42.7644 5
    endloop
  endfacet
  facet normal 0 -0 1
    outer loop
      vertex -34.7877 25.2748 5
      vertex -42.0603 8.9402 5
      vertex -28.7726 31.9552 5
    endloop
  endfacet
  facet normal 0 -0 1
    outer loop
      vertex -39.2825 17.4897 5
      vertex -42.0603 8.9402 5
      vertex -34.7877 25.2748 5
    endloop
  endfacet
  facet normal 0 0 1
    outer loop
      vertex -39.2825 -17.4897 5
      vertex -41.6173 -3.64104 5
      vertex -42.0603 -8.9402 5
    endloop
  endfacet
  facet normal 0 0 1
    outer loop
      vertex -40.3975 8.58675 5
      vertex -39.2825 -17.4897 5
      vertex -40 0 5
    endloop
  endfacet
  facet normal -0 0 1
    outer loop
      vertex -41.6173 -3.64104 5
      vertex -42 5.14335e-015 5
      vertex -42.0603 -8.9402 5
    endloop
  endfacet
  facet normal 0 -0 1
    outer loop
      vertex -40.3975 8.58675 5
      vertex -41.3 5.05762e-015 5
      vertex -39.2825 -17.4897 5
    endloop
  endfacet
  facet normal 0 0 1
    outer loop
      vertex -40 0 5
      vertex -39.1259 8.31647 5
      vertex -40.3975 8.58675 5
    endloop
  endfacet
  facet normal 0 0 1
    outer loop
      vertex -40 0 5
      vertex -39.2825 -17.4897 5
      vertex -39.1259 -8.31647 5
    endloop
  endfacet
  facet normal 0 -0 1
    outer loop
      vertex 42 0 5
      vertex 41.0822 -8.73229 5
      vertex 42.0603 -8.9402 5
    endloop
  endfacet
  facet normal 0 0 1
    outer loop
      vertex -36.5418 16.2695 5
      vertex -42.0603 8.9402 5
      vertex -40.402 10.8257 5
    endloop
  endfacet
  facet normal 0 0 1
    outer loop
      vertex -41.0822 8.73229 5
      vertex -40.402 10.8257 5
      vertex -42.0603 8.9402 5
    endloop
  endfacet
  facet normal 0 0 1
    outer loop
      vertex -39.2825 -17.4897 5
      vertex -40.9237 -3.58036 5
      vertex -41.6173 -3.64104 5
    endloop
  endfacet
  facet normal 0 0 1
    outer loop
      vertex -39.2825 -17.4897 5
      vertex -41.3 5.05762e-015 5
      vertex -40.9237 -3.58036 5
    endloop
  endfacet
  facet normal 0 0 1
    outer loop
      vertex -34.7877 -25.2748 5
      vertex -39.1259 -8.31647 5
      vertex -39.2825 -17.4897 5
    endloop
  endfacet
  facet normal 0 -0 1
    outer loop
      vertex 36.5418 -16.2695 5
      vertex 32.3607 -23.5114 5
      vertex 39.2825 -17.4897 5
    endloop
  endfacet
  facet normal 0 0 1
    outer loop
      vertex -20 34.641 5
      vertex -12.3607 38.0423 5
      vertex -13.2877 40.8954 5
    endloop
  endfacet
  facet normal 0 0 1
    outer loop
      vertex -32.3607 23.5114 5
      vertex -26.7652 29.7258 5
      vertex -21.5 37.2391 5
    endloop
  endfacet
  facet normal 0 -0 1
    outer loop
      vertex -28.7726 31.9552 5
      vertex -32.3607 23.5114 5
      vertex -21.5 37.2391 5
    endloop
  endfacet
  facet normal 0 0 1
    outer loop
      vertex -28.7726 31.9552 5
      vertex -42.0603 8.9402 5
      vertex -32.3607 23.5114 5
    endloop
  endfacet
  facet normal 0 -0 1
    outer loop
      vertex -21.5 37.2391 5
      vertex -26.7652 29.7258 5
      vertex -13.2877 40.8954 5
    endloop
  endfacet
  facet normal -0 0 1
    outer loop
      vertex -36.5418 16.2695 5
      vertex -32.3607 23.5114 5
      vertex -42.0603 8.9402 5
    endloop
  endfacet
  facet normal 0 0 1
    outer loop
      vertex -26.7652 29.7258 5
      vertex -20 34.641 5
      vertex -13.2877 40.8954 5
    endloop
  endfacet
  facet normal 0 0 1
    outer loop
      vertex -13.2877 40.8954 5
      vertex -12.3607 38.0423 5
      vertex -4.49472 42.7644 5
    endloop
  endfacet
  facet normal 0 -0 1
    outer loop
      vertex -39.7286 10.6453 5
      vertex -40.3975 8.58675 5
      vertex -39.1259 8.31647 5
    endloop
  endfacet
  facet normal 0 0 1
    outer loop
      vertex -4.49472 42.7644 5
      vertex -4.18114 39.7809 5
      vertex 4.49472 42.7644 5
    endloop
  endfacet
  facet normal 0 -0 1
    outer loop
      vertex 4.49472 42.7644 5
      vertex 4.18114 39.7809 5
      vertex 13.2877 40.8954 5
    endloop
  endfacet
  facet normal 0 -0 1
    outer loop
      vertex 13.2877 40.8954 5
      vertex 12.3607 38.0423 5
      vertex 21.5 37.2391 5
    endloop
  endfacet
  facet normal 0 -0 1
    outer loop
      vertex 21.5 37.2391 5
      vertex 20 34.641 5
      vertex 28.7726 31.9552 5
    endloop
  endfacet
  facet normal 0 -0 1
    outer loop
      vertex 28.7726 31.9552 5
      vertex 26.7652 29.7258 5
      vertex 34.7877 25.2748 5
    endloop
  endfacet
  facet normal 0 -0 1
    outer loop
      vertex 34.7877 25.2748 5
      vertex 32.3607 23.5114 5
      vertex 39.2825 17.4897 5
    endloop
  endfacet
  facet normal 0 -0 1
    outer loop
      vertex 39.2825 17.4897 5
      vertex 36.5418 16.2695 5
      vertex 42.0603 8.9402 5
    endloop
  endfacet
  facet normal 0 0 1
    outer loop
      vertex 43 0 5
      vertex 42 0 5
      vertex 42.0603 -8.9402 5
    endloop
  endfacet
  facet normal -0 0 1
    outer loop
      vertex 39.7286 -10.6453 5
      vertex 39.1259 -8.31647 5
      vertex 39.2825 -17.4897 5
    endloop
  endfacet
  facet normal 0 0 1
    outer loop
      vertex -39.1259 8.31647 5
      vertex -36.5418 16.2695 5
      vertex -39.7286 10.6453 5
    endloop
  endfacet
  facet normal 0 -0 1
    outer loop
      vertex 39.1259 -8.31647 5
      vertex 36.5418 -16.2695 5
      vertex 39.2825 -17.4897 5
    endloop
  endfacet
  facet normal 0 0 1
    outer loop
      vertex -39.7286 10.6453 5
      vertex -36.5418 16.2695 5
      vertex -40.402 10.8257 5
    endloop
  endfacet
  facet normal 0 0 1
    outer loop
      vertex 39.2825 -17.4897 5
      vertex 32.3607 -23.5114 5
      vertex 34.7877 -25.2748 5
    endloop
  endfacet
  facet normal 0 0 1
    outer loop
      vertex 39.1259 8.31647 5
      vertex 40 0 5
      vertex 41.3 0 5
    endloop
  endfacet
  facet normal 0 0 1
    outer loop
      vertex 34.7877 -25.2748 5
      vertex 26.7652 -29.7258 5
      vertex 28.7726 -31.9552 5
    endloop
  endfacet
  facet normal 0 0 1
    outer loop
      vertex 28.7726 -31.9552 5
      vertex 20 -34.641 5
      vertex 21.5 -37.2391 5
    endloop
  endfacet
  facet normal 0 0 1
    outer loop
      vertex 21.5 -37.2391 5
      vertex 12.3607 -38.0423 5
      vertex 13.2877 -40.8954 5
    endloop
  endfacet
  facet normal -0 0 1
    outer loop
      vertex 13.2877 -40.8954 5
      vertex 4.18114 -39.7809 5
      vertex 4.49472 -42.7644 5
    endloop
  endfacet
  facet normal -0 0 1
    outer loop
      vertex 4.49472 -42.7644 5
      vertex -4.18114 -39.7809 5
      vertex -4.49472 -42.7644 5
    endloop
  endfacet
  facet normal 0 0 1
    outer loop
      vertex -4.49472 -42.7644 5
      vertex -12.3607 -38.0423 5
      vertex -13.2877 -40.8954 5
    endloop
  endfacet
  facet normal 0 0 1
    outer loop
      vertex -13.2877 -40.8954 5
      vertex -20 -34.641 5
      vertex -21.5 -37.2391 5
    endloop
  endfacet
  facet normal 0 0 1
    outer loop
      vertex -21.5 -37.2391 5
      vertex -26.7652 -29.7258 5
      vertex -28.7726 -31.9552 5
    endloop
  endfacet
  facet normal 0 0 1
    outer loop
      vertex -28.7726 -31.9552 5
      vertex -32.3607 -23.5114 5
      vertex -34.7877 -25.2748 5
    endloop
  endfacet
  facet normal -0 0 1
    outer loop
      vertex -32.3607 -23.5114 5
      vertex -36.5418 -16.2695 5
      vertex -34.7877 -25.2748 5
    endloop
  endfacet
  facet normal -0 0 1
    outer loop
      vertex 40.402 -10.8257 5
      vertex 39.7286 -10.6453 5
      vertex 39.2825 -17.4897 5
    endloop
  endfacet
  facet normal -0 0 1
    outer loop
      vertex -26.7652 -29.7258 5
      vertex -32.3607 -23.5114 5
      vertex -28.7726 -31.9552 5
    endloop
  endfacet
  facet normal 0 0 1
    outer loop
      vertex 41.6173 3.64104 5
      vertex 42 0 5
      vertex 43 0 5
    endloop
  endfacet
  facet normal 0 -0 1
    outer loop
      vertex 42.0603 8.9402 5
      vertex 41.6173 3.64104 5
      vertex 43 0 5
    endloop
  endfacet
  facet normal 0 0 1
    outer loop
      vertex 42.0603 8.9402 5
      vertex 39.1259 8.31647 5
      vertex 41.6173 3.64104 5
    endloop
  endfacet
  facet normal 0 -0 1
    outer loop
      vertex 40 0 5
      vertex 39.1259 -8.31647 5
      vertex 40.3975 -8.58675 5
    endloop
  endfacet
  facet normal 0 0 1
    outer loop
      vertex 41.3 0 5
      vertex 40.9237 3.58036 5
      vertex 39.1259 8.31647 5
    endloop
  endfacet
  facet normal 0 -0 1
    outer loop
      vertex 41.0822 -8.73229 5
      vertex 40.402 -10.8257 5
      vertex 42.0603 -8.9402 5
    endloop
  endfacet
  facet normal 0 0 1
    outer loop
      vertex 42.0603 -8.9402 5
      vertex 40.402 -10.8257 5
      vertex 39.2825 -17.4897 5
    endloop
  endfacet
  facet normal 0 0 1
    outer loop
      vertex 39.7286 -10.6453 5
      vertex 40.3975 -8.58675 5
      vertex 39.1259 -8.31647 5
    endloop
  endfacet
  facet normal 0 0 1
    outer loop
      vertex 40.3975 -8.58675 5
      vertex 41.3 0 5
      vertex 40 0 5
    endloop
  endfacet
  facet normal -0 0 1
    outer loop
      vertex -20 -34.641 5
      vertex -26.7652 -29.7258 5
      vertex -21.5 -37.2391 5
    endloop
  endfacet
  facet normal -0 0 1
    outer loop
      vertex -12.3607 -38.0423 5
      vertex -20 -34.641 5
      vertex -13.2877 -40.8954 5
    endloop
  endfacet
  facet normal -0 0 1
    outer loop
      vertex -4.18114 -39.7809 5
      vertex -12.3607 -38.0423 5
      vertex -4.49472 -42.7644 5
    endloop
  endfacet
  facet normal 0 -0 1
    outer loop
      vertex 4.18114 -39.7809 5
      vertex -4.18114 -39.7809 5
      vertex 4.49472 -42.7644 5
    endloop
  endfacet
  facet normal 0 -0 1
    outer loop
      vertex 12.3607 -38.0423 5
      vertex 4.18114 -39.7809 5
      vertex 13.2877 -40.8954 5
    endloop
  endfacet
  facet normal 0 -0 1
    outer loop
      vertex 20 -34.641 5
      vertex 12.3607 -38.0423 5
      vertex 21.5 -37.2391 5
    endloop
  endfacet
  facet normal 0 -0 1
    outer loop
      vertex 26.7652 -29.7258 5
      vertex 20 -34.641 5
      vertex 28.7726 -31.9552 5
    endloop
  endfacet
  facet normal 0 -0 1
    outer loop
      vertex 32.3607 -23.5114 5
      vertex 26.7652 -29.7258 5
      vertex 34.7877 -25.2748 5
    endloop
  endfacet
  facet normal -0 -0 1
    outer loop
      vertex -36.5418 -16.2695 5
      vertex -39.1259 -8.31647 5
      vertex -34.7877 -25.2748 5
    endloop
  endfacet
  facet normal 0 0 1
    outer loop
      vertex -42 5.14335e-015 5
      vertex -41.0822 8.73229 5
      vertex -42.0603 8.9402 5
    endloop
  endfacet
  facet normal 0 -0 1
    outer loop
      vertex -39.5602 4.18445 1.4
      vertex -39.7117 2.7427 1.4
      vertex -39.1434 2.87391 1.4
    endloop
  endfacet
  facet normal -0 0 1
    outer loop
      vertex -39.0478 3.96693 1.4
      vertex -39.5602 4.18445 1.4
      vertex -39.1434 2.87391 1.4
    endloop
  endfacet
  facet normal 0 0 0
    outer loop
      vertex -40 4.89843e-015 1.4
      vertex -40 1.56028e-015 1.4
      vertex -40 -4.29896e-015 1.4
    endloop
  endfacet
  facet normal 0 0 1
    outer loop
      vertex -39.0257 -8.62489 1.4
      vertex -40 4.89843e-015 1.4
      vertex -39.1425 -8.15856 1.4
    endloop
  endfacet
  facet normal 0 0 1.16687e-016
    outer loop
      vertex -39.1425 -8.15856 1.4
      vertex -40 4.89843e-015 1.4
      vertex -40 -4.29896e-015 1.4
    endloop
  endfacet
  facet normal 0 0 1
    outer loop
      vertex -36.6333 -15.9879 1.4
      vertex -40 4.89843e-015 1.4
      vertex -39.0257 -8.62489 1.4
    endloop
  endfacet
  facet normal 0 0 1
    outer loop
      vertex -36.3112 -16.6689 1.4
      vertex -40 4.89843e-015 1.4
      vertex -36.6333 -15.9879 1.4
    endloop
  endfacet
  facet normal -0 -0 1
    outer loop
      vertex -37.7565 -8.02539 1.4
      vertex -40 4.89843e-015 1.4
      vertex -36.3112 -16.6689 1.4
    endloop
  endfacet
  facet normal 0 0 1
    outer loop
      vertex -31.2281 -22.6885 1.4
      vertex -32.563 -23.1609 1.4
      vertex -32.0341 -23.8742 1.4
    endloop
  endfacet
  facet normal -0 0 1
    outer loop
      vertex -31.2281 -22.6885 1.4
      vertex -35.2629 -15.7 1.4
      vertex -32.563 -23.1609 1.4
    endloop
  endfacet
  facet normal 0 0 1
    outer loop
      vertex -25.8284 -28.6854 1.4
      vertex -27.0822 -29.3738 1.4
      vertex -26.4052 -29.9874 1.4
    endloop
  endfacet
  facet normal -0 0 1
    outer loop
      vertex -25.8284 -28.6854 1.4
      vertex -31.2281 -22.6885 1.4
      vertex -27.0822 -29.3738 1.4
    endloop
  endfacet
  facet normal 0 0 1
    outer loop
      vertex -19.3 -33.4286 1.4
      vertex -20.3926 -34.3557 1.4
      vertex -19.6761 -34.7852 1.4
    endloop
  endfacet
  facet normal 0 0 1
    outer loop
      vertex -13.6391 -37.4731 1.4
      vertex -19.3 -33.4286 1.4
      vertex -19.6761 -34.7852 1.4
    endloop
  endfacet
  facet normal 0 0 1
    outer loop
      vertex -20.3926 -34.3557 1.4
      vertex -25.8284 -28.6854 1.4
      vertex -26.4052 -29.9874 1.4
    endloop
  endfacet
  facet normal 0 0 1
    outer loop
      vertex -27.0822 -29.3738 1.4
      vertex -31.2281 -22.6885 1.4
      vertex -32.0341 -23.8742 1.4
    endloop
  endfacet
  facet normal 0 0 1
    outer loop
      vertex -32.563 -23.1609 1.4
      vertex -35.2629 -15.7 1.4
      vertex -36.3112 -16.6689 1.4
    endloop
  endfacet
  facet normal -0 0 1
    outer loop
      vertex -35.2629 -15.7 1.4
      vertex -37.7565 -8.02539 1.4
      vertex -36.3112 -16.6689 1.4
    endloop
  endfacet
  facet normal -0 0 3.37641e-015
    outer loop
      vertex -38.6 4.72698e-015 1.4
      vertex -40 4.89843e-015 1.4
      vertex -38.6 0 1.4
    endloop
  endfacet
  facet normal -0 0 1
    outer loop
      vertex -13.1617 -36.1615 1.4
      vertex -19.3 -33.4286 1.4
      vertex -13.6391 -37.4731 1.4
    endloop
  endfacet
  facet normal -0 0 1
    outer loop
      vertex -19.3 -33.4286 1.4
      vertex -25.8284 -28.6854 1.4
      vertex -20.3926 -34.3557 1.4
    endloop
  endfacet
  facet normal 0 0 1
    outer loop
      vertex -37.7565 -8.02539 1.4
      vertex -38.6 0 1.4
      vertex -40 4.89843e-015 1.4
    endloop
  endfacet
  facet normal 0 0 1
    outer loop
      vertex 25.8284 28.6854 1.4
      vertex 27.0822 29.3738 1.4
      vertex 19.3 33.4286 1.4
    endloop
  endfacet
  facet normal 0 -0 1
    outer loop
      vertex 13.6391 37.4731 1.4
      vertex 13.1617 36.1615 1.4
      vertex 19.3 33.4286 1.4
    endloop
  endfacet
  facet normal 0 0 1
    outer loop
      vertex 31.2281 22.6885 1.4
      vertex 32.563 23.1609 1.4
      vertex 25.8284 28.6854 1.4
    endloop
  endfacet
  facet normal 0 0 1
    outer loop
      vertex 27.0822 29.3738 1.4
      vertex 13.6391 37.4731 1.4
      vertex 19.3 33.4286 1.4
    endloop
  endfacet
  facet normal 0 0 1
    outer loop
      vertex 35.2629 15.7 1.4
      vertex 36.6333 15.9879 1.4
      vertex 31.2281 22.6885 1.4
    endloop
  endfacet
  facet normal 0 0 1
    outer loop
      vertex 37.7565 8.02539 1.4
      vertex 39.1425 8.15856 1.4
      vertex 35.2629 15.7 1.4
    endloop
  endfacet
  facet normal 0 0 1
    outer loop
      vertex 38.6 0 1.4
      vertex 40 0 1.4
      vertex 37.7565 8.02539 1.4
    endloop
  endfacet
  facet normal 0 0 1
    outer loop
      vertex 40 0 1.4
      vertex 39.1425 8.15856 1.4
      vertex 37.7565 8.02539 1.4
    endloop
  endfacet
  facet normal 0 0 1
    outer loop
      vertex 39.1425 8.15856 1.4
      vertex 39.0257 8.62489 1.4
      vertex 35.2629 15.7 1.4
    endloop
  endfacet
  facet normal 0 0 1
    outer loop
      vertex 39.0257 8.62489 1.4
      vertex 36.6333 15.9879 1.4
      vertex 35.2629 15.7 1.4
    endloop
  endfacet
  facet normal 0 0 1
    outer loop
      vertex 36.6333 15.9879 1.4
      vertex 36.3112 16.6689 1.4
      vertex 31.2281 22.6885 1.4
    endloop
  endfacet
  facet normal 0 0 1
    outer loop
      vertex 36.3112 16.6689 1.4
      vertex 32.563 23.1609 1.4
      vertex 31.2281 22.6885 1.4
    endloop
  endfacet
  facet normal 0 0 1
    outer loop
      vertex 32.563 23.1609 1.4
      vertex 32.0341 23.8742 1.4
      vertex 25.8284 28.6854 1.4
    endloop
  endfacet
  facet normal 0 0 1
    outer loop
      vertex 32.0341 23.8742 1.4
      vertex 27.0822 29.3738 1.4
      vertex 25.8284 28.6854 1.4
    endloop
  endfacet
  facet normal 0 0 1
    outer loop
      vertex 27.0822 29.3738 1.4
      vertex 26.4052 29.9874 1.4
      vertex 13.6391 37.4731 1.4
    endloop
  endfacet
  facet normal 0 0 1
    outer loop
      vertex 26.4052 29.9874 1.4
      vertex 20.3926 34.3557 1.4
      vertex 13.6391 37.4731 1.4
    endloop
  endfacet
  facet normal 0 0 1
    outer loop
      vertex 20.3926 34.3557 1.4
      vertex 19.6761 34.7852 1.4
      vertex 13.6391 37.4731 1.4
    endloop
  endfacet
  facet normal 0 -0 1
    outer loop
      vertex 39.1434 -2.87391 1.4
      vertex 39.0478 -3.96693 1.4
      vertex 39.5602 -4.18445 1.4
    endloop
  endfacet
  facet normal 0 0 1
    outer loop
      vertex 39.7117 -2.7427 1.4
      vertex 39.1434 -2.87391 1.4
      vertex 39.5602 -4.18445 1.4
    endloop
  endfacet
endsolid OpenSCAD_Model
